G04 #@! TF.GenerationSoftware,KiCad,Pcbnew,(5.1.7)-1*
G04 #@! TF.CreationDate,2021-01-31T04:24:23+01:00*
G04 #@! TF.ProjectId,clockdiv,636c6f63-6b64-4697-962e-6b696361645f,rev?*
G04 #@! TF.SameCoordinates,Original*
G04 #@! TF.FileFunction,Legend,Top*
G04 #@! TF.FilePolarity,Positive*
%FSLAX46Y46*%
G04 Gerber Fmt 4.6, Leading zero omitted, Abs format (unit mm)*
G04 Created by KiCad (PCBNEW (5.1.7)-1) date 2021-01-31 04:24:23*
%MOMM*%
%LPD*%
G01*
G04 APERTURE LIST*
%ADD10C,0.230000*%
%ADD11C,0.150000*%
%ADD12C,0.275000*%
%ADD13C,0.200000*%
%ADD14C,0.120000*%
G04 APERTURE END LIST*
D10*
X110000285Y-161218285D02*
X110733619Y-160956380D01*
X110000285Y-160694476D01*
X109633619Y-160065904D02*
X109633619Y-159961142D01*
X109686000Y-159856380D01*
X109738380Y-159804000D01*
X109843142Y-159751619D01*
X110052666Y-159699238D01*
X110314571Y-159699238D01*
X110524095Y-159751619D01*
X110628857Y-159804000D01*
X110681238Y-159856380D01*
X110733619Y-159961142D01*
X110733619Y-160065904D01*
X110681238Y-160170666D01*
X110628857Y-160223047D01*
X110524095Y-160275428D01*
X110314571Y-160327809D01*
X110052666Y-160327809D01*
X109843142Y-160275428D01*
X109738380Y-160223047D01*
X109686000Y-160170666D01*
X109633619Y-160065904D01*
X110628857Y-159227809D02*
X110681238Y-159175428D01*
X110733619Y-159227809D01*
X110681238Y-159280190D01*
X110628857Y-159227809D01*
X110733619Y-159227809D01*
X109738380Y-158756380D02*
X109686000Y-158704000D01*
X109633619Y-158599238D01*
X109633619Y-158337333D01*
X109686000Y-158232571D01*
X109738380Y-158180190D01*
X109843142Y-158127809D01*
X109947904Y-158127809D01*
X110105047Y-158180190D01*
X110733619Y-158808761D01*
X110733619Y-158127809D01*
X110681238Y-155508761D02*
X110733619Y-155613523D01*
X110733619Y-155823047D01*
X110681238Y-155927809D01*
X110628857Y-155980190D01*
X110524095Y-156032571D01*
X110209809Y-156032571D01*
X110105047Y-155980190D01*
X110052666Y-155927809D01*
X110000285Y-155823047D01*
X110000285Y-155613523D01*
X110052666Y-155508761D01*
X110681238Y-154565904D02*
X110733619Y-154670666D01*
X110733619Y-154880190D01*
X110681238Y-154984952D01*
X110628857Y-155037333D01*
X110524095Y-155089714D01*
X110209809Y-155089714D01*
X110105047Y-155037333D01*
X110052666Y-154984952D01*
X110000285Y-154880190D01*
X110000285Y-154670666D01*
X110052666Y-154565904D01*
X110314571Y-154094476D02*
X110314571Y-153256380D01*
X110733619Y-152732571D02*
X109633619Y-152732571D01*
X110052666Y-152732571D02*
X110000285Y-152627809D01*
X110000285Y-152418285D01*
X110052666Y-152313523D01*
X110105047Y-152261142D01*
X110209809Y-152208761D01*
X110524095Y-152208761D01*
X110628857Y-152261142D01*
X110681238Y-152313523D01*
X110733619Y-152418285D01*
X110733619Y-152627809D01*
X110681238Y-152732571D01*
X110000285Y-151842095D02*
X110733619Y-151580190D01*
X110000285Y-151318285D02*
X110733619Y-151580190D01*
X110995523Y-151684952D01*
X111047904Y-151737333D01*
X111100285Y-151842095D01*
X110314571Y-150899238D02*
X110314571Y-150061142D01*
X110681238Y-149589714D02*
X110733619Y-149484952D01*
X110733619Y-149275428D01*
X110681238Y-149170666D01*
X110576476Y-149118285D01*
X110524095Y-149118285D01*
X110419333Y-149170666D01*
X110366952Y-149275428D01*
X110366952Y-149432571D01*
X110314571Y-149537333D01*
X110209809Y-149589714D01*
X110157428Y-149589714D01*
X110052666Y-149537333D01*
X110000285Y-149432571D01*
X110000285Y-149275428D01*
X110052666Y-149170666D01*
X110733619Y-148175428D02*
X110157428Y-148175428D01*
X110052666Y-148227809D01*
X110000285Y-148332571D01*
X110000285Y-148542095D01*
X110052666Y-148646857D01*
X110681238Y-148175428D02*
X110733619Y-148280190D01*
X110733619Y-148542095D01*
X110681238Y-148646857D01*
X110576476Y-148699238D01*
X110471714Y-148699238D01*
X110366952Y-148646857D01*
X110314571Y-148542095D01*
X110314571Y-148280190D01*
X110262190Y-148175428D01*
X110314571Y-147651619D02*
X110314571Y-146813523D01*
X109633619Y-146394476D02*
X109633619Y-145713523D01*
X110052666Y-146080190D01*
X110052666Y-145923047D01*
X110105047Y-145818285D01*
X110157428Y-145765904D01*
X110262190Y-145713523D01*
X110524095Y-145713523D01*
X110628857Y-145765904D01*
X110681238Y-145818285D01*
X110733619Y-145923047D01*
X110733619Y-146237333D01*
X110681238Y-146342095D01*
X110628857Y-146394476D01*
X110628857Y-145242095D02*
X110681238Y-145189714D01*
X110733619Y-145242095D01*
X110681238Y-145294476D01*
X110628857Y-145242095D01*
X110733619Y-145242095D01*
X109633619Y-144508761D02*
X109633619Y-144404000D01*
X109686000Y-144299238D01*
X109738380Y-144246857D01*
X109843142Y-144194476D01*
X110052666Y-144142095D01*
X110314571Y-144142095D01*
X110524095Y-144194476D01*
X110628857Y-144246857D01*
X110681238Y-144299238D01*
X110733619Y-144404000D01*
X110733619Y-144508761D01*
X110681238Y-144613523D01*
X110628857Y-144665904D01*
X110524095Y-144718285D01*
X110314571Y-144770666D01*
X110052666Y-144770666D01*
X109843142Y-144718285D01*
X109738380Y-144665904D01*
X109686000Y-144613523D01*
X109633619Y-144508761D01*
D11*
X112604571Y-163568380D02*
X113252190Y-163568380D01*
X113328380Y-163606476D01*
X113366476Y-163644571D01*
X113404571Y-163720761D01*
X113404571Y-163835047D01*
X113366476Y-163911238D01*
X113099809Y-163568380D02*
X113137904Y-163644571D01*
X113137904Y-163796952D01*
X113099809Y-163873142D01*
X113061714Y-163911238D01*
X112985523Y-163949333D01*
X112756952Y-163949333D01*
X112680761Y-163911238D01*
X112642666Y-163873142D01*
X112604571Y-163796952D01*
X112604571Y-163644571D01*
X112642666Y-163568380D01*
X113137904Y-163187428D02*
X112604571Y-163187428D01*
X112337904Y-163187428D02*
X112376000Y-163225523D01*
X112414095Y-163187428D01*
X112376000Y-163149333D01*
X112337904Y-163187428D01*
X112414095Y-163187428D01*
X112604571Y-162920761D02*
X112604571Y-162616000D01*
X112337904Y-162806476D02*
X113023619Y-162806476D01*
X113099809Y-162768380D01*
X113137904Y-162692190D01*
X113137904Y-162616000D01*
X113137904Y-162349333D02*
X112337904Y-162349333D01*
X113137904Y-162006476D02*
X112718857Y-162006476D01*
X112642666Y-162044571D01*
X112604571Y-162120761D01*
X112604571Y-162235047D01*
X112642666Y-162311238D01*
X112680761Y-162349333D01*
X112604571Y-161282666D02*
X113137904Y-161282666D01*
X112604571Y-161625523D02*
X113023619Y-161625523D01*
X113099809Y-161587428D01*
X113137904Y-161511238D01*
X113137904Y-161396952D01*
X113099809Y-161320761D01*
X113061714Y-161282666D01*
X113137904Y-160901714D02*
X112337904Y-160901714D01*
X112642666Y-160901714D02*
X112604571Y-160825523D01*
X112604571Y-160673142D01*
X112642666Y-160596952D01*
X112680761Y-160558857D01*
X112756952Y-160520761D01*
X112985523Y-160520761D01*
X113061714Y-160558857D01*
X113099809Y-160596952D01*
X113137904Y-160673142D01*
X113137904Y-160825523D01*
X113099809Y-160901714D01*
X113061714Y-160177904D02*
X113099809Y-160139809D01*
X113137904Y-160177904D01*
X113099809Y-160216000D01*
X113061714Y-160177904D01*
X113137904Y-160177904D01*
X113099809Y-159454095D02*
X113137904Y-159530285D01*
X113137904Y-159682666D01*
X113099809Y-159758857D01*
X113061714Y-159796952D01*
X112985523Y-159835047D01*
X112756952Y-159835047D01*
X112680761Y-159796952D01*
X112642666Y-159758857D01*
X112604571Y-159682666D01*
X112604571Y-159530285D01*
X112642666Y-159454095D01*
X113137904Y-158996952D02*
X113099809Y-159073142D01*
X113061714Y-159111238D01*
X112985523Y-159149333D01*
X112756952Y-159149333D01*
X112680761Y-159111238D01*
X112642666Y-159073142D01*
X112604571Y-158996952D01*
X112604571Y-158882666D01*
X112642666Y-158806476D01*
X112680761Y-158768380D01*
X112756952Y-158730285D01*
X112985523Y-158730285D01*
X113061714Y-158768380D01*
X113099809Y-158806476D01*
X113137904Y-158882666D01*
X113137904Y-158996952D01*
X113137904Y-158387428D02*
X112604571Y-158387428D01*
X112680761Y-158387428D02*
X112642666Y-158349333D01*
X112604571Y-158273142D01*
X112604571Y-158158857D01*
X112642666Y-158082666D01*
X112718857Y-158044571D01*
X113137904Y-158044571D01*
X112718857Y-158044571D02*
X112642666Y-158006476D01*
X112604571Y-157930285D01*
X112604571Y-157816000D01*
X112642666Y-157739809D01*
X112718857Y-157701714D01*
X113137904Y-157701714D01*
X112299809Y-156749333D02*
X113328380Y-157435047D01*
X112604571Y-156558857D02*
X113137904Y-156368380D01*
X112604571Y-156177904D01*
X113099809Y-155568380D02*
X113137904Y-155644571D01*
X113137904Y-155796952D01*
X113099809Y-155873142D01*
X113023619Y-155911238D01*
X112718857Y-155911238D01*
X112642666Y-155873142D01*
X112604571Y-155796952D01*
X112604571Y-155644571D01*
X112642666Y-155568380D01*
X112718857Y-155530285D01*
X112795047Y-155530285D01*
X112871238Y-155911238D01*
X113137904Y-155187428D02*
X112604571Y-155187428D01*
X112756952Y-155187428D02*
X112680761Y-155149333D01*
X112642666Y-155111238D01*
X112604571Y-155035047D01*
X112604571Y-154958857D01*
X113099809Y-154730285D02*
X113137904Y-154654095D01*
X113137904Y-154501714D01*
X113099809Y-154425523D01*
X113023619Y-154387428D01*
X112985523Y-154387428D01*
X112909333Y-154425523D01*
X112871238Y-154501714D01*
X112871238Y-154616000D01*
X112833142Y-154692190D01*
X112756952Y-154730285D01*
X112718857Y-154730285D01*
X112642666Y-154692190D01*
X112604571Y-154616000D01*
X112604571Y-154501714D01*
X112642666Y-154425523D01*
X112604571Y-153701714D02*
X113137904Y-153701714D01*
X112604571Y-154044571D02*
X113023619Y-154044571D01*
X113099809Y-154006476D01*
X113137904Y-153930285D01*
X113137904Y-153816000D01*
X113099809Y-153739809D01*
X113061714Y-153701714D01*
X113099809Y-153358857D02*
X113137904Y-153282666D01*
X113137904Y-153130285D01*
X113099809Y-153054095D01*
X113023619Y-153016000D01*
X112985523Y-153016000D01*
X112909333Y-153054095D01*
X112871238Y-153130285D01*
X112871238Y-153244571D01*
X112833142Y-153320761D01*
X112756952Y-153358857D01*
X112718857Y-153358857D01*
X112642666Y-153320761D01*
X112604571Y-153244571D01*
X112604571Y-153130285D01*
X112642666Y-153054095D01*
X113099809Y-152368380D02*
X113137904Y-152444571D01*
X113137904Y-152596952D01*
X113099809Y-152673142D01*
X113023619Y-152711238D01*
X112718857Y-152711238D01*
X112642666Y-152673142D01*
X112604571Y-152596952D01*
X112604571Y-152444571D01*
X112642666Y-152368380D01*
X112718857Y-152330285D01*
X112795047Y-152330285D01*
X112871238Y-152711238D01*
X112604571Y-151987428D02*
X113137904Y-151987428D01*
X112680761Y-151987428D02*
X112642666Y-151949333D01*
X112604571Y-151873142D01*
X112604571Y-151758857D01*
X112642666Y-151682666D01*
X112718857Y-151644571D01*
X113137904Y-151644571D01*
X112604571Y-151377904D02*
X112604571Y-151073142D01*
X112337904Y-151263619D02*
X113023619Y-151263619D01*
X113099809Y-151225523D01*
X113137904Y-151149333D01*
X113137904Y-151073142D01*
X113137904Y-150806476D02*
X112604571Y-150806476D01*
X112756952Y-150806476D02*
X112680761Y-150768380D01*
X112642666Y-150730285D01*
X112604571Y-150654095D01*
X112604571Y-150577904D01*
X113137904Y-150196952D02*
X113099809Y-150273142D01*
X113061714Y-150311238D01*
X112985523Y-150349333D01*
X112756952Y-150349333D01*
X112680761Y-150311238D01*
X112642666Y-150273142D01*
X112604571Y-150196952D01*
X112604571Y-150082666D01*
X112642666Y-150006476D01*
X112680761Y-149968380D01*
X112756952Y-149930285D01*
X112985523Y-149930285D01*
X113061714Y-149968380D01*
X113099809Y-150006476D01*
X113137904Y-150082666D01*
X113137904Y-150196952D01*
X112604571Y-149587428D02*
X113404571Y-149587428D01*
X112642666Y-149587428D02*
X112604571Y-149511238D01*
X112604571Y-149358857D01*
X112642666Y-149282666D01*
X112680761Y-149244571D01*
X112756952Y-149206476D01*
X112985523Y-149206476D01*
X113061714Y-149244571D01*
X113099809Y-149282666D01*
X113137904Y-149358857D01*
X113137904Y-149511238D01*
X113099809Y-149587428D01*
X112604571Y-148939809D02*
X113137904Y-148749333D01*
X112604571Y-148558857D02*
X113137904Y-148749333D01*
X113328380Y-148825523D01*
X113366476Y-148863619D01*
X113404571Y-148939809D01*
X112299809Y-147682666D02*
X113328380Y-148368380D01*
X113099809Y-147073142D02*
X113137904Y-147149333D01*
X113137904Y-147301714D01*
X113099809Y-147377904D01*
X113061714Y-147416000D01*
X112985523Y-147454095D01*
X112756952Y-147454095D01*
X112680761Y-147416000D01*
X112642666Y-147377904D01*
X112604571Y-147301714D01*
X112604571Y-147149333D01*
X112642666Y-147073142D01*
X113137904Y-146616000D02*
X113099809Y-146692190D01*
X113023619Y-146730285D01*
X112337904Y-146730285D01*
X113137904Y-146196952D02*
X113099809Y-146273142D01*
X113061714Y-146311238D01*
X112985523Y-146349333D01*
X112756952Y-146349333D01*
X112680761Y-146311238D01*
X112642666Y-146273142D01*
X112604571Y-146196952D01*
X112604571Y-146082666D01*
X112642666Y-146006476D01*
X112680761Y-145968380D01*
X112756952Y-145930285D01*
X112985523Y-145930285D01*
X113061714Y-145968380D01*
X113099809Y-146006476D01*
X113137904Y-146082666D01*
X113137904Y-146196952D01*
X113099809Y-145244571D02*
X113137904Y-145320761D01*
X113137904Y-145473142D01*
X113099809Y-145549333D01*
X113061714Y-145587428D01*
X112985523Y-145625523D01*
X112756952Y-145625523D01*
X112680761Y-145587428D01*
X112642666Y-145549333D01*
X112604571Y-145473142D01*
X112604571Y-145320761D01*
X112642666Y-145244571D01*
X113137904Y-144901714D02*
X112337904Y-144901714D01*
X112833142Y-144825523D02*
X113137904Y-144596952D01*
X112604571Y-144596952D02*
X112909333Y-144901714D01*
X113137904Y-143911238D02*
X112337904Y-143911238D01*
X113099809Y-143911238D02*
X113137904Y-143987428D01*
X113137904Y-144139809D01*
X113099809Y-144216000D01*
X113061714Y-144254095D01*
X112985523Y-144292190D01*
X112756952Y-144292190D01*
X112680761Y-144254095D01*
X112642666Y-144216000D01*
X112604571Y-144139809D01*
X112604571Y-143987428D01*
X112642666Y-143911238D01*
X113137904Y-143530285D02*
X112604571Y-143530285D01*
X112337904Y-143530285D02*
X112376000Y-143568380D01*
X112414095Y-143530285D01*
X112376000Y-143492190D01*
X112337904Y-143530285D01*
X112414095Y-143530285D01*
X112604571Y-143225523D02*
X113137904Y-143035047D01*
X112604571Y-142844571D01*
D12*
X110314571Y-165026857D02*
X110314571Y-164188761D01*
X109633619Y-163769714D02*
X109633619Y-163036380D01*
X110733619Y-163507809D01*
D13*
X110601238Y-167195428D02*
X110506000Y-167100190D01*
X110410761Y-166909714D01*
X110410761Y-166433523D01*
X110506000Y-166243047D01*
X110601238Y-166147809D01*
X110791714Y-166052571D01*
X110982190Y-166052571D01*
X111267904Y-166147809D01*
X112410761Y-167290666D01*
X112410761Y-166052571D01*
D14*
X130556000Y-76708000D02*
X130556000Y-81026000D01*
X130556000Y-77724000D02*
X130556000Y-76708000D01*
X134306000Y-77724000D02*
X130556000Y-77724000D01*
D11*
X129182857Y-77367238D02*
X129135238Y-77319619D01*
X129087619Y-77176761D01*
X129087619Y-77081523D01*
X129135238Y-76938666D01*
X129230476Y-76843428D01*
X129325714Y-76795809D01*
X129516190Y-76748190D01*
X129659047Y-76748190D01*
X129849523Y-76795809D01*
X129944761Y-76843428D01*
X130040000Y-76938666D01*
X130087619Y-77081523D01*
X130087619Y-77176761D01*
X130040000Y-77319619D01*
X129992380Y-77367238D01*
X129087619Y-78272000D02*
X129087619Y-77795809D01*
X130087619Y-77795809D01*
X129087619Y-78605333D02*
X130087619Y-78605333D01*
X129087619Y-79176761D02*
X129659047Y-78748190D01*
X130087619Y-79176761D02*
X129516190Y-78605333D01*
X130087619Y-79462476D02*
X130087619Y-80033904D01*
X129087619Y-79748190D02*
X130087619Y-79748190D01*
X129087619Y-80367238D02*
X130087619Y-80367238D01*
X129087619Y-80938666D01*
X130087619Y-80938666D01*
X130040000Y-82700571D02*
X130087619Y-82605333D01*
X130087619Y-82462476D01*
X130040000Y-82319619D01*
X129944761Y-82224380D01*
X129849523Y-82176761D01*
X129659047Y-82129142D01*
X129516190Y-82129142D01*
X129325714Y-82176761D01*
X129230476Y-82224380D01*
X129135238Y-82319619D01*
X129087619Y-82462476D01*
X129087619Y-82557714D01*
X129135238Y-82700571D01*
X129182857Y-82748190D01*
X129516190Y-82748190D01*
X129516190Y-82557714D01*
X129087619Y-83176761D02*
X130087619Y-83176761D01*
X129087619Y-83748190D01*
X130087619Y-83748190D01*
X129087619Y-84224380D02*
X130087619Y-84224380D01*
X130087619Y-84462476D01*
X130040000Y-84605333D01*
X129944761Y-84700571D01*
X129849523Y-84748190D01*
X129659047Y-84795809D01*
X129516190Y-84795809D01*
X129325714Y-84748190D01*
X129230476Y-84700571D01*
X129135238Y-84605333D01*
X129087619Y-84462476D01*
X129087619Y-84224380D01*
X112323619Y-94686857D02*
X112799809Y-94353523D01*
X112323619Y-94115428D02*
X113323619Y-94115428D01*
X113323619Y-94496380D01*
X113276000Y-94591619D01*
X113228380Y-94639238D01*
X113133142Y-94686857D01*
X112990285Y-94686857D01*
X112895047Y-94639238D01*
X112847428Y-94591619D01*
X112799809Y-94496380D01*
X112799809Y-94115428D01*
X112847428Y-95115428D02*
X112847428Y-95448761D01*
X112323619Y-95591619D02*
X112323619Y-95115428D01*
X113323619Y-95115428D01*
X113323619Y-95591619D01*
X112371238Y-95972571D02*
X112323619Y-96115428D01*
X112323619Y-96353523D01*
X112371238Y-96448761D01*
X112418857Y-96496380D01*
X112514095Y-96544000D01*
X112609333Y-96544000D01*
X112704571Y-96496380D01*
X112752190Y-96448761D01*
X112799809Y-96353523D01*
X112847428Y-96163047D01*
X112895047Y-96067809D01*
X112942666Y-96020190D01*
X113037904Y-95972571D01*
X113133142Y-95972571D01*
X113228380Y-96020190D01*
X113276000Y-96067809D01*
X113323619Y-96163047D01*
X113323619Y-96401142D01*
X113276000Y-96544000D01*
X112847428Y-96972571D02*
X112847428Y-97305904D01*
X112323619Y-97448761D02*
X112323619Y-96972571D01*
X113323619Y-96972571D01*
X113323619Y-97448761D01*
X113323619Y-97734476D02*
X113323619Y-98305904D01*
X112323619Y-98020190D02*
X113323619Y-98020190D01*
X113276000Y-99924952D02*
X113323619Y-99829714D01*
X113323619Y-99686857D01*
X113276000Y-99544000D01*
X113180761Y-99448761D01*
X113085523Y-99401142D01*
X112895047Y-99353523D01*
X112752190Y-99353523D01*
X112561714Y-99401142D01*
X112466476Y-99448761D01*
X112371238Y-99544000D01*
X112323619Y-99686857D01*
X112323619Y-99782095D01*
X112371238Y-99924952D01*
X112418857Y-99972571D01*
X112752190Y-99972571D01*
X112752190Y-99782095D01*
X112323619Y-100401142D02*
X113323619Y-100401142D01*
X112323619Y-100972571D01*
X113323619Y-100972571D01*
X112323619Y-101448761D02*
X113323619Y-101448761D01*
X113323619Y-101686857D01*
X113276000Y-101829714D01*
X113180761Y-101924952D01*
X113085523Y-101972571D01*
X112895047Y-102020190D01*
X112752190Y-102020190D01*
X112561714Y-101972571D01*
X112466476Y-101924952D01*
X112371238Y-101829714D01*
X112323619Y-101686857D01*
X112323619Y-101448761D01*
X108132571Y-104442476D02*
X108132571Y-105204380D01*
X107751619Y-104823428D02*
X108513523Y-104823428D01*
X107751619Y-106204380D02*
X107751619Y-105632952D01*
X107751619Y-105918666D02*
X108751619Y-105918666D01*
X108608761Y-105823428D01*
X108513523Y-105728190D01*
X108465904Y-105632952D01*
X108656380Y-106585333D02*
X108704000Y-106632952D01*
X108751619Y-106728190D01*
X108751619Y-106966285D01*
X108704000Y-107061523D01*
X108656380Y-107109142D01*
X108561142Y-107156761D01*
X108465904Y-107156761D01*
X108323047Y-107109142D01*
X107751619Y-106537714D01*
X107751619Y-107156761D01*
X108751619Y-107442476D02*
X107751619Y-107775809D01*
X108751619Y-108109142D01*
X108704000Y-110490095D02*
X108751619Y-110394857D01*
X108751619Y-110252000D01*
X108704000Y-110109142D01*
X108608761Y-110013904D01*
X108513523Y-109966285D01*
X108323047Y-109918666D01*
X108180190Y-109918666D01*
X107989714Y-109966285D01*
X107894476Y-110013904D01*
X107799238Y-110109142D01*
X107751619Y-110252000D01*
X107751619Y-110347238D01*
X107799238Y-110490095D01*
X107846857Y-110537714D01*
X108180190Y-110537714D01*
X108180190Y-110347238D01*
X107751619Y-110966285D02*
X108751619Y-110966285D01*
X107751619Y-111537714D01*
X108751619Y-111537714D01*
X107751619Y-112013904D02*
X108751619Y-112013904D01*
X108751619Y-112252000D01*
X108704000Y-112394857D01*
X108608761Y-112490095D01*
X108513523Y-112537714D01*
X108323047Y-112585333D01*
X108180190Y-112585333D01*
X107989714Y-112537714D01*
X107894476Y-112490095D01*
X107799238Y-112394857D01*
X107751619Y-112252000D01*
X107751619Y-112013904D01*
X108132571Y-114537714D02*
X108132571Y-115299619D01*
X107751619Y-116299619D02*
X107751619Y-115728190D01*
X107751619Y-116013904D02*
X108751619Y-116013904D01*
X108608761Y-115918666D01*
X108513523Y-115823428D01*
X108465904Y-115728190D01*
X108656380Y-116680571D02*
X108704000Y-116728190D01*
X108751619Y-116823428D01*
X108751619Y-117061523D01*
X108704000Y-117156761D01*
X108656380Y-117204380D01*
X108561142Y-117252000D01*
X108465904Y-117252000D01*
X108323047Y-117204380D01*
X107751619Y-116632952D01*
X107751619Y-117252000D01*
X108751619Y-117537714D02*
X107751619Y-117871047D01*
X108751619Y-118204380D01*
D14*
G04 #@! TO.C,R22*
X123343641Y-133097000D02*
X123036359Y-133097000D01*
X123343641Y-133857000D02*
X123036359Y-133857000D01*
G04 #@! TO.C,R31*
X119426258Y-165339500D02*
X118951742Y-165339500D01*
X119426258Y-166384500D02*
X118951742Y-166384500D01*
G04 #@! TO.C,R30*
X119363258Y-153909500D02*
X118888742Y-153909500D01*
X119363258Y-154954500D02*
X118888742Y-154954500D01*
G04 #@! TO.C,R27*
X119363258Y-142479500D02*
X118888742Y-142479500D01*
X119363258Y-143524500D02*
X118888742Y-143524500D01*
G04 #@! TO.C,R24*
X119426258Y-129525500D02*
X118951742Y-129525500D01*
X119426258Y-130570500D02*
X118951742Y-130570500D01*
G04 #@! TO.C,R21*
X119363258Y-106919500D02*
X118888742Y-106919500D01*
X119363258Y-107964500D02*
X118888742Y-107964500D01*
G04 #@! TO.C,R18*
X119363258Y-119619500D02*
X118888742Y-119619500D01*
X119363258Y-120664500D02*
X118888742Y-120664500D01*
G04 #@! TO.C,R15*
X119808258Y-96505500D02*
X119333742Y-96505500D01*
X119808258Y-97550500D02*
X119333742Y-97550500D01*
G04 #@! TO.C,R8*
X121895965Y-89461436D02*
X121678684Y-89678717D01*
X121358564Y-88924035D02*
X121141283Y-89141316D01*
G04 #@! TO.C,J10*
X134306000Y-81594000D02*
X136966000Y-81594000D01*
X134306000Y-78994000D02*
X134306000Y-81594000D01*
X136966000Y-78994000D02*
X136966000Y-81594000D01*
X134306000Y-78994000D02*
X136966000Y-78994000D01*
X134306000Y-77724000D02*
X134306000Y-76394000D01*
X134306000Y-76394000D02*
X135636000Y-76394000D01*
G04 #@! TO.C,J3*
X108652000Y-98993000D02*
X111312000Y-98993000D01*
X108652000Y-96393000D02*
X108652000Y-98993000D01*
X111312000Y-96393000D02*
X111312000Y-98993000D01*
X108652000Y-96393000D02*
X111312000Y-96393000D01*
X108652000Y-95123000D02*
X108652000Y-93793000D01*
X108652000Y-93793000D02*
X109982000Y-93793000D01*
G04 #@! TO.C,U2*
X107842000Y-139222000D02*
X109102000Y-139222000D01*
X114662000Y-139222000D02*
X113402000Y-139222000D01*
X107842000Y-135462000D02*
X107842000Y-139222000D01*
X114662000Y-133212000D02*
X114662000Y-139222000D01*
G04 #@! TO.C,C6*
X115852000Y-137654000D02*
X120062000Y-137654000D01*
X120062000Y-137654000D02*
X120062000Y-134634000D01*
X120062000Y-134634000D02*
X115852000Y-134634000D01*
G04 #@! TO.C,C5*
X109542000Y-124762000D02*
X109542000Y-131522000D01*
X109542000Y-131522000D02*
X112962000Y-131522000D01*
X112962000Y-131522000D02*
X112962000Y-124762000D01*
G04 #@! TO.C,R12*
X121512359Y-165482000D02*
X121819641Y-165482000D01*
X121512359Y-166242000D02*
X121819641Y-166242000D01*
G04 #@! TO.C,R10*
X122808000Y-161136359D02*
X122808000Y-161443641D01*
X122048000Y-161136359D02*
X122048000Y-161443641D01*
G04 #@! TO.C,Q5*
X121788000Y-162562000D02*
X120858000Y-162562000D01*
X118628000Y-162562000D02*
X119558000Y-162562000D01*
X118628000Y-162562000D02*
X118628000Y-164722000D01*
X121788000Y-162562000D02*
X121788000Y-164022000D01*
G04 #@! TO.C,U1*
X132197000Y-89408000D02*
X132197000Y-87458000D01*
X132197000Y-89408000D02*
X132197000Y-91358000D01*
X123327000Y-89408000D02*
X123327000Y-87458000D01*
X123327000Y-89408000D02*
X123327000Y-92858000D01*
G04 #@! TO.C,R11*
X112368359Y-91060000D02*
X112675641Y-91060000D01*
X112368359Y-91820000D02*
X112675641Y-91820000D01*
G04 #@! TO.C,J11*
X108906000Y-117916000D02*
X114106000Y-117916000D01*
X108906000Y-107696000D02*
X108906000Y-117916000D01*
X114106000Y-105096000D02*
X114106000Y-117916000D01*
X108906000Y-107696000D02*
X111506000Y-107696000D01*
X111506000Y-107696000D02*
X111506000Y-105096000D01*
X111506000Y-105096000D02*
X114106000Y-105096000D01*
X108906000Y-106426000D02*
X108906000Y-105096000D01*
X108906000Y-105096000D02*
X110236000Y-105096000D01*
G04 #@! TO.C,D5*
X114138000Y-104378000D02*
X114138000Y-102378000D01*
X114138000Y-102378000D02*
X110238000Y-102378000D01*
X114138000Y-104378000D02*
X110238000Y-104378000D01*
G04 #@! TO.C,C4*
X116070748Y-102389000D02*
X116593252Y-102389000D01*
X116070748Y-103859000D02*
X116593252Y-103859000D01*
G04 #@! TO.C,D4*
X113300000Y-82260000D02*
X115300000Y-82260000D01*
X115300000Y-82260000D02*
X115300000Y-78360000D01*
X113300000Y-82260000D02*
X113300000Y-78360000D01*
G04 #@! TO.C,D3*
X110601000Y-87793000D02*
X108601000Y-87793000D01*
X108601000Y-87793000D02*
X108601000Y-91693000D01*
X110601000Y-87793000D02*
X110601000Y-91693000D01*
G04 #@! TO.C,D2*
X112868000Y-81010000D02*
X112868000Y-79010000D01*
X112868000Y-79010000D02*
X108968000Y-79010000D01*
X112868000Y-81010000D02*
X108968000Y-81010000D01*
G04 #@! TO.C,D1*
X120306000Y-78756000D02*
X120306000Y-80756000D01*
X120306000Y-80756000D02*
X124206000Y-80756000D01*
X120306000Y-78756000D02*
X124206000Y-78756000D01*
G04 #@! TO.C,C2*
X122684000Y-85965420D02*
X122684000Y-86246580D01*
X121664000Y-85965420D02*
X121664000Y-86246580D01*
G04 #@! TO.C,R29*
X121514359Y-154812000D02*
X121821641Y-154812000D01*
X121514359Y-154052000D02*
X121821641Y-154052000D01*
G04 #@! TO.C,R28*
X123343641Y-157354000D02*
X123036359Y-157354000D01*
X123343641Y-158114000D02*
X123036359Y-158114000D01*
G04 #@! TO.C,R26*
X121512359Y-143382000D02*
X121819641Y-143382000D01*
X121512359Y-142622000D02*
X121819641Y-142622000D01*
G04 #@! TO.C,R25*
X123345641Y-145924000D02*
X123038359Y-145924000D01*
X123345641Y-146684000D02*
X123038359Y-146684000D01*
G04 #@! TO.C,R23*
X121512359Y-130428000D02*
X121819641Y-130428000D01*
X121512359Y-129668000D02*
X121819641Y-129668000D01*
G04 #@! TO.C,R20*
X121512359Y-107822000D02*
X121819641Y-107822000D01*
X121512359Y-107062000D02*
X121819641Y-107062000D01*
G04 #@! TO.C,R19*
X123343641Y-110108000D02*
X123036359Y-110108000D01*
X123343641Y-109348000D02*
X123036359Y-109348000D01*
G04 #@! TO.C,R17*
X121512359Y-120522000D02*
X121819641Y-120522000D01*
X121512359Y-119762000D02*
X121819641Y-119762000D01*
G04 #@! TO.C,R16*
X123597641Y-121540000D02*
X123290359Y-121540000D01*
X123597641Y-122300000D02*
X123290359Y-122300000D01*
G04 #@! TO.C,R14*
X122046000Y-96673641D02*
X122046000Y-96366359D01*
X121286000Y-96673641D02*
X121286000Y-96366359D01*
G04 #@! TO.C,R13*
X124105641Y-98426000D02*
X123798359Y-98426000D01*
X124105641Y-99186000D02*
X123798359Y-99186000D01*
G04 #@! TO.C,R9*
X117220000Y-88799641D02*
X117220000Y-88492359D01*
X116460000Y-88799641D02*
X116460000Y-88492359D01*
G04 #@! TO.C,R7*
X113945641Y-82678000D02*
X113638359Y-82678000D01*
X113945641Y-83438000D02*
X113638359Y-83438000D01*
G04 #@! TO.C,R6*
X109981000Y-86386641D02*
X109981000Y-86079359D01*
X109221000Y-86386641D02*
X109221000Y-86079359D01*
G04 #@! TO.C,R5*
X111888000Y-82142359D02*
X111888000Y-82449641D01*
X112648000Y-82142359D02*
X112648000Y-82449641D01*
G04 #@! TO.C,R4*
X119254000Y-80110359D02*
X119254000Y-80417641D01*
X120014000Y-80110359D02*
X120014000Y-80417641D01*
G04 #@! TO.C,R3*
X127126000Y-83973641D02*
X127126000Y-83666359D01*
X126366000Y-83973641D02*
X126366000Y-83666359D01*
G04 #@! TO.C,R2*
X126366000Y-81634359D02*
X126366000Y-81941641D01*
X127126000Y-81634359D02*
X127126000Y-81941641D01*
G04 #@! TO.C,R1*
X127382000Y-83666359D02*
X127382000Y-83973641D01*
X128142000Y-83666359D02*
X128142000Y-83973641D01*
G04 #@! TO.C,Q11*
X119382000Y-155392000D02*
X120842000Y-155392000D01*
X119382000Y-158552000D02*
X121542000Y-158552000D01*
X119382000Y-158552000D02*
X119382000Y-157622000D01*
X119382000Y-155392000D02*
X119382000Y-156322000D01*
G04 #@! TO.C,Q10*
X119382000Y-143962000D02*
X120842000Y-143962000D01*
X119382000Y-147122000D02*
X121542000Y-147122000D01*
X119382000Y-147122000D02*
X119382000Y-146192000D01*
X119382000Y-143962000D02*
X119382000Y-144892000D01*
G04 #@! TO.C,Q9*
X119398000Y-131008000D02*
X120858000Y-131008000D01*
X119398000Y-134168000D02*
X121558000Y-134168000D01*
X119398000Y-134168000D02*
X119398000Y-133238000D01*
X119398000Y-131008000D02*
X119398000Y-131938000D01*
G04 #@! TO.C,Q8*
X119382000Y-108402000D02*
X120842000Y-108402000D01*
X119382000Y-111562000D02*
X121542000Y-111562000D01*
X119382000Y-111562000D02*
X119382000Y-110632000D01*
X119382000Y-108402000D02*
X119382000Y-109332000D01*
G04 #@! TO.C,Q7*
X119382000Y-121102000D02*
X120842000Y-121102000D01*
X119382000Y-124262000D02*
X121542000Y-124262000D01*
X119382000Y-124262000D02*
X119382000Y-123332000D01*
X119382000Y-121102000D02*
X119382000Y-122032000D01*
G04 #@! TO.C,Q6*
X119578000Y-100582000D02*
X119578000Y-99122000D01*
X122738000Y-100582000D02*
X122738000Y-98422000D01*
X122738000Y-100582000D02*
X121808000Y-100582000D01*
X119578000Y-100582000D02*
X120508000Y-100582000D01*
G04 #@! TO.C,Q4*
X112720000Y-89914000D02*
X112720000Y-88454000D01*
X115880000Y-89914000D02*
X115880000Y-87754000D01*
X115880000Y-89914000D02*
X114950000Y-89914000D01*
X112720000Y-89914000D02*
X113650000Y-89914000D01*
G04 #@! TO.C,Q3*
X111450000Y-86358000D02*
X111450000Y-84898000D01*
X114610000Y-86358000D02*
X114610000Y-84198000D01*
X114610000Y-86358000D02*
X113680000Y-86358000D01*
X111450000Y-86358000D02*
X112380000Y-86358000D01*
G04 #@! TO.C,Q2*
X117866000Y-87628000D02*
X117866000Y-86168000D01*
X121026000Y-87628000D02*
X121026000Y-85468000D01*
X121026000Y-87628000D02*
X120096000Y-87628000D01*
X117866000Y-87628000D02*
X118796000Y-87628000D01*
G04 #@! TO.C,Q1*
X118108000Y-80066000D02*
X116648000Y-80066000D01*
X118108000Y-76906000D02*
X115948000Y-76906000D01*
X118108000Y-76906000D02*
X118108000Y-77836000D01*
X118108000Y-80066000D02*
X118108000Y-79136000D01*
G04 #@! TD*
M02*
