G04 #@! TF.GenerationSoftware,KiCad,Pcbnew,(5.1.7)-1*
G04 #@! TF.CreationDate,2021-01-31T04:24:23+01:00*
G04 #@! TF.ProjectId,clockdiv,636c6f63-6b64-4697-962e-6b696361645f,rev?*
G04 #@! TF.SameCoordinates,Original*
G04 #@! TF.FileFunction,Soldermask,Bot*
G04 #@! TF.FilePolarity,Negative*
%FSLAX46Y46*%
G04 Gerber Fmt 4.6, Leading zero omitted, Abs format (unit mm)*
G04 Created by KiCad (PCBNEW (5.1.7)-1) date 2021-01-31 04:24:23*
%MOMM*%
%LPD*%
G01*
G04 APERTURE LIST*
%ADD10O,2.350000X2.800000*%
%ADD11R,2.150000X2.600000*%
%ADD12C,2.700000*%
%ADD13O,1.700000X1.700000*%
%ADD14R,1.700000X1.700000*%
%ADD15C,1.800000*%
%ADD16R,1.800000X1.800000*%
G04 APERTURE END LIST*
D10*
G04 #@! TO.C,J2*
X117856000Y-83058000D03*
D11*
X120956000Y-83058000D03*
D12*
X109556000Y-83058000D03*
G04 #@! TD*
D13*
G04 #@! TO.C,J10*
X135636000Y-80264000D03*
D14*
X135636000Y-77724000D03*
G04 #@! TD*
D13*
G04 #@! TO.C,J3*
X109982000Y-97663000D03*
D14*
X109982000Y-95123000D03*
G04 #@! TD*
D10*
G04 #@! TO.C,J12*
X132536000Y-164592000D03*
D11*
X135636000Y-164592000D03*
D12*
X124236000Y-164592000D03*
G04 #@! TD*
D15*
G04 #@! TO.C,D6*
X116332000Y-165862000D03*
D16*
X116332000Y-163322000D03*
G04 #@! TD*
D13*
G04 #@! TO.C,J11*
X112776000Y-116586000D03*
X110236000Y-116586000D03*
X112776000Y-114046000D03*
X110236000Y-114046000D03*
X112776000Y-111506000D03*
X110236000Y-111506000D03*
X112776000Y-108966000D03*
X110236000Y-108966000D03*
X112776000Y-106426000D03*
D14*
X110236000Y-106426000D03*
G04 #@! TD*
D15*
G04 #@! TO.C,D12*
X116332000Y-154432000D03*
D16*
X116332000Y-151892000D03*
G04 #@! TD*
D15*
G04 #@! TO.C,D11*
X116332000Y-143002000D03*
D16*
X116332000Y-140462000D03*
G04 #@! TD*
D15*
G04 #@! TO.C,D10*
X116332000Y-131572000D03*
D16*
X116332000Y-129032000D03*
G04 #@! TD*
D15*
G04 #@! TO.C,D9*
X116332000Y-108712000D03*
D16*
X116332000Y-106172000D03*
G04 #@! TD*
D15*
G04 #@! TO.C,D8*
X116332000Y-120142000D03*
D16*
X116332000Y-117602000D03*
G04 #@! TD*
D15*
G04 #@! TO.C,D7*
X116332000Y-97409000D03*
D16*
X116332000Y-94869000D03*
G04 #@! TD*
D10*
G04 #@! TO.C,J9*
X132536000Y-153162000D03*
D11*
X135636000Y-153162000D03*
D12*
X124236000Y-153162000D03*
G04 #@! TD*
D10*
G04 #@! TO.C,J8*
X132536000Y-141732000D03*
D11*
X135636000Y-141732000D03*
D12*
X124236000Y-141732000D03*
G04 #@! TD*
D10*
G04 #@! TO.C,J7*
X132536000Y-130302000D03*
D11*
X135636000Y-130302000D03*
D12*
X124236000Y-130302000D03*
G04 #@! TD*
D10*
G04 #@! TO.C,J6*
X132536000Y-107442000D03*
D11*
X135636000Y-107442000D03*
D12*
X124236000Y-107442000D03*
G04 #@! TD*
D10*
G04 #@! TO.C,J5*
X132536000Y-118872000D03*
D11*
X135636000Y-118872000D03*
D12*
X124236000Y-118872000D03*
G04 #@! TD*
D10*
G04 #@! TO.C,J4*
X132536000Y-96012000D03*
D11*
X135636000Y-96012000D03*
D12*
X124236000Y-96012000D03*
G04 #@! TD*
D10*
G04 #@! TO.C,J1*
X132536000Y-83058000D03*
D11*
X135636000Y-83058000D03*
D12*
X124236000Y-83058000D03*
G04 #@! TD*
M02*
