G04 #@! TF.GenerationSoftware,KiCad,Pcbnew,(5.1.7)-1*
G04 #@! TF.CreationDate,2021-01-31T04:24:23+01:00*
G04 #@! TF.ProjectId,clockdiv,636c6f63-6b64-4697-962e-6b696361645f,rev?*
G04 #@! TF.SameCoordinates,Original*
G04 #@! TF.FileFunction,Soldermask,Top*
G04 #@! TF.FilePolarity,Negative*
%FSLAX46Y46*%
G04 Gerber Fmt 4.6, Leading zero omitted, Abs format (unit mm)*
G04 Created by KiCad (PCBNEW (5.1.7)-1) date 2021-01-31 04:24:23*
%MOMM*%
%LPD*%
G01*
G04 APERTURE LIST*
%ADD10C,0.150000*%
%ADD11C,0.300000*%
%ADD12O,2.350000X2.800000*%
%ADD13R,2.150000X2.600000*%
%ADD14C,2.700000*%
%ADD15O,1.700000X1.700000*%
%ADD16R,1.700000X1.700000*%
%ADD17R,1.500000X2.000000*%
%ADD18R,3.800000X2.000000*%
%ADD19R,0.800000X0.900000*%
%ADD20C,1.800000*%
%ADD21R,1.800000X1.800000*%
%ADD22R,0.900000X1.200000*%
%ADD23R,1.200000X0.900000*%
%ADD24R,0.900000X0.800000*%
G04 APERTURE END LIST*
D10*
X134502025Y-158465184D02*
G75*
G02*
X133350001Y-160019999I-898025J-538816D01*
G01*
X132947210Y-158898790D02*
G75*
G03*
X132947210Y-158898790I-359210J0D01*
G01*
X133709210Y-157988000D02*
G75*
G03*
X133709210Y-157988000I-359210J0D01*
G01*
D11*
X135350000Y-158880739D02*
G75*
G03*
X135350000Y-158880739I-2000000J0D01*
G01*
G04 #@! TO.C,R22*
G36*
G01*
X122950000Y-133292000D02*
X122950000Y-133662000D01*
G75*
G02*
X122815000Y-133797000I-135000J0D01*
G01*
X122545000Y-133797000D01*
G75*
G02*
X122410000Y-133662000I0J135000D01*
G01*
X122410000Y-133292000D01*
G75*
G02*
X122545000Y-133157000I135000J0D01*
G01*
X122815000Y-133157000D01*
G75*
G02*
X122950000Y-133292000I0J-135000D01*
G01*
G37*
G36*
G01*
X123970000Y-133292000D02*
X123970000Y-133662000D01*
G75*
G02*
X123835000Y-133797000I-135000J0D01*
G01*
X123565000Y-133797000D01*
G75*
G02*
X123430000Y-133662000I0J135000D01*
G01*
X123430000Y-133292000D01*
G75*
G02*
X123565000Y-133157000I135000J0D01*
G01*
X123835000Y-133157000D01*
G75*
G02*
X123970000Y-133292000I0J-135000D01*
G01*
G37*
G04 #@! TD*
D12*
G04 #@! TO.C,J2*
X117856000Y-83058000D03*
D13*
X120956000Y-83058000D03*
D14*
X109556000Y-83058000D03*
G04 #@! TD*
G04 #@! TO.C,R31*
G36*
G01*
X118764000Y-165587000D02*
X118764000Y-166137000D01*
G75*
G02*
X118564000Y-166337000I-200000J0D01*
G01*
X118164000Y-166337000D01*
G75*
G02*
X117964000Y-166137000I0J200000D01*
G01*
X117964000Y-165587000D01*
G75*
G02*
X118164000Y-165387000I200000J0D01*
G01*
X118564000Y-165387000D01*
G75*
G02*
X118764000Y-165587000I0J-200000D01*
G01*
G37*
G36*
G01*
X120414000Y-165587000D02*
X120414000Y-166137000D01*
G75*
G02*
X120214000Y-166337000I-200000J0D01*
G01*
X119814000Y-166337000D01*
G75*
G02*
X119614000Y-166137000I0J200000D01*
G01*
X119614000Y-165587000D01*
G75*
G02*
X119814000Y-165387000I200000J0D01*
G01*
X120214000Y-165387000D01*
G75*
G02*
X120414000Y-165587000I0J-200000D01*
G01*
G37*
G04 #@! TD*
G04 #@! TO.C,R30*
G36*
G01*
X118701000Y-154157000D02*
X118701000Y-154707000D01*
G75*
G02*
X118501000Y-154907000I-200000J0D01*
G01*
X118101000Y-154907000D01*
G75*
G02*
X117901000Y-154707000I0J200000D01*
G01*
X117901000Y-154157000D01*
G75*
G02*
X118101000Y-153957000I200000J0D01*
G01*
X118501000Y-153957000D01*
G75*
G02*
X118701000Y-154157000I0J-200000D01*
G01*
G37*
G36*
G01*
X120351000Y-154157000D02*
X120351000Y-154707000D01*
G75*
G02*
X120151000Y-154907000I-200000J0D01*
G01*
X119751000Y-154907000D01*
G75*
G02*
X119551000Y-154707000I0J200000D01*
G01*
X119551000Y-154157000D01*
G75*
G02*
X119751000Y-153957000I200000J0D01*
G01*
X120151000Y-153957000D01*
G75*
G02*
X120351000Y-154157000I0J-200000D01*
G01*
G37*
G04 #@! TD*
G04 #@! TO.C,R27*
G36*
G01*
X118701000Y-142727000D02*
X118701000Y-143277000D01*
G75*
G02*
X118501000Y-143477000I-200000J0D01*
G01*
X118101000Y-143477000D01*
G75*
G02*
X117901000Y-143277000I0J200000D01*
G01*
X117901000Y-142727000D01*
G75*
G02*
X118101000Y-142527000I200000J0D01*
G01*
X118501000Y-142527000D01*
G75*
G02*
X118701000Y-142727000I0J-200000D01*
G01*
G37*
G36*
G01*
X120351000Y-142727000D02*
X120351000Y-143277000D01*
G75*
G02*
X120151000Y-143477000I-200000J0D01*
G01*
X119751000Y-143477000D01*
G75*
G02*
X119551000Y-143277000I0J200000D01*
G01*
X119551000Y-142727000D01*
G75*
G02*
X119751000Y-142527000I200000J0D01*
G01*
X120151000Y-142527000D01*
G75*
G02*
X120351000Y-142727000I0J-200000D01*
G01*
G37*
G04 #@! TD*
G04 #@! TO.C,R24*
G36*
G01*
X118764000Y-129773000D02*
X118764000Y-130323000D01*
G75*
G02*
X118564000Y-130523000I-200000J0D01*
G01*
X118164000Y-130523000D01*
G75*
G02*
X117964000Y-130323000I0J200000D01*
G01*
X117964000Y-129773000D01*
G75*
G02*
X118164000Y-129573000I200000J0D01*
G01*
X118564000Y-129573000D01*
G75*
G02*
X118764000Y-129773000I0J-200000D01*
G01*
G37*
G36*
G01*
X120414000Y-129773000D02*
X120414000Y-130323000D01*
G75*
G02*
X120214000Y-130523000I-200000J0D01*
G01*
X119814000Y-130523000D01*
G75*
G02*
X119614000Y-130323000I0J200000D01*
G01*
X119614000Y-129773000D01*
G75*
G02*
X119814000Y-129573000I200000J0D01*
G01*
X120214000Y-129573000D01*
G75*
G02*
X120414000Y-129773000I0J-200000D01*
G01*
G37*
G04 #@! TD*
G04 #@! TO.C,R21*
G36*
G01*
X118701000Y-107167000D02*
X118701000Y-107717000D01*
G75*
G02*
X118501000Y-107917000I-200000J0D01*
G01*
X118101000Y-107917000D01*
G75*
G02*
X117901000Y-107717000I0J200000D01*
G01*
X117901000Y-107167000D01*
G75*
G02*
X118101000Y-106967000I200000J0D01*
G01*
X118501000Y-106967000D01*
G75*
G02*
X118701000Y-107167000I0J-200000D01*
G01*
G37*
G36*
G01*
X120351000Y-107167000D02*
X120351000Y-107717000D01*
G75*
G02*
X120151000Y-107917000I-200000J0D01*
G01*
X119751000Y-107917000D01*
G75*
G02*
X119551000Y-107717000I0J200000D01*
G01*
X119551000Y-107167000D01*
G75*
G02*
X119751000Y-106967000I200000J0D01*
G01*
X120151000Y-106967000D01*
G75*
G02*
X120351000Y-107167000I0J-200000D01*
G01*
G37*
G04 #@! TD*
G04 #@! TO.C,R18*
G36*
G01*
X118701000Y-119867000D02*
X118701000Y-120417000D01*
G75*
G02*
X118501000Y-120617000I-200000J0D01*
G01*
X118101000Y-120617000D01*
G75*
G02*
X117901000Y-120417000I0J200000D01*
G01*
X117901000Y-119867000D01*
G75*
G02*
X118101000Y-119667000I200000J0D01*
G01*
X118501000Y-119667000D01*
G75*
G02*
X118701000Y-119867000I0J-200000D01*
G01*
G37*
G36*
G01*
X120351000Y-119867000D02*
X120351000Y-120417000D01*
G75*
G02*
X120151000Y-120617000I-200000J0D01*
G01*
X119751000Y-120617000D01*
G75*
G02*
X119551000Y-120417000I0J200000D01*
G01*
X119551000Y-119867000D01*
G75*
G02*
X119751000Y-119667000I200000J0D01*
G01*
X120151000Y-119667000D01*
G75*
G02*
X120351000Y-119867000I0J-200000D01*
G01*
G37*
G04 #@! TD*
G04 #@! TO.C,R15*
G36*
G01*
X119146000Y-96753000D02*
X119146000Y-97303000D01*
G75*
G02*
X118946000Y-97503000I-200000J0D01*
G01*
X118546000Y-97503000D01*
G75*
G02*
X118346000Y-97303000I0J200000D01*
G01*
X118346000Y-96753000D01*
G75*
G02*
X118546000Y-96553000I200000J0D01*
G01*
X118946000Y-96553000D01*
G75*
G02*
X119146000Y-96753000I0J-200000D01*
G01*
G37*
G36*
G01*
X120796000Y-96753000D02*
X120796000Y-97303000D01*
G75*
G02*
X120596000Y-97503000I-200000J0D01*
G01*
X120196000Y-97503000D01*
G75*
G02*
X119996000Y-97303000I0J200000D01*
G01*
X119996000Y-96753000D01*
G75*
G02*
X120196000Y-96553000I200000J0D01*
G01*
X120596000Y-96553000D01*
G75*
G02*
X120796000Y-96753000I0J-200000D01*
G01*
G37*
G04 #@! TD*
G04 #@! TO.C,R8*
G36*
G01*
X121218104Y-89340267D02*
X121479733Y-89601896D01*
G75*
G02*
X121479733Y-89792814I-95459J-95459D01*
G01*
X121288814Y-89983733D01*
G75*
G02*
X121097896Y-89983733I-95459J95459D01*
G01*
X120836267Y-89722104D01*
G75*
G02*
X120836267Y-89531186I95459J95459D01*
G01*
X121027186Y-89340267D01*
G75*
G02*
X121218104Y-89340267I95459J-95459D01*
G01*
G37*
G36*
G01*
X121939352Y-88619019D02*
X122200981Y-88880648D01*
G75*
G02*
X122200981Y-89071566I-95459J-95459D01*
G01*
X122010062Y-89262485D01*
G75*
G02*
X121819144Y-89262485I-95459J95459D01*
G01*
X121557515Y-89000856D01*
G75*
G02*
X121557515Y-88809938I95459J95459D01*
G01*
X121748434Y-88619019D01*
G75*
G02*
X121939352Y-88619019I95459J-95459D01*
G01*
G37*
G04 #@! TD*
D15*
G04 #@! TO.C,J10*
X135636000Y-80264000D03*
D16*
X135636000Y-77724000D03*
G04 #@! TD*
D15*
G04 #@! TO.C,J3*
X109982000Y-97663000D03*
D16*
X109982000Y-95123000D03*
G04 #@! TD*
D17*
G04 #@! TO.C,U2*
X113552000Y-134162000D03*
X108952000Y-134162000D03*
X111252000Y-134162000D03*
D18*
X111252000Y-140462000D03*
G04 #@! TD*
G04 #@! TO.C,C6*
G36*
G01*
X116727000Y-135218997D02*
X116727000Y-137069003D01*
G75*
G02*
X116477003Y-137319000I-249997J0D01*
G01*
X115651997Y-137319000D01*
G75*
G02*
X115402000Y-137069003I0J249997D01*
G01*
X115402000Y-135218997D01*
G75*
G02*
X115651997Y-134969000I249997J0D01*
G01*
X116477003Y-134969000D01*
G75*
G02*
X116727000Y-135218997I0J-249997D01*
G01*
G37*
G36*
G01*
X119802000Y-135218997D02*
X119802000Y-137069003D01*
G75*
G02*
X119552003Y-137319000I-249997J0D01*
G01*
X118726997Y-137319000D01*
G75*
G02*
X118477000Y-137069003I0J249997D01*
G01*
X118477000Y-135218997D01*
G75*
G02*
X118726997Y-134969000I249997J0D01*
G01*
X119552003Y-134969000D01*
G75*
G02*
X119802000Y-135218997I0J-249997D01*
G01*
G37*
G04 #@! TD*
G04 #@! TO.C,C5*
G36*
G01*
X112177000Y-126337000D02*
X110327000Y-126337000D01*
G75*
G02*
X110077000Y-126087000I0J250000D01*
G01*
X110077000Y-124512000D01*
G75*
G02*
X110327000Y-124262000I250000J0D01*
G01*
X112177000Y-124262000D01*
G75*
G02*
X112427000Y-124512000I0J-250000D01*
G01*
X112427000Y-126087000D01*
G75*
G02*
X112177000Y-126337000I-250000J0D01*
G01*
G37*
G36*
G01*
X112177000Y-131262000D02*
X110327000Y-131262000D01*
G75*
G02*
X110077000Y-131012000I0J250000D01*
G01*
X110077000Y-129437000D01*
G75*
G02*
X110327000Y-129187000I250000J0D01*
G01*
X112177000Y-129187000D01*
G75*
G02*
X112427000Y-129437000I0J-250000D01*
G01*
X112427000Y-131012000D01*
G75*
G02*
X112177000Y-131262000I-250000J0D01*
G01*
G37*
G04 #@! TD*
G04 #@! TO.C,R12*
G36*
G01*
X121906000Y-166047000D02*
X121906000Y-165677000D01*
G75*
G02*
X122041000Y-165542000I135000J0D01*
G01*
X122311000Y-165542000D01*
G75*
G02*
X122446000Y-165677000I0J-135000D01*
G01*
X122446000Y-166047000D01*
G75*
G02*
X122311000Y-166182000I-135000J0D01*
G01*
X122041000Y-166182000D01*
G75*
G02*
X121906000Y-166047000I0J135000D01*
G01*
G37*
G36*
G01*
X120886000Y-166047000D02*
X120886000Y-165677000D01*
G75*
G02*
X121021000Y-165542000I135000J0D01*
G01*
X121291000Y-165542000D01*
G75*
G02*
X121426000Y-165677000I0J-135000D01*
G01*
X121426000Y-166047000D01*
G75*
G02*
X121291000Y-166182000I-135000J0D01*
G01*
X121021000Y-166182000D01*
G75*
G02*
X120886000Y-166047000I0J135000D01*
G01*
G37*
G04 #@! TD*
G04 #@! TO.C,R10*
G36*
G01*
X122243000Y-161530000D02*
X122613000Y-161530000D01*
G75*
G02*
X122748000Y-161665000I0J-135000D01*
G01*
X122748000Y-161935000D01*
G75*
G02*
X122613000Y-162070000I-135000J0D01*
G01*
X122243000Y-162070000D01*
G75*
G02*
X122108000Y-161935000I0J135000D01*
G01*
X122108000Y-161665000D01*
G75*
G02*
X122243000Y-161530000I135000J0D01*
G01*
G37*
G36*
G01*
X122243000Y-160510000D02*
X122613000Y-160510000D01*
G75*
G02*
X122748000Y-160645000I0J-135000D01*
G01*
X122748000Y-160915000D01*
G75*
G02*
X122613000Y-161050000I-135000J0D01*
G01*
X122243000Y-161050000D01*
G75*
G02*
X122108000Y-160915000I0J135000D01*
G01*
X122108000Y-160645000D01*
G75*
G02*
X122243000Y-160510000I135000J0D01*
G01*
G37*
G04 #@! TD*
D19*
G04 #@! TO.C,Q5*
X120208000Y-162322000D03*
X121158000Y-164322000D03*
X119258000Y-164322000D03*
G04 #@! TD*
D12*
G04 #@! TO.C,J12*
X132536000Y-164592000D03*
D13*
X135636000Y-164592000D03*
D14*
X124236000Y-164592000D03*
G04 #@! TD*
D20*
G04 #@! TO.C,D6*
X116332000Y-165862000D03*
D21*
X116332000Y-163322000D03*
G04 #@! TD*
G04 #@! TO.C,U1*
G36*
G01*
X124102000Y-87908000D02*
X123802000Y-87908000D01*
G75*
G02*
X123652000Y-87758000I0J150000D01*
G01*
X123652000Y-86108000D01*
G75*
G02*
X123802000Y-85958000I150000J0D01*
G01*
X124102000Y-85958000D01*
G75*
G02*
X124252000Y-86108000I0J-150000D01*
G01*
X124252000Y-87758000D01*
G75*
G02*
X124102000Y-87908000I-150000J0D01*
G01*
G37*
G36*
G01*
X125372000Y-87908000D02*
X125072000Y-87908000D01*
G75*
G02*
X124922000Y-87758000I0J150000D01*
G01*
X124922000Y-86108000D01*
G75*
G02*
X125072000Y-85958000I150000J0D01*
G01*
X125372000Y-85958000D01*
G75*
G02*
X125522000Y-86108000I0J-150000D01*
G01*
X125522000Y-87758000D01*
G75*
G02*
X125372000Y-87908000I-150000J0D01*
G01*
G37*
G36*
G01*
X126642000Y-87908000D02*
X126342000Y-87908000D01*
G75*
G02*
X126192000Y-87758000I0J150000D01*
G01*
X126192000Y-86108000D01*
G75*
G02*
X126342000Y-85958000I150000J0D01*
G01*
X126642000Y-85958000D01*
G75*
G02*
X126792000Y-86108000I0J-150000D01*
G01*
X126792000Y-87758000D01*
G75*
G02*
X126642000Y-87908000I-150000J0D01*
G01*
G37*
G36*
G01*
X127912000Y-87908000D02*
X127612000Y-87908000D01*
G75*
G02*
X127462000Y-87758000I0J150000D01*
G01*
X127462000Y-86108000D01*
G75*
G02*
X127612000Y-85958000I150000J0D01*
G01*
X127912000Y-85958000D01*
G75*
G02*
X128062000Y-86108000I0J-150000D01*
G01*
X128062000Y-87758000D01*
G75*
G02*
X127912000Y-87908000I-150000J0D01*
G01*
G37*
G36*
G01*
X129182000Y-87908000D02*
X128882000Y-87908000D01*
G75*
G02*
X128732000Y-87758000I0J150000D01*
G01*
X128732000Y-86108000D01*
G75*
G02*
X128882000Y-85958000I150000J0D01*
G01*
X129182000Y-85958000D01*
G75*
G02*
X129332000Y-86108000I0J-150000D01*
G01*
X129332000Y-87758000D01*
G75*
G02*
X129182000Y-87908000I-150000J0D01*
G01*
G37*
G36*
G01*
X130452000Y-87908000D02*
X130152000Y-87908000D01*
G75*
G02*
X130002000Y-87758000I0J150000D01*
G01*
X130002000Y-86108000D01*
G75*
G02*
X130152000Y-85958000I150000J0D01*
G01*
X130452000Y-85958000D01*
G75*
G02*
X130602000Y-86108000I0J-150000D01*
G01*
X130602000Y-87758000D01*
G75*
G02*
X130452000Y-87908000I-150000J0D01*
G01*
G37*
G36*
G01*
X131722000Y-87908000D02*
X131422000Y-87908000D01*
G75*
G02*
X131272000Y-87758000I0J150000D01*
G01*
X131272000Y-86108000D01*
G75*
G02*
X131422000Y-85958000I150000J0D01*
G01*
X131722000Y-85958000D01*
G75*
G02*
X131872000Y-86108000I0J-150000D01*
G01*
X131872000Y-87758000D01*
G75*
G02*
X131722000Y-87908000I-150000J0D01*
G01*
G37*
G36*
G01*
X131722000Y-92858000D02*
X131422000Y-92858000D01*
G75*
G02*
X131272000Y-92708000I0J150000D01*
G01*
X131272000Y-91058000D01*
G75*
G02*
X131422000Y-90908000I150000J0D01*
G01*
X131722000Y-90908000D01*
G75*
G02*
X131872000Y-91058000I0J-150000D01*
G01*
X131872000Y-92708000D01*
G75*
G02*
X131722000Y-92858000I-150000J0D01*
G01*
G37*
G36*
G01*
X130452000Y-92858000D02*
X130152000Y-92858000D01*
G75*
G02*
X130002000Y-92708000I0J150000D01*
G01*
X130002000Y-91058000D01*
G75*
G02*
X130152000Y-90908000I150000J0D01*
G01*
X130452000Y-90908000D01*
G75*
G02*
X130602000Y-91058000I0J-150000D01*
G01*
X130602000Y-92708000D01*
G75*
G02*
X130452000Y-92858000I-150000J0D01*
G01*
G37*
G36*
G01*
X129182000Y-92858000D02*
X128882000Y-92858000D01*
G75*
G02*
X128732000Y-92708000I0J150000D01*
G01*
X128732000Y-91058000D01*
G75*
G02*
X128882000Y-90908000I150000J0D01*
G01*
X129182000Y-90908000D01*
G75*
G02*
X129332000Y-91058000I0J-150000D01*
G01*
X129332000Y-92708000D01*
G75*
G02*
X129182000Y-92858000I-150000J0D01*
G01*
G37*
G36*
G01*
X127912000Y-92858000D02*
X127612000Y-92858000D01*
G75*
G02*
X127462000Y-92708000I0J150000D01*
G01*
X127462000Y-91058000D01*
G75*
G02*
X127612000Y-90908000I150000J0D01*
G01*
X127912000Y-90908000D01*
G75*
G02*
X128062000Y-91058000I0J-150000D01*
G01*
X128062000Y-92708000D01*
G75*
G02*
X127912000Y-92858000I-150000J0D01*
G01*
G37*
G36*
G01*
X126642000Y-92858000D02*
X126342000Y-92858000D01*
G75*
G02*
X126192000Y-92708000I0J150000D01*
G01*
X126192000Y-91058000D01*
G75*
G02*
X126342000Y-90908000I150000J0D01*
G01*
X126642000Y-90908000D01*
G75*
G02*
X126792000Y-91058000I0J-150000D01*
G01*
X126792000Y-92708000D01*
G75*
G02*
X126642000Y-92858000I-150000J0D01*
G01*
G37*
G36*
G01*
X125372000Y-92858000D02*
X125072000Y-92858000D01*
G75*
G02*
X124922000Y-92708000I0J150000D01*
G01*
X124922000Y-91058000D01*
G75*
G02*
X125072000Y-90908000I150000J0D01*
G01*
X125372000Y-90908000D01*
G75*
G02*
X125522000Y-91058000I0J-150000D01*
G01*
X125522000Y-92708000D01*
G75*
G02*
X125372000Y-92858000I-150000J0D01*
G01*
G37*
G36*
G01*
X124102000Y-92858000D02*
X123802000Y-92858000D01*
G75*
G02*
X123652000Y-92708000I0J150000D01*
G01*
X123652000Y-91058000D01*
G75*
G02*
X123802000Y-90908000I150000J0D01*
G01*
X124102000Y-90908000D01*
G75*
G02*
X124252000Y-91058000I0J-150000D01*
G01*
X124252000Y-92708000D01*
G75*
G02*
X124102000Y-92858000I-150000J0D01*
G01*
G37*
G04 #@! TD*
G04 #@! TO.C,R11*
G36*
G01*
X112762000Y-91625000D02*
X112762000Y-91255000D01*
G75*
G02*
X112897000Y-91120000I135000J0D01*
G01*
X113167000Y-91120000D01*
G75*
G02*
X113302000Y-91255000I0J-135000D01*
G01*
X113302000Y-91625000D01*
G75*
G02*
X113167000Y-91760000I-135000J0D01*
G01*
X112897000Y-91760000D01*
G75*
G02*
X112762000Y-91625000I0J135000D01*
G01*
G37*
G36*
G01*
X111742000Y-91625000D02*
X111742000Y-91255000D01*
G75*
G02*
X111877000Y-91120000I135000J0D01*
G01*
X112147000Y-91120000D01*
G75*
G02*
X112282000Y-91255000I0J-135000D01*
G01*
X112282000Y-91625000D01*
G75*
G02*
X112147000Y-91760000I-135000J0D01*
G01*
X111877000Y-91760000D01*
G75*
G02*
X111742000Y-91625000I0J135000D01*
G01*
G37*
G04 #@! TD*
D15*
G04 #@! TO.C,J11*
X112776000Y-116586000D03*
X110236000Y-116586000D03*
X112776000Y-114046000D03*
X110236000Y-114046000D03*
X112776000Y-111506000D03*
X110236000Y-111506000D03*
X112776000Y-108966000D03*
X110236000Y-108966000D03*
X112776000Y-106426000D03*
D16*
X110236000Y-106426000D03*
G04 #@! TD*
D22*
G04 #@! TO.C,D5*
X110238000Y-103378000D03*
X113538000Y-103378000D03*
G04 #@! TD*
G04 #@! TO.C,C4*
G36*
G01*
X116782000Y-103599000D02*
X116782000Y-102649000D01*
G75*
G02*
X117032000Y-102399000I250000J0D01*
G01*
X117532000Y-102399000D01*
G75*
G02*
X117782000Y-102649000I0J-250000D01*
G01*
X117782000Y-103599000D01*
G75*
G02*
X117532000Y-103849000I-250000J0D01*
G01*
X117032000Y-103849000D01*
G75*
G02*
X116782000Y-103599000I0J250000D01*
G01*
G37*
G36*
G01*
X114882000Y-103599000D02*
X114882000Y-102649000D01*
G75*
G02*
X115132000Y-102399000I250000J0D01*
G01*
X115632000Y-102399000D01*
G75*
G02*
X115882000Y-102649000I0J-250000D01*
G01*
X115882000Y-103599000D01*
G75*
G02*
X115632000Y-103849000I-250000J0D01*
G01*
X115132000Y-103849000D01*
G75*
G02*
X114882000Y-103599000I0J250000D01*
G01*
G37*
G04 #@! TD*
D23*
G04 #@! TO.C,D4*
X114300000Y-78360000D03*
X114300000Y-81660000D03*
G04 #@! TD*
G04 #@! TO.C,D3*
X109601000Y-91693000D03*
X109601000Y-88393000D03*
G04 #@! TD*
D22*
G04 #@! TO.C,D2*
X108968000Y-80010000D03*
X112268000Y-80010000D03*
G04 #@! TD*
G04 #@! TO.C,D1*
X124206000Y-79756000D03*
X120906000Y-79756000D03*
G04 #@! TD*
G04 #@! TO.C,C2*
G36*
G01*
X121924000Y-86431000D02*
X122424000Y-86431000D01*
G75*
G02*
X122649000Y-86656000I0J-225000D01*
G01*
X122649000Y-87106000D01*
G75*
G02*
X122424000Y-87331000I-225000J0D01*
G01*
X121924000Y-87331000D01*
G75*
G02*
X121699000Y-87106000I0J225000D01*
G01*
X121699000Y-86656000D01*
G75*
G02*
X121924000Y-86431000I225000J0D01*
G01*
G37*
G36*
G01*
X121924000Y-84881000D02*
X122424000Y-84881000D01*
G75*
G02*
X122649000Y-85106000I0J-225000D01*
G01*
X122649000Y-85556000D01*
G75*
G02*
X122424000Y-85781000I-225000J0D01*
G01*
X121924000Y-85781000D01*
G75*
G02*
X121699000Y-85556000I0J225000D01*
G01*
X121699000Y-85106000D01*
G75*
G02*
X121924000Y-84881000I225000J0D01*
G01*
G37*
G04 #@! TD*
D20*
G04 #@! TO.C,D12*
X116332000Y-154432000D03*
D21*
X116332000Y-151892000D03*
G04 #@! TD*
D20*
G04 #@! TO.C,D11*
X116332000Y-143002000D03*
D21*
X116332000Y-140462000D03*
G04 #@! TD*
D20*
G04 #@! TO.C,D10*
X116332000Y-131572000D03*
D21*
X116332000Y-129032000D03*
G04 #@! TD*
D20*
G04 #@! TO.C,D9*
X116332000Y-108712000D03*
D21*
X116332000Y-106172000D03*
G04 #@! TD*
D20*
G04 #@! TO.C,D8*
X116332000Y-120142000D03*
D21*
X116332000Y-117602000D03*
G04 #@! TD*
D20*
G04 #@! TO.C,D7*
X116332000Y-97409000D03*
D21*
X116332000Y-94869000D03*
G04 #@! TD*
G04 #@! TO.C,R29*
G36*
G01*
X121908000Y-154617000D02*
X121908000Y-154247000D01*
G75*
G02*
X122043000Y-154112000I135000J0D01*
G01*
X122313000Y-154112000D01*
G75*
G02*
X122448000Y-154247000I0J-135000D01*
G01*
X122448000Y-154617000D01*
G75*
G02*
X122313000Y-154752000I-135000J0D01*
G01*
X122043000Y-154752000D01*
G75*
G02*
X121908000Y-154617000I0J135000D01*
G01*
G37*
G36*
G01*
X120888000Y-154617000D02*
X120888000Y-154247000D01*
G75*
G02*
X121023000Y-154112000I135000J0D01*
G01*
X121293000Y-154112000D01*
G75*
G02*
X121428000Y-154247000I0J-135000D01*
G01*
X121428000Y-154617000D01*
G75*
G02*
X121293000Y-154752000I-135000J0D01*
G01*
X121023000Y-154752000D01*
G75*
G02*
X120888000Y-154617000I0J135000D01*
G01*
G37*
G04 #@! TD*
G04 #@! TO.C,R28*
G36*
G01*
X122950000Y-157549000D02*
X122950000Y-157919000D01*
G75*
G02*
X122815000Y-158054000I-135000J0D01*
G01*
X122545000Y-158054000D01*
G75*
G02*
X122410000Y-157919000I0J135000D01*
G01*
X122410000Y-157549000D01*
G75*
G02*
X122545000Y-157414000I135000J0D01*
G01*
X122815000Y-157414000D01*
G75*
G02*
X122950000Y-157549000I0J-135000D01*
G01*
G37*
G36*
G01*
X123970000Y-157549000D02*
X123970000Y-157919000D01*
G75*
G02*
X123835000Y-158054000I-135000J0D01*
G01*
X123565000Y-158054000D01*
G75*
G02*
X123430000Y-157919000I0J135000D01*
G01*
X123430000Y-157549000D01*
G75*
G02*
X123565000Y-157414000I135000J0D01*
G01*
X123835000Y-157414000D01*
G75*
G02*
X123970000Y-157549000I0J-135000D01*
G01*
G37*
G04 #@! TD*
G04 #@! TO.C,R26*
G36*
G01*
X121906000Y-143187000D02*
X121906000Y-142817000D01*
G75*
G02*
X122041000Y-142682000I135000J0D01*
G01*
X122311000Y-142682000D01*
G75*
G02*
X122446000Y-142817000I0J-135000D01*
G01*
X122446000Y-143187000D01*
G75*
G02*
X122311000Y-143322000I-135000J0D01*
G01*
X122041000Y-143322000D01*
G75*
G02*
X121906000Y-143187000I0J135000D01*
G01*
G37*
G36*
G01*
X120886000Y-143187000D02*
X120886000Y-142817000D01*
G75*
G02*
X121021000Y-142682000I135000J0D01*
G01*
X121291000Y-142682000D01*
G75*
G02*
X121426000Y-142817000I0J-135000D01*
G01*
X121426000Y-143187000D01*
G75*
G02*
X121291000Y-143322000I-135000J0D01*
G01*
X121021000Y-143322000D01*
G75*
G02*
X120886000Y-143187000I0J135000D01*
G01*
G37*
G04 #@! TD*
G04 #@! TO.C,R25*
G36*
G01*
X122952000Y-146119000D02*
X122952000Y-146489000D01*
G75*
G02*
X122817000Y-146624000I-135000J0D01*
G01*
X122547000Y-146624000D01*
G75*
G02*
X122412000Y-146489000I0J135000D01*
G01*
X122412000Y-146119000D01*
G75*
G02*
X122547000Y-145984000I135000J0D01*
G01*
X122817000Y-145984000D01*
G75*
G02*
X122952000Y-146119000I0J-135000D01*
G01*
G37*
G36*
G01*
X123972000Y-146119000D02*
X123972000Y-146489000D01*
G75*
G02*
X123837000Y-146624000I-135000J0D01*
G01*
X123567000Y-146624000D01*
G75*
G02*
X123432000Y-146489000I0J135000D01*
G01*
X123432000Y-146119000D01*
G75*
G02*
X123567000Y-145984000I135000J0D01*
G01*
X123837000Y-145984000D01*
G75*
G02*
X123972000Y-146119000I0J-135000D01*
G01*
G37*
G04 #@! TD*
G04 #@! TO.C,R23*
G36*
G01*
X121906000Y-130233000D02*
X121906000Y-129863000D01*
G75*
G02*
X122041000Y-129728000I135000J0D01*
G01*
X122311000Y-129728000D01*
G75*
G02*
X122446000Y-129863000I0J-135000D01*
G01*
X122446000Y-130233000D01*
G75*
G02*
X122311000Y-130368000I-135000J0D01*
G01*
X122041000Y-130368000D01*
G75*
G02*
X121906000Y-130233000I0J135000D01*
G01*
G37*
G36*
G01*
X120886000Y-130233000D02*
X120886000Y-129863000D01*
G75*
G02*
X121021000Y-129728000I135000J0D01*
G01*
X121291000Y-129728000D01*
G75*
G02*
X121426000Y-129863000I0J-135000D01*
G01*
X121426000Y-130233000D01*
G75*
G02*
X121291000Y-130368000I-135000J0D01*
G01*
X121021000Y-130368000D01*
G75*
G02*
X120886000Y-130233000I0J135000D01*
G01*
G37*
G04 #@! TD*
G04 #@! TO.C,R20*
G36*
G01*
X121906000Y-107627000D02*
X121906000Y-107257000D01*
G75*
G02*
X122041000Y-107122000I135000J0D01*
G01*
X122311000Y-107122000D01*
G75*
G02*
X122446000Y-107257000I0J-135000D01*
G01*
X122446000Y-107627000D01*
G75*
G02*
X122311000Y-107762000I-135000J0D01*
G01*
X122041000Y-107762000D01*
G75*
G02*
X121906000Y-107627000I0J135000D01*
G01*
G37*
G36*
G01*
X120886000Y-107627000D02*
X120886000Y-107257000D01*
G75*
G02*
X121021000Y-107122000I135000J0D01*
G01*
X121291000Y-107122000D01*
G75*
G02*
X121426000Y-107257000I0J-135000D01*
G01*
X121426000Y-107627000D01*
G75*
G02*
X121291000Y-107762000I-135000J0D01*
G01*
X121021000Y-107762000D01*
G75*
G02*
X120886000Y-107627000I0J135000D01*
G01*
G37*
G04 #@! TD*
G04 #@! TO.C,R19*
G36*
G01*
X123970000Y-109543000D02*
X123970000Y-109913000D01*
G75*
G02*
X123835000Y-110048000I-135000J0D01*
G01*
X123565000Y-110048000D01*
G75*
G02*
X123430000Y-109913000I0J135000D01*
G01*
X123430000Y-109543000D01*
G75*
G02*
X123565000Y-109408000I135000J0D01*
G01*
X123835000Y-109408000D01*
G75*
G02*
X123970000Y-109543000I0J-135000D01*
G01*
G37*
G36*
G01*
X122950000Y-109543000D02*
X122950000Y-109913000D01*
G75*
G02*
X122815000Y-110048000I-135000J0D01*
G01*
X122545000Y-110048000D01*
G75*
G02*
X122410000Y-109913000I0J135000D01*
G01*
X122410000Y-109543000D01*
G75*
G02*
X122545000Y-109408000I135000J0D01*
G01*
X122815000Y-109408000D01*
G75*
G02*
X122950000Y-109543000I0J-135000D01*
G01*
G37*
G04 #@! TD*
G04 #@! TO.C,R17*
G36*
G01*
X121906000Y-120327000D02*
X121906000Y-119957000D01*
G75*
G02*
X122041000Y-119822000I135000J0D01*
G01*
X122311000Y-119822000D01*
G75*
G02*
X122446000Y-119957000I0J-135000D01*
G01*
X122446000Y-120327000D01*
G75*
G02*
X122311000Y-120462000I-135000J0D01*
G01*
X122041000Y-120462000D01*
G75*
G02*
X121906000Y-120327000I0J135000D01*
G01*
G37*
G36*
G01*
X120886000Y-120327000D02*
X120886000Y-119957000D01*
G75*
G02*
X121021000Y-119822000I135000J0D01*
G01*
X121291000Y-119822000D01*
G75*
G02*
X121426000Y-119957000I0J-135000D01*
G01*
X121426000Y-120327000D01*
G75*
G02*
X121291000Y-120462000I-135000J0D01*
G01*
X121021000Y-120462000D01*
G75*
G02*
X120886000Y-120327000I0J135000D01*
G01*
G37*
G04 #@! TD*
G04 #@! TO.C,R16*
G36*
G01*
X123204000Y-121735000D02*
X123204000Y-122105000D01*
G75*
G02*
X123069000Y-122240000I-135000J0D01*
G01*
X122799000Y-122240000D01*
G75*
G02*
X122664000Y-122105000I0J135000D01*
G01*
X122664000Y-121735000D01*
G75*
G02*
X122799000Y-121600000I135000J0D01*
G01*
X123069000Y-121600000D01*
G75*
G02*
X123204000Y-121735000I0J-135000D01*
G01*
G37*
G36*
G01*
X124224000Y-121735000D02*
X124224000Y-122105000D01*
G75*
G02*
X124089000Y-122240000I-135000J0D01*
G01*
X123819000Y-122240000D01*
G75*
G02*
X123684000Y-122105000I0J135000D01*
G01*
X123684000Y-121735000D01*
G75*
G02*
X123819000Y-121600000I135000J0D01*
G01*
X124089000Y-121600000D01*
G75*
G02*
X124224000Y-121735000I0J-135000D01*
G01*
G37*
G04 #@! TD*
G04 #@! TO.C,R14*
G36*
G01*
X121851000Y-96280000D02*
X121481000Y-96280000D01*
G75*
G02*
X121346000Y-96145000I0J135000D01*
G01*
X121346000Y-95875000D01*
G75*
G02*
X121481000Y-95740000I135000J0D01*
G01*
X121851000Y-95740000D01*
G75*
G02*
X121986000Y-95875000I0J-135000D01*
G01*
X121986000Y-96145000D01*
G75*
G02*
X121851000Y-96280000I-135000J0D01*
G01*
G37*
G36*
G01*
X121851000Y-97300000D02*
X121481000Y-97300000D01*
G75*
G02*
X121346000Y-97165000I0J135000D01*
G01*
X121346000Y-96895000D01*
G75*
G02*
X121481000Y-96760000I135000J0D01*
G01*
X121851000Y-96760000D01*
G75*
G02*
X121986000Y-96895000I0J-135000D01*
G01*
X121986000Y-97165000D01*
G75*
G02*
X121851000Y-97300000I-135000J0D01*
G01*
G37*
G04 #@! TD*
G04 #@! TO.C,R13*
G36*
G01*
X123712000Y-98621000D02*
X123712000Y-98991000D01*
G75*
G02*
X123577000Y-99126000I-135000J0D01*
G01*
X123307000Y-99126000D01*
G75*
G02*
X123172000Y-98991000I0J135000D01*
G01*
X123172000Y-98621000D01*
G75*
G02*
X123307000Y-98486000I135000J0D01*
G01*
X123577000Y-98486000D01*
G75*
G02*
X123712000Y-98621000I0J-135000D01*
G01*
G37*
G36*
G01*
X124732000Y-98621000D02*
X124732000Y-98991000D01*
G75*
G02*
X124597000Y-99126000I-135000J0D01*
G01*
X124327000Y-99126000D01*
G75*
G02*
X124192000Y-98991000I0J135000D01*
G01*
X124192000Y-98621000D01*
G75*
G02*
X124327000Y-98486000I135000J0D01*
G01*
X124597000Y-98486000D01*
G75*
G02*
X124732000Y-98621000I0J-135000D01*
G01*
G37*
G04 #@! TD*
G04 #@! TO.C,R9*
G36*
G01*
X117025000Y-88406000D02*
X116655000Y-88406000D01*
G75*
G02*
X116520000Y-88271000I0J135000D01*
G01*
X116520000Y-88001000D01*
G75*
G02*
X116655000Y-87866000I135000J0D01*
G01*
X117025000Y-87866000D01*
G75*
G02*
X117160000Y-88001000I0J-135000D01*
G01*
X117160000Y-88271000D01*
G75*
G02*
X117025000Y-88406000I-135000J0D01*
G01*
G37*
G36*
G01*
X117025000Y-89426000D02*
X116655000Y-89426000D01*
G75*
G02*
X116520000Y-89291000I0J135000D01*
G01*
X116520000Y-89021000D01*
G75*
G02*
X116655000Y-88886000I135000J0D01*
G01*
X117025000Y-88886000D01*
G75*
G02*
X117160000Y-89021000I0J-135000D01*
G01*
X117160000Y-89291000D01*
G75*
G02*
X117025000Y-89426000I-135000J0D01*
G01*
G37*
G04 #@! TD*
G04 #@! TO.C,R7*
G36*
G01*
X113552000Y-82873000D02*
X113552000Y-83243000D01*
G75*
G02*
X113417000Y-83378000I-135000J0D01*
G01*
X113147000Y-83378000D01*
G75*
G02*
X113012000Y-83243000I0J135000D01*
G01*
X113012000Y-82873000D01*
G75*
G02*
X113147000Y-82738000I135000J0D01*
G01*
X113417000Y-82738000D01*
G75*
G02*
X113552000Y-82873000I0J-135000D01*
G01*
G37*
G36*
G01*
X114572000Y-82873000D02*
X114572000Y-83243000D01*
G75*
G02*
X114437000Y-83378000I-135000J0D01*
G01*
X114167000Y-83378000D01*
G75*
G02*
X114032000Y-83243000I0J135000D01*
G01*
X114032000Y-82873000D01*
G75*
G02*
X114167000Y-82738000I135000J0D01*
G01*
X114437000Y-82738000D01*
G75*
G02*
X114572000Y-82873000I0J-135000D01*
G01*
G37*
G04 #@! TD*
G04 #@! TO.C,R6*
G36*
G01*
X109786000Y-85993000D02*
X109416000Y-85993000D01*
G75*
G02*
X109281000Y-85858000I0J135000D01*
G01*
X109281000Y-85588000D01*
G75*
G02*
X109416000Y-85453000I135000J0D01*
G01*
X109786000Y-85453000D01*
G75*
G02*
X109921000Y-85588000I0J-135000D01*
G01*
X109921000Y-85858000D01*
G75*
G02*
X109786000Y-85993000I-135000J0D01*
G01*
G37*
G36*
G01*
X109786000Y-87013000D02*
X109416000Y-87013000D01*
G75*
G02*
X109281000Y-86878000I0J135000D01*
G01*
X109281000Y-86608000D01*
G75*
G02*
X109416000Y-86473000I135000J0D01*
G01*
X109786000Y-86473000D01*
G75*
G02*
X109921000Y-86608000I0J-135000D01*
G01*
X109921000Y-86878000D01*
G75*
G02*
X109786000Y-87013000I-135000J0D01*
G01*
G37*
G04 #@! TD*
G04 #@! TO.C,R5*
G36*
G01*
X112083000Y-82536000D02*
X112453000Y-82536000D01*
G75*
G02*
X112588000Y-82671000I0J-135000D01*
G01*
X112588000Y-82941000D01*
G75*
G02*
X112453000Y-83076000I-135000J0D01*
G01*
X112083000Y-83076000D01*
G75*
G02*
X111948000Y-82941000I0J135000D01*
G01*
X111948000Y-82671000D01*
G75*
G02*
X112083000Y-82536000I135000J0D01*
G01*
G37*
G36*
G01*
X112083000Y-81516000D02*
X112453000Y-81516000D01*
G75*
G02*
X112588000Y-81651000I0J-135000D01*
G01*
X112588000Y-81921000D01*
G75*
G02*
X112453000Y-82056000I-135000J0D01*
G01*
X112083000Y-82056000D01*
G75*
G02*
X111948000Y-81921000I0J135000D01*
G01*
X111948000Y-81651000D01*
G75*
G02*
X112083000Y-81516000I135000J0D01*
G01*
G37*
G04 #@! TD*
G04 #@! TO.C,R4*
G36*
G01*
X119449000Y-80504000D02*
X119819000Y-80504000D01*
G75*
G02*
X119954000Y-80639000I0J-135000D01*
G01*
X119954000Y-80909000D01*
G75*
G02*
X119819000Y-81044000I-135000J0D01*
G01*
X119449000Y-81044000D01*
G75*
G02*
X119314000Y-80909000I0J135000D01*
G01*
X119314000Y-80639000D01*
G75*
G02*
X119449000Y-80504000I135000J0D01*
G01*
G37*
G36*
G01*
X119449000Y-79484000D02*
X119819000Y-79484000D01*
G75*
G02*
X119954000Y-79619000I0J-135000D01*
G01*
X119954000Y-79889000D01*
G75*
G02*
X119819000Y-80024000I-135000J0D01*
G01*
X119449000Y-80024000D01*
G75*
G02*
X119314000Y-79889000I0J135000D01*
G01*
X119314000Y-79619000D01*
G75*
G02*
X119449000Y-79484000I135000J0D01*
G01*
G37*
G04 #@! TD*
G04 #@! TO.C,R3*
G36*
G01*
X126931000Y-83580000D02*
X126561000Y-83580000D01*
G75*
G02*
X126426000Y-83445000I0J135000D01*
G01*
X126426000Y-83175000D01*
G75*
G02*
X126561000Y-83040000I135000J0D01*
G01*
X126931000Y-83040000D01*
G75*
G02*
X127066000Y-83175000I0J-135000D01*
G01*
X127066000Y-83445000D01*
G75*
G02*
X126931000Y-83580000I-135000J0D01*
G01*
G37*
G36*
G01*
X126931000Y-84600000D02*
X126561000Y-84600000D01*
G75*
G02*
X126426000Y-84465000I0J135000D01*
G01*
X126426000Y-84195000D01*
G75*
G02*
X126561000Y-84060000I135000J0D01*
G01*
X126931000Y-84060000D01*
G75*
G02*
X127066000Y-84195000I0J-135000D01*
G01*
X127066000Y-84465000D01*
G75*
G02*
X126931000Y-84600000I-135000J0D01*
G01*
G37*
G04 #@! TD*
G04 #@! TO.C,R2*
G36*
G01*
X126561000Y-82028000D02*
X126931000Y-82028000D01*
G75*
G02*
X127066000Y-82163000I0J-135000D01*
G01*
X127066000Y-82433000D01*
G75*
G02*
X126931000Y-82568000I-135000J0D01*
G01*
X126561000Y-82568000D01*
G75*
G02*
X126426000Y-82433000I0J135000D01*
G01*
X126426000Y-82163000D01*
G75*
G02*
X126561000Y-82028000I135000J0D01*
G01*
G37*
G36*
G01*
X126561000Y-81008000D02*
X126931000Y-81008000D01*
G75*
G02*
X127066000Y-81143000I0J-135000D01*
G01*
X127066000Y-81413000D01*
G75*
G02*
X126931000Y-81548000I-135000J0D01*
G01*
X126561000Y-81548000D01*
G75*
G02*
X126426000Y-81413000I0J135000D01*
G01*
X126426000Y-81143000D01*
G75*
G02*
X126561000Y-81008000I135000J0D01*
G01*
G37*
G04 #@! TD*
G04 #@! TO.C,R1*
G36*
G01*
X127577000Y-84060000D02*
X127947000Y-84060000D01*
G75*
G02*
X128082000Y-84195000I0J-135000D01*
G01*
X128082000Y-84465000D01*
G75*
G02*
X127947000Y-84600000I-135000J0D01*
G01*
X127577000Y-84600000D01*
G75*
G02*
X127442000Y-84465000I0J135000D01*
G01*
X127442000Y-84195000D01*
G75*
G02*
X127577000Y-84060000I135000J0D01*
G01*
G37*
G36*
G01*
X127577000Y-83040000D02*
X127947000Y-83040000D01*
G75*
G02*
X128082000Y-83175000I0J-135000D01*
G01*
X128082000Y-83445000D01*
G75*
G02*
X127947000Y-83580000I-135000J0D01*
G01*
X127577000Y-83580000D01*
G75*
G02*
X127442000Y-83445000I0J135000D01*
G01*
X127442000Y-83175000D01*
G75*
G02*
X127577000Y-83040000I135000J0D01*
G01*
G37*
G04 #@! TD*
D24*
G04 #@! TO.C,Q11*
X119142000Y-156972000D03*
X121142000Y-156022000D03*
X121142000Y-157922000D03*
G04 #@! TD*
G04 #@! TO.C,Q10*
X119142000Y-145542000D03*
X121142000Y-144592000D03*
X121142000Y-146492000D03*
G04 #@! TD*
G04 #@! TO.C,Q9*
X119158000Y-132588000D03*
X121158000Y-131638000D03*
X121158000Y-133538000D03*
G04 #@! TD*
G04 #@! TO.C,Q8*
X119142000Y-109982000D03*
X121142000Y-109032000D03*
X121142000Y-110932000D03*
G04 #@! TD*
G04 #@! TO.C,Q7*
X119142000Y-122682000D03*
X121142000Y-121732000D03*
X121142000Y-123632000D03*
G04 #@! TD*
D19*
G04 #@! TO.C,Q6*
X121158000Y-100822000D03*
X120208000Y-98822000D03*
X122108000Y-98822000D03*
G04 #@! TD*
G04 #@! TO.C,Q4*
X114300000Y-90154000D03*
X113350000Y-88154000D03*
X115250000Y-88154000D03*
G04 #@! TD*
G04 #@! TO.C,Q3*
X113030000Y-86598000D03*
X112080000Y-84598000D03*
X113980000Y-84598000D03*
G04 #@! TD*
G04 #@! TO.C,Q2*
X119446000Y-87868000D03*
X118496000Y-85868000D03*
X120396000Y-85868000D03*
G04 #@! TD*
D24*
G04 #@! TO.C,Q1*
X118348000Y-78486000D03*
X116348000Y-79436000D03*
X116348000Y-77536000D03*
G04 #@! TD*
D12*
G04 #@! TO.C,J9*
X132536000Y-153162000D03*
D13*
X135636000Y-153162000D03*
D14*
X124236000Y-153162000D03*
G04 #@! TD*
D12*
G04 #@! TO.C,J8*
X132536000Y-141732000D03*
D13*
X135636000Y-141732000D03*
D14*
X124236000Y-141732000D03*
G04 #@! TD*
D12*
G04 #@! TO.C,J7*
X132536000Y-130302000D03*
D13*
X135636000Y-130302000D03*
D14*
X124236000Y-130302000D03*
G04 #@! TD*
D12*
G04 #@! TO.C,J6*
X132536000Y-107442000D03*
D13*
X135636000Y-107442000D03*
D14*
X124236000Y-107442000D03*
G04 #@! TD*
D12*
G04 #@! TO.C,J5*
X132536000Y-118872000D03*
D13*
X135636000Y-118872000D03*
D14*
X124236000Y-118872000D03*
G04 #@! TD*
D12*
G04 #@! TO.C,J4*
X132536000Y-96012000D03*
D13*
X135636000Y-96012000D03*
D14*
X124236000Y-96012000D03*
G04 #@! TD*
D12*
G04 #@! TO.C,J1*
X132536000Y-83058000D03*
D13*
X135636000Y-83058000D03*
D14*
X124236000Y-83058000D03*
G04 #@! TD*
G04 #@! TO.C,C1*
G36*
G01*
X128066000Y-82371000D02*
X128066000Y-82221000D01*
G75*
G02*
X128141000Y-82146000I75000J0D01*
G01*
X128391000Y-82146000D01*
G75*
G02*
X128466000Y-82221000I0J-75000D01*
G01*
X128466000Y-82371000D01*
G75*
G02*
X128391000Y-82446000I-75000J0D01*
G01*
X128141000Y-82446000D01*
G75*
G02*
X128066000Y-82371000I0J75000D01*
G01*
G37*
G36*
G01*
X127566000Y-82371000D02*
X127566000Y-82221000D01*
G75*
G02*
X127641000Y-82146000I75000J0D01*
G01*
X127891000Y-82146000D01*
G75*
G02*
X127966000Y-82221000I0J-75000D01*
G01*
X127966000Y-82371000D01*
G75*
G02*
X127891000Y-82446000I-75000J0D01*
G01*
X127641000Y-82446000D01*
G75*
G02*
X127566000Y-82371000I0J75000D01*
G01*
G37*
G04 #@! TD*
M02*
