G04 #@! TF.GenerationSoftware,KiCad,Pcbnew,(5.1.7)-1*
G04 #@! TF.CreationDate,2021-01-31T04:24:23+01:00*
G04 #@! TF.ProjectId,clockdiv,636c6f63-6b64-4697-962e-6b696361645f,rev?*
G04 #@! TF.SameCoordinates,Original*
G04 #@! TF.FileFunction,Legend,Bot*
G04 #@! TF.FilePolarity,Positive*
%FSLAX46Y46*%
G04 Gerber Fmt 4.6, Leading zero omitted, Abs format (unit mm)*
G04 Created by KiCad (PCBNEW (5.1.7)-1) date 2021-01-31 04:24:23*
%MOMM*%
%LPD*%
G01*
G04 APERTURE LIST*
%ADD10C,0.150000*%
%ADD11C,0.120000*%
G04 APERTURE END LIST*
D10*
X109942380Y-138382952D02*
X110656666Y-138382952D01*
X110799523Y-138335333D01*
X110894761Y-138240095D01*
X110942380Y-138097238D01*
X110942380Y-138002000D01*
X110942380Y-139335333D02*
X110942380Y-138859142D01*
X109942380Y-138859142D01*
X110847142Y-140240095D02*
X110894761Y-140192476D01*
X110942380Y-140049619D01*
X110942380Y-139954380D01*
X110894761Y-139811523D01*
X110799523Y-139716285D01*
X110704285Y-139668666D01*
X110513809Y-139621047D01*
X110370952Y-139621047D01*
X110180476Y-139668666D01*
X110085238Y-139716285D01*
X109990000Y-139811523D01*
X109942380Y-139954380D01*
X109942380Y-140049619D01*
X109990000Y-140192476D01*
X110037619Y-140240095D01*
X109942380Y-140954380D02*
X110656666Y-140954380D01*
X110799523Y-140906761D01*
X110894761Y-140811523D01*
X110942380Y-140668666D01*
X110942380Y-140573428D01*
X110942380Y-141906761D02*
X110942380Y-141430571D01*
X109942380Y-141430571D01*
X110847142Y-142811523D02*
X110894761Y-142763904D01*
X110942380Y-142621047D01*
X110942380Y-142525809D01*
X110894761Y-142382952D01*
X110799523Y-142287714D01*
X110704285Y-142240095D01*
X110513809Y-142192476D01*
X110370952Y-142192476D01*
X110180476Y-142240095D01*
X110085238Y-142287714D01*
X109990000Y-142382952D01*
X109942380Y-142525809D01*
X109942380Y-142621047D01*
X109990000Y-142763904D01*
X110037619Y-142811523D01*
X109942380Y-143525809D02*
X110656666Y-143525809D01*
X110799523Y-143478190D01*
X110894761Y-143382952D01*
X110942380Y-143240095D01*
X110942380Y-143144857D01*
X110942380Y-144478190D02*
X110942380Y-144002000D01*
X109942380Y-144002000D01*
X110847142Y-145382952D02*
X110894761Y-145335333D01*
X110942380Y-145192476D01*
X110942380Y-145097238D01*
X110894761Y-144954380D01*
X110799523Y-144859142D01*
X110704285Y-144811523D01*
X110513809Y-144763904D01*
X110370952Y-144763904D01*
X110180476Y-144811523D01*
X110085238Y-144859142D01*
X109990000Y-144954380D01*
X109942380Y-145097238D01*
X109942380Y-145192476D01*
X109990000Y-145335333D01*
X110037619Y-145382952D01*
X109942380Y-146097238D02*
X110656666Y-146097238D01*
X110799523Y-146049619D01*
X110894761Y-145954380D01*
X110942380Y-145811523D01*
X110942380Y-145716285D01*
X110942380Y-147049619D02*
X110942380Y-146573428D01*
X109942380Y-146573428D01*
X110847142Y-147954380D02*
X110894761Y-147906761D01*
X110942380Y-147763904D01*
X110942380Y-147668666D01*
X110894761Y-147525809D01*
X110799523Y-147430571D01*
X110704285Y-147382952D01*
X110513809Y-147335333D01*
X110370952Y-147335333D01*
X110180476Y-147382952D01*
X110085238Y-147430571D01*
X109990000Y-147525809D01*
X109942380Y-147668666D01*
X109942380Y-147763904D01*
X109990000Y-147906761D01*
X110037619Y-147954380D01*
D11*
G04 #@! TO.C,J2*
X122136000Y-84458000D02*
X122136000Y-83138000D01*
X122136000Y-84458000D02*
X121036000Y-84458000D01*
X119756000Y-82638000D02*
X119156000Y-82638000D01*
X119756000Y-83478000D02*
X119156000Y-83478000D01*
X116276000Y-83058000D02*
G75*
G03*
X116276000Y-83058000I-1800000J0D01*
G01*
X118976000Y-83958000D02*
X118976000Y-87558000D01*
X118976000Y-78558000D02*
X118976000Y-82158000D01*
X108476000Y-84058000D02*
X108476000Y-87558000D01*
X108476000Y-78558000D02*
X108476000Y-82058000D01*
X118976000Y-78558000D02*
X108476000Y-78558000D01*
X118976000Y-87558000D02*
X108476000Y-87558000D01*
X117064577Y-84354263D02*
G75*
G02*
X111581000Y-83058000I-2588577J1296263D01*
G01*
X117064577Y-81761737D02*
G75*
G03*
X111581000Y-83058000I-2588577J-1296263D01*
G01*
G04 #@! TO.C,J12*
X133656000Y-169092000D02*
X123156000Y-169092000D01*
X133656000Y-160092000D02*
X123156000Y-160092000D01*
X123156000Y-160092000D02*
X123156000Y-163592000D01*
X123156000Y-165592000D02*
X123156000Y-169092000D01*
X133656000Y-160092000D02*
X133656000Y-163692000D01*
X133656000Y-165492000D02*
X133656000Y-169092000D01*
X130956000Y-164592000D02*
G75*
G03*
X130956000Y-164592000I-1800000J0D01*
G01*
X134436000Y-165012000D02*
X133836000Y-165012000D01*
X134436000Y-164172000D02*
X133836000Y-164172000D01*
X136816000Y-165992000D02*
X135716000Y-165992000D01*
X136816000Y-165992000D02*
X136816000Y-164672000D01*
X131744577Y-165888263D02*
G75*
G02*
X126261000Y-164592000I-2588577J1296263D01*
G01*
X131744577Y-163295737D02*
G75*
G03*
X126261000Y-164592000I-2588577J-1296263D01*
G01*
G04 #@! TO.C,D6*
X118832000Y-164592000D02*
G75*
G03*
X118832000Y-164592000I-2500000J0D01*
G01*
X114787000Y-162032000D02*
X117877000Y-162032000D01*
X116331538Y-167582000D02*
G75*
G03*
X117876830Y-162032000I462J2990000D01*
G01*
X116332462Y-167582000D02*
G75*
G02*
X114787170Y-162032000I-462J2990000D01*
G01*
G04 #@! TO.C,D12*
X114787000Y-150602000D02*
X117877000Y-150602000D01*
X118832000Y-153162000D02*
G75*
G03*
X118832000Y-153162000I-2500000J0D01*
G01*
X116331538Y-156152000D02*
G75*
G03*
X117876830Y-150602000I462J2990000D01*
G01*
X116332462Y-156152000D02*
G75*
G02*
X114787170Y-150602000I-462J2990000D01*
G01*
G04 #@! TO.C,D11*
X114787000Y-139172000D02*
X117877000Y-139172000D01*
X118832000Y-141732000D02*
G75*
G03*
X118832000Y-141732000I-2500000J0D01*
G01*
X116331538Y-144722000D02*
G75*
G03*
X117876830Y-139172000I462J2990000D01*
G01*
X116332462Y-144722000D02*
G75*
G02*
X114787170Y-139172000I-462J2990000D01*
G01*
G04 #@! TO.C,D10*
X114787000Y-127742000D02*
X117877000Y-127742000D01*
X118832000Y-130302000D02*
G75*
G03*
X118832000Y-130302000I-2500000J0D01*
G01*
X116331538Y-133292000D02*
G75*
G03*
X117876830Y-127742000I462J2990000D01*
G01*
X116332462Y-133292000D02*
G75*
G02*
X114787170Y-127742000I-462J2990000D01*
G01*
G04 #@! TO.C,D9*
X114787000Y-104882000D02*
X117877000Y-104882000D01*
X118832000Y-107442000D02*
G75*
G03*
X118832000Y-107442000I-2500000J0D01*
G01*
X116331538Y-110432000D02*
G75*
G03*
X117876830Y-104882000I462J2990000D01*
G01*
X116332462Y-110432000D02*
G75*
G02*
X114787170Y-104882000I-462J2990000D01*
G01*
G04 #@! TO.C,D8*
X114787000Y-116312000D02*
X117877000Y-116312000D01*
X118832000Y-118872000D02*
G75*
G03*
X118832000Y-118872000I-2500000J0D01*
G01*
X116331538Y-121862000D02*
G75*
G03*
X117876830Y-116312000I462J2990000D01*
G01*
X116332462Y-121862000D02*
G75*
G02*
X114787170Y-116312000I-462J2990000D01*
G01*
G04 #@! TO.C,D7*
X114787000Y-93579000D02*
X117877000Y-93579000D01*
X118832000Y-96139000D02*
G75*
G03*
X118832000Y-96139000I-2500000J0D01*
G01*
X116331538Y-99129000D02*
G75*
G03*
X117876830Y-93579000I462J2990000D01*
G01*
X116332462Y-99129000D02*
G75*
G02*
X114787170Y-93579000I-462J2990000D01*
G01*
G04 #@! TO.C,J9*
X136816000Y-154562000D02*
X136816000Y-153242000D01*
X136816000Y-154562000D02*
X135716000Y-154562000D01*
X134436000Y-152742000D02*
X133836000Y-152742000D01*
X134436000Y-153582000D02*
X133836000Y-153582000D01*
X130956000Y-153162000D02*
G75*
G03*
X130956000Y-153162000I-1800000J0D01*
G01*
X133656000Y-154062000D02*
X133656000Y-157662000D01*
X133656000Y-148662000D02*
X133656000Y-152262000D01*
X123156000Y-154162000D02*
X123156000Y-157662000D01*
X123156000Y-148662000D02*
X123156000Y-152162000D01*
X133656000Y-148662000D02*
X123156000Y-148662000D01*
X133656000Y-157662000D02*
X123156000Y-157662000D01*
X131744577Y-154458263D02*
G75*
G02*
X126261000Y-153162000I-2588577J1296263D01*
G01*
X131744577Y-151865737D02*
G75*
G03*
X126261000Y-153162000I-2588577J-1296263D01*
G01*
G04 #@! TO.C,J8*
X136816000Y-143132000D02*
X136816000Y-141812000D01*
X136816000Y-143132000D02*
X135716000Y-143132000D01*
X134436000Y-141312000D02*
X133836000Y-141312000D01*
X134436000Y-142152000D02*
X133836000Y-142152000D01*
X130956000Y-141732000D02*
G75*
G03*
X130956000Y-141732000I-1800000J0D01*
G01*
X133656000Y-142632000D02*
X133656000Y-146232000D01*
X133656000Y-137232000D02*
X133656000Y-140832000D01*
X123156000Y-142732000D02*
X123156000Y-146232000D01*
X123156000Y-137232000D02*
X123156000Y-140732000D01*
X133656000Y-137232000D02*
X123156000Y-137232000D01*
X133656000Y-146232000D02*
X123156000Y-146232000D01*
X131744577Y-143028263D02*
G75*
G02*
X126261000Y-141732000I-2588577J1296263D01*
G01*
X131744577Y-140435737D02*
G75*
G03*
X126261000Y-141732000I-2588577J-1296263D01*
G01*
G04 #@! TO.C,J7*
X136816000Y-131702000D02*
X136816000Y-130382000D01*
X136816000Y-131702000D02*
X135716000Y-131702000D01*
X134436000Y-129882000D02*
X133836000Y-129882000D01*
X134436000Y-130722000D02*
X133836000Y-130722000D01*
X130956000Y-130302000D02*
G75*
G03*
X130956000Y-130302000I-1800000J0D01*
G01*
X133656000Y-131202000D02*
X133656000Y-134802000D01*
X133656000Y-125802000D02*
X133656000Y-129402000D01*
X123156000Y-131302000D02*
X123156000Y-134802000D01*
X123156000Y-125802000D02*
X123156000Y-129302000D01*
X133656000Y-125802000D02*
X123156000Y-125802000D01*
X133656000Y-134802000D02*
X123156000Y-134802000D01*
X131744577Y-131598263D02*
G75*
G02*
X126261000Y-130302000I-2588577J1296263D01*
G01*
X131744577Y-129005737D02*
G75*
G03*
X126261000Y-130302000I-2588577J-1296263D01*
G01*
G04 #@! TO.C,J6*
X136816000Y-108842000D02*
X136816000Y-107522000D01*
X136816000Y-108842000D02*
X135716000Y-108842000D01*
X134436000Y-107022000D02*
X133836000Y-107022000D01*
X134436000Y-107862000D02*
X133836000Y-107862000D01*
X130956000Y-107442000D02*
G75*
G03*
X130956000Y-107442000I-1800000J0D01*
G01*
X133656000Y-108342000D02*
X133656000Y-111942000D01*
X133656000Y-102942000D02*
X133656000Y-106542000D01*
X123156000Y-108442000D02*
X123156000Y-111942000D01*
X123156000Y-102942000D02*
X123156000Y-106442000D01*
X133656000Y-102942000D02*
X123156000Y-102942000D01*
X133656000Y-111942000D02*
X123156000Y-111942000D01*
X131744577Y-108738263D02*
G75*
G02*
X126261000Y-107442000I-2588577J1296263D01*
G01*
X131744577Y-106145737D02*
G75*
G03*
X126261000Y-107442000I-2588577J-1296263D01*
G01*
G04 #@! TO.C,J5*
X136816000Y-120272000D02*
X136816000Y-118952000D01*
X136816000Y-120272000D02*
X135716000Y-120272000D01*
X134436000Y-118452000D02*
X133836000Y-118452000D01*
X134436000Y-119292000D02*
X133836000Y-119292000D01*
X130956000Y-118872000D02*
G75*
G03*
X130956000Y-118872000I-1800000J0D01*
G01*
X133656000Y-119772000D02*
X133656000Y-123372000D01*
X133656000Y-114372000D02*
X133656000Y-117972000D01*
X123156000Y-119872000D02*
X123156000Y-123372000D01*
X123156000Y-114372000D02*
X123156000Y-117872000D01*
X133656000Y-114372000D02*
X123156000Y-114372000D01*
X133656000Y-123372000D02*
X123156000Y-123372000D01*
X131744577Y-120168263D02*
G75*
G02*
X126261000Y-118872000I-2588577J1296263D01*
G01*
X131744577Y-117575737D02*
G75*
G03*
X126261000Y-118872000I-2588577J-1296263D01*
G01*
G04 #@! TO.C,J4*
X136816000Y-97412000D02*
X136816000Y-96092000D01*
X136816000Y-97412000D02*
X135716000Y-97412000D01*
X134436000Y-95592000D02*
X133836000Y-95592000D01*
X134436000Y-96432000D02*
X133836000Y-96432000D01*
X130956000Y-96012000D02*
G75*
G03*
X130956000Y-96012000I-1800000J0D01*
G01*
X133656000Y-96912000D02*
X133656000Y-100512000D01*
X133656000Y-91512000D02*
X133656000Y-95112000D01*
X123156000Y-97012000D02*
X123156000Y-100512000D01*
X123156000Y-91512000D02*
X123156000Y-95012000D01*
X133656000Y-91512000D02*
X123156000Y-91512000D01*
X133656000Y-100512000D02*
X123156000Y-100512000D01*
X131744577Y-97308263D02*
G75*
G02*
X126261000Y-96012000I-2588577J1296263D01*
G01*
X131744577Y-94715737D02*
G75*
G03*
X126261000Y-96012000I-2588577J-1296263D01*
G01*
G04 #@! TO.C,J1*
X136816000Y-84458000D02*
X136816000Y-83138000D01*
X136816000Y-84458000D02*
X135716000Y-84458000D01*
X134436000Y-82638000D02*
X133836000Y-82638000D01*
X134436000Y-83478000D02*
X133836000Y-83478000D01*
X130956000Y-83058000D02*
G75*
G03*
X130956000Y-83058000I-1800000J0D01*
G01*
X133656000Y-83958000D02*
X133656000Y-87558000D01*
X133656000Y-78558000D02*
X133656000Y-82158000D01*
X123156000Y-84058000D02*
X123156000Y-87558000D01*
X123156000Y-78558000D02*
X123156000Y-82058000D01*
X133656000Y-78558000D02*
X123156000Y-78558000D01*
X133656000Y-87558000D02*
X123156000Y-87558000D01*
X131744577Y-84354263D02*
G75*
G02*
X126261000Y-83058000I-2588577J1296263D01*
G01*
X131744577Y-81761737D02*
G75*
G03*
X126261000Y-83058000I-2588577J-1296263D01*
G01*
G04 #@! TO.C,J2*
D10*
X114990380Y-77922380D02*
X115323714Y-77446190D01*
X115561809Y-77922380D02*
X115561809Y-76922380D01*
X115180857Y-76922380D01*
X115085619Y-76970000D01*
X115038000Y-77017619D01*
X114990380Y-77112857D01*
X114990380Y-77255714D01*
X115038000Y-77350952D01*
X115085619Y-77398571D01*
X115180857Y-77446190D01*
X115561809Y-77446190D01*
X114561809Y-77398571D02*
X114228476Y-77398571D01*
X114085619Y-77922380D02*
X114561809Y-77922380D01*
X114561809Y-76922380D01*
X114085619Y-76922380D01*
X113704666Y-77874761D02*
X113561809Y-77922380D01*
X113323714Y-77922380D01*
X113228476Y-77874761D01*
X113180857Y-77827142D01*
X113133238Y-77731904D01*
X113133238Y-77636666D01*
X113180857Y-77541428D01*
X113228476Y-77493809D01*
X113323714Y-77446190D01*
X113514190Y-77398571D01*
X113609428Y-77350952D01*
X113657047Y-77303333D01*
X113704666Y-77208095D01*
X113704666Y-77112857D01*
X113657047Y-77017619D01*
X113609428Y-76970000D01*
X113514190Y-76922380D01*
X113276095Y-76922380D01*
X113133238Y-76970000D01*
X112704666Y-77398571D02*
X112371333Y-77398571D01*
X112228476Y-77922380D02*
X112704666Y-77922380D01*
X112704666Y-76922380D01*
X112228476Y-76922380D01*
X111942761Y-76922380D02*
X111371333Y-76922380D01*
X111657047Y-77922380D02*
X111657047Y-76922380D01*
G04 #@! TO.C,J1*
X128865238Y-77827142D02*
X128912857Y-77874761D01*
X129055714Y-77922380D01*
X129150952Y-77922380D01*
X129293809Y-77874761D01*
X129389047Y-77779523D01*
X129436666Y-77684285D01*
X129484285Y-77493809D01*
X129484285Y-77350952D01*
X129436666Y-77160476D01*
X129389047Y-77065238D01*
X129293809Y-76970000D01*
X129150952Y-76922380D01*
X129055714Y-76922380D01*
X128912857Y-76970000D01*
X128865238Y-77017619D01*
X127960476Y-77922380D02*
X128436666Y-77922380D01*
X128436666Y-76922380D01*
X127627142Y-77922380D02*
X127627142Y-76922380D01*
X127055714Y-77922380D02*
X127484285Y-77350952D01*
X127055714Y-76922380D02*
X127627142Y-77493809D01*
G04 #@! TD*
M02*
