%FSLAX45Y45*%
G04 Gerber Fmt 4.5, Leading zero omitted, Abs format (unit mm)*
G04 Created by KiCad (PCBNEW (5.1.10)-1) date 2021-11-26 00:00:37*
%MOMM*%
%LPD*%
G01*
G04 APERTURE LIST*
%TA.AperFunction,Profile*%
%ADD10C,0.050000*%
%TD*%
%ADD11C,0.200000*%
%ADD12C,0.300000*%
G04 APERTURE END LIST*
D10*
X10769600Y-16941800D02*
X13741400Y-16941800D01*
X10769600Y-7620000D02*
X10769600Y-16941800D01*
X13741400Y-7620000D02*
X10769600Y-7620000D01*
X13741400Y-16941800D02*
X13741400Y-7620000D01*
D11*
X10889300Y-14267500D02*
X10929300Y-14307500D01*
X10929300Y-14267500D02*
X10889300Y-14307500D01*
X11041700Y-12641900D02*
X11081700Y-12681900D01*
X11081700Y-12641900D02*
X11041700Y-12681900D01*
X11054400Y-8590600D02*
X11094400Y-8630600D01*
X11094400Y-8590600D02*
X11054400Y-8630600D01*
X11054400Y-14280200D02*
X11094400Y-14320200D01*
X11094400Y-14280200D02*
X11054400Y-14320200D01*
X11168700Y-12641900D02*
X11208700Y-12681900D01*
X11208700Y-12641900D02*
X11168700Y-12681900D01*
X11181400Y-8793800D02*
X11221400Y-8833800D01*
X11221400Y-8793800D02*
X11181400Y-8833800D01*
X11181400Y-13619800D02*
X11221400Y-13659800D01*
X11221400Y-13619800D02*
X11181400Y-13659800D01*
X11219500Y-14267500D02*
X11259500Y-14307500D01*
X11259500Y-14267500D02*
X11219500Y-14307500D01*
X11219500Y-14686600D02*
X11259500Y-14726600D01*
X11259500Y-14686600D02*
X11219500Y-14726600D01*
X11397300Y-13480100D02*
X11437300Y-13520100D01*
X11437300Y-13480100D02*
X11397300Y-13520100D01*
X11397300Y-13975400D02*
X11437300Y-14015400D01*
X11437300Y-13975400D02*
X11397300Y-14015400D01*
X11397300Y-14115100D02*
X11437300Y-14155100D01*
X11437300Y-14115100D02*
X11397300Y-14155100D01*
X11410000Y-12781600D02*
X11450000Y-12821600D01*
X11450000Y-12781600D02*
X11410000Y-12821600D01*
X11511600Y-13340400D02*
X11551600Y-13380400D01*
X11551600Y-13340400D02*
X11511600Y-13380400D01*
X11562400Y-12222800D02*
X11602400Y-12262800D01*
X11602400Y-12222800D02*
X11562400Y-12262800D01*
X11613200Y-11206800D02*
X11653200Y-11246800D01*
X11653200Y-11206800D02*
X11613200Y-11246800D01*
X11613200Y-11435400D02*
X11653200Y-11475400D01*
X11653200Y-11435400D02*
X11613200Y-11475400D01*
X11664000Y-8616000D02*
X11704000Y-8656000D01*
X11704000Y-8616000D02*
X11664000Y-8656000D01*
X11727500Y-13340400D02*
X11767500Y-13380400D01*
X11767500Y-13340400D02*
X11727500Y-13380400D01*
X11765600Y-11537000D02*
X11805600Y-11577000D01*
X11805600Y-11537000D02*
X11765600Y-11577000D01*
X11778300Y-12172000D02*
X11818300Y-12212000D01*
X11818300Y-12172000D02*
X11778300Y-12212000D01*
X11867200Y-9276400D02*
X11907200Y-9316400D01*
X11907200Y-9276400D02*
X11867200Y-9316400D01*
X11892600Y-10216200D02*
X11932600Y-10256200D01*
X11932600Y-10216200D02*
X11892600Y-10256200D01*
X11943400Y-10127300D02*
X11983400Y-10167300D01*
X11983400Y-10127300D02*
X11943400Y-10167300D01*
X11994200Y-16007400D02*
X12034200Y-16047400D01*
X12034200Y-16007400D02*
X11994200Y-16047400D01*
X12000300Y-12153200D02*
X12040300Y-12193200D01*
X12040300Y-12153200D02*
X12000300Y-12193200D01*
X12210100Y-10254300D02*
X12250100Y-10294300D01*
X12250100Y-10254300D02*
X12210100Y-10294300D01*
X12260900Y-13632500D02*
X12300900Y-13672500D01*
X12300900Y-13632500D02*
X12260900Y-13672500D01*
X12349800Y-15004100D02*
X12389800Y-15044100D01*
X12389800Y-15004100D02*
X12349800Y-15044100D01*
X12603800Y-9352600D02*
X12643800Y-9392600D01*
X12643800Y-9352600D02*
X12603800Y-9392600D01*
X12641900Y-12895900D02*
X12681900Y-12935900D01*
X12681900Y-12895900D02*
X12641900Y-12935900D01*
X12756200Y-9809800D02*
X12796200Y-9849800D01*
X12796200Y-9809800D02*
X12756200Y-9849800D01*
X12883200Y-10089200D02*
X12923200Y-10129200D01*
X12923200Y-10089200D02*
X12883200Y-10129200D01*
X12908600Y-16236000D02*
X12948600Y-16276000D01*
X12948600Y-16236000D02*
X12908600Y-16276000D01*
X12921300Y-12895900D02*
X12961300Y-12935900D01*
X12961300Y-12895900D02*
X12921300Y-12935900D01*
X12984800Y-8209600D02*
X13024800Y-8249600D01*
X13024800Y-8209600D02*
X12984800Y-8249600D01*
X13035600Y-9403400D02*
X13075600Y-9443400D01*
X13075600Y-9403400D02*
X13035600Y-9443400D01*
X13137200Y-8997000D02*
X13177200Y-9037000D01*
X13177200Y-8997000D02*
X13137200Y-9037000D01*
X13137200Y-9352600D02*
X13177200Y-9392600D01*
X13177200Y-9352600D02*
X13137200Y-9392600D01*
X13264200Y-9174800D02*
X13304200Y-9214800D01*
X13304200Y-9174800D02*
X13264200Y-9214800D01*
X11678200Y-9486900D02*
G75*
G03*
X11678200Y-9486900I-45000J0D01*
G01*
X11678200Y-9740900D02*
G75*
G03*
X11678200Y-9740900I-45000J0D01*
G01*
X11678200Y-10617200D02*
G75*
G03*
X11678200Y-10617200I-45000J0D01*
G01*
X11678200Y-10871200D02*
G75*
G03*
X11678200Y-10871200I-45000J0D01*
G01*
X11678200Y-11760200D02*
G75*
G03*
X11678200Y-11760200I-45000J0D01*
G01*
X11678200Y-12014200D02*
G75*
G03*
X11678200Y-12014200I-45000J0D01*
G01*
X11678200Y-12903200D02*
G75*
G03*
X11678200Y-12903200I-45000J0D01*
G01*
X11678200Y-13157200D02*
G75*
G03*
X11678200Y-13157200I-45000J0D01*
G01*
X11678200Y-14046200D02*
G75*
G03*
X11678200Y-14046200I-45000J0D01*
G01*
X11678200Y-14300200D02*
G75*
G03*
X11678200Y-14300200I-45000J0D01*
G01*
X11678200Y-15189200D02*
G75*
G03*
X11678200Y-15189200I-45000J0D01*
G01*
X11678200Y-15443200D02*
G75*
G03*
X11678200Y-15443200I-45000J0D01*
G01*
X11678200Y-16332200D02*
G75*
G03*
X11678200Y-16332200I-45000J0D01*
G01*
X11678200Y-16586200D02*
G75*
G03*
X11678200Y-16586200I-45000J0D01*
G01*
X10955600Y-8255800D02*
X10955600Y-8355800D01*
X10905600Y-8305800D02*
X11005600Y-8305800D01*
X10998200Y-9462300D02*
X10998200Y-9562300D01*
X10948200Y-9512300D02*
X11048200Y-9512300D01*
X10998200Y-9716300D02*
X10998200Y-9816300D01*
X10948200Y-9766300D02*
X11048200Y-9766300D01*
X11023600Y-10592600D02*
X11023600Y-10692600D01*
X10973600Y-10642600D02*
X11073600Y-10642600D01*
X11023600Y-10846600D02*
X11023600Y-10946600D01*
X10973600Y-10896600D02*
X11073600Y-10896600D01*
X11023600Y-11100600D02*
X11023600Y-11200600D01*
X10973600Y-11150600D02*
X11073600Y-11150600D01*
X11023600Y-11354600D02*
X11023600Y-11454600D01*
X10973600Y-11404600D02*
X11073600Y-11404600D01*
X11023600Y-11608600D02*
X11023600Y-11708600D01*
X10973600Y-11658600D02*
X11073600Y-11658600D01*
X11176000Y-16358400D02*
X11176000Y-16458400D01*
X11126000Y-16408400D02*
X11226000Y-16408400D01*
X11176000Y-16612400D02*
X11176000Y-16712400D01*
X11126000Y-16662400D02*
X11226000Y-16662400D01*
X11277600Y-10592600D02*
X11277600Y-10692600D01*
X11227600Y-10642600D02*
X11327600Y-10642600D01*
X11277600Y-10846600D02*
X11277600Y-10946600D01*
X11227600Y-10896600D02*
X11327600Y-10896600D01*
X11277600Y-11100600D02*
X11277600Y-11200600D01*
X11227600Y-11150600D02*
X11327600Y-11150600D01*
X11277600Y-11354600D02*
X11277600Y-11454600D01*
X11227600Y-11404600D02*
X11327600Y-11404600D01*
X11277600Y-11608600D02*
X11277600Y-11708600D01*
X11227600Y-11658600D02*
X11327600Y-11658600D01*
X11455400Y-12472200D02*
X11455400Y-12572200D01*
X11405400Y-12522200D02*
X11505400Y-12522200D01*
X11468100Y-9983000D02*
X11468100Y-10083000D01*
X11418100Y-10033000D02*
X11518100Y-10033000D01*
X11684000Y-15723400D02*
X11684000Y-15823400D01*
X11634000Y-15773400D02*
X11734000Y-15773400D01*
X11684000Y-15977400D02*
X11684000Y-16077400D01*
X11634000Y-16027400D02*
X11734000Y-16027400D01*
X11709400Y-12472200D02*
X11709400Y-12572200D01*
X11659400Y-12522200D02*
X11759400Y-12522200D01*
X11722100Y-9983000D02*
X11722100Y-10083000D01*
X11672100Y-10033000D02*
X11772100Y-10033000D01*
X11785600Y-8255800D02*
X11785600Y-8355800D01*
X11735600Y-8305800D02*
X11835600Y-8305800D01*
X12095600Y-8255800D02*
X12095600Y-8355800D01*
X12045600Y-8305800D02*
X12145600Y-8305800D01*
X12230100Y-11265700D02*
X12230100Y-11365700D01*
X12180100Y-11315700D02*
X12280100Y-11315700D01*
X12357100Y-12408700D02*
X12357100Y-12508700D01*
X12307100Y-12458700D02*
X12407100Y-12458700D01*
X12395200Y-14694700D02*
X12395200Y-14794700D01*
X12345200Y-14744700D02*
X12445200Y-14744700D01*
X12423600Y-8255800D02*
X12423600Y-8355800D01*
X12373600Y-8305800D02*
X12473600Y-8305800D01*
X12423600Y-9551200D02*
X12423600Y-9651200D01*
X12373600Y-9601200D02*
X12473600Y-9601200D01*
X12423600Y-10694200D02*
X12423600Y-10794200D01*
X12373600Y-10744200D02*
X12473600Y-10744200D01*
X12423600Y-11837200D02*
X12423600Y-11937200D01*
X12373600Y-11887200D02*
X12473600Y-11887200D01*
X12423600Y-12980200D02*
X12423600Y-13080200D01*
X12373600Y-13030200D02*
X12473600Y-13030200D01*
X12423600Y-14123200D02*
X12423600Y-14223200D01*
X12373600Y-14173200D02*
X12473600Y-14173200D01*
X12423600Y-15266200D02*
X12423600Y-15366200D01*
X12373600Y-15316200D02*
X12473600Y-15316200D01*
X12423600Y-16409200D02*
X12423600Y-16509200D01*
X12373600Y-16459200D02*
X12473600Y-16459200D01*
X12484100Y-11265700D02*
X12484100Y-11365700D01*
X12434100Y-11315700D02*
X12534100Y-11315700D01*
X12611100Y-12408700D02*
X12611100Y-12508700D01*
X12561100Y-12458700D02*
X12661100Y-12458700D01*
X12649200Y-14694700D02*
X12649200Y-14794700D01*
X12599200Y-14744700D02*
X12699200Y-14744700D01*
X13253600Y-8255800D02*
X13253600Y-8355800D01*
X13203600Y-8305800D02*
X13303600Y-8305800D01*
X13253600Y-9551200D02*
X13253600Y-9651200D01*
X13203600Y-9601200D02*
X13303600Y-9601200D01*
X13253600Y-10694200D02*
X13253600Y-10794200D01*
X13203600Y-10744200D02*
X13303600Y-10744200D01*
X13253600Y-11837200D02*
X13253600Y-11937200D01*
X13203600Y-11887200D02*
X13303600Y-11887200D01*
X13253600Y-12980200D02*
X13253600Y-13080200D01*
X13203600Y-13030200D02*
X13303600Y-13030200D01*
X13253600Y-14123200D02*
X13253600Y-14223200D01*
X13203600Y-14173200D02*
X13303600Y-14173200D01*
X13253600Y-15266200D02*
X13253600Y-15366200D01*
X13203600Y-15316200D02*
X13303600Y-15316200D01*
X13253600Y-16409200D02*
X13253600Y-16509200D01*
X13203600Y-16459200D02*
X13303600Y-16459200D01*
X13563600Y-7722400D02*
X13563600Y-7822400D01*
X13513600Y-7772400D02*
X13613600Y-7772400D01*
X13563600Y-7976400D02*
X13563600Y-8076400D01*
X13513600Y-8026400D02*
X13613600Y-8026400D01*
X13563600Y-8255800D02*
X13563600Y-8355800D01*
X13513600Y-8305800D02*
X13613600Y-8305800D01*
X13563600Y-9551200D02*
X13563600Y-9651200D01*
X13513600Y-9601200D02*
X13613600Y-9601200D01*
X13563600Y-10694200D02*
X13563600Y-10794200D01*
X13513600Y-10744200D02*
X13613600Y-10744200D01*
X13563600Y-11837200D02*
X13563600Y-11937200D01*
X13513600Y-11887200D02*
X13613600Y-11887200D01*
X13563600Y-12980200D02*
X13563600Y-13080200D01*
X13513600Y-13030200D02*
X13613600Y-13030200D01*
X13563600Y-14123200D02*
X13563600Y-14223200D01*
X13513600Y-14173200D02*
X13613600Y-14173200D01*
X13563600Y-15266200D02*
X13563600Y-15366200D01*
X13513600Y-15316200D02*
X13613600Y-15316200D01*
X13563600Y-16409200D02*
X13563600Y-16509200D01*
X13513600Y-16459200D02*
X13613600Y-16459200D01*
D12*
X11053528Y-17410014D02*
X11053528Y-17110014D01*
X11124957Y-17110014D01*
X11167814Y-17124300D01*
X11196386Y-17152872D01*
X11210671Y-17181443D01*
X11224957Y-17238586D01*
X11224957Y-17281443D01*
X11210671Y-17338586D01*
X11196386Y-17367157D01*
X11167814Y-17395729D01*
X11124957Y-17410014D01*
X11053528Y-17410014D01*
X11353528Y-17410014D02*
X11353528Y-17210014D01*
X11353528Y-17267157D02*
X11367814Y-17238586D01*
X11382100Y-17224300D01*
X11410671Y-17210014D01*
X11439243Y-17210014D01*
X11539243Y-17410014D02*
X11539243Y-17210014D01*
X11539243Y-17110014D02*
X11524957Y-17124300D01*
X11539243Y-17138586D01*
X11553528Y-17124300D01*
X11539243Y-17110014D01*
X11539243Y-17138586D01*
X11724957Y-17410014D02*
X11696386Y-17395729D01*
X11682100Y-17367157D01*
X11682100Y-17110014D01*
X11882100Y-17410014D02*
X11853528Y-17395729D01*
X11839243Y-17367157D01*
X11839243Y-17110014D01*
X12224957Y-17410014D02*
X12224957Y-17110014D01*
X12324957Y-17324300D01*
X12424957Y-17110014D01*
X12424957Y-17410014D01*
X12696386Y-17410014D02*
X12696386Y-17252872D01*
X12682100Y-17224300D01*
X12653528Y-17210014D01*
X12596386Y-17210014D01*
X12567814Y-17224300D01*
X12696386Y-17395729D02*
X12667814Y-17410014D01*
X12596386Y-17410014D01*
X12567814Y-17395729D01*
X12553528Y-17367157D01*
X12553528Y-17338586D01*
X12567814Y-17310014D01*
X12596386Y-17295729D01*
X12667814Y-17295729D01*
X12696386Y-17281443D01*
X12839243Y-17210014D02*
X12839243Y-17510014D01*
X12839243Y-17224300D02*
X12867814Y-17210014D01*
X12924957Y-17210014D01*
X12953528Y-17224300D01*
X12967814Y-17238586D01*
X12982100Y-17267157D01*
X12982100Y-17352872D01*
X12967814Y-17381443D01*
X12953528Y-17395729D01*
X12924957Y-17410014D01*
X12867814Y-17410014D01*
X12839243Y-17395729D01*
X13110671Y-17381443D02*
X13124957Y-17395729D01*
X13110671Y-17410014D01*
X13096386Y-17395729D01*
X13110671Y-17381443D01*
X13110671Y-17410014D01*
X13110671Y-17224300D02*
X13124957Y-17238586D01*
X13110671Y-17252872D01*
X13096386Y-17238586D01*
X13110671Y-17224300D01*
X13110671Y-17252872D01*
X10727100Y-17884300D02*
X10767100Y-17924300D01*
X10767100Y-17884300D02*
X10727100Y-17924300D01*
X11110671Y-17740014D02*
X11139243Y-17740014D01*
X11167814Y-17754300D01*
X11182100Y-17768586D01*
X11196386Y-17797157D01*
X11210671Y-17854300D01*
X11210671Y-17925729D01*
X11196386Y-17982872D01*
X11182100Y-18011443D01*
X11167814Y-18025729D01*
X11139243Y-18040014D01*
X11110671Y-18040014D01*
X11082100Y-18025729D01*
X11067814Y-18011443D01*
X11053528Y-17982872D01*
X11039243Y-17925729D01*
X11039243Y-17854300D01*
X11053528Y-17797157D01*
X11067814Y-17768586D01*
X11082100Y-17754300D01*
X11110671Y-17740014D01*
X11339243Y-18011443D02*
X11353528Y-18025729D01*
X11339243Y-18040014D01*
X11324957Y-18025729D01*
X11339243Y-18011443D01*
X11339243Y-18040014D01*
X11610671Y-17840014D02*
X11610671Y-18040014D01*
X11539243Y-17725729D02*
X11467814Y-17940014D01*
X11653528Y-17940014D01*
X11824957Y-17740014D02*
X11853528Y-17740014D01*
X11882100Y-17754300D01*
X11896386Y-17768586D01*
X11910671Y-17797157D01*
X11924957Y-17854300D01*
X11924957Y-17925729D01*
X11910671Y-17982872D01*
X11896386Y-18011443D01*
X11882100Y-18025729D01*
X11853528Y-18040014D01*
X11824957Y-18040014D01*
X11796386Y-18025729D01*
X11782100Y-18011443D01*
X11767814Y-17982872D01*
X11753528Y-17925729D01*
X11753528Y-17854300D01*
X11767814Y-17797157D01*
X11782100Y-17768586D01*
X11796386Y-17754300D01*
X11824957Y-17740014D01*
X12110671Y-17740014D02*
X12139243Y-17740014D01*
X12167814Y-17754300D01*
X12182100Y-17768586D01*
X12196386Y-17797157D01*
X12210671Y-17854300D01*
X12210671Y-17925729D01*
X12196386Y-17982872D01*
X12182100Y-18011443D01*
X12167814Y-18025729D01*
X12139243Y-18040014D01*
X12110671Y-18040014D01*
X12082100Y-18025729D01*
X12067814Y-18011443D01*
X12053528Y-17982872D01*
X12039243Y-17925729D01*
X12039243Y-17854300D01*
X12053528Y-17797157D01*
X12067814Y-17768586D01*
X12082100Y-17754300D01*
X12110671Y-17740014D01*
X12339243Y-18040014D02*
X12339243Y-17840014D01*
X12339243Y-17868586D02*
X12353528Y-17854300D01*
X12382100Y-17840014D01*
X12424957Y-17840014D01*
X12453528Y-17854300D01*
X12467814Y-17882872D01*
X12467814Y-18040014D01*
X12467814Y-17882872D02*
X12482100Y-17854300D01*
X12510671Y-17840014D01*
X12553528Y-17840014D01*
X12582100Y-17854300D01*
X12596386Y-17882872D01*
X12596386Y-18040014D01*
X12739243Y-18040014D02*
X12739243Y-17840014D01*
X12739243Y-17868586D02*
X12753528Y-17854300D01*
X12782100Y-17840014D01*
X12824957Y-17840014D01*
X12853528Y-17854300D01*
X12867814Y-17882872D01*
X12867814Y-18040014D01*
X12867814Y-17882872D02*
X12882100Y-17854300D01*
X12910671Y-17840014D01*
X12953528Y-17840014D01*
X12982100Y-17854300D01*
X12996386Y-17882872D01*
X12996386Y-18040014D01*
X13582100Y-17725729D02*
X13324957Y-18111443D01*
X13967814Y-17740014D02*
X13996386Y-17740014D01*
X14024957Y-17754300D01*
X14039243Y-17768586D01*
X14053528Y-17797157D01*
X14067814Y-17854300D01*
X14067814Y-17925729D01*
X14053528Y-17982872D01*
X14039243Y-18011443D01*
X14024957Y-18025729D01*
X13996386Y-18040014D01*
X13967814Y-18040014D01*
X13939243Y-18025729D01*
X13924957Y-18011443D01*
X13910671Y-17982872D01*
X13896386Y-17925729D01*
X13896386Y-17854300D01*
X13910671Y-17797157D01*
X13924957Y-17768586D01*
X13939243Y-17754300D01*
X13967814Y-17740014D01*
X14196386Y-18011443D02*
X14210671Y-18025729D01*
X14196386Y-18040014D01*
X14182100Y-18025729D01*
X14196386Y-18011443D01*
X14196386Y-18040014D01*
X14396386Y-17740014D02*
X14424957Y-17740014D01*
X14453528Y-17754300D01*
X14467814Y-17768586D01*
X14482100Y-17797157D01*
X14496386Y-17854300D01*
X14496386Y-17925729D01*
X14482100Y-17982872D01*
X14467814Y-18011443D01*
X14453528Y-18025729D01*
X14424957Y-18040014D01*
X14396386Y-18040014D01*
X14367814Y-18025729D01*
X14353528Y-18011443D01*
X14339243Y-17982872D01*
X14324957Y-17925729D01*
X14324957Y-17854300D01*
X14339243Y-17797157D01*
X14353528Y-17768586D01*
X14367814Y-17754300D01*
X14396386Y-17740014D01*
X14782100Y-18040014D02*
X14610671Y-18040014D01*
X14696386Y-18040014D02*
X14696386Y-17740014D01*
X14667814Y-17782872D01*
X14639243Y-17811443D01*
X14610671Y-17825729D01*
X15053528Y-17740014D02*
X14910671Y-17740014D01*
X14896386Y-17882872D01*
X14910671Y-17868586D01*
X14939243Y-17854300D01*
X15010671Y-17854300D01*
X15039243Y-17868586D01*
X15053528Y-17882872D01*
X15067814Y-17911443D01*
X15067814Y-17982872D01*
X15053528Y-18011443D01*
X15039243Y-18025729D01*
X15010671Y-18040014D01*
X14939243Y-18040014D01*
X14910671Y-18025729D01*
X14896386Y-18011443D01*
X15167814Y-17740014D02*
X15367814Y-17740014D01*
X15239243Y-18040014D01*
X15467814Y-17740014D02*
X15467814Y-17797157D01*
X15582100Y-17740014D02*
X15582100Y-17797157D01*
X16024957Y-18154300D02*
X16010671Y-18140014D01*
X15982100Y-18097157D01*
X15967814Y-18068586D01*
X15953528Y-18025729D01*
X15939243Y-17954300D01*
X15939243Y-17897157D01*
X15953528Y-17825729D01*
X15967814Y-17782872D01*
X15982100Y-17754300D01*
X16010671Y-17711443D01*
X16024957Y-17697157D01*
X16267814Y-17840014D02*
X16267814Y-18040014D01*
X16196386Y-17725729D02*
X16124957Y-17940014D01*
X16310671Y-17940014D01*
X16482100Y-17740014D02*
X16510671Y-17740014D01*
X16539243Y-17754300D01*
X16553528Y-17768586D01*
X16567814Y-17797157D01*
X16582100Y-17854300D01*
X16582100Y-17925729D01*
X16567814Y-17982872D01*
X16553528Y-18011443D01*
X16539243Y-18025729D01*
X16510671Y-18040014D01*
X16482100Y-18040014D01*
X16453528Y-18025729D01*
X16439243Y-18011443D01*
X16424957Y-17982872D01*
X16410671Y-17925729D01*
X16410671Y-17854300D01*
X16424957Y-17797157D01*
X16439243Y-17768586D01*
X16453528Y-17754300D01*
X16482100Y-17740014D01*
X16939243Y-18040014D02*
X16939243Y-17740014D01*
X17067814Y-18040014D02*
X17067814Y-17882872D01*
X17053528Y-17854300D01*
X17024957Y-17840014D01*
X16982100Y-17840014D01*
X16953528Y-17854300D01*
X16939243Y-17868586D01*
X17253528Y-18040014D02*
X17224957Y-18025729D01*
X17210671Y-18011443D01*
X17196386Y-17982872D01*
X17196386Y-17897157D01*
X17210671Y-17868586D01*
X17224957Y-17854300D01*
X17253528Y-17840014D01*
X17296386Y-17840014D01*
X17324957Y-17854300D01*
X17339243Y-17868586D01*
X17353528Y-17897157D01*
X17353528Y-17982872D01*
X17339243Y-18011443D01*
X17324957Y-18025729D01*
X17296386Y-18040014D01*
X17253528Y-18040014D01*
X17524957Y-18040014D02*
X17496386Y-18025729D01*
X17482100Y-17997157D01*
X17482100Y-17740014D01*
X17753528Y-18025729D02*
X17724957Y-18040014D01*
X17667814Y-18040014D01*
X17639243Y-18025729D01*
X17624957Y-17997157D01*
X17624957Y-17882872D01*
X17639243Y-17854300D01*
X17667814Y-17840014D01*
X17724957Y-17840014D01*
X17753528Y-17854300D01*
X17767814Y-17882872D01*
X17767814Y-17911443D01*
X17624957Y-17940014D01*
X17882100Y-18025729D02*
X17910671Y-18040014D01*
X17967814Y-18040014D01*
X17996386Y-18025729D01*
X18010671Y-17997157D01*
X18010671Y-17982872D01*
X17996386Y-17954300D01*
X17967814Y-17940014D01*
X17924957Y-17940014D01*
X17896386Y-17925729D01*
X17882100Y-17897157D01*
X17882100Y-17882872D01*
X17896386Y-17854300D01*
X17924957Y-17840014D01*
X17967814Y-17840014D01*
X17996386Y-17854300D01*
X18110671Y-18154300D02*
X18124957Y-18140014D01*
X18153528Y-18097157D01*
X18167814Y-18068586D01*
X18182100Y-18025729D01*
X18196386Y-17954300D01*
X18196386Y-17897157D01*
X18182100Y-17825729D01*
X18167814Y-17782872D01*
X18153528Y-17754300D01*
X18124957Y-17711443D01*
X18110671Y-17697157D01*
X10767100Y-18300300D02*
G75*
G03*
X10767100Y-18300300I-45000J0D01*
G01*
X11110671Y-18136014D02*
X11139243Y-18136014D01*
X11167814Y-18150300D01*
X11182100Y-18164586D01*
X11196386Y-18193157D01*
X11210671Y-18250300D01*
X11210671Y-18321729D01*
X11196386Y-18378872D01*
X11182100Y-18407443D01*
X11167814Y-18421729D01*
X11139243Y-18436014D01*
X11110671Y-18436014D01*
X11082100Y-18421729D01*
X11067814Y-18407443D01*
X11053528Y-18378872D01*
X11039243Y-18321729D01*
X11039243Y-18250300D01*
X11053528Y-18193157D01*
X11067814Y-18164586D01*
X11082100Y-18150300D01*
X11110671Y-18136014D01*
X11339243Y-18407443D02*
X11353528Y-18421729D01*
X11339243Y-18436014D01*
X11324957Y-18421729D01*
X11339243Y-18407443D01*
X11339243Y-18436014D01*
X11496386Y-18436014D02*
X11553528Y-18436014D01*
X11582100Y-18421729D01*
X11596386Y-18407443D01*
X11624957Y-18364586D01*
X11639243Y-18307443D01*
X11639243Y-18193157D01*
X11624957Y-18164586D01*
X11610671Y-18150300D01*
X11582100Y-18136014D01*
X11524957Y-18136014D01*
X11496386Y-18150300D01*
X11482100Y-18164586D01*
X11467814Y-18193157D01*
X11467814Y-18264586D01*
X11482100Y-18293157D01*
X11496386Y-18307443D01*
X11524957Y-18321729D01*
X11582100Y-18321729D01*
X11610671Y-18307443D01*
X11624957Y-18293157D01*
X11639243Y-18264586D01*
X11824957Y-18136014D02*
X11853528Y-18136014D01*
X11882100Y-18150300D01*
X11896386Y-18164586D01*
X11910671Y-18193157D01*
X11924957Y-18250300D01*
X11924957Y-18321729D01*
X11910671Y-18378872D01*
X11896386Y-18407443D01*
X11882100Y-18421729D01*
X11853528Y-18436014D01*
X11824957Y-18436014D01*
X11796386Y-18421729D01*
X11782100Y-18407443D01*
X11767814Y-18378872D01*
X11753528Y-18321729D01*
X11753528Y-18250300D01*
X11767814Y-18193157D01*
X11782100Y-18164586D01*
X11796386Y-18150300D01*
X11824957Y-18136014D01*
X12110671Y-18136014D02*
X12139243Y-18136014D01*
X12167814Y-18150300D01*
X12182100Y-18164586D01*
X12196386Y-18193157D01*
X12210671Y-18250300D01*
X12210671Y-18321729D01*
X12196386Y-18378872D01*
X12182100Y-18407443D01*
X12167814Y-18421729D01*
X12139243Y-18436014D01*
X12110671Y-18436014D01*
X12082100Y-18421729D01*
X12067814Y-18407443D01*
X12053528Y-18378872D01*
X12039243Y-18321729D01*
X12039243Y-18250300D01*
X12053528Y-18193157D01*
X12067814Y-18164586D01*
X12082100Y-18150300D01*
X12110671Y-18136014D01*
X12339243Y-18436014D02*
X12339243Y-18236014D01*
X12339243Y-18264586D02*
X12353528Y-18250300D01*
X12382100Y-18236014D01*
X12424957Y-18236014D01*
X12453528Y-18250300D01*
X12467814Y-18278872D01*
X12467814Y-18436014D01*
X12467814Y-18278872D02*
X12482100Y-18250300D01*
X12510671Y-18236014D01*
X12553528Y-18236014D01*
X12582100Y-18250300D01*
X12596386Y-18278872D01*
X12596386Y-18436014D01*
X12739243Y-18436014D02*
X12739243Y-18236014D01*
X12739243Y-18264586D02*
X12753528Y-18250300D01*
X12782100Y-18236014D01*
X12824957Y-18236014D01*
X12853528Y-18250300D01*
X12867814Y-18278872D01*
X12867814Y-18436014D01*
X12867814Y-18278872D02*
X12882100Y-18250300D01*
X12910671Y-18236014D01*
X12953528Y-18236014D01*
X12982100Y-18250300D01*
X12996386Y-18278872D01*
X12996386Y-18436014D01*
X13582100Y-18121729D02*
X13324957Y-18507443D01*
X13967814Y-18136014D02*
X13996386Y-18136014D01*
X14024957Y-18150300D01*
X14039243Y-18164586D01*
X14053528Y-18193157D01*
X14067814Y-18250300D01*
X14067814Y-18321729D01*
X14053528Y-18378872D01*
X14039243Y-18407443D01*
X14024957Y-18421729D01*
X13996386Y-18436014D01*
X13967814Y-18436014D01*
X13939243Y-18421729D01*
X13924957Y-18407443D01*
X13910671Y-18378872D01*
X13896386Y-18321729D01*
X13896386Y-18250300D01*
X13910671Y-18193157D01*
X13924957Y-18164586D01*
X13939243Y-18150300D01*
X13967814Y-18136014D01*
X14196386Y-18407443D02*
X14210671Y-18421729D01*
X14196386Y-18436014D01*
X14182100Y-18421729D01*
X14196386Y-18407443D01*
X14196386Y-18436014D01*
X14396386Y-18136014D02*
X14424957Y-18136014D01*
X14453528Y-18150300D01*
X14467814Y-18164586D01*
X14482100Y-18193157D01*
X14496386Y-18250300D01*
X14496386Y-18321729D01*
X14482100Y-18378872D01*
X14467814Y-18407443D01*
X14453528Y-18421729D01*
X14424957Y-18436014D01*
X14396386Y-18436014D01*
X14367814Y-18421729D01*
X14353528Y-18407443D01*
X14339243Y-18378872D01*
X14324957Y-18321729D01*
X14324957Y-18250300D01*
X14339243Y-18193157D01*
X14353528Y-18164586D01*
X14367814Y-18150300D01*
X14396386Y-18136014D01*
X14596386Y-18136014D02*
X14782100Y-18136014D01*
X14682100Y-18250300D01*
X14724957Y-18250300D01*
X14753528Y-18264586D01*
X14767814Y-18278872D01*
X14782100Y-18307443D01*
X14782100Y-18378872D01*
X14767814Y-18407443D01*
X14753528Y-18421729D01*
X14724957Y-18436014D01*
X14639243Y-18436014D01*
X14610671Y-18421729D01*
X14596386Y-18407443D01*
X15053528Y-18136014D02*
X14910671Y-18136014D01*
X14896386Y-18278872D01*
X14910671Y-18264586D01*
X14939243Y-18250300D01*
X15010671Y-18250300D01*
X15039243Y-18264586D01*
X15053528Y-18278872D01*
X15067814Y-18307443D01*
X15067814Y-18378872D01*
X15053528Y-18407443D01*
X15039243Y-18421729D01*
X15010671Y-18436014D01*
X14939243Y-18436014D01*
X14910671Y-18421729D01*
X14896386Y-18407443D01*
X15324957Y-18236014D02*
X15324957Y-18436014D01*
X15253528Y-18121729D02*
X15182100Y-18336014D01*
X15367814Y-18336014D01*
X15467814Y-18136014D02*
X15467814Y-18193157D01*
X15582100Y-18136014D02*
X15582100Y-18193157D01*
X16024957Y-18550300D02*
X16010671Y-18536014D01*
X15982100Y-18493157D01*
X15967814Y-18464586D01*
X15953528Y-18421729D01*
X15939243Y-18350300D01*
X15939243Y-18293157D01*
X15953528Y-18221729D01*
X15967814Y-18178872D01*
X15982100Y-18150300D01*
X16010671Y-18107443D01*
X16024957Y-18093157D01*
X16296386Y-18436014D02*
X16124957Y-18436014D01*
X16210671Y-18436014D02*
X16210671Y-18136014D01*
X16182100Y-18178872D01*
X16153528Y-18207443D01*
X16124957Y-18221729D01*
X16553528Y-18236014D02*
X16553528Y-18436014D01*
X16482100Y-18121729D02*
X16410671Y-18336014D01*
X16596386Y-18336014D01*
X16939243Y-18436014D02*
X16939243Y-18136014D01*
X17067814Y-18436014D02*
X17067814Y-18278872D01*
X17053528Y-18250300D01*
X17024957Y-18236014D01*
X16982100Y-18236014D01*
X16953528Y-18250300D01*
X16939243Y-18264586D01*
X17253528Y-18436014D02*
X17224957Y-18421729D01*
X17210671Y-18407443D01*
X17196386Y-18378872D01*
X17196386Y-18293157D01*
X17210671Y-18264586D01*
X17224957Y-18250300D01*
X17253528Y-18236014D01*
X17296386Y-18236014D01*
X17324957Y-18250300D01*
X17339243Y-18264586D01*
X17353528Y-18293157D01*
X17353528Y-18378872D01*
X17339243Y-18407443D01*
X17324957Y-18421729D01*
X17296386Y-18436014D01*
X17253528Y-18436014D01*
X17524957Y-18436014D02*
X17496386Y-18421729D01*
X17482100Y-18393157D01*
X17482100Y-18136014D01*
X17753528Y-18421729D02*
X17724957Y-18436014D01*
X17667814Y-18436014D01*
X17639243Y-18421729D01*
X17624957Y-18393157D01*
X17624957Y-18278872D01*
X17639243Y-18250300D01*
X17667814Y-18236014D01*
X17724957Y-18236014D01*
X17753528Y-18250300D01*
X17767814Y-18278872D01*
X17767814Y-18307443D01*
X17624957Y-18336014D01*
X17882100Y-18421729D02*
X17910671Y-18436014D01*
X17967814Y-18436014D01*
X17996386Y-18421729D01*
X18010671Y-18393157D01*
X18010671Y-18378872D01*
X17996386Y-18350300D01*
X17967814Y-18336014D01*
X17924957Y-18336014D01*
X17896386Y-18321729D01*
X17882100Y-18293157D01*
X17882100Y-18278872D01*
X17896386Y-18250300D01*
X17924957Y-18236014D01*
X17967814Y-18236014D01*
X17996386Y-18250300D01*
X18110671Y-18550300D02*
X18124957Y-18536014D01*
X18153528Y-18493157D01*
X18167814Y-18464586D01*
X18182100Y-18421729D01*
X18196386Y-18350300D01*
X18196386Y-18293157D01*
X18182100Y-18221729D01*
X18167814Y-18178872D01*
X18153528Y-18150300D01*
X18124957Y-18107443D01*
X18110671Y-18093157D01*
X10717100Y-18646300D02*
X10717100Y-18746300D01*
X10667100Y-18696300D02*
X10767100Y-18696300D01*
X11210671Y-18832014D02*
X11039243Y-18832014D01*
X11124957Y-18832014D02*
X11124957Y-18532014D01*
X11096386Y-18574872D01*
X11067814Y-18603443D01*
X11039243Y-18617729D01*
X11339243Y-18803443D02*
X11353528Y-18817729D01*
X11339243Y-18832014D01*
X11324957Y-18817729D01*
X11339243Y-18803443D01*
X11339243Y-18832014D01*
X11539243Y-18532014D02*
X11567814Y-18532014D01*
X11596386Y-18546300D01*
X11610671Y-18560586D01*
X11624957Y-18589157D01*
X11639243Y-18646300D01*
X11639243Y-18717729D01*
X11624957Y-18774872D01*
X11610671Y-18803443D01*
X11596386Y-18817729D01*
X11567814Y-18832014D01*
X11539243Y-18832014D01*
X11510671Y-18817729D01*
X11496386Y-18803443D01*
X11482100Y-18774872D01*
X11467814Y-18717729D01*
X11467814Y-18646300D01*
X11482100Y-18589157D01*
X11496386Y-18560586D01*
X11510671Y-18546300D01*
X11539243Y-18532014D01*
X11824957Y-18532014D02*
X11853528Y-18532014D01*
X11882100Y-18546300D01*
X11896386Y-18560586D01*
X11910671Y-18589157D01*
X11924957Y-18646300D01*
X11924957Y-18717729D01*
X11910671Y-18774872D01*
X11896386Y-18803443D01*
X11882100Y-18817729D01*
X11853528Y-18832014D01*
X11824957Y-18832014D01*
X11796386Y-18817729D01*
X11782100Y-18803443D01*
X11767814Y-18774872D01*
X11753528Y-18717729D01*
X11753528Y-18646300D01*
X11767814Y-18589157D01*
X11782100Y-18560586D01*
X11796386Y-18546300D01*
X11824957Y-18532014D01*
X12110671Y-18532014D02*
X12139243Y-18532014D01*
X12167814Y-18546300D01*
X12182100Y-18560586D01*
X12196386Y-18589157D01*
X12210671Y-18646300D01*
X12210671Y-18717729D01*
X12196386Y-18774872D01*
X12182100Y-18803443D01*
X12167814Y-18817729D01*
X12139243Y-18832014D01*
X12110671Y-18832014D01*
X12082100Y-18817729D01*
X12067814Y-18803443D01*
X12053528Y-18774872D01*
X12039243Y-18717729D01*
X12039243Y-18646300D01*
X12053528Y-18589157D01*
X12067814Y-18560586D01*
X12082100Y-18546300D01*
X12110671Y-18532014D01*
X12339243Y-18832014D02*
X12339243Y-18632014D01*
X12339243Y-18660586D02*
X12353528Y-18646300D01*
X12382100Y-18632014D01*
X12424957Y-18632014D01*
X12453528Y-18646300D01*
X12467814Y-18674872D01*
X12467814Y-18832014D01*
X12467814Y-18674872D02*
X12482100Y-18646300D01*
X12510671Y-18632014D01*
X12553528Y-18632014D01*
X12582100Y-18646300D01*
X12596386Y-18674872D01*
X12596386Y-18832014D01*
X12739243Y-18832014D02*
X12739243Y-18632014D01*
X12739243Y-18660586D02*
X12753528Y-18646300D01*
X12782100Y-18632014D01*
X12824957Y-18632014D01*
X12853528Y-18646300D01*
X12867814Y-18674872D01*
X12867814Y-18832014D01*
X12867814Y-18674872D02*
X12882100Y-18646300D01*
X12910671Y-18632014D01*
X12953528Y-18632014D01*
X12982100Y-18646300D01*
X12996386Y-18674872D01*
X12996386Y-18832014D01*
X13582100Y-18517729D02*
X13324957Y-18903443D01*
X13967814Y-18532014D02*
X13996386Y-18532014D01*
X14024957Y-18546300D01*
X14039243Y-18560586D01*
X14053528Y-18589157D01*
X14067814Y-18646300D01*
X14067814Y-18717729D01*
X14053528Y-18774872D01*
X14039243Y-18803443D01*
X14024957Y-18817729D01*
X13996386Y-18832014D01*
X13967814Y-18832014D01*
X13939243Y-18817729D01*
X13924957Y-18803443D01*
X13910671Y-18774872D01*
X13896386Y-18717729D01*
X13896386Y-18646300D01*
X13910671Y-18589157D01*
X13924957Y-18560586D01*
X13939243Y-18546300D01*
X13967814Y-18532014D01*
X14196386Y-18803443D02*
X14210671Y-18817729D01*
X14196386Y-18832014D01*
X14182100Y-18817729D01*
X14196386Y-18803443D01*
X14196386Y-18832014D01*
X14396386Y-18532014D02*
X14424957Y-18532014D01*
X14453528Y-18546300D01*
X14467814Y-18560586D01*
X14482100Y-18589157D01*
X14496386Y-18646300D01*
X14496386Y-18717729D01*
X14482100Y-18774872D01*
X14467814Y-18803443D01*
X14453528Y-18817729D01*
X14424957Y-18832014D01*
X14396386Y-18832014D01*
X14367814Y-18817729D01*
X14353528Y-18803443D01*
X14339243Y-18774872D01*
X14324957Y-18717729D01*
X14324957Y-18646300D01*
X14339243Y-18589157D01*
X14353528Y-18560586D01*
X14367814Y-18546300D01*
X14396386Y-18532014D01*
X14596386Y-18532014D02*
X14782100Y-18532014D01*
X14682100Y-18646300D01*
X14724957Y-18646300D01*
X14753528Y-18660586D01*
X14767814Y-18674872D01*
X14782100Y-18703443D01*
X14782100Y-18774872D01*
X14767814Y-18803443D01*
X14753528Y-18817729D01*
X14724957Y-18832014D01*
X14639243Y-18832014D01*
X14610671Y-18817729D01*
X14596386Y-18803443D01*
X14924957Y-18832014D02*
X14982100Y-18832014D01*
X15010671Y-18817729D01*
X15024957Y-18803443D01*
X15053528Y-18760586D01*
X15067814Y-18703443D01*
X15067814Y-18589157D01*
X15053528Y-18560586D01*
X15039243Y-18546300D01*
X15010671Y-18532014D01*
X14953528Y-18532014D01*
X14924957Y-18546300D01*
X14910671Y-18560586D01*
X14896386Y-18589157D01*
X14896386Y-18660586D01*
X14910671Y-18689157D01*
X14924957Y-18703443D01*
X14953528Y-18717729D01*
X15010671Y-18717729D01*
X15039243Y-18703443D01*
X15053528Y-18689157D01*
X15067814Y-18660586D01*
X15324957Y-18632014D02*
X15324957Y-18832014D01*
X15253528Y-18517729D02*
X15182100Y-18732014D01*
X15367814Y-18732014D01*
X15467814Y-18532014D02*
X15467814Y-18589157D01*
X15582100Y-18532014D02*
X15582100Y-18589157D01*
X16024957Y-18946300D02*
X16010671Y-18932014D01*
X15982100Y-18889157D01*
X15967814Y-18860586D01*
X15953528Y-18817729D01*
X15939243Y-18746300D01*
X15939243Y-18689157D01*
X15953528Y-18617729D01*
X15967814Y-18574872D01*
X15982100Y-18546300D01*
X16010671Y-18503443D01*
X16024957Y-18489157D01*
X16282100Y-18532014D02*
X16139243Y-18532014D01*
X16124957Y-18674872D01*
X16139243Y-18660586D01*
X16167814Y-18646300D01*
X16239243Y-18646300D01*
X16267814Y-18660586D01*
X16282100Y-18674872D01*
X16296386Y-18703443D01*
X16296386Y-18774872D01*
X16282100Y-18803443D01*
X16267814Y-18817729D01*
X16239243Y-18832014D01*
X16167814Y-18832014D01*
X16139243Y-18817729D01*
X16124957Y-18803443D01*
X16567814Y-18532014D02*
X16424957Y-18532014D01*
X16410671Y-18674872D01*
X16424957Y-18660586D01*
X16453528Y-18646300D01*
X16524957Y-18646300D01*
X16553528Y-18660586D01*
X16567814Y-18674872D01*
X16582100Y-18703443D01*
X16582100Y-18774872D01*
X16567814Y-18803443D01*
X16553528Y-18817729D01*
X16524957Y-18832014D01*
X16453528Y-18832014D01*
X16424957Y-18817729D01*
X16410671Y-18803443D01*
X16939243Y-18832014D02*
X16939243Y-18532014D01*
X17067814Y-18832014D02*
X17067814Y-18674872D01*
X17053528Y-18646300D01*
X17024957Y-18632014D01*
X16982100Y-18632014D01*
X16953528Y-18646300D01*
X16939243Y-18660586D01*
X17253528Y-18832014D02*
X17224957Y-18817729D01*
X17210671Y-18803443D01*
X17196386Y-18774872D01*
X17196386Y-18689157D01*
X17210671Y-18660586D01*
X17224957Y-18646300D01*
X17253528Y-18632014D01*
X17296386Y-18632014D01*
X17324957Y-18646300D01*
X17339243Y-18660586D01*
X17353528Y-18689157D01*
X17353528Y-18774872D01*
X17339243Y-18803443D01*
X17324957Y-18817729D01*
X17296386Y-18832014D01*
X17253528Y-18832014D01*
X17524957Y-18832014D02*
X17496386Y-18817729D01*
X17482100Y-18789157D01*
X17482100Y-18532014D01*
X17753528Y-18817729D02*
X17724957Y-18832014D01*
X17667814Y-18832014D01*
X17639243Y-18817729D01*
X17624957Y-18789157D01*
X17624957Y-18674872D01*
X17639243Y-18646300D01*
X17667814Y-18632014D01*
X17724957Y-18632014D01*
X17753528Y-18646300D01*
X17767814Y-18674872D01*
X17767814Y-18703443D01*
X17624957Y-18732014D01*
X17882100Y-18817729D02*
X17910671Y-18832014D01*
X17967814Y-18832014D01*
X17996386Y-18817729D01*
X18010671Y-18789157D01*
X18010671Y-18774872D01*
X17996386Y-18746300D01*
X17967814Y-18732014D01*
X17924957Y-18732014D01*
X17896386Y-18717729D01*
X17882100Y-18689157D01*
X17882100Y-18674872D01*
X17896386Y-18646300D01*
X17924957Y-18632014D01*
X17967814Y-18632014D01*
X17996386Y-18646300D01*
X18110671Y-18946300D02*
X18124957Y-18932014D01*
X18153528Y-18889157D01*
X18167814Y-18860586D01*
X18182100Y-18817729D01*
X18196386Y-18746300D01*
X18196386Y-18689157D01*
X18182100Y-18617729D01*
X18167814Y-18574872D01*
X18153528Y-18546300D01*
X18124957Y-18503443D01*
X18110671Y-18489157D01*
M02*
