G04 #@! TF.GenerationSoftware,KiCad,Pcbnew,(5.1.10)-1*
G04 #@! TF.CreationDate,2021-11-26T00:00:13+01:00*
G04 #@! TF.ProjectId,clockdiv,636c6f63-6b64-4697-962e-6b696361645f,rev?*
G04 #@! TF.SameCoordinates,Original*
G04 #@! TF.FileFunction,Soldermask,Top*
G04 #@! TF.FilePolarity,Negative*
%FSLAX46Y46*%
G04 Gerber Fmt 4.6, Leading zero omitted, Abs format (unit mm)*
G04 Created by KiCad (PCBNEW (5.1.10)-1) date 2021-11-26 00:00:13*
%MOMM*%
%LPD*%
G01*
G04 APERTURE LIST*
%ADD10C,0.150000*%
%ADD11C,0.300000*%
%ADD12O,1.700000X1.700000*%
%ADD13R,1.700000X1.700000*%
%ADD14R,1.200000X0.900000*%
%ADD15R,0.900000X1.200000*%
%ADD16C,0.100000*%
%ADD17R,0.900000X1.300000*%
%ADD18O,2.350000X2.800000*%
%ADD19R,2.150000X2.600000*%
%ADD20C,2.700000*%
%ADD21R,0.800000X0.900000*%
%ADD22C,1.800000*%
%ADD23R,1.800000X1.800000*%
%ADD24R,0.900000X0.800000*%
G04 APERTURE END LIST*
D10*
X113293024Y-146527185D02*
G75*
G02*
X112141000Y-148082000I-898025J-538816D01*
G01*
X111738210Y-146960790D02*
G75*
G03*
X111738210Y-146960790I-359210J0D01*
G01*
X112500210Y-146050000D02*
G75*
G03*
X112500210Y-146050000I-359210J0D01*
G01*
D11*
X114268000Y-146942739D02*
G75*
G03*
X114268000Y-146942739I-2000000J0D01*
G01*
G04 #@! TO.C,C3*
G36*
G01*
X109754000Y-136482000D02*
X109754000Y-136822000D01*
G75*
G02*
X109614000Y-136962000I-140000J0D01*
G01*
X109334000Y-136962000D01*
G75*
G02*
X109194000Y-136822000I0J140000D01*
G01*
X109194000Y-136482000D01*
G75*
G02*
X109334000Y-136342000I140000J0D01*
G01*
X109614000Y-136342000D01*
G75*
G02*
X109754000Y-136482000I0J-140000D01*
G01*
G37*
G36*
G01*
X110714000Y-136482000D02*
X110714000Y-136822000D01*
G75*
G02*
X110574000Y-136962000I-140000J0D01*
G01*
X110294000Y-136962000D01*
G75*
G02*
X110154000Y-136822000I0J140000D01*
G01*
X110154000Y-136482000D01*
G75*
G02*
X110294000Y-136342000I140000J0D01*
G01*
X110574000Y-136342000D01*
G75*
G02*
X110714000Y-136482000I0J-140000D01*
G01*
G37*
G04 #@! TD*
G04 #@! TO.C,C1*
G36*
G01*
X128823000Y-82466000D02*
X128823000Y-82126000D01*
G75*
G02*
X128963000Y-81986000I140000J0D01*
G01*
X129243000Y-81986000D01*
G75*
G02*
X129383000Y-82126000I0J-140000D01*
G01*
X129383000Y-82466000D01*
G75*
G02*
X129243000Y-82606000I-140000J0D01*
G01*
X128963000Y-82606000D01*
G75*
G02*
X128823000Y-82466000I0J140000D01*
G01*
G37*
G36*
G01*
X127863000Y-82466000D02*
X127863000Y-82126000D01*
G75*
G02*
X128003000Y-81986000I140000J0D01*
G01*
X128283000Y-81986000D01*
G75*
G02*
X128423000Y-82126000I0J-140000D01*
G01*
X128423000Y-82466000D01*
G75*
G02*
X128283000Y-82606000I-140000J0D01*
G01*
X128003000Y-82606000D01*
G75*
G02*
X127863000Y-82466000I0J140000D01*
G01*
G37*
G04 #@! TD*
G04 #@! TO.C,R52*
G36*
G01*
X119267000Y-167201000D02*
X119267000Y-167571000D01*
G75*
G02*
X119132000Y-167706000I-135000J0D01*
G01*
X118862000Y-167706000D01*
G75*
G02*
X118727000Y-167571000I0J135000D01*
G01*
X118727000Y-167201000D01*
G75*
G02*
X118862000Y-167066000I135000J0D01*
G01*
X119132000Y-167066000D01*
G75*
G02*
X119267000Y-167201000I0J-135000D01*
G01*
G37*
G36*
G01*
X120287000Y-167201000D02*
X120287000Y-167571000D01*
G75*
G02*
X120152000Y-167706000I-135000J0D01*
G01*
X119882000Y-167706000D01*
G75*
G02*
X119747000Y-167571000I0J135000D01*
G01*
X119747000Y-167201000D01*
G75*
G02*
X119882000Y-167066000I135000J0D01*
G01*
X120152000Y-167066000D01*
G75*
G02*
X120287000Y-167201000I0J-135000D01*
G01*
G37*
G04 #@! TD*
G04 #@! TO.C,R51*
G36*
G01*
X120890000Y-159443000D02*
X120890000Y-159073000D01*
G75*
G02*
X121025000Y-158938000I135000J0D01*
G01*
X121295000Y-158938000D01*
G75*
G02*
X121430000Y-159073000I0J-135000D01*
G01*
X121430000Y-159443000D01*
G75*
G02*
X121295000Y-159578000I-135000J0D01*
G01*
X121025000Y-159578000D01*
G75*
G02*
X120890000Y-159443000I0J135000D01*
G01*
G37*
G36*
G01*
X119870000Y-159443000D02*
X119870000Y-159073000D01*
G75*
G02*
X120005000Y-158938000I135000J0D01*
G01*
X120275000Y-158938000D01*
G75*
G02*
X120410000Y-159073000I0J-135000D01*
G01*
X120410000Y-159443000D01*
G75*
G02*
X120275000Y-159578000I-135000J0D01*
G01*
X120005000Y-159578000D01*
G75*
G02*
X119870000Y-159443000I0J135000D01*
G01*
G37*
G04 #@! TD*
G04 #@! TO.C,R50*
G36*
G01*
X120888000Y-148013000D02*
X120888000Y-147643000D01*
G75*
G02*
X121023000Y-147508000I135000J0D01*
G01*
X121293000Y-147508000D01*
G75*
G02*
X121428000Y-147643000I0J-135000D01*
G01*
X121428000Y-148013000D01*
G75*
G02*
X121293000Y-148148000I-135000J0D01*
G01*
X121023000Y-148148000D01*
G75*
G02*
X120888000Y-148013000I0J135000D01*
G01*
G37*
G36*
G01*
X119868000Y-148013000D02*
X119868000Y-147643000D01*
G75*
G02*
X120003000Y-147508000I135000J0D01*
G01*
X120273000Y-147508000D01*
G75*
G02*
X120408000Y-147643000I0J-135000D01*
G01*
X120408000Y-148013000D01*
G75*
G02*
X120273000Y-148148000I-135000J0D01*
G01*
X120003000Y-148148000D01*
G75*
G02*
X119868000Y-148013000I0J135000D01*
G01*
G37*
G04 #@! TD*
G04 #@! TO.C,R49*
G36*
G01*
X120763000Y-125788000D02*
X120763000Y-125418000D01*
G75*
G02*
X120898000Y-125283000I135000J0D01*
G01*
X121168000Y-125283000D01*
G75*
G02*
X121303000Y-125418000I0J-135000D01*
G01*
X121303000Y-125788000D01*
G75*
G02*
X121168000Y-125923000I-135000J0D01*
G01*
X120898000Y-125923000D01*
G75*
G02*
X120763000Y-125788000I0J135000D01*
G01*
G37*
G36*
G01*
X119743000Y-125788000D02*
X119743000Y-125418000D01*
G75*
G02*
X119878000Y-125283000I135000J0D01*
G01*
X120148000Y-125283000D01*
G75*
G02*
X120283000Y-125418000I0J-135000D01*
G01*
X120283000Y-125788000D01*
G75*
G02*
X120148000Y-125923000I-135000J0D01*
G01*
X119878000Y-125923000D01*
G75*
G02*
X119743000Y-125788000I0J135000D01*
G01*
G37*
G04 #@! TD*
G04 #@! TO.C,R48*
G36*
G01*
X119957000Y-112889000D02*
X120327000Y-112889000D01*
G75*
G02*
X120462000Y-113024000I0J-135000D01*
G01*
X120462000Y-113294000D01*
G75*
G02*
X120327000Y-113429000I-135000J0D01*
G01*
X119957000Y-113429000D01*
G75*
G02*
X119822000Y-113294000I0J135000D01*
G01*
X119822000Y-113024000D01*
G75*
G02*
X119957000Y-112889000I135000J0D01*
G01*
G37*
G36*
G01*
X119957000Y-111869000D02*
X120327000Y-111869000D01*
G75*
G02*
X120462000Y-112004000I0J-135000D01*
G01*
X120462000Y-112274000D01*
G75*
G02*
X120327000Y-112409000I-135000J0D01*
G01*
X119957000Y-112409000D01*
G75*
G02*
X119822000Y-112274000I0J135000D01*
G01*
X119822000Y-112004000D01*
G75*
G02*
X119957000Y-111869000I135000J0D01*
G01*
G37*
G04 #@! TD*
G04 #@! TO.C,R47*
G36*
G01*
X116909000Y-122670000D02*
X117279000Y-122670000D01*
G75*
G02*
X117414000Y-122805000I0J-135000D01*
G01*
X117414000Y-123075000D01*
G75*
G02*
X117279000Y-123210000I-135000J0D01*
G01*
X116909000Y-123210000D01*
G75*
G02*
X116774000Y-123075000I0J135000D01*
G01*
X116774000Y-122805000D01*
G75*
G02*
X116909000Y-122670000I135000J0D01*
G01*
G37*
G36*
G01*
X116909000Y-121650000D02*
X117279000Y-121650000D01*
G75*
G02*
X117414000Y-121785000I0J-135000D01*
G01*
X117414000Y-122055000D01*
G75*
G02*
X117279000Y-122190000I-135000J0D01*
G01*
X116909000Y-122190000D01*
G75*
G02*
X116774000Y-122055000I0J135000D01*
G01*
X116774000Y-121785000D01*
G75*
G02*
X116909000Y-121650000I135000J0D01*
G01*
G37*
G04 #@! TD*
G04 #@! TO.C,R46*
G36*
G01*
X119576000Y-100062000D02*
X119946000Y-100062000D01*
G75*
G02*
X120081000Y-100197000I0J-135000D01*
G01*
X120081000Y-100467000D01*
G75*
G02*
X119946000Y-100602000I-135000J0D01*
G01*
X119576000Y-100602000D01*
G75*
G02*
X119441000Y-100467000I0J135000D01*
G01*
X119441000Y-100197000D01*
G75*
G02*
X119576000Y-100062000I135000J0D01*
G01*
G37*
G36*
G01*
X119576000Y-99042000D02*
X119946000Y-99042000D01*
G75*
G02*
X120081000Y-99177000I0J-135000D01*
G01*
X120081000Y-99447000D01*
G75*
G02*
X119946000Y-99582000I-135000J0D01*
G01*
X119576000Y-99582000D01*
G75*
G02*
X119441000Y-99447000I0J135000D01*
G01*
X119441000Y-99177000D01*
G75*
G02*
X119576000Y-99042000I135000J0D01*
G01*
G37*
G04 #@! TD*
D12*
G04 #@! TO.C,J19*
X111760000Y-164084000D03*
D13*
X111760000Y-166624000D03*
G04 #@! TD*
D12*
G04 #@! TO.C,J18*
X116840000Y-157734000D03*
D13*
X116840000Y-160274000D03*
G04 #@! TD*
D12*
G04 #@! TO.C,J17*
X126492000Y-147447000D03*
D13*
X123952000Y-147447000D03*
G04 #@! TD*
D12*
G04 #@! TO.C,J16*
X126111000Y-124587000D03*
D13*
X123571000Y-124587000D03*
G04 #@! TD*
D12*
G04 #@! TO.C,J15*
X124841000Y-113157000D03*
D13*
X122301000Y-113157000D03*
G04 #@! TD*
D12*
G04 #@! TO.C,J14*
X114554000Y-125222000D03*
D13*
X117094000Y-125222000D03*
G04 #@! TD*
D12*
G04 #@! TO.C,J13*
X114681000Y-100330000D03*
D13*
X117221000Y-100330000D03*
G04 #@! TD*
G04 #@! TO.C,R45*
G36*
G01*
X114115000Y-164705000D02*
X114485000Y-164705000D01*
G75*
G02*
X114620000Y-164840000I0J-135000D01*
G01*
X114620000Y-165110000D01*
G75*
G02*
X114485000Y-165245000I-135000J0D01*
G01*
X114115000Y-165245000D01*
G75*
G02*
X113980000Y-165110000I0J135000D01*
G01*
X113980000Y-164840000D01*
G75*
G02*
X114115000Y-164705000I135000J0D01*
G01*
G37*
G36*
G01*
X114115000Y-163685000D02*
X114485000Y-163685000D01*
G75*
G02*
X114620000Y-163820000I0J-135000D01*
G01*
X114620000Y-164090000D01*
G75*
G02*
X114485000Y-164225000I-135000J0D01*
G01*
X114115000Y-164225000D01*
G75*
G02*
X113980000Y-164090000I0J135000D01*
G01*
X113980000Y-163820000D01*
G75*
G02*
X114115000Y-163685000I135000J0D01*
G01*
G37*
G04 #@! TD*
G04 #@! TO.C,R44*
G36*
G01*
X129471000Y-163844000D02*
X129101000Y-163844000D01*
G75*
G02*
X128966000Y-163709000I0J135000D01*
G01*
X128966000Y-163439000D01*
G75*
G02*
X129101000Y-163304000I135000J0D01*
G01*
X129471000Y-163304000D01*
G75*
G02*
X129606000Y-163439000I0J-135000D01*
G01*
X129606000Y-163709000D01*
G75*
G02*
X129471000Y-163844000I-135000J0D01*
G01*
G37*
G36*
G01*
X129471000Y-164864000D02*
X129101000Y-164864000D01*
G75*
G02*
X128966000Y-164729000I0J135000D01*
G01*
X128966000Y-164459000D01*
G75*
G02*
X129101000Y-164324000I135000J0D01*
G01*
X129471000Y-164324000D01*
G75*
G02*
X129606000Y-164459000I0J-135000D01*
G01*
X129606000Y-164729000D01*
G75*
G02*
X129471000Y-164864000I-135000J0D01*
G01*
G37*
G04 #@! TD*
G04 #@! TO.C,R43*
G36*
G01*
X114115000Y-153402000D02*
X114485000Y-153402000D01*
G75*
G02*
X114620000Y-153537000I0J-135000D01*
G01*
X114620000Y-153807000D01*
G75*
G02*
X114485000Y-153942000I-135000J0D01*
G01*
X114115000Y-153942000D01*
G75*
G02*
X113980000Y-153807000I0J135000D01*
G01*
X113980000Y-153537000D01*
G75*
G02*
X114115000Y-153402000I135000J0D01*
G01*
G37*
G36*
G01*
X114115000Y-152382000D02*
X114485000Y-152382000D01*
G75*
G02*
X114620000Y-152517000I0J-135000D01*
G01*
X114620000Y-152787000D01*
G75*
G02*
X114485000Y-152922000I-135000J0D01*
G01*
X114115000Y-152922000D01*
G75*
G02*
X113980000Y-152787000I0J135000D01*
G01*
X113980000Y-152517000D01*
G75*
G02*
X114115000Y-152382000I135000J0D01*
G01*
G37*
G04 #@! TD*
G04 #@! TO.C,R42*
G36*
G01*
X122994000Y-150380000D02*
X122624000Y-150380000D01*
G75*
G02*
X122489000Y-150245000I0J135000D01*
G01*
X122489000Y-149975000D01*
G75*
G02*
X122624000Y-149840000I135000J0D01*
G01*
X122994000Y-149840000D01*
G75*
G02*
X123129000Y-149975000I0J-135000D01*
G01*
X123129000Y-150245000D01*
G75*
G02*
X122994000Y-150380000I-135000J0D01*
G01*
G37*
G36*
G01*
X122994000Y-151400000D02*
X122624000Y-151400000D01*
G75*
G02*
X122489000Y-151265000I0J135000D01*
G01*
X122489000Y-150995000D01*
G75*
G02*
X122624000Y-150860000I135000J0D01*
G01*
X122994000Y-150860000D01*
G75*
G02*
X123129000Y-150995000I0J-135000D01*
G01*
X123129000Y-151265000D01*
G75*
G02*
X122994000Y-151400000I-135000J0D01*
G01*
G37*
G04 #@! TD*
G04 #@! TO.C,R41*
G36*
G01*
X117925000Y-141464000D02*
X118295000Y-141464000D01*
G75*
G02*
X118430000Y-141599000I0J-135000D01*
G01*
X118430000Y-141869000D01*
G75*
G02*
X118295000Y-142004000I-135000J0D01*
G01*
X117925000Y-142004000D01*
G75*
G02*
X117790000Y-141869000I0J135000D01*
G01*
X117790000Y-141599000D01*
G75*
G02*
X117925000Y-141464000I135000J0D01*
G01*
G37*
G36*
G01*
X117925000Y-140444000D02*
X118295000Y-140444000D01*
G75*
G02*
X118430000Y-140579000I0J-135000D01*
G01*
X118430000Y-140849000D01*
G75*
G02*
X118295000Y-140984000I-135000J0D01*
G01*
X117925000Y-140984000D01*
G75*
G02*
X117790000Y-140849000I0J135000D01*
G01*
X117790000Y-140579000D01*
G75*
G02*
X117925000Y-140444000I135000J0D01*
G01*
G37*
G04 #@! TD*
G04 #@! TO.C,R40*
G36*
G01*
X123966000Y-136340000D02*
X123966000Y-136710000D01*
G75*
G02*
X123831000Y-136845000I-135000J0D01*
G01*
X123561000Y-136845000D01*
G75*
G02*
X123426000Y-136710000I0J135000D01*
G01*
X123426000Y-136340000D01*
G75*
G02*
X123561000Y-136205000I135000J0D01*
G01*
X123831000Y-136205000D01*
G75*
G02*
X123966000Y-136340000I0J-135000D01*
G01*
G37*
G36*
G01*
X124986000Y-136340000D02*
X124986000Y-136710000D01*
G75*
G02*
X124851000Y-136845000I-135000J0D01*
G01*
X124581000Y-136845000D01*
G75*
G02*
X124446000Y-136710000I0J135000D01*
G01*
X124446000Y-136340000D01*
G75*
G02*
X124581000Y-136205000I135000J0D01*
G01*
X124851000Y-136205000D01*
G75*
G02*
X124986000Y-136340000I0J-135000D01*
G01*
G37*
G04 #@! TD*
G04 #@! TO.C,R39*
G36*
G01*
X118052000Y-128508000D02*
X118422000Y-128508000D01*
G75*
G02*
X118557000Y-128643000I0J-135000D01*
G01*
X118557000Y-128913000D01*
G75*
G02*
X118422000Y-129048000I-135000J0D01*
G01*
X118052000Y-129048000D01*
G75*
G02*
X117917000Y-128913000I0J135000D01*
G01*
X117917000Y-128643000D01*
G75*
G02*
X118052000Y-128508000I135000J0D01*
G01*
G37*
G36*
G01*
X118052000Y-127488000D02*
X118422000Y-127488000D01*
G75*
G02*
X118557000Y-127623000I0J-135000D01*
G01*
X118557000Y-127893000D01*
G75*
G02*
X118422000Y-128028000I-135000J0D01*
G01*
X118052000Y-128028000D01*
G75*
G02*
X117917000Y-127893000I0J135000D01*
G01*
X117917000Y-127623000D01*
G75*
G02*
X118052000Y-127488000I135000J0D01*
G01*
G37*
G04 #@! TD*
G04 #@! TO.C,R38*
G36*
G01*
X126097000Y-127566000D02*
X126097000Y-127196000D01*
G75*
G02*
X126232000Y-127061000I135000J0D01*
G01*
X126502000Y-127061000D01*
G75*
G02*
X126637000Y-127196000I0J-135000D01*
G01*
X126637000Y-127566000D01*
G75*
G02*
X126502000Y-127701000I-135000J0D01*
G01*
X126232000Y-127701000D01*
G75*
G02*
X126097000Y-127566000I0J135000D01*
G01*
G37*
G36*
G01*
X125077000Y-127566000D02*
X125077000Y-127196000D01*
G75*
G02*
X125212000Y-127061000I135000J0D01*
G01*
X125482000Y-127061000D01*
G75*
G02*
X125617000Y-127196000I0J-135000D01*
G01*
X125617000Y-127566000D01*
G75*
G02*
X125482000Y-127701000I-135000J0D01*
G01*
X125212000Y-127701000D01*
G75*
G02*
X125077000Y-127566000I0J135000D01*
G01*
G37*
G04 #@! TD*
G04 #@! TO.C,R37*
G36*
G01*
X116064000Y-110802000D02*
X116064000Y-110432000D01*
G75*
G02*
X116199000Y-110297000I135000J0D01*
G01*
X116469000Y-110297000D01*
G75*
G02*
X116604000Y-110432000I0J-135000D01*
G01*
X116604000Y-110802000D01*
G75*
G02*
X116469000Y-110937000I-135000J0D01*
G01*
X116199000Y-110937000D01*
G75*
G02*
X116064000Y-110802000I0J135000D01*
G01*
G37*
G36*
G01*
X115044000Y-110802000D02*
X115044000Y-110432000D01*
G75*
G02*
X115179000Y-110297000I135000J0D01*
G01*
X115449000Y-110297000D01*
G75*
G02*
X115584000Y-110432000I0J-135000D01*
G01*
X115584000Y-110802000D01*
G75*
G02*
X115449000Y-110937000I-135000J0D01*
G01*
X115179000Y-110937000D01*
G75*
G02*
X115044000Y-110802000I0J135000D01*
G01*
G37*
G04 #@! TD*
G04 #@! TO.C,R36*
G36*
G01*
X123456000Y-102558000D02*
X123456000Y-102928000D01*
G75*
G02*
X123321000Y-103063000I-135000J0D01*
G01*
X123051000Y-103063000D01*
G75*
G02*
X122916000Y-102928000I0J135000D01*
G01*
X122916000Y-102558000D01*
G75*
G02*
X123051000Y-102423000I135000J0D01*
G01*
X123321000Y-102423000D01*
G75*
G02*
X123456000Y-102558000I0J-135000D01*
G01*
G37*
G36*
G01*
X124476000Y-102558000D02*
X124476000Y-102928000D01*
G75*
G02*
X124341000Y-103063000I-135000J0D01*
G01*
X124071000Y-103063000D01*
G75*
G02*
X123936000Y-102928000I0J135000D01*
G01*
X123936000Y-102558000D01*
G75*
G02*
X124071000Y-102423000I135000J0D01*
G01*
X124341000Y-102423000D01*
G75*
G02*
X124476000Y-102558000I0J-135000D01*
G01*
G37*
G04 #@! TD*
G04 #@! TO.C,R35*
G36*
G01*
X117925000Y-118602000D02*
X118295000Y-118602000D01*
G75*
G02*
X118430000Y-118737000I0J-135000D01*
G01*
X118430000Y-119007000D01*
G75*
G02*
X118295000Y-119142000I-135000J0D01*
G01*
X117925000Y-119142000D01*
G75*
G02*
X117790000Y-119007000I0J135000D01*
G01*
X117790000Y-118737000D01*
G75*
G02*
X117925000Y-118602000I135000J0D01*
G01*
G37*
G36*
G01*
X117925000Y-117582000D02*
X118295000Y-117582000D01*
G75*
G02*
X118430000Y-117717000I0J-135000D01*
G01*
X118430000Y-117987000D01*
G75*
G02*
X118295000Y-118122000I-135000J0D01*
G01*
X117925000Y-118122000D01*
G75*
G02*
X117790000Y-117987000I0J135000D01*
G01*
X117790000Y-117717000D01*
G75*
G02*
X117925000Y-117582000I135000J0D01*
G01*
G37*
G04 #@! TD*
G04 #@! TO.C,R34*
G36*
G01*
X124391000Y-115836000D02*
X124021000Y-115836000D01*
G75*
G02*
X123886000Y-115701000I0J135000D01*
G01*
X123886000Y-115431000D01*
G75*
G02*
X124021000Y-115296000I135000J0D01*
G01*
X124391000Y-115296000D01*
G75*
G02*
X124526000Y-115431000I0J-135000D01*
G01*
X124526000Y-115701000D01*
G75*
G02*
X124391000Y-115836000I-135000J0D01*
G01*
G37*
G36*
G01*
X124391000Y-116856000D02*
X124021000Y-116856000D01*
G75*
G02*
X123886000Y-116721000I0J135000D01*
G01*
X123886000Y-116451000D01*
G75*
G02*
X124021000Y-116316000I135000J0D01*
G01*
X124391000Y-116316000D01*
G75*
G02*
X124526000Y-116451000I0J-135000D01*
G01*
X124526000Y-116721000D01*
G75*
G02*
X124391000Y-116856000I-135000J0D01*
G01*
G37*
G04 #@! TD*
G04 #@! TO.C,R33*
G36*
G01*
X113988000Y-95613000D02*
X114358000Y-95613000D01*
G75*
G02*
X114493000Y-95748000I0J-135000D01*
G01*
X114493000Y-96018000D01*
G75*
G02*
X114358000Y-96153000I-135000J0D01*
G01*
X113988000Y-96153000D01*
G75*
G02*
X113853000Y-96018000I0J135000D01*
G01*
X113853000Y-95748000D01*
G75*
G02*
X113988000Y-95613000I135000J0D01*
G01*
G37*
G36*
G01*
X113988000Y-96633000D02*
X114358000Y-96633000D01*
G75*
G02*
X114493000Y-96768000I0J-135000D01*
G01*
X114493000Y-97038000D01*
G75*
G02*
X114358000Y-97173000I-135000J0D01*
G01*
X113988000Y-97173000D01*
G75*
G02*
X113853000Y-97038000I0J135000D01*
G01*
X113853000Y-96768000D01*
G75*
G02*
X113988000Y-96633000I135000J0D01*
G01*
G37*
G04 #@! TD*
G04 #@! TO.C,R32*
G36*
G01*
X120027000Y-92779000D02*
X120027000Y-93149000D01*
G75*
G02*
X119892000Y-93284000I-135000J0D01*
G01*
X119622000Y-93284000D01*
G75*
G02*
X119487000Y-93149000I0J135000D01*
G01*
X119487000Y-92779000D01*
G75*
G02*
X119622000Y-92644000I135000J0D01*
G01*
X119892000Y-92644000D01*
G75*
G02*
X120027000Y-92779000I0J-135000D01*
G01*
G37*
G36*
G01*
X121047000Y-92779000D02*
X121047000Y-93149000D01*
G75*
G02*
X120912000Y-93284000I-135000J0D01*
G01*
X120642000Y-93284000D01*
G75*
G02*
X120507000Y-93149000I0J135000D01*
G01*
X120507000Y-92779000D01*
G75*
G02*
X120642000Y-92644000I135000J0D01*
G01*
X120912000Y-92644000D01*
G75*
G02*
X121047000Y-92779000I0J-135000D01*
G01*
G37*
G04 #@! TD*
D14*
G04 #@! TO.C,D19*
X127508000Y-161291000D03*
X127508000Y-164591000D03*
G04 #@! TD*
G04 #@! TO.C,D18*
X121158000Y-152907000D03*
X121158000Y-149607000D03*
G04 #@! TD*
D15*
G04 #@! TO.C,D17*
X121412000Y-138303000D03*
X124712000Y-138303000D03*
G04 #@! TD*
G04 #@! TO.C,D16*
X120905000Y-127381000D03*
X124205000Y-127381000D03*
G04 #@! TD*
G04 #@! TO.C,D15*
X121158000Y-104521000D03*
X124458000Y-104521000D03*
G04 #@! TD*
D14*
G04 #@! TO.C,D14*
X121158000Y-118618000D03*
X121158000Y-115318000D03*
G04 #@! TD*
D15*
G04 #@! TO.C,D13*
X118492000Y-94742000D03*
X121792000Y-94742000D03*
G04 #@! TD*
D16*
G04 #@! TO.C,U2*
G36*
X109853500Y-142126000D02*
G01*
X109853500Y-139001000D01*
X110270000Y-139001000D01*
X110270000Y-137526000D01*
X111170000Y-137526000D01*
X111170000Y-139001000D01*
X111586500Y-139001000D01*
X111586500Y-142126000D01*
X109853500Y-142126000D01*
G37*
D17*
X109220000Y-138176000D03*
X112220000Y-138176000D03*
G04 #@! TD*
G04 #@! TO.C,C7*
G36*
G01*
X113923000Y-137726000D02*
X114423000Y-137726000D01*
G75*
G02*
X114648000Y-137951000I0J-225000D01*
G01*
X114648000Y-138401000D01*
G75*
G02*
X114423000Y-138626000I-225000J0D01*
G01*
X113923000Y-138626000D01*
G75*
G02*
X113698000Y-138401000I0J225000D01*
G01*
X113698000Y-137951000D01*
G75*
G02*
X113923000Y-137726000I225000J0D01*
G01*
G37*
G36*
G01*
X113923000Y-136176000D02*
X114423000Y-136176000D01*
G75*
G02*
X114648000Y-136401000I0J-225000D01*
G01*
X114648000Y-136851000D01*
G75*
G02*
X114423000Y-137076000I-225000J0D01*
G01*
X113923000Y-137076000D01*
G75*
G02*
X113698000Y-136851000I0J225000D01*
G01*
X113698000Y-136401000D01*
G75*
G02*
X113923000Y-136176000I225000J0D01*
G01*
G37*
G04 #@! TD*
G04 #@! TO.C,R22*
G36*
G01*
X122950000Y-133292000D02*
X122950000Y-133662000D01*
G75*
G02*
X122815000Y-133797000I-135000J0D01*
G01*
X122545000Y-133797000D01*
G75*
G02*
X122410000Y-133662000I0J135000D01*
G01*
X122410000Y-133292000D01*
G75*
G02*
X122545000Y-133157000I135000J0D01*
G01*
X122815000Y-133157000D01*
G75*
G02*
X122950000Y-133292000I0J-135000D01*
G01*
G37*
G36*
G01*
X123970000Y-133292000D02*
X123970000Y-133662000D01*
G75*
G02*
X123835000Y-133797000I-135000J0D01*
G01*
X123565000Y-133797000D01*
G75*
G02*
X123430000Y-133662000I0J135000D01*
G01*
X123430000Y-133292000D01*
G75*
G02*
X123565000Y-133157000I135000J0D01*
G01*
X123835000Y-133157000D01*
G75*
G02*
X123970000Y-133292000I0J-135000D01*
G01*
G37*
G04 #@! TD*
D18*
G04 #@! TO.C,J2*
X117856000Y-83058000D03*
D19*
X120956000Y-83058000D03*
D20*
X109556000Y-83058000D03*
G04 #@! TD*
G04 #@! TO.C,R31*
G36*
G01*
X118764000Y-165587000D02*
X118764000Y-166137000D01*
G75*
G02*
X118564000Y-166337000I-200000J0D01*
G01*
X118164000Y-166337000D01*
G75*
G02*
X117964000Y-166137000I0J200000D01*
G01*
X117964000Y-165587000D01*
G75*
G02*
X118164000Y-165387000I200000J0D01*
G01*
X118564000Y-165387000D01*
G75*
G02*
X118764000Y-165587000I0J-200000D01*
G01*
G37*
G36*
G01*
X120414000Y-165587000D02*
X120414000Y-166137000D01*
G75*
G02*
X120214000Y-166337000I-200000J0D01*
G01*
X119814000Y-166337000D01*
G75*
G02*
X119614000Y-166137000I0J200000D01*
G01*
X119614000Y-165587000D01*
G75*
G02*
X119814000Y-165387000I200000J0D01*
G01*
X120214000Y-165387000D01*
G75*
G02*
X120414000Y-165587000I0J-200000D01*
G01*
G37*
G04 #@! TD*
G04 #@! TO.C,R30*
G36*
G01*
X118701000Y-154157000D02*
X118701000Y-154707000D01*
G75*
G02*
X118501000Y-154907000I-200000J0D01*
G01*
X118101000Y-154907000D01*
G75*
G02*
X117901000Y-154707000I0J200000D01*
G01*
X117901000Y-154157000D01*
G75*
G02*
X118101000Y-153957000I200000J0D01*
G01*
X118501000Y-153957000D01*
G75*
G02*
X118701000Y-154157000I0J-200000D01*
G01*
G37*
G36*
G01*
X120351000Y-154157000D02*
X120351000Y-154707000D01*
G75*
G02*
X120151000Y-154907000I-200000J0D01*
G01*
X119751000Y-154907000D01*
G75*
G02*
X119551000Y-154707000I0J200000D01*
G01*
X119551000Y-154157000D01*
G75*
G02*
X119751000Y-153957000I200000J0D01*
G01*
X120151000Y-153957000D01*
G75*
G02*
X120351000Y-154157000I0J-200000D01*
G01*
G37*
G04 #@! TD*
G04 #@! TO.C,R27*
G36*
G01*
X118701000Y-142727000D02*
X118701000Y-143277000D01*
G75*
G02*
X118501000Y-143477000I-200000J0D01*
G01*
X118101000Y-143477000D01*
G75*
G02*
X117901000Y-143277000I0J200000D01*
G01*
X117901000Y-142727000D01*
G75*
G02*
X118101000Y-142527000I200000J0D01*
G01*
X118501000Y-142527000D01*
G75*
G02*
X118701000Y-142727000I0J-200000D01*
G01*
G37*
G36*
G01*
X120351000Y-142727000D02*
X120351000Y-143277000D01*
G75*
G02*
X120151000Y-143477000I-200000J0D01*
G01*
X119751000Y-143477000D01*
G75*
G02*
X119551000Y-143277000I0J200000D01*
G01*
X119551000Y-142727000D01*
G75*
G02*
X119751000Y-142527000I200000J0D01*
G01*
X120151000Y-142527000D01*
G75*
G02*
X120351000Y-142727000I0J-200000D01*
G01*
G37*
G04 #@! TD*
G04 #@! TO.C,R24*
G36*
G01*
X118764000Y-129773000D02*
X118764000Y-130323000D01*
G75*
G02*
X118564000Y-130523000I-200000J0D01*
G01*
X118164000Y-130523000D01*
G75*
G02*
X117964000Y-130323000I0J200000D01*
G01*
X117964000Y-129773000D01*
G75*
G02*
X118164000Y-129573000I200000J0D01*
G01*
X118564000Y-129573000D01*
G75*
G02*
X118764000Y-129773000I0J-200000D01*
G01*
G37*
G36*
G01*
X120414000Y-129773000D02*
X120414000Y-130323000D01*
G75*
G02*
X120214000Y-130523000I-200000J0D01*
G01*
X119814000Y-130523000D01*
G75*
G02*
X119614000Y-130323000I0J200000D01*
G01*
X119614000Y-129773000D01*
G75*
G02*
X119814000Y-129573000I200000J0D01*
G01*
X120214000Y-129573000D01*
G75*
G02*
X120414000Y-129773000I0J-200000D01*
G01*
G37*
G04 #@! TD*
G04 #@! TO.C,R21*
G36*
G01*
X118701000Y-107040000D02*
X118701000Y-107590000D01*
G75*
G02*
X118501000Y-107790000I-200000J0D01*
G01*
X118101000Y-107790000D01*
G75*
G02*
X117901000Y-107590000I0J200000D01*
G01*
X117901000Y-107040000D01*
G75*
G02*
X118101000Y-106840000I200000J0D01*
G01*
X118501000Y-106840000D01*
G75*
G02*
X118701000Y-107040000I0J-200000D01*
G01*
G37*
G36*
G01*
X120351000Y-107040000D02*
X120351000Y-107590000D01*
G75*
G02*
X120151000Y-107790000I-200000J0D01*
G01*
X119751000Y-107790000D01*
G75*
G02*
X119551000Y-107590000I0J200000D01*
G01*
X119551000Y-107040000D01*
G75*
G02*
X119751000Y-106840000I200000J0D01*
G01*
X120151000Y-106840000D01*
G75*
G02*
X120351000Y-107040000I0J-200000D01*
G01*
G37*
G04 #@! TD*
G04 #@! TO.C,R18*
G36*
G01*
X118701000Y-119867000D02*
X118701000Y-120417000D01*
G75*
G02*
X118501000Y-120617000I-200000J0D01*
G01*
X118101000Y-120617000D01*
G75*
G02*
X117901000Y-120417000I0J200000D01*
G01*
X117901000Y-119867000D01*
G75*
G02*
X118101000Y-119667000I200000J0D01*
G01*
X118501000Y-119667000D01*
G75*
G02*
X118701000Y-119867000I0J-200000D01*
G01*
G37*
G36*
G01*
X120351000Y-119867000D02*
X120351000Y-120417000D01*
G75*
G02*
X120151000Y-120617000I-200000J0D01*
G01*
X119751000Y-120617000D01*
G75*
G02*
X119551000Y-120417000I0J200000D01*
G01*
X119551000Y-119867000D01*
G75*
G02*
X119751000Y-119667000I200000J0D01*
G01*
X120151000Y-119667000D01*
G75*
G02*
X120351000Y-119867000I0J-200000D01*
G01*
G37*
G04 #@! TD*
G04 #@! TO.C,R15*
G36*
G01*
X118942800Y-97108600D02*
X118942800Y-97658600D01*
G75*
G02*
X118742800Y-97858600I-200000J0D01*
G01*
X118342800Y-97858600D01*
G75*
G02*
X118142800Y-97658600I0J200000D01*
G01*
X118142800Y-97108600D01*
G75*
G02*
X118342800Y-96908600I200000J0D01*
G01*
X118742800Y-96908600D01*
G75*
G02*
X118942800Y-97108600I0J-200000D01*
G01*
G37*
G36*
G01*
X120592800Y-97108600D02*
X120592800Y-97658600D01*
G75*
G02*
X120392800Y-97858600I-200000J0D01*
G01*
X119992800Y-97858600D01*
G75*
G02*
X119792800Y-97658600I0J200000D01*
G01*
X119792800Y-97108600D01*
G75*
G02*
X119992800Y-96908600I200000J0D01*
G01*
X120392800Y-96908600D01*
G75*
G02*
X120592800Y-97108600I0J-200000D01*
G01*
G37*
G04 #@! TD*
G04 #@! TO.C,R8*
G36*
G01*
X121218104Y-89340267D02*
X121479733Y-89601896D01*
G75*
G02*
X121479733Y-89792814I-95459J-95459D01*
G01*
X121288814Y-89983733D01*
G75*
G02*
X121097896Y-89983733I-95459J95459D01*
G01*
X120836267Y-89722104D01*
G75*
G02*
X120836267Y-89531186I95459J95459D01*
G01*
X121027186Y-89340267D01*
G75*
G02*
X121218104Y-89340267I95459J-95459D01*
G01*
G37*
G36*
G01*
X121939352Y-88619019D02*
X122200981Y-88880648D01*
G75*
G02*
X122200981Y-89071566I-95459J-95459D01*
G01*
X122010062Y-89262485D01*
G75*
G02*
X121819144Y-89262485I-95459J95459D01*
G01*
X121557515Y-89000856D01*
G75*
G02*
X121557515Y-88809938I95459J95459D01*
G01*
X121748434Y-88619019D01*
G75*
G02*
X121939352Y-88619019I95459J-95459D01*
G01*
G37*
G04 #@! TD*
D12*
G04 #@! TO.C,J10*
X135636000Y-80264000D03*
D13*
X135636000Y-77724000D03*
G04 #@! TD*
D12*
G04 #@! TO.C,J3*
X109982000Y-97663000D03*
D13*
X109982000Y-95123000D03*
G04 #@! TD*
G04 #@! TO.C,C6*
G36*
G01*
X116727000Y-135218997D02*
X116727000Y-137069003D01*
G75*
G02*
X116477003Y-137319000I-249997J0D01*
G01*
X115651997Y-137319000D01*
G75*
G02*
X115402000Y-137069003I0J249997D01*
G01*
X115402000Y-135218997D01*
G75*
G02*
X115651997Y-134969000I249997J0D01*
G01*
X116477003Y-134969000D01*
G75*
G02*
X116727000Y-135218997I0J-249997D01*
G01*
G37*
G36*
G01*
X119802000Y-135218997D02*
X119802000Y-137069003D01*
G75*
G02*
X119552003Y-137319000I-249997J0D01*
G01*
X118726997Y-137319000D01*
G75*
G02*
X118477000Y-137069003I0J249997D01*
G01*
X118477000Y-135218997D01*
G75*
G02*
X118726997Y-134969000I249997J0D01*
G01*
X119552003Y-134969000D01*
G75*
G02*
X119802000Y-135218997I0J-249997D01*
G01*
G37*
G04 #@! TD*
G04 #@! TO.C,C5*
G36*
G01*
X112177000Y-130224500D02*
X110327000Y-130224500D01*
G75*
G02*
X110077000Y-129974500I0J250000D01*
G01*
X110077000Y-128399500D01*
G75*
G02*
X110327000Y-128149500I250000J0D01*
G01*
X112177000Y-128149500D01*
G75*
G02*
X112427000Y-128399500I0J-250000D01*
G01*
X112427000Y-129974500D01*
G75*
G02*
X112177000Y-130224500I-250000J0D01*
G01*
G37*
G36*
G01*
X112177000Y-135149500D02*
X110327000Y-135149500D01*
G75*
G02*
X110077000Y-134899500I0J250000D01*
G01*
X110077000Y-133324500D01*
G75*
G02*
X110327000Y-133074500I250000J0D01*
G01*
X112177000Y-133074500D01*
G75*
G02*
X112427000Y-133324500I0J-250000D01*
G01*
X112427000Y-134899500D01*
G75*
G02*
X112177000Y-135149500I-250000J0D01*
G01*
G37*
G04 #@! TD*
G04 #@! TO.C,R12*
G36*
G01*
X124954000Y-161475000D02*
X124954000Y-161105000D01*
G75*
G02*
X125089000Y-160970000I135000J0D01*
G01*
X125359000Y-160970000D01*
G75*
G02*
X125494000Y-161105000I0J-135000D01*
G01*
X125494000Y-161475000D01*
G75*
G02*
X125359000Y-161610000I-135000J0D01*
G01*
X125089000Y-161610000D01*
G75*
G02*
X124954000Y-161475000I0J135000D01*
G01*
G37*
G36*
G01*
X123934000Y-161475000D02*
X123934000Y-161105000D01*
G75*
G02*
X124069000Y-160970000I135000J0D01*
G01*
X124339000Y-160970000D01*
G75*
G02*
X124474000Y-161105000I0J-135000D01*
G01*
X124474000Y-161475000D01*
G75*
G02*
X124339000Y-161610000I-135000J0D01*
G01*
X124069000Y-161610000D01*
G75*
G02*
X123934000Y-161475000I0J135000D01*
G01*
G37*
G04 #@! TD*
G04 #@! TO.C,R10*
G36*
G01*
X122243000Y-161147000D02*
X122613000Y-161147000D01*
G75*
G02*
X122748000Y-161282000I0J-135000D01*
G01*
X122748000Y-161552000D01*
G75*
G02*
X122613000Y-161687000I-135000J0D01*
G01*
X122243000Y-161687000D01*
G75*
G02*
X122108000Y-161552000I0J135000D01*
G01*
X122108000Y-161282000D01*
G75*
G02*
X122243000Y-161147000I135000J0D01*
G01*
G37*
G36*
G01*
X122243000Y-160127000D02*
X122613000Y-160127000D01*
G75*
G02*
X122748000Y-160262000I0J-135000D01*
G01*
X122748000Y-160532000D01*
G75*
G02*
X122613000Y-160667000I-135000J0D01*
G01*
X122243000Y-160667000D01*
G75*
G02*
X122108000Y-160532000I0J135000D01*
G01*
X122108000Y-160262000D01*
G75*
G02*
X122243000Y-160127000I135000J0D01*
G01*
G37*
G04 #@! TD*
D21*
G04 #@! TO.C,Q5*
X120208000Y-162322000D03*
X121158000Y-164322000D03*
X119258000Y-164322000D03*
G04 #@! TD*
D18*
G04 #@! TO.C,J12*
X132536000Y-164592000D03*
D19*
X135636000Y-164592000D03*
D20*
X124236000Y-164592000D03*
G04 #@! TD*
D22*
G04 #@! TO.C,D6*
X116332000Y-165862000D03*
D23*
X116332000Y-163322000D03*
G04 #@! TD*
G04 #@! TO.C,U1*
G36*
G01*
X124102000Y-87908000D02*
X123802000Y-87908000D01*
G75*
G02*
X123652000Y-87758000I0J150000D01*
G01*
X123652000Y-86108000D01*
G75*
G02*
X123802000Y-85958000I150000J0D01*
G01*
X124102000Y-85958000D01*
G75*
G02*
X124252000Y-86108000I0J-150000D01*
G01*
X124252000Y-87758000D01*
G75*
G02*
X124102000Y-87908000I-150000J0D01*
G01*
G37*
G36*
G01*
X125372000Y-87908000D02*
X125072000Y-87908000D01*
G75*
G02*
X124922000Y-87758000I0J150000D01*
G01*
X124922000Y-86108000D01*
G75*
G02*
X125072000Y-85958000I150000J0D01*
G01*
X125372000Y-85958000D01*
G75*
G02*
X125522000Y-86108000I0J-150000D01*
G01*
X125522000Y-87758000D01*
G75*
G02*
X125372000Y-87908000I-150000J0D01*
G01*
G37*
G36*
G01*
X126642000Y-87908000D02*
X126342000Y-87908000D01*
G75*
G02*
X126192000Y-87758000I0J150000D01*
G01*
X126192000Y-86108000D01*
G75*
G02*
X126342000Y-85958000I150000J0D01*
G01*
X126642000Y-85958000D01*
G75*
G02*
X126792000Y-86108000I0J-150000D01*
G01*
X126792000Y-87758000D01*
G75*
G02*
X126642000Y-87908000I-150000J0D01*
G01*
G37*
G36*
G01*
X127912000Y-87908000D02*
X127612000Y-87908000D01*
G75*
G02*
X127462000Y-87758000I0J150000D01*
G01*
X127462000Y-86108000D01*
G75*
G02*
X127612000Y-85958000I150000J0D01*
G01*
X127912000Y-85958000D01*
G75*
G02*
X128062000Y-86108000I0J-150000D01*
G01*
X128062000Y-87758000D01*
G75*
G02*
X127912000Y-87908000I-150000J0D01*
G01*
G37*
G36*
G01*
X129182000Y-87908000D02*
X128882000Y-87908000D01*
G75*
G02*
X128732000Y-87758000I0J150000D01*
G01*
X128732000Y-86108000D01*
G75*
G02*
X128882000Y-85958000I150000J0D01*
G01*
X129182000Y-85958000D01*
G75*
G02*
X129332000Y-86108000I0J-150000D01*
G01*
X129332000Y-87758000D01*
G75*
G02*
X129182000Y-87908000I-150000J0D01*
G01*
G37*
G36*
G01*
X130452000Y-87908000D02*
X130152000Y-87908000D01*
G75*
G02*
X130002000Y-87758000I0J150000D01*
G01*
X130002000Y-86108000D01*
G75*
G02*
X130152000Y-85958000I150000J0D01*
G01*
X130452000Y-85958000D01*
G75*
G02*
X130602000Y-86108000I0J-150000D01*
G01*
X130602000Y-87758000D01*
G75*
G02*
X130452000Y-87908000I-150000J0D01*
G01*
G37*
G36*
G01*
X131722000Y-87908000D02*
X131422000Y-87908000D01*
G75*
G02*
X131272000Y-87758000I0J150000D01*
G01*
X131272000Y-86108000D01*
G75*
G02*
X131422000Y-85958000I150000J0D01*
G01*
X131722000Y-85958000D01*
G75*
G02*
X131872000Y-86108000I0J-150000D01*
G01*
X131872000Y-87758000D01*
G75*
G02*
X131722000Y-87908000I-150000J0D01*
G01*
G37*
G36*
G01*
X131722000Y-92858000D02*
X131422000Y-92858000D01*
G75*
G02*
X131272000Y-92708000I0J150000D01*
G01*
X131272000Y-91058000D01*
G75*
G02*
X131422000Y-90908000I150000J0D01*
G01*
X131722000Y-90908000D01*
G75*
G02*
X131872000Y-91058000I0J-150000D01*
G01*
X131872000Y-92708000D01*
G75*
G02*
X131722000Y-92858000I-150000J0D01*
G01*
G37*
G36*
G01*
X130452000Y-92858000D02*
X130152000Y-92858000D01*
G75*
G02*
X130002000Y-92708000I0J150000D01*
G01*
X130002000Y-91058000D01*
G75*
G02*
X130152000Y-90908000I150000J0D01*
G01*
X130452000Y-90908000D01*
G75*
G02*
X130602000Y-91058000I0J-150000D01*
G01*
X130602000Y-92708000D01*
G75*
G02*
X130452000Y-92858000I-150000J0D01*
G01*
G37*
G36*
G01*
X129182000Y-92858000D02*
X128882000Y-92858000D01*
G75*
G02*
X128732000Y-92708000I0J150000D01*
G01*
X128732000Y-91058000D01*
G75*
G02*
X128882000Y-90908000I150000J0D01*
G01*
X129182000Y-90908000D01*
G75*
G02*
X129332000Y-91058000I0J-150000D01*
G01*
X129332000Y-92708000D01*
G75*
G02*
X129182000Y-92858000I-150000J0D01*
G01*
G37*
G36*
G01*
X127912000Y-92858000D02*
X127612000Y-92858000D01*
G75*
G02*
X127462000Y-92708000I0J150000D01*
G01*
X127462000Y-91058000D01*
G75*
G02*
X127612000Y-90908000I150000J0D01*
G01*
X127912000Y-90908000D01*
G75*
G02*
X128062000Y-91058000I0J-150000D01*
G01*
X128062000Y-92708000D01*
G75*
G02*
X127912000Y-92858000I-150000J0D01*
G01*
G37*
G36*
G01*
X126642000Y-92858000D02*
X126342000Y-92858000D01*
G75*
G02*
X126192000Y-92708000I0J150000D01*
G01*
X126192000Y-91058000D01*
G75*
G02*
X126342000Y-90908000I150000J0D01*
G01*
X126642000Y-90908000D01*
G75*
G02*
X126792000Y-91058000I0J-150000D01*
G01*
X126792000Y-92708000D01*
G75*
G02*
X126642000Y-92858000I-150000J0D01*
G01*
G37*
G36*
G01*
X125372000Y-92858000D02*
X125072000Y-92858000D01*
G75*
G02*
X124922000Y-92708000I0J150000D01*
G01*
X124922000Y-91058000D01*
G75*
G02*
X125072000Y-90908000I150000J0D01*
G01*
X125372000Y-90908000D01*
G75*
G02*
X125522000Y-91058000I0J-150000D01*
G01*
X125522000Y-92708000D01*
G75*
G02*
X125372000Y-92858000I-150000J0D01*
G01*
G37*
G36*
G01*
X124102000Y-92858000D02*
X123802000Y-92858000D01*
G75*
G02*
X123652000Y-92708000I0J150000D01*
G01*
X123652000Y-91058000D01*
G75*
G02*
X123802000Y-90908000I150000J0D01*
G01*
X124102000Y-90908000D01*
G75*
G02*
X124252000Y-91058000I0J-150000D01*
G01*
X124252000Y-92708000D01*
G75*
G02*
X124102000Y-92858000I-150000J0D01*
G01*
G37*
G04 #@! TD*
G04 #@! TO.C,R11*
G36*
G01*
X112762000Y-91625000D02*
X112762000Y-91255000D01*
G75*
G02*
X112897000Y-91120000I135000J0D01*
G01*
X113167000Y-91120000D01*
G75*
G02*
X113302000Y-91255000I0J-135000D01*
G01*
X113302000Y-91625000D01*
G75*
G02*
X113167000Y-91760000I-135000J0D01*
G01*
X112897000Y-91760000D01*
G75*
G02*
X112762000Y-91625000I0J135000D01*
G01*
G37*
G36*
G01*
X111742000Y-91625000D02*
X111742000Y-91255000D01*
G75*
G02*
X111877000Y-91120000I135000J0D01*
G01*
X112147000Y-91120000D01*
G75*
G02*
X112282000Y-91255000I0J-135000D01*
G01*
X112282000Y-91625000D01*
G75*
G02*
X112147000Y-91760000I-135000J0D01*
G01*
X111877000Y-91760000D01*
G75*
G02*
X111742000Y-91625000I0J135000D01*
G01*
G37*
G04 #@! TD*
D12*
G04 #@! TO.C,J11*
X112776000Y-116586000D03*
X110236000Y-116586000D03*
X112776000Y-114046000D03*
X110236000Y-114046000D03*
X112776000Y-111506000D03*
X110236000Y-111506000D03*
X112776000Y-108966000D03*
X110236000Y-108966000D03*
X112776000Y-106426000D03*
D13*
X110236000Y-106426000D03*
G04 #@! TD*
D15*
G04 #@! TO.C,D5*
X110238000Y-103378000D03*
X113538000Y-103378000D03*
G04 #@! TD*
G04 #@! TO.C,C4*
G36*
G01*
X116782000Y-103853000D02*
X116782000Y-102903000D01*
G75*
G02*
X117032000Y-102653000I250000J0D01*
G01*
X117532000Y-102653000D01*
G75*
G02*
X117782000Y-102903000I0J-250000D01*
G01*
X117782000Y-103853000D01*
G75*
G02*
X117532000Y-104103000I-250000J0D01*
G01*
X117032000Y-104103000D01*
G75*
G02*
X116782000Y-103853000I0J250000D01*
G01*
G37*
G36*
G01*
X114882000Y-103853000D02*
X114882000Y-102903000D01*
G75*
G02*
X115132000Y-102653000I250000J0D01*
G01*
X115632000Y-102653000D01*
G75*
G02*
X115882000Y-102903000I0J-250000D01*
G01*
X115882000Y-103853000D01*
G75*
G02*
X115632000Y-104103000I-250000J0D01*
G01*
X115132000Y-104103000D01*
G75*
G02*
X114882000Y-103853000I0J250000D01*
G01*
G37*
G04 #@! TD*
D14*
G04 #@! TO.C,D4*
X114300000Y-78360000D03*
X114300000Y-81660000D03*
G04 #@! TD*
G04 #@! TO.C,D3*
X109601000Y-91693000D03*
X109601000Y-88393000D03*
G04 #@! TD*
D15*
G04 #@! TO.C,D2*
X108968000Y-80010000D03*
X112268000Y-80010000D03*
G04 #@! TD*
G04 #@! TO.C,D1*
X124206000Y-79756000D03*
X120906000Y-79756000D03*
G04 #@! TD*
G04 #@! TO.C,C2*
G36*
G01*
X121924000Y-86431000D02*
X122424000Y-86431000D01*
G75*
G02*
X122649000Y-86656000I0J-225000D01*
G01*
X122649000Y-87106000D01*
G75*
G02*
X122424000Y-87331000I-225000J0D01*
G01*
X121924000Y-87331000D01*
G75*
G02*
X121699000Y-87106000I0J225000D01*
G01*
X121699000Y-86656000D01*
G75*
G02*
X121924000Y-86431000I225000J0D01*
G01*
G37*
G36*
G01*
X121924000Y-84881000D02*
X122424000Y-84881000D01*
G75*
G02*
X122649000Y-85106000I0J-225000D01*
G01*
X122649000Y-85556000D01*
G75*
G02*
X122424000Y-85781000I-225000J0D01*
G01*
X121924000Y-85781000D01*
G75*
G02*
X121699000Y-85556000I0J225000D01*
G01*
X121699000Y-85106000D01*
G75*
G02*
X121924000Y-84881000I225000J0D01*
G01*
G37*
G04 #@! TD*
D22*
G04 #@! TO.C,D12*
X116332000Y-154432000D03*
D23*
X116332000Y-151892000D03*
G04 #@! TD*
D22*
G04 #@! TO.C,D11*
X116332000Y-143002000D03*
D23*
X116332000Y-140462000D03*
G04 #@! TD*
D22*
G04 #@! TO.C,D10*
X116332000Y-131572000D03*
D23*
X116332000Y-129032000D03*
G04 #@! TD*
D22*
G04 #@! TO.C,D9*
X116332000Y-108712000D03*
D23*
X116332000Y-106172000D03*
G04 #@! TD*
D22*
G04 #@! TO.C,D8*
X116332000Y-120142000D03*
D23*
X116332000Y-117602000D03*
G04 #@! TD*
D22*
G04 #@! TO.C,D7*
X116332000Y-97409000D03*
D23*
X116332000Y-94869000D03*
G04 #@! TD*
G04 #@! TO.C,R29*
G36*
G01*
X121908000Y-154617000D02*
X121908000Y-154247000D01*
G75*
G02*
X122043000Y-154112000I135000J0D01*
G01*
X122313000Y-154112000D01*
G75*
G02*
X122448000Y-154247000I0J-135000D01*
G01*
X122448000Y-154617000D01*
G75*
G02*
X122313000Y-154752000I-135000J0D01*
G01*
X122043000Y-154752000D01*
G75*
G02*
X121908000Y-154617000I0J135000D01*
G01*
G37*
G36*
G01*
X120888000Y-154617000D02*
X120888000Y-154247000D01*
G75*
G02*
X121023000Y-154112000I135000J0D01*
G01*
X121293000Y-154112000D01*
G75*
G02*
X121428000Y-154247000I0J-135000D01*
G01*
X121428000Y-154617000D01*
G75*
G02*
X121293000Y-154752000I-135000J0D01*
G01*
X121023000Y-154752000D01*
G75*
G02*
X120888000Y-154617000I0J135000D01*
G01*
G37*
G04 #@! TD*
G04 #@! TO.C,R28*
G36*
G01*
X122950000Y-157549000D02*
X122950000Y-157919000D01*
G75*
G02*
X122815000Y-158054000I-135000J0D01*
G01*
X122545000Y-158054000D01*
G75*
G02*
X122410000Y-157919000I0J135000D01*
G01*
X122410000Y-157549000D01*
G75*
G02*
X122545000Y-157414000I135000J0D01*
G01*
X122815000Y-157414000D01*
G75*
G02*
X122950000Y-157549000I0J-135000D01*
G01*
G37*
G36*
G01*
X123970000Y-157549000D02*
X123970000Y-157919000D01*
G75*
G02*
X123835000Y-158054000I-135000J0D01*
G01*
X123565000Y-158054000D01*
G75*
G02*
X123430000Y-157919000I0J135000D01*
G01*
X123430000Y-157549000D01*
G75*
G02*
X123565000Y-157414000I135000J0D01*
G01*
X123835000Y-157414000D01*
G75*
G02*
X123970000Y-157549000I0J-135000D01*
G01*
G37*
G04 #@! TD*
G04 #@! TO.C,R26*
G36*
G01*
X121597000Y-142000000D02*
X121227000Y-142000000D01*
G75*
G02*
X121092000Y-141865000I0J135000D01*
G01*
X121092000Y-141595000D01*
G75*
G02*
X121227000Y-141460000I135000J0D01*
G01*
X121597000Y-141460000D01*
G75*
G02*
X121732000Y-141595000I0J-135000D01*
G01*
X121732000Y-141865000D01*
G75*
G02*
X121597000Y-142000000I-135000J0D01*
G01*
G37*
G36*
G01*
X121597000Y-143020000D02*
X121227000Y-143020000D01*
G75*
G02*
X121092000Y-142885000I0J135000D01*
G01*
X121092000Y-142615000D01*
G75*
G02*
X121227000Y-142480000I135000J0D01*
G01*
X121597000Y-142480000D01*
G75*
G02*
X121732000Y-142615000I0J-135000D01*
G01*
X121732000Y-142885000D01*
G75*
G02*
X121597000Y-143020000I-135000J0D01*
G01*
G37*
G04 #@! TD*
G04 #@! TO.C,R25*
G36*
G01*
X123079000Y-144595000D02*
X123079000Y-144965000D01*
G75*
G02*
X122944000Y-145100000I-135000J0D01*
G01*
X122674000Y-145100000D01*
G75*
G02*
X122539000Y-144965000I0J135000D01*
G01*
X122539000Y-144595000D01*
G75*
G02*
X122674000Y-144460000I135000J0D01*
G01*
X122944000Y-144460000D01*
G75*
G02*
X123079000Y-144595000I0J-135000D01*
G01*
G37*
G36*
G01*
X124099000Y-144595000D02*
X124099000Y-144965000D01*
G75*
G02*
X123964000Y-145100000I-135000J0D01*
G01*
X123694000Y-145100000D01*
G75*
G02*
X123559000Y-144965000I0J135000D01*
G01*
X123559000Y-144595000D01*
G75*
G02*
X123694000Y-144460000I135000J0D01*
G01*
X123964000Y-144460000D01*
G75*
G02*
X124099000Y-144595000I0J-135000D01*
G01*
G37*
G04 #@! TD*
G04 #@! TO.C,R23*
G36*
G01*
X121343000Y-129300000D02*
X120973000Y-129300000D01*
G75*
G02*
X120838000Y-129165000I0J135000D01*
G01*
X120838000Y-128895000D01*
G75*
G02*
X120973000Y-128760000I135000J0D01*
G01*
X121343000Y-128760000D01*
G75*
G02*
X121478000Y-128895000I0J-135000D01*
G01*
X121478000Y-129165000D01*
G75*
G02*
X121343000Y-129300000I-135000J0D01*
G01*
G37*
G36*
G01*
X121343000Y-130320000D02*
X120973000Y-130320000D01*
G75*
G02*
X120838000Y-130185000I0J135000D01*
G01*
X120838000Y-129915000D01*
G75*
G02*
X120973000Y-129780000I135000J0D01*
G01*
X121343000Y-129780000D01*
G75*
G02*
X121478000Y-129915000I0J-135000D01*
G01*
X121478000Y-130185000D01*
G75*
G02*
X121343000Y-130320000I-135000J0D01*
G01*
G37*
G04 #@! TD*
G04 #@! TO.C,R20*
G36*
G01*
X121343000Y-106565000D02*
X120973000Y-106565000D01*
G75*
G02*
X120838000Y-106430000I0J135000D01*
G01*
X120838000Y-106160000D01*
G75*
G02*
X120973000Y-106025000I135000J0D01*
G01*
X121343000Y-106025000D01*
G75*
G02*
X121478000Y-106160000I0J-135000D01*
G01*
X121478000Y-106430000D01*
G75*
G02*
X121343000Y-106565000I-135000J0D01*
G01*
G37*
G36*
G01*
X121343000Y-107585000D02*
X120973000Y-107585000D01*
G75*
G02*
X120838000Y-107450000I0J135000D01*
G01*
X120838000Y-107180000D01*
G75*
G02*
X120973000Y-107045000I135000J0D01*
G01*
X121343000Y-107045000D01*
G75*
G02*
X121478000Y-107180000I0J-135000D01*
G01*
X121478000Y-107450000D01*
G75*
G02*
X121343000Y-107585000I-135000J0D01*
G01*
G37*
G04 #@! TD*
G04 #@! TO.C,R19*
G36*
G01*
X124097000Y-109797000D02*
X124097000Y-110167000D01*
G75*
G02*
X123962000Y-110302000I-135000J0D01*
G01*
X123692000Y-110302000D01*
G75*
G02*
X123557000Y-110167000I0J135000D01*
G01*
X123557000Y-109797000D01*
G75*
G02*
X123692000Y-109662000I135000J0D01*
G01*
X123962000Y-109662000D01*
G75*
G02*
X124097000Y-109797000I0J-135000D01*
G01*
G37*
G36*
G01*
X123077000Y-109797000D02*
X123077000Y-110167000D01*
G75*
G02*
X122942000Y-110302000I-135000J0D01*
G01*
X122672000Y-110302000D01*
G75*
G02*
X122537000Y-110167000I0J135000D01*
G01*
X122537000Y-109797000D01*
G75*
G02*
X122672000Y-109662000I135000J0D01*
G01*
X122942000Y-109662000D01*
G75*
G02*
X123077000Y-109797000I0J-135000D01*
G01*
G37*
G04 #@! TD*
G04 #@! TO.C,R17*
G36*
G01*
X121908000Y-120327000D02*
X121908000Y-119957000D01*
G75*
G02*
X122043000Y-119822000I135000J0D01*
G01*
X122313000Y-119822000D01*
G75*
G02*
X122448000Y-119957000I0J-135000D01*
G01*
X122448000Y-120327000D01*
G75*
G02*
X122313000Y-120462000I-135000J0D01*
G01*
X122043000Y-120462000D01*
G75*
G02*
X121908000Y-120327000I0J135000D01*
G01*
G37*
G36*
G01*
X120888000Y-120327000D02*
X120888000Y-119957000D01*
G75*
G02*
X121023000Y-119822000I135000J0D01*
G01*
X121293000Y-119822000D01*
G75*
G02*
X121428000Y-119957000I0J-135000D01*
G01*
X121428000Y-120327000D01*
G75*
G02*
X121293000Y-120462000I-135000J0D01*
G01*
X121023000Y-120462000D01*
G75*
G02*
X120888000Y-120327000I0J135000D01*
G01*
G37*
G04 #@! TD*
G04 #@! TO.C,R16*
G36*
G01*
X123204000Y-121735000D02*
X123204000Y-122105000D01*
G75*
G02*
X123069000Y-122240000I-135000J0D01*
G01*
X122799000Y-122240000D01*
G75*
G02*
X122664000Y-122105000I0J135000D01*
G01*
X122664000Y-121735000D01*
G75*
G02*
X122799000Y-121600000I135000J0D01*
G01*
X123069000Y-121600000D01*
G75*
G02*
X123204000Y-121735000I0J-135000D01*
G01*
G37*
G36*
G01*
X124224000Y-121735000D02*
X124224000Y-122105000D01*
G75*
G02*
X124089000Y-122240000I-135000J0D01*
G01*
X123819000Y-122240000D01*
G75*
G02*
X123684000Y-122105000I0J135000D01*
G01*
X123684000Y-121735000D01*
G75*
G02*
X123819000Y-121600000I135000J0D01*
G01*
X124089000Y-121600000D01*
G75*
G02*
X124224000Y-121735000I0J-135000D01*
G01*
G37*
G04 #@! TD*
G04 #@! TO.C,R14*
G36*
G01*
X121724000Y-96786000D02*
X121354000Y-96786000D01*
G75*
G02*
X121219000Y-96651000I0J135000D01*
G01*
X121219000Y-96381000D01*
G75*
G02*
X121354000Y-96246000I135000J0D01*
G01*
X121724000Y-96246000D01*
G75*
G02*
X121859000Y-96381000I0J-135000D01*
G01*
X121859000Y-96651000D01*
G75*
G02*
X121724000Y-96786000I-135000J0D01*
G01*
G37*
G36*
G01*
X121724000Y-97806000D02*
X121354000Y-97806000D01*
G75*
G02*
X121219000Y-97671000I0J135000D01*
G01*
X121219000Y-97401000D01*
G75*
G02*
X121354000Y-97266000I135000J0D01*
G01*
X121724000Y-97266000D01*
G75*
G02*
X121859000Y-97401000I0J-135000D01*
G01*
X121859000Y-97671000D01*
G75*
G02*
X121724000Y-97806000I-135000J0D01*
G01*
G37*
G04 #@! TD*
G04 #@! TO.C,R13*
G36*
G01*
X124656000Y-99171000D02*
X125026000Y-99171000D01*
G75*
G02*
X125161000Y-99306000I0J-135000D01*
G01*
X125161000Y-99576000D01*
G75*
G02*
X125026000Y-99711000I-135000J0D01*
G01*
X124656000Y-99711000D01*
G75*
G02*
X124521000Y-99576000I0J135000D01*
G01*
X124521000Y-99306000D01*
G75*
G02*
X124656000Y-99171000I135000J0D01*
G01*
G37*
G36*
G01*
X124656000Y-98151000D02*
X125026000Y-98151000D01*
G75*
G02*
X125161000Y-98286000I0J-135000D01*
G01*
X125161000Y-98556000D01*
G75*
G02*
X125026000Y-98691000I-135000J0D01*
G01*
X124656000Y-98691000D01*
G75*
G02*
X124521000Y-98556000I0J135000D01*
G01*
X124521000Y-98286000D01*
G75*
G02*
X124656000Y-98151000I135000J0D01*
G01*
G37*
G04 #@! TD*
G04 #@! TO.C,R9*
G36*
G01*
X117025000Y-88406000D02*
X116655000Y-88406000D01*
G75*
G02*
X116520000Y-88271000I0J135000D01*
G01*
X116520000Y-88001000D01*
G75*
G02*
X116655000Y-87866000I135000J0D01*
G01*
X117025000Y-87866000D01*
G75*
G02*
X117160000Y-88001000I0J-135000D01*
G01*
X117160000Y-88271000D01*
G75*
G02*
X117025000Y-88406000I-135000J0D01*
G01*
G37*
G36*
G01*
X117025000Y-89426000D02*
X116655000Y-89426000D01*
G75*
G02*
X116520000Y-89291000I0J135000D01*
G01*
X116520000Y-89021000D01*
G75*
G02*
X116655000Y-88886000I135000J0D01*
G01*
X117025000Y-88886000D01*
G75*
G02*
X117160000Y-89021000I0J-135000D01*
G01*
X117160000Y-89291000D01*
G75*
G02*
X117025000Y-89426000I-135000J0D01*
G01*
G37*
G04 #@! TD*
G04 #@! TO.C,R7*
G36*
G01*
X113552000Y-82873000D02*
X113552000Y-83243000D01*
G75*
G02*
X113417000Y-83378000I-135000J0D01*
G01*
X113147000Y-83378000D01*
G75*
G02*
X113012000Y-83243000I0J135000D01*
G01*
X113012000Y-82873000D01*
G75*
G02*
X113147000Y-82738000I135000J0D01*
G01*
X113417000Y-82738000D01*
G75*
G02*
X113552000Y-82873000I0J-135000D01*
G01*
G37*
G36*
G01*
X114572000Y-82873000D02*
X114572000Y-83243000D01*
G75*
G02*
X114437000Y-83378000I-135000J0D01*
G01*
X114167000Y-83378000D01*
G75*
G02*
X114032000Y-83243000I0J135000D01*
G01*
X114032000Y-82873000D01*
G75*
G02*
X114167000Y-82738000I135000J0D01*
G01*
X114437000Y-82738000D01*
G75*
G02*
X114572000Y-82873000I0J-135000D01*
G01*
G37*
G04 #@! TD*
G04 #@! TO.C,R6*
G36*
G01*
X109786000Y-85993000D02*
X109416000Y-85993000D01*
G75*
G02*
X109281000Y-85858000I0J135000D01*
G01*
X109281000Y-85588000D01*
G75*
G02*
X109416000Y-85453000I135000J0D01*
G01*
X109786000Y-85453000D01*
G75*
G02*
X109921000Y-85588000I0J-135000D01*
G01*
X109921000Y-85858000D01*
G75*
G02*
X109786000Y-85993000I-135000J0D01*
G01*
G37*
G36*
G01*
X109786000Y-87013000D02*
X109416000Y-87013000D01*
G75*
G02*
X109281000Y-86878000I0J135000D01*
G01*
X109281000Y-86608000D01*
G75*
G02*
X109416000Y-86473000I135000J0D01*
G01*
X109786000Y-86473000D01*
G75*
G02*
X109921000Y-86608000I0J-135000D01*
G01*
X109921000Y-86878000D01*
G75*
G02*
X109786000Y-87013000I-135000J0D01*
G01*
G37*
G04 #@! TD*
G04 #@! TO.C,R5*
G36*
G01*
X112083000Y-82536000D02*
X112453000Y-82536000D01*
G75*
G02*
X112588000Y-82671000I0J-135000D01*
G01*
X112588000Y-82941000D01*
G75*
G02*
X112453000Y-83076000I-135000J0D01*
G01*
X112083000Y-83076000D01*
G75*
G02*
X111948000Y-82941000I0J135000D01*
G01*
X111948000Y-82671000D01*
G75*
G02*
X112083000Y-82536000I135000J0D01*
G01*
G37*
G36*
G01*
X112083000Y-81516000D02*
X112453000Y-81516000D01*
G75*
G02*
X112588000Y-81651000I0J-135000D01*
G01*
X112588000Y-81921000D01*
G75*
G02*
X112453000Y-82056000I-135000J0D01*
G01*
X112083000Y-82056000D01*
G75*
G02*
X111948000Y-81921000I0J135000D01*
G01*
X111948000Y-81651000D01*
G75*
G02*
X112083000Y-81516000I135000J0D01*
G01*
G37*
G04 #@! TD*
G04 #@! TO.C,R4*
G36*
G01*
X119449000Y-80504000D02*
X119819000Y-80504000D01*
G75*
G02*
X119954000Y-80639000I0J-135000D01*
G01*
X119954000Y-80909000D01*
G75*
G02*
X119819000Y-81044000I-135000J0D01*
G01*
X119449000Y-81044000D01*
G75*
G02*
X119314000Y-80909000I0J135000D01*
G01*
X119314000Y-80639000D01*
G75*
G02*
X119449000Y-80504000I135000J0D01*
G01*
G37*
G36*
G01*
X119449000Y-79484000D02*
X119819000Y-79484000D01*
G75*
G02*
X119954000Y-79619000I0J-135000D01*
G01*
X119954000Y-79889000D01*
G75*
G02*
X119819000Y-80024000I-135000J0D01*
G01*
X119449000Y-80024000D01*
G75*
G02*
X119314000Y-79889000I0J135000D01*
G01*
X119314000Y-79619000D01*
G75*
G02*
X119449000Y-79484000I135000J0D01*
G01*
G37*
G04 #@! TD*
G04 #@! TO.C,R3*
G36*
G01*
X127312000Y-83580000D02*
X126942000Y-83580000D01*
G75*
G02*
X126807000Y-83445000I0J135000D01*
G01*
X126807000Y-83175000D01*
G75*
G02*
X126942000Y-83040000I135000J0D01*
G01*
X127312000Y-83040000D01*
G75*
G02*
X127447000Y-83175000I0J-135000D01*
G01*
X127447000Y-83445000D01*
G75*
G02*
X127312000Y-83580000I-135000J0D01*
G01*
G37*
G36*
G01*
X127312000Y-84600000D02*
X126942000Y-84600000D01*
G75*
G02*
X126807000Y-84465000I0J135000D01*
G01*
X126807000Y-84195000D01*
G75*
G02*
X126942000Y-84060000I135000J0D01*
G01*
X127312000Y-84060000D01*
G75*
G02*
X127447000Y-84195000I0J-135000D01*
G01*
X127447000Y-84465000D01*
G75*
G02*
X127312000Y-84600000I-135000J0D01*
G01*
G37*
G04 #@! TD*
G04 #@! TO.C,R2*
G36*
G01*
X126942000Y-82028000D02*
X127312000Y-82028000D01*
G75*
G02*
X127447000Y-82163000I0J-135000D01*
G01*
X127447000Y-82433000D01*
G75*
G02*
X127312000Y-82568000I-135000J0D01*
G01*
X126942000Y-82568000D01*
G75*
G02*
X126807000Y-82433000I0J135000D01*
G01*
X126807000Y-82163000D01*
G75*
G02*
X126942000Y-82028000I135000J0D01*
G01*
G37*
G36*
G01*
X126942000Y-81008000D02*
X127312000Y-81008000D01*
G75*
G02*
X127447000Y-81143000I0J-135000D01*
G01*
X127447000Y-81413000D01*
G75*
G02*
X127312000Y-81548000I-135000J0D01*
G01*
X126942000Y-81548000D01*
G75*
G02*
X126807000Y-81413000I0J135000D01*
G01*
X126807000Y-81143000D01*
G75*
G02*
X126942000Y-81008000I135000J0D01*
G01*
G37*
G04 #@! TD*
G04 #@! TO.C,R1*
G36*
G01*
X127958000Y-84060000D02*
X128328000Y-84060000D01*
G75*
G02*
X128463000Y-84195000I0J-135000D01*
G01*
X128463000Y-84465000D01*
G75*
G02*
X128328000Y-84600000I-135000J0D01*
G01*
X127958000Y-84600000D01*
G75*
G02*
X127823000Y-84465000I0J135000D01*
G01*
X127823000Y-84195000D01*
G75*
G02*
X127958000Y-84060000I135000J0D01*
G01*
G37*
G36*
G01*
X127958000Y-83040000D02*
X128328000Y-83040000D01*
G75*
G02*
X128463000Y-83175000I0J-135000D01*
G01*
X128463000Y-83445000D01*
G75*
G02*
X128328000Y-83580000I-135000J0D01*
G01*
X127958000Y-83580000D01*
G75*
G02*
X127823000Y-83445000I0J135000D01*
G01*
X127823000Y-83175000D01*
G75*
G02*
X127958000Y-83040000I135000J0D01*
G01*
G37*
G04 #@! TD*
D24*
G04 #@! TO.C,Q11*
X119142000Y-156972000D03*
X121142000Y-156022000D03*
X121142000Y-157922000D03*
G04 #@! TD*
G04 #@! TO.C,Q10*
X119142000Y-145542000D03*
X121142000Y-144592000D03*
X121142000Y-146492000D03*
G04 #@! TD*
G04 #@! TO.C,Q9*
X119158000Y-132588000D03*
X121158000Y-131638000D03*
X121158000Y-133538000D03*
G04 #@! TD*
G04 #@! TO.C,Q8*
X119142000Y-109855000D03*
X121142000Y-108905000D03*
X121142000Y-110805000D03*
G04 #@! TD*
G04 #@! TO.C,Q7*
X119142000Y-122682000D03*
X121142000Y-121732000D03*
X121142000Y-123632000D03*
G04 #@! TD*
D21*
G04 #@! TO.C,Q6*
X122301000Y-101076000D03*
X121351000Y-99076000D03*
X123251000Y-99076000D03*
G04 #@! TD*
G04 #@! TO.C,Q4*
X114300000Y-90154000D03*
X113350000Y-88154000D03*
X115250000Y-88154000D03*
G04 #@! TD*
G04 #@! TO.C,Q3*
X113030000Y-86598000D03*
X112080000Y-84598000D03*
X113980000Y-84598000D03*
G04 #@! TD*
G04 #@! TO.C,Q2*
X119446000Y-87868000D03*
X118496000Y-85868000D03*
X120396000Y-85868000D03*
G04 #@! TD*
D24*
G04 #@! TO.C,Q1*
X118348000Y-78486000D03*
X116348000Y-79436000D03*
X116348000Y-77536000D03*
G04 #@! TD*
D18*
G04 #@! TO.C,J9*
X132536000Y-153162000D03*
D19*
X135636000Y-153162000D03*
D20*
X124236000Y-153162000D03*
G04 #@! TD*
D18*
G04 #@! TO.C,J8*
X132536000Y-141732000D03*
D19*
X135636000Y-141732000D03*
D20*
X124236000Y-141732000D03*
G04 #@! TD*
D18*
G04 #@! TO.C,J7*
X132536000Y-130302000D03*
D19*
X135636000Y-130302000D03*
D20*
X124236000Y-130302000D03*
G04 #@! TD*
D18*
G04 #@! TO.C,J6*
X132536000Y-107442000D03*
D19*
X135636000Y-107442000D03*
D20*
X124236000Y-107442000D03*
G04 #@! TD*
D18*
G04 #@! TO.C,J5*
X132536000Y-118872000D03*
D19*
X135636000Y-118872000D03*
D20*
X124236000Y-118872000D03*
G04 #@! TD*
D18*
G04 #@! TO.C,J4*
X132536000Y-96012000D03*
D19*
X135636000Y-96012000D03*
D20*
X124236000Y-96012000D03*
G04 #@! TD*
D18*
G04 #@! TO.C,J1*
X132536000Y-83058000D03*
D19*
X135636000Y-83058000D03*
D20*
X124236000Y-83058000D03*
G04 #@! TD*
M02*
