G04 #@! TF.GenerationSoftware,KiCad,Pcbnew,(5.1.10)-1*
G04 #@! TF.CreationDate,2021-11-26T00:00:13+01:00*
G04 #@! TF.ProjectId,clockdiv,636c6f63-6b64-4697-962e-6b696361645f,rev?*
G04 #@! TF.SameCoordinates,Original*
G04 #@! TF.FileFunction,Legend,Top*
G04 #@! TF.FilePolarity,Positive*
%FSLAX46Y46*%
G04 Gerber Fmt 4.6, Leading zero omitted, Abs format (unit mm)*
G04 Created by KiCad (PCBNEW (5.1.10)-1) date 2021-11-26 00:00:13*
%MOMM*%
%LPD*%
G01*
G04 APERTURE LIST*
%ADD10C,0.330000*%
%ADD11C,0.120000*%
%ADD12C,0.230000*%
%ADD13C,0.150000*%
%ADD14C,0.275000*%
%ADD15C,0.200000*%
%ADD16C,0.010000*%
G04 APERTURE END LIST*
D10*
X108785333Y-121893000D02*
X109852000Y-121893000D01*
X111252000Y-122426333D02*
X110452000Y-122426333D01*
X110852000Y-122426333D02*
X110852000Y-121026333D01*
X110718666Y-121226333D01*
X110585333Y-121359666D01*
X110452000Y-121426333D01*
X111785333Y-121159666D02*
X111852000Y-121093000D01*
X111985333Y-121026333D01*
X112318666Y-121026333D01*
X112452000Y-121093000D01*
X112518666Y-121159666D01*
X112585333Y-121293000D01*
X112585333Y-121426333D01*
X112518666Y-121626333D01*
X111718666Y-122426333D01*
X112585333Y-122426333D01*
X112985333Y-121026333D02*
X113452000Y-122426333D01*
X113918666Y-121026333D01*
D11*
X114554000Y-118999000D02*
X107696000Y-118999000D01*
X114554000Y-118745000D02*
X107696000Y-118745000D01*
X114554000Y-118491000D02*
X107696000Y-118491000D01*
D12*
X133712714Y-111077571D02*
X132979380Y-111339476D01*
X133712714Y-111601380D01*
X134079380Y-112229952D02*
X134079380Y-112334714D01*
X134027000Y-112439476D01*
X133974619Y-112491857D01*
X133869857Y-112544238D01*
X133660333Y-112596619D01*
X133398428Y-112596619D01*
X133188904Y-112544238D01*
X133084142Y-112491857D01*
X133031761Y-112439476D01*
X132979380Y-112334714D01*
X132979380Y-112229952D01*
X133031761Y-112125190D01*
X133084142Y-112072809D01*
X133188904Y-112020428D01*
X133398428Y-111968047D01*
X133660333Y-111968047D01*
X133869857Y-112020428D01*
X133974619Y-112072809D01*
X134027000Y-112125190D01*
X134079380Y-112229952D01*
X133084142Y-113068047D02*
X133031761Y-113120428D01*
X132979380Y-113068047D01*
X133031761Y-113015666D01*
X133084142Y-113068047D01*
X132979380Y-113068047D01*
X134079380Y-113487095D02*
X134079380Y-114168047D01*
X133660333Y-113801380D01*
X133660333Y-113958523D01*
X133607952Y-114063285D01*
X133555571Y-114115666D01*
X133450809Y-114168047D01*
X133188904Y-114168047D01*
X133084142Y-114115666D01*
X133031761Y-114063285D01*
X132979380Y-113958523D01*
X132979380Y-113644238D01*
X133031761Y-113539476D01*
X133084142Y-113487095D01*
D13*
X109974000Y-163036571D02*
X110021619Y-162941333D01*
X110021619Y-162798476D01*
X109974000Y-162655619D01*
X109878761Y-162560380D01*
X109783523Y-162512761D01*
X109593047Y-162465142D01*
X109450190Y-162465142D01*
X109259714Y-162512761D01*
X109164476Y-162560380D01*
X109069238Y-162655619D01*
X109021619Y-162798476D01*
X109021619Y-162893714D01*
X109069238Y-163036571D01*
X109116857Y-163084190D01*
X109450190Y-163084190D01*
X109450190Y-162893714D01*
X109021619Y-163512761D02*
X110021619Y-163512761D01*
X109021619Y-164084190D01*
X110021619Y-164084190D01*
X109021619Y-164560380D02*
X110021619Y-164560380D01*
X110021619Y-164798476D01*
X109974000Y-164941333D01*
X109878761Y-165036571D01*
X109783523Y-165084190D01*
X109593047Y-165131809D01*
X109450190Y-165131809D01*
X109259714Y-165084190D01*
X109164476Y-165036571D01*
X109069238Y-164941333D01*
X109021619Y-164798476D01*
X109021619Y-164560380D01*
X109021619Y-166846095D02*
X109021619Y-166274666D01*
X109021619Y-166560380D02*
X110021619Y-166560380D01*
X109878761Y-166465142D01*
X109783523Y-166369904D01*
X109735904Y-166274666D01*
X109926380Y-167227047D02*
X109974000Y-167274666D01*
X110021619Y-167369904D01*
X110021619Y-167608000D01*
X109974000Y-167703238D01*
X109926380Y-167750857D01*
X109831142Y-167798476D01*
X109735904Y-167798476D01*
X109593047Y-167750857D01*
X109021619Y-167179428D01*
X109021619Y-167798476D01*
X109593047Y-168369904D02*
X109640666Y-168274666D01*
X109688285Y-168227047D01*
X109783523Y-168179428D01*
X109831142Y-168179428D01*
X109926380Y-168227047D01*
X109974000Y-168274666D01*
X110021619Y-168369904D01*
X110021619Y-168560380D01*
X109974000Y-168655619D01*
X109926380Y-168703238D01*
X109831142Y-168750857D01*
X109783523Y-168750857D01*
X109688285Y-168703238D01*
X109640666Y-168655619D01*
X109593047Y-168560380D01*
X109593047Y-168369904D01*
X109545428Y-168274666D01*
X109497809Y-168227047D01*
X109402571Y-168179428D01*
X109212095Y-168179428D01*
X109116857Y-168227047D01*
X109069238Y-168274666D01*
X109021619Y-168369904D01*
X109021619Y-168560380D01*
X109069238Y-168655619D01*
X109116857Y-168703238D01*
X109212095Y-168750857D01*
X109402571Y-168750857D01*
X109497809Y-168703238D01*
X109545428Y-168655619D01*
X109593047Y-168560380D01*
X115181000Y-156781761D02*
X115228619Y-156686523D01*
X115228619Y-156543666D01*
X115181000Y-156400809D01*
X115085761Y-156305571D01*
X114990523Y-156257952D01*
X114800047Y-156210333D01*
X114657190Y-156210333D01*
X114466714Y-156257952D01*
X114371476Y-156305571D01*
X114276238Y-156400809D01*
X114228619Y-156543666D01*
X114228619Y-156638904D01*
X114276238Y-156781761D01*
X114323857Y-156829380D01*
X114657190Y-156829380D01*
X114657190Y-156638904D01*
X114228619Y-157257952D02*
X115228619Y-157257952D01*
X114228619Y-157829380D01*
X115228619Y-157829380D01*
X114228619Y-158305571D02*
X115228619Y-158305571D01*
X115228619Y-158543666D01*
X115181000Y-158686523D01*
X115085761Y-158781761D01*
X114990523Y-158829380D01*
X114800047Y-158877000D01*
X114657190Y-158877000D01*
X114466714Y-158829380D01*
X114371476Y-158781761D01*
X114276238Y-158686523D01*
X114228619Y-158543666D01*
X114228619Y-158305571D01*
X115228619Y-160496047D02*
X115228619Y-160305571D01*
X115181000Y-160210333D01*
X115133380Y-160162714D01*
X114990523Y-160067476D01*
X114800047Y-160019857D01*
X114419095Y-160019857D01*
X114323857Y-160067476D01*
X114276238Y-160115095D01*
X114228619Y-160210333D01*
X114228619Y-160400809D01*
X114276238Y-160496047D01*
X114323857Y-160543666D01*
X114419095Y-160591285D01*
X114657190Y-160591285D01*
X114752428Y-160543666D01*
X114800047Y-160496047D01*
X114847666Y-160400809D01*
X114847666Y-160210333D01*
X114800047Y-160115095D01*
X114752428Y-160067476D01*
X114657190Y-160019857D01*
X114895285Y-161448428D02*
X114228619Y-161448428D01*
X115276238Y-161210333D02*
X114561952Y-160972238D01*
X114561952Y-161591285D01*
X124158714Y-149185380D02*
X124777761Y-149185380D01*
X124444428Y-149566333D01*
X124587285Y-149566333D01*
X124682523Y-149613952D01*
X124730142Y-149661571D01*
X124777761Y-149756809D01*
X124777761Y-149994904D01*
X124730142Y-150090142D01*
X124682523Y-150137761D01*
X124587285Y-150185380D01*
X124301571Y-150185380D01*
X124206333Y-150137761D01*
X124158714Y-150090142D01*
X125158714Y-149280619D02*
X125206333Y-149233000D01*
X125301571Y-149185380D01*
X125539666Y-149185380D01*
X125634904Y-149233000D01*
X125682523Y-149280619D01*
X125730142Y-149375857D01*
X125730142Y-149471095D01*
X125682523Y-149613952D01*
X125111095Y-150185380D01*
X125730142Y-150185380D01*
X127444428Y-149233000D02*
X127349190Y-149185380D01*
X127206333Y-149185380D01*
X127063476Y-149233000D01*
X126968238Y-149328238D01*
X126920619Y-149423476D01*
X126873000Y-149613952D01*
X126873000Y-149756809D01*
X126920619Y-149947285D01*
X126968238Y-150042523D01*
X127063476Y-150137761D01*
X127206333Y-150185380D01*
X127301571Y-150185380D01*
X127444428Y-150137761D01*
X127492047Y-150090142D01*
X127492047Y-149756809D01*
X127301571Y-149756809D01*
X127920619Y-150185380D02*
X127920619Y-149185380D01*
X128492047Y-150185380D01*
X128492047Y-149185380D01*
X128968238Y-150185380D02*
X128968238Y-149185380D01*
X129206333Y-149185380D01*
X129349190Y-149233000D01*
X129444428Y-149328238D01*
X129492047Y-149423476D01*
X129539666Y-149613952D01*
X129539666Y-149756809D01*
X129492047Y-149947285D01*
X129444428Y-150042523D01*
X129349190Y-150137761D01*
X129206333Y-150185380D01*
X128968238Y-150185380D01*
D11*
X126111000Y-123190000D02*
X126492000Y-122809000D01*
X123571000Y-123317000D02*
X124714000Y-122428000D01*
D13*
X127436000Y-120650095D02*
X127483619Y-120554857D01*
X127483619Y-120412000D01*
X127436000Y-120269142D01*
X127340761Y-120173904D01*
X127245523Y-120126285D01*
X127055047Y-120078666D01*
X126912190Y-120078666D01*
X126721714Y-120126285D01*
X126626476Y-120173904D01*
X126531238Y-120269142D01*
X126483619Y-120412000D01*
X126483619Y-120507238D01*
X126531238Y-120650095D01*
X126578857Y-120697714D01*
X126912190Y-120697714D01*
X126912190Y-120507238D01*
X126483619Y-121126285D02*
X127483619Y-121126285D01*
X126483619Y-121697714D01*
X127483619Y-121697714D01*
X126483619Y-122173904D02*
X127483619Y-122173904D01*
X127483619Y-122412000D01*
X127436000Y-122554857D01*
X127340761Y-122650095D01*
X127245523Y-122697714D01*
X127055047Y-122745333D01*
X126912190Y-122745333D01*
X126721714Y-122697714D01*
X126626476Y-122650095D01*
X126531238Y-122554857D01*
X126483619Y-122412000D01*
X126483619Y-122173904D01*
X124833619Y-121221523D02*
X124833619Y-120650095D01*
X124833619Y-120935809D02*
X125833619Y-120935809D01*
X125690761Y-120840571D01*
X125595523Y-120745333D01*
X125547904Y-120650095D01*
X125833619Y-122078666D02*
X125833619Y-121888190D01*
X125786000Y-121792952D01*
X125738380Y-121745333D01*
X125595523Y-121650095D01*
X125405047Y-121602476D01*
X125024095Y-121602476D01*
X124928857Y-121650095D01*
X124881238Y-121697714D01*
X124833619Y-121792952D01*
X124833619Y-121983428D01*
X124881238Y-122078666D01*
X124928857Y-122126285D01*
X125024095Y-122173904D01*
X125262190Y-122173904D01*
X125357428Y-122126285D01*
X125405047Y-122078666D01*
X125452666Y-121983428D01*
X125452666Y-121792952D01*
X125405047Y-121697714D01*
X125357428Y-121650095D01*
X125262190Y-121602476D01*
X117213047Y-126904761D02*
X117260666Y-126809523D01*
X117308285Y-126761904D01*
X117403523Y-126714285D01*
X117451142Y-126714285D01*
X117546380Y-126761904D01*
X117594000Y-126809523D01*
X117641619Y-126904761D01*
X117641619Y-127095238D01*
X117594000Y-127190476D01*
X117546380Y-127238095D01*
X117451142Y-127285714D01*
X117403523Y-127285714D01*
X117308285Y-127238095D01*
X117260666Y-127190476D01*
X117213047Y-127095238D01*
X117213047Y-126904761D01*
X117165428Y-126809523D01*
X117117809Y-126761904D01*
X117022571Y-126714285D01*
X116832095Y-126714285D01*
X116736857Y-126761904D01*
X116689238Y-126809523D01*
X116641619Y-126904761D01*
X116641619Y-127095238D01*
X116689238Y-127190476D01*
X116736857Y-127238095D01*
X116832095Y-127285714D01*
X117022571Y-127285714D01*
X117117809Y-127238095D01*
X117165428Y-127190476D01*
X117213047Y-127095238D01*
X120229285Y-114236476D02*
X119562619Y-114236476D01*
X120610238Y-113998380D02*
X119895952Y-113760285D01*
X119895952Y-114379333D01*
X117673380Y-101822285D02*
X117721000Y-101869904D01*
X117768619Y-101965142D01*
X117768619Y-102203238D01*
X117721000Y-102298476D01*
X117673380Y-102346095D01*
X117578142Y-102393714D01*
X117482904Y-102393714D01*
X117340047Y-102346095D01*
X116768619Y-101774666D01*
X116768619Y-102393714D01*
D11*
X111887000Y-99441000D02*
X111887000Y-98806000D01*
X111887000Y-101727000D02*
X111887000Y-99441000D01*
X111887000Y-99441000D02*
X111887000Y-101727000D01*
X108585000Y-99441000D02*
X111887000Y-99441000D01*
X113411000Y-93091000D02*
X113411000Y-98044000D01*
X108331000Y-93091000D02*
X113411000Y-93091000D01*
X108331000Y-93345000D02*
X113157000Y-93345000D01*
D13*
X129309857Y-77367000D02*
X129262238Y-77319380D01*
X129214619Y-77176523D01*
X129214619Y-77081285D01*
X129262238Y-76938428D01*
X129357476Y-76843190D01*
X129452714Y-76795571D01*
X129643190Y-76747952D01*
X129786047Y-76747952D01*
X129976523Y-76795571D01*
X130071761Y-76843190D01*
X130167000Y-76938428D01*
X130214619Y-77081285D01*
X130214619Y-77176523D01*
X130167000Y-77319380D01*
X130119380Y-77367000D01*
X129214619Y-78271761D02*
X129214619Y-77795571D01*
X130214619Y-77795571D01*
X129214619Y-78605095D02*
X130214619Y-78605095D01*
X129214619Y-79176523D02*
X129786047Y-78747952D01*
X130214619Y-79176523D02*
X129643190Y-78605095D01*
X130214619Y-79462238D02*
X130214619Y-80033666D01*
X129214619Y-79747952D02*
X130214619Y-79747952D01*
X129214619Y-80367000D02*
X130214619Y-80367000D01*
X129214619Y-80938428D01*
X130214619Y-80938428D01*
X133877000Y-79781476D02*
X133915095Y-79705285D01*
X133915095Y-79591000D01*
X133877000Y-79476714D01*
X133800809Y-79400523D01*
X133724619Y-79362428D01*
X133572238Y-79324333D01*
X133457952Y-79324333D01*
X133305571Y-79362428D01*
X133229380Y-79400523D01*
X133153190Y-79476714D01*
X133115095Y-79591000D01*
X133115095Y-79667190D01*
X133153190Y-79781476D01*
X133191285Y-79819571D01*
X133457952Y-79819571D01*
X133457952Y-79667190D01*
X133115095Y-80162428D02*
X133915095Y-80162428D01*
X133115095Y-80619571D01*
X133915095Y-80619571D01*
X133115095Y-81000523D02*
X133915095Y-81000523D01*
X133915095Y-81191000D01*
X133877000Y-81305285D01*
X133800809Y-81381476D01*
X133724619Y-81419571D01*
X133572238Y-81457666D01*
X133457952Y-81457666D01*
X133305571Y-81419571D01*
X133229380Y-81381476D01*
X133153190Y-81305285D01*
X133115095Y-81191000D01*
X133115095Y-81000523D01*
D12*
X135437238Y-135953523D02*
X135389619Y-135858285D01*
X135389619Y-135667809D01*
X135437238Y-135572571D01*
X135484857Y-135524952D01*
X135580095Y-135477333D01*
X135865809Y-135477333D01*
X135961047Y-135524952D01*
X136008666Y-135572571D01*
X136056285Y-135667809D01*
X136056285Y-135858285D01*
X136008666Y-135953523D01*
X135437238Y-136810666D02*
X135389619Y-136715428D01*
X135389619Y-136524952D01*
X135437238Y-136429714D01*
X135484857Y-136382095D01*
X135580095Y-136334476D01*
X135865809Y-136334476D01*
X135961047Y-136382095D01*
X136008666Y-136429714D01*
X136056285Y-136524952D01*
X136056285Y-136715428D01*
X136008666Y-136810666D01*
X133659619Y-134072571D02*
X134659619Y-134072571D01*
X134278666Y-134072571D02*
X134326285Y-134167809D01*
X134326285Y-134358285D01*
X134278666Y-134453523D01*
X134231047Y-134501142D01*
X134135809Y-134548761D01*
X133850095Y-134548761D01*
X133754857Y-134501142D01*
X133707238Y-134453523D01*
X133659619Y-134358285D01*
X133659619Y-134167809D01*
X133707238Y-134072571D01*
X134326285Y-134882095D02*
X133659619Y-135120190D01*
X134326285Y-135358285D02*
X133659619Y-135120190D01*
X133421523Y-135024952D01*
X133373904Y-134977333D01*
X133326285Y-134882095D01*
X134040571Y-135739238D02*
X134040571Y-136501142D01*
X133707238Y-136929714D02*
X133659619Y-137024952D01*
X133659619Y-137215428D01*
X133707238Y-137310666D01*
X133802476Y-137358285D01*
X133850095Y-137358285D01*
X133945333Y-137310666D01*
X133992952Y-137215428D01*
X133992952Y-137072571D01*
X134040571Y-136977333D01*
X134135809Y-136929714D01*
X134183428Y-136929714D01*
X134278666Y-136977333D01*
X134326285Y-137072571D01*
X134326285Y-137215428D01*
X134278666Y-137310666D01*
X133659619Y-138215428D02*
X134183428Y-138215428D01*
X134278666Y-138167809D01*
X134326285Y-138072571D01*
X134326285Y-137882095D01*
X134278666Y-137786857D01*
X133707238Y-138215428D02*
X133659619Y-138120190D01*
X133659619Y-137882095D01*
X133707238Y-137786857D01*
X133802476Y-137739238D01*
X133897714Y-137739238D01*
X133992952Y-137786857D01*
X134040571Y-137882095D01*
X134040571Y-138120190D01*
X134088190Y-138215428D01*
X132929619Y-135096380D02*
X132929619Y-135715428D01*
X132548666Y-135382095D01*
X132548666Y-135524952D01*
X132501047Y-135620190D01*
X132453428Y-135667809D01*
X132358190Y-135715428D01*
X132120095Y-135715428D01*
X132024857Y-135667809D01*
X131977238Y-135620190D01*
X131929619Y-135524952D01*
X131929619Y-135239238D01*
X131977238Y-135144000D01*
X132024857Y-135096380D01*
X132024857Y-136144000D02*
X131977238Y-136191619D01*
X131929619Y-136144000D01*
X131977238Y-136096380D01*
X132024857Y-136144000D01*
X131929619Y-136144000D01*
X132929619Y-136810666D02*
X132929619Y-136905904D01*
X132882000Y-137001142D01*
X132834380Y-137048761D01*
X132739142Y-137096380D01*
X132548666Y-137144000D01*
X132310571Y-137144000D01*
X132120095Y-137096380D01*
X132024857Y-137048761D01*
X131977238Y-137001142D01*
X131929619Y-136905904D01*
X131929619Y-136810666D01*
X131977238Y-136715428D01*
X132024857Y-136667809D01*
X132120095Y-136620190D01*
X132310571Y-136572571D01*
X132548666Y-136572571D01*
X132739142Y-136620190D01*
X132834380Y-136667809D01*
X132882000Y-136715428D01*
X132929619Y-136810666D01*
D13*
X135208000Y-122435428D02*
X134641333Y-122435428D01*
X134574666Y-122404000D01*
X134541333Y-122372571D01*
X134508000Y-122309714D01*
X134508000Y-122215428D01*
X134541333Y-122152571D01*
X134774666Y-122435428D02*
X134741333Y-122372571D01*
X134741333Y-122246857D01*
X134774666Y-122184000D01*
X134808000Y-122152571D01*
X134874666Y-122121142D01*
X135074666Y-122121142D01*
X135141333Y-122152571D01*
X135174666Y-122184000D01*
X135208000Y-122246857D01*
X135208000Y-122372571D01*
X135174666Y-122435428D01*
X134741333Y-122749714D02*
X135208000Y-122749714D01*
X135441333Y-122749714D02*
X135408000Y-122718285D01*
X135374666Y-122749714D01*
X135408000Y-122781142D01*
X135441333Y-122749714D01*
X135374666Y-122749714D01*
X135208000Y-122969714D02*
X135208000Y-123221142D01*
X135441333Y-123064000D02*
X134841333Y-123064000D01*
X134774666Y-123095428D01*
X134741333Y-123158285D01*
X134741333Y-123221142D01*
X134741333Y-123441142D02*
X135441333Y-123441142D01*
X134741333Y-123724000D02*
X135108000Y-123724000D01*
X135174666Y-123692571D01*
X135208000Y-123629714D01*
X135208000Y-123535428D01*
X135174666Y-123472571D01*
X135141333Y-123441142D01*
X135208000Y-124321142D02*
X134741333Y-124321142D01*
X135208000Y-124038285D02*
X134841333Y-124038285D01*
X134774666Y-124069714D01*
X134741333Y-124132571D01*
X134741333Y-124226857D01*
X134774666Y-124289714D01*
X134808000Y-124321142D01*
X134741333Y-124635428D02*
X135441333Y-124635428D01*
X135174666Y-124635428D02*
X135208000Y-124698285D01*
X135208000Y-124824000D01*
X135174666Y-124886857D01*
X135141333Y-124918285D01*
X135074666Y-124949714D01*
X134874666Y-124949714D01*
X134808000Y-124918285D01*
X134774666Y-124886857D01*
X134741333Y-124824000D01*
X134741333Y-124698285D01*
X134774666Y-124635428D01*
X134808000Y-125232571D02*
X134774666Y-125264000D01*
X134741333Y-125232571D01*
X134774666Y-125201142D01*
X134808000Y-125232571D01*
X134741333Y-125232571D01*
X134774666Y-125829714D02*
X134741333Y-125766857D01*
X134741333Y-125641142D01*
X134774666Y-125578285D01*
X134808000Y-125546857D01*
X134874666Y-125515428D01*
X135074666Y-125515428D01*
X135141333Y-125546857D01*
X135174666Y-125578285D01*
X135208000Y-125641142D01*
X135208000Y-125766857D01*
X135174666Y-125829714D01*
X134741333Y-126206857D02*
X134774666Y-126144000D01*
X134808000Y-126112571D01*
X134874666Y-126081142D01*
X135074666Y-126081142D01*
X135141333Y-126112571D01*
X135174666Y-126144000D01*
X135208000Y-126206857D01*
X135208000Y-126301142D01*
X135174666Y-126364000D01*
X135141333Y-126395428D01*
X135074666Y-126426857D01*
X134874666Y-126426857D01*
X134808000Y-126395428D01*
X134774666Y-126364000D01*
X134741333Y-126301142D01*
X134741333Y-126206857D01*
X134741333Y-126709714D02*
X135208000Y-126709714D01*
X135141333Y-126709714D02*
X135174666Y-126741142D01*
X135208000Y-126804000D01*
X135208000Y-126898285D01*
X135174666Y-126961142D01*
X135108000Y-126992571D01*
X134741333Y-126992571D01*
X135108000Y-126992571D02*
X135174666Y-127024000D01*
X135208000Y-127086857D01*
X135208000Y-127181142D01*
X135174666Y-127244000D01*
X135108000Y-127275428D01*
X134741333Y-127275428D01*
X134274666Y-121602571D02*
X133374666Y-121036857D01*
X134008000Y-121759714D02*
X133541333Y-121916857D01*
X134008000Y-122074000D01*
X133574666Y-122576857D02*
X133541333Y-122514000D01*
X133541333Y-122388285D01*
X133574666Y-122325428D01*
X133641333Y-122294000D01*
X133908000Y-122294000D01*
X133974666Y-122325428D01*
X134008000Y-122388285D01*
X134008000Y-122514000D01*
X133974666Y-122576857D01*
X133908000Y-122608285D01*
X133841333Y-122608285D01*
X133774666Y-122294000D01*
X133541333Y-122891142D02*
X134008000Y-122891142D01*
X133874666Y-122891142D02*
X133941333Y-122922571D01*
X133974666Y-122954000D01*
X134008000Y-123016857D01*
X134008000Y-123079714D01*
X133574666Y-123268285D02*
X133541333Y-123331142D01*
X133541333Y-123456857D01*
X133574666Y-123519714D01*
X133641333Y-123551142D01*
X133674666Y-123551142D01*
X133741333Y-123519714D01*
X133774666Y-123456857D01*
X133774666Y-123362571D01*
X133808000Y-123299714D01*
X133874666Y-123268285D01*
X133908000Y-123268285D01*
X133974666Y-123299714D01*
X134008000Y-123362571D01*
X134008000Y-123456857D01*
X133974666Y-123519714D01*
X134008000Y-124116857D02*
X133541333Y-124116857D01*
X134008000Y-123834000D02*
X133641333Y-123834000D01*
X133574666Y-123865428D01*
X133541333Y-123928285D01*
X133541333Y-124022571D01*
X133574666Y-124085428D01*
X133608000Y-124116857D01*
X133574666Y-124399714D02*
X133541333Y-124462571D01*
X133541333Y-124588285D01*
X133574666Y-124651142D01*
X133641333Y-124682571D01*
X133674666Y-124682571D01*
X133741333Y-124651142D01*
X133774666Y-124588285D01*
X133774666Y-124494000D01*
X133808000Y-124431142D01*
X133874666Y-124399714D01*
X133908000Y-124399714D01*
X133974666Y-124431142D01*
X134008000Y-124494000D01*
X134008000Y-124588285D01*
X133974666Y-124651142D01*
X133574666Y-125216857D02*
X133541333Y-125154000D01*
X133541333Y-125028285D01*
X133574666Y-124965428D01*
X133641333Y-124934000D01*
X133908000Y-124934000D01*
X133974666Y-124965428D01*
X134008000Y-125028285D01*
X134008000Y-125154000D01*
X133974666Y-125216857D01*
X133908000Y-125248285D01*
X133841333Y-125248285D01*
X133774666Y-124934000D01*
X134008000Y-125531142D02*
X133541333Y-125531142D01*
X133941333Y-125531142D02*
X133974666Y-125562571D01*
X134008000Y-125625428D01*
X134008000Y-125719714D01*
X133974666Y-125782571D01*
X133908000Y-125814000D01*
X133541333Y-125814000D01*
X134008000Y-126034000D02*
X134008000Y-126285428D01*
X134241333Y-126128285D02*
X133641333Y-126128285D01*
X133574666Y-126159714D01*
X133541333Y-126222571D01*
X133541333Y-126285428D01*
X133541333Y-126505428D02*
X134008000Y-126505428D01*
X133874666Y-126505428D02*
X133941333Y-126536857D01*
X133974666Y-126568285D01*
X134008000Y-126631142D01*
X134008000Y-126694000D01*
X133541333Y-127008285D02*
X133574666Y-126945428D01*
X133608000Y-126914000D01*
X133674666Y-126882571D01*
X133874666Y-126882571D01*
X133941333Y-126914000D01*
X133974666Y-126945428D01*
X134008000Y-127008285D01*
X134008000Y-127102571D01*
X133974666Y-127165428D01*
X133941333Y-127196857D01*
X133874666Y-127228285D01*
X133674666Y-127228285D01*
X133608000Y-127196857D01*
X133574666Y-127165428D01*
X133541333Y-127102571D01*
X133541333Y-127008285D01*
X134008000Y-127511142D02*
X133308000Y-127511142D01*
X133974666Y-127511142D02*
X134008000Y-127574000D01*
X134008000Y-127699714D01*
X133974666Y-127762571D01*
X133941333Y-127794000D01*
X133874666Y-127825428D01*
X133674666Y-127825428D01*
X133608000Y-127794000D01*
X133574666Y-127762571D01*
X133541333Y-127699714D01*
X133541333Y-127574000D01*
X133574666Y-127511142D01*
X134008000Y-128045428D02*
X133541333Y-128202571D01*
X134008000Y-128359714D02*
X133541333Y-128202571D01*
X133374666Y-128139714D01*
X133341333Y-128108285D01*
X133308000Y-128045428D01*
X133074666Y-122985428D02*
X132174666Y-122419714D01*
X132374666Y-123488285D02*
X132341333Y-123425428D01*
X132341333Y-123299714D01*
X132374666Y-123236857D01*
X132408000Y-123205428D01*
X132474666Y-123174000D01*
X132674666Y-123174000D01*
X132741333Y-123205428D01*
X132774666Y-123236857D01*
X132808000Y-123299714D01*
X132808000Y-123425428D01*
X132774666Y-123488285D01*
X132341333Y-123865428D02*
X132374666Y-123802571D01*
X132441333Y-123771142D01*
X133041333Y-123771142D01*
X132341333Y-124211142D02*
X132374666Y-124148285D01*
X132408000Y-124116857D01*
X132474666Y-124085428D01*
X132674666Y-124085428D01*
X132741333Y-124116857D01*
X132774666Y-124148285D01*
X132808000Y-124211142D01*
X132808000Y-124305428D01*
X132774666Y-124368285D01*
X132741333Y-124399714D01*
X132674666Y-124431142D01*
X132474666Y-124431142D01*
X132408000Y-124399714D01*
X132374666Y-124368285D01*
X132341333Y-124305428D01*
X132341333Y-124211142D01*
X132374666Y-124996857D02*
X132341333Y-124934000D01*
X132341333Y-124808285D01*
X132374666Y-124745428D01*
X132408000Y-124714000D01*
X132474666Y-124682571D01*
X132674666Y-124682571D01*
X132741333Y-124714000D01*
X132774666Y-124745428D01*
X132808000Y-124808285D01*
X132808000Y-124934000D01*
X132774666Y-124996857D01*
X132341333Y-125279714D02*
X133041333Y-125279714D01*
X132608000Y-125342571D02*
X132341333Y-125531142D01*
X132808000Y-125531142D02*
X132541333Y-125279714D01*
X132341333Y-126096857D02*
X133041333Y-126096857D01*
X132374666Y-126096857D02*
X132341333Y-126034000D01*
X132341333Y-125908285D01*
X132374666Y-125845428D01*
X132408000Y-125814000D01*
X132474666Y-125782571D01*
X132674666Y-125782571D01*
X132741333Y-125814000D01*
X132774666Y-125845428D01*
X132808000Y-125908285D01*
X132808000Y-126034000D01*
X132774666Y-126096857D01*
X132341333Y-126411142D02*
X132808000Y-126411142D01*
X133041333Y-126411142D02*
X133008000Y-126379714D01*
X132974666Y-126411142D01*
X133008000Y-126442571D01*
X133041333Y-126411142D01*
X132974666Y-126411142D01*
X132808000Y-126662571D02*
X132341333Y-126819714D01*
X132808000Y-126976857D01*
D14*
X134922428Y-102054142D02*
X134922428Y-102892238D01*
X135603380Y-103311285D02*
X135603380Y-104044619D01*
X134503380Y-103573190D01*
D15*
X134635761Y-99885571D02*
X134731000Y-99980809D01*
X134826238Y-100171285D01*
X134826238Y-100647476D01*
X134731000Y-100837952D01*
X134635761Y-100933190D01*
X134445285Y-101028428D01*
X134254809Y-101028428D01*
X133969095Y-100933190D01*
X132826238Y-99790333D01*
X132826238Y-101028428D01*
D11*
X130556000Y-76708000D02*
X130556000Y-81026000D01*
X130556000Y-77724000D02*
X130556000Y-76708000D01*
X134306000Y-77724000D02*
X130556000Y-77724000D01*
D13*
X112069619Y-94305857D02*
X112545809Y-93972523D01*
X112069619Y-93734428D02*
X113069619Y-93734428D01*
X113069619Y-94115380D01*
X113022000Y-94210619D01*
X112974380Y-94258238D01*
X112879142Y-94305857D01*
X112736285Y-94305857D01*
X112641047Y-94258238D01*
X112593428Y-94210619D01*
X112545809Y-94115380D01*
X112545809Y-93734428D01*
X112593428Y-94734428D02*
X112593428Y-95067761D01*
X112069619Y-95210619D02*
X112069619Y-94734428D01*
X113069619Y-94734428D01*
X113069619Y-95210619D01*
X112117238Y-95591571D02*
X112069619Y-95734428D01*
X112069619Y-95972523D01*
X112117238Y-96067761D01*
X112164857Y-96115380D01*
X112260095Y-96163000D01*
X112355333Y-96163000D01*
X112450571Y-96115380D01*
X112498190Y-96067761D01*
X112545809Y-95972523D01*
X112593428Y-95782047D01*
X112641047Y-95686809D01*
X112688666Y-95639190D01*
X112783904Y-95591571D01*
X112879142Y-95591571D01*
X112974380Y-95639190D01*
X113022000Y-95686809D01*
X113069619Y-95782047D01*
X113069619Y-96020142D01*
X113022000Y-96163000D01*
X112593428Y-96591571D02*
X112593428Y-96924904D01*
X112069619Y-97067761D02*
X112069619Y-96591571D01*
X113069619Y-96591571D01*
X113069619Y-97067761D01*
X113069619Y-97353476D02*
X113069619Y-97924904D01*
X112069619Y-97639190D02*
X113069619Y-97639190D01*
X113022000Y-99543952D02*
X113069619Y-99448714D01*
X113069619Y-99305857D01*
X113022000Y-99163000D01*
X112926761Y-99067761D01*
X112831523Y-99020142D01*
X112641047Y-98972523D01*
X112498190Y-98972523D01*
X112307714Y-99020142D01*
X112212476Y-99067761D01*
X112117238Y-99163000D01*
X112069619Y-99305857D01*
X112069619Y-99401095D01*
X112117238Y-99543952D01*
X112164857Y-99591571D01*
X112498190Y-99591571D01*
X112498190Y-99401095D01*
X112069619Y-100020142D02*
X113069619Y-100020142D01*
X112069619Y-100591571D01*
X113069619Y-100591571D01*
X112069619Y-101067761D02*
X113069619Y-101067761D01*
X113069619Y-101305857D01*
X113022000Y-101448714D01*
X112926761Y-101543952D01*
X112831523Y-101591571D01*
X112641047Y-101639190D01*
X112498190Y-101639190D01*
X112307714Y-101591571D01*
X112212476Y-101543952D01*
X112117238Y-101448714D01*
X112069619Y-101305857D01*
X112069619Y-101067761D01*
X108132571Y-104442476D02*
X108132571Y-105204380D01*
X107751619Y-104823428D02*
X108513523Y-104823428D01*
X107751619Y-106204380D02*
X107751619Y-105632952D01*
X107751619Y-105918666D02*
X108751619Y-105918666D01*
X108608761Y-105823428D01*
X108513523Y-105728190D01*
X108465904Y-105632952D01*
X108656380Y-106585333D02*
X108704000Y-106632952D01*
X108751619Y-106728190D01*
X108751619Y-106966285D01*
X108704000Y-107061523D01*
X108656380Y-107109142D01*
X108561142Y-107156761D01*
X108465904Y-107156761D01*
X108323047Y-107109142D01*
X107751619Y-106537714D01*
X107751619Y-107156761D01*
X108751619Y-107442476D02*
X107751619Y-107775809D01*
X108751619Y-108109142D01*
X108704000Y-110490095D02*
X108751619Y-110394857D01*
X108751619Y-110252000D01*
X108704000Y-110109142D01*
X108608761Y-110013904D01*
X108513523Y-109966285D01*
X108323047Y-109918666D01*
X108180190Y-109918666D01*
X107989714Y-109966285D01*
X107894476Y-110013904D01*
X107799238Y-110109142D01*
X107751619Y-110252000D01*
X107751619Y-110347238D01*
X107799238Y-110490095D01*
X107846857Y-110537714D01*
X108180190Y-110537714D01*
X108180190Y-110347238D01*
X107751619Y-110966285D02*
X108751619Y-110966285D01*
X107751619Y-111537714D01*
X108751619Y-111537714D01*
X107751619Y-112013904D02*
X108751619Y-112013904D01*
X108751619Y-112252000D01*
X108704000Y-112394857D01*
X108608761Y-112490095D01*
X108513523Y-112537714D01*
X108323047Y-112585333D01*
X108180190Y-112585333D01*
X107989714Y-112537714D01*
X107894476Y-112490095D01*
X107799238Y-112394857D01*
X107751619Y-112252000D01*
X107751619Y-112013904D01*
X108132571Y-114537714D02*
X108132571Y-115299619D01*
X107751619Y-116299619D02*
X107751619Y-115728190D01*
X107751619Y-116013904D02*
X108751619Y-116013904D01*
X108608761Y-115918666D01*
X108513523Y-115823428D01*
X108465904Y-115728190D01*
X108656380Y-116680571D02*
X108704000Y-116728190D01*
X108751619Y-116823428D01*
X108751619Y-117061523D01*
X108704000Y-117156761D01*
X108656380Y-117204380D01*
X108561142Y-117252000D01*
X108465904Y-117252000D01*
X108323047Y-117204380D01*
X107751619Y-116632952D01*
X107751619Y-117252000D01*
X108751619Y-117537714D02*
X107751619Y-117871047D01*
X108751619Y-118204380D01*
D16*
G04 #@! TO.C,REF\u002A\u002A*
G36*
X136567335Y-156412406D02*
G01*
X136272985Y-156412695D01*
X136171010Y-156413120D01*
X136090355Y-156414408D01*
X136025888Y-156416914D01*
X135972476Y-156420996D01*
X135924988Y-156427008D01*
X135878289Y-156435308D01*
X135844389Y-156442436D01*
X135614549Y-156505754D01*
X135395232Y-156592012D01*
X135188201Y-156700009D01*
X134995220Y-156828544D01*
X134818049Y-156976418D01*
X134658453Y-157142430D01*
X134518193Y-157325379D01*
X134493554Y-157362449D01*
X134441756Y-157449402D01*
X134388855Y-157550820D01*
X134337836Y-157659866D01*
X134291682Y-157769702D01*
X134253375Y-157873488D01*
X134225898Y-157964388D01*
X134219804Y-157989984D01*
X134210439Y-158032979D01*
X135972021Y-158032979D01*
X135972021Y-158972250D01*
X134210439Y-158972250D01*
X134219804Y-159015244D01*
X134244864Y-159106611D01*
X134282352Y-159212469D01*
X134329185Y-159325878D01*
X134382282Y-159439892D01*
X134438560Y-159547569D01*
X134494936Y-159641967D01*
X134504392Y-159656319D01*
X134648134Y-159847791D01*
X134809333Y-160019630D01*
X134986990Y-160171163D01*
X135180109Y-160301719D01*
X135387691Y-160410624D01*
X135608738Y-160497206D01*
X135842255Y-160560794D01*
X135847956Y-160562021D01*
X135900538Y-160572622D01*
X135948958Y-160580513D01*
X135998609Y-160586078D01*
X136054881Y-160589702D01*
X136123168Y-160591769D01*
X136208859Y-160592664D01*
X136279599Y-160592799D01*
X136567333Y-160592776D01*
X136567333Y-161525479D01*
X136279599Y-161523762D01*
X136187624Y-161522709D01*
X136097891Y-161520766D01*
X136016158Y-161518126D01*
X135948179Y-161514981D01*
X135899711Y-161511526D01*
X135892646Y-161510789D01*
X135667237Y-161474594D01*
X135435386Y-161417376D01*
X135203425Y-161341284D01*
X134977685Y-161248465D01*
X134764499Y-161141068D01*
X134708697Y-161109135D01*
X134545156Y-161003667D01*
X134379214Y-160879545D01*
X134217427Y-160742431D01*
X134066350Y-160597982D01*
X133932540Y-160451859D01*
X133895993Y-160407607D01*
X133734673Y-160186012D01*
X133593348Y-159948378D01*
X133473025Y-159697089D01*
X133374711Y-159434532D01*
X133299412Y-159163092D01*
X133248135Y-158885155D01*
X133245590Y-158866416D01*
X133238641Y-158794751D01*
X133233708Y-158704046D01*
X133230792Y-158600923D01*
X133229895Y-158492009D01*
X133231019Y-158383925D01*
X133234166Y-158283298D01*
X133239338Y-158196752D01*
X133245383Y-158138812D01*
X133297339Y-157853894D01*
X133372569Y-157578354D01*
X133470391Y-157313809D01*
X133590121Y-157061877D01*
X133731076Y-156824177D01*
X133892573Y-156602325D01*
X133895993Y-156598079D01*
X134076280Y-156395121D01*
X134275422Y-156208656D01*
X134490973Y-156040214D01*
X134720485Y-155891325D01*
X134961509Y-155763517D01*
X135211600Y-155658322D01*
X135468309Y-155577267D01*
X135568619Y-155552769D01*
X135692530Y-155526938D01*
X135807700Y-155507592D01*
X135921520Y-155493981D01*
X136041385Y-155485356D01*
X136174687Y-155480968D01*
X136286213Y-155480008D01*
X136567333Y-155479750D01*
X136567335Y-156412406D01*
G37*
X136567335Y-156412406D02*
X136272985Y-156412695D01*
X136171010Y-156413120D01*
X136090355Y-156414408D01*
X136025888Y-156416914D01*
X135972476Y-156420996D01*
X135924988Y-156427008D01*
X135878289Y-156435308D01*
X135844389Y-156442436D01*
X135614549Y-156505754D01*
X135395232Y-156592012D01*
X135188201Y-156700009D01*
X134995220Y-156828544D01*
X134818049Y-156976418D01*
X134658453Y-157142430D01*
X134518193Y-157325379D01*
X134493554Y-157362449D01*
X134441756Y-157449402D01*
X134388855Y-157550820D01*
X134337836Y-157659866D01*
X134291682Y-157769702D01*
X134253375Y-157873488D01*
X134225898Y-157964388D01*
X134219804Y-157989984D01*
X134210439Y-158032979D01*
X135972021Y-158032979D01*
X135972021Y-158972250D01*
X134210439Y-158972250D01*
X134219804Y-159015244D01*
X134244864Y-159106611D01*
X134282352Y-159212469D01*
X134329185Y-159325878D01*
X134382282Y-159439892D01*
X134438560Y-159547569D01*
X134494936Y-159641967D01*
X134504392Y-159656319D01*
X134648134Y-159847791D01*
X134809333Y-160019630D01*
X134986990Y-160171163D01*
X135180109Y-160301719D01*
X135387691Y-160410624D01*
X135608738Y-160497206D01*
X135842255Y-160560794D01*
X135847956Y-160562021D01*
X135900538Y-160572622D01*
X135948958Y-160580513D01*
X135998609Y-160586078D01*
X136054881Y-160589702D01*
X136123168Y-160591769D01*
X136208859Y-160592664D01*
X136279599Y-160592799D01*
X136567333Y-160592776D01*
X136567333Y-161525479D01*
X136279599Y-161523762D01*
X136187624Y-161522709D01*
X136097891Y-161520766D01*
X136016158Y-161518126D01*
X135948179Y-161514981D01*
X135899711Y-161511526D01*
X135892646Y-161510789D01*
X135667237Y-161474594D01*
X135435386Y-161417376D01*
X135203425Y-161341284D01*
X134977685Y-161248465D01*
X134764499Y-161141068D01*
X134708697Y-161109135D01*
X134545156Y-161003667D01*
X134379214Y-160879545D01*
X134217427Y-160742431D01*
X134066350Y-160597982D01*
X133932540Y-160451859D01*
X133895993Y-160407607D01*
X133734673Y-160186012D01*
X133593348Y-159948378D01*
X133473025Y-159697089D01*
X133374711Y-159434532D01*
X133299412Y-159163092D01*
X133248135Y-158885155D01*
X133245590Y-158866416D01*
X133238641Y-158794751D01*
X133233708Y-158704046D01*
X133230792Y-158600923D01*
X133229895Y-158492009D01*
X133231019Y-158383925D01*
X133234166Y-158283298D01*
X133239338Y-158196752D01*
X133245383Y-158138812D01*
X133297339Y-157853894D01*
X133372569Y-157578354D01*
X133470391Y-157313809D01*
X133590121Y-157061877D01*
X133731076Y-156824177D01*
X133892573Y-156602325D01*
X133895993Y-156598079D01*
X134076280Y-156395121D01*
X134275422Y-156208656D01*
X134490973Y-156040214D01*
X134720485Y-155891325D01*
X134961509Y-155763517D01*
X135211600Y-155658322D01*
X135468309Y-155577267D01*
X135568619Y-155552769D01*
X135692530Y-155526938D01*
X135807700Y-155507592D01*
X135921520Y-155493981D01*
X136041385Y-155485356D01*
X136174687Y-155480968D01*
X136286213Y-155480008D01*
X136567333Y-155479750D01*
X136567335Y-156412406D01*
G36*
X131273187Y-155480315D02*
G01*
X131337670Y-155481975D01*
X131384303Y-155484945D01*
X131404651Y-155488088D01*
X131434417Y-155496065D01*
X131434417Y-156416530D01*
X131224881Y-156409259D01*
X131015047Y-156409523D01*
X130820859Y-156426382D01*
X130636420Y-156461075D01*
X130455832Y-156514839D01*
X130273197Y-156588911D01*
X130197489Y-156624879D01*
X130016938Y-156723977D01*
X129854298Y-156835326D01*
X129701901Y-156964408D01*
X129642622Y-157021705D01*
X129485985Y-157196861D01*
X129350473Y-157387520D01*
X129236766Y-157592394D01*
X129145544Y-157810193D01*
X129077485Y-158039629D01*
X129057326Y-158132197D01*
X129045177Y-158216244D01*
X129037066Y-158319234D01*
X129032985Y-158433965D01*
X129032926Y-158553234D01*
X129036884Y-158669837D01*
X129044851Y-158776571D01*
X129056819Y-158866233D01*
X129058057Y-158873031D01*
X129113911Y-159101759D01*
X129193299Y-159319965D01*
X129294931Y-159526177D01*
X129417522Y-159718928D01*
X129559781Y-159896748D01*
X129720421Y-160058168D01*
X129898155Y-160201719D01*
X130091693Y-160325931D01*
X130299748Y-160429336D01*
X130483237Y-160498535D01*
X130586377Y-160530118D01*
X130681107Y-160554129D01*
X130773870Y-160571463D01*
X130871106Y-160583016D01*
X130979258Y-160589680D01*
X131104767Y-160592352D01*
X131159911Y-160592504D01*
X131434417Y-160592186D01*
X131434417Y-161509164D01*
X131404651Y-161517141D01*
X131379251Y-161520138D01*
X131332256Y-161522203D01*
X131268510Y-161523382D01*
X131192858Y-161523723D01*
X131110146Y-161523274D01*
X131025217Y-161522083D01*
X130942917Y-161520197D01*
X130868091Y-161517663D01*
X130805583Y-161514531D01*
X130760238Y-161510847D01*
X130759729Y-161510789D01*
X130646729Y-161494341D01*
X130519128Y-161469706D01*
X130386662Y-161439083D01*
X130259066Y-161404667D01*
X130177984Y-161379536D01*
X129913447Y-161278498D01*
X129662723Y-161155513D01*
X129426805Y-161011777D01*
X129206680Y-160848487D01*
X129003340Y-160666838D01*
X128817773Y-160468026D01*
X128650970Y-160253247D01*
X128503921Y-160023698D01*
X128377615Y-159780573D01*
X128273042Y-159525070D01*
X128191192Y-159258383D01*
X128133055Y-158981709D01*
X128119838Y-158892875D01*
X128111382Y-158808107D01*
X128105563Y-158704118D01*
X128102382Y-158588009D01*
X128101839Y-158466887D01*
X128103934Y-158347854D01*
X128108666Y-158238014D01*
X128116037Y-158144472D01*
X128119838Y-158112354D01*
X128170759Y-157829706D01*
X128246205Y-157556614D01*
X128345919Y-157293714D01*
X128469646Y-157041637D01*
X128617128Y-156801017D01*
X128695952Y-156690218D01*
X128874230Y-156472723D01*
X129070233Y-156274344D01*
X129282598Y-156095882D01*
X129509959Y-155938133D01*
X129750953Y-155801897D01*
X130004213Y-155687971D01*
X130268377Y-155597153D01*
X130542079Y-155530241D01*
X130732880Y-155498813D01*
X130785354Y-155493490D01*
X130854218Y-155488930D01*
X130934581Y-155485212D01*
X131021550Y-155482413D01*
X131110236Y-155480612D01*
X131195745Y-155479887D01*
X131273187Y-155480315D01*
G37*
X131273187Y-155480315D02*
X131337670Y-155481975D01*
X131384303Y-155484945D01*
X131404651Y-155488088D01*
X131434417Y-155496065D01*
X131434417Y-156416530D01*
X131224881Y-156409259D01*
X131015047Y-156409523D01*
X130820859Y-156426382D01*
X130636420Y-156461075D01*
X130455832Y-156514839D01*
X130273197Y-156588911D01*
X130197489Y-156624879D01*
X130016938Y-156723977D01*
X129854298Y-156835326D01*
X129701901Y-156964408D01*
X129642622Y-157021705D01*
X129485985Y-157196861D01*
X129350473Y-157387520D01*
X129236766Y-157592394D01*
X129145544Y-157810193D01*
X129077485Y-158039629D01*
X129057326Y-158132197D01*
X129045177Y-158216244D01*
X129037066Y-158319234D01*
X129032985Y-158433965D01*
X129032926Y-158553234D01*
X129036884Y-158669837D01*
X129044851Y-158776571D01*
X129056819Y-158866233D01*
X129058057Y-158873031D01*
X129113911Y-159101759D01*
X129193299Y-159319965D01*
X129294931Y-159526177D01*
X129417522Y-159718928D01*
X129559781Y-159896748D01*
X129720421Y-160058168D01*
X129898155Y-160201719D01*
X130091693Y-160325931D01*
X130299748Y-160429336D01*
X130483237Y-160498535D01*
X130586377Y-160530118D01*
X130681107Y-160554129D01*
X130773870Y-160571463D01*
X130871106Y-160583016D01*
X130979258Y-160589680D01*
X131104767Y-160592352D01*
X131159911Y-160592504D01*
X131434417Y-160592186D01*
X131434417Y-161509164D01*
X131404651Y-161517141D01*
X131379251Y-161520138D01*
X131332256Y-161522203D01*
X131268510Y-161523382D01*
X131192858Y-161523723D01*
X131110146Y-161523274D01*
X131025217Y-161522083D01*
X130942917Y-161520197D01*
X130868091Y-161517663D01*
X130805583Y-161514531D01*
X130760238Y-161510847D01*
X130759729Y-161510789D01*
X130646729Y-161494341D01*
X130519128Y-161469706D01*
X130386662Y-161439083D01*
X130259066Y-161404667D01*
X130177984Y-161379536D01*
X129913447Y-161278498D01*
X129662723Y-161155513D01*
X129426805Y-161011777D01*
X129206680Y-160848487D01*
X129003340Y-160666838D01*
X128817773Y-160468026D01*
X128650970Y-160253247D01*
X128503921Y-160023698D01*
X128377615Y-159780573D01*
X128273042Y-159525070D01*
X128191192Y-159258383D01*
X128133055Y-158981709D01*
X128119838Y-158892875D01*
X128111382Y-158808107D01*
X128105563Y-158704118D01*
X128102382Y-158588009D01*
X128101839Y-158466887D01*
X128103934Y-158347854D01*
X128108666Y-158238014D01*
X128116037Y-158144472D01*
X128119838Y-158112354D01*
X128170759Y-157829706D01*
X128246205Y-157556614D01*
X128345919Y-157293714D01*
X128469646Y-157041637D01*
X128617128Y-156801017D01*
X128695952Y-156690218D01*
X128874230Y-156472723D01*
X129070233Y-156274344D01*
X129282598Y-156095882D01*
X129509959Y-155938133D01*
X129750953Y-155801897D01*
X130004213Y-155687971D01*
X130268377Y-155597153D01*
X130542079Y-155530241D01*
X130732880Y-155498813D01*
X130785354Y-155493490D01*
X130854218Y-155488930D01*
X130934581Y-155485212D01*
X131021550Y-155482413D01*
X131110236Y-155480612D01*
X131195745Y-155479887D01*
X131273187Y-155480315D01*
D11*
G04 #@! TO.C,C3*
X110061836Y-136292000D02*
X109846164Y-136292000D01*
X110061836Y-137012000D02*
X109846164Y-137012000D01*
G04 #@! TO.C,C1*
X128515164Y-82656000D02*
X128730836Y-82656000D01*
X128515164Y-81936000D02*
X128730836Y-81936000D01*
G04 #@! TO.C,R52*
X119660641Y-167766000D02*
X119353359Y-167766000D01*
X119660641Y-167006000D02*
X119353359Y-167006000D01*
G04 #@! TO.C,R51*
X120496359Y-158878000D02*
X120803641Y-158878000D01*
X120496359Y-159638000D02*
X120803641Y-159638000D01*
G04 #@! TO.C,R50*
X120494359Y-147448000D02*
X120801641Y-147448000D01*
X120494359Y-148208000D02*
X120801641Y-148208000D01*
G04 #@! TO.C,R49*
X120369359Y-125223000D02*
X120676641Y-125223000D01*
X120369359Y-125983000D02*
X120676641Y-125983000D01*
G04 #@! TO.C,R48*
X120522000Y-112495359D02*
X120522000Y-112802641D01*
X119762000Y-112495359D02*
X119762000Y-112802641D01*
G04 #@! TO.C,R47*
X117474000Y-122276359D02*
X117474000Y-122583641D01*
X116714000Y-122276359D02*
X116714000Y-122583641D01*
G04 #@! TO.C,R46*
X120141000Y-99668359D02*
X120141000Y-99975641D01*
X119381000Y-99668359D02*
X119381000Y-99975641D01*
G04 #@! TO.C,J19*
X113090000Y-162754000D02*
X110430000Y-162754000D01*
X113090000Y-165354000D02*
X113090000Y-162754000D01*
X110430000Y-165354000D02*
X110430000Y-162754000D01*
X113090000Y-165354000D02*
X110430000Y-165354000D01*
X113090000Y-166624000D02*
X113090000Y-167954000D01*
X113090000Y-167954000D02*
X111760000Y-167954000D01*
G04 #@! TO.C,J18*
X118170000Y-156404000D02*
X115510000Y-156404000D01*
X118170000Y-159004000D02*
X118170000Y-156404000D01*
X115510000Y-159004000D02*
X115510000Y-156404000D01*
X118170000Y-159004000D02*
X115510000Y-159004000D01*
X118170000Y-160274000D02*
X118170000Y-161604000D01*
X118170000Y-161604000D02*
X116840000Y-161604000D01*
G04 #@! TO.C,J17*
X127822000Y-148777000D02*
X127822000Y-146117000D01*
X125222000Y-148777000D02*
X127822000Y-148777000D01*
X125222000Y-146117000D02*
X127822000Y-146117000D01*
X125222000Y-148777000D02*
X125222000Y-146117000D01*
X123952000Y-148777000D02*
X122622000Y-148777000D01*
X122622000Y-148777000D02*
X122622000Y-147447000D01*
G04 #@! TO.C,J16*
X127441000Y-125917000D02*
X127441000Y-123257000D01*
X124841000Y-125917000D02*
X127441000Y-125917000D01*
X124841000Y-123257000D02*
X127441000Y-123257000D01*
X124841000Y-125917000D02*
X124841000Y-123257000D01*
X123571000Y-125917000D02*
X122241000Y-125917000D01*
X122241000Y-125917000D02*
X122241000Y-124587000D01*
G04 #@! TO.C,J15*
X126171000Y-114487000D02*
X126171000Y-111827000D01*
X123571000Y-114487000D02*
X126171000Y-114487000D01*
X123571000Y-111827000D02*
X126171000Y-111827000D01*
X123571000Y-114487000D02*
X123571000Y-111827000D01*
X122301000Y-114487000D02*
X120971000Y-114487000D01*
X120971000Y-114487000D02*
X120971000Y-113157000D01*
G04 #@! TO.C,J14*
X113224000Y-123892000D02*
X113224000Y-126552000D01*
X115824000Y-123892000D02*
X113224000Y-123892000D01*
X115824000Y-126552000D02*
X113224000Y-126552000D01*
X115824000Y-123892000D02*
X115824000Y-126552000D01*
X117094000Y-123892000D02*
X118424000Y-123892000D01*
X118424000Y-123892000D02*
X118424000Y-125222000D01*
G04 #@! TO.C,J13*
X113351000Y-99000000D02*
X113351000Y-101660000D01*
X115951000Y-99000000D02*
X113351000Y-99000000D01*
X115951000Y-101660000D02*
X113351000Y-101660000D01*
X115951000Y-99000000D02*
X115951000Y-101660000D01*
X117221000Y-99000000D02*
X118551000Y-99000000D01*
X118551000Y-99000000D02*
X118551000Y-100330000D01*
G04 #@! TO.C,R45*
X114680000Y-164311359D02*
X114680000Y-164618641D01*
X113920000Y-164311359D02*
X113920000Y-164618641D01*
G04 #@! TO.C,R44*
X128906000Y-164237641D02*
X128906000Y-163930359D01*
X129666000Y-164237641D02*
X129666000Y-163930359D01*
G04 #@! TO.C,R43*
X114680000Y-153008359D02*
X114680000Y-153315641D01*
X113920000Y-153008359D02*
X113920000Y-153315641D01*
G04 #@! TO.C,R42*
X122429000Y-150773641D02*
X122429000Y-150466359D01*
X123189000Y-150773641D02*
X123189000Y-150466359D01*
G04 #@! TO.C,R41*
X118490000Y-141070359D02*
X118490000Y-141377641D01*
X117730000Y-141070359D02*
X117730000Y-141377641D01*
G04 #@! TO.C,R40*
X124359641Y-136905000D02*
X124052359Y-136905000D01*
X124359641Y-136145000D02*
X124052359Y-136145000D01*
G04 #@! TO.C,R39*
X118617000Y-128114359D02*
X118617000Y-128421641D01*
X117857000Y-128114359D02*
X117857000Y-128421641D01*
G04 #@! TO.C,R38*
X125703359Y-127001000D02*
X126010641Y-127001000D01*
X125703359Y-127761000D02*
X126010641Y-127761000D01*
G04 #@! TO.C,R37*
X115670359Y-110237000D02*
X115977641Y-110237000D01*
X115670359Y-110997000D02*
X115977641Y-110997000D01*
G04 #@! TO.C,R36*
X123849641Y-103123000D02*
X123542359Y-103123000D01*
X123849641Y-102363000D02*
X123542359Y-102363000D01*
G04 #@! TO.C,R35*
X118490000Y-118208359D02*
X118490000Y-118515641D01*
X117730000Y-118208359D02*
X117730000Y-118515641D01*
G04 #@! TO.C,R34*
X123826000Y-116229641D02*
X123826000Y-115922359D01*
X124586000Y-116229641D02*
X124586000Y-115922359D01*
G04 #@! TO.C,R33*
X113793000Y-96239359D02*
X113793000Y-96546641D01*
X114553000Y-96239359D02*
X114553000Y-96546641D01*
G04 #@! TO.C,R32*
X120420641Y-93344000D02*
X120113359Y-93344000D01*
X120420641Y-92584000D02*
X120113359Y-92584000D01*
G04 #@! TO.C,D19*
X126508000Y-165191000D02*
X128508000Y-165191000D01*
X128508000Y-165191000D02*
X128508000Y-161291000D01*
X126508000Y-165191000D02*
X126508000Y-161291000D01*
G04 #@! TO.C,D18*
X122158000Y-149007000D02*
X120158000Y-149007000D01*
X120158000Y-149007000D02*
X120158000Y-152907000D01*
X122158000Y-149007000D02*
X122158000Y-152907000D01*
G04 #@! TO.C,D17*
X125312000Y-139303000D02*
X125312000Y-137303000D01*
X125312000Y-137303000D02*
X121412000Y-137303000D01*
X125312000Y-139303000D02*
X121412000Y-139303000D01*
G04 #@! TO.C,D16*
X124805000Y-128381000D02*
X124805000Y-126381000D01*
X124805000Y-126381000D02*
X120905000Y-126381000D01*
X124805000Y-128381000D02*
X120905000Y-128381000D01*
G04 #@! TO.C,D15*
X125058000Y-105521000D02*
X125058000Y-103521000D01*
X125058000Y-103521000D02*
X121158000Y-103521000D01*
X125058000Y-105521000D02*
X121158000Y-105521000D01*
G04 #@! TO.C,D14*
X122158000Y-114718000D02*
X120158000Y-114718000D01*
X120158000Y-114718000D02*
X120158000Y-118618000D01*
X122158000Y-114718000D02*
X122158000Y-118618000D01*
G04 #@! TO.C,D13*
X122392000Y-95742000D02*
X122392000Y-93742000D01*
X122392000Y-93742000D02*
X118492000Y-93742000D01*
X122392000Y-95742000D02*
X118492000Y-95742000D01*
G04 #@! TO.C,U2*
X109670000Y-141486000D02*
X108360000Y-141486000D01*
X108360000Y-141486000D02*
X108360000Y-138766000D01*
X112850000Y-137626000D02*
X112850000Y-138766000D01*
X113080000Y-141486000D02*
X111770000Y-141486000D01*
X113080000Y-138766000D02*
X113080000Y-141486000D01*
X113080000Y-138766000D02*
X112850000Y-138766000D01*
X108360000Y-138766000D02*
X108590000Y-138766000D01*
G04 #@! TO.C,C7*
X114683000Y-137260420D02*
X114683000Y-137541580D01*
X113663000Y-137260420D02*
X113663000Y-137541580D01*
G04 #@! TO.C,R22*
X123343641Y-133857000D02*
X123036359Y-133857000D01*
X123343641Y-133097000D02*
X123036359Y-133097000D01*
G04 #@! TO.C,R31*
X119426258Y-166384500D02*
X118951742Y-166384500D01*
X119426258Y-165339500D02*
X118951742Y-165339500D01*
G04 #@! TO.C,R30*
X119363258Y-154954500D02*
X118888742Y-154954500D01*
X119363258Y-153909500D02*
X118888742Y-153909500D01*
G04 #@! TO.C,R27*
X119363258Y-143524500D02*
X118888742Y-143524500D01*
X119363258Y-142479500D02*
X118888742Y-142479500D01*
G04 #@! TO.C,R24*
X119426258Y-130570500D02*
X118951742Y-130570500D01*
X119426258Y-129525500D02*
X118951742Y-129525500D01*
G04 #@! TO.C,R21*
X119363258Y-107837500D02*
X118888742Y-107837500D01*
X119363258Y-106792500D02*
X118888742Y-106792500D01*
G04 #@! TO.C,R18*
X119363258Y-120664500D02*
X118888742Y-120664500D01*
X119363258Y-119619500D02*
X118888742Y-119619500D01*
G04 #@! TO.C,R15*
X119605058Y-97906100D02*
X119130542Y-97906100D01*
X119605058Y-96861100D02*
X119130542Y-96861100D01*
G04 #@! TO.C,R8*
X121358564Y-88924035D02*
X121141283Y-89141316D01*
X121895965Y-89461436D02*
X121678684Y-89678717D01*
G04 #@! TO.C,J10*
X134306000Y-76394000D02*
X135636000Y-76394000D01*
X134306000Y-77724000D02*
X134306000Y-76394000D01*
X134306000Y-78994000D02*
X136966000Y-78994000D01*
X136966000Y-78994000D02*
X136966000Y-81594000D01*
X134306000Y-78994000D02*
X134306000Y-81594000D01*
X134306000Y-81594000D02*
X136966000Y-81594000D01*
G04 #@! TO.C,J3*
X108652000Y-93793000D02*
X109982000Y-93793000D01*
X108652000Y-95123000D02*
X108652000Y-93793000D01*
X108652000Y-96393000D02*
X111312000Y-96393000D01*
X111312000Y-96393000D02*
X111312000Y-98993000D01*
X108652000Y-96393000D02*
X108652000Y-98993000D01*
X108652000Y-98993000D02*
X111312000Y-98993000D01*
G04 #@! TO.C,C6*
X120062000Y-134634000D02*
X115852000Y-134634000D01*
X120062000Y-137654000D02*
X120062000Y-134634000D01*
X115852000Y-137654000D02*
X120062000Y-137654000D01*
G04 #@! TO.C,C5*
X112962000Y-135409500D02*
X112962000Y-128649500D01*
X109542000Y-135409500D02*
X112962000Y-135409500D01*
X109542000Y-128649500D02*
X109542000Y-135409500D01*
G04 #@! TO.C,R12*
X124560359Y-161670000D02*
X124867641Y-161670000D01*
X124560359Y-160910000D02*
X124867641Y-160910000D01*
G04 #@! TO.C,R10*
X122048000Y-160753359D02*
X122048000Y-161060641D01*
X122808000Y-160753359D02*
X122808000Y-161060641D01*
G04 #@! TO.C,Q5*
X121788000Y-162562000D02*
X121788000Y-164022000D01*
X118628000Y-162562000D02*
X118628000Y-164722000D01*
X118628000Y-162562000D02*
X119558000Y-162562000D01*
X121788000Y-162562000D02*
X120858000Y-162562000D01*
G04 #@! TO.C,U1*
X123327000Y-89408000D02*
X123327000Y-92858000D01*
X123327000Y-89408000D02*
X123327000Y-87458000D01*
X132197000Y-89408000D02*
X132197000Y-91358000D01*
X132197000Y-89408000D02*
X132197000Y-87458000D01*
G04 #@! TO.C,R11*
X112368359Y-91820000D02*
X112675641Y-91820000D01*
X112368359Y-91060000D02*
X112675641Y-91060000D01*
G04 #@! TO.C,J11*
X108906000Y-105096000D02*
X110236000Y-105096000D01*
X108906000Y-106426000D02*
X108906000Y-105096000D01*
X111506000Y-105096000D02*
X114106000Y-105096000D01*
X111506000Y-107696000D02*
X111506000Y-105096000D01*
X108906000Y-107696000D02*
X111506000Y-107696000D01*
X114106000Y-105096000D02*
X114106000Y-117916000D01*
X108906000Y-107696000D02*
X108906000Y-117916000D01*
X108906000Y-117916000D02*
X114106000Y-117916000D01*
G04 #@! TO.C,D5*
X114138000Y-104378000D02*
X110238000Y-104378000D01*
X114138000Y-102378000D02*
X110238000Y-102378000D01*
X114138000Y-104378000D02*
X114138000Y-102378000D01*
G04 #@! TO.C,C4*
X116070748Y-104113000D02*
X116593252Y-104113000D01*
X116070748Y-102643000D02*
X116593252Y-102643000D01*
G04 #@! TO.C,D4*
X113300000Y-82260000D02*
X113300000Y-78360000D01*
X115300000Y-82260000D02*
X115300000Y-78360000D01*
X113300000Y-82260000D02*
X115300000Y-82260000D01*
G04 #@! TO.C,D3*
X110601000Y-87793000D02*
X110601000Y-91693000D01*
X108601000Y-87793000D02*
X108601000Y-91693000D01*
X110601000Y-87793000D02*
X108601000Y-87793000D01*
G04 #@! TO.C,D2*
X112868000Y-81010000D02*
X108968000Y-81010000D01*
X112868000Y-79010000D02*
X108968000Y-79010000D01*
X112868000Y-81010000D02*
X112868000Y-79010000D01*
G04 #@! TO.C,D1*
X120306000Y-78756000D02*
X124206000Y-78756000D01*
X120306000Y-80756000D02*
X124206000Y-80756000D01*
X120306000Y-78756000D02*
X120306000Y-80756000D01*
G04 #@! TO.C,C2*
X121664000Y-85965420D02*
X121664000Y-86246580D01*
X122684000Y-85965420D02*
X122684000Y-86246580D01*
G04 #@! TO.C,R29*
X121514359Y-154052000D02*
X121821641Y-154052000D01*
X121514359Y-154812000D02*
X121821641Y-154812000D01*
G04 #@! TO.C,R28*
X123343641Y-158114000D02*
X123036359Y-158114000D01*
X123343641Y-157354000D02*
X123036359Y-157354000D01*
G04 #@! TO.C,R26*
X121032000Y-142393641D02*
X121032000Y-142086359D01*
X121792000Y-142393641D02*
X121792000Y-142086359D01*
G04 #@! TO.C,R25*
X123472641Y-145160000D02*
X123165359Y-145160000D01*
X123472641Y-144400000D02*
X123165359Y-144400000D01*
G04 #@! TO.C,R23*
X120778000Y-129693641D02*
X120778000Y-129386359D01*
X121538000Y-129693641D02*
X121538000Y-129386359D01*
G04 #@! TO.C,R20*
X120778000Y-106958641D02*
X120778000Y-106651359D01*
X121538000Y-106958641D02*
X121538000Y-106651359D01*
G04 #@! TO.C,R19*
X123470641Y-109602000D02*
X123163359Y-109602000D01*
X123470641Y-110362000D02*
X123163359Y-110362000D01*
G04 #@! TO.C,R17*
X121514359Y-119762000D02*
X121821641Y-119762000D01*
X121514359Y-120522000D02*
X121821641Y-120522000D01*
G04 #@! TO.C,R16*
X123597641Y-122300000D02*
X123290359Y-122300000D01*
X123597641Y-121540000D02*
X123290359Y-121540000D01*
G04 #@! TO.C,R14*
X121159000Y-97179641D02*
X121159000Y-96872359D01*
X121919000Y-97179641D02*
X121919000Y-96872359D01*
G04 #@! TO.C,R13*
X125221000Y-98777359D02*
X125221000Y-99084641D01*
X124461000Y-98777359D02*
X124461000Y-99084641D01*
G04 #@! TO.C,R9*
X116460000Y-88799641D02*
X116460000Y-88492359D01*
X117220000Y-88799641D02*
X117220000Y-88492359D01*
G04 #@! TO.C,R7*
X113945641Y-83438000D02*
X113638359Y-83438000D01*
X113945641Y-82678000D02*
X113638359Y-82678000D01*
G04 #@! TO.C,R6*
X109221000Y-86386641D02*
X109221000Y-86079359D01*
X109981000Y-86386641D02*
X109981000Y-86079359D01*
G04 #@! TO.C,R5*
X112648000Y-82142359D02*
X112648000Y-82449641D01*
X111888000Y-82142359D02*
X111888000Y-82449641D01*
G04 #@! TO.C,R4*
X120014000Y-80110359D02*
X120014000Y-80417641D01*
X119254000Y-80110359D02*
X119254000Y-80417641D01*
G04 #@! TO.C,R3*
X126747000Y-83973641D02*
X126747000Y-83666359D01*
X127507000Y-83973641D02*
X127507000Y-83666359D01*
G04 #@! TO.C,R2*
X127507000Y-81634359D02*
X127507000Y-81941641D01*
X126747000Y-81634359D02*
X126747000Y-81941641D01*
G04 #@! TO.C,R1*
X128523000Y-83666359D02*
X128523000Y-83973641D01*
X127763000Y-83666359D02*
X127763000Y-83973641D01*
G04 #@! TO.C,Q11*
X119382000Y-155392000D02*
X119382000Y-156322000D01*
X119382000Y-158552000D02*
X119382000Y-157622000D01*
X119382000Y-158552000D02*
X121542000Y-158552000D01*
X119382000Y-155392000D02*
X120842000Y-155392000D01*
G04 #@! TO.C,Q10*
X119382000Y-143962000D02*
X119382000Y-144892000D01*
X119382000Y-147122000D02*
X119382000Y-146192000D01*
X119382000Y-147122000D02*
X121542000Y-147122000D01*
X119382000Y-143962000D02*
X120842000Y-143962000D01*
G04 #@! TO.C,Q9*
X119398000Y-131008000D02*
X119398000Y-131938000D01*
X119398000Y-134168000D02*
X119398000Y-133238000D01*
X119398000Y-134168000D02*
X121558000Y-134168000D01*
X119398000Y-131008000D02*
X120858000Y-131008000D01*
G04 #@! TO.C,Q8*
X119382000Y-108275000D02*
X119382000Y-109205000D01*
X119382000Y-111435000D02*
X119382000Y-110505000D01*
X119382000Y-111435000D02*
X121542000Y-111435000D01*
X119382000Y-108275000D02*
X120842000Y-108275000D01*
G04 #@! TO.C,Q7*
X119382000Y-121102000D02*
X119382000Y-122032000D01*
X119382000Y-124262000D02*
X119382000Y-123332000D01*
X119382000Y-124262000D02*
X121542000Y-124262000D01*
X119382000Y-121102000D02*
X120842000Y-121102000D01*
G04 #@! TO.C,Q6*
X120721000Y-100836000D02*
X121651000Y-100836000D01*
X123881000Y-100836000D02*
X122951000Y-100836000D01*
X123881000Y-100836000D02*
X123881000Y-98676000D01*
X120721000Y-100836000D02*
X120721000Y-99376000D01*
G04 #@! TO.C,Q4*
X112720000Y-89914000D02*
X113650000Y-89914000D01*
X115880000Y-89914000D02*
X114950000Y-89914000D01*
X115880000Y-89914000D02*
X115880000Y-87754000D01*
X112720000Y-89914000D02*
X112720000Y-88454000D01*
G04 #@! TO.C,Q3*
X111450000Y-86358000D02*
X112380000Y-86358000D01*
X114610000Y-86358000D02*
X113680000Y-86358000D01*
X114610000Y-86358000D02*
X114610000Y-84198000D01*
X111450000Y-86358000D02*
X111450000Y-84898000D01*
G04 #@! TO.C,Q2*
X117866000Y-87628000D02*
X118796000Y-87628000D01*
X121026000Y-87628000D02*
X120096000Y-87628000D01*
X121026000Y-87628000D02*
X121026000Y-85468000D01*
X117866000Y-87628000D02*
X117866000Y-86168000D01*
G04 #@! TO.C,Q1*
X118108000Y-80066000D02*
X118108000Y-79136000D01*
X118108000Y-76906000D02*
X118108000Y-77836000D01*
X118108000Y-76906000D02*
X115948000Y-76906000D01*
X118108000Y-80066000D02*
X116648000Y-80066000D01*
G04 #@! TD*
M02*
