M48
; DRILL file {KiCad (5.1.10)-1} date 11/26/21 00:00:34
; FORMAT={-:-/ absolute / metric / decimal}
; #@! TF.CreationDate,2021-11-26T00:00:34+01:00
; #@! TF.GenerationSoftware,Kicad,Pcbnew,(5.1.10)-1
; #@! TF.FileFunction,Plated,1,2,PTH
FMAT,2
METRIC
T1C0.400
T2C0.900
T3C1.000
%
G90
G05
T1
X109.093Y-142.875
X110.617Y-126.619
X110.744Y-86.106
X110.744Y-143.002
X111.887Y-126.619
X112.014Y-88.138
X112.014Y-136.398
X112.395Y-142.875
X112.395Y-147.066
X114.173Y-135.001
X114.173Y-139.954
X114.173Y-141.351
X114.3Y-128.016
X115.316Y-133.604
X115.824Y-122.428
X116.332Y-112.268
X116.332Y-114.554
X116.84Y-86.36
X117.475Y-133.604
X117.856Y-115.57
X117.983Y-121.92
X118.872Y-92.964
X119.126Y-102.362
X119.634Y-101.473
X120.142Y-160.274
X120.203Y-121.732
X122.301Y-102.743
X122.809Y-136.525
X123.698Y-150.241
X126.238Y-93.726
X126.619Y-129.159
X127.762Y-98.298
X129.032Y-101.092
X129.286Y-162.56
X129.413Y-129.159
X130.048Y-82.296
X130.556Y-94.234
X131.572Y-90.17
X131.572Y-93.726
X132.842Y-91.948
T2
X116.332Y-94.869
X116.332Y-97.409
X116.332Y-106.172
X116.332Y-108.712
X116.332Y-117.602
X116.332Y-120.142
X116.332Y-129.032
X116.332Y-131.572
X116.332Y-140.462
X116.332Y-143.002
X116.332Y-151.892
X116.332Y-154.432
X116.332Y-163.322
X116.332Y-165.862
T3
X109.556Y-83.058
X109.982Y-95.123
X109.982Y-97.663
X110.236Y-106.426
X110.236Y-108.966
X110.236Y-111.506
X110.236Y-114.046
X110.236Y-116.586
X111.76Y-164.084
X111.76Y-166.624
X112.776Y-106.426
X112.776Y-108.966
X112.776Y-111.506
X112.776Y-114.046
X112.776Y-116.586
X114.554Y-125.222
X114.681Y-100.33
X116.84Y-157.734
X116.84Y-160.274
X117.094Y-125.222
X117.221Y-100.33
X117.856Y-83.058
X120.956Y-83.058
X122.301Y-113.157
X123.571Y-124.587
X123.952Y-147.447
X124.236Y-83.058
X124.236Y-96.012
X124.236Y-107.442
X124.236Y-118.872
X124.236Y-130.302
X124.236Y-141.732
X124.236Y-153.162
X124.236Y-164.592
X124.841Y-113.157
X126.111Y-124.587
X126.492Y-147.447
X132.536Y-83.058
X132.536Y-96.012
X132.536Y-107.442
X132.536Y-118.872
X132.536Y-130.302
X132.536Y-141.732
X132.536Y-153.162
X132.536Y-164.592
X135.636Y-77.724
X135.636Y-80.264
X135.636Y-83.058
X135.636Y-96.012
X135.636Y-107.442
X135.636Y-118.872
X135.636Y-130.302
X135.636Y-141.732
X135.636Y-153.162
X135.636Y-164.592
T0
M30
