<?xml version="1.0" encoding="UTF-8"?>
<svg width="11.001cm" height="21.94cm" version="1.1" viewBox="0 0 43312 86378" xmlns="http://www.w3.org/2000/svg">
 <style/>
 <title>clockdivider main</title>
 <desc>Picture generated by Eeschema-SVG</desc>
 <g fill-opacity="0" stroke-linecap="round" stroke-linejoin="round">
  <g transform="translate(-4938.5 -6173.2)" stroke-width="0">
   <g fill-opacity="0">
    <g fill="#840000" stroke="#840000" stroke-width="100">
     <rect x="28500" y="64600" width="2e3" height="800" rx="0"/>
    </g>
    <g stroke-width="60">
     <g fill="#840000" stroke="#840000">
      <path d="m28500 65000h-500"/>
      <path d="m30500 65000h500"/>
     </g>
     <g fill="#008484" stroke="#008484">
      <text x="29500" y="63150" font-size="660px" opacity="0" text-anchor="middle" lengthAdjust="spacingAndGlyphs" textLength="1040">R7</text>
      <path d="m29410 63120-160-240"/>
      <path d="m29130 63120v-500h190l40 30 30 20 20 50v70l-20 50-30 20-40 20h-190"/>
      <path d="m29580 62620h330l-210 500"/>
      <text x="29500" y="64060" font-size="660px" opacity="0" text-anchor="middle" lengthAdjust="spacingAndGlyphs" textLength="1420">47k</text>
      <path d="m29150 63700v330"/>
      <path d="m29030 63510-120 350h310"/>
      <path d="m29360 63530h340l-220 500"/>
      <path d="m29890 64030v-500"/>
      <path d="m29940 63840 140 190"/>
      <path d="m30080 63700-190 190"/>
     </g>
     <g fill="none" stroke="#840000">
      <path d="m26750 48750h500"/>
      <path d="m26950 49000h100"/>
      <path d="m27000 48500v-500"/>
      <path d="m27500 48500h-1e3"/>
     </g>
     <g fill="#008484" stroke="#008484">
      <text x="27050" y="50000" font-size="660px" opacity="0" text-anchor="middle" lengthAdjust="spacingAndGlyphs" textLength="2960">GNDREF</text>
      <path d="m25970 49500-40-30h-80l-70 30-40 40-30 50-20 100v70l20 90 30 50 40 50 70 20h50l70-20 30-30v-160h-100"/>
      <path d="m26210 49970v-500l290 500v-500"/>
      <path d="m26740 49970v-500h110l80 30 40 40 30 50 20 100v70l-20 90-30 50-40 50-80 20h-110"/>
      <path d="m27520 49970-170-240"/>
      <path d="m27240 49970v-500h190l40 30 30 20 20 50v70l-20 50-30 20-40 20h-190"/>
      <path d="m27740 49710h160"/>
      <path d="m27970 49970h-230v-500h230"/>
      <path d="m28350 49710h-160"/>
      <path d="m28190 49970v-500h240"/>
     </g>
     <g fill="none" stroke="#840000">
      <path d="m28250 24750h500"/>
      <path d="m28450 25000h100"/>
      <path d="m28500 24500v-500"/>
      <path d="m29000 24500h-1e3"/>
     </g>
     <g fill="#008484" stroke="#008484">
      <text x="28550" y="26000" font-size="660px" opacity="0" text-anchor="middle" lengthAdjust="spacingAndGlyphs" textLength="2960">GNDREF</text>
      <path d="m27470 25500-40-30h-80l-70 30-40 40-30 50-20 100v70l20 90 30 50 40 50 70 20h50l70-20 30-30v-160h-100"/>
      <path d="m27710 25970v-500l290 500v-500"/>
      <path d="m28240 25970v-500h110l80 30 40 40 30 50 20 100v70l-20 90-30 50-40 50-80 20h-110"/>
      <path d="m29020 25970-170-240"/>
      <path d="m28740 25970v-500h190l40 30 30 20 20 50v70l-20 50-30 20-40 20h-190"/>
      <path d="m29240 25710h160"/>
      <path d="m29470 25970h-230v-500h230"/>
      <path d="m29850 25710h-160"/>
      <path d="m29690 25970v-500h240"/>
     </g>
    </g>
    <g stroke="#840000">
     <g fill="#840000" stroke-width="100">
      <circle cx="39000" cy="78500" r="1110"/>
     </g>
     <g fill="none" stroke-width="60">
      <path d="m38750 78250 750-750"/>
      <path d="m38750 78750 750 750"/>
     </g>
     <g stroke-width="200">
      <path d="m38750 77750v1500" fill="none" stroke="#840000" stroke-linecap="round" stroke-linejoin="round" stroke-width="200"/>
     </g>
    </g>
   </g>
   <g fill="#840000" fill-opacity="1" stroke="#840000" stroke-width="60">
    <path d="m39000 79200 200-200 200 400z" fill="#840000" fill-opacity="1" fill-rule="evenodd" stroke="#840000" stroke-linecap="round" stroke-linejoin="round" stroke-width="60"/>
   </g>
   <g fill-opacity="0">
    <g fill="#840000" stroke="#840000" stroke-width="60">
     <path d="m38750 78500h-2250"/>
     <text x="37620" y="79100" font-size="660px" opacity="0" text-anchor="middle" lengthAdjust="spacingAndGlyphs" textLength="540">1</text>
     <path d="m37760 79070h-290"/>
     <path d="m37620 79070v-500l-50 70-50 50-50 20"/>
     <path d="m39500 79500v1e3"/>
     <g transform="rotate(-90 39600 8e4)">
      <text x="39600" y="80500" font-size="660px" opacity="0" text-anchor="middle" lengthAdjust="spacingAndGlyphs" textLength="540">2</text>
     </g>
     <path d="m39620 80140-20-30-30-40v-120l30-50 20-20 50-30h40l80 30 280 280v-310"/>
     <path d="m39500 77500v-1e3"/>
     <g transform="rotate(-90,39600,77000)">
      <text x="39600" y="77500" font-size="660px" opacity="0" text-anchor="middle" lengthAdjust="spacingAndGlyphs" textLength="540">3</text>
     </g>
     <path d="m39570 77160v-310l190 170v-70l30-50 20-20 50-30h120l40 30 30 20 20 50v140l-20 50-30 20"/>
    </g>
    <g fill="#008484" stroke="#008484" stroke-width="60">
     <text x="40930" y="78310" font-size="660px" opacity="0" text-anchor="middle" lengthAdjust="spacingAndGlyphs" textLength="1060">Q4</text>
     <path d="m40880 78330-50-20-120-120-50-30h-40"/>
     <path d="m40640 78280-50-20-50-50-20-100v-160l20-100 50-40 50-30h90l50 30 50 40 20 100v160l-20 100-50 50-50 20h-90"/>
     <path d="m41280 77950v330"/>
     <path d="m41160 77760-120 350h310"/>
     <text x="41880" y="79220" font-size="660px" opacity="0" text-anchor="middle" lengthAdjust="spacingAndGlyphs" textLength="2960">2N3904</text>
     <path d="m40520 78740 20-20 50-30h120l50 30 20 20 20 50v40l-20 80-290 280h310"/>
     <path d="m41020 79190v-500l280 500v-500"/>
     <path d="m41490 78690h310l-160 190h70l50 30 20 20 20 50v120l-20 40-20 30-50 20h-140l-50-20-30-30"/>
     <path d="m42040 79190h100l40-20 30-30 50-70 20-90v-190l-20-50-30-20-50-30h-90l-50 30-20 20-30 50v120l30 40 20 30 50 20h90l50-20 30-30 20-40"/>
     <path d="m42590 78690h50l40 30 30 20 20 50 30 90v120l-30 100-20 40-30 30-40 20h-50l-50-20-20-30-30-40-20-100v-120l20-90 30-50 20-20 50-30"/>
     <path d="m43180 78860v330"/>
     <path d="m43070 78670-120 350h310"/>
    </g>
    <g fill="#840000" stroke="#840000" stroke-width="100">
     <rect x="39100" y="73000" width="800" height="2e3" rx="0"/>
    </g>
    <g stroke-width="60">
     <g fill="#840000" stroke="#840000">
      <path d="m39500 73000v-500"/>
      <path d="m39500 75000v500"/>
     </g>
     <g fill="#008484" stroke="#008484">
      <text x="40950" y="73810" font-size="660px" opacity="0" text-anchor="middle" lengthAdjust="spacingAndGlyphs" textLength="1510">R11</text>
      <path d="m40620 73780-160-240"/>
      <path d="m40340 73780v-500h190l50 30 20 20 20 50v70l-20 50-20 20-50 20h-190"/>
      <path d="m41100 73780h-290"/>
      <path d="m40960 73780v-500l-50 70-50 50-50 20"/>
      <path d="m41580 73780h-290"/>
      <path d="m41430 73780v-500l-40 70-50 50-50 20"/>
      <text x="40910" y="74720" font-size="660px" opacity="0" text-anchor="middle" lengthAdjust="spacingAndGlyphs" textLength="1420">10k</text>
      <path d="m40610 74690h-290"/>
      <path d="m40460 74690v-500l-40 70-50 50-50 20"/>
      <path d="m40920 74190h40l50 30 30 20 20 50 20 90v120l-20 100-20 40-30 30-50 20h-40l-50-20-20-30-30-40-20-100v-120l20-90 30-50 20-20 50-30"/>
      <path d="m41300 74690v-500"/>
      <path d="m41350 74500 140 190"/>
      <path d="m41490 74360-190 190"/>
     </g>
     <g fill="none" stroke="#840000">
      <path d="m39500 71000v-1e3"/>
      <path d="m39500 7e4-500 750"/>
      <path d="m39500 7e4 500 750"/>
     </g>
     <g fill="#008484" stroke="#008484">
      <text x="39550" y="69540" font-size="660px" opacity="0" text-anchor="middle" lengthAdjust="spacingAndGlyphs" textLength="2060">+12V</text>
      <path d="m38660 69320h390"/>
      <path d="m38850 69510v-380"/>
      <path d="m39550 69510h-290"/>
      <path d="m39400 69510v-500l-50 70-40 50-50 20"/>
      <path d="m39740 69060 20-20 50-30h120l40 30 30 20 20 50v40l-20 80-290 280h310"/>
      <path d="m40160 69010 170 500 170-500"/>
     </g>
     <g fill="none" stroke="#840000">
      <path d="m39250 83250h500"/>
      <path d="m39450 83500h100"/>
      <path d="m39500 83000v-500"/>
      <path d="m4e4 83000h-1e3"/>
     </g>
     <g fill="#008484" stroke="#008484">
      <text x="39550" y="84500" font-size="660px" opacity="0" text-anchor="middle" lengthAdjust="spacingAndGlyphs" textLength="2960">GNDREF</text>
      <path d="m38470 84000-40-30h-80l-70 30-40 40-30 50-20 100v70l20 90 30 50 40 50 70 20h50l70-20 30-30v-160h-100"/>
      <path d="m38710 84470v-500l290 500v-500"/>
      <path d="m39240 84470v-500h110l80 30 40 40 30 50 20 100v70l-20 90-30 50-40 50-80 20h-110"/>
      <path d="m40020 84470-170-240"/>
      <path d="m39740 84470v-500h190l40 30 30 20 20 50v70l-20 50-30 20-40 20h-190"/>
      <path d="m40240 84210h160"/>
      <path d="m40470 84470h-230v-500h230"/>
      <path d="m40850 84210h-160"/>
      <path d="m40690 84470v-500h240"/>
     </g>
    </g>
    <g stroke="#840000">
     <g fill="#840000" stroke-width="100">
      <circle cx="34000" cy="81000" r="1110"/>
     </g>
     <g fill="none" stroke-width="60">
      <path d="m33750 80750 750-750"/>
      <path d="m33750 81250 750 750"/>
     </g>
     <g stroke-width="200">
      <path d="m33750 80250v1500" fill="none" stroke="#840000" stroke-linecap="round" stroke-linejoin="round" stroke-width="200"/>
     </g>
    </g>
   </g>
   <g fill="#840000" fill-opacity="1" stroke="#840000" stroke-width="60">
    <path d="m34000 81700 200-200 200 400z" fill="#840000" fill-opacity="1" fill-rule="evenodd" stroke="#840000" stroke-linecap="round" stroke-linejoin="round" stroke-width="60"/>
   </g>
   <g fill-opacity="0">
    <g fill="#840000" stroke="#840000" stroke-width="60">
     <path d="m33750 81000h-2250"/>
     <text x="32620" y="81600" font-size="660px" opacity="0" text-anchor="middle" lengthAdjust="spacingAndGlyphs" textLength="540">1</text>
     <path d="m32760 81570h-290"/>
     <path d="m32620 81570v-500l-50 70-50 50-50 20"/>
     <path d="m34500 82000v1e3"/>
     <g transform="rotate(-90,34600,82500)">
      <text x="34600" y="83000" font-size="660px" opacity="0" text-anchor="middle" lengthAdjust="spacingAndGlyphs" textLength="540">2</text>
     </g>
     <path d="m34620 82640-20-30-30-40v-120l30-50 20-20 50-30h40l80 30 280 280v-310"/>
     <path d="m34500 8e4v-1e3"/>
     <g transform="rotate(-90,34600,79500)">
      <text x="34600" y="80000" font-size="660px" opacity="0" text-anchor="middle" lengthAdjust="spacingAndGlyphs" textLength="540">3</text>
     </g>
     <path d="m34570 79660v-310l190 170v-70l30-50 20-20 50-30h120l40 30 30 20 20 50v140l-20 50-30 20"/>
    </g>
    <g fill="#008484" stroke="#008484" stroke-width="60">
     <text x="35930" y="80810" font-size="660px" opacity="0" text-anchor="middle" lengthAdjust="spacingAndGlyphs" textLength="1060">Q3</text>
     <path d="m35880 80830-50-20-120-120-50-30h-40"/>
     <path d="m35640 80780-50-20-50-50-20-100v-160l20-100 50-40 50-30h90l50 30 50 40 20 100v160l-20 100-50 50-50 20h-90"/>
     <path d="m36020 80280h310l-170 190h70l50 30 30 20 20 50v120l-20 40-30 30-50 20h-140l-50-20-20-30"/>
     <text x="36880" y="81720" font-size="660px" opacity="0" text-anchor="middle" lengthAdjust="spacingAndGlyphs" textLength="2960">2N3904</text>
     <path d="m35520 81240 20-20 50-30h120l50 30 20 20 20 50v40l-20 80-290 280h310"/>
     <path d="m36020 81690v-500l280 500v-500"/>
     <path d="m36490 81190h310l-160 190h70l50 30 20 20 20 50v120l-20 40-20 30-50 20h-140l-50-20-30-30"/>
     <path d="m37040 81690h100l40-20 30-30 50-70 20-90v-190l-20-50-30-20-50-30h-90l-50 30-20 20-30 50v120l30 40 20 30 50 20h90l50-20 30-30 20-40"/>
     <path d="m37590 81190h50l40 30 30 20 20 50 30 90v120l-30 100-20 40-30 30-40 20h-50l-50-20-20-30-30-40-20-100v-120l20-90 30-50 20-20 50-30"/>
     <path d="m38180 81360v330"/>
     <path d="m38070 81170-120 350h310"/>
    </g>
    <g fill="#840000" stroke="#840000" stroke-width="100">
     <rect x="34100" y="75500" width="800" height="2e3" rx="0"/>
    </g>
    <g stroke-width="60">
     <g fill="#840000" stroke="#840000">
      <path d="m34500 75500v-500"/>
      <path d="m34500 77500v500"/>
     </g>
     <g fill="#008484" stroke="#008484">
      <text x="35720" y="76310" font-size="660px" opacity="0" text-anchor="middle" lengthAdjust="spacingAndGlyphs" textLength="1040">R9</text>
      <path d="m35630 76280-160-240"/>
      <path d="m35350 76280v-500h190l40 30 30 20 20 50v70l-20 50-30 20-40 20h-190"/>
      <path d="m35870 76280h100l40-20 30-30 40-70 30-90v-190l-30-50-20-20-50-30h-90l-50 30-20 20-30 50v120l30 40 20 30 50 20h90l50-20 20-30 30-40"/>
      <text x="35910" y="77220" font-size="660px" opacity="0" text-anchor="middle" lengthAdjust="spacingAndGlyphs" textLength="1420">10k</text>
      <path d="m35610 77190h-290"/>
      <path d="m35460 77190v-500l-40 70-50 50-50 20"/>
      <path d="m35920 76690h40l50 30 30 20 20 50 20 90v120l-20 100-20 40-30 30-50 20h-40l-50-20-20-30-30-40-20-100v-120l20-90 30-50 20-20 50-30"/>
      <path d="m36300 77190v-500"/>
      <path d="m36350 77000 140 190"/>
      <path d="m36490 76860-190 190"/>
     </g>
     <g fill="none" stroke="#840000">
      <path d="m34500 73500v-1e3"/>
      <path d="m34500 72500-500 750"/>
      <path d="m34500 72500 500 750"/>
     </g>
     <g fill="#008484" stroke="#008484">
      <text x="34550" y="72040" font-size="660px" opacity="0" text-anchor="middle" lengthAdjust="spacingAndGlyphs" textLength="2060">+12V</text>
      <path d="m33660 71820h390"/>
      <path d="m33850 72010v-380"/>
      <path d="m34550 72010h-290"/>
      <path d="m34400 72010v-500l-50 70-40 50-50 20"/>
      <path d="m34740 71560 20-20 50-30h120l40 30 30 20 20 50v40l-20 80-290 280h310"/>
      <path d="m35160 71510 170 500 170-500"/>
     </g>
     <g fill="none" stroke="#840000">
      <path d="m34250 85750h500"/>
      <path d="m34450 86000h100"/>
      <path d="m34500 85500v-500"/>
      <path d="m35000 85500h-1e3"/>
     </g>
     <g fill="#008484" stroke="#008484">
      <text x="34550" y="87000" font-size="660px" opacity="0" text-anchor="middle" lengthAdjust="spacingAndGlyphs" textLength="2960">GNDREF</text>
      <path d="m33470 86500-40-30h-80l-70 30-40 40-30 50-20 100v70l20 90 30 50 40 50 70 20h50l70-20 30-30v-160h-100"/>
      <path d="m33710 86970v-500l290 500v-500"/>
      <path d="m34240 86970v-500h110l80 30 40 40 30 50 20 100v70l-20 90-30 50-40 50-80 20h-110"/>
      <path d="m35020 86970-170-240"/>
      <path d="m34740 86970v-500h190l40 30 30 20 20 50v70l-20 50-30 20-40 20h-190"/>
      <path d="m35240 86710h160"/>
      <path d="m35470 86970h-230v-500h230"/>
      <path d="m35850 86710h-160"/>
      <path d="m35690 86970v-500h240"/>
     </g>
     <g fill="none" stroke="#840000">
      <path d="m23250 36750h500"/>
      <path d="m23450 37000h100"/>
      <path d="m23500 36500v-500"/>
      <path d="m24000 36500h-1e3"/>
     </g>
     <g fill="#008484" stroke="#008484">
      <text x="23550" y="38000" font-size="660px" opacity="0" text-anchor="middle" lengthAdjust="spacingAndGlyphs" textLength="2960">GNDREF</text>
      <path d="m22470 37500-40-30h-80l-70 30-40 40-30 50-20 100v70l20 90 30 50 40 50 70 20h50l70-20 30-30v-160h-100"/>
      <path d="m22710 37970v-500l290 500v-500"/>
      <path d="m23240 37970v-500h110l80 30 40 40 30 50 20 100v70l-20 90-30 50-40 50-80 20h-110"/>
      <path d="m24020 37970-170-240"/>
      <path d="m23740 37970v-500h190l40 30 30 20 20 50v70l-20 50-30 20-40 20h-190"/>
      <path d="m24240 37710h160"/>
      <path d="m24470 37970h-230v-500h230"/>
      <path d="m24850 37710h-160"/>
      <path d="m24690 37970v-500h240"/>
     </g>
    </g>
    <g stroke="#840000">
     <g fill="#840000" stroke-width="100">
      <circle cx="23000" cy="67500" r="1110"/>
     </g>
     <g fill="none" stroke-width="60">
      <path d="m22750 67250 750-750"/>
      <path d="m22750 67750 750 750"/>
     </g>
     <g stroke-width="200">
      <path d="m22750 66750v1500" fill="none" stroke="#840000" stroke-linecap="round" stroke-linejoin="round" stroke-width="200"/>
     </g>
    </g>
   </g>
   <g fill="#840000" fill-opacity="1" stroke="#840000" stroke-width="60">
    <path d="m23000 68200 200-200 200 400z" fill="#840000" fill-opacity="1" fill-rule="evenodd" stroke="#840000" stroke-linecap="round" stroke-linejoin="round" stroke-width="60"/>
   </g>
   <g fill-opacity="0">
    <g fill="#840000" stroke="#840000" stroke-width="60">
     <path d="m22750 67500h-2250"/>
     <text x="21620" y="68100" font-size="660px" opacity="0" text-anchor="middle" lengthAdjust="spacingAndGlyphs" textLength="540">1</text>
     <path d="m21760 68070h-290"/>
     <path d="m21620 68070v-500l-50 70-50 50-50 20"/>
     <path d="m23500 68500v1e3"/>
     <g transform="rotate(-90,23600,69000)">
      <text x="23600" y="69500" font-size="660px" opacity="0" text-anchor="middle" lengthAdjust="spacingAndGlyphs" textLength="540">2</text>
     </g>
     <path d="m23620 69140-20-30-30-40v-120l30-50 20-20 50-30h40l80 30 280 280v-310"/>
     <path d="m23500 66500v-1e3"/>
     <g transform="rotate(-90,23600,66000)">
      <text x="23600" y="66500" font-size="660px" opacity="0" text-anchor="middle" lengthAdjust="spacingAndGlyphs" textLength="540">3</text>
     </g>
     <path d="m23570 66160v-310l190 170v-70l30-50 20-20 50-30h120l40 30 30 20 20 50v140l-20 50-30 20"/>
    </g>
    <g fill="#008484" stroke="#008484" stroke-width="60">
     <text x="24930" y="67310" font-size="660px" opacity="0" text-anchor="middle" lengthAdjust="spacingAndGlyphs" textLength="1060">Q1</text>
     <path d="m24880 67330-50-20-120-120-50-30h-40"/>
     <path d="m24640 67280-50-20-50-50-20-100v-160l20-100 50-40 50-30h90l50 30 50 40 20 100v160l-20 100-50 50-50 20h-90"/>
     <path d="m25330 67280h-290"/>
     <path d="m25190 67280v-500l-50 70-50 50-50 20"/>
     <text x="25880" y="68220" font-size="660px" opacity="0" text-anchor="middle" lengthAdjust="spacingAndGlyphs" textLength="2960">2N3904</text>
     <path d="m24520 67740 20-20 50-30h120l50 30 20 20 20 50v40l-20 80-290 280h310"/>
     <path d="m25020 68190v-500l280 500v-500"/>
     <path d="m25490 67690h310l-160 190h70l50 30 20 20 20 50v120l-20 40-20 30-50 20h-140l-50-20-30-30"/>
     <path d="m26040 68190h100l40-20 30-30 50-70 20-90v-190l-20-50-30-20-50-30h-90l-50 30-20 20-30 50v120l30 40 20 30 50 20h90l50-20 30-30 20-40"/>
     <path d="m26590 67690h50l40 30 30 20 20 50 30 90v120l-30 100-20 40-30 30-40 20h-50l-50-20-20-30-30-40-20-100v-120l20-90 30-50 20-20 50-30"/>
     <path d="m27180 67860v330"/>
     <path d="m27070 67670-120 350h310"/>
    </g>
    <g fill="#840000" stroke="#840000" stroke-width="100">
     <rect x="23100" y="62000" width="800" height="2e3" rx="0"/>
    </g>
    <g stroke-width="60">
     <g fill="#840000" stroke="#840000">
      <path d="m23500 62000v-500"/>
      <path d="m23500 64000v500"/>
     </g>
     <g fill="#008484" stroke="#008484">
      <text x="22280" y="62810" font-size="660px" opacity="0" text-anchor="middle" lengthAdjust="spacingAndGlyphs" textLength="1040">R3</text>
      <path d="m22190 62780-160-240"/>
      <path d="m21910 62780v-500h190l40 30 30 20 20 50v70l-20 50-30 20-40 20h-190"/>
      <path d="m22360 62280h310l-170 190h70l50 30 20 20 30 50v120l-30 40-20 30-50 20h-140l-50-20-20-30"/>
      <text x="22090" y="63720" font-size="660px" opacity="0" text-anchor="middle" lengthAdjust="spacingAndGlyphs" textLength="1420">10k</text>
      <path d="m21790 63690h-290"/>
      <path d="m21640 63690v-500l-40 70-50 50-50 20"/>
      <path d="m22100 63190h40l50 30 30 20 20 50 20 90v120l-20 100-20 40-30 30-50 20h-40l-50-20-20-30-30-40-20-100v-120l20-90 30-50 20-20 50-30"/>
      <path d="m22480 63690v-500"/>
      <path d="m22530 63500 140 190"/>
      <path d="m22670 63360-190 190"/>
     </g>
     <g fill="none" stroke="#840000">
      <path d="m23500 6e4v-1e3"/>
      <path d="m23500 59000-500 750"/>
      <path d="m23500 59000 500 750"/>
     </g>
     <g fill="#008484" stroke="#008484">
      <text x="23550" y="58540" font-size="660px" opacity="0" text-anchor="middle" lengthAdjust="spacingAndGlyphs" textLength="2060">+12V</text>
      <path d="m22660 58320h390"/>
      <path d="m22850 58510v-380"/>
      <path d="m23550 58510h-290"/>
      <path d="m23400 58510v-500l-50 70-40 50-50 20"/>
      <path d="m23740 58060 20-20 50-30h120l40 30 30 20 20 50v40l-20 80-290 280h310"/>
      <path d="m24160 58010 170 500 170-500"/>
     </g>
     <g fill="none" stroke="#840000">
      <path d="m23250 72250h500"/>
      <path d="m23450 72500h100"/>
      <path d="m23500 72000v-500"/>
      <path d="m24000 72000h-1e3"/>
     </g>
     <g fill="#008484" stroke="#008484">
      <text x="23550" y="73500" font-size="660px" opacity="0" text-anchor="middle" lengthAdjust="spacingAndGlyphs" textLength="2960">GNDREF</text>
      <path d="m22470 73000-40-30h-80l-70 30-40 40-30 50-20 100v70l20 90 30 50 40 50 70 20h50l70-20 30-30v-160h-100"/>
      <path d="m22710 73470v-500l290 500v-500"/>
      <path d="m23240 73470v-500h110l80 30 40 40 30 50 20 100v70l-20 90-30 50-40 50-80 20h-110"/>
      <path d="m24020 73470-170-240"/>
      <path d="m23740 73470v-500h190l40 30 30 20 20 50v70l-20 50-30 20-40 20h-190"/>
      <path d="m24240 73210h160"/>
      <path d="m24470 73470h-230v-500h230"/>
      <path d="m24850 73210h-160"/>
      <path d="m24690 73470v-500h240"/>
     </g>
    </g>
    <g fill="#840000" stroke="#840000" stroke-width="100">
     <rect x="28000" y="80600" width="2e3" height="800" rx="0"/>
    </g>
    <g fill="#840000" stroke="#840000" stroke-width="60">
     <path d="m28000 81000h-500"/>
     <path d="m3e4 81000h500"/>
    </g>
    <g fill="#008484" stroke="#008484" stroke-width="60">
     <text x="29000" y="79150" font-size="660px" opacity="0" text-anchor="middle" lengthAdjust="spacingAndGlyphs" textLength="1040">R5</text>
     <path d="m28910 79120-160-240"/>
     <path d="m28630 79120v-500h190l40 30 30 20 20 50v70l-20 50-30 20-40 20h-190"/>
     <path d="m29360 78620h-230l-30 240 30-20 40-30h120l50 30 20 20 30 50v120l-30 40-20 30-50 20h-120l-40-20-30-30"/>
     <text x="29000" y="80060" font-size="660px" opacity="0" text-anchor="middle" lengthAdjust="spacingAndGlyphs" textLength="1420">47k</text>
     <path d="m28650 79700v330"/>
     <path d="m28530 79510-120 350h310"/>
     <path d="m28860 79530h340l-220 500"/>
     <path d="m29390 80030v-500"/>
     <path d="m29440 79840 140 190"/>
     <path d="m29580 79700-190 190"/>
    </g>
    <g stroke="#840000">
     <g stroke-width="100">
      <path d="m26500 65500v-1e3" fill="none" stroke="#840000" stroke-linecap="round" stroke-linejoin="round" stroke-width="100"/>
     </g>
     <g stroke-width="60">
      <path d="m25500 65000h1e3" fill="none" stroke="#840000" stroke-linecap="round" stroke-linejoin="round" stroke-width="60"/>
     </g>
     <g stroke-width="100">
      <path d="m25500 65500v-1e3l1e3 500z" fill="none" stroke="#840000" stroke-linecap="round" stroke-linejoin="round" stroke-width="100"/>
     </g>
     <g fill="#840000" stroke-width="60">
      <path d="m26500 65000h1e3"/>
      <path d="m25500 65000h-1e3"/>
     </g>
    </g>
    <g fill="#008484" stroke="#008484" stroke-width="60">
     <text x="26000" y="63050" font-size="660px" opacity="0" text-anchor="middle" lengthAdjust="spacingAndGlyphs" textLength="1040">D4</text>
     <path d="m25630 63020v-500h120l70 30 40 40 30 50 20 100v70l-20 90-30 50-40 50-70 20h-120"/>
     <path d="m26340 62690v330"/>
     <path d="m26220 62500-120 350h310"/>
     <text x="26000" y="63960" font-size="660px" opacity="0" text-anchor="middle" lengthAdjust="spacingAndGlyphs" textLength="2960">1N4148</text>
     <path d="m24920 63930h-280"/>
     <path d="m24780 63930v-500l-50 70-40 50-50 20"/>
     <path d="m25140 63930v-500l280 500v-500"/>
     <path d="m25880 63600v330"/>
     <path d="m25760 63410-120 350h310"/>
     <path d="m26400 63930h-290"/>
     <path d="m26260 63930v-500l-50 70-50 50-50 20"/>
     <path d="m26830 63600v330"/>
     <path d="m26710 63410-120 350h310"/>
     <path d="m27160 63650-50-30-20-20-20-50v-20l20-50 20-20 50-30h100l40 30 30 20 20 50v20l-20 50-30 20-40 30h-100l-50 20-20 20-20 50v100l20 40 20 30 50 20h100l40-20 30-30 20-40v-100l-20-50-30-20-40-20"/>
    </g>
    <g fill="#840000" stroke="#840000" stroke-width="100">
     <rect x="15600" y="64000" width="800" height="2e3" rx="0"/>
    </g>
    <g stroke-width="60">
     <g fill="#840000" stroke="#840000">
      <path d="m16000 66000v500"/>
      <path d="m16000 64000v-500"/>
     </g>
     <g fill="#008484" stroke="#008484">
      <g transform="rotate(-90,13900,65000)">
       <text x="13900" y="65250" font-size="660px" opacity="0" text-anchor="middle" lengthAdjust="spacingAndGlyphs" textLength="1040">R1</text>
      </g>
      <path d="m14120 65080-240 170"/>
      <path d="m14120 65360h-500v-190l30-40 20-30 50-20h70l50 20 20 30 20 40v190"/>
      <path d="m14120 64600v290"/>
      <path d="m14120 64750h-500l70 40 50 50 20 50"/>
      <g transform="rotate(-90,14810,65000)">
       <text x="14810" y="65250" font-size="660px" opacity="0" text-anchor="middle" lengthAdjust="spacingAndGlyphs" textLength="1890">100k</text>
      </g>
      <path d="m15030 65530v290"/>
      <path d="m15030 65670h-500l70 50 50 50 20 50"/>
      <path d="m14530 65220v-50l30-40 20-30 50-20 90-30h120l100 30 40 20 30 30 20 40v50l-20 50-30 20-40 30-100 20h-120l-90-20-50-30-20-20-30-50"/>
      <path d="m14530 64750v-50l30-50 20-20 50-30 90-20h120l100 20 40 30 30 20 20 50v50l-20 40-30 30-40 20-100 20h-120l-90-20-50-20-20-30-30-40"/>
      <path d="m15030 64360h-500"/>
      <path d="m14840 64320 190-150"/>
      <path d="m14700 64170 190 190"/>
     </g>
     <g fill="none" stroke="#840000">
      <path d="m16000 62000v-1e3"/>
      <path d="m16000 61000-500 750"/>
      <path d="m16000 61000 500 750"/>
     </g>
     <g fill="#008484" stroke="#008484">
      <text x="16050" y="60540" font-size="660px" opacity="0" text-anchor="middle" lengthAdjust="spacingAndGlyphs" textLength="2060">+12V</text>
      <path d="m15160 60320h390"/>
      <path d="m15350 60510v-380"/>
      <path d="m16050 60510h-290"/>
      <path d="m15900 60510v-500l-50 70-40 50-50 20"/>
      <path d="m16240 60060 20-20 50-30h120l40 30 30 20 20 50v40l-20 80-290 280h310"/>
      <path d="m16660 60010 170 500 170-500"/>
     </g>
    </g>
    <g fill="#840000" stroke="#840000" stroke-width="100">
     <rect x="17500" y="67100" width="2e3" height="800" rx="0"/>
    </g>
    <g fill="#840000" stroke="#840000" stroke-width="60">
     <path d="m19500 67500h500"/>
     <path d="m17500 67500h-500"/>
    </g>
    <g fill="#008484" stroke="#008484" stroke-width="60">
     <text x="18520" y="65720" font-size="660px" opacity="0" text-anchor="middle" lengthAdjust="spacingAndGlyphs" textLength="1040">R2</text>
     <path d="m18430 65690-160-240"/>
     <path d="m18150 65690v-500h190l40 30 30 20 20 50v70l-20 50-30 20-40 20h-190"/>
     <path d="m18620 65240 30-20 40-30h120l50 30 20 20 30 50v40l-30 80-280 280h310"/>
     <text x="18210" y="66720" font-size="660px" opacity="0" text-anchor="middle" lengthAdjust="spacingAndGlyphs" textLength="1420">10k</text>
     <path d="m17910 66690h-290"/>
     <path d="m17760 66690v-500l-40 70-50 50-50 20"/>
     <path d="m18220 66190h40l50 30 30 20 20 50 20 90v120l-20 100-20 40-30 30-50 20h-40l-50-20-20-30-30-40-20-100v-120l20-90 30-50 20-20 50-30"/>
     <path d="m18600 66690v-500"/>
     <path d="m18650 66500 140 190"/>
     <path d="m18790 66360-190 190"/>
    </g>
   </g>
   <g fill="#840000" stroke="#840000" stroke-width="60">
    <g fill-opacity="0">
     <rect x="15100" y="69600" width="1800" height="200" rx="0"/>
    </g>
    <g fill-opacity="1">
     <rect x="15100" y="70200" width="1800" height="200" rx="0"/>
    </g>
    <g fill-opacity="0">
     <path d="m15300 69100h400" fill="none" stroke="#840000" stroke-linecap="round" stroke-linejoin="round" stroke-width="60"/>
     <path d="m15500 68900v400" fill="none" stroke="#840000" stroke-linecap="round" stroke-linejoin="round" stroke-width="60"/>
     <path d="m16000 69600v-1100"/>
     <path d="m16000 70400v1100"/>
    </g>
   </g>
   <g fill-opacity="0">
    <g stroke-width="60">
     <g fill="#008484" stroke="#008484">
      <text x="17700" y="69810" font-size="660px" opacity="0" text-anchor="middle" lengthAdjust="spacingAndGlyphs" textLength="1040">C1</text>
      <path d="m17610 69730-20 30-70 20h-50l-70-20-50-50-20-50-30-90v-70l30-100 20-50 50-40 70-30h50l70 30 20 20"/>
      <path d="m18090 69780h-290"/>
      <path d="m17950 69780v-500l-50 70-50 50-50 20"/>
      <text x="17670" y="70720" font-size="660px" opacity="0" text-anchor="middle" lengthAdjust="spacingAndGlyphs" textLength="990">1u</text>
      <path d="m17580 70690h-280"/>
      <path d="m17440 70690v-500l-50 70-50 50-40 20"/>
      <path d="m18010 70360v330"/>
      <path d="m17800 70360v260l20 50 50 20h70l50-20 20-30"/>
     </g>
     <g fill="none" stroke="#840000">
      <path d="m15750 74250h500"/>
      <path d="m15950 74500h100"/>
      <path d="m16000 74000v-500"/>
      <path d="m16500 74000h-1e3"/>
     </g>
     <g fill="#008484" stroke="#008484">
      <text x="16050" y="75500" font-size="660px" opacity="0" text-anchor="middle" lengthAdjust="spacingAndGlyphs" textLength="2960">GNDREF</text>
      <path d="m14970 75000-40-30h-80l-70 30-40 40-30 50-20 100v70l20 90 30 50 40 50 70 20h50l70-20 30-30v-160h-100"/>
      <path d="m15210 75470v-500l290 500v-500"/>
      <path d="m15740 75470v-500h110l80 30 40 40 30 50 20 100v70l-20 90-30 50-40 50-80 20h-110"/>
      <path d="m16520 75470-170-240"/>
      <path d="m16240 75470v-500h190l40 30 30 20 20 50v70l-20 50-30 20-40 20h-190"/>
      <path d="m16740 75210h160"/>
      <path d="m16970 75470h-230v-500h230"/>
      <path d="m17350 75210h-160"/>
      <path d="m17190 75470v-500h240"/>
     </g>
    </g>
    <g fill="#840000" stroke="#840000" stroke-width="100">
     <rect x="28000" y="83600" width="2e3" height="800" rx="0"/>
    </g>
    <g fill="#840000" stroke="#840000" stroke-width="60">
     <path d="m28000 84000h-500"/>
     <path d="m3e4 84000h500"/>
    </g>
    <g fill="#008484" stroke="#008484" stroke-width="60">
     <text x="29000" y="82150" font-size="660px" opacity="0" text-anchor="middle" lengthAdjust="spacingAndGlyphs" textLength="1040">R6</text>
     <path d="m28910 82120-160-240"/>
     <path d="m28630 82120v-500h190l40 30 30 20 20 50v70l-20 50-30 20-40 20h-190"/>
     <path d="m29340 81620h-90l-50 30-30 20-40 70-30 100v190l30 40 20 30 50 20h90l50-20 20-30 30-40v-120l-30-50-20-20-50-30h-90l-50 30-20 20-30 50"/>
     <text x="29000" y="83060" font-size="660px" opacity="0" text-anchor="middle" lengthAdjust="spacingAndGlyphs" textLength="1420">47k</text>
     <path d="m28650 82700v330"/>
     <path d="m28530 82510-120 350h310"/>
     <path d="m28860 82530h340l-220 500"/>
     <path d="m29390 83030v-500"/>
     <path d="m29440 82840 140 190"/>
     <path d="m29580 82700-190 190"/>
    </g>
    <g stroke="#840000">
     <g stroke-width="100">
      <path d="m25500 84500v-1e3" fill="none" stroke="#840000" stroke-linecap="round" stroke-linejoin="round" stroke-width="100"/>
     </g>
     <g stroke-width="60">
      <path d="m24500 84000h1e3" fill="none" stroke="#840000" stroke-linecap="round" stroke-linejoin="round" stroke-width="60"/>
     </g>
     <g stroke-width="100">
      <path d="m24500 84500v-1e3l1e3 500z" fill="none" stroke="#840000" stroke-linecap="round" stroke-linejoin="round" stroke-width="100"/>
     </g>
     <g fill="#840000" stroke-width="60">
      <path d="m25500 84000h1e3"/>
      <path d="m24500 84000h-1e3"/>
     </g>
    </g>
    <g fill="#008484" stroke="#008484" stroke-width="60">
     <text x="25000" y="82050" font-size="660px" opacity="0" text-anchor="middle" lengthAdjust="spacingAndGlyphs" textLength="1040">D3</text>
     <path d="m24630 82020v-500h120l70 30 40 40 30 50 20 100v70l-20 90-30 50-40 50-70 20h-120"/>
     <path d="m25080 81520h310l-170 190h70l50 30 20 20 30 50v120l-30 40-20 30-50 20h-140l-50-20-20-30"/>
     <text x="25000" y="82960" font-size="660px" opacity="0" text-anchor="middle" lengthAdjust="spacingAndGlyphs" textLength="2960">1N4148</text>
     <path d="m23920 82930h-280"/>
     <path d="m23780 82930v-500l-50 70-40 50-50 20"/>
     <path d="m24140 82930v-500l280 500v-500"/>
     <path d="m24880 82600v330"/>
     <path d="m24760 82410-120 350h310"/>
     <path d="m25400 82930h-290"/>
     <path d="m25260 82930v-500l-50 70-50 50-50 20"/>
     <path d="m25830 82600v330"/>
     <path d="m25710 82410-120 350h310"/>
     <path d="m26160 82650-50-30-20-20-20-50v-20l20-50 20-20 50-30h100l40 30 30 20 20 50v20l-20 50-30 20-40 30h-100l-50 20-20 20-20 50v100l20 40 20 30 50 20h100l40-20 30-30 20-40v-100l-20-50-30-20-40-20"/>
    </g>
   </g>
   <g fill="#ffffc2" fill-opacity=".6" stroke="#ffffc2" stroke-width="0">
    <rect x="10700" y="79750" width="2800" height="3e3" rx="0"/>
   </g>
   <g fill="#840000" stroke="#840000">
    <g fill-opacity="0" stroke-width="100">
     <rect x="10700" y="79750" width="2800" height="3e3" rx="0"/>
    </g>
    <g fill-opacity="1" stroke-width="60">
     <rect x="10450" y="8e4" width="300" height="1e3" rx="0"/>
    </g>
    <g fill-opacity="0" stroke-width="100">
     <rect x="10700" y="79750" width="2800" height="3e3" rx="0"/>
    </g>
   </g>
   <g fill-opacity="0">
    <g stroke="#840000">
     <g stroke-width="60">
      <path d="m13200 80900 100-200" fill="none" stroke="#840000" stroke-linecap="round" stroke-linejoin="round" stroke-width="60"/>
     </g>
     <g stroke-width="100">
      <path d="m12500 81000 250-250 250 250h500" fill="none" stroke="#840000" stroke-linecap="round" stroke-linejoin="round" stroke-width="100"/>
     </g>
     <g stroke-width="60">
      <path d="m13500 8e4h-300v900l-100-200" fill="none" stroke="#840000" stroke-linecap="round" stroke-linejoin="round" stroke-width="60"/>
     </g>
     <g stroke-width="100">
      <path d="m13500 82000h-2e3v-1e3l-250-250-250 250" fill="none" stroke="#840000" stroke-linecap="round" stroke-linejoin="round" stroke-width="100"/>
     </g>
     <g fill="#840000" stroke-width="60">
      <path d="m13500 82000h1e3"/>
      <text x="14000" y="81900" font-size="660px" opacity="0" text-anchor="middle" lengthAdjust="spacingAndGlyphs" textLength="540">S</text>
      <path d="m13850 81850 70 20h120l50-20 20-30 30-40v-50l-30-50-20-20-50-30-90-20-50-20-20-30-30-50v-40l30-50 20-20 50-30h120l70 30"/>
      <path d="m13500 81000h1e3"/>
      <text x="14000" y="80900" font-size="660px" opacity="0" text-anchor="middle" lengthAdjust="spacingAndGlyphs" textLength="440">T</text>
      <path d="m13850 80370h290"/>
      <path d="m14000 80870v-500"/>
      <path d="m13500 8e4h1e3"/>
      <text x="14000" y="79900" font-size="660px" opacity="0" text-anchor="middle" lengthAdjust="spacingAndGlyphs" textLength="960">TN</text>
      <path d="m13590 79370h290"/>
      <path d="m13730 79870v-500"/>
      <path d="m14040 79870v-500l290 500v-500"/>
     </g>
    </g>
    <g stroke-width="60">
     <g fill="#008484" stroke="#008484">
      <text x="9710" y="81010" font-size="660px" opacity="0" text-anchor="middle" lengthAdjust="spacingAndGlyphs" textLength="920">J2</text>
      <path d="m9540 80480v360l-30 70-40 50-70 20h-50"/>
      <path d="m9750 80530 30-20 40-30h120l50 30 20 20 30 50v40l-30 80-280 280h310"/>
      <text x="9010" y="81920" font-size="660px" opacity="0" text-anchor="middle" lengthAdjust="spacingAndGlyphs" textLength="2320">RESET</text>
      <path d="m8280 81890-170-240"/>
      <path d="m7990 81890v-500h190l50 30 30 20 20 50v70l-20 50-30 20-50 20h-190"/>
      <path d="m8490 81630h170"/>
      <path d="m8730 81890h-240v-500h240"/>
      <path d="m8920 81870 70 20h120l50-20 20-30 30-40v-50l-30-50-20-20-50-30-90-20-50-20-20-30-30-50v-40l30-50 20-20 50-30h120l70 30"/>
      <path d="m9420 81630h170"/>
      <path d="m9660 81890h-240v-500h240"/>
      <path d="m9800 81390h290"/>
      <path d="m9950 81890v-500"/>
     </g>
     <g fill="none" stroke="#840000">
      <path d="m14750 85750h500"/>
      <path d="m14950 86000h100"/>
      <path d="m15000 85500v-500"/>
      <path d="m15500 85500h-1e3"/>
     </g>
     <g fill="#008484" stroke="#008484">
      <text x="15050" y="87000" font-size="660px" opacity="0" text-anchor="middle" lengthAdjust="spacingAndGlyphs" textLength="2960">GNDREF</text>
      <path d="m13970 86500-40-30h-80l-70 30-40 40-30 50-20 100v70l20 90 30 50 40 50 70 20h50l70-20 30-30v-160h-100"/>
      <path d="m14210 86970v-500l290 500v-500"/>
      <path d="m14740 86970v-500h110l80 30 40 40 30 50 20 100v70l-20 90-30 50-40 50-80 20h-110"/>
      <path d="m15520 86970-170-240"/>
      <path d="m15240 86970v-500h190l40 30 30 20 20 50v70l-20 50-30 20-40 20h-190"/>
      <path d="m15740 86710h160"/>
      <path d="m15970 86970h-230v-500h230"/>
      <path d="m16350 86710h-160"/>
      <path d="m16190 86970v-500h240"/>
     </g>
     <g fill="none" stroke="#840000">
      <path d="m22750 88750h500"/>
      <path d="m22950 89000h100"/>
      <path d="m23000 88500v-500"/>
      <path d="m23500 88500h-1e3"/>
     </g>
     <g fill="#008484" stroke="#008484">
      <text x="23050" y="90000" font-size="660px" opacity="0" text-anchor="middle" lengthAdjust="spacingAndGlyphs" textLength="2960">GNDREF</text>
      <path d="m21970 89500-40-30h-80l-70 30-40 40-30 50-20 100v70l20 90 30 50 40 50 70 20h50l70-20 30-30v-160h-100"/>
      <path d="m22210 89970v-500l290 500v-500"/>
      <path d="m22740 89970v-500h110l80 30 40 40 30 50 20 100v70l-20 90-30 50-40 50-80 20h-110"/>
      <path d="m23520 89970-170-240"/>
      <path d="m23240 89970v-500h190l40 30 30 20 20 50v70l-20 50-30 20-40 20h-190"/>
      <path d="m23740 89710h160"/>
      <path d="m23970 89970h-230v-500h230"/>
      <path d="m24350 89710h-160"/>
      <path d="m24190 89970v-500h240"/>
     </g>
    </g>
   </g>
   <g stroke-width="60">
    <g fill="#840000" fill-opacity="1" stroke="#840000">
     <rect x="20500" y="84950" width="340" height="100" rx="0"/>
     <rect x="20500" y="83950" width="340" height="100" rx="0"/>
    </g>
    <g fill-opacity="0">
     <g fill="#840000" stroke="#840000">
      <path d="m21000 85000h-160" fill="none" stroke="#840000" stroke-linecap="round" stroke-linejoin="round" stroke-width="60"/>
      <path d="m21000 84000h-160" fill="none" stroke="#840000" stroke-linecap="round" stroke-linejoin="round" stroke-width="60"/>
      <path d="m21000 84000h1500"/>
      <text x="21750" y="83900" font-size="660px" opacity="0" text-anchor="middle" lengthAdjust="spacingAndGlyphs" textLength="540">1</text>
      <path d="m21890 83870h-290"/>
      <path d="m21750 83870v-500l-50 70-50 50-50 20"/>
      <path d="m21000 85000h1500"/>
      <text x="21750" y="84900" font-size="660px" opacity="0" text-anchor="middle" lengthAdjust="spacingAndGlyphs" textLength="540">2</text>
      <path d="m21600 84420 30-20 40-30h120l50 30 20 20 30 50v40l-30 80-280 280h310"/>
     </g>
     <g fill="#008484" stroke="#008484">
      <text x="19760" y="85450" font-size="660px" opacity="0" text-anchor="middle" lengthAdjust="spacingAndGlyphs" textLength="920">J3</text>
      <path d="m19590 84920v360l-30 70-40 50-70 20h-50"/>
      <path d="m19780 84920h310l-170 190h70l50 30 20 20 30 50v120l-30 40-20 30-50 20h-140l-50-20-20-30"/>
      <text x="20880" y="82770" font-size="660px" opacity="0" text-anchor="middle" lengthAdjust="spacingAndGlyphs" textLength="4230">RESET GND</text>
      <path d="m19200 82740-170-240"/>
      <path d="m18910 82740v-500h190l50 30 20 20 30 50v70l-30 50-20 20-50 20h-190"/>
      <path d="m19410 82480h170"/>
      <path d="m19650 82740h-240v-500h240"/>
      <path d="m19840 82720 70 20h120l50-20 20-30 30-40v-50l-30-50-20-20-50-30-100-20-40-20-30-30-20-50v-40l20-50 30-20 40-30h120l80 30"/>
      <path d="m20340 82480h170"/>
      <path d="m20580 82740h-240v-500h240"/>
      <path d="m20720 82240h290"/>
      <path d="m20860 82740v-500"/>
      <path d="m21820 82270-50-30h-70l-70 30-50 40-30 50-20 100v70l20 90 30 50 50 50 70 20h40l80-20 20-30v-160h-100"/>
      <path d="m22050 82740v-500l290 500v-500"/>
      <path d="m22580 82740v-500h120l70 30 50 40 20 50 20 100v70l-20 90-20 50-50 50-70 20h-120"/>
     </g>
     <g fill="none" stroke="#840000">
      <path d="m15250 13750h500"/>
      <path d="m15450 14000h100"/>
      <path d="m15500 13500v-500"/>
      <path d="m16000 13500h-1e3"/>
     </g>
     <g fill="#008484" stroke="#008484">
      <text x="15550" y="15000" font-size="660px" opacity="0" text-anchor="middle" lengthAdjust="spacingAndGlyphs" textLength="2960">GNDREF</text>
      <path d="m14470 14500-40-30h-80l-70 30-40 40-30 50-20 100v70l20 90 30 50 40 50 70 20h50l70-20 30-30v-160h-100"/>
      <path d="m14710 14970v-500l290 500v-500"/>
      <path d="m15240 14970v-500h110l80 30 40 40 30 50 20 100v70l-20 90-30 50-40 50-80 20h-110"/>
      <path d="m16020 14970-170-240"/>
      <path d="m15740 14970v-500h190l40 30 30 20 20 50v70l-20 50-30 20-40 20h-190"/>
      <path d="m16240 14710h160"/>
      <path d="m16470 14970h-230v-500h230"/>
      <path d="m16850 14710h-160"/>
      <path d="m16690 14970v-500h240"/>
     </g>
    </g>
    <g fill="#840000" fill-opacity="1" stroke="#840000">
     <rect x="13000" y="9950" width="340" height="100" rx="0"/>
     <rect x="13000" y="10950" width="340" height="100" rx="0"/>
    </g>
   </g>
   <g fill-opacity="0">
    <g fill="#840000" stroke="#840000" stroke-width="60">
     <path d="m13500 1e4h-160" fill="none" stroke="#840000" stroke-linecap="round" stroke-linejoin="round" stroke-width="60"/>
     <path d="m13500 11000h-160" fill="none" stroke="#840000" stroke-linecap="round" stroke-linejoin="round" stroke-width="60"/>
     <path d="m13500 11000h1500"/>
     <text x="14250" y="10900" font-size="660px" opacity="0" text-anchor="middle" lengthAdjust="spacingAndGlyphs" textLength="540">1</text>
     <path d="m14390 10870h-290"/>
     <path d="m14250 10870v-500l-50 70-50 50-50 20"/>
     <path d="m13500 1e4h1500"/>
     <text x="14250" y="9900" font-size="660px" opacity="0" text-anchor="middle" lengthAdjust="spacingAndGlyphs" textLength="540">2</text>
     <path d="m14100 9420 30-20 40-30h120l50 30 20 20 30 50v40l-30 80-280 280h310"/>
    </g>
    <g fill="#008484" stroke="#008484" stroke-width="60">
     <text x="12020" y="10040" font-size="660px" opacity="0" text-anchor="middle" lengthAdjust="spacingAndGlyphs" textLength="1390">J10</text>
     <path d="m11610 9510v360l-20 70-50 50-70 20h-50"/>
     <path d="m12110 10010h-290"/>
     <path d="m11970 10010v-500l-50 70-50 50-50 20"/>
     <path d="m12420 9510h50l50 30 20 20 20 50 30 90v120l-30 100-20 40-20 30-50 20h-50l-50-20-20-30-30-40-20-100v-120l20-90 30-50 20-20 50-30"/>
     <text x="13360" y="12720" font-size="660px" opacity="0" text-anchor="middle" lengthAdjust="spacingAndGlyphs" textLength="4270">CLKTN GND</text>
     <path d="m11650 12640-20 30-70 20h-50l-70-20-50-50-20-50-30-90v-70l30-100 20-50 50-40 70-30h50l70 30 20 20"/>
     <path d="m12110 12690h-240v-500"/>
     <path d="m12270 12690v-500"/>
     <path d="m12560 12690-220-280"/>
     <path d="m12560 12190-290 290"/>
     <path d="m12700 12190h290"/>
     <path d="m12840 12690v-500"/>
     <path d="m13150 12690v-500l290 500v-500"/>
     <path d="m14320 12220-50-30h-70l-70 30-50 40-20 50-30 100v70l30 90 20 50 50 50 70 20h50l70-20 20-30v-160h-90"/>
     <path d="m14560 12690v-500l280 500v-500"/>
     <path d="m15080 12690v-500h120l70 30 50 40 20 50 30 100v70l-30 90-20 50-50 50-70 20h-120"/>
    </g>
    <g stroke="#840000">
     <g stroke-width="100">
      <path d="m25500 81500v-1e3" fill="none" stroke="#840000" stroke-linecap="round" stroke-linejoin="round" stroke-width="100"/>
     </g>
     <g stroke-width="60">
      <path d="m24500 81000h1e3" fill="none" stroke="#840000" stroke-linecap="round" stroke-linejoin="round" stroke-width="60"/>
     </g>
     <g stroke-width="100">
      <path d="m24500 81500v-1e3l1e3 500z" fill="none" stroke="#840000" stroke-linecap="round" stroke-linejoin="round" stroke-width="100"/>
     </g>
     <g fill="#840000" stroke-width="60">
      <path d="m25500 81000h1e3"/>
      <path d="m24500 81000h-1e3"/>
     </g>
    </g>
    <g fill="#008484" stroke="#008484" stroke-width="60">
     <text x="25000" y="79050" font-size="660px" opacity="0" text-anchor="middle" lengthAdjust="spacingAndGlyphs" textLength="1040">D2</text>
     <path d="m24630 79020v-500h120l70 30 40 40 30 50 20 100v70l-20 90-30 50-40 50-70 20h-120"/>
     <path d="m25100 78570 30-20 40-30h120l50 30 20 20 30 50v40l-30 80-280 280h310"/>
     <text x="25000" y="79960" font-size="660px" opacity="0" text-anchor="middle" lengthAdjust="spacingAndGlyphs" textLength="2960">1N4148</text>
     <path d="m23920 79930h-280"/>
     <path d="m23780 79930v-500l-50 70-40 50-50 20"/>
     <path d="m24140 79930v-500l280 500v-500"/>
     <path d="m24880 79600v330"/>
     <path d="m24760 79410-120 350h310"/>
     <path d="m25400 79930h-290"/>
     <path d="m25260 79930v-500l-50 70-50 50-50 20"/>
     <path d="m25830 79600v330"/>
     <path d="m25710 79410-120 350h310"/>
     <path d="m26160 79650-50-30-20-20-20-50v-20l20-50 20-20 50-30h100l40 30 30 20 20 50v20l-20 50-30 20-40 30h-100l-50 20-20 20-20 50v100l20 40 20 30 50 20h100l40-20 30-30 20-40v-100l-20-50-30-20-40-20"/>
    </g>
    <g stroke="#840000">
     <g fill="#840000" stroke-width="100">
      <circle cx="28000" cy="2e4" r="1110"/>
     </g>
     <g fill="none" stroke-width="60">
      <path d="m27750 19750 750-750"/>
      <path d="m27750 20250 750 750"/>
     </g>
     <g stroke-width="200">
      <path d="m27750 19250v1500" fill="none" stroke="#840000" stroke-linecap="round" stroke-linejoin="round" stroke-width="200"/>
     </g>
    </g>
   </g>
   <g fill="#840000" fill-opacity="1" stroke="#840000" stroke-width="60">
    <path d="m28000 20700 200-200 200 400z" fill="#840000" fill-opacity="1" fill-rule="evenodd" stroke="#840000" stroke-linecap="round" stroke-linejoin="round" stroke-width="60"/>
   </g>
   <g fill-opacity="0">
    <g fill="#840000" stroke="#840000" stroke-width="60">
     <path d="m27750 2e4h-2250"/>
     <text x="26620" y="20600" font-size="660px" opacity="0" text-anchor="middle" lengthAdjust="spacingAndGlyphs" textLength="540">1</text>
     <path d="m26760 20570h-290"/>
     <path d="m26620 20570v-500l-50 70-50 50-50 20"/>
     <path d="m28500 21000v1e3"/>
     <g transform="rotate(-90,28600,21500)">
      <text x="28600" y="22000" font-size="660px" opacity="0" text-anchor="middle" lengthAdjust="spacingAndGlyphs" textLength="540">2</text>
     </g>
     <path d="m28620 21640-20-30-30-40v-120l30-50 20-20 50-30h40l80 30 280 280v-310"/>
     <path d="m28500 19000v-1e3"/>
     <g transform="rotate(-90,28600,18500)">
      <text x="28600" y="19000" font-size="660px" opacity="0" text-anchor="middle" lengthAdjust="spacingAndGlyphs" textLength="540">3</text>
     </g>
     <path d="m28570 18660v-310l190 170v-70l30-50 20-20 50-30h120l40 30 30 20 20 50v140l-20 50-30 20"/>
    </g>
    <g fill="#008484" stroke="#008484" stroke-width="60">
     <text x="29930" y="19810" font-size="660px" opacity="0" text-anchor="middle" lengthAdjust="spacingAndGlyphs" textLength="1060">Q2</text>
     <path d="m29880 19830-50-20-120-120-50-30h-40"/>
     <path d="m29640 19780-50-20-50-50-20-100v-160l20-100 50-40 50-30h90l50 30 50 40 20 100v160l-20 100-50 50-50 20h-90"/>
     <path d="m30040 19330 30-20 50-30h110l50 30 30 20 20 50v40l-20 80-290 280h310"/>
     <text x="30880" y="20720" font-size="660px" opacity="0" text-anchor="middle" lengthAdjust="spacingAndGlyphs" textLength="2960">2N3904</text>
     <path d="m29520 20240 20-20 50-30h120l50 30 20 20 20 50v40l-20 80-290 280h310"/>
     <path d="m30020 20690v-500l280 500v-500"/>
     <path d="m30490 20190h310l-160 190h70l50 30 20 20 20 50v120l-20 40-20 30-50 20h-140l-50-20-30-30"/>
     <path d="m31040 20690h100l40-20 30-30 50-70 20-90v-190l-20-50-30-20-50-30h-90l-50 30-20 20-30 50v120l30 40 20 30 50 20h90l50-20 30-30 20-40"/>
     <path d="m31590 20190h50l40 30 30 20 20 50 30 90v120l-30 100-20 40-30 30-40 20h-50l-50-20-20-30-30-40-20-100v-120l20-90 30-50 20-20 50-30"/>
     <path d="m32180 20360v330"/>
     <path d="m32070 20170-120 350h310"/>
    </g>
    <g fill="#840000" stroke="#840000" stroke-width="100">
     <rect x="28100" y="14500" width="800" height="2e3" rx="0"/>
    </g>
    <g stroke-width="60">
     <g fill="#840000" stroke="#840000">
      <path d="m28500 14500v-500"/>
      <path d="m28500 16500v500"/>
     </g>
     <g fill="#008484" stroke="#008484">
      <text x="29720" y="15310" font-size="660px" opacity="0" text-anchor="middle" lengthAdjust="spacingAndGlyphs" textLength="1040">R8</text>
      <path d="m29630 15280-160-240"/>
      <path d="m29350 15280v-500h190l40 30 30 20 20 50v70l-20 50-30 20-40 20h-190"/>
      <path d="m29920 15000-50-30-20-20-30-50v-20l30-50 20-20 50-30h90l50 30 20 20 30 50v20l-30 50-20 20-50 30h-90l-50 20-20 20-30 50v100l30 40 20 30 50 20h90l50-20 20-30 30-40v-100l-30-50-20-20-50-20"/>
      <text x="29910" y="16220" font-size="660px" opacity="0" text-anchor="middle" lengthAdjust="spacingAndGlyphs" textLength="1420">10k</text>
      <path d="m29610 16190h-290"/>
      <path d="m29460 16190v-500l-40 70-50 50-50 20"/>
      <path d="m29920 15690h40l50 30 30 20 20 50 20 90v120l-20 100-20 40-30 30-50 20h-40l-50-20-20-30-30-40-20-100v-120l20-90 30-50 20-20 50-30"/>
      <path d="m30300 16190v-500"/>
      <path d="m30350 16000 140 190"/>
      <path d="m30490 15860-190 190"/>
     </g>
     <g fill="none" stroke="#840000">
      <path d="m28500 12500v-1e3"/>
      <path d="m28500 11500-500 750"/>
      <path d="m28500 11500 500 750"/>
     </g>
     <g fill="#008484" stroke="#008484">
      <text x="28550" y="11040" font-size="660px" opacity="0" text-anchor="middle" lengthAdjust="spacingAndGlyphs" textLength="2060">+12V</text>
      <path d="m27660 10820h390"/>
      <path d="m27850 11010v-380"/>
      <path d="m28550 11010h-290"/>
      <path d="m28400 11010v-500l-50 70-40 50-50 20"/>
      <path d="m28740 10560 20-20 50-30h120l40 30 30 20 20 50v40l-20 80-290 280h310"/>
      <path d="m29160 10510 170 500 170-500"/>
     </g>
     <g fill="none" stroke="#840000">
      <path d="m27000 34000v-1e3"/>
      <path d="m27000 33000-500 750"/>
      <path d="m27000 33000 500 750"/>
     </g>
     <g fill="#008484" stroke="#008484">
      <text x="27050" y="32540" font-size="660px" opacity="0" text-anchor="middle" lengthAdjust="spacingAndGlyphs" textLength="2060">+12V</text>
      <path d="m26160 32320h390"/>
      <path d="m26350 32510v-380"/>
      <path d="m27050 32510h-290"/>
      <path d="m26900 32510v-500l-50 70-40 50-50 20"/>
      <path d="m27240 32060 20-20 50-30h120l40 30 30 20 20 50v40l-20 80-290 280h310"/>
      <path d="m27660 32010 170 500 170-500"/>
     </g>
    </g>
    <g fill="none" stroke="#840000" stroke-width="200">
     <path d="m25800 36300v-1600"/>
     <path d="m25200 36300v-1600"/>
    </g>
    <g stroke-width="60">
     <g fill="#840000" stroke="#840000">
      <path d="m25100 35500h-1100"/>
      <path d="m25900 35500h1100"/>
     </g>
     <g fill="#008484" stroke="#008484">
      <text x="25500" y="33200" font-size="660px" opacity="0" text-anchor="middle" lengthAdjust="spacingAndGlyphs" textLength="1040">C2</text>
      <path d="m25410 33120-20 30-70 20h-50l-70-20-50-50-20-50-30-90v-70l30-100 20-50 50-40 70-30h50l70 30 20 20"/>
      <path d="m25600 32720 30-20 40-30h120l50 30 20 20 30 50v40l-30 80-280 280h310"/>
      <text x="25500" y="34110" font-size="660px" opacity="0" text-anchor="middle" lengthAdjust="spacingAndGlyphs" textLength="1940">100n</text>
      <path d="m24940 34080h-290"/>
      <path d="m24790 34080v-500l-40 70-50 50-50 20"/>
      <path d="m25250 33580h40l50 30 20 20 30 50 20 90v120l-20 100-30 40-20 30-50 20h-40l-50-20-30-30-20-40-20-100v-120l20-90 20-50 30-20 50-30"/>
      <path d="m25720 33580h50l50 30 20 20 20 50 30 90v120l-30 100-20 40-20 30-50 20h-50l-50-20-20-30-20-40-30-100v-120l30-90 20-50 20-20 50-30"/>
      <path d="m26100 33750v330"/>
      <path d="m26100 33800 30-30 40-20h70l50 20 30 50v260"/>
     </g>
     <g fill="#840000" stroke="#840000">
      <rect x="24500" y="39500" width="5e3" height="7e3" rx="0"/>
      <path d="m27000 39500"/>
     </g>
     <g fill="#008484" stroke="#008484">
      <g transform="rotate(-90,27000,39800)">
       <text x="27000" y="40050" font-size="660px" opacity="0" text-anchor="end" lengthAdjust="spacingAndGlyphs" textLength="1490">VDD</text>
      </g>
      <path d="m26720 41210 500-170-500-170"/>
      <path d="m27220 40710h-500v-120l30-70 40-50 50-30 100-20h70l90 20 50 30 50 50 20 70v120"/>
      <path d="m27220 40210h-500v-120l30-70 40-50 50-30 100-20h70l90 20 50 30 50 50 20 70v120"/>
     </g>
     <g fill="#840000" stroke="#840000">
      <g transform="rotate(-90,26900,39500)">
       <text x="26900" y="39500" font-size="660px" opacity="0" text-anchor="middle" lengthAdjust="spacingAndGlyphs" textLength="1010">14</text>
      </g>
      <path d="m26870 39590v290"/>
      <path d="m26870 39730h-500l70 50 50 50 20 50"/>
      <path d="m26540 39160h330"/>
      <path d="m26350 39280 350 120v-310"/>
      <path d="m27000 46500"/>
     </g>
     <g fill="#008484" stroke="#008484">
      <g transform="rotate(-90,27000,46200)">
       <text x="27000" y="46450" font-size="660px" opacity="0" lengthAdjust="spacingAndGlyphs" textLength="1440">VSS</text>
      </g>
      <path d="m26720 46120 500-170-500-170"/>
      <path d="m27200 45640 20-70v-120l-20-50-30-20-40-20h-50l-50 20-20 20-30 50-20 100-20 40-30 30-50 20h-40l-50-20-20-30-30-40v-120l30-70"/>
      <path d="m27200 45170 20-80v-120l-20-40-30-30-40-20h-50l-50 20-20 30-30 40-20 100-20 50-30 20-50 30h-40l-50-30-20-20-30-50v-120l30-70"/>
     </g>
     <g fill="#840000" stroke="#840000">
      <g transform="rotate(-90,26900,46500)">
       <text x="26900" y="46500" font-size="660px" opacity="0" text-anchor="middle" lengthAdjust="spacingAndGlyphs" textLength="540">7</text>
      </g>
      <path d="m26370 46660v-330l500 210"/>
      <circle cx="24250" cy="41500" r="250"/>
      <path d="m24000 41500h-2500"/>
      <path d="m24500 41750 500-250-500-250"/>
     </g>
     <g fill="#008484" stroke="#008484">
      <text x="24800" y="41750" font-size="660px" opacity="0" lengthAdjust="spacingAndGlyphs" textLength="1460">~CLK</text>
      <path d="m24830 41080h500"/>
      <path d="m25230 41670-20 30-80 20h-40l-70-20-50-50-30-50-20-90v-70l20-100 30-50 50-40 70-30h40l80 30 20 20"/>
      <path d="m25330 41080h400"/>
      <path d="m25680 41720h-240v-500"/>
      <path d="m25730 41080h500"/>
      <path d="m25850 41720v-500"/>
      <path d="m26130 41720-210-280"/>
      <path d="m26130 41220-280 290"/>
     </g>
     <g fill="#840000" stroke="#840000">
      <text x="23000" y="41400" font-size="660px" opacity="0" text-anchor="middle" lengthAdjust="spacingAndGlyphs" textLength="540">1</text>
      <path d="m23140 41370h-290"/>
      <path d="m23000 41370v-500l-50 70-50 50-50 20"/>
      <path d="m29500 41000h3e3"/>
     </g>
     <g fill="#008484" stroke="#008484">
      <text x="29200" y="41250" font-size="660px" opacity="0" text-anchor="end" lengthAdjust="spacingAndGlyphs" textLength="1060">Q1</text>
      <path d="m28620 41270-50-20-120-120-50-30h-40"/>
      <path d="m28380 41220-50-20-50-50-20-100v-160l20-100 50-40 50-30h90l50 30 50 40 20 100v160l-20 100-50 50-50 20h-90"/>
      <path d="m29070 41220h-290"/>
      <path d="m28930 41220v-500l-50 70-50 50-50 20"/>
     </g>
     <g fill="#840000" stroke="#840000">
      <text x="31000" y="40900" font-size="660px" opacity="0" text-anchor="middle" lengthAdjust="spacingAndGlyphs" textLength="1010">11</text>
      <path d="m30900 40870h-290"/>
      <path d="m30760 40870v-500l-50 70-50 50-50 20"/>
      <path d="m31380 40870h-290"/>
      <path d="m31230 40870v-500l-40 70-50 50-50 20"/>
      <path d="m29500 4e4h3e3"/>
     </g>
     <g fill="#008484" stroke="#008484">
      <text x="29200" y="40250" font-size="660px" opacity="0" text-anchor="end" lengthAdjust="spacingAndGlyphs" textLength="1060">Q0</text>
      <path d="m28620 40270-50-20-120-120-50-30h-40"/>
      <path d="m28380 40220-50-20-50-50-20-100v-160l20-100 50-40 50-30h90l50 30 50 40 20 100v160l-20 100-50 50-50 20h-90"/>
      <path d="m28900 39720h50l50 30 20 20 30 50 20 90v120l-20 100-30 40-20 30-50 20h-50l-40-20-30-30-20-40-30-100v-120l30-90 20-50 30-20 40-30"/>
     </g>
     <g fill="#840000" stroke="#840000">
      <text x="31000" y="39900" font-size="660px" opacity="0" text-anchor="middle" lengthAdjust="spacingAndGlyphs" textLength="1010">12</text>
      <path d="m30900 39870h-290"/>
      <path d="m30760 39870v-500l-50 70-50 50-50 20"/>
      <path d="m31090 39420 20-20 50-30h120l50 30 20 20 30 50v40l-30 80-280 280h310"/>
      <path d="m24500 43000h-3e3"/>
     </g>
     <g fill="#008484" stroke="#008484">
      <text x="24800" y="43250" font-size="660px" opacity="0" lengthAdjust="spacingAndGlyphs" textLength="1130">MR</text>
      <path d="m24940 43220v-500l170 360 170-360v500"/>
      <path d="m25800 43220-170-240"/>
      <path d="m25520 43220v-500h190l40 30 30 20 20 50v70l-20 50-30 20-40 20h-190"/>
     </g>
     <g fill="#840000" stroke="#840000">
      <text x="23000" y="42900" font-size="660px" opacity="0" text-anchor="middle" lengthAdjust="spacingAndGlyphs" textLength="540">2</text>
      <path d="m22850 42420 30-20 40-30h120l50 30 20 20 30 50v40l-30 80-280 280h310"/>
      <path d="m29500 46000h3e3"/>
     </g>
     <g fill="#008484" stroke="#008484">
      <text x="29200" y="46250" font-size="660px" opacity="0" text-anchor="end" lengthAdjust="spacingAndGlyphs" textLength="1060">Q6</text>
      <path d="m28620 46270-50-20-120-120-50-30h-40"/>
      <path d="m28380 46220-50-20-50-50-20-100v-160l20-100 50-40 50-30h90l50 30 50 40 20 100v160l-20 100-50 50-50 20h-90"/>
      <path d="m29020 45720h-90l-50 30-20 20-50 70-30 100v190l30 40 20 30 50 20h90l50-20 30-30 20-40v-120l-20-50-30-20-50-30h-90l-50 30-20 20-30 50"/>
     </g>
     <g fill="#840000" stroke="#840000">
      <text x="31000" y="45900" font-size="660px" opacity="0" text-anchor="middle" lengthAdjust="spacingAndGlyphs" textLength="540">3</text>
      <path d="m30830 45370h310l-170 190h70l50 30 20 20 30 50v120l-30 40-20 30-50 20h-140l-50-20-20-30"/>
      <path d="m29500 45000h3e3"/>
     </g>
     <g fill="#008484" stroke="#008484">
      <text x="29200" y="45250" font-size="660px" opacity="0" text-anchor="end" lengthAdjust="spacingAndGlyphs" textLength="1060">Q5</text>
      <path d="m28620 45270-50-20-120-120-50-30h-40"/>
      <path d="m28380 45220-50-20-50-50-20-100v-160l20-100 50-40 50-30h90l50 30 50 40 20 100v160l-20 100-50 50-50 20h-90"/>
      <path d="m29050 44720h-240l-30 240 30-20 50-30h110l50 30 30 20 20 50v120l-20 40-30 30-50 20h-110l-50-20-30-30"/>
     </g>
     <g fill="#840000" stroke="#840000">
      <text x="31000" y="44900" font-size="660px" opacity="0" text-anchor="middle" lengthAdjust="spacingAndGlyphs" textLength="540">4</text>
      <path d="m31090 44540v330"/>
      <path d="m30970 44350-120 350h310"/>
      <path d="m29500 44000h3e3"/>
     </g>
     <g fill="#008484" stroke="#008484">
      <text x="29200" y="44250" font-size="660px" opacity="0" text-anchor="end" lengthAdjust="spacingAndGlyphs" textLength="1060">Q4</text>
      <path d="m28620 44270-50-20-120-120-50-30h-40"/>
      <path d="m28380 44220-50-20-50-50-20-100v-160l20-100 50-40 50-30h90l50 30 50 40 20 100v160l-20 100-50 50-50 20h-90"/>
      <path d="m29020 43890v330"/>
      <path d="m28900 43700-120 350h310"/>
     </g>
     <g fill="#840000" stroke="#840000">
      <text x="31000" y="43900" font-size="660px" opacity="0" text-anchor="middle" lengthAdjust="spacingAndGlyphs" textLength="540">5</text>
      <path d="m31110 43370h-230l-30 240 30-20 40-30h120l50 30 20 20 30 50v120l-30 40-20 30-50 20h-120l-40-20-30-30"/>
      <path d="m29500 43000h3e3"/>
     </g>
     <g fill="#008484" stroke="#008484">
      <text x="29200" y="43250" font-size="660px" opacity="0" text-anchor="end" lengthAdjust="spacingAndGlyphs" textLength="1060">Q3</text>
      <path d="m28620 43270-50-20-120-120-50-30h-40"/>
      <path d="m28380 43220-50-20-50-50-20-100v-160l20-100 50-40 50-30h90l50 30 50 40 20 100v160l-20 100-50 50-50 20h-90"/>
      <path d="m28760 42720h310l-170 190h70l50 30 30 20 20 50v120l-20 40-30 30-50 20h-140l-50-20-20-30"/>
     </g>
     <g fill="#840000" stroke="#840000">
      <text x="31000" y="42900" font-size="660px" opacity="0" text-anchor="middle" lengthAdjust="spacingAndGlyphs" textLength="540">6</text>
      <path d="m31090 42370h-90l-50 30-30 20-40 70-30 100v190l30 40 20 30 50 20h90l50-20 20-30 30-40v-120l-30-50-20-20-50-30h-90l-50 30-20 20-30 50"/>
      <path d="m29500 42000h3e3"/>
     </g>
     <g fill="#008484" stroke="#008484">
      <text x="29200" y="42250" font-size="660px" opacity="0" text-anchor="end" lengthAdjust="spacingAndGlyphs" textLength="1060">Q2</text>
      <path d="m28620 42270-50-20-120-120-50-30h-40"/>
      <path d="m28380 42220-50-20-50-50-20-100v-160l20-100 50-40 50-30h90l50 30 50 40 20 100v160l-20 100-50 50-50 20h-90"/>
      <path d="m28780 41770 30-20 50-30h110l50 30 30 20 20 50v40l-20 80-290 280h310"/>
     </g>
     <g fill="#840000" stroke="#840000">
      <text x="31000" y="41900" font-size="660px" opacity="0" text-anchor="middle" lengthAdjust="spacingAndGlyphs" textLength="540">9</text>
      <path d="m30900 41870h100l40-20 30-30 40-70 30-90v-190l-30-50-20-20-50-30h-90l-50 30-20 20-30 50v120l30 40 20 30 50 20h90l50-20 20-30 30-40"/>
     </g>
     <g fill="#008484" stroke="#008484">
      <text x="27000" y="37610" font-size="660px" opacity="0" text-anchor="middle" lengthAdjust="spacingAndGlyphs" textLength="1060">U1</text>
      <path d="m26610 37080v410l30 40 20 30 50 20h90l50-20 30-30 20-40v-410"/>
      <path d="m27400 37580h-290"/>
      <path d="m27260 37580v-500l-50 70-50 50-50 20"/>
      <text x="27000" y="38520" font-size="660px" opacity="0" text-anchor="middle" lengthAdjust="spacingAndGlyphs" textLength="1960">4024</text>
      <path d="m26380 38160v330"/>
      <path d="m26260 37970-120 350h310"/>
      <path d="m26730 37990h50l50 30 20 20 30 50 20 90v120l-20 100-30 40-20 30-50 20h-50l-40-20-30-30-20-40-30-100v-120l30-90 20-50 30-20 40-30"/>
      <path d="m27090 38040 20-20 50-30h120l50 30 20 20 30 50v40l-30 80-280 280h310"/>
      <path d="m27800 38160v330"/>
      <path d="m27690 37970-120 350h310"/>
     </g>
    </g>
   </g>
   <g fill="#ffffc2" fill-opacity=".6" stroke="#ffffc2" stroke-width="0">
    <rect x="10700" y="18750" width="2800" height="3e3" rx="0"/>
   </g>
   <g fill="#840000" stroke="#840000">
    <g fill-opacity="0" stroke-width="100">
     <rect x="10700" y="18750" width="2800" height="3e3" rx="0"/>
    </g>
    <g fill-opacity="1" stroke-width="60">
     <rect x="10450" y="19000" width="300" height="1e3" rx="0"/>
    </g>
    <g fill-opacity="0" stroke-width="100">
     <rect x="10700" y="18750" width="2800" height="3e3" rx="0"/>
    </g>
   </g>
   <g fill-opacity="0">
    <g stroke="#840000">
     <g stroke-width="60">
      <path d="m13200 19900 100-200" fill="none" stroke="#840000" stroke-linecap="round" stroke-linejoin="round" stroke-width="60"/>
     </g>
     <g stroke-width="100">
      <path d="m12500 2e4 250-250 250 250h500" fill="none" stroke="#840000" stroke-linecap="round" stroke-linejoin="round" stroke-width="100"/>
     </g>
     <g stroke-width="60">
      <path d="m13500 19000h-300v900l-100-200" fill="none" stroke="#840000" stroke-linecap="round" stroke-linejoin="round" stroke-width="60"/>
     </g>
     <g stroke-width="100">
      <path d="m13500 21000h-2e3v-1e3l-250-250-250 250" fill="none" stroke="#840000" stroke-linecap="round" stroke-linejoin="round" stroke-width="100"/>
     </g>
     <g fill="#840000" stroke-width="60">
      <path d="m13500 21000h1e3"/>
      <text x="14000" y="20900" font-size="660px" opacity="0" text-anchor="middle" lengthAdjust="spacingAndGlyphs" textLength="540">S</text>
      <path d="m13850 20850 70 20h120l50-20 20-30 30-40v-50l-30-50-20-20-50-30-90-20-50-20-20-30-30-50v-40l30-50 20-20 50-30h120l70 30"/>
      <path d="m13500 2e4h1e3"/>
      <text x="14000" y="19900" font-size="660px" opacity="0" text-anchor="middle" lengthAdjust="spacingAndGlyphs" textLength="440">T</text>
      <path d="m13850 19370h290"/>
      <path d="m14000 19870v-500"/>
      <path d="m13500 19000h1e3"/>
      <text x="14000" y="18900" font-size="660px" opacity="0" text-anchor="middle" lengthAdjust="spacingAndGlyphs" textLength="960">TN</text>
      <path d="m13590 18370h290"/>
      <path d="m13730 18870v-500"/>
      <path d="m14040 18870v-500l290 500v-500"/>
     </g>
    </g>
    <g stroke-width="60">
     <g fill="#008484" stroke="#008484">
      <text x="9710" y="20010" font-size="660px" opacity="0" text-anchor="middle" lengthAdjust="spacingAndGlyphs" textLength="920">J1</text>
      <path d="m9540 19480v360l-30 70-40 50-70 20h-50"/>
      <path d="m10040 19980h-290"/>
      <path d="m9900 19980v-500l-50 70-50 50-50 20"/>
      <text x="9440" y="20920" font-size="660px" opacity="0" text-anchor="middle" lengthAdjust="spacingAndGlyphs" textLength="1460">CLK</text>
      <path d="m9140 20840-30 30-70 20h-50l-70-20-40-50-30-50-20-90v-70l20-100 30-50 40-40 70-30h50l70 30 30 20"/>
      <path d="m9590 20890h-240v-500"/>
      <path d="m9760 20890v-500"/>
      <path d="m10040 20890-210-280"/>
      <path d="m10040 20390-280 290"/>
     </g>
     <g fill="none" stroke="#840000">
      <path d="m14750 24750h500"/>
      <path d="m14950 25000h100"/>
      <path d="m15000 24500v-500"/>
      <path d="m15500 24500h-1e3"/>
     </g>
     <g fill="#008484" stroke="#008484">
      <text x="15050" y="26000" font-size="660px" opacity="0" text-anchor="middle" lengthAdjust="spacingAndGlyphs" textLength="2960">GNDREF</text>
      <path d="m13970 25500-40-30h-80l-70 30-40 40-30 50-20 100v70l20 90 30 50 40 50 70 20h50l70-20 30-30v-160h-100"/>
      <path d="m14210 25970v-500l290 500v-500"/>
      <path d="m14740 25970v-500h110l80 30 40 40 30 50 20 100v70l-20 90-30 50-40 50-80 20h-110"/>
      <path d="m15520 25970-170-240"/>
      <path d="m15240 25970v-500h190l40 30 30 20 20 50v70l-20 50-30 20-40 20h-190"/>
      <path d="m15740 25710h160"/>
      <path d="m15970 25970h-230v-500h230"/>
      <path d="m16350 25710h-160"/>
      <path d="m16190 25970v-500h240"/>
     </g>
    </g>
    <g stroke="#840000">
     <g stroke-width="100">
      <path d="m19500 20500v-1e3" fill="none" stroke="#840000" stroke-linecap="round" stroke-linejoin="round" stroke-width="100"/>
     </g>
     <g stroke-width="60">
      <path d="m18500 2e4h1e3" fill="none" stroke="#840000" stroke-linecap="round" stroke-linejoin="round" stroke-width="60"/>
     </g>
     <g stroke-width="100">
      <path d="m18500 20500v-1e3l1e3 500z" fill="none" stroke="#840000" stroke-linecap="round" stroke-linejoin="round" stroke-width="100"/>
     </g>
     <g fill="#840000" stroke-width="60">
      <path d="m19500 2e4h1e3"/>
      <path d="m18500 2e4h-1e3"/>
     </g>
    </g>
    <g fill="#008484" stroke="#008484" stroke-width="60">
     <text x="19000" y="18050" font-size="660px" opacity="0" text-anchor="middle" lengthAdjust="spacingAndGlyphs" textLength="1040">D1</text>
     <path d="m18630 18020v-500h120l70 30 40 40 30 50 20 100v70l-20 90-30 50-40 50-70 20h-120"/>
     <path d="m19390 18020h-290"/>
     <path d="m19250 18020v-500l-50 70-50 50-50 20"/>
     <text x="19000" y="18960" font-size="660px" opacity="0" text-anchor="middle" lengthAdjust="spacingAndGlyphs" textLength="2960">1N4148</text>
     <path d="m17920 18930h-280"/>
     <path d="m17780 18930v-500l-50 70-40 50-50 20"/>
     <path d="m18140 18930v-500l280 500v-500"/>
     <path d="m18880 18600v330"/>
     <path d="m18760 18410-120 350h310"/>
     <path d="m19400 18930h-290"/>
     <path d="m19260 18930v-500l-50 70-50 50-50 20"/>
     <path d="m19830 18600v330"/>
     <path d="m19710 18410-120 350h310"/>
     <path d="m20160 18650-50-30-20-20-20-50v-20l20-50 20-20 50-30h100l40 30 30 20 20 50v20l-20 50-30 20-40 30h-100l-50 20-20 20-20 50v100l20 40 20 30 50 20h100l40-20 30-30 20-40v-100l-20-50-30-20-40-20"/>
    </g>
    <g fill="#840000" stroke="#840000" stroke-width="100">
     <rect x="22000" y="19600" width="2e3" height="800" rx="0"/>
    </g>
    <g fill="#840000" stroke="#840000" stroke-width="60">
     <path d="m22000 2e4h-500"/>
     <path d="m24000 2e4h500"/>
    </g>
    <g fill="#008484" stroke="#008484" stroke-width="60">
     <text x="23000" y="18150" font-size="660px" opacity="0" text-anchor="middle" lengthAdjust="spacingAndGlyphs" textLength="1040">R4</text>
     <path d="m22910 18120-160-240"/>
     <path d="m22630 18120v-500h190l40 30 30 20 20 50v70l-20 50-30 20-40 20h-190"/>
     <path d="m23340 17790v330"/>
     <path d="m23220 17600-120 350h310"/>
     <text x="23000" y="19060" font-size="660px" opacity="0" text-anchor="middle" lengthAdjust="spacingAndGlyphs" textLength="1420">47k</text>
     <path d="m22650 18700v330"/>
     <path d="m22530 18510-120 350h310"/>
     <path d="m22860 18530h340l-220 500"/>
     <path d="m23390 19030v-500"/>
     <path d="m23440 18840 140 190"/>
     <path d="m23580 18700-190 190"/>
    </g>
   </g>
  </g>
  <g transform="translate(-4938.5 -6173.2)" fill="#008400" stroke="#008400" stroke-width="60">
   <path d="m16000 67500h1e3"/>
   <path d="m28500 12500v1500"/>
   <path d="m22500 84000h1e3"/>
   <path d="m26500 84000h1e3"/>
   <path d="m31000 81000h-500"/>
   <path d="m23500 36000v-500"/>
   <path d="m16000 71500v2e3"/>
   <path d="m20500 2e4h1e3"/>
   <path d="m16000 67500v-1e3"/>
   <path d="m14500 2e4h3e3"/>
   <path d="m16000 68500v-1e3"/>
   <path d="m27000 48000v-1500"/>
   <path d="m14500 19000h500"/>
   <path d="m24500 2e4h1e3"/>
   <path d="m16000 62000v1500"/>
   <path d="m31000 84000v-3e3"/>
   <path d="m15000 19000v-8e3"/>
   <path d="m15500 1e4v3e3"/>
   <path d="m15500 1e4h-500"/>
   <path d="m23000 85000v3e3"/>
   <path d="m23000 85000h-500"/>
   <path d="m28500 17500v500"/>
   <path d="m15000 82000v3e3"/>
   <path d="m14500 81000h9e3"/>
   <path d="m39500 76000h3500"/>
   <path d="m22500 71000h1e3"/>
   <path d="m30500 84000h500"/>
   <path d="m31000 65000v16000"/>
   <path d="m2e4 67500h500"/>
   <path d="m15000 8e4v2e3"/>
   <path d="m14500 8e4h500"/>
   <path d="m14500 82000h500"/>
   <path d="m28500 17000v500"/>
   <path d="m23500 71000v500"/>
   <path d="m34500 73500v1500"/>
   <path d="m23500 35500h500"/>
   <path d="m28500 22000v2e3"/>
   <path d="m27000 35500v4e3"/>
   <path d="m2e4 43000h1500"/>
   <path d="m27000 34000v1500"/>
   <path d="m39500 76000v500"/>
   <path d="m39500 75500v500"/>
   <path d="m39500 71000v1500"/>
   <path d="m39500 80500v2e3"/>
   <path d="m36500 78500h-2e3"/>
   <path d="m34500 78500v500"/>
   <path d="m34500 78000v500"/>
   <path d="m28000 65000h-500"/>
   <path d="m34500 83000v2e3"/>
   <path d="m28500 17500h3500"/>
   <path d="m23500 65000v500"/>
   <path d="m26500 81000h1e3"/>
   <path d="m24500 65000h-1e3"/>
   <path d="m23500 64500v500"/>
   <path d="m31500 81000h-500"/>
   <path d="m21500 41500h-1500"/>
   <path d="m15000 21000h-500"/>
   <path d="m23500 69500v1500"/>
   <path d="m23500 6e4v1500"/>
   <path d="m15000 21000v3e3"/>
  </g>
  <g stroke="#848400">
   <g transform="translate(-4938.5 -6173.2)" fill="#848400" stroke-width="60">
    <text x="32600" y="17750" font-size="660px" opacity="0" lengthAdjust="spacingAndGlyphs" textLength="4060">CLOCK_INV</text>
    <path d="m33030 17670-20 30-80 20h-40l-70-20-50-50-30-50-20-90v-70l20-100 30-50 50-40 70-30h40l80 30 20 20"/>
    <path d="m33480 17720h-240v-500"/>
    <path d="m33740 17220h100l50 30 40 40 30 100v160l-30 100-40 50-50 20h-100l-40-20-50-50-20-100v-160l20-100 50-40 40-30"/>
    <path d="m34460 17670-30 30-70 20h-40l-80-20-40-50-30-50-20-90v-70l20-100 30-50 40-40 80-30h40l70 30 30 20"/>
    <path d="m34670 17720v-500"/>
    <path d="m34960 17720-220-280"/>
    <path d="m34960 17220-290 290"/>
    <path d="m35050 17770h380"/>
    <path d="m35550 17720v-500"/>
    <path d="m35790 17720v-500l290 500v-500"/>
    <path d="m36240 17220 170 500 170-500"/>
   </g>
   <g transform="translate(-4938.5 -6173.2)" stroke-width="100">
    <path d="m32000 17500 250 250h250v-500h-250z" fill="none" stroke="#848400" stroke-linecap="round" stroke-linejoin="round" stroke-width="100"/>
   </g>
   <g transform="translate(-4938.5 -6173.2)" fill="#848400" stroke-width="60">
    <text x="19400" y="43250" font-size="660px" opacity="0" text-anchor="end" lengthAdjust="spacingAndGlyphs" textLength="2320">RESET</text>
    <path d="m17510 43220-170-240"/>
    <path d="m17220 43220v-500h190l50 30 20 20 30 50v70l-30 50-20 20-50 20h-190"/>
    <path d="m17720 42960h170"/>
    <path d="m17960 43220h-240v-500h240"/>
    <path d="m18150 43200 70 20h120l50-20 20-30 30-40v-50l-30-50-20-20-50-30-90-20-50-20-30-30-20-50v-40l20-50 30-20 50-30h120l70 30"/>
    <path d="m18650 42960h170"/>
    <path d="m18890 43220h-240v-500h240"/>
    <path d="m19030 42720h290"/>
    <path d="m19170 43220v-500"/>
   </g>
   <g transform="translate(-4938.5 -6173.2)" stroke-width="100">
    <path d="m2e4 43000-250-250h-250v500h250z" fill="none" stroke="#848400" stroke-linecap="round" stroke-linejoin="round" stroke-width="100"/>
   </g>
   <g transform="translate(-4938.5 -6173.2)" fill="#848400" stroke-width="60">
    <text x="43600" y="76250" font-size="660px" opacity="0" lengthAdjust="spacingAndGlyphs" textLength="2320">RESET</text>
    <path d="m44030 76220-170-240"/>
    <path d="m43740 76220v-500h190l50 30 30 20 20 50v70l-20 50-30 20-50 20h-190"/>
    <path d="m44240 75960h170"/>
    <path d="m44480 76220h-240v-500h240"/>
    <path d="m44670 76200 70 20h120l50-20 20-30 30-40v-50l-30-50-20-20-50-30-90-20-50-20-20-30-30-50v-40l30-50 20-20 50-30h120l70 30"/>
    <path d="m45170 75960h170"/>
    <path d="m45410 76220h-240v-500h240"/>
    <path d="m45550 75720h290"/>
    <path d="m45700 76220v-500"/>
   </g>
   <g transform="translate(-4938.5 -6173.2)" stroke-width="100">
    <path d="m43000 76000 250 250h250v-500h-250z" fill="none" stroke="#848400" stroke-linecap="round" stroke-linejoin="round" stroke-width="100"/>
   </g>
   <g transform="translate(-4938.5 -6173.2)" fill="#848400" stroke-width="60">
    <text x="33100" y="46250" font-size="660px" opacity="0" lengthAdjust="spacingAndGlyphs" textLength="1960">OUT7</text>
    <path d="m33340 45720h90l50 30 50 40 20 100v160l-20 100-50 50-50 20h-90l-50-20-50-50-20-100v-160l20-100 50-40 50-30"/>
    <path d="m33770 45720v410l20 40 30 30 40 20h100l50-20 20-30 20-40v-410"/>
    <path d="m34220 45720h290"/>
    <path d="m34360 46220v-500"/>
    <path d="m34630 45720h330l-220 500"/>
   </g>
   <g transform="translate(-4938.5 -6173.2)" stroke-width="100">
    <path d="m32500 46000 250 250h250v-500h-250z" fill="none" stroke="#848400" stroke-linecap="round" stroke-linejoin="round" stroke-width="100"/>
   </g>
   <g transform="translate(-4938.5 -6173.2)" fill="#848400" stroke-width="60">
    <text x="33100" y="45250" font-size="660px" opacity="0" lengthAdjust="spacingAndGlyphs" textLength="1960">OUT6</text>
    <path d="m33340 44720h90l50 30 50 40 20 100v160l-20 100-50 50-50 20h-90l-50-20-50-50-20-100v-160l20-100 50-40 50-30"/>
    <path d="m33770 44720v410l20 40 30 30 40 20h100l50-20 20-30 20-40v-410"/>
    <path d="m34220 44720h290"/>
    <path d="m34360 45220v-500"/>
    <path d="m34890 44720h-100l-50 30-20 20-50 70-20 100v190l20 40 30 30 40 20h100l50-20 20-30 20-40v-120l-20-50-20-20-50-30h-100l-40 30-30 20-20 50"/>
   </g>
   <g transform="translate(-4938.5 -6173.2)" stroke-width="100">
    <path d="m33000 45000-250-250h-250v500h250z" fill="none" stroke="#848400" stroke-linecap="round" stroke-linejoin="round" stroke-width="100"/>
   </g>
   <g transform="translate(-4938.5 -6173.2)" fill="#848400" stroke-width="60">
    <text x="19400" y="41750" font-size="660px" opacity="0" text-anchor="end" lengthAdjust="spacingAndGlyphs" textLength="4060">CLOCK_INV</text>
    <path d="m15770 41670-20 30-80 20h-40l-70-20-50-50-30-50-20-90v-70l20-100 30-50 50-40 70-30h40l80 30 20 20"/>
    <path d="m16220 41720h-240v-500"/>
    <path d="m16480 41220h100l50 30 40 40 30 100v160l-30 100-40 50-50 20h-100l-40-20-50-50-20-100v-160l20-100 50-40 40-30"/>
    <path d="m17200 41670-30 30-70 20h-40l-80-20-40-50-30-50-20-90v-70l20-100 30-50 40-40 80-30h40l70 30 30 20"/>
    <path d="m17410 41720v-500"/>
    <path d="m17700 41720-220-280"/>
    <path d="m17700 41220-290 290"/>
    <path d="m17790 41770h380"/>
    <path d="m18290 41720v-500"/>
    <path d="m18530 41720v-500l290 500v-500"/>
    <path d="m18980 41220 170 500 170-500"/>
   </g>
   <g transform="translate(-4938.5 -6173.2)" stroke-width="100">
    <path d="m2e4 41500-250-250h-250v500h250z" fill="none" stroke="#848400" stroke-linecap="round" stroke-linejoin="round" stroke-width="100"/>
   </g>
   <g transform="translate(-4938.5 -6173.2)" fill="#848400" stroke-width="60">
    <text x="33100" y="44250" font-size="660px" opacity="0" lengthAdjust="spacingAndGlyphs" textLength="1960">OUT5</text>
    <path d="m33340 43720h90l50 30 50 40 20 100v160l-20 100-50 50-50 20h-90l-50-20-50-50-20-100v-160l20-100 50-40 50-30"/>
    <path d="m33770 43720v410l20 40 30 30 40 20h100l50-20 20-30 20-40v-410"/>
    <path d="m34220 43720h290"/>
    <path d="m34360 44220v-500"/>
    <path d="m34910 43720h-240l-20 240 20-20 50-30h120l50 30 20 20 20 50v120l-20 40-20 30-50 20h-120l-50-20-20-30"/>
   </g>
   <g transform="translate(-4938.5 -6173.2)" stroke-width="100">
    <path d="m33000 44000-250-250h-250v500h250z" fill="none" stroke="#848400" stroke-linecap="round" stroke-linejoin="round" stroke-width="100"/>
   </g>
   <g transform="translate(-4938.5 -6173.2)" fill="#848400" stroke-width="60">
    <text x="33100" y="43250" font-size="660px" opacity="0" lengthAdjust="spacingAndGlyphs" textLength="1960">OUT4</text>
    <path d="m33340 42720h90l50 30 50 40 20 100v160l-20 100-50 50-50 20h-90l-50-20-50-50-20-100v-160l20-100 50-40 50-30"/>
    <path d="m33770 42720v410l20 40 30 30 40 20h100l50-20 20-30 20-40v-410"/>
    <path d="m34220 42720h290"/>
    <path d="m34360 43220v-500"/>
    <path d="m34890 42890v330"/>
    <path d="m34770 42700-120 350h310"/>
   </g>
   <g transform="translate(-4938.5 -6173.2)" stroke-width="100">
    <path d="m33000 43000-250-250h-250v500h250z" fill="none" stroke="#848400" stroke-linecap="round" stroke-linejoin="round" stroke-width="100"/>
   </g>
   <g transform="translate(-4938.5 -6173.2)" fill="#848400" stroke-width="60">
    <text x="33100" y="42250" font-size="660px" opacity="0" lengthAdjust="spacingAndGlyphs" textLength="1960">OUT3</text>
    <path d="m33340 41720h90l50 30 50 40 20 100v160l-20 100-50 50-50 20h-90l-50-20-50-50-20-100v-160l20-100 50-40 50-30"/>
    <path d="m33770 41720v410l20 40 30 30 40 20h100l50-20 20-30 20-40v-410"/>
    <path d="m34220 41720h290"/>
    <path d="m34360 42220v-500"/>
    <path d="m34630 41720h300l-160 190h70l50 30 20 20 20 50v120l-20 40-20 30-50 20h-140l-50-20-20-30"/>
   </g>
   <g transform="translate(-4938.5 -6173.2)" stroke-width="100">
    <path d="m33000 42000-250-250h-250v500h250z" fill="none" stroke="#848400" stroke-linecap="round" stroke-linejoin="round" stroke-width="100"/>
   </g>
   <g transform="translate(-4938.5 -6173.2)" fill="#848400" stroke-width="60">
    <text x="33100" y="41250" font-size="660px" opacity="0" lengthAdjust="spacingAndGlyphs" textLength="1960">OUT2</text>
    <path d="m33340 40720h90l50 30 50 40 20 100v160l-20 100-50 50-50 20h-90l-50-20-50-50-20-100v-160l20-100 50-40 50-30"/>
    <path d="m33770 40720v410l20 40 30 30 40 20h100l50-20 20-30 20-40v-410"/>
    <path d="m34220 40720h290"/>
    <path d="m34360 41220v-500"/>
    <path d="m34650 40770 20-20 50-30h120l50 30 20 20 20 50v40l-20 80-280 280h300"/>
   </g>
   <g transform="translate(-4938.5 -6173.2)" stroke-width="100">
    <path d="m33000 41000-250-250h-250v500h250z" fill="none" stroke="#848400" stroke-linecap="round" stroke-linejoin="round" stroke-width="100"/>
   </g>
   <g transform="translate(-4938.5 -6173.2)" fill="#848400" stroke-width="60">
    <text x="33100" y="40250" font-size="660px" opacity="0" lengthAdjust="spacingAndGlyphs" textLength="1960">OUT1</text>
    <path d="m33340 39720h90l50 30 50 40 20 100v160l-20 100-50 50-50 20h-90l-50-20-50-50-20-100v-160l20-100 50-40 50-30"/>
    <path d="m33770 39720v410l20 40 30 30 40 20h100l50-20 20-30 20-40v-410"/>
    <path d="m34220 39720h290"/>
    <path d="m34360 40220v-500"/>
    <path d="m34930 40220h-280"/>
    <path d="m34790 40220v-500l-50 70-40 50-50 20"/>
   </g>
   <g transform="translate(-4938.5 -6173.2)" stroke-width="100">
    <path d="m33000 4e4-250-250h-250v500h250z" fill="none" stroke="#848400" stroke-linecap="round" stroke-linejoin="round" stroke-width="100"/>
   </g>
  </g>
 </g>
 <g transform="translate(-4938.5 -6173.2)" fill="#008400" stroke="#008400" stroke-linecap="round" stroke-linejoin="round" stroke-width="100">
  <circle cx="15000" cy="82000" r="200"/>
  <circle cx="34500" cy="78500" r="200"/>
  <circle cx="16000" cy="67500" r="200"/>
  <circle cx="39500" cy="76000" r="200"/>
  <circle cx="28500" cy="17500" r="200"/>
  <circle cx="23500" cy="71000" r="200"/>
  <circle cx="23500" cy="65000" r="200"/>
  <circle cx="27000" cy="35500" r="200"/>
  <circle cx="31000" cy="81000" r="200"/>
 </g>
</svg>
