<?xml version="1.0" encoding="UTF-8"?>
<svg width="7.999cm" height="5.0012cm" version="1.1" viewBox="0 0 31492 19690" xmlns="http://www.w3.org/2000/svg">
 <style/>
 <title>SVG Picture created as output-output1.svg date 2021/11/05 21:07:03</title>
 <desc>Picture generated by Eeschema-SVG</desc>
 <g fill-opacity="0" stroke-linecap="round" stroke-linejoin="round">
  <g transform="translate(-6562.2 -10605)" stroke-width="0">
   <g fill-opacity="0" stroke="#840000">
    <g fill="#840000" stroke-width="100">
     <circle cx="18000" cy="17500" r="1110"/>
    </g>
    <g fill="none" stroke-width="60">
     <path d="m17750 17250 750-750"/>
     <path d="m17750 17750 750 750"/>
    </g>
    <g stroke-width="200">
     <path d="m17750 16750v1500" fill="none" stroke="#840000" stroke-linecap="round" stroke-linejoin="round" stroke-width="200"/>
    </g>
   </g>
   <g fill="#840000" fill-opacity="1" stroke="#840000" stroke-width="60">
    <path d="m18000 18200 200-200 200 400z" fill="#840000" fill-opacity="1" fill-rule="evenodd" stroke="#840000" stroke-linecap="round" stroke-linejoin="round" stroke-width="60"/>
   </g>
   <g fill-opacity="0">
    <g fill="#840000" stroke="#840000" stroke-width="60">
     <path d="m17750 17500h-2250"/>
     <text x="16620" y="18100" font-size="660px" opacity="0" text-anchor="middle" lengthAdjust="spacingAndGlyphs" textLength="540">1</text>
     <path d="m16760 18070h-290"/>
     <path d="m16620 18070v-500l-50 70-50 50-50 20"/>
     <path d="m18500 18500v1e3"/>
     <g transform="rotate(-90,18600,19000)">
      <text x="18600" y="19500" font-size="660px" opacity="0" text-anchor="middle" lengthAdjust="spacingAndGlyphs" textLength="540">2</text>
     </g>
     <path d="m18620 19140-20-30-30-40v-120l30-50 20-20 50-30h40l80 30 280 280v-310"/>
     <path d="m18500 16500v-1e3"/>
     <g transform="rotate(-90,18600,16000)">
      <text x="18600" y="16500" font-size="660px" opacity="0" text-anchor="middle" lengthAdjust="spacingAndGlyphs" textLength="540">3</text>
     </g>
     <path d="m18570 16160v-310l190 170v-70l30-50 20-20 50-30h120l40 30 30 20 20 50v140l-20 50-30 20"/>
    </g>
    <g fill="#008484" stroke="#008484" stroke-width="60">
     <text x="19930" y="17310" font-size="660px" opacity="0" text-anchor="middle" lengthAdjust="spacingAndGlyphs" textLength="1060">Q6</text>
     <path d="m19880 17330-50-20-120-120-50-30h-40"/>
     <path d="m19640 17280-50-20-50-50-20-100v-160l20-100 50-40 50-30h90l50 30 50 40 20 100v160l-20 100-50 50-50 20h-90"/>
     <path d="m20280 16780h-90l-50 30-20 20-50 70-30 100v190l30 40 20 30 50 20h90l50-20 30-30 20-40v-120l-20-50-30-20-50-30h-90l-50 30-20 20-30 50"/>
     <text x="20880" y="18220" font-size="660px" opacity="0" text-anchor="middle" lengthAdjust="spacingAndGlyphs" textLength="2960">2N3904</text>
     <path d="m19520 17740 20-20 50-30h120l50 30 20 20 20 50v40l-20 80-290 280h310"/>
     <path d="m20020 18190v-500l280 500v-500"/>
     <path d="m20490 17690h310l-160 190h70l50 30 20 20 20 50v120l-20 40-20 30-50 20h-140l-50-20-30-30"/>
     <path d="m21040 18190h100l40-20 30-30 50-70 20-90v-190l-20-50-30-20-50-30h-90l-50 30-20 20-30 50v120l30 40 20 30 50 20h90l50-20 30-30 20-40"/>
     <path d="m21590 17690h50l40 30 30 20 20 50 30 90v120l-30 100-20 40-30 30-40 20h-50l-50-20-20-30-30-40-20-100v-120l20-90 30-50 20-20 50-30"/>
     <path d="m22180 17860v330"/>
     <path d="m22070 17670-120 350h310"/>
    </g>
    <g stroke="#840000">
     <g stroke-width="100">
      <path d="m29000 23500v1e3" fill="none" stroke="#840000" stroke-linecap="round" stroke-linejoin="round" stroke-width="100"/>
     </g>
     <g stroke-width="60">
      <path d="m29000 24000h-1e3" fill="none" stroke="#840000" stroke-linecap="round" stroke-linejoin="round" stroke-width="60"/>
     </g>
     <g stroke-width="100">
      <path d="m28000 23500v1e3l1e3-500z" fill="none" stroke="#840000" stroke-linecap="round" stroke-linejoin="round" stroke-width="100"/>
     </g>
     <g fill="#840000" stroke-width="60">
      <path d="m29700 23700 600-600h-300 300v300" fill="none" stroke="#840000" stroke-linecap="round" stroke-linejoin="round" stroke-width="60"/>
      <path d="m29200 23700 600-600h-300 300v300" fill="none" stroke="#840000" stroke-linecap="round" stroke-linejoin="round" stroke-width="60"/>
      <path d="m29000 24000h1e3"/>
      <path d="m28000 24000h-1e3"/>
     </g>
    </g>
    <g fill="#008484" stroke="#008484" stroke-width="60">
     <text x="28570" y="22590" font-size="660px" opacity="0" text-anchor="middle" lengthAdjust="spacingAndGlyphs" textLength="1040">D7</text>
     <path d="m28200 22560v-500h120l70 30 40 40 30 50 20 100v70l-20 90-30 50-40 50-70 20h-120"/>
     <path d="m28650 22060h330l-210 500"/>
    </g>
    <g fill="#840000" stroke="#840000" stroke-width="100">
     <rect x="12000" y="17100" width="2e3" height="800" rx="0"/>
    </g>
    <g stroke-width="60">
     <g fill="#840000" stroke="#840000">
      <path d="m12000 17500h-500"/>
      <path d="m14000 17500h500"/>
     </g>
     <g fill="#008484" stroke="#008484">
      <text x="12990" y="15650" font-size="660px" opacity="0" text-anchor="middle" lengthAdjust="spacingAndGlyphs" textLength="1510">R13</text>
      <path d="m12660 15620-160-240"/>
      <path d="m12380 15620v-500h190l50 30 20 20 20 50v70l-20 50-20 20-50 20h-190"/>
      <path d="m13140 15620h-290"/>
      <path d="m13000 15620v-500l-50 70-50 50-50 20"/>
      <path d="m13310 15120h310l-170 190h70l50 30 20 20 30 50v120l-30 40-20 30-50 20h-140l-50-20-20-30"/>
      <text x="12990" y="16560" font-size="660px" opacity="0" text-anchor="middle" lengthAdjust="spacingAndGlyphs" textLength="1890">100k</text>
      <path d="m12450 16530h-290"/>
      <path d="m12310 16530v-500l-50 70-50 50-50 20"/>
      <path d="m12760 16030h50l40 30 30 20 20 50 30 90v120l-30 100-20 40-30 30-40 20h-50l-50-20-20-30-30-40-20-100v-120l20-90 30-50 20-20 50-30"/>
      <path d="m13240 16030h40l50 30 20 20 30 50 20 90v120l-20 100-30 40-20 30-50 20h-40l-50-20-30-30-20-40-20-100v-120l20-90 20-50 30-20 50-30"/>
      <path d="m13620 16530v-500"/>
      <path d="m13660 16340 150 190"/>
      <path d="m13810 16200-190 190"/>
     </g>
     <g fill="none" stroke="#840000">
      <path d="m18200 13500 300-500"/>
      <path d="m18500 13500v500"/>
      <path d="m18500 13000 300 500"/>
      <path d="m18800 13500h-600"/>
     </g>
     <g fill="#008484" stroke="#008484">
      <text x="18650" y="12540" font-size="660px" opacity="0" text-anchor="middle" lengthAdjust="spacingAndGlyphs" textLength="1580">+5V</text>
      <path d="m18000 12320h380"/>
      <path d="m18190 12510v-380"/>
      <path d="m18860 12010h-240l-20 240 20-20 50-30h120l50 30 20 20 20 50v120l-20 40-20 30-50 20h-120l-50-20-20-30"/>
      <path d="m19030 12010 160 500 170-500"/>
     </g>
     <g fill="none" stroke="#840000">
      <path d="m32250 27750h500"/>
      <path d="m32450 28000h100"/>
      <path d="m32500 27500v-500"/>
      <path d="m33000 27500h-1e3"/>
     </g>
     <g fill="#008484" stroke="#008484">
      <text x="32550" y="29000" font-size="660px" opacity="0" text-anchor="middle" lengthAdjust="spacingAndGlyphs" textLength="2960">GNDREF</text>
      <path d="m31470 28500-40-30h-80l-70 30-40 40-30 50-20 100v70l20 90 30 50 40 50 70 20h50l70-20 30-30v-160h-100"/>
      <path d="m31710 28970v-500l290 500v-500"/>
      <path d="m32240 28970v-500h110l80 30 40 40 30 50 20 100v70l-20 90-30 50-40 50-80 20h-110"/>
      <path d="m33020 28970-170-240"/>
      <path d="m32740 28970v-500h190l40 30 30 20 20 50v70l-20 50-30 20-40 20h-190"/>
      <path d="m33240 28710h160"/>
      <path d="m33470 28970h-230v-500h230"/>
      <path d="m33850 28710h-160"/>
      <path d="m33690 28970v-500h240"/>
     </g>
    </g>
    <g fill="#840000" stroke="#840000" stroke-width="100">
     <rect x="23500" y="23600" width="2e3" height="800" rx="0"/>
    </g>
    <g fill="#840000" stroke="#840000" stroke-width="60">
     <path d="m23500 24000h-500"/>
     <path d="m25500 24000h500"/>
    </g>
    <g fill="#008484" stroke="#008484" stroke-width="60">
     <text x="24490" y="22150" font-size="660px" opacity="0" text-anchor="middle" lengthAdjust="spacingAndGlyphs" textLength="1510">R15</text>
     <path d="m24160 22120-160-240"/>
     <path d="m23880 22120v-500h190l50 30 20 20 20 50v70l-20 50-20 20-50 20h-190"/>
     <path d="m24640 22120h-290"/>
     <path d="m24500 22120v-500l-50 70-50 50-50 20"/>
     <path d="m25090 21620h-240l-20 240 20-20 50-30h120l50 30 20 20 30 50v120l-30 40-20 30-50 20h-120l-50-20-20-30"/>
     <text x="24490" y="23060" font-size="660px" opacity="0" text-anchor="middle" lengthAdjust="spacingAndGlyphs" textLength="1490">470</text>
     <path d="m24100 22700v330"/>
     <path d="m23990 22510-120 350h310"/>
     <path d="m24320 22530h330l-210 500"/>
     <path d="m24940 22530h50l40 30 30 20 20 50 20 90v120l-20 100-20 40-30 30-40 20h-50l-50-20-20-30-30-40-20-100v-120l20-90 30-50 20-20 50-30"/>
    </g>
    <g fill="#840000" stroke="#840000" stroke-width="100">
     <rect x="23500" y="20100" width="2e3" height="800" rx="0"/>
    </g>
    <g fill="#840000" stroke="#840000" stroke-width="60">
     <path d="m23500 20500h-500"/>
     <path d="m25500 20500h500"/>
    </g>
    <g fill="#008484" stroke="#008484" stroke-width="60">
     <text x="24490" y="18650" font-size="660px" opacity="0" text-anchor="middle" lengthAdjust="spacingAndGlyphs" textLength="1510">R14</text>
     <path d="m24160 18620-160-240"/>
     <path d="m23880 18620v-500h190l50 30 20 20 20 50v70l-20 50-20 20-50 20h-190"/>
     <path d="m24640 18620h-290"/>
     <path d="m24500 18620v-500l-50 70-50 50-50 20"/>
     <path d="m25070 18290v330"/>
     <path d="m24950 18100-120 350h310"/>
     <text x="24500" y="19560" font-size="660px" opacity="0" text-anchor="middle" lengthAdjust="spacingAndGlyphs" textLength="940">1k</text>
     <path d="m24440 19530h-290"/>
     <path d="m24290 19530v-500l-40 70-50 50-50 20"/>
     <path d="m24650 19530v-500"/>
     <path d="m24700 19340 140 190"/>
     <path d="m24840 19200-190 190"/>
    </g>
   </g>
   <g fill="#ffffc2" fill-opacity=".6" stroke="#ffffc2" stroke-width="0">
    <rect x="33500" y="19250" width="2800" height="3e3" rx="0"/>
   </g>
   <g fill="#840000" stroke="#840000">
    <g fill-opacity="0" stroke-width="100">
     <rect x="33500" y="19250" width="2800" height="3e3" rx="0"/>
    </g>
    <g fill-opacity="1" stroke-width="60">
     <rect x="36250" y="19500" width="300" height="1e3" rx="0"/>
    </g>
    <g fill-opacity="0" stroke-width="100">
     <rect x="33500" y="19250" width="2800" height="3e3" rx="0"/>
    </g>
   </g>
   <g fill-opacity="0">
    <g stroke="#840000">
     <g stroke-width="60">
      <path d="m33800 20400-100-200" fill="none" stroke="#840000" stroke-linecap="round" stroke-linejoin="round" stroke-width="60"/>
     </g>
     <g stroke-width="100">
      <path d="m34500 20500-250-250-250 250h-500" fill="none" stroke="#840000" stroke-linecap="round" stroke-linejoin="round" stroke-width="100"/>
     </g>
     <g stroke-width="60">
      <path d="m33500 19500h300v900l100-200" fill="none" stroke="#840000" stroke-linecap="round" stroke-linejoin="round" stroke-width="60"/>
     </g>
     <g stroke-width="100">
      <path d="m33500 21500h2e3v-1e3l250-250 250 250" fill="none" stroke="#840000" stroke-linecap="round" stroke-linejoin="round" stroke-width="100"/>
     </g>
     <g fill="#840000" stroke-width="60">
      <path d="m33500 21500h-1e3"/>
      <text x="33000" y="21400" font-size="660px" opacity="0" text-anchor="middle" lengthAdjust="spacingAndGlyphs" textLength="540">S</text>
      <path d="m32850 21350 70 20h120l50-20 20-30 30-40v-50l-30-50-20-20-50-30-90-20-50-20-20-30-30-50v-40l30-50 20-20 50-30h120l70 30"/>
      <path d="m33500 20500h-1e3"/>
      <text x="33000" y="20400" font-size="660px" opacity="0" text-anchor="middle" lengthAdjust="spacingAndGlyphs" textLength="440">T</text>
      <path d="m32850 19870h290"/>
      <path d="m33000 20370v-500"/>
      <path d="m33500 19500h-1e3"/>
      <text x="33000" y="19400" font-size="660px" opacity="0" text-anchor="middle" lengthAdjust="spacingAndGlyphs" textLength="960">TN</text>
      <path d="m32590 18870h290"/>
      <path d="m32730 19370v-500"/>
      <path d="m33040 19370v-500l290 500v-500"/>
     </g>
    </g>
    <g fill="#008484" stroke="#008484" stroke-width="60">
     <text x="37290" y="20510" font-size="660px" opacity="0" text-anchor="middle" lengthAdjust="spacingAndGlyphs" textLength="920">J4</text>
     <path d="m37120 19980v360l-30 70-40 50-70 20h-50"/>
     <path d="m37570 20150v330"/>
     <path d="m37450 19960-120 350h310"/>
     <text x="37570" y="21420" font-size="660px" opacity="0" text-anchor="middle" lengthAdjust="spacingAndGlyphs" textLength="1490">OUT</text>
     <path d="m37070 20890h90l50 30 50 40 20 100v160l-20 100-50 50-50 20h-90l-50-20-50-50-20-100v-160l20-100 50-40 50-30"/>
     <path d="m37490 20890v410l30 40 20 30 50 20h90l50-20 30-30 20-40v-410"/>
     <path d="m37950 20890h280"/>
     <path d="m38090 21390v-500"/>
    </g>
   </g>
  </g>
  <g transform="translate(-6562.2 -10605)" fill="#008400" stroke="#008400" stroke-width="60">
   <path d="m23000 20500h-4500"/>
   <path d="m14500 17500h1e3"/>
   <path d="m18500 14000v1500"/>
   <path d="m10500 17500h1e3"/>
   <path d="m26000 20500h6500"/>
   <path d="m32500 21500v2500"/>
   <path d="m32500 24000h-2500"/>
   <path d="m32500 24000v3e3"/>
   <path d="m26000 24000h1e3"/>
   <path d="m18500 24000h4500"/>
   <path d="m18500 20500v3500"/>
   <path d="m18500 20500v-1e3"/>
  </g>
  <g transform="translate(-6562.2 -10605)" fill="#848400" stroke="#848400" stroke-width="60">
   <text x="9900" y="17750" font-size="660px" opacity="0" text-anchor="end" lengthAdjust="spacingAndGlyphs" textLength="750">in</text>
   <path d="m9290 17720v-330"/>
   <path d="m9290 17220-20 30 20 20 30-20-30-30v50"/>
   <path d="m9530 17390v330"/>
   <path d="m9530 17440 30-30 40-20h70l50 20 30 50v260"/>
  </g>
  <g transform="translate(-6562.2 -10605)" stroke="#848400" stroke-width="100">
   <path d="m10500 17500-250-250h-250v500h250z" fill="none" stroke="#848400" stroke-linecap="round" stroke-linejoin="round" stroke-width="100"/>
  </g>
 </g>
 <g transform="translate(-6562.2 -10605)" fill="#008400" stroke="#008400" stroke-linecap="round" stroke-linejoin="round" stroke-width="100">
  <circle cx="18500" cy="20500" r="200"/>
  <circle cx="32500" cy="24000" r="200"/>
 </g>
</svg>
