<?xml version="1.0" standalone="no"?>
 <!DOCTYPE svg PUBLIC "-//W3C//DTD SVG 1.1//EN" 
 "http://www.w3.org/Graphics/SVG/1.1/DTD/svg11.dtd"> 
<svg
  xmlns:svg="http://www.w3.org/2000/svg"
  xmlns="http://www.w3.org/2000/svg"
  xmlns:xlink="http://www.w3.org/1999/xlink"
  version="1.1"
  width="11.998960cm" height="15.001240cm" viewBox="0 0 47240 59060">
<title>SVG Picture created as output-output1.svg date 2021/11/26 00:10:19 </title>
  <desc>Picture generated by Eeschema-SVG </desc>
<g style="fill:#000000; fill-opacity:1;stroke:#000000; stroke-opacity:1;
stroke-linecap:round; stroke-linejoin:round;"
 transform="translate(0 0) scale(1 1)">
</g>
<g style="fill:#000000; fill-opacity:0.0; 
stroke:#000000; stroke-width:0; stroke-opacity:1; 
stroke-linecap:round; stroke-linejoin:round;">
<g >
</g>
<g style="fill:#840000; fill-opacity:0.0; 
stroke:#840000; stroke-width:0; stroke-opacity:1; 
stroke-linecap:round; stroke-linejoin:round;">
</g>
<g style="fill:#840000; fill-opacity:0.0; 
stroke:#840000; stroke-width:100; stroke-opacity:1; 
stroke-linecap:round; stroke-linejoin:round;">
<circle cx="18000" cy="17500" r="1110" /> 
</g>
<g style="fill:#840000; fill-opacity:0.0; 
stroke:#840000; stroke-width:60; stroke-opacity:1; 
stroke-linecap:round; stroke-linejoin:round;">
<path style="fill:#840000; fill-opacity:0.0; 
stroke:#840000; stroke-width:60; stroke-opacity:1; 
stroke-linecap:round; stroke-linejoin:round;fill:none"
d="M 17750,17250
18500,16500
" /> 
<path style="fill:#840000; fill-opacity:0.0; 
stroke:#840000; stroke-width:60; stroke-opacity:1; 
stroke-linecap:round; stroke-linejoin:round;fill:none"
d="M 17750,17750
18500,18500
18500,18500
" /> 
</g>
<g style="fill:#840000; fill-opacity:0.0; 
stroke:#840000; stroke-width:200; stroke-opacity:1; 
stroke-linecap:round; stroke-linejoin:round;">
<path style="fill:#840000; fill-opacity:0.0; 
stroke:#840000; stroke-width:200; stroke-opacity:1; 
stroke-linecap:round; stroke-linejoin:round;fill:none"
d="M 17750,16750
17750,18250
17750,18250
" /> 
</g>
<g style="fill:#840000; fill-opacity:1.0; 
stroke:#840000; stroke-width:60; stroke-opacity:1; 
stroke-linecap:round; stroke-linejoin:round;">
<path style="fill:#840000; fill-opacity:1.0; 
stroke:#840000; stroke-width:60; stroke-opacity:1; 
stroke-linecap:round; stroke-linejoin:round;fill-rule:evenodd;"
d="M 18000,18200
18200,18000
18400,18400
18000,18200
Z" /> 
</g>
<g style="fill:#840000; fill-opacity:0.0; 
stroke:#840000; stroke-width:60; stroke-opacity:1; 
stroke-linecap:round; stroke-linejoin:round;">
<path d="M17750 17500
L15500 17500
" />
<text x="16620" y="18100"
textLength="540" font-size="660" lengthAdjust="spacingAndGlyphs"
text-anchor="middle" opacity="0">1</text>
<path d="M16760 18070
L16470 18070
" />
<path d="M16620 18070
L16620 17570
L16570 17640
L16520 17690
L16470 17710
" />
<path d="M18500 18500
L18500 19500
" />
<g transform="rotate(-90 18600 19000)">
<text x="18600" y="19500"
textLength="540" font-size="660" lengthAdjust="spacingAndGlyphs"
text-anchor="middle" opacity="0">2</text>
</g>
<path d="M18620 19140
L18600 19110
L18570 19070
L18570 18950
L18600 18900
L18620 18880
L18670 18850
L18710 18850
L18790 18880
L19070 19160
L19070 18850
" />
<path d="M18500 16500
L18500 15500
" />
<g transform="rotate(-90 18600 16000)">
<text x="18600" y="16500"
textLength="540" font-size="660" lengthAdjust="spacingAndGlyphs"
text-anchor="middle" opacity="0">3</text>
</g>
<path d="M18570 16160
L18570 15850
L18760 16020
L18760 15950
L18790 15900
L18810 15880
L18860 15850
L18980 15850
L19020 15880
L19050 15900
L19070 15950
L19070 16090
L19050 16140
L19020 16160
" />
</g>
<g style="fill:#008484; fill-opacity:0.0; 
stroke:#008484; stroke-width:60; stroke-opacity:1; 
stroke-linecap:round; stroke-linejoin:round;">
<text x="19930" y="17310"
textLength="1060" font-size="660" lengthAdjust="spacingAndGlyphs"
text-anchor="middle" opacity="0">Q6</text>
<path d="M19880 17330
L19830 17310
L19780 17260
L19710 17190
L19660 17160
L19620 17160
" />
<path d="M19640 17280
L19590 17260
L19540 17210
L19520 17110
L19520 16950
L19540 16850
L19590 16810
L19640 16780
L19730 16780
L19780 16810
L19830 16850
L19850 16950
L19850 17110
L19830 17210
L19780 17260
L19730 17280
L19640 17280
" />
<path d="M20280 16780
L20190 16780
L20140 16810
L20120 16830
L20070 16900
L20040 17000
L20040 17190
L20070 17230
L20090 17260
L20140 17280
L20230 17280
L20280 17260
L20310 17230
L20330 17190
L20330 17070
L20310 17020
L20280 17000
L20230 16970
L20140 16970
L20090 17000
L20070 17020
L20040 17070
" />
<text x="20880" y="18220"
textLength="2960" font-size="660" lengthAdjust="spacingAndGlyphs"
text-anchor="middle" opacity="0">2N3904</text>
<path d="M19520 17740
L19540 17720
L19590 17690
L19710 17690
L19760 17720
L19780 17740
L19800 17790
L19800 17830
L19780 17910
L19490 18190
L19800 18190
" />
<path d="M20020 18190
L20020 17690
L20300 18190
L20300 17690
" />
<path d="M20490 17690
L20800 17690
L20640 17880
L20710 17880
L20760 17910
L20780 17930
L20800 17980
L20800 18100
L20780 18140
L20760 18170
L20710 18190
L20570 18190
L20520 18170
L20490 18140
" />
<path d="M21040 18190
L21140 18190
L21180 18170
L21210 18140
L21260 18070
L21280 17980
L21280 17790
L21260 17740
L21230 17720
L21180 17690
L21090 17690
L21040 17720
L21020 17740
L20990 17790
L20990 17910
L21020 17950
L21040 17980
L21090 18000
L21180 18000
L21230 17980
L21260 17950
L21280 17910
" />
<path d="M21590 17690
L21640 17690
L21680 17720
L21710 17740
L21730 17790
L21760 17880
L21760 18000
L21730 18100
L21710 18140
L21680 18170
L21640 18190
L21590 18190
L21540 18170
L21520 18140
L21490 18100
L21470 18000
L21470 17880
L21490 17790
L21520 17740
L21540 17720
L21590 17690
" />
<path d="M22180 17860
L22180 18190
" />
<path d="M22070 17670
L21950 18020
L22260 18020
" />
</g>
</g>
<g style="fill:#008484; fill-opacity:0.0; 
stroke:#008484; stroke-width:0; stroke-opacity:1; 
stroke-linecap:round; stroke-linejoin:round;">
<g >
</g>
<g style="fill:#840000; fill-opacity:0.0; 
stroke:#840000; stroke-width:0; stroke-opacity:1; 
stroke-linecap:round; stroke-linejoin:round;">
</g>
<g style="fill:#840000; fill-opacity:0.0; 
stroke:#840000; stroke-width:100; stroke-opacity:1; 
stroke-linecap:round; stroke-linejoin:round;">
<rect x="30100" y="21000" width="800" height="2000" rx="0" />
</g>
<g style="fill:#840000; fill-opacity:0.0; 
stroke:#840000; stroke-width:60; stroke-opacity:1; 
stroke-linecap:round; stroke-linejoin:round;">
<path d="M30500 21000
L30500 20500
" />
<path d="M30500 23000
L30500 23500
" />
</g>
<g style="fill:#008484; fill-opacity:0.0; 
stroke:#008484; stroke-width:60; stroke-opacity:1; 
stroke-linecap:round; stroke-linejoin:round;">
<g transform="rotate(-90 32590 21990)">
<text x="32590" y="22240"
textLength="1510" font-size="660" lengthAdjust="spacingAndGlyphs"
text-anchor="middle" opacity="0">R32</text>
</g>
<path d="M32810 22310
L32570 22470
" />
<path d="M32810 22590
L32310 22590
L32310 22400
L32340 22350
L32360 22330
L32410 22310
L32480 22310
L32530 22330
L32550 22350
L32570 22400
L32570 22590
" />
<path d="M32310 22140
L32310 21830
L32500 22000
L32500 21930
L32530 21880
L32550 21850
L32600 21830
L32720 21830
L32760 21850
L32790 21880
L32810 21930
L32810 22070
L32790 22120
L32760 22140
" />
<path d="M32360 21640
L32340 21620
L32310 21570
L32310 21450
L32340 21400
L32360 21380
L32410 21350
L32450 21350
L32530 21380
L32810 21660
L32810 21350
" />
<g transform="rotate(-90 31680 21990)">
<text x="31680" y="22240"
textLength="1110" font-size="660" lengthAdjust="spacingAndGlyphs"
text-anchor="middle" opacity="0">1M</text>
</g>
<path d="M31900 22130
L31900 22410
" />
<path d="M31900 22270
L31400 22270
L31470 22320
L31520 22370
L31540 22410
" />
<path d="M31900 21910
L31400 21910
L31760 21750
L31400 21580
L31900 21580
" />
</g>
</g>
<g style="fill:#008484; fill-opacity:0.0; 
stroke:#008484; stroke-width:0; stroke-opacity:1; 
stroke-linecap:round; stroke-linejoin:round;">
<g >
</g>
<g style="fill:#840000; fill-opacity:0.0; 
stroke:#840000; stroke-width:0; stroke-opacity:1; 
stroke-linecap:round; stroke-linejoin:round;">
</g>
<g style="fill:#840000; fill-opacity:0.0; 
stroke:#840000; stroke-width:100; stroke-opacity:1; 
stroke-linecap:round; stroke-linejoin:round;">
<rect x="27500" y="25100" width="2000" height="800" rx="0" />
</g>
<g style="fill:#840000; fill-opacity:0.0; 
stroke:#840000; stroke-width:60; stroke-opacity:1; 
stroke-linecap:round; stroke-linejoin:round;">
<path d="M29500 25500
L30000 25500
" />
<path d="M27500 25500
L27000 25500
" />
</g>
<g style="fill:#008484; fill-opacity:0.0; 
stroke:#008484; stroke-width:60; stroke-opacity:1; 
stroke-linecap:round; stroke-linejoin:round;">
<text x="28500" y="27840"
textLength="1510" font-size="660" lengthAdjust="spacingAndGlyphs"
text-anchor="middle" opacity="0">R33</text>
<path d="M28170 27810
L28010 27570
" />
<path d="M27890 27810
L27890 27310
L28080 27310
L28130 27340
L28150 27360
L28170 27410
L28170 27480
L28150 27530
L28130 27550
L28080 27570
L27890 27570
" />
<path d="M28340 27310
L28650 27310
L28480 27500
L28550 27500
L28600 27530
L28630 27550
L28650 27600
L28650 27720
L28630 27760
L28600 27790
L28550 27810
L28410 27810
L28360 27790
L28340 27760
" />
<path d="M28820 27310
L29130 27310
L28960 27500
L29030 27500
L29080 27530
L29100 27550
L29130 27600
L29130 27720
L29100 27760
L29080 27790
L29030 27810
L28890 27810
L28840 27790
L28820 27760
" />
<text x="28500" y="26930"
textLength="1110" font-size="660" lengthAdjust="spacingAndGlyphs"
text-anchor="middle" opacity="0">1M</text>
<path d="M28350 26900
L28070 26900
" />
<path d="M28210 26900
L28210 26400
L28160 26470
L28110 26520
L28070 26540
" />
<path d="M28570 26900
L28570 26400
L28730 26760
L28900 26400
L28900 26900
" />
</g>
</g>
<g style="fill:#008484; fill-opacity:0.0; 
stroke:#008484; stroke-width:0; stroke-opacity:1; 
stroke-linecap:round; stroke-linejoin:round;">
<g >
</g>
<g style="fill:#840000; fill-opacity:0.0; 
stroke:#840000; stroke-width:0; stroke-opacity:1; 
stroke-linecap:round; stroke-linejoin:round;">
</g>
<g style="fill:#840000; fill-opacity:0.0; 
stroke:#840000; stroke-width:100; stroke-opacity:1; 
stroke-linecap:round; stroke-linejoin:round;">
<path style="fill:#840000; fill-opacity:0.0; 
stroke:#840000; stroke-width:100; stroke-opacity:1; 
stroke-linecap:round; stroke-linejoin:round;fill:none"
d="M 29000,21000
29000,20000
" /> 
</g>
<g style="fill:#840000; fill-opacity:0.0; 
stroke:#840000; stroke-width:60; stroke-opacity:1; 
stroke-linecap:round; stroke-linejoin:round;">
<path style="fill:#840000; fill-opacity:0.0; 
stroke:#840000; stroke-width:60; stroke-opacity:1; 
stroke-linecap:round; stroke-linejoin:round;fill:none"
d="M 28000,20500
29000,20500
" /> 
</g>
<g style="fill:#840000; fill-opacity:0.0; 
stroke:#840000; stroke-width:100; stroke-opacity:1; 
stroke-linecap:round; stroke-linejoin:round;">
<path style="fill:#840000; fill-opacity:0.0; 
stroke:#840000; stroke-width:100; stroke-opacity:1; 
stroke-linecap:round; stroke-linejoin:round;fill:none"
d="M 28000,21000
28000,20000
29000,20500
Z" /> 
</g>
<g style="fill:#840000; fill-opacity:0.0; 
stroke:#840000; stroke-width:60; stroke-opacity:1; 
stroke-linecap:round; stroke-linejoin:round;">
<path d="M29000 20500
L30000 20500
" />
<path d="M28000 20500
L27000 20500
" />
</g>
<g style="fill:#008484; fill-opacity:0.0; 
stroke:#008484; stroke-width:60; stroke-opacity:1; 
stroke-linecap:round; stroke-linejoin:round;">
<text x="28490" y="18550"
textLength="1510" font-size="660" lengthAdjust="spacingAndGlyphs"
text-anchor="middle" opacity="0">D13</text>
<path d="M27880 18520
L27880 18020
L28000 18020
L28070 18050
L28120 18090
L28140 18140
L28160 18240
L28160 18310
L28140 18400
L28120 18450
L28070 18500
L28000 18520
L27880 18520
" />
<path d="M28640 18520
L28350 18520
" />
<path d="M28500 18520
L28500 18020
L28450 18090
L28400 18140
L28350 18160
" />
<path d="M28810 18020
L29120 18020
L28950 18210
L29020 18210
L29070 18240
L29090 18260
L29120 18310
L29120 18430
L29090 18470
L29070 18500
L29020 18520
L28880 18520
L28830 18500
L28810 18470
" />
<text x="28500" y="19460"
textLength="2960" font-size="660" lengthAdjust="spacingAndGlyphs"
text-anchor="middle" opacity="0">1N4148</text>
<path d="M27420 19430
L27140 19430
" />
<path d="M27280 19430
L27280 18930
L27230 19000
L27190 19050
L27140 19070
" />
<path d="M27640 19430
L27640 18930
L27920 19430
L27920 18930
" />
<path d="M28380 19100
L28380 19430
" />
<path d="M28260 18910
L28140 19260
L28450 19260
" />
<path d="M28900 19430
L28610 19430
" />
<path d="M28760 19430
L28760 18930
L28710 19000
L28660 19050
L28610 19070
" />
<path d="M29330 19100
L29330 19430
" />
<path d="M29210 18910
L29090 19260
L29400 19260
" />
<path d="M29660 19150
L29610 19120
L29590 19100
L29570 19050
L29570 19030
L29590 18980
L29610 18960
L29660 18930
L29760 18930
L29800 18960
L29830 18980
L29850 19030
L29850 19050
L29830 19100
L29800 19120
L29760 19150
L29660 19150
L29610 19170
L29590 19190
L29570 19240
L29570 19340
L29590 19380
L29610 19410
L29660 19430
L29760 19430
L29800 19410
L29830 19380
L29850 19340
L29850 19240
L29830 19190
L29800 19170
L29760 19150
" />
</g>
</g>
<g style="fill:#008484; fill-opacity:0.0; 
stroke:#008484; stroke-width:0; stroke-opacity:1; 
stroke-linecap:round; stroke-linejoin:round;">
<g >
</g>
<g style="fill:#840000; fill-opacity:0.0; 
stroke:#840000; stroke-width:0; stroke-opacity:1; 
stroke-linecap:round; stroke-linejoin:round;">
</g>
<g style="fill:#840000; fill-opacity:0.0; 
stroke:#840000; stroke-width:60; stroke-opacity:1; 
stroke-linecap:round; stroke-linejoin:round;">
<path style="fill:#840000; fill-opacity:0.0; 
stroke:#840000; stroke-width:60; stroke-opacity:1; 
stroke-linecap:round; stroke-linejoin:round;fill:none"
d="M 18200,13500
18500,13000
" /> 
<path style="fill:#840000; fill-opacity:0.0; 
stroke:#840000; stroke-width:60; stroke-opacity:1; 
stroke-linecap:round; stroke-linejoin:round;fill:none"
d="M 18500,14000
18500,13000
" /> 
<path style="fill:#840000; fill-opacity:0.0; 
stroke:#840000; stroke-width:60; stroke-opacity:1; 
stroke-linecap:round; stroke-linejoin:round;fill:none"
d="M 18500,13000
18800,13500
" /> 
</g>
<g style="fill:#008484; fill-opacity:0.0; 
stroke:#008484; stroke-width:60; stroke-opacity:1; 
stroke-linecap:round; stroke-linejoin:round;">
<text x="18650" y="12540"
textLength="1580" font-size="660" lengthAdjust="spacingAndGlyphs"
text-anchor="middle" opacity="0">+6V</text>
<path d="M18000 12320
L18380 12320
" />
<path d="M18190 12510
L18190 12130
" />
<path d="M18840 12010
L18740 12010
L18690 12040
L18670 12060
L18620 12130
L18600 12230
L18600 12420
L18620 12460
L18650 12490
L18690 12510
L18790 12510
L18840 12490
L18860 12460
L18880 12420
L18880 12300
L18860 12250
L18840 12230
L18790 12200
L18690 12200
L18650 12230
L18620 12250
L18600 12300
" />
<path d="M19030 12010
L19190 12510
L19360 12010
" />
</g>
</g>
<g style="fill:#008484; fill-opacity:0.0; 
stroke:#008484; stroke-width:0; stroke-opacity:1; 
stroke-linecap:round; stroke-linejoin:round;">
<g >
</g>
<g style="fill:#840000; fill-opacity:0.0; 
stroke:#840000; stroke-width:0; stroke-opacity:1; 
stroke-linecap:round; stroke-linejoin:round;">
</g>
<g style="fill:#840000; fill-opacity:0.0; 
stroke:#840000; stroke-width:100; stroke-opacity:1; 
stroke-linecap:round; stroke-linejoin:round;">
<path style="fill:#840000; fill-opacity:0.0; 
stroke:#840000; stroke-width:100; stroke-opacity:1; 
stroke-linecap:round; stroke-linejoin:round;fill:none"
d="M 26500,23500
26500,24500
" /> 
</g>
<g style="fill:#840000; fill-opacity:0.0; 
stroke:#840000; stroke-width:60; stroke-opacity:1; 
stroke-linecap:round; stroke-linejoin:round;">
<path style="fill:#840000; fill-opacity:0.0; 
stroke:#840000; stroke-width:60; stroke-opacity:1; 
stroke-linecap:round; stroke-linejoin:round;fill:none"
d="M 26500,24000
25500,24000
" /> 
</g>
<g style="fill:#840000; fill-opacity:0.0; 
stroke:#840000; stroke-width:100; stroke-opacity:1; 
stroke-linecap:round; stroke-linejoin:round;">
<path style="fill:#840000; fill-opacity:0.0; 
stroke:#840000; stroke-width:100; stroke-opacity:1; 
stroke-linecap:round; stroke-linejoin:round;fill:none"
d="M 25500,23500
25500,24500
26500,24000
Z" /> 
</g>
<g style="fill:#840000; fill-opacity:0.0; 
stroke:#840000; stroke-width:60; stroke-opacity:1; 
stroke-linecap:round; stroke-linejoin:round;">
<path style="fill:#840000; fill-opacity:0.0; 
stroke:#840000; stroke-width:60; stroke-opacity:1; 
stroke-linecap:round; stroke-linejoin:round;fill:none"
d="M 27200,23700
27800,23100
27500,23100
27800,23100
27800,23400
" /> 
<path style="fill:#840000; fill-opacity:0.0; 
stroke:#840000; stroke-width:60; stroke-opacity:1; 
stroke-linecap:round; stroke-linejoin:round;fill:none"
d="M 26700,23700
27300,23100
27000,23100
27300,23100
27300,23400
" /> 
<path d="M26500 24000
L27500 24000
" />
<path d="M25500 24000
L24500 24000
" />
</g>
<g style="fill:#008484; fill-opacity:0.0; 
stroke:#008484; stroke-width:60; stroke-opacity:1; 
stroke-linecap:round; stroke-linejoin:round;">
<text x="26070" y="22590"
textLength="1040" font-size="660" lengthAdjust="spacingAndGlyphs"
text-anchor="middle" opacity="0">D7</text>
<path d="M25700 22560
L25700 22060
L25820 22060
L25890 22090
L25930 22130
L25960 22180
L25980 22280
L25980 22350
L25960 22440
L25930 22490
L25890 22540
L25820 22560
L25700 22560
" />
<path d="M26150 22060
L26480 22060
L26270 22560
" />
</g>
</g>
<g style="fill:#008484; fill-opacity:0.0; 
stroke:#008484; stroke-width:0; stroke-opacity:1; 
stroke-linecap:round; stroke-linejoin:round;">
<g >
</g>
<g style="fill:#840000; fill-opacity:0.0; 
stroke:#840000; stroke-width:0; stroke-opacity:1; 
stroke-linecap:round; stroke-linejoin:round;">
</g>
<g style="fill:#840000; fill-opacity:0.0; 
stroke:#840000; stroke-width:100; stroke-opacity:1; 
stroke-linecap:round; stroke-linejoin:round;">
<rect x="12000" y="17100" width="2000" height="800" rx="0" />
</g>
<g style="fill:#840000; fill-opacity:0.0; 
stroke:#840000; stroke-width:60; stroke-opacity:1; 
stroke-linecap:round; stroke-linejoin:round;">
<path d="M12000 17500
L11500 17500
" />
<path d="M14000 17500
L14500 17500
" />
</g>
<g style="fill:#008484; fill-opacity:0.0; 
stroke:#008484; stroke-width:60; stroke-opacity:1; 
stroke-linecap:round; stroke-linejoin:round;">
<text x="12990" y="15650"
textLength="1510" font-size="660" lengthAdjust="spacingAndGlyphs"
text-anchor="middle" opacity="0">R13</text>
<path d="M12660 15620
L12500 15380
" />
<path d="M12380 15620
L12380 15120
L12570 15120
L12620 15150
L12640 15170
L12660 15220
L12660 15290
L12640 15340
L12620 15360
L12570 15380
L12380 15380
" />
<path d="M13140 15620
L12850 15620
" />
<path d="M13000 15620
L13000 15120
L12950 15190
L12900 15240
L12850 15260
" />
<path d="M13310 15120
L13620 15120
L13450 15310
L13520 15310
L13570 15340
L13590 15360
L13620 15410
L13620 15530
L13590 15570
L13570 15600
L13520 15620
L13380 15620
L13330 15600
L13310 15570
" />
<text x="12990" y="16560"
textLength="1890" font-size="660" lengthAdjust="spacingAndGlyphs"
text-anchor="middle" opacity="0">100k</text>
<path d="M12450 16530
L12160 16530
" />
<path d="M12310 16530
L12310 16030
L12260 16100
L12210 16150
L12160 16170
" />
<path d="M12760 16030
L12810 16030
L12850 16060
L12880 16080
L12900 16130
L12930 16220
L12930 16340
L12900 16440
L12880 16480
L12850 16510
L12810 16530
L12760 16530
L12710 16510
L12690 16480
L12660 16440
L12640 16340
L12640 16220
L12660 16130
L12690 16080
L12710 16060
L12760 16030
" />
<path d="M13240 16030
L13280 16030
L13330 16060
L13350 16080
L13380 16130
L13400 16220
L13400 16340
L13380 16440
L13350 16480
L13330 16510
L13280 16530
L13240 16530
L13190 16510
L13160 16480
L13140 16440
L13120 16340
L13120 16220
L13140 16130
L13160 16080
L13190 16060
L13240 16030
" />
<path d="M13620 16530
L13620 16030
" />
<path d="M13660 16340
L13810 16530
" />
<path d="M13810 16200
L13620 16390
" />
</g>
</g>
<g style="fill:#008484; fill-opacity:0.0; 
stroke:#008484; stroke-width:0; stroke-opacity:1; 
stroke-linecap:round; stroke-linejoin:round;">
<g >
</g>
<g style="fill:#840000; fill-opacity:0.0; 
stroke:#840000; stroke-width:0; stroke-opacity:1; 
stroke-linecap:round; stroke-linejoin:round;">
</g>
<g style="fill:#840000; fill-opacity:0.0; 
stroke:#840000; stroke-width:60; stroke-opacity:1; 
stroke-linecap:round; stroke-linejoin:round;">
<path style="fill:#840000; fill-opacity:0.0; 
stroke:#840000; stroke-width:60; stroke-opacity:1; 
stroke-linecap:round; stroke-linejoin:round;fill:none"
d="M 25250,36250
24750,36250
" /> 
<path style="fill:#840000; fill-opacity:0.0; 
stroke:#840000; stroke-width:60; stroke-opacity:1; 
stroke-linecap:round; stroke-linejoin:round;fill:none"
d="M 25050,36500
24950,36500
" /> 
<path style="fill:#840000; fill-opacity:0.0; 
stroke:#840000; stroke-width:60; stroke-opacity:1; 
stroke-linecap:round; stroke-linejoin:round;fill:none"
d="M 25000,36000
25000,35500
" /> 
<path style="fill:#840000; fill-opacity:0.0; 
stroke:#840000; stroke-width:60; stroke-opacity:1; 
stroke-linecap:round; stroke-linejoin:round;fill:none"
d="M 24500,36000
25500,36000
" /> 
</g>
<g style="fill:#008484; fill-opacity:0.0; 
stroke:#008484; stroke-width:60; stroke-opacity:1; 
stroke-linecap:round; stroke-linejoin:round;">
<text x="24950" y="37500"
textLength="2960" font-size="660" lengthAdjust="spacingAndGlyphs"
text-anchor="middle" opacity="0">GNDREF</text>
<path d="M23870 37000
L23830 36970
L23750 36970
L23680 37000
L23640 37040
L23610 37090
L23590 37190
L23590 37260
L23610 37350
L23640 37400
L23680 37450
L23750 37470
L23800 37470
L23870 37450
L23900 37420
L23900 37260
L23800 37260
" />
<path d="M24110 37470
L24110 36970
L24400 37470
L24400 36970
" />
<path d="M24640 37470
L24640 36970
L24750 36970
L24830 37000
L24870 37040
L24900 37090
L24920 37190
L24920 37260
L24900 37350
L24870 37400
L24830 37450
L24750 37470
L24640 37470
" />
<path d="M25420 37470
L25250 37230
" />
<path d="M25140 37470
L25140 36970
L25330 36970
L25370 37000
L25400 37020
L25420 37070
L25420 37140
L25400 37190
L25370 37210
L25330 37230
L25140 37230
" />
<path d="M25640 37210
L25800 37210
" />
<path d="M25870 37470
L25640 37470
L25640 36970
L25870 36970
" />
<path d="M26250 37210
L26090 37210
" />
<path d="M26090 37470
L26090 36970
L26330 36970
" />
</g>
</g>
<g style="fill:#008484; fill-opacity:0.0; 
stroke:#008484; stroke-width:0; stroke-opacity:1; 
stroke-linecap:round; stroke-linejoin:round;">
<g >
</g>
<g style="fill:#840000; fill-opacity:0.0; 
stroke:#840000; stroke-width:0; stroke-opacity:1; 
stroke-linecap:round; stroke-linejoin:round;">
</g>
<g style="fill:#840000; fill-opacity:0.0; 
stroke:#840000; stroke-width:60; stroke-opacity:1; 
stroke-linecap:round; stroke-linejoin:round;">
<path style="fill:#840000; fill-opacity:0.0; 
stroke:#840000; stroke-width:60; stroke-opacity:1; 
stroke-linecap:round; stroke-linejoin:round;fill:none"
d="M 33250,27750
33750,27750
" /> 
<path style="fill:#840000; fill-opacity:0.0; 
stroke:#840000; stroke-width:60; stroke-opacity:1; 
stroke-linecap:round; stroke-linejoin:round;fill:none"
d="M 33450,28000
33550,28000
" /> 
<path style="fill:#840000; fill-opacity:0.0; 
stroke:#840000; stroke-width:60; stroke-opacity:1; 
stroke-linecap:round; stroke-linejoin:round;fill:none"
d="M 33500,27500
33500,27000
" /> 
<path style="fill:#840000; fill-opacity:0.0; 
stroke:#840000; stroke-width:60; stroke-opacity:1; 
stroke-linecap:round; stroke-linejoin:round;fill:none"
d="M 34000,27500
33000,27500
" /> 
</g>
<g style="fill:#008484; fill-opacity:0.0; 
stroke:#008484; stroke-width:60; stroke-opacity:1; 
stroke-linecap:round; stroke-linejoin:round;">
<text x="33550" y="29000"
textLength="2960" font-size="660" lengthAdjust="spacingAndGlyphs"
text-anchor="middle" opacity="0">GNDREF</text>
<path d="M32470 28500
L32430 28470
L32350 28470
L32280 28500
L32240 28540
L32210 28590
L32190 28690
L32190 28760
L32210 28850
L32240 28900
L32280 28950
L32350 28970
L32400 28970
L32470 28950
L32500 28920
L32500 28760
L32400 28760
" />
<path d="M32710 28970
L32710 28470
L33000 28970
L33000 28470
" />
<path d="M33240 28970
L33240 28470
L33350 28470
L33430 28500
L33470 28540
L33500 28590
L33520 28690
L33520 28760
L33500 28850
L33470 28900
L33430 28950
L33350 28970
L33240 28970
" />
<path d="M34020 28970
L33850 28730
" />
<path d="M33740 28970
L33740 28470
L33930 28470
L33970 28500
L34000 28520
L34020 28570
L34020 28640
L34000 28690
L33970 28710
L33930 28730
L33740 28730
" />
<path d="M34240 28710
L34400 28710
" />
<path d="M34470 28970
L34240 28970
L34240 28470
L34470 28470
" />
<path d="M34850 28710
L34690 28710
" />
<path d="M34690 28970
L34690 28470
L34930 28470
" />
</g>
</g>
<g style="fill:#008484; fill-opacity:0.0; 
stroke:#008484; stroke-width:0; stroke-opacity:1; 
stroke-linecap:round; stroke-linejoin:round;">
<g >
</g>
<g style="fill:#840000; fill-opacity:0.0; 
stroke:#840000; stroke-width:0; stroke-opacity:1; 
stroke-linecap:round; stroke-linejoin:round;">
</g>
<g style="fill:#840000; fill-opacity:1.0; 
stroke:#840000; stroke-width:60; stroke-opacity:1; 
stroke-linecap:round; stroke-linejoin:round;">
<rect x="27160" y="32450" width="340" height="100" rx="0" />
<rect x="27160" y="31450" width="340" height="100" rx="0" />
</g>
<g style="fill:#840000; fill-opacity:0.0; 
stroke:#840000; stroke-width:60; stroke-opacity:1; 
stroke-linecap:round; stroke-linejoin:round;">
<path style="fill:#840000; fill-opacity:0.0; 
stroke:#840000; stroke-width:60; stroke-opacity:1; 
stroke-linecap:round; stroke-linejoin:round;fill:none"
d="M 27000,32500
27160,32500
" /> 
<path style="fill:#840000; fill-opacity:0.0; 
stroke:#840000; stroke-width:60; stroke-opacity:1; 
stroke-linecap:round; stroke-linejoin:round;fill:none"
d="M 27000,31500
27160,31500
" /> 
<path d="M27000 31500
L25500 31500
" />
<text x="26250" y="31400"
textLength="540" font-size="660" lengthAdjust="spacingAndGlyphs"
text-anchor="middle" opacity="0">1</text>
<path d="M26390 31370
L26100 31370
" />
<path d="M26250 31370
L26250 30870
L26200 30940
L26150 30990
L26100 31010
" />
<path d="M27000 32500
L25500 32500
" />
<text x="26250" y="32400"
textLength="540" font-size="660" lengthAdjust="spacingAndGlyphs"
text-anchor="middle" opacity="0">2</text>
<path d="M26100 31920
L26130 31900
L26170 31870
L26290 31870
L26340 31900
L26360 31920
L26390 31970
L26390 32010
L26360 32090
L26080 32370
L26390 32370
" />
</g>
<g style="fill:#008484; fill-opacity:0.0; 
stroke:#008484; stroke-width:60; stroke-opacity:1; 
stroke-linecap:round; stroke-linejoin:round;">
<text x="28470" y="32950"
textLength="1390" font-size="660" lengthAdjust="spacingAndGlyphs"
text-anchor="middle" opacity="0">J13</text>
<path d="M28060 32420
L28060 32780
L28040 32850
L27990 32900
L27920 32920
L27870 32920
" />
<path d="M28560 32920
L28270 32920
" />
<path d="M28420 32920
L28420 32420
L28370 32490
L28320 32540
L28270 32560
" />
<path d="M28730 32420
L29040 32420
L28870 32610
L28940 32610
L28990 32640
L29010 32660
L29040 32710
L29040 32830
L29010 32870
L28990 32900
L28940 32920
L28800 32920
L28750 32900
L28730 32870
" />
<text x="25790" y="30270"
textLength="1580" font-size="660" lengthAdjust="spacingAndGlyphs"
text-anchor="middle" opacity="0">GND</text>
<path d="M25400 29770
L25360 29740
L25290 29740
L25210 29770
L25170 29810
L25140 29860
L25120 29960
L25120 30030
L25140 30120
L25170 30170
L25210 30220
L25290 30240
L25330 30240
L25400 30220
L25430 30190
L25430 30030
L25330 30030
" />
<path d="M25640 30240
L25640 29740
L25930 30240
L25930 29740
" />
<path d="M26170 30240
L26170 29740
L26290 29740
L26360 29770
L26400 29810
L26430 29860
L26450 29960
L26450 30030
L26430 30120
L26400 30170
L26360 30220
L26290 30240
L26170 30240
" />
</g>
</g>
<g style="fill:#008484; fill-opacity:0.0; 
stroke:#008484; stroke-width:0; stroke-opacity:1; 
stroke-linecap:round; stroke-linejoin:round;">
<g >
</g>
<g style="fill:#840000; fill-opacity:0.0; 
stroke:#840000; stroke-width:0; stroke-opacity:1; 
stroke-linecap:round; stroke-linejoin:round;">
</g>
<g style="fill:#840000; fill-opacity:0.0; 
stroke:#840000; stroke-width:100; stroke-opacity:1; 
stroke-linecap:round; stroke-linejoin:round;">
<rect x="21000" y="31100" width="2000" height="800" rx="0" />
</g>
<g style="fill:#840000; fill-opacity:0.0; 
stroke:#840000; stroke-width:60; stroke-opacity:1; 
stroke-linecap:round; stroke-linejoin:round;">
<path d="M21000 31500
L20500 31500
" />
<path d="M23000 31500
L23500 31500
" />
</g>
<g style="fill:#008484; fill-opacity:0.0; 
stroke:#008484; stroke-width:60; stroke-opacity:1; 
stroke-linecap:round; stroke-linejoin:round;">
<text x="21990" y="29650"
textLength="1510" font-size="660" lengthAdjust="spacingAndGlyphs"
text-anchor="middle" opacity="0">R46</text>
<path d="M21660 29620
L21500 29380
" />
<path d="M21380 29620
L21380 29120
L21570 29120
L21620 29150
L21640 29170
L21660 29220
L21660 29290
L21640 29340
L21620 29360
L21570 29380
L21380 29380
" />
<path d="M22090 29290
L22090 29620
" />
<path d="M21970 29100
L21850 29450
L22160 29450
" />
<path d="M22570 29120
L22470 29120
L22430 29150
L22400 29170
L22350 29240
L22330 29340
L22330 29530
L22350 29570
L22380 29600
L22430 29620
L22520 29620
L22570 29600
L22590 29570
L22620 29530
L22620 29410
L22590 29360
L22570 29340
L22520 29310
L22430 29310
L22380 29340
L22350 29360
L22330 29410
" />
<text x="22000" y="30560"
textLength="940" font-size="660" lengthAdjust="spacingAndGlyphs"
text-anchor="middle" opacity="0">1k</text>
<path d="M21940 30530
L21650 30530
" />
<path d="M21790 30530
L21790 30030
L21750 30100
L21700 30150
L21650 30170
" />
<path d="M22150 30530
L22150 30030
" />
<path d="M22200 30340
L22340 30530
" />
<path d="M22340 30200
L22150 30390
" />
</g>
</g>
<g style="fill:#008484; fill-opacity:0.0; 
stroke:#008484; stroke-width:0; stroke-opacity:1; 
stroke-linecap:round; stroke-linejoin:round;">
<g >
</g>
<g style="fill:#840000; fill-opacity:0.0; 
stroke:#840000; stroke-width:0; stroke-opacity:1; 
stroke-linecap:round; stroke-linejoin:round;">
</g>
<g style="fill:#840000; fill-opacity:0.0; 
stroke:#840000; stroke-width:100; stroke-opacity:1; 
stroke-linecap:round; stroke-linejoin:round;">
<rect x="23500" y="20100" width="2000" height="800" rx="0" />
</g>
<g style="fill:#840000; fill-opacity:0.0; 
stroke:#840000; stroke-width:60; stroke-opacity:1; 
stroke-linecap:round; stroke-linejoin:round;">
<path d="M23500 20500
L23000 20500
" />
<path d="M25500 20500
L26000 20500
" />
</g>
<g style="fill:#008484; fill-opacity:0.0; 
stroke:#008484; stroke-width:60; stroke-opacity:1; 
stroke-linecap:round; stroke-linejoin:round;">
<text x="24490" y="18650"
textLength="1510" font-size="660" lengthAdjust="spacingAndGlyphs"
text-anchor="middle" opacity="0">R14</text>
<path d="M24160 18620
L24000 18380
" />
<path d="M23880 18620
L23880 18120
L24070 18120
L24120 18150
L24140 18170
L24160 18220
L24160 18290
L24140 18340
L24120 18360
L24070 18380
L23880 18380
" />
<path d="M24640 18620
L24350 18620
" />
<path d="M24500 18620
L24500 18120
L24450 18190
L24400 18240
L24350 18260
" />
<path d="M25070 18290
L25070 18620
" />
<path d="M24950 18100
L24830 18450
L25140 18450
" />
<text x="24500" y="19560"
textLength="940" font-size="660" lengthAdjust="spacingAndGlyphs"
text-anchor="middle" opacity="0">1k</text>
<path d="M24440 19530
L24150 19530
" />
<path d="M24290 19530
L24290 19030
L24250 19100
L24200 19150
L24150 19170
" />
<path d="M24650 19530
L24650 19030
" />
<path d="M24700 19340
L24840 19530
" />
<path d="M24840 19200
L24650 19390
" />
</g>
</g>
<g style="fill:#008484; fill-opacity:0.0; 
stroke:#008484; stroke-width:0; stroke-opacity:1; 
stroke-linecap:round; stroke-linejoin:round;">
<g >
</g>
<g style="fill:#840000; fill-opacity:0.0; 
stroke:#840000; stroke-width:0; stroke-opacity:1; 
stroke-linecap:round; stroke-linejoin:round;">
</g>
<g style="fill:#FFFFC2; fill-opacity:0.0; 
stroke:#FFFFC2; stroke-width:0; stroke-opacity:1; 
stroke-linecap:round; stroke-linejoin:round;">
</g>
<g style="fill:#FFFFC2; fill-opacity:0.6; 
stroke:#FFFFC2; stroke-width:0; stroke-opacity:1; 
stroke-linecap:round; stroke-linejoin:round;">
<rect x="34500" y="19250" width="2800" height="3000" rx="0" />
</g>
<g style="fill:#840000; fill-opacity:0.6; 
stroke:#840000; stroke-width:0; stroke-opacity:1; 
stroke-linecap:round; stroke-linejoin:round;">
</g>
<g style="fill:#840000; fill-opacity:0.0; 
stroke:#840000; stroke-width:100; stroke-opacity:1; 
stroke-linecap:round; stroke-linejoin:round;">
<rect x="34500" y="19250" width="2800" height="3000" rx="0" />
</g>
<g style="fill:#840000; fill-opacity:1.0; 
stroke:#840000; stroke-width:60; stroke-opacity:1; 
stroke-linecap:round; stroke-linejoin:round;">
<rect x="37250" y="19500" width="300" height="1000" rx="0" />
</g>
<g style="fill:#840000; fill-opacity:0.0; 
stroke:#840000; stroke-width:100; stroke-opacity:1; 
stroke-linecap:round; stroke-linejoin:round;">
<rect x="34500" y="19250" width="2800" height="3000" rx="0" />
</g>
<g style="fill:#840000; fill-opacity:0.0; 
stroke:#840000; stroke-width:60; stroke-opacity:1; 
stroke-linecap:round; stroke-linejoin:round;">
<path style="fill:#840000; fill-opacity:0.0; 
stroke:#840000; stroke-width:60; stroke-opacity:1; 
stroke-linecap:round; stroke-linejoin:round;fill:none"
d="M 34800,20400
34700,20200
" /> 
</g>
<g style="fill:#840000; fill-opacity:0.0; 
stroke:#840000; stroke-width:100; stroke-opacity:1; 
stroke-linecap:round; stroke-linejoin:round;">
<path style="fill:#840000; fill-opacity:0.0; 
stroke:#840000; stroke-width:100; stroke-opacity:1; 
stroke-linecap:round; stroke-linejoin:round;fill:none"
d="M 35500,20500
35250,20250
35000,20500
34500,20500
" /> 
</g>
<g style="fill:#840000; fill-opacity:0.0; 
stroke:#840000; stroke-width:60; stroke-opacity:1; 
stroke-linecap:round; stroke-linejoin:round;">
<path style="fill:#840000; fill-opacity:0.0; 
stroke:#840000; stroke-width:60; stroke-opacity:1; 
stroke-linecap:round; stroke-linejoin:round;fill:none"
d="M 34500,19500
34800,19500
34800,20400
34900,20200
" /> 
</g>
<g style="fill:#840000; fill-opacity:0.0; 
stroke:#840000; stroke-width:100; stroke-opacity:1; 
stroke-linecap:round; stroke-linejoin:round;">
<path style="fill:#840000; fill-opacity:0.0; 
stroke:#840000; stroke-width:100; stroke-opacity:1; 
stroke-linecap:round; stroke-linejoin:round;fill:none"
d="M 34500,21500
36500,21500
36500,20500
36750,20250
37000,20500
" /> 
</g>
<g style="fill:#840000; fill-opacity:0.0; 
stroke:#840000; stroke-width:60; stroke-opacity:1; 
stroke-linecap:round; stroke-linejoin:round;">
<path d="M34500 21500
L33500 21500
" />
<text x="34000" y="21400"
textLength="540" font-size="660" lengthAdjust="spacingAndGlyphs"
text-anchor="middle" opacity="0">S</text>
<path d="M33850 21350
L33920 21370
L34040 21370
L34090 21350
L34110 21320
L34140 21280
L34140 21230
L34110 21180
L34090 21160
L34040 21130
L33950 21110
L33900 21090
L33880 21060
L33850 21010
L33850 20970
L33880 20920
L33900 20900
L33950 20870
L34070 20870
L34140 20900
" />
<path d="M34500 20500
L33500 20500
" />
<text x="34000" y="20400"
textLength="440" font-size="660" lengthAdjust="spacingAndGlyphs"
text-anchor="middle" opacity="0">T</text>
<path d="M33850 19870
L34140 19870
" />
<path d="M34000 20370
L34000 19870
" />
<path d="M34500 19500
L33500 19500
" />
<text x="34000" y="19400"
textLength="960" font-size="660" lengthAdjust="spacingAndGlyphs"
text-anchor="middle" opacity="0">TN</text>
<path d="M33590 18870
L33880 18870
" />
<path d="M33730 19370
L33730 18870
" />
<path d="M34040 19370
L34040 18870
L34330 19370
L34330 18870
" />
</g>
<g style="fill:#008484; fill-opacity:0.0; 
stroke:#008484; stroke-width:60; stroke-opacity:1; 
stroke-linecap:round; stroke-linejoin:round;">
<text x="38290" y="20510"
textLength="920" font-size="660" lengthAdjust="spacingAndGlyphs"
text-anchor="middle" opacity="0">J4</text>
<path d="M38120 19980
L38120 20340
L38090 20410
L38050 20460
L37980 20480
L37930 20480
" />
<path d="M38570 20150
L38570 20480
" />
<path d="M38450 19960
L38330 20310
L38640 20310
" />
<text x="38570" y="21420"
textLength="1490" font-size="660" lengthAdjust="spacingAndGlyphs"
text-anchor="middle" opacity="0">OUT</text>
<path d="M38070 20890
L38160 20890
L38210 20920
L38260 20960
L38280 21060
L38280 21220
L38260 21320
L38210 21370
L38160 21390
L38070 21390
L38020 21370
L37970 21320
L37950 21220
L37950 21060
L37970 20960
L38020 20920
L38070 20890
" />
<path d="M38490 20890
L38490 21300
L38520 21340
L38540 21370
L38590 21390
L38680 21390
L38730 21370
L38760 21340
L38780 21300
L38780 20890
" />
<path d="M38950 20890
L39230 20890
" />
<path d="M39090 21390
L39090 20890
" />
</g>
</g>
<g style="fill:#008484; fill-opacity:0.0; 
stroke:#008484; stroke-width:0; stroke-opacity:1; 
stroke-linecap:round; stroke-linejoin:round;">
<g >
</g>
<g style="fill:#840000; fill-opacity:0.0; 
stroke:#840000; stroke-width:0; stroke-opacity:1; 
stroke-linecap:round; stroke-linejoin:round;">
</g>
<g style="fill:#840000; fill-opacity:0.0; 
stroke:#840000; stroke-width:100; stroke-opacity:1; 
stroke-linecap:round; stroke-linejoin:round;">
<rect x="21000" y="23600" width="2000" height="800" rx="0" />
</g>
<g style="fill:#840000; fill-opacity:0.0; 
stroke:#840000; stroke-width:60; stroke-opacity:1; 
stroke-linecap:round; stroke-linejoin:round;">
<path d="M21000 24000
L20500 24000
" />
<path d="M23000 24000
L23500 24000
" />
</g>
<g style="fill:#008484; fill-opacity:0.0; 
stroke:#008484; stroke-width:60; stroke-opacity:1; 
stroke-linecap:round; stroke-linejoin:round;">
<text x="21990" y="22150"
textLength="1510" font-size="660" lengthAdjust="spacingAndGlyphs"
text-anchor="middle" opacity="0">R15</text>
<path d="M21660 22120
L21500 21880
" />
<path d="M21380 22120
L21380 21620
L21570 21620
L21620 21650
L21640 21670
L21660 21720
L21660 21790
L21640 21840
L21620 21860
L21570 21880
L21380 21880
" />
<path d="M22140 22120
L21850 22120
" />
<path d="M22000 22120
L22000 21620
L21950 21690
L21900 21740
L21850 21760
" />
<path d="M22590 21620
L22350 21620
L22330 21860
L22350 21840
L22400 21810
L22520 21810
L22570 21840
L22590 21860
L22620 21910
L22620 22030
L22590 22070
L22570 22100
L22520 22120
L22400 22120
L22350 22100
L22330 22070
" />
<text x="21990" y="23060"
textLength="1490" font-size="660" lengthAdjust="spacingAndGlyphs"
text-anchor="middle" opacity="0">470</text>
<path d="M21600 22700
L21600 23030
" />
<path d="M21490 22510
L21370 22860
L21680 22860
" />
<path d="M21820 22530
L22150 22530
L21940 23030
" />
<path d="M22440 22530
L22490 22530
L22530 22560
L22560 22580
L22580 22630
L22600 22720
L22600 22840
L22580 22940
L22560 22980
L22530 23010
L22490 23030
L22440 23030
L22390 23010
L22370 22980
L22340 22940
L22320 22840
L22320 22720
L22340 22630
L22370 22580
L22390 22560
L22440 22530
" />
</g>
</g>
<g style="fill:#008484; fill-opacity:0.0; 
stroke:#008484; stroke-width:60; stroke-opacity:1; 
stroke-linecap:round; stroke-linejoin:round;">
</g>
<g style="fill:#008400; fill-opacity:0.0; 
stroke:#008400; stroke-width:60; stroke-opacity:1; 
stroke-linecap:round; stroke-linejoin:round;">
<path d="M24000 24000
L24500 24000
" />
<path d="M33500 25500
L33500 27000
" />
<path d="M27000 25500
L24000 25500
" />
<path d="M30000 20500
L30500 20500
" />
<path d="M30500 23500
L30500 25500
" />
<path d="M18500 31500
L18500 24000
" />
<path d="M25000 32500
L25500 32500
" />
<path d="M30500 25500
L33500 25500
" />
<path d="M20500 31500
L18500 31500
" />
<path d="M27500 24000
L33500 24000
" />
<path d="M30500 20500
L33500 20500
" />
<path d="M23500 31500
L25500 31500
" />
<path d="M25000 32500
L25000 35500
" />
<path d="M30000 25500
L30500 25500
" />
<path d="M10500 17500
L11500 17500
" />
<path d="M23000 20500
L18500 20500
" />
<path d="M18500 20500
L18500 19500
" />
<path d="M18500 20500
L18500 24000
" />
<path d="M18500 24000
L20500 24000
" />
<path d="M23500 24000
L24000 24000
" />
<path d="M33500 24000
L33500 25500
" />
<path d="M33500 21500
L33500 24000
" />
<path d="M18500 14000
L18500 15500
" />
<path d="M14500 17500
L15500 17500
" />
<path d="M26000 20500
L27000 20500
" />
<path d="M24000 25500
L24000 24000
" />
</g>
<g style="fill:#848400; fill-opacity:0.0; 
stroke:#848400; stroke-width:60; stroke-opacity:1; 
stroke-linecap:round; stroke-linejoin:round;">
<text x="9900" y="17750"
textLength="750" font-size="660" lengthAdjust="spacingAndGlyphs"
text-anchor="end" opacity="0">in</text>
<path d="M9290 17720
L9290 17390
" />
<path d="M9290 17220
L9270 17250
L9290 17270
L9320 17250
L9290 17220
L9290 17270
" />
<path d="M9530 17390
L9530 17720
" />
<path d="M9530 17440
L9560 17410
L9600 17390
L9670 17390
L9720 17410
L9750 17460
L9750 17720
" />
</g>
<g style="fill:#848400; fill-opacity:0.0; 
stroke:#848400; stroke-width:100; stroke-opacity:1; 
stroke-linecap:round; stroke-linejoin:round;">
<path style="fill:#848400; fill-opacity:0.0; 
stroke:#848400; stroke-width:100; stroke-opacity:1; 
stroke-linecap:round; stroke-linejoin:round;fill:none"
d="M 10500,17500
10250,17250
10000,17250
10000,17750
10250,17750
Z" /> 
</g>
<g style="fill:#848400; fill-opacity:0.0; 
stroke:#848400; stroke-width:0; stroke-opacity:1; 
stroke-linecap:round; stroke-linejoin:round;">
</g>
<g style="fill:#008400; fill-opacity:0.0; 
stroke:#008400; stroke-width:0; stroke-opacity:1; 
stroke-linecap:round; stroke-linejoin:round;">
</g>
<g style="fill:#008400; fill-opacity:1.0; 
stroke:#008400; stroke-width:100; stroke-opacity:1; 
stroke-linecap:round; stroke-linejoin:round;">
<circle cx="30500" cy="25500" r="200" /> 
</g>
<g style="fill:#008400; fill-opacity:1.0; 
stroke:#008400; stroke-width:0; stroke-opacity:1; 
stroke-linecap:round; stroke-linejoin:round;">
</g>
<g style="fill:#008400; fill-opacity:1.0; 
stroke:#008400; stroke-width:100; stroke-opacity:1; 
stroke-linecap:round; stroke-linejoin:round;">
<circle cx="33500" cy="24000" r="200" /> 
</g>
<g style="fill:#008400; fill-opacity:1.0; 
stroke:#008400; stroke-width:0; stroke-opacity:1; 
stroke-linecap:round; stroke-linejoin:round;">
</g>
<g style="fill:#008400; fill-opacity:1.0; 
stroke:#008400; stroke-width:100; stroke-opacity:1; 
stroke-linecap:round; stroke-linejoin:round;">
<circle cx="24000" cy="24000" r="200" /> 
</g>
<g style="fill:#008400; fill-opacity:1.0; 
stroke:#008400; stroke-width:0; stroke-opacity:1; 
stroke-linecap:round; stroke-linejoin:round;">
</g>
<g style="fill:#008400; fill-opacity:1.0; 
stroke:#008400; stroke-width:100; stroke-opacity:1; 
stroke-linecap:round; stroke-linejoin:round;">
<circle cx="18500" cy="20500" r="200" /> 
</g>
<g style="fill:#008400; fill-opacity:1.0; 
stroke:#008400; stroke-width:0; stroke-opacity:1; 
stroke-linecap:round; stroke-linejoin:round;">
</g>
<g style="fill:#008400; fill-opacity:1.0; 
stroke:#008400; stroke-width:100; stroke-opacity:1; 
stroke-linecap:round; stroke-linejoin:round;">
<circle cx="30500" cy="20500" r="200" /> 
</g>
<g style="fill:#008400; fill-opacity:1.0; 
stroke:#008400; stroke-width:0; stroke-opacity:1; 
stroke-linecap:round; stroke-linejoin:round;">
</g>
<g style="fill:#008400; fill-opacity:1.0; 
stroke:#008400; stroke-width:100; stroke-opacity:1; 
stroke-linecap:round; stroke-linejoin:round;">
<circle cx="33500" cy="25500" r="200" /> 
</g>
<g style="fill:#008400; fill-opacity:1.0; 
stroke:#008400; stroke-width:0; stroke-opacity:1; 
stroke-linecap:round; stroke-linejoin:round;">
</g>
<g style="fill:#008400; fill-opacity:1.0; 
stroke:#008400; stroke-width:100; stroke-opacity:1; 
stroke-linecap:round; stroke-linejoin:round;">
<circle cx="18500" cy="24000" r="200" /> 
</g>
<g style="fill:#008400; fill-opacity:1.0; 
stroke:#008400; stroke-width:60; stroke-opacity:1; 
stroke-linecap:round; stroke-linejoin:round;">
</g>
<g style="fill:#000084; fill-opacity:1.0; 
stroke:#000084; stroke-width:60; stroke-opacity:1; 
stroke-linecap:round; stroke-linejoin:round;">
</g>
<g style="fill:#000084; fill-opacity:0.0; 
stroke:#000084; stroke-width:60; stroke-opacity:1; 
stroke-linecap:round; stroke-linejoin:round;">
<path d="M33260 19260
L33740 19740
" />
<path d="M33740 19260
L33260 19740
" />
</g> 
</svg>
