<?xml version="1.0" standalone="no"?>
 <!DOCTYPE svg PUBLIC "-//W3C//DTD SVG 1.1//EN" 
 "http://www.w3.org/Graphics/SVG/1.1/DTD/svg11.dtd"> 
<svg
  xmlns:svg="http://www.w3.org/2000/svg"
  xmlns="http://www.w3.org/2000/svg"
  xmlns:xlink="http://www.w3.org/1999/xlink"
  version="1.1"
  width="11.998960cm" height="15.001240cm" viewBox="0 0 47240 59060">
<title>SVG Picture created as output-output1.svg date 2021/11/05 21:07:03 </title>
  <desc>Picture generated by Eeschema-SVG </desc>
<g style="fill:#000000; fill-opacity:1;stroke:#000000; stroke-opacity:1;
stroke-linecap:round; stroke-linejoin:round;"
 transform="translate(0 0) scale(1 1)">
</g>
<g style="fill:#000000; fill-opacity:0.0; 
stroke:#000000; stroke-width:0; stroke-opacity:1; 
stroke-linecap:round; stroke-linejoin:round;">
<g >
</g>
<g style="fill:#840000; fill-opacity:0.0; 
stroke:#840000; stroke-width:0; stroke-opacity:1; 
stroke-linecap:round; stroke-linejoin:round;">
</g>
<g style="fill:#840000; fill-opacity:0.0; 
stroke:#840000; stroke-width:100; stroke-opacity:1; 
stroke-linecap:round; stroke-linejoin:round;">
<circle cx="18000" cy="17500" r="1110" /> 
</g>
<g style="fill:#840000; fill-opacity:0.0; 
stroke:#840000; stroke-width:60; stroke-opacity:1; 
stroke-linecap:round; stroke-linejoin:round;">
<path style="fill:#840000; fill-opacity:0.0; 
stroke:#840000; stroke-width:60; stroke-opacity:1; 
stroke-linecap:round; stroke-linejoin:round;fill:none"
d="M 17750,17250
18500,16500
" /> 
<path style="fill:#840000; fill-opacity:0.0; 
stroke:#840000; stroke-width:60; stroke-opacity:1; 
stroke-linecap:round; stroke-linejoin:round;fill:none"
d="M 17750,17750
18500,18500
18500,18500
" /> 
</g>
<g style="fill:#840000; fill-opacity:0.0; 
stroke:#840000; stroke-width:200; stroke-opacity:1; 
stroke-linecap:round; stroke-linejoin:round;">
<path style="fill:#840000; fill-opacity:0.0; 
stroke:#840000; stroke-width:200; stroke-opacity:1; 
stroke-linecap:round; stroke-linejoin:round;fill:none"
d="M 17750,16750
17750,18250
17750,18250
" /> 
</g>
<g style="fill:#840000; fill-opacity:1.0; 
stroke:#840000; stroke-width:60; stroke-opacity:1; 
stroke-linecap:round; stroke-linejoin:round;">
<path style="fill:#840000; fill-opacity:1.0; 
stroke:#840000; stroke-width:60; stroke-opacity:1; 
stroke-linecap:round; stroke-linejoin:round;fill-rule:evenodd;"
d="M 18000,18200
18200,18000
18400,18400
18000,18200
Z" /> 
</g>
<g style="fill:#840000; fill-opacity:0.0; 
stroke:#840000; stroke-width:60; stroke-opacity:1; 
stroke-linecap:round; stroke-linejoin:round;">
<path d="M17750 17500
L15500 17500
" />
<text x="16620" y="18100"
textLength="540" font-size="660" lengthAdjust="spacingAndGlyphs"
text-anchor="middle" opacity="0">1</text>
<path d="M16760 18070
L16470 18070
" />
<path d="M16620 18070
L16620 17570
L16570 17640
L16520 17690
L16470 17710
" />
<path d="M18500 18500
L18500 19500
" />
<g transform="rotate(-90 18600 19000)">
<text x="18600" y="19500"
textLength="540" font-size="660" lengthAdjust="spacingAndGlyphs"
text-anchor="middle" opacity="0">2</text>
</g>
<path d="M18620 19140
L18600 19110
L18570 19070
L18570 18950
L18600 18900
L18620 18880
L18670 18850
L18710 18850
L18790 18880
L19070 19160
L19070 18850
" />
<path d="M18500 16500
L18500 15500
" />
<g transform="rotate(-90 18600 16000)">
<text x="18600" y="16500"
textLength="540" font-size="660" lengthAdjust="spacingAndGlyphs"
text-anchor="middle" opacity="0">3</text>
</g>
<path d="M18570 16160
L18570 15850
L18760 16020
L18760 15950
L18790 15900
L18810 15880
L18860 15850
L18980 15850
L19020 15880
L19050 15900
L19070 15950
L19070 16090
L19050 16140
L19020 16160
" />
</g>
<g style="fill:#008484; fill-opacity:0.0; 
stroke:#008484; stroke-width:60; stroke-opacity:1; 
stroke-linecap:round; stroke-linejoin:round;">
<text x="19930" y="17310"
textLength="1060" font-size="660" lengthAdjust="spacingAndGlyphs"
text-anchor="middle" opacity="0">Q6</text>
<path d="M19880 17330
L19830 17310
L19780 17260
L19710 17190
L19660 17160
L19620 17160
" />
<path d="M19640 17280
L19590 17260
L19540 17210
L19520 17110
L19520 16950
L19540 16850
L19590 16810
L19640 16780
L19730 16780
L19780 16810
L19830 16850
L19850 16950
L19850 17110
L19830 17210
L19780 17260
L19730 17280
L19640 17280
" />
<path d="M20280 16780
L20190 16780
L20140 16810
L20120 16830
L20070 16900
L20040 17000
L20040 17190
L20070 17230
L20090 17260
L20140 17280
L20230 17280
L20280 17260
L20310 17230
L20330 17190
L20330 17070
L20310 17020
L20280 17000
L20230 16970
L20140 16970
L20090 17000
L20070 17020
L20040 17070
" />
<text x="20880" y="18220"
textLength="2960" font-size="660" lengthAdjust="spacingAndGlyphs"
text-anchor="middle" opacity="0">2N3904</text>
<path d="M19520 17740
L19540 17720
L19590 17690
L19710 17690
L19760 17720
L19780 17740
L19800 17790
L19800 17830
L19780 17910
L19490 18190
L19800 18190
" />
<path d="M20020 18190
L20020 17690
L20300 18190
L20300 17690
" />
<path d="M20490 17690
L20800 17690
L20640 17880
L20710 17880
L20760 17910
L20780 17930
L20800 17980
L20800 18100
L20780 18140
L20760 18170
L20710 18190
L20570 18190
L20520 18170
L20490 18140
" />
<path d="M21040 18190
L21140 18190
L21180 18170
L21210 18140
L21260 18070
L21280 17980
L21280 17790
L21260 17740
L21230 17720
L21180 17690
L21090 17690
L21040 17720
L21020 17740
L20990 17790
L20990 17910
L21020 17950
L21040 17980
L21090 18000
L21180 18000
L21230 17980
L21260 17950
L21280 17910
" />
<path d="M21590 17690
L21640 17690
L21680 17720
L21710 17740
L21730 17790
L21760 17880
L21760 18000
L21730 18100
L21710 18140
L21680 18170
L21640 18190
L21590 18190
L21540 18170
L21520 18140
L21490 18100
L21470 18000
L21470 17880
L21490 17790
L21520 17740
L21540 17720
L21590 17690
" />
<path d="M22180 17860
L22180 18190
" />
<path d="M22070 17670
L21950 18020
L22260 18020
" />
</g>
</g>
<g style="fill:#008484; fill-opacity:0.0; 
stroke:#008484; stroke-width:0; stroke-opacity:1; 
stroke-linecap:round; stroke-linejoin:round;">
<g >
</g>
<g style="fill:#840000; fill-opacity:0.0; 
stroke:#840000; stroke-width:0; stroke-opacity:1; 
stroke-linecap:round; stroke-linejoin:round;">
</g>
<g style="fill:#840000; fill-opacity:0.0; 
stroke:#840000; stroke-width:100; stroke-opacity:1; 
stroke-linecap:round; stroke-linejoin:round;">
<path style="fill:#840000; fill-opacity:0.0; 
stroke:#840000; stroke-width:100; stroke-opacity:1; 
stroke-linecap:round; stroke-linejoin:round;fill:none"
d="M 29000,23500
29000,24500
" /> 
</g>
<g style="fill:#840000; fill-opacity:0.0; 
stroke:#840000; stroke-width:60; stroke-opacity:1; 
stroke-linecap:round; stroke-linejoin:round;">
<path style="fill:#840000; fill-opacity:0.0; 
stroke:#840000; stroke-width:60; stroke-opacity:1; 
stroke-linecap:round; stroke-linejoin:round;fill:none"
d="M 29000,24000
28000,24000
" /> 
</g>
<g style="fill:#840000; fill-opacity:0.0; 
stroke:#840000; stroke-width:100; stroke-opacity:1; 
stroke-linecap:round; stroke-linejoin:round;">
<path style="fill:#840000; fill-opacity:0.0; 
stroke:#840000; stroke-width:100; stroke-opacity:1; 
stroke-linecap:round; stroke-linejoin:round;fill:none"
d="M 28000,23500
28000,24500
29000,24000
Z" /> 
</g>
<g style="fill:#840000; fill-opacity:0.0; 
stroke:#840000; stroke-width:60; stroke-opacity:1; 
stroke-linecap:round; stroke-linejoin:round;">
<path style="fill:#840000; fill-opacity:0.0; 
stroke:#840000; stroke-width:60; stroke-opacity:1; 
stroke-linecap:round; stroke-linejoin:round;fill:none"
d="M 29700,23700
30300,23100
30000,23100
30300,23100
30300,23400
" /> 
<path style="fill:#840000; fill-opacity:0.0; 
stroke:#840000; stroke-width:60; stroke-opacity:1; 
stroke-linecap:round; stroke-linejoin:round;fill:none"
d="M 29200,23700
29800,23100
29500,23100
29800,23100
29800,23400
" /> 
<path d="M29000 24000
L30000 24000
" />
<path d="M28000 24000
L27000 24000
" />
</g>
<g style="fill:#008484; fill-opacity:0.0; 
stroke:#008484; stroke-width:60; stroke-opacity:1; 
stroke-linecap:round; stroke-linejoin:round;">
<text x="28570" y="22590"
textLength="1040" font-size="660" lengthAdjust="spacingAndGlyphs"
text-anchor="middle" opacity="0">D7</text>
<path d="M28200 22560
L28200 22060
L28320 22060
L28390 22090
L28430 22130
L28460 22180
L28480 22280
L28480 22350
L28460 22440
L28430 22490
L28390 22540
L28320 22560
L28200 22560
" />
<path d="M28650 22060
L28980 22060
L28770 22560
" />
</g>
</g>
<g style="fill:#008484; fill-opacity:0.0; 
stroke:#008484; stroke-width:0; stroke-opacity:1; 
stroke-linecap:round; stroke-linejoin:round;">
<g >
</g>
<g style="fill:#840000; fill-opacity:0.0; 
stroke:#840000; stroke-width:0; stroke-opacity:1; 
stroke-linecap:round; stroke-linejoin:round;">
</g>
<g style="fill:#840000; fill-opacity:0.0; 
stroke:#840000; stroke-width:100; stroke-opacity:1; 
stroke-linecap:round; stroke-linejoin:round;">
<rect x="12000" y="17100" width="2000" height="800" rx="0" />
</g>
<g style="fill:#840000; fill-opacity:0.0; 
stroke:#840000; stroke-width:60; stroke-opacity:1; 
stroke-linecap:round; stroke-linejoin:round;">
<path d="M12000 17500
L11500 17500
" />
<path d="M14000 17500
L14500 17500
" />
</g>
<g style="fill:#008484; fill-opacity:0.0; 
stroke:#008484; stroke-width:60; stroke-opacity:1; 
stroke-linecap:round; stroke-linejoin:round;">
<text x="12990" y="15650"
textLength="1510" font-size="660" lengthAdjust="spacingAndGlyphs"
text-anchor="middle" opacity="0">R13</text>
<path d="M12660 15620
L12500 15380
" />
<path d="M12380 15620
L12380 15120
L12570 15120
L12620 15150
L12640 15170
L12660 15220
L12660 15290
L12640 15340
L12620 15360
L12570 15380
L12380 15380
" />
<path d="M13140 15620
L12850 15620
" />
<path d="M13000 15620
L13000 15120
L12950 15190
L12900 15240
L12850 15260
" />
<path d="M13310 15120
L13620 15120
L13450 15310
L13520 15310
L13570 15340
L13590 15360
L13620 15410
L13620 15530
L13590 15570
L13570 15600
L13520 15620
L13380 15620
L13330 15600
L13310 15570
" />
<text x="12990" y="16560"
textLength="1890" font-size="660" lengthAdjust="spacingAndGlyphs"
text-anchor="middle" opacity="0">100k</text>
<path d="M12450 16530
L12160 16530
" />
<path d="M12310 16530
L12310 16030
L12260 16100
L12210 16150
L12160 16170
" />
<path d="M12760 16030
L12810 16030
L12850 16060
L12880 16080
L12900 16130
L12930 16220
L12930 16340
L12900 16440
L12880 16480
L12850 16510
L12810 16530
L12760 16530
L12710 16510
L12690 16480
L12660 16440
L12640 16340
L12640 16220
L12660 16130
L12690 16080
L12710 16060
L12760 16030
" />
<path d="M13240 16030
L13280 16030
L13330 16060
L13350 16080
L13380 16130
L13400 16220
L13400 16340
L13380 16440
L13350 16480
L13330 16510
L13280 16530
L13240 16530
L13190 16510
L13160 16480
L13140 16440
L13120 16340
L13120 16220
L13140 16130
L13160 16080
L13190 16060
L13240 16030
" />
<path d="M13620 16530
L13620 16030
" />
<path d="M13660 16340
L13810 16530
" />
<path d="M13810 16200
L13620 16390
" />
</g>
</g>
<g style="fill:#008484; fill-opacity:0.0; 
stroke:#008484; stroke-width:0; stroke-opacity:1; 
stroke-linecap:round; stroke-linejoin:round;">
<g >
</g>
<g style="fill:#840000; fill-opacity:0.0; 
stroke:#840000; stroke-width:0; stroke-opacity:1; 
stroke-linecap:round; stroke-linejoin:round;">
</g>
<g style="fill:#840000; fill-opacity:0.0; 
stroke:#840000; stroke-width:60; stroke-opacity:1; 
stroke-linecap:round; stroke-linejoin:round;">
<path style="fill:#840000; fill-opacity:0.0; 
stroke:#840000; stroke-width:60; stroke-opacity:1; 
stroke-linecap:round; stroke-linejoin:round;fill:none"
d="M 18200,13500
18500,13000
" /> 
<path style="fill:#840000; fill-opacity:0.0; 
stroke:#840000; stroke-width:60; stroke-opacity:1; 
stroke-linecap:round; stroke-linejoin:round;fill:none"
d="M 18500,13500
18500,14000
" /> 
<path style="fill:#840000; fill-opacity:0.0; 
stroke:#840000; stroke-width:60; stroke-opacity:1; 
stroke-linecap:round; stroke-linejoin:round;fill:none"
d="M 18500,13000
18800,13500
" /> 
<path style="fill:#840000; fill-opacity:0.0; 
stroke:#840000; stroke-width:60; stroke-opacity:1; 
stroke-linecap:round; stroke-linejoin:round;fill:none"
d="M 18800,13500
18200,13500
" /> 
</g>
<g style="fill:#008484; fill-opacity:0.0; 
stroke:#008484; stroke-width:60; stroke-opacity:1; 
stroke-linecap:round; stroke-linejoin:round;">
<text x="18650" y="12540"
textLength="1580" font-size="660" lengthAdjust="spacingAndGlyphs"
text-anchor="middle" opacity="0">+5V</text>
<path d="M18000 12320
L18380 12320
" />
<path d="M18190 12510
L18190 12130
" />
<path d="M18860 12010
L18620 12010
L18600 12250
L18620 12230
L18670 12200
L18790 12200
L18840 12230
L18860 12250
L18880 12300
L18880 12420
L18860 12460
L18840 12490
L18790 12510
L18670 12510
L18620 12490
L18600 12460
" />
<path d="M19030 12010
L19190 12510
L19360 12010
" />
</g>
</g>
<g style="fill:#008484; fill-opacity:0.0; 
stroke:#008484; stroke-width:0; stroke-opacity:1; 
stroke-linecap:round; stroke-linejoin:round;">
<g >
</g>
<g style="fill:#840000; fill-opacity:0.0; 
stroke:#840000; stroke-width:0; stroke-opacity:1; 
stroke-linecap:round; stroke-linejoin:round;">
</g>
<g style="fill:#840000; fill-opacity:0.0; 
stroke:#840000; stroke-width:60; stroke-opacity:1; 
stroke-linecap:round; stroke-linejoin:round;">
<path style="fill:#840000; fill-opacity:0.0; 
stroke:#840000; stroke-width:60; stroke-opacity:1; 
stroke-linecap:round; stroke-linejoin:round;fill:none"
d="M 32250,27750
32750,27750
" /> 
<path style="fill:#840000; fill-opacity:0.0; 
stroke:#840000; stroke-width:60; stroke-opacity:1; 
stroke-linecap:round; stroke-linejoin:round;fill:none"
d="M 32450,28000
32550,28000
" /> 
<path style="fill:#840000; fill-opacity:0.0; 
stroke:#840000; stroke-width:60; stroke-opacity:1; 
stroke-linecap:round; stroke-linejoin:round;fill:none"
d="M 32500,27500
32500,27000
" /> 
<path style="fill:#840000; fill-opacity:0.0; 
stroke:#840000; stroke-width:60; stroke-opacity:1; 
stroke-linecap:round; stroke-linejoin:round;fill:none"
d="M 33000,27500
32000,27500
" /> 
</g>
<g style="fill:#008484; fill-opacity:0.0; 
stroke:#008484; stroke-width:60; stroke-opacity:1; 
stroke-linecap:round; stroke-linejoin:round;">
<text x="32550" y="29000"
textLength="2960" font-size="660" lengthAdjust="spacingAndGlyphs"
text-anchor="middle" opacity="0">GNDREF</text>
<path d="M31470 28500
L31430 28470
L31350 28470
L31280 28500
L31240 28540
L31210 28590
L31190 28690
L31190 28760
L31210 28850
L31240 28900
L31280 28950
L31350 28970
L31400 28970
L31470 28950
L31500 28920
L31500 28760
L31400 28760
" />
<path d="M31710 28970
L31710 28470
L32000 28970
L32000 28470
" />
<path d="M32240 28970
L32240 28470
L32350 28470
L32430 28500
L32470 28540
L32500 28590
L32520 28690
L32520 28760
L32500 28850
L32470 28900
L32430 28950
L32350 28970
L32240 28970
" />
<path d="M33020 28970
L32850 28730
" />
<path d="M32740 28970
L32740 28470
L32930 28470
L32970 28500
L33000 28520
L33020 28570
L33020 28640
L33000 28690
L32970 28710
L32930 28730
L32740 28730
" />
<path d="M33240 28710
L33400 28710
" />
<path d="M33470 28970
L33240 28970
L33240 28470
L33470 28470
" />
<path d="M33850 28710
L33690 28710
" />
<path d="M33690 28970
L33690 28470
L33930 28470
" />
</g>
</g>
<g style="fill:#008484; fill-opacity:0.0; 
stroke:#008484; stroke-width:0; stroke-opacity:1; 
stroke-linecap:round; stroke-linejoin:round;">
<g >
</g>
<g style="fill:#840000; fill-opacity:0.0; 
stroke:#840000; stroke-width:0; stroke-opacity:1; 
stroke-linecap:round; stroke-linejoin:round;">
</g>
<g style="fill:#840000; fill-opacity:0.0; 
stroke:#840000; stroke-width:100; stroke-opacity:1; 
stroke-linecap:round; stroke-linejoin:round;">
<rect x="23500" y="23600" width="2000" height="800" rx="0" />
</g>
<g style="fill:#840000; fill-opacity:0.0; 
stroke:#840000; stroke-width:60; stroke-opacity:1; 
stroke-linecap:round; stroke-linejoin:round;">
<path d="M23500 24000
L23000 24000
" />
<path d="M25500 24000
L26000 24000
" />
</g>
<g style="fill:#008484; fill-opacity:0.0; 
stroke:#008484; stroke-width:60; stroke-opacity:1; 
stroke-linecap:round; stroke-linejoin:round;">
<text x="24490" y="22150"
textLength="1510" font-size="660" lengthAdjust="spacingAndGlyphs"
text-anchor="middle" opacity="0">R15</text>
<path d="M24160 22120
L24000 21880
" />
<path d="M23880 22120
L23880 21620
L24070 21620
L24120 21650
L24140 21670
L24160 21720
L24160 21790
L24140 21840
L24120 21860
L24070 21880
L23880 21880
" />
<path d="M24640 22120
L24350 22120
" />
<path d="M24500 22120
L24500 21620
L24450 21690
L24400 21740
L24350 21760
" />
<path d="M25090 21620
L24850 21620
L24830 21860
L24850 21840
L24900 21810
L25020 21810
L25070 21840
L25090 21860
L25120 21910
L25120 22030
L25090 22070
L25070 22100
L25020 22120
L24900 22120
L24850 22100
L24830 22070
" />
<text x="24490" y="23060"
textLength="1490" font-size="660" lengthAdjust="spacingAndGlyphs"
text-anchor="middle" opacity="0">470</text>
<path d="M24100 22700
L24100 23030
" />
<path d="M23990 22510
L23870 22860
L24180 22860
" />
<path d="M24320 22530
L24650 22530
L24440 23030
" />
<path d="M24940 22530
L24990 22530
L25030 22560
L25060 22580
L25080 22630
L25100 22720
L25100 22840
L25080 22940
L25060 22980
L25030 23010
L24990 23030
L24940 23030
L24890 23010
L24870 22980
L24840 22940
L24820 22840
L24820 22720
L24840 22630
L24870 22580
L24890 22560
L24940 22530
" />
</g>
</g>
<g style="fill:#008484; fill-opacity:0.0; 
stroke:#008484; stroke-width:0; stroke-opacity:1; 
stroke-linecap:round; stroke-linejoin:round;">
<g >
</g>
<g style="fill:#840000; fill-opacity:0.0; 
stroke:#840000; stroke-width:0; stroke-opacity:1; 
stroke-linecap:round; stroke-linejoin:round;">
</g>
<g style="fill:#840000; fill-opacity:0.0; 
stroke:#840000; stroke-width:100; stroke-opacity:1; 
stroke-linecap:round; stroke-linejoin:round;">
<rect x="23500" y="20100" width="2000" height="800" rx="0" />
</g>
<g style="fill:#840000; fill-opacity:0.0; 
stroke:#840000; stroke-width:60; stroke-opacity:1; 
stroke-linecap:round; stroke-linejoin:round;">
<path d="M23500 20500
L23000 20500
" />
<path d="M25500 20500
L26000 20500
" />
</g>
<g style="fill:#008484; fill-opacity:0.0; 
stroke:#008484; stroke-width:60; stroke-opacity:1; 
stroke-linecap:round; stroke-linejoin:round;">
<text x="24490" y="18650"
textLength="1510" font-size="660" lengthAdjust="spacingAndGlyphs"
text-anchor="middle" opacity="0">R14</text>
<path d="M24160 18620
L24000 18380
" />
<path d="M23880 18620
L23880 18120
L24070 18120
L24120 18150
L24140 18170
L24160 18220
L24160 18290
L24140 18340
L24120 18360
L24070 18380
L23880 18380
" />
<path d="M24640 18620
L24350 18620
" />
<path d="M24500 18620
L24500 18120
L24450 18190
L24400 18240
L24350 18260
" />
<path d="M25070 18290
L25070 18620
" />
<path d="M24950 18100
L24830 18450
L25140 18450
" />
<text x="24500" y="19560"
textLength="940" font-size="660" lengthAdjust="spacingAndGlyphs"
text-anchor="middle" opacity="0">1k</text>
<path d="M24440 19530
L24150 19530
" />
<path d="M24290 19530
L24290 19030
L24250 19100
L24200 19150
L24150 19170
" />
<path d="M24650 19530
L24650 19030
" />
<path d="M24700 19340
L24840 19530
" />
<path d="M24840 19200
L24650 19390
" />
</g>
</g>
<g style="fill:#008484; fill-opacity:0.0; 
stroke:#008484; stroke-width:0; stroke-opacity:1; 
stroke-linecap:round; stroke-linejoin:round;">
<g >
</g>
<g style="fill:#840000; fill-opacity:0.0; 
stroke:#840000; stroke-width:0; stroke-opacity:1; 
stroke-linecap:round; stroke-linejoin:round;">
</g>
<g style="fill:#FFFFC2; fill-opacity:0.0; 
stroke:#FFFFC2; stroke-width:0; stroke-opacity:1; 
stroke-linecap:round; stroke-linejoin:round;">
</g>
<g style="fill:#FFFFC2; fill-opacity:0.6; 
stroke:#FFFFC2; stroke-width:0; stroke-opacity:1; 
stroke-linecap:round; stroke-linejoin:round;">
<rect x="33500" y="19250" width="2800" height="3000" rx="0" />
</g>
<g style="fill:#840000; fill-opacity:0.6; 
stroke:#840000; stroke-width:0; stroke-opacity:1; 
stroke-linecap:round; stroke-linejoin:round;">
</g>
<g style="fill:#840000; fill-opacity:0.0; 
stroke:#840000; stroke-width:100; stroke-opacity:1; 
stroke-linecap:round; stroke-linejoin:round;">
<rect x="33500" y="19250" width="2800" height="3000" rx="0" />
</g>
<g style="fill:#840000; fill-opacity:1.0; 
stroke:#840000; stroke-width:60; stroke-opacity:1; 
stroke-linecap:round; stroke-linejoin:round;">
<rect x="36250" y="19500" width="300" height="1000" rx="0" />
</g>
<g style="fill:#840000; fill-opacity:0.0; 
stroke:#840000; stroke-width:100; stroke-opacity:1; 
stroke-linecap:round; stroke-linejoin:round;">
<rect x="33500" y="19250" width="2800" height="3000" rx="0" />
</g>
<g style="fill:#840000; fill-opacity:0.0; 
stroke:#840000; stroke-width:60; stroke-opacity:1; 
stroke-linecap:round; stroke-linejoin:round;">
<path style="fill:#840000; fill-opacity:0.0; 
stroke:#840000; stroke-width:60; stroke-opacity:1; 
stroke-linecap:round; stroke-linejoin:round;fill:none"
d="M 33800,20400
33700,20200
" /> 
</g>
<g style="fill:#840000; fill-opacity:0.0; 
stroke:#840000; stroke-width:100; stroke-opacity:1; 
stroke-linecap:round; stroke-linejoin:round;">
<path style="fill:#840000; fill-opacity:0.0; 
stroke:#840000; stroke-width:100; stroke-opacity:1; 
stroke-linecap:round; stroke-linejoin:round;fill:none"
d="M 34500,20500
34250,20250
34000,20500
33500,20500
" /> 
</g>
<g style="fill:#840000; fill-opacity:0.0; 
stroke:#840000; stroke-width:60; stroke-opacity:1; 
stroke-linecap:round; stroke-linejoin:round;">
<path style="fill:#840000; fill-opacity:0.0; 
stroke:#840000; stroke-width:60; stroke-opacity:1; 
stroke-linecap:round; stroke-linejoin:round;fill:none"
d="M 33500,19500
33800,19500
33800,20400
33900,20200
" /> 
</g>
<g style="fill:#840000; fill-opacity:0.0; 
stroke:#840000; stroke-width:100; stroke-opacity:1; 
stroke-linecap:round; stroke-linejoin:round;">
<path style="fill:#840000; fill-opacity:0.0; 
stroke:#840000; stroke-width:100; stroke-opacity:1; 
stroke-linecap:round; stroke-linejoin:round;fill:none"
d="M 33500,21500
35500,21500
35500,20500
35750,20250
36000,20500
" /> 
</g>
<g style="fill:#840000; fill-opacity:0.0; 
stroke:#840000; stroke-width:60; stroke-opacity:1; 
stroke-linecap:round; stroke-linejoin:round;">
<path d="M33500 21500
L32500 21500
" />
<text x="33000" y="21400"
textLength="540" font-size="660" lengthAdjust="spacingAndGlyphs"
text-anchor="middle" opacity="0">S</text>
<path d="M32850 21350
L32920 21370
L33040 21370
L33090 21350
L33110 21320
L33140 21280
L33140 21230
L33110 21180
L33090 21160
L33040 21130
L32950 21110
L32900 21090
L32880 21060
L32850 21010
L32850 20970
L32880 20920
L32900 20900
L32950 20870
L33070 20870
L33140 20900
" />
<path d="M33500 20500
L32500 20500
" />
<text x="33000" y="20400"
textLength="440" font-size="660" lengthAdjust="spacingAndGlyphs"
text-anchor="middle" opacity="0">T</text>
<path d="M32850 19870
L33140 19870
" />
<path d="M33000 20370
L33000 19870
" />
<path d="M33500 19500
L32500 19500
" />
<text x="33000" y="19400"
textLength="960" font-size="660" lengthAdjust="spacingAndGlyphs"
text-anchor="middle" opacity="0">TN</text>
<path d="M32590 18870
L32880 18870
" />
<path d="M32730 19370
L32730 18870
" />
<path d="M33040 19370
L33040 18870
L33330 19370
L33330 18870
" />
</g>
<g style="fill:#008484; fill-opacity:0.0; 
stroke:#008484; stroke-width:60; stroke-opacity:1; 
stroke-linecap:round; stroke-linejoin:round;">
<text x="37290" y="20510"
textLength="920" font-size="660" lengthAdjust="spacingAndGlyphs"
text-anchor="middle" opacity="0">J4</text>
<path d="M37120 19980
L37120 20340
L37090 20410
L37050 20460
L36980 20480
L36930 20480
" />
<path d="M37570 20150
L37570 20480
" />
<path d="M37450 19960
L37330 20310
L37640 20310
" />
<text x="37570" y="21420"
textLength="1490" font-size="660" lengthAdjust="spacingAndGlyphs"
text-anchor="middle" opacity="0">OUT</text>
<path d="M37070 20890
L37160 20890
L37210 20920
L37260 20960
L37280 21060
L37280 21220
L37260 21320
L37210 21370
L37160 21390
L37070 21390
L37020 21370
L36970 21320
L36950 21220
L36950 21060
L36970 20960
L37020 20920
L37070 20890
" />
<path d="M37490 20890
L37490 21300
L37520 21340
L37540 21370
L37590 21390
L37680 21390
L37730 21370
L37760 21340
L37780 21300
L37780 20890
" />
<path d="M37950 20890
L38230 20890
" />
<path d="M38090 21390
L38090 20890
" />
</g>
</g>
<g style="fill:#008484; fill-opacity:0.0; 
stroke:#008484; stroke-width:60; stroke-opacity:1; 
stroke-linecap:round; stroke-linejoin:round;">
</g>
<g style="fill:#008400; fill-opacity:0.0; 
stroke:#008400; stroke-width:60; stroke-opacity:1; 
stroke-linecap:round; stroke-linejoin:round;">
<path d="M23000 20500
L18500 20500
" />
<path d="M14500 17500
L15500 17500
" />
<path d="M18500 14000
L18500 15500
" />
<path d="M10500 17500
L11500 17500
" />
<path d="M26000 20500
L32500 20500
" />
<path d="M32500 21500
L32500 24000
" />
<path d="M32500 24000
L30000 24000
" />
<path d="M32500 24000
L32500 27000
" />
<path d="M26000 24000
L27000 24000
" />
<path d="M18500 24000
L23000 24000
" />
<path d="M18500 20500
L18500 24000
" />
<path d="M18500 20500
L18500 19500
" />
</g>
<g style="fill:#848400; fill-opacity:0.0; 
stroke:#848400; stroke-width:60; stroke-opacity:1; 
stroke-linecap:round; stroke-linejoin:round;">
<text x="9900" y="17750"
textLength="750" font-size="660" lengthAdjust="spacingAndGlyphs"
text-anchor="end" opacity="0">in</text>
<path d="M9290 17720
L9290 17390
" />
<path d="M9290 17220
L9270 17250
L9290 17270
L9320 17250
L9290 17220
L9290 17270
" />
<path d="M9530 17390
L9530 17720
" />
<path d="M9530 17440
L9560 17410
L9600 17390
L9670 17390
L9720 17410
L9750 17460
L9750 17720
" />
</g>
<g style="fill:#848400; fill-opacity:0.0; 
stroke:#848400; stroke-width:100; stroke-opacity:1; 
stroke-linecap:round; stroke-linejoin:round;">
<path style="fill:#848400; fill-opacity:0.0; 
stroke:#848400; stroke-width:100; stroke-opacity:1; 
stroke-linecap:round; stroke-linejoin:round;fill:none"
d="M 10500,17500
10250,17250
10000,17250
10000,17750
10250,17750
Z" /> 
</g>
<g style="fill:#848400; fill-opacity:0.0; 
stroke:#848400; stroke-width:0; stroke-opacity:1; 
stroke-linecap:round; stroke-linejoin:round;">
</g>
<g style="fill:#008400; fill-opacity:0.0; 
stroke:#008400; stroke-width:0; stroke-opacity:1; 
stroke-linecap:round; stroke-linejoin:round;">
</g>
<g style="fill:#008400; fill-opacity:1.0; 
stroke:#008400; stroke-width:100; stroke-opacity:1; 
stroke-linecap:round; stroke-linejoin:round;">
<circle cx="18500" cy="20500" r="200" /> 
</g>
<g style="fill:#008400; fill-opacity:1.0; 
stroke:#008400; stroke-width:0; stroke-opacity:1; 
stroke-linecap:round; stroke-linejoin:round;">
</g>
<g style="fill:#008400; fill-opacity:1.0; 
stroke:#008400; stroke-width:100; stroke-opacity:1; 
stroke-linecap:round; stroke-linejoin:round;">
<circle cx="32500" cy="24000" r="200" /> 
</g> 
</svg>
