<?xml version="1.0" encoding="UTF-8"?>
<svg width="10.7cm" height="4.0007cm" version="1.1" viewBox="0 0 42127 15751" xmlns="http://www.w3.org/2000/svg">
 <style/>
 <title>SVG Picture created as PWR-PWR.svg date 2021/11/05 21:06:47</title>
 <desc>Picture generated by Eeschema-SVG</desc>
 <g transform="translate(-8888.9 -10630)" fill-opacity="0" stroke-linecap="round" stroke-linejoin="round" stroke-width="0">
  <g fill="#840000" stroke="#840000" stroke-width="60">
   <g fill-opacity="0">
    <rect x="26100" y="18100" width="1800" height="200" rx="0"/>
   </g>
   <g fill-opacity="1">
    <rect x="26100" y="18700" width="1800" height="200" rx="0"/>
   </g>
   <g fill-opacity="0">
    <path d="m26300 17600h400" fill="none" stroke="#840000" stroke-linecap="round" stroke-linejoin="round" stroke-width="60"/>
    <path d="m26500 17400v400" fill="none" stroke="#840000" stroke-linecap="round" stroke-linejoin="round" stroke-width="60"/>
    <path d="m27000 18100v-1100"/>
    <path d="m27000 18900v1100"/>
   </g>
  </g>
  <g fill-opacity="0" stroke-width="60">
   <g fill="#008484" stroke="#008484">
    <text x="28700" y="18310" font-size="660px" opacity="0" text-anchor="middle" lengthAdjust="spacingAndGlyphs" textLength="1040">C4</text>
    <path d="m28610 18230-20 30-70 20h-50l-70-20-50-50-20-50-30-90v-70l30-100 20-50 50-40 70-30h50l70 30 20 20"/>
    <path d="m29040 17950v330"/>
    <path d="m28920 17760-120 350h310"/>
    <text x="28910" y="19220" font-size="660px" opacity="0" text-anchor="middle" lengthAdjust="spacingAndGlyphs" textLength="1460">22u</text>
    <path d="m28300 18740 20-20 50-30h120l50 30 20 20 20 50v40l-20 80-290 280h310"/>
    <path d="m28770 18740 30-20 50-30h110l50 30 30 20 20 50v40l-20 80-290 280h310"/>
    <path d="m29490 18860v330"/>
    <path d="m29270 18860v260l30 50 50 20h70l40-20 30-30"/>
   </g>
   <g fill="none" stroke="#840000">
    <path d="m29250 20750h500"/>
    <path d="m29450 21000h100"/>
    <path d="m29500 20500v-500"/>
    <path d="m3e4 20500h-1e3"/>
   </g>
   <g fill="#008484" stroke="#008484">
    <text x="29550" y="22000" font-size="660px" opacity="0" text-anchor="middle" lengthAdjust="spacingAndGlyphs" textLength="2960">GNDREF</text>
    <path d="m28470 21500-40-30h-80l-70 30-40 40-30 50-20 100v70l20 90 30 50 40 50 70 20h50l70-20 30-30v-160h-100"/>
    <path d="m28710 21970v-500l290 500v-500"/>
    <path d="m29240 21970v-500h110l80 30 40 40 30 50 20 100v70l-20 90-30 50-40 50-80 20h-110"/>
    <path d="m30020 21970-170-240"/>
    <path d="m29740 21970v-500h190l40 30 30 20 20 50v70l-20 50-30 20-40 20h-190"/>
    <path d="m30240 21710h160"/>
    <path d="m30470 21970h-230v-500h230"/>
    <path d="m30850 21710h-160"/>
    <path d="m30690 21970v-500h240"/>
   </g>
  </g>
  <g fill="#ffffc2" fill-opacity=".6" stroke="#ffffc2" stroke-width="0">
   <rect x="39000" y="16250" width="4e3" height="2750" rx="0"/>
  </g>
  <g fill-opacity="0">
   <g fill="#840000" stroke="#840000" stroke-width="100">
    <rect x="39000" y="16250" width="4e3" height="2750" rx="0"/>
    <rect x="39000" y="16250" width="4e3" height="2750" rx="0"/>
   </g>
   <g stroke-width="60">
    <g fill="#840000" stroke="#840000">
     <path d="m41000 19000v1e3"/>
    </g>
    <g fill="#008484" stroke="#008484">
     <g transform="rotate(-90,41000,18900)">
      <text x="41000" y="19150" font-size="660px" opacity="0" lengthAdjust="spacingAndGlyphs" textLength="1580">GND</text>
     </g>
     <path d="m40750 18480-30 50v70l30 70 40 50 50 30 100 20h70l90-20 50-30 50-50 20-70v-40l-20-80-30-20h-160v100"/>
     <path d="m41220 18250h-500l500-290h-500"/>
     <path d="m41220 17720h-500v-120l30-70 40-50 50-20 100-20h70l90 20 50 20 50 50 20 70v120"/>
    </g>
    <g fill="#840000" stroke="#840000">
     <g transform="rotate(-90,40900,19500)">
      <text x="40900" y="19500" font-size="660px" opacity="0" text-anchor="middle" lengthAdjust="spacingAndGlyphs" textLength="540">1</text>
     </g>
     <path d="m40870 19350v290"/>
     <path d="m40870 19500h-500l70 40 50 50 20 50"/>
     <path d="m43000 17000h1e3"/>
    </g>
    <g fill="#008484" stroke="#008484">
     <text x="42900" y="17250" font-size="660px" opacity="0" text-anchor="end" lengthAdjust="spacingAndGlyphs" textLength="1010">VO</text>
     <path d="m41960 16720 170 500 160-500"/>
     <path d="m42560 16720h90l50 30 50 40 20 100v160l-20 100-50 50-50 20h-90l-50-20-50-50-20-100v-160l20-100 50-40 50-30"/>
    </g>
    <g fill="#840000" stroke="#840000">
     <text x="43500" y="16900" font-size="660px" opacity="0" text-anchor="middle" lengthAdjust="spacingAndGlyphs" textLength="540">2</text>
     <path d="m43350 16420 30-20 40-30h120l50 30 20 20 30 50v40l-30 80-280 280h310"/>
     <path d="m39000 17000h-1e3"/>
    </g>
    <g fill="#008484" stroke="#008484">
     <text x="39100" y="17250" font-size="660px" opacity="0" lengthAdjust="spacingAndGlyphs" textLength="730">VI</text>
     <path d="m39170 16720 170 500 170-500"/>
     <path d="m39670 17220v-500"/>
    </g>
    <g fill="#840000" stroke="#840000">
     <text x="38500" y="16900" font-size="660px" opacity="0" text-anchor="middle" lengthAdjust="spacingAndGlyphs" textLength="540">3</text>
     <path d="m38330 16370h310l-170 190h70l50 30 20 20 30 50v120l-30 40-20 30-50 20h-140l-50-20-20-30"/>
    </g>
    <g fill="#008484" stroke="#008484">
     <text x="41000" y="14850" font-size="660px" opacity="0" text-anchor="middle" lengthAdjust="spacingAndGlyphs" textLength="1060">U2</text>
     <path d="m40610 14320v410l30 40 20 30 50 20h90l50-20 30-30 20-40v-410"/>
     <path d="m41110 14370 30-20 50-30h110l50 30 30 20 20 50v40l-20 80-290 280h310"/>
     <text x="41000" y="15760" font-size="660px" opacity="0" text-anchor="middle" lengthAdjust="spacingAndGlyphs" textLength="4750">LM1117-5.0</text>
     <path d="m39010 15730h-240v-500"/>
     <path d="m39170 15730v-500l170 360 170-360v500"/>
     <path d="m40010 15730h-290"/>
     <path d="m39860 15730v-500l-40 70-50 50-50 20"/>
     <path d="m40480 15730h-280"/>
     <path d="m40340 15730v-500l-50 70-40 50-50 20"/>
     <path d="m40960 15730h-290"/>
     <path d="m40820 15730v-500l-50 70-50 50-50 20"/>
     <path d="m41130 15230h330l-210 500"/>
     <path d="m41650 15540h380"/>
     <path d="m42510 15230h-240l-20 240 20-20 50-30h120l40 30 30 20 20 50v120l-20 40-30 30-40 20h-120l-50-20-20-30"/>
     <path d="m42750 15680 20 30-20 20-30-20 30-30v50"/>
     <path d="m43080 15230h50l40 30 30 20 20 50 30 90v120l-30 100-20 40-30 30-40 20h-50l-50-20-20-30-30-40-20-100v-120l20-90 30-50 20-20 50-30"/>
    </g>
   </g>
  </g>
  <g fill="#840000" stroke="#840000" stroke-width="60">
   <g fill-opacity="0">
    <rect x="44600" y="18100" width="1800" height="200" rx="0"/>
   </g>
   <g fill-opacity="1">
    <rect x="44600" y="18700" width="1800" height="200" rx="0"/>
   </g>
   <g fill-opacity="0">
    <path d="m44800 17600h400" fill="none" stroke="#840000" stroke-linecap="round" stroke-linejoin="round" stroke-width="60"/>
    <path d="m45000 17400v400" fill="none" stroke="#840000" stroke-linecap="round" stroke-linejoin="round" stroke-width="60"/>
    <path d="m45500 18100v-1100"/>
    <path d="m45500 18900v1100"/>
   </g>
  </g>
  <g fill="#008484" fill-opacity="0" stroke="#008484" stroke-width="60">
   <text x="47200" y="18310" font-size="660px" opacity="0" text-anchor="middle" lengthAdjust="spacingAndGlyphs" textLength="1040">C6</text>
   <path d="m47110 18230-20 30-70 20h-50l-70-20-50-50-20-50-30-90v-70l30-100 20-50 50-40 70-30h50l70 30 20 20"/>
   <path d="m47540 17780h-90l-50 30-30 20-40 70-30 100v190l30 40 20 30 50 20h90l50-20 20-30 30-40v-120l-30-50-20-20-50-30h-90l-50 30-20 20-30 50"/>
   <text x="47410" y="19220" font-size="660px" opacity="0" text-anchor="middle" lengthAdjust="spacingAndGlyphs" textLength="1460">22u</text>
   <path d="m46800 18740 20-20 50-30h120l50 30 20 20 20 50v40l-20 80-290 280h310"/>
   <path d="m47270 18740 30-20 50-30h110l50 30 30 20 20 50v40l-20 80-290 280h310"/>
   <path d="m47990 18860v330"/>
   <path d="m47770 18860v260l30 50 50 20h70l40-20 30-30"/>
  </g>
  <g fill="#840000" stroke="#840000" stroke-width="60">
   <g fill-opacity="0">
    <rect x="35600" y="18100" width="1800" height="200" rx="0"/>
   </g>
   <g fill-opacity="1">
    <rect x="35600" y="18700" width="1800" height="200" rx="0"/>
   </g>
   <g fill-opacity="0">
    <path d="m35800 17600h400" fill="none" stroke="#840000" stroke-linecap="round" stroke-linejoin="round" stroke-width="60"/>
    <path d="m36000 17400v400" fill="none" stroke="#840000" stroke-linecap="round" stroke-linejoin="round" stroke-width="60"/>
    <path d="m36500 18100v-1100"/>
    <path d="m36500 18900v1100"/>
   </g>
  </g>
  <g fill-opacity="0" stroke-width="60">
   <g fill="#008484" stroke="#008484">
    <text x="38200" y="18310" font-size="660px" opacity="0" text-anchor="middle" lengthAdjust="spacingAndGlyphs" textLength="1040">C5</text>
    <path d="m38110 18230-20 30-70 20h-50l-70-20-50-50-20-50-30-90v-70l30-100 20-50 50-40 70-30h50l70 30 20 20"/>
    <path d="m38560 17780h-230l-30 240 30-20 40-30h120l50 30 20 20 30 50v120l-30 40-20 30-50 20h-120l-40-20-30-30"/>
    <text x="38410" y="19220" font-size="660px" opacity="0" text-anchor="middle" lengthAdjust="spacingAndGlyphs" textLength="1460">10u</text>
    <path d="m38080 19190h-280"/>
    <path d="m37940 19190v-500l-50 70-40 50-50 20"/>
    <path d="m38390 18690h50l50 30 20 20 30 50 20 90v120l-20 100-30 40-20 30-50 20h-50l-40-20-30-30-20-40-30-100v-120l30-90 20-50 30-20 40-30"/>
    <path d="m38990 18860v330"/>
    <path d="m38770 18860v260l30 50 50 20h70l40-20 30-30"/>
   </g>
   <g fill="none" stroke="#840000">
    <path d="m29500 17000v-1e3"/>
    <path d="m29500 16000-500 750"/>
    <path d="m29500 16000 500 750"/>
   </g>
   <g fill="#008484" stroke="#008484">
    <text x="29550" y="15540" font-size="660px" opacity="0" text-anchor="middle" lengthAdjust="spacingAndGlyphs" textLength="2060">+12V</text>
    <path d="m28660 15320h390"/>
    <path d="m28850 15510v-380"/>
    <path d="m29550 15510h-290"/>
    <path d="m29400 15510v-500l-50 70-40 50-50 20"/>
    <path d="m29740 15060 20-20 50-30h120l40 30 30 20 20 50v40l-20 80-290 280h310"/>
    <path d="m30160 15010 170 500 170-500"/>
   </g>
   <g fill="none" stroke="#840000">
    <path d="m45200 16500 300-500"/>
    <path d="m45500 16500v500"/>
    <path d="m45500 16000 300 500"/>
    <path d="m45800 16500h-600"/>
   </g>
   <g fill="#008484" stroke="#008484">
    <text x="45650" y="15540" font-size="660px" opacity="0" text-anchor="middle" lengthAdjust="spacingAndGlyphs" textLength="1580">+5V</text>
    <path d="m45000 15320h380"/>
    <path d="m45190 15510v-380"/>
    <path d="m45860 15010h-240l-20 240 20-20 50-30h120l50 30 20 20 20 50v120l-20 40-20 30-50 20h-120l-50-20-20-30"/>
    <path d="m46030 15010 160 500 170-500"/>
   </g>
  </g>
  <g fill="#ffffc2" fill-opacity=".6" stroke="#ffffc2" stroke-width="0">
   <rect x="15500" y="16500" width="2e3" height="5e3" rx="0"/>
  </g>
  <g fill="#840000" fill-opacity="0" stroke="#840000">
   <g stroke-width="100">
    <rect x="15500" y="16500" width="2e3" height="5e3" rx="0"/>
   </g>
   <g stroke-width="60">
    <rect x="15500" y="20950" width="500" height="100" rx="0"/>
    <rect x="15500" y="19950" width="500" height="100" rx="0"/>
    <rect x="15500" y="17950" width="500" height="100" rx="0"/>
    <rect x="15500" y="16950" width="500" height="100" rx="0"/>
   </g>
   <g stroke-width="100">
    <rect x="15500" y="16500" width="2e3" height="5e3" rx="0"/>
   </g>
   <g stroke-width="60">
    <rect x="15500" y="18950" width="500" height="100" rx="0"/>
    <rect x="17000" y="20950" width="500" height="100" rx="0"/>
    <rect x="17000" y="19950" width="500" height="100" rx="0"/>
    <rect x="17000" y="17950" width="500" height="100" rx="0"/>
    <rect x="17000" y="16950" width="500" height="100" rx="0"/>
    <rect x="17000" y="18950" width="500" height="100" rx="0"/>
    <path d="m15500 17000h-1500"/>
    <text x="14750" y="16900" font-size="660px" opacity="0" text-anchor="middle" lengthAdjust="spacingAndGlyphs" textLength="540">1</text>
    <path d="m14890 16870h-290"/>
    <path d="m14750 16870v-500l-50 70-50 50-50 20"/>
    <path d="m17500 21000h1500"/>
    <text x="18250" y="20900" font-size="660px" opacity="0" text-anchor="middle" lengthAdjust="spacingAndGlyphs" textLength="1010">10</text>
    <path d="m18150 20870h-290"/>
    <path d="m18010 20870v-500l-50 70-50 50-50 20"/>
    <path d="m18460 20370h50l40 30 30 20 20 50 30 90v120l-30 100-20 40-30 30-40 20h-50l-50-20-20-30-30-40-20-100v-120l20-90 30-50 20-20 50-30"/>
    <path d="m17500 17000h1500"/>
    <text x="18250" y="16900" font-size="660px" opacity="0" text-anchor="middle" lengthAdjust="spacingAndGlyphs" textLength="540">2</text>
    <path d="m18100 16420 30-20 40-30h120l50 30 20 20 30 50v40l-30 80-280 280h310"/>
    <path d="m15500 18000h-1500"/>
    <text x="14750" y="17900" font-size="660px" opacity="0" text-anchor="middle" lengthAdjust="spacingAndGlyphs" textLength="540">3</text>
    <path d="m14580 17370h310l-170 190h70l50 30 20 20 30 50v120l-30 40-20 30-50 20h-140l-50-20-20-30"/>
    <path d="m17500 18000h1500"/>
    <text x="18250" y="17900" font-size="660px" opacity="0" text-anchor="middle" lengthAdjust="spacingAndGlyphs" textLength="540">4</text>
    <path d="m18340 17540v330"/>
    <path d="m18220 17350-120 350h310"/>
    <path d="m15500 19000h-1500"/>
    <text x="14750" y="18900" font-size="660px" opacity="0" text-anchor="middle" lengthAdjust="spacingAndGlyphs" textLength="540">5</text>
    <path d="m14860 18370h-230l-30 240 30-20 40-30h120l50 30 20 20 30 50v120l-30 40-20 30-50 20h-120l-40-20-30-30"/>
    <path d="m17500 19000h1500"/>
    <text x="18250" y="18900" font-size="660px" opacity="0" text-anchor="middle" lengthAdjust="spacingAndGlyphs" textLength="540">6</text>
    <path d="m18340 18370h-90l-50 30-30 20-40 70-30 100v190l30 40 20 30 50 20h90l50-20 20-30 30-40v-120l-30-50-20-20-50-30h-90l-50 30-20 20-30 50"/>
    <path d="m15500 2e4h-1500"/>
    <text x="14750" y="19900" font-size="660px" opacity="0" text-anchor="middle" lengthAdjust="spacingAndGlyphs" textLength="540">7</text>
    <path d="m14580 19370h330l-210 500"/>
    <path d="m17500 2e4h1500"/>
    <text x="18250" y="19900" font-size="660px" opacity="0" text-anchor="middle" lengthAdjust="spacingAndGlyphs" textLength="540">8</text>
    <path d="m18200 19590-50-30-20-20-30-50v-20l30-50 20-20 50-30h90l50 30 20 20 30 50v20l-30 50-20 20-50 30h-90l-50 20-20 20-30 50v100l30 40 20 30 50 20h90l50-20 20-30 30-40v-100l-30-50-20-20-50-20"/>
    <path d="m15500 21000h-1500"/>
    <text x="14750" y="20900" font-size="660px" opacity="0" text-anchor="middle" lengthAdjust="spacingAndGlyphs" textLength="540">9</text>
    <path d="m14650 20870h100l40-20 30-30 40-70 30-90v-190l-30-50-20-20-50-30h-90l-50 30-20 20-30 50v120l30 40 20 30 50 20h90l50-20 20-30 30-40"/>
   </g>
  </g>
  <g fill-opacity="0">
   <g fill="#008484" stroke="#008484" stroke-width="60">
    <text x="16500" y="15100" font-size="660px" opacity="0" text-anchor="middle" lengthAdjust="spacingAndGlyphs" textLength="1390">J11</text>
    <path d="m16090 14570v360l-20 70-50 50-70 20h-50"/>
    <path d="m16590 15070h-290"/>
    <path d="m16450 15070v-500l-50 70-50 50-50 20"/>
    <path d="m17070 15070h-290"/>
    <path d="m16920 15070v-500l-40 70-50 50-50 20"/>
    <text x="16500" y="16010" font-size="660px" opacity="0" text-anchor="middle" lengthAdjust="spacingAndGlyphs" textLength="7110">+12V GND -12V</text>
    <path d="m13090 15790h380"/>
    <path d="m13280 15980v-380"/>
    <path d="m13970 15980h-280"/>
    <path d="m13830 15980v-500l-50 70-50 50-40 20"/>
    <path d="m14160 15530 30-20 40-30h120l50 30 20 20 30 50v40l-30 80-280 280h310"/>
    <path d="m14590 15480 170 500 160-500"/>
    <path d="m16110 15510-40-30h-70l-80 30-40 40-30 50-20 100v70l20 90 30 50 40 50 80 20h40l70-20 30-30v-160h-100"/>
    <path d="m16350 15980v-500l290 500v-500"/>
    <path d="m16880 15980v-500h120l70 30 40 40 30 50 20 100v70l-20 90-30 50-40 50-70 20h-120"/>
    <path d="m18140 15790h380"/>
    <path d="m19020 15980h-290"/>
    <path d="m18880 15980v-500l-50 70-50 50-50 20"/>
    <path d="m19210 15530 20-20 50-30h120l50 30 20 20 30 50v40l-30 80-280 280h310"/>
    <path d="m19640 15480 160 500 170-500"/>
   </g>
   <g stroke="#840000">
    <g stroke-width="100">
     <path d="m22500 17500v-1e3" fill="none" stroke="#840000" stroke-linecap="round" stroke-linejoin="round" stroke-width="100"/>
    </g>
    <g stroke-width="60">
     <path d="m21500 17000h1e3" fill="none" stroke="#840000" stroke-linecap="round" stroke-linejoin="round" stroke-width="60"/>
    </g>
    <g stroke-width="100">
     <path d="m21500 17500v-1e3l1e3 500z" fill="none" stroke="#840000" stroke-linecap="round" stroke-linejoin="round" stroke-width="100"/>
    </g>
    <g fill="#840000" stroke-width="60">
     <path d="m22500 17000h1e3"/>
     <path d="m21500 17000h-1e3"/>
    </g>
   </g>
   <g fill="#008484" stroke="#008484" stroke-width="60">
    <text x="22000" y="15050" font-size="660px" opacity="0" text-anchor="middle" lengthAdjust="spacingAndGlyphs" textLength="1040">D5</text>
    <path d="m21630 15020v-500h120l70 30 40 40 30 50 20 100v70l-20 90-30 50-40 50-70 20h-120"/>
    <path d="m22360 14520h-230l-30 240 30-20 40-30h120l50 30 20 20 30 50v120l-30 40-20 30-50 20h-120l-40-20-30-30"/>
    <text x="22000" y="15960" font-size="660px" opacity="0" text-anchor="middle" lengthAdjust="spacingAndGlyphs" textLength="2960">1N4148</text>
    <path d="m20920 15930h-280"/>
    <path d="m20780 15930v-500l-50 70-40 50-50 20"/>
    <path d="m21140 15930v-500l280 500v-500"/>
    <path d="m21880 15600v330"/>
    <path d="m21760 15410-120 350h310"/>
    <path d="m22400 15930h-290"/>
    <path d="m22260 15930v-500l-50 70-50 50-50 20"/>
    <path d="m22830 15600v330"/>
    <path d="m22710 15410-120 350h310"/>
    <path d="m23160 15650-50-30-20-20-20-50v-20l20-50 20-20 50-30h100l40 30 30 20 20 50v20l-20 50-30 20-40 30h-100l-50 20-20 20-20 50v100l20 40 20 30 50 20h100l40-20 30-30 20-40v-100l-20-50-30-20-40-20"/>
   </g>
  </g>
 </g>
 <g transform="translate(-8888.9 -10630)" fill="#008400" fill-opacity="0" stroke="#008400" stroke-linecap="round" stroke-linejoin="round" stroke-width="60">
  <path d="m19000 17500v500"/>
  <path d="m14000 17500h5e3"/>
  <path d="m14000 18000v-500"/>
  <path d="m44000 17000h1500"/>
  <path d="m41000 2e4h4500"/>
  <path d="m36500 2e4h4500"/>
  <path d="m29500 2e4h7e3"/>
  <path d="m36500 17000h-7e3"/>
  <path d="m38000 17000h-1500"/>
  <path d="m23500 17000h3500"/>
  <path d="m27000 2e4h2500"/>
  <path d="m19000 2e4h8e3"/>
  <path d="m19000 22000v-1e3"/>
  <path d="m19000 18000v1e3"/>
  <path d="m19000 19000v1e3"/>
  <path d="m14000 18000v1e3"/>
  <path d="m14000 19000v1e3"/>
  <path d="m14000 21000v1e3"/>
  <path d="m14000 22000h5e3"/>
  <path d="m14000 17000v-1e3"/>
  <path d="m14000 16000h5e3"/>
  <path d="m27000 17000h2500"/>
  <path d="m20500 17000h-1500"/>
  <path d="m19000 16000v1e3"/>
 </g>
 <g transform="translate(-8888.9 -10630)" fill="#008400" stroke="#008400" stroke-linecap="round" stroke-linejoin="round" stroke-width="100">
  <circle cx="36500" cy="2e4" r="200"/>
  <circle cx="19000" cy="17000" r="200"/>
  <circle cx="41000" cy="2e4" r="200"/>
  <circle cx="29500" cy="2e4" r="200"/>
  <circle cx="27000" cy="17000" r="200"/>
  <circle cx="36500" cy="17000" r="200"/>
  <circle cx="14000" cy="19000" r="200"/>
  <circle cx="19000" cy="2e4" r="200"/>
  <circle cx="14000" cy="18000" r="200"/>
  <circle cx="19000" cy="18000" r="200"/>
  <circle cx="27000" cy="2e4" r="200"/>
  <circle cx="45500" cy="17000" r="200"/>
  <circle cx="19000" cy="19000" r="200"/>
  <circle cx="29500" cy="17000" r="200"/>
 </g>
</svg>
