<?xml version="1.0" standalone="no"?>
 <!DOCTYPE svg PUBLIC "-//W3C//DTD SVG 1.1//EN" 
 "http://www.w3.org/Graphics/SVG/1.1/DTD/svg11.dtd"> 
<svg
  xmlns:svg="http://www.w3.org/2000/svg"
  xmlns="http://www.w3.org/2000/svg"
  xmlns:xlink="http://www.w3.org/1999/xlink"
  version="1.1"
  width="29.700220cm" height="21.000720cm" viewBox="0 0 116930 82680">
<title>SVG Picture created as PWR-PWR.svg date 2021/11/05 21:06:47 </title>
  <desc>Picture generated by Eeschema-SVG </desc>
<g style="fill:#000000; fill-opacity:1;stroke:#000000; stroke-opacity:1;
stroke-linecap:round; stroke-linejoin:round;"
 transform="translate(0 0) scale(1 1)">
</g>
<g style="fill:#000000; fill-opacity:0.0; 
stroke:#000000; stroke-width:0; stroke-opacity:1; 
stroke-linecap:round; stroke-linejoin:round;">
<g >
</g>
<g style="fill:#840000; fill-opacity:0.0; 
stroke:#840000; stroke-width:0; stroke-opacity:1; 
stroke-linecap:round; stroke-linejoin:round;">
</g>
<g style="fill:#840000; fill-opacity:0.0; 
stroke:#840000; stroke-width:60; stroke-opacity:1; 
stroke-linecap:round; stroke-linejoin:round;">
<rect x="26100" y="18100" width="1800" height="200" rx="0" />
</g>
<g style="fill:#840000; fill-opacity:1.0; 
stroke:#840000; stroke-width:60; stroke-opacity:1; 
stroke-linecap:round; stroke-linejoin:round;">
<rect x="26100" y="18700" width="1800" height="200" rx="0" />
</g>
<g style="fill:#840000; fill-opacity:0.0; 
stroke:#840000; stroke-width:60; stroke-opacity:1; 
stroke-linecap:round; stroke-linejoin:round;">
<path style="fill:#840000; fill-opacity:0.0; 
stroke:#840000; stroke-width:60; stroke-opacity:1; 
stroke-linecap:round; stroke-linejoin:round;fill:none"
d="M 26300,17600
26700,17600
" /> 
<path style="fill:#840000; fill-opacity:0.0; 
stroke:#840000; stroke-width:60; stroke-opacity:1; 
stroke-linecap:round; stroke-linejoin:round;fill:none"
d="M 26500,17400
26500,17800
" /> 
<path d="M27000 18100
L27000 17000
" />
<path d="M27000 18900
L27000 20000
" />
</g>
<g style="fill:#008484; fill-opacity:0.0; 
stroke:#008484; stroke-width:60; stroke-opacity:1; 
stroke-linecap:round; stroke-linejoin:round;">
<text x="28700" y="18310"
textLength="1040" font-size="660" lengthAdjust="spacingAndGlyphs"
text-anchor="middle" opacity="0">C4</text>
<path d="M28610 18230
L28590 18260
L28520 18280
L28470 18280
L28400 18260
L28350 18210
L28330 18160
L28300 18070
L28300 18000
L28330 17900
L28350 17850
L28400 17810
L28470 17780
L28520 17780
L28590 17810
L28610 17830
" />
<path d="M29040 17950
L29040 18280
" />
<path d="M28920 17760
L28800 18110
L29110 18110
" />
<text x="28910" y="19220"
textLength="1460" font-size="660" lengthAdjust="spacingAndGlyphs"
text-anchor="middle" opacity="0">22u</text>
<path d="M28300 18740
L28320 18720
L28370 18690
L28490 18690
L28540 18720
L28560 18740
L28580 18790
L28580 18830
L28560 18910
L28270 19190
L28580 19190
" />
<path d="M28770 18740
L28800 18720
L28850 18690
L28960 18690
L29010 18720
L29040 18740
L29060 18790
L29060 18830
L29040 18910
L28750 19190
L29060 19190
" />
<path d="M29490 18860
L29490 19190
" />
<path d="M29270 18860
L29270 19120
L29300 19170
L29350 19190
L29420 19190
L29460 19170
L29490 19140
" />
</g>
</g>
<g style="fill:#008484; fill-opacity:0.0; 
stroke:#008484; stroke-width:0; stroke-opacity:1; 
stroke-linecap:round; stroke-linejoin:round;">
<g >
</g>
<g style="fill:#840000; fill-opacity:0.0; 
stroke:#840000; stroke-width:0; stroke-opacity:1; 
stroke-linecap:round; stroke-linejoin:round;">
</g>
<g style="fill:#840000; fill-opacity:0.0; 
stroke:#840000; stroke-width:60; stroke-opacity:1; 
stroke-linecap:round; stroke-linejoin:round;">
<path style="fill:#840000; fill-opacity:0.0; 
stroke:#840000; stroke-width:60; stroke-opacity:1; 
stroke-linecap:round; stroke-linejoin:round;fill:none"
d="M 29250,20750
29750,20750
" /> 
<path style="fill:#840000; fill-opacity:0.0; 
stroke:#840000; stroke-width:60; stroke-opacity:1; 
stroke-linecap:round; stroke-linejoin:round;fill:none"
d="M 29450,21000
29550,21000
" /> 
<path style="fill:#840000; fill-opacity:0.0; 
stroke:#840000; stroke-width:60; stroke-opacity:1; 
stroke-linecap:round; stroke-linejoin:round;fill:none"
d="M 29500,20500
29500,20000
" /> 
<path style="fill:#840000; fill-opacity:0.0; 
stroke:#840000; stroke-width:60; stroke-opacity:1; 
stroke-linecap:round; stroke-linejoin:round;fill:none"
d="M 30000,20500
29000,20500
" /> 
</g>
<g style="fill:#008484; fill-opacity:0.0; 
stroke:#008484; stroke-width:60; stroke-opacity:1; 
stroke-linecap:round; stroke-linejoin:round;">
<text x="29550" y="22000"
textLength="2960" font-size="660" lengthAdjust="spacingAndGlyphs"
text-anchor="middle" opacity="0">GNDREF</text>
<path d="M28470 21500
L28430 21470
L28350 21470
L28280 21500
L28240 21540
L28210 21590
L28190 21690
L28190 21760
L28210 21850
L28240 21900
L28280 21950
L28350 21970
L28400 21970
L28470 21950
L28500 21920
L28500 21760
L28400 21760
" />
<path d="M28710 21970
L28710 21470
L29000 21970
L29000 21470
" />
<path d="M29240 21970
L29240 21470
L29350 21470
L29430 21500
L29470 21540
L29500 21590
L29520 21690
L29520 21760
L29500 21850
L29470 21900
L29430 21950
L29350 21970
L29240 21970
" />
<path d="M30020 21970
L29850 21730
" />
<path d="M29740 21970
L29740 21470
L29930 21470
L29970 21500
L30000 21520
L30020 21570
L30020 21640
L30000 21690
L29970 21710
L29930 21730
L29740 21730
" />
<path d="M30240 21710
L30400 21710
" />
<path d="M30470 21970
L30240 21970
L30240 21470
L30470 21470
" />
<path d="M30850 21710
L30690 21710
" />
<path d="M30690 21970
L30690 21470
L30930 21470
" />
</g>
</g>
<g style="fill:#008484; fill-opacity:0.0; 
stroke:#008484; stroke-width:0; stroke-opacity:1; 
stroke-linecap:round; stroke-linejoin:round;">
<g >
</g>
<g style="fill:#840000; fill-opacity:0.0; 
stroke:#840000; stroke-width:0; stroke-opacity:1; 
stroke-linecap:round; stroke-linejoin:round;">
</g>
<g style="fill:#FFFFC2; fill-opacity:0.0; 
stroke:#FFFFC2; stroke-width:0; stroke-opacity:1; 
stroke-linecap:round; stroke-linejoin:round;">
</g>
<g style="fill:#FFFFC2; fill-opacity:0.6; 
stroke:#FFFFC2; stroke-width:0; stroke-opacity:1; 
stroke-linecap:round; stroke-linejoin:round;">
<rect x="39000" y="16250" width="4000" height="2750" rx="0" />
</g>
<g style="fill:#840000; fill-opacity:0.6; 
stroke:#840000; stroke-width:0; stroke-opacity:1; 
stroke-linecap:round; stroke-linejoin:round;">
</g>
<g style="fill:#840000; fill-opacity:0.0; 
stroke:#840000; stroke-width:100; stroke-opacity:1; 
stroke-linecap:round; stroke-linejoin:round;">
<rect x="39000" y="16250" width="4000" height="2750" rx="0" />
<rect x="39000" y="16250" width="4000" height="2750" rx="0" />
</g>
<g style="fill:#840000; fill-opacity:0.0; 
stroke:#840000; stroke-width:60; stroke-opacity:1; 
stroke-linecap:round; stroke-linejoin:round;">
<path d="M41000 19000
L41000 20000
" />
</g>
<g style="fill:#008484; fill-opacity:0.0; 
stroke:#008484; stroke-width:60; stroke-opacity:1; 
stroke-linecap:round; stroke-linejoin:round;">
<g transform="rotate(-90 41000 18900)">
<text x="41000" y="19150"
textLength="1580" font-size="660" lengthAdjust="spacingAndGlyphs"
text-anchor="start" opacity="0">GND</text>
</g>
<path d="M40750 18480
L40720 18530
L40720 18600
L40750 18670
L40790 18720
L40840 18750
L40940 18770
L41010 18770
L41100 18750
L41150 18720
L41200 18670
L41220 18600
L41220 18560
L41200 18480
L41170 18460
L41010 18460
L41010 18560
" />
<path d="M41220 18250
L40720 18250
L41220 17960
L40720 17960
" />
<path d="M41220 17720
L40720 17720
L40720 17600
L40750 17530
L40790 17480
L40840 17460
L40940 17440
L41010 17440
L41100 17460
L41150 17480
L41200 17530
L41220 17600
L41220 17720
" />
</g>
<g style="fill:#840000; fill-opacity:0.0; 
stroke:#840000; stroke-width:60; stroke-opacity:1; 
stroke-linecap:round; stroke-linejoin:round;">
<g transform="rotate(-90 40900 19500)">
<text x="40900" y="19500"
textLength="540" font-size="660" lengthAdjust="spacingAndGlyphs"
text-anchor="middle" opacity="0">1</text>
</g>
<path d="M40870 19350
L40870 19640
" />
<path d="M40870 19500
L40370 19500
L40440 19540
L40490 19590
L40510 19640
" />
<path d="M43000 17000
L44000 17000
" />
</g>
<g style="fill:#008484; fill-opacity:0.0; 
stroke:#008484; stroke-width:60; stroke-opacity:1; 
stroke-linecap:round; stroke-linejoin:round;">
<text x="42900" y="17250"
textLength="1010" font-size="660" lengthAdjust="spacingAndGlyphs"
text-anchor="end" opacity="0">VO</text>
<path d="M41960 16720
L42130 17220
L42290 16720
" />
<path d="M42560 16720
L42650 16720
L42700 16750
L42750 16790
L42770 16890
L42770 17050
L42750 17150
L42700 17200
L42650 17220
L42560 17220
L42510 17200
L42460 17150
L42440 17050
L42440 16890
L42460 16790
L42510 16750
L42560 16720
" />
</g>
<g style="fill:#840000; fill-opacity:0.0; 
stroke:#840000; stroke-width:60; stroke-opacity:1; 
stroke-linecap:round; stroke-linejoin:round;">
<text x="43500" y="16900"
textLength="540" font-size="660" lengthAdjust="spacingAndGlyphs"
text-anchor="middle" opacity="0">2</text>
<path d="M43350 16420
L43380 16400
L43420 16370
L43540 16370
L43590 16400
L43610 16420
L43640 16470
L43640 16510
L43610 16590
L43330 16870
L43640 16870
" />
<path d="M39000 17000
L38000 17000
" />
</g>
<g style="fill:#008484; fill-opacity:0.0; 
stroke:#008484; stroke-width:60; stroke-opacity:1; 
stroke-linecap:round; stroke-linejoin:round;">
<text x="39100" y="17250"
textLength="730" font-size="660" lengthAdjust="spacingAndGlyphs"
text-anchor="start" opacity="0">VI</text>
<path d="M39170 16720
L39340 17220
L39510 16720
" />
<path d="M39670 17220
L39670 16720
" />
</g>
<g style="fill:#840000; fill-opacity:0.0; 
stroke:#840000; stroke-width:60; stroke-opacity:1; 
stroke-linecap:round; stroke-linejoin:round;">
<text x="38500" y="16900"
textLength="540" font-size="660" lengthAdjust="spacingAndGlyphs"
text-anchor="middle" opacity="0">3</text>
<path d="M38330 16370
L38640 16370
L38470 16560
L38540 16560
L38590 16590
L38610 16610
L38640 16660
L38640 16780
L38610 16820
L38590 16850
L38540 16870
L38400 16870
L38350 16850
L38330 16820
" />
</g>
<g style="fill:#008484; fill-opacity:0.0; 
stroke:#008484; stroke-width:60; stroke-opacity:1; 
stroke-linecap:round; stroke-linejoin:round;">
<text x="41000" y="14850"
textLength="1060" font-size="660" lengthAdjust="spacingAndGlyphs"
text-anchor="middle" opacity="0">U2</text>
<path d="M40610 14320
L40610 14730
L40640 14770
L40660 14800
L40710 14820
L40800 14820
L40850 14800
L40880 14770
L40900 14730
L40900 14320
" />
<path d="M41110 14370
L41140 14350
L41190 14320
L41300 14320
L41350 14350
L41380 14370
L41400 14420
L41400 14460
L41380 14540
L41090 14820
L41400 14820
" />
<text x="41000" y="15760"
textLength="4750" font-size="660" lengthAdjust="spacingAndGlyphs"
text-anchor="middle" opacity="0">LM1117-5.0</text>
<path d="M39010 15730
L38770 15730
L38770 15230
" />
<path d="M39170 15730
L39170 15230
L39340 15590
L39510 15230
L39510 15730
" />
<path d="M40010 15730
L39720 15730
" />
<path d="M39860 15730
L39860 15230
L39820 15300
L39770 15350
L39720 15370
" />
<path d="M40480 15730
L40200 15730
" />
<path d="M40340 15730
L40340 15230
L40290 15300
L40250 15350
L40200 15370
" />
<path d="M40960 15730
L40670 15730
" />
<path d="M40820 15730
L40820 15230
L40770 15300
L40720 15350
L40670 15370
" />
<path d="M41130 15230
L41460 15230
L41250 15730
" />
<path d="M41650 15540
L42030 15540
" />
<path d="M42510 15230
L42270 15230
L42250 15470
L42270 15450
L42320 15420
L42440 15420
L42480 15450
L42510 15470
L42530 15520
L42530 15640
L42510 15680
L42480 15710
L42440 15730
L42320 15730
L42270 15710
L42250 15680
" />
<path d="M42750 15680
L42770 15710
L42750 15730
L42720 15710
L42750 15680
L42750 15730
" />
<path d="M43080 15230
L43130 15230
L43170 15260
L43200 15280
L43220 15330
L43250 15420
L43250 15540
L43220 15640
L43200 15680
L43170 15710
L43130 15730
L43080 15730
L43030 15710
L43010 15680
L42980 15640
L42960 15540
L42960 15420
L42980 15330
L43010 15280
L43030 15260
L43080 15230
" />
</g>
</g>
<g style="fill:#008484; fill-opacity:0.0; 
stroke:#008484; stroke-width:0; stroke-opacity:1; 
stroke-linecap:round; stroke-linejoin:round;">
<g >
</g>
<g style="fill:#840000; fill-opacity:0.0; 
stroke:#840000; stroke-width:0; stroke-opacity:1; 
stroke-linecap:round; stroke-linejoin:round;">
</g>
<g style="fill:#840000; fill-opacity:0.0; 
stroke:#840000; stroke-width:60; stroke-opacity:1; 
stroke-linecap:round; stroke-linejoin:round;">
<rect x="44600" y="18100" width="1800" height="200" rx="0" />
</g>
<g style="fill:#840000; fill-opacity:1.0; 
stroke:#840000; stroke-width:60; stroke-opacity:1; 
stroke-linecap:round; stroke-linejoin:round;">
<rect x="44600" y="18700" width="1800" height="200" rx="0" />
</g>
<g style="fill:#840000; fill-opacity:0.0; 
stroke:#840000; stroke-width:60; stroke-opacity:1; 
stroke-linecap:round; stroke-linejoin:round;">
<path style="fill:#840000; fill-opacity:0.0; 
stroke:#840000; stroke-width:60; stroke-opacity:1; 
stroke-linecap:round; stroke-linejoin:round;fill:none"
d="M 44800,17600
45200,17600
" /> 
<path style="fill:#840000; fill-opacity:0.0; 
stroke:#840000; stroke-width:60; stroke-opacity:1; 
stroke-linecap:round; stroke-linejoin:round;fill:none"
d="M 45000,17400
45000,17800
" /> 
<path d="M45500 18100
L45500 17000
" />
<path d="M45500 18900
L45500 20000
" />
</g>
<g style="fill:#008484; fill-opacity:0.0; 
stroke:#008484; stroke-width:60; stroke-opacity:1; 
stroke-linecap:round; stroke-linejoin:round;">
<text x="47200" y="18310"
textLength="1040" font-size="660" lengthAdjust="spacingAndGlyphs"
text-anchor="middle" opacity="0">C6</text>
<path d="M47110 18230
L47090 18260
L47020 18280
L46970 18280
L46900 18260
L46850 18210
L46830 18160
L46800 18070
L46800 18000
L46830 17900
L46850 17850
L46900 17810
L46970 17780
L47020 17780
L47090 17810
L47110 17830
" />
<path d="M47540 17780
L47450 17780
L47400 17810
L47370 17830
L47330 17900
L47300 18000
L47300 18190
L47330 18230
L47350 18260
L47400 18280
L47490 18280
L47540 18260
L47560 18230
L47590 18190
L47590 18070
L47560 18020
L47540 18000
L47490 17970
L47400 17970
L47350 18000
L47330 18020
L47300 18070
" />
<text x="47410" y="19220"
textLength="1460" font-size="660" lengthAdjust="spacingAndGlyphs"
text-anchor="middle" opacity="0">22u</text>
<path d="M46800 18740
L46820 18720
L46870 18690
L46990 18690
L47040 18720
L47060 18740
L47080 18790
L47080 18830
L47060 18910
L46770 19190
L47080 19190
" />
<path d="M47270 18740
L47300 18720
L47350 18690
L47460 18690
L47510 18720
L47540 18740
L47560 18790
L47560 18830
L47540 18910
L47250 19190
L47560 19190
" />
<path d="M47990 18860
L47990 19190
" />
<path d="M47770 18860
L47770 19120
L47800 19170
L47850 19190
L47920 19190
L47960 19170
L47990 19140
" />
</g>
</g>
<g style="fill:#008484; fill-opacity:0.0; 
stroke:#008484; stroke-width:0; stroke-opacity:1; 
stroke-linecap:round; stroke-linejoin:round;">
<g >
</g>
<g style="fill:#840000; fill-opacity:0.0; 
stroke:#840000; stroke-width:0; stroke-opacity:1; 
stroke-linecap:round; stroke-linejoin:round;">
</g>
<g style="fill:#840000; fill-opacity:0.0; 
stroke:#840000; stroke-width:60; stroke-opacity:1; 
stroke-linecap:round; stroke-linejoin:round;">
<rect x="35600" y="18100" width="1800" height="200" rx="0" />
</g>
<g style="fill:#840000; fill-opacity:1.0; 
stroke:#840000; stroke-width:60; stroke-opacity:1; 
stroke-linecap:round; stroke-linejoin:round;">
<rect x="35600" y="18700" width="1800" height="200" rx="0" />
</g>
<g style="fill:#840000; fill-opacity:0.0; 
stroke:#840000; stroke-width:60; stroke-opacity:1; 
stroke-linecap:round; stroke-linejoin:round;">
<path style="fill:#840000; fill-opacity:0.0; 
stroke:#840000; stroke-width:60; stroke-opacity:1; 
stroke-linecap:round; stroke-linejoin:round;fill:none"
d="M 35800,17600
36200,17600
" /> 
<path style="fill:#840000; fill-opacity:0.0; 
stroke:#840000; stroke-width:60; stroke-opacity:1; 
stroke-linecap:round; stroke-linejoin:round;fill:none"
d="M 36000,17400
36000,17800
" /> 
<path d="M36500 18100
L36500 17000
" />
<path d="M36500 18900
L36500 20000
" />
</g>
<g style="fill:#008484; fill-opacity:0.0; 
stroke:#008484; stroke-width:60; stroke-opacity:1; 
stroke-linecap:round; stroke-linejoin:round;">
<text x="38200" y="18310"
textLength="1040" font-size="660" lengthAdjust="spacingAndGlyphs"
text-anchor="middle" opacity="0">C5</text>
<path d="M38110 18230
L38090 18260
L38020 18280
L37970 18280
L37900 18260
L37850 18210
L37830 18160
L37800 18070
L37800 18000
L37830 17900
L37850 17850
L37900 17810
L37970 17780
L38020 17780
L38090 17810
L38110 17830
" />
<path d="M38560 17780
L38330 17780
L38300 18020
L38330 18000
L38370 17970
L38490 17970
L38540 18000
L38560 18020
L38590 18070
L38590 18190
L38560 18230
L38540 18260
L38490 18280
L38370 18280
L38330 18260
L38300 18230
" />
<text x="38410" y="19220"
textLength="1460" font-size="660" lengthAdjust="spacingAndGlyphs"
text-anchor="middle" opacity="0">10u</text>
<path d="M38080 19190
L37800 19190
" />
<path d="M37940 19190
L37940 18690
L37890 18760
L37850 18810
L37800 18830
" />
<path d="M38390 18690
L38440 18690
L38490 18720
L38510 18740
L38540 18790
L38560 18880
L38560 19000
L38540 19100
L38510 19140
L38490 19170
L38440 19190
L38390 19190
L38350 19170
L38320 19140
L38300 19100
L38270 19000
L38270 18880
L38300 18790
L38320 18740
L38350 18720
L38390 18690
" />
<path d="M38990 18860
L38990 19190
" />
<path d="M38770 18860
L38770 19120
L38800 19170
L38850 19190
L38920 19190
L38960 19170
L38990 19140
" />
</g>
</g>
<g style="fill:#008484; fill-opacity:0.0; 
stroke:#008484; stroke-width:0; stroke-opacity:1; 
stroke-linecap:round; stroke-linejoin:round;">
<g >
</g>
<g style="fill:#840000; fill-opacity:0.0; 
stroke:#840000; stroke-width:0; stroke-opacity:1; 
stroke-linecap:round; stroke-linejoin:round;">
</g>
<g style="fill:#840000; fill-opacity:0.0; 
stroke:#840000; stroke-width:60; stroke-opacity:1; 
stroke-linecap:round; stroke-linejoin:round;">
<path style="fill:#840000; fill-opacity:0.0; 
stroke:#840000; stroke-width:60; stroke-opacity:1; 
stroke-linecap:round; stroke-linejoin:round;fill:none"
d="M 29500,17000
29500,16000
" /> 
<path style="fill:#840000; fill-opacity:0.0; 
stroke:#840000; stroke-width:60; stroke-opacity:1; 
stroke-linecap:round; stroke-linejoin:round;fill:none"
d="M 29500,16000
29000,16750
" /> 
<path style="fill:#840000; fill-opacity:0.0; 
stroke:#840000; stroke-width:60; stroke-opacity:1; 
stroke-linecap:round; stroke-linejoin:round;fill:none"
d="M 29500,16000
30000,16750
" /> 
</g>
<g style="fill:#008484; fill-opacity:0.0; 
stroke:#008484; stroke-width:60; stroke-opacity:1; 
stroke-linecap:round; stroke-linejoin:round;">
<text x="29550" y="15540"
textLength="2060" font-size="660" lengthAdjust="spacingAndGlyphs"
text-anchor="middle" opacity="0">+12V</text>
<path d="M28660 15320
L29050 15320
" />
<path d="M28850 15510
L28850 15130
" />
<path d="M29550 15510
L29260 15510
" />
<path d="M29400 15510
L29400 15010
L29350 15080
L29310 15130
L29260 15150
" />
<path d="M29740 15060
L29760 15040
L29810 15010
L29930 15010
L29970 15040
L30000 15060
L30020 15110
L30020 15150
L30000 15230
L29710 15510
L30020 15510
" />
<path d="M30160 15010
L30330 15510
L30500 15010
" />
</g>
</g>
<g style="fill:#008484; fill-opacity:0.0; 
stroke:#008484; stroke-width:0; stroke-opacity:1; 
stroke-linecap:round; stroke-linejoin:round;">
<g >
</g>
<g style="fill:#840000; fill-opacity:0.0; 
stroke:#840000; stroke-width:0; stroke-opacity:1; 
stroke-linecap:round; stroke-linejoin:round;">
</g>
<g style="fill:#840000; fill-opacity:0.0; 
stroke:#840000; stroke-width:60; stroke-opacity:1; 
stroke-linecap:round; stroke-linejoin:round;">
<path style="fill:#840000; fill-opacity:0.0; 
stroke:#840000; stroke-width:60; stroke-opacity:1; 
stroke-linecap:round; stroke-linejoin:round;fill:none"
d="M 45200,16500
45500,16000
" /> 
<path style="fill:#840000; fill-opacity:0.0; 
stroke:#840000; stroke-width:60; stroke-opacity:1; 
stroke-linecap:round; stroke-linejoin:round;fill:none"
d="M 45500,16500
45500,17000
" /> 
<path style="fill:#840000; fill-opacity:0.0; 
stroke:#840000; stroke-width:60; stroke-opacity:1; 
stroke-linecap:round; stroke-linejoin:round;fill:none"
d="M 45500,16000
45800,16500
" /> 
<path style="fill:#840000; fill-opacity:0.0; 
stroke:#840000; stroke-width:60; stroke-opacity:1; 
stroke-linecap:round; stroke-linejoin:round;fill:none"
d="M 45800,16500
45200,16500
" /> 
</g>
<g style="fill:#008484; fill-opacity:0.0; 
stroke:#008484; stroke-width:60; stroke-opacity:1; 
stroke-linecap:round; stroke-linejoin:round;">
<text x="45650" y="15540"
textLength="1580" font-size="660" lengthAdjust="spacingAndGlyphs"
text-anchor="middle" opacity="0">+5V</text>
<path d="M45000 15320
L45380 15320
" />
<path d="M45190 15510
L45190 15130
" />
<path d="M45860 15010
L45620 15010
L45600 15250
L45620 15230
L45670 15200
L45790 15200
L45840 15230
L45860 15250
L45880 15300
L45880 15420
L45860 15460
L45840 15490
L45790 15510
L45670 15510
L45620 15490
L45600 15460
" />
<path d="M46030 15010
L46190 15510
L46360 15010
" />
</g>
</g>
<g style="fill:#008484; fill-opacity:0.0; 
stroke:#008484; stroke-width:0; stroke-opacity:1; 
stroke-linecap:round; stroke-linejoin:round;">
<g >
</g>
<g style="fill:#840000; fill-opacity:0.0; 
stroke:#840000; stroke-width:0; stroke-opacity:1; 
stroke-linecap:round; stroke-linejoin:round;">
</g>
<g style="fill:#FFFFC2; fill-opacity:0.0; 
stroke:#FFFFC2; stroke-width:0; stroke-opacity:1; 
stroke-linecap:round; stroke-linejoin:round;">
</g>
<g style="fill:#FFFFC2; fill-opacity:0.6; 
stroke:#FFFFC2; stroke-width:0; stroke-opacity:1; 
stroke-linecap:round; stroke-linejoin:round;">
<rect x="15500" y="16500" width="2000" height="5000" rx="0" />
</g>
<g style="fill:#840000; fill-opacity:0.6; 
stroke:#840000; stroke-width:0; stroke-opacity:1; 
stroke-linecap:round; stroke-linejoin:round;">
</g>
<g style="fill:#840000; fill-opacity:0.0; 
stroke:#840000; stroke-width:100; stroke-opacity:1; 
stroke-linecap:round; stroke-linejoin:round;">
<rect x="15500" y="16500" width="2000" height="5000" rx="0" />
</g>
<g style="fill:#840000; fill-opacity:0.0; 
stroke:#840000; stroke-width:60; stroke-opacity:1; 
stroke-linecap:round; stroke-linejoin:round;">
<rect x="15500" y="20950" width="500" height="100" rx="0" />
<rect x="15500" y="19950" width="500" height="100" rx="0" />
<rect x="15500" y="17950" width="500" height="100" rx="0" />
<rect x="15500" y="16950" width="500" height="100" rx="0" />
</g>
<g style="fill:#840000; fill-opacity:0.0; 
stroke:#840000; stroke-width:100; stroke-opacity:1; 
stroke-linecap:round; stroke-linejoin:round;">
<rect x="15500" y="16500" width="2000" height="5000" rx="0" />
</g>
<g style="fill:#840000; fill-opacity:0.0; 
stroke:#840000; stroke-width:60; stroke-opacity:1; 
stroke-linecap:round; stroke-linejoin:round;">
<rect x="15500" y="18950" width="500" height="100" rx="0" />
<rect x="17000" y="20950" width="500" height="100" rx="0" />
<rect x="17000" y="19950" width="500" height="100" rx="0" />
<rect x="17000" y="17950" width="500" height="100" rx="0" />
<rect x="17000" y="16950" width="500" height="100" rx="0" />
<rect x="17000" y="18950" width="500" height="100" rx="0" />
<path d="M15500 17000
L14000 17000
" />
<text x="14750" y="16900"
textLength="540" font-size="660" lengthAdjust="spacingAndGlyphs"
text-anchor="middle" opacity="0">1</text>
<path d="M14890 16870
L14600 16870
" />
<path d="M14750 16870
L14750 16370
L14700 16440
L14650 16490
L14600 16510
" />
<path d="M17500 21000
L19000 21000
" />
<text x="18250" y="20900"
textLength="1010" font-size="660" lengthAdjust="spacingAndGlyphs"
text-anchor="middle" opacity="0">10</text>
<path d="M18150 20870
L17860 20870
" />
<path d="M18010 20870
L18010 20370
L17960 20440
L17910 20490
L17860 20510
" />
<path d="M18460 20370
L18510 20370
L18550 20400
L18580 20420
L18600 20470
L18630 20560
L18630 20680
L18600 20780
L18580 20820
L18550 20850
L18510 20870
L18460 20870
L18410 20850
L18390 20820
L18360 20780
L18340 20680
L18340 20560
L18360 20470
L18390 20420
L18410 20400
L18460 20370
" />
<path d="M17500 17000
L19000 17000
" />
<text x="18250" y="16900"
textLength="540" font-size="660" lengthAdjust="spacingAndGlyphs"
text-anchor="middle" opacity="0">2</text>
<path d="M18100 16420
L18130 16400
L18170 16370
L18290 16370
L18340 16400
L18360 16420
L18390 16470
L18390 16510
L18360 16590
L18080 16870
L18390 16870
" />
<path d="M15500 18000
L14000 18000
" />
<text x="14750" y="17900"
textLength="540" font-size="660" lengthAdjust="spacingAndGlyphs"
text-anchor="middle" opacity="0">3</text>
<path d="M14580 17370
L14890 17370
L14720 17560
L14790 17560
L14840 17590
L14860 17610
L14890 17660
L14890 17780
L14860 17820
L14840 17850
L14790 17870
L14650 17870
L14600 17850
L14580 17820
" />
<path d="M17500 18000
L19000 18000
" />
<text x="18250" y="17900"
textLength="540" font-size="660" lengthAdjust="spacingAndGlyphs"
text-anchor="middle" opacity="0">4</text>
<path d="M18340 17540
L18340 17870
" />
<path d="M18220 17350
L18100 17700
L18410 17700
" />
<path d="M15500 19000
L14000 19000
" />
<text x="14750" y="18900"
textLength="540" font-size="660" lengthAdjust="spacingAndGlyphs"
text-anchor="middle" opacity="0">5</text>
<path d="M14860 18370
L14630 18370
L14600 18610
L14630 18590
L14670 18560
L14790 18560
L14840 18590
L14860 18610
L14890 18660
L14890 18780
L14860 18820
L14840 18850
L14790 18870
L14670 18870
L14630 18850
L14600 18820
" />
<path d="M17500 19000
L19000 19000
" />
<text x="18250" y="18900"
textLength="540" font-size="660" lengthAdjust="spacingAndGlyphs"
text-anchor="middle" opacity="0">6</text>
<path d="M18340 18370
L18250 18370
L18200 18400
L18170 18420
L18130 18490
L18100 18590
L18100 18780
L18130 18820
L18150 18850
L18200 18870
L18290 18870
L18340 18850
L18360 18820
L18390 18780
L18390 18660
L18360 18610
L18340 18590
L18290 18560
L18200 18560
L18150 18590
L18130 18610
L18100 18660
" />
<path d="M15500 20000
L14000 20000
" />
<text x="14750" y="19900"
textLength="540" font-size="660" lengthAdjust="spacingAndGlyphs"
text-anchor="middle" opacity="0">7</text>
<path d="M14580 19370
L14910 19370
L14700 19870
" />
<path d="M17500 20000
L19000 20000
" />
<text x="18250" y="19900"
textLength="540" font-size="660" lengthAdjust="spacingAndGlyphs"
text-anchor="middle" opacity="0">8</text>
<path d="M18200 19590
L18150 19560
L18130 19540
L18100 19490
L18100 19470
L18130 19420
L18150 19400
L18200 19370
L18290 19370
L18340 19400
L18360 19420
L18390 19470
L18390 19490
L18360 19540
L18340 19560
L18290 19590
L18200 19590
L18150 19610
L18130 19630
L18100 19680
L18100 19780
L18130 19820
L18150 19850
L18200 19870
L18290 19870
L18340 19850
L18360 19820
L18390 19780
L18390 19680
L18360 19630
L18340 19610
L18290 19590
" />
<path d="M15500 21000
L14000 21000
" />
<text x="14750" y="20900"
textLength="540" font-size="660" lengthAdjust="spacingAndGlyphs"
text-anchor="middle" opacity="0">9</text>
<path d="M14650 20870
L14750 20870
L14790 20850
L14820 20820
L14860 20750
L14890 20660
L14890 20470
L14860 20420
L14840 20400
L14790 20370
L14700 20370
L14650 20400
L14630 20420
L14600 20470
L14600 20590
L14630 20630
L14650 20660
L14700 20680
L14790 20680
L14840 20660
L14860 20630
L14890 20590
" />
</g>
<g style="fill:#008484; fill-opacity:0.0; 
stroke:#008484; stroke-width:60; stroke-opacity:1; 
stroke-linecap:round; stroke-linejoin:round;">
<text x="16500" y="15100"
textLength="1390" font-size="660" lengthAdjust="spacingAndGlyphs"
text-anchor="middle" opacity="0">J11</text>
<path d="M16090 14570
L16090 14930
L16070 15000
L16020 15050
L15950 15070
L15900 15070
" />
<path d="M16590 15070
L16300 15070
" />
<path d="M16450 15070
L16450 14570
L16400 14640
L16350 14690
L16300 14710
" />
<path d="M17070 15070
L16780 15070
" />
<path d="M16920 15070
L16920 14570
L16880 14640
L16830 14690
L16780 14710
" />
<text x="16500" y="16010"
textLength="7110" font-size="660" lengthAdjust="spacingAndGlyphs"
text-anchor="middle" opacity="0">+12V  GND  -12V</text>
<path d="M13090 15790
L13470 15790
" />
<path d="M13280 15980
L13280 15600
" />
<path d="M13970 15980
L13690 15980
" />
<path d="M13830 15980
L13830 15480
L13780 15550
L13730 15600
L13690 15620
" />
<path d="M14160 15530
L14190 15510
L14230 15480
L14350 15480
L14400 15510
L14420 15530
L14450 15580
L14450 15620
L14420 15700
L14140 15980
L14450 15980
" />
<path d="M14590 15480
L14760 15980
L14920 15480
" />
<path d="M16110 15510
L16070 15480
L16000 15480
L15920 15510
L15880 15550
L15850 15600
L15830 15700
L15830 15770
L15850 15860
L15880 15910
L15920 15960
L16000 15980
L16040 15980
L16110 15960
L16140 15930
L16140 15770
L16040 15770
" />
<path d="M16350 15980
L16350 15480
L16640 15980
L16640 15480
" />
<path d="M16880 15980
L16880 15480
L17000 15480
L17070 15510
L17110 15550
L17140 15600
L17160 15700
L17160 15770
L17140 15860
L17110 15910
L17070 15960
L17000 15980
L16880 15980
" />
<path d="M18140 15790
L18520 15790
" />
<path d="M19020 15980
L18730 15980
" />
<path d="M18880 15980
L18880 15480
L18830 15550
L18780 15600
L18730 15620
" />
<path d="M19210 15530
L19230 15510
L19280 15480
L19400 15480
L19450 15510
L19470 15530
L19500 15580
L19500 15620
L19470 15700
L19190 15980
L19500 15980
" />
<path d="M19640 15480
L19800 15980
L19970 15480
" />
</g>
</g>
<g style="fill:#008484; fill-opacity:0.0; 
stroke:#008484; stroke-width:0; stroke-opacity:1; 
stroke-linecap:round; stroke-linejoin:round;">
<g >
</g>
<g style="fill:#840000; fill-opacity:0.0; 
stroke:#840000; stroke-width:0; stroke-opacity:1; 
stroke-linecap:round; stroke-linejoin:round;">
</g>
<g style="fill:#840000; fill-opacity:0.0; 
stroke:#840000; stroke-width:100; stroke-opacity:1; 
stroke-linecap:round; stroke-linejoin:round;">
<path style="fill:#840000; fill-opacity:0.0; 
stroke:#840000; stroke-width:100; stroke-opacity:1; 
stroke-linecap:round; stroke-linejoin:round;fill:none"
d="M 22500,17500
22500,16500
" /> 
</g>
<g style="fill:#840000; fill-opacity:0.0; 
stroke:#840000; stroke-width:60; stroke-opacity:1; 
stroke-linecap:round; stroke-linejoin:round;">
<path style="fill:#840000; fill-opacity:0.0; 
stroke:#840000; stroke-width:60; stroke-opacity:1; 
stroke-linecap:round; stroke-linejoin:round;fill:none"
d="M 21500,17000
22500,17000
" /> 
</g>
<g style="fill:#840000; fill-opacity:0.0; 
stroke:#840000; stroke-width:100; stroke-opacity:1; 
stroke-linecap:round; stroke-linejoin:round;">
<path style="fill:#840000; fill-opacity:0.0; 
stroke:#840000; stroke-width:100; stroke-opacity:1; 
stroke-linecap:round; stroke-linejoin:round;fill:none"
d="M 21500,17500
21500,16500
22500,17000
Z" /> 
</g>
<g style="fill:#840000; fill-opacity:0.0; 
stroke:#840000; stroke-width:60; stroke-opacity:1; 
stroke-linecap:round; stroke-linejoin:round;">
<path d="M22500 17000
L23500 17000
" />
<path d="M21500 17000
L20500 17000
" />
</g>
<g style="fill:#008484; fill-opacity:0.0; 
stroke:#008484; stroke-width:60; stroke-opacity:1; 
stroke-linecap:round; stroke-linejoin:round;">
<text x="22000" y="15050"
textLength="1040" font-size="660" lengthAdjust="spacingAndGlyphs"
text-anchor="middle" opacity="0">D5</text>
<path d="M21630 15020
L21630 14520
L21750 14520
L21820 14550
L21860 14590
L21890 14640
L21910 14740
L21910 14810
L21890 14900
L21860 14950
L21820 15000
L21750 15020
L21630 15020
" />
<path d="M22360 14520
L22130 14520
L22100 14760
L22130 14740
L22170 14710
L22290 14710
L22340 14740
L22360 14760
L22390 14810
L22390 14930
L22360 14970
L22340 15000
L22290 15020
L22170 15020
L22130 15000
L22100 14970
" />
<text x="22000" y="15960"
textLength="2960" font-size="660" lengthAdjust="spacingAndGlyphs"
text-anchor="middle" opacity="0">1N4148</text>
<path d="M20920 15930
L20640 15930
" />
<path d="M20780 15930
L20780 15430
L20730 15500
L20690 15550
L20640 15570
" />
<path d="M21140 15930
L21140 15430
L21420 15930
L21420 15430
" />
<path d="M21880 15600
L21880 15930
" />
<path d="M21760 15410
L21640 15760
L21950 15760
" />
<path d="M22400 15930
L22110 15930
" />
<path d="M22260 15930
L22260 15430
L22210 15500
L22160 15550
L22110 15570
" />
<path d="M22830 15600
L22830 15930
" />
<path d="M22710 15410
L22590 15760
L22900 15760
" />
<path d="M23160 15650
L23110 15620
L23090 15600
L23070 15550
L23070 15530
L23090 15480
L23110 15460
L23160 15430
L23260 15430
L23300 15460
L23330 15480
L23350 15530
L23350 15550
L23330 15600
L23300 15620
L23260 15650
L23160 15650
L23110 15670
L23090 15690
L23070 15740
L23070 15840
L23090 15880
L23110 15910
L23160 15930
L23260 15930
L23300 15910
L23330 15880
L23350 15840
L23350 15740
L23330 15690
L23300 15670
L23260 15650
" />
</g>
</g>
<g style="fill:#008484; fill-opacity:0.0; 
stroke:#008484; stroke-width:60; stroke-opacity:1; 
stroke-linecap:round; stroke-linejoin:round;">
</g>
<g style="fill:#008400; fill-opacity:0.0; 
stroke:#008400; stroke-width:60; stroke-opacity:1; 
stroke-linecap:round; stroke-linejoin:round;">
<path d="M19000 17500
L19000 18000
" />
<path d="M14000 17500
L19000 17500
" />
<path d="M14000 18000
L14000 17500
" />
<path d="M44000 17000
L45500 17000
" />
<path d="M41000 20000
L45500 20000
" />
<path d="M36500 20000
L41000 20000
" />
<path d="M29500 20000
L36500 20000
" />
<path d="M36500 17000
L29500 17000
" />
<path d="M38000 17000
L36500 17000
" />
<path d="M23500 17000
L27000 17000
" />
<path d="M27000 20000
L29500 20000
" />
<path d="M19000 20000
L27000 20000
" />
<path d="M19000 22000
L19000 21000
" />
<path d="M19000 18000
L19000 19000
" />
<path d="M19000 19000
L19000 20000
" />
<path d="M14000 18000
L14000 19000
" />
<path d="M14000 19000
L14000 20000
" />
<path d="M14000 21000
L14000 22000
" />
<path d="M14000 22000
L19000 22000
" />
<path d="M14000 17000
L14000 16000
" />
<path d="M14000 16000
L19000 16000
" />
<path d="M27000 17000
L29500 17000
" />
<path d="M20500 17000
L19000 17000
" />
<path d="M19000 16000
L19000 17000
" />
</g>
<g style="fill:#008400; fill-opacity:0.0; 
stroke:#008400; stroke-width:0; stroke-opacity:1; 
stroke-linecap:round; stroke-linejoin:round;">
</g>
<g style="fill:#008400; fill-opacity:1.0; 
stroke:#008400; stroke-width:100; stroke-opacity:1; 
stroke-linecap:round; stroke-linejoin:round;">
<circle cx="36500" cy="20000" r="200" /> 
</g>
<g style="fill:#008400; fill-opacity:1.0; 
stroke:#008400; stroke-width:0; stroke-opacity:1; 
stroke-linecap:round; stroke-linejoin:round;">
</g>
<g style="fill:#008400; fill-opacity:1.0; 
stroke:#008400; stroke-width:100; stroke-opacity:1; 
stroke-linecap:round; stroke-linejoin:round;">
<circle cx="19000" cy="17000" r="200" /> 
</g>
<g style="fill:#008400; fill-opacity:1.0; 
stroke:#008400; stroke-width:0; stroke-opacity:1; 
stroke-linecap:round; stroke-linejoin:round;">
</g>
<g style="fill:#008400; fill-opacity:1.0; 
stroke:#008400; stroke-width:100; stroke-opacity:1; 
stroke-linecap:round; stroke-linejoin:round;">
<circle cx="41000" cy="20000" r="200" /> 
</g>
<g style="fill:#008400; fill-opacity:1.0; 
stroke:#008400; stroke-width:0; stroke-opacity:1; 
stroke-linecap:round; stroke-linejoin:round;">
</g>
<g style="fill:#008400; fill-opacity:1.0; 
stroke:#008400; stroke-width:100; stroke-opacity:1; 
stroke-linecap:round; stroke-linejoin:round;">
<circle cx="29500" cy="20000" r="200" /> 
</g>
<g style="fill:#008400; fill-opacity:1.0; 
stroke:#008400; stroke-width:0; stroke-opacity:1; 
stroke-linecap:round; stroke-linejoin:round;">
</g>
<g style="fill:#008400; fill-opacity:1.0; 
stroke:#008400; stroke-width:100; stroke-opacity:1; 
stroke-linecap:round; stroke-linejoin:round;">
<circle cx="27000" cy="17000" r="200" /> 
</g>
<g style="fill:#008400; fill-opacity:1.0; 
stroke:#008400; stroke-width:0; stroke-opacity:1; 
stroke-linecap:round; stroke-linejoin:round;">
</g>
<g style="fill:#008400; fill-opacity:1.0; 
stroke:#008400; stroke-width:100; stroke-opacity:1; 
stroke-linecap:round; stroke-linejoin:round;">
<circle cx="36500" cy="17000" r="200" /> 
</g>
<g style="fill:#008400; fill-opacity:1.0; 
stroke:#008400; stroke-width:0; stroke-opacity:1; 
stroke-linecap:round; stroke-linejoin:round;">
</g>
<g style="fill:#008400; fill-opacity:1.0; 
stroke:#008400; stroke-width:100; stroke-opacity:1; 
stroke-linecap:round; stroke-linejoin:round;">
<circle cx="14000" cy="19000" r="200" /> 
</g>
<g style="fill:#008400; fill-opacity:1.0; 
stroke:#008400; stroke-width:0; stroke-opacity:1; 
stroke-linecap:round; stroke-linejoin:round;">
</g>
<g style="fill:#008400; fill-opacity:1.0; 
stroke:#008400; stroke-width:100; stroke-opacity:1; 
stroke-linecap:round; stroke-linejoin:round;">
<circle cx="19000" cy="20000" r="200" /> 
</g>
<g style="fill:#008400; fill-opacity:1.0; 
stroke:#008400; stroke-width:0; stroke-opacity:1; 
stroke-linecap:round; stroke-linejoin:round;">
</g>
<g style="fill:#008400; fill-opacity:1.0; 
stroke:#008400; stroke-width:100; stroke-opacity:1; 
stroke-linecap:round; stroke-linejoin:round;">
<circle cx="14000" cy="18000" r="200" /> 
</g>
<g style="fill:#008400; fill-opacity:1.0; 
stroke:#008400; stroke-width:0; stroke-opacity:1; 
stroke-linecap:round; stroke-linejoin:round;">
</g>
<g style="fill:#008400; fill-opacity:1.0; 
stroke:#008400; stroke-width:100; stroke-opacity:1; 
stroke-linecap:round; stroke-linejoin:round;">
<circle cx="19000" cy="18000" r="200" /> 
</g>
<g style="fill:#008400; fill-opacity:1.0; 
stroke:#008400; stroke-width:0; stroke-opacity:1; 
stroke-linecap:round; stroke-linejoin:round;">
</g>
<g style="fill:#008400; fill-opacity:1.0; 
stroke:#008400; stroke-width:100; stroke-opacity:1; 
stroke-linecap:round; stroke-linejoin:round;">
<circle cx="27000" cy="20000" r="200" /> 
</g>
<g style="fill:#008400; fill-opacity:1.0; 
stroke:#008400; stroke-width:0; stroke-opacity:1; 
stroke-linecap:round; stroke-linejoin:round;">
</g>
<g style="fill:#008400; fill-opacity:1.0; 
stroke:#008400; stroke-width:100; stroke-opacity:1; 
stroke-linecap:round; stroke-linejoin:round;">
<circle cx="45500" cy="17000" r="200" /> 
</g>
<g style="fill:#008400; fill-opacity:1.0; 
stroke:#008400; stroke-width:0; stroke-opacity:1; 
stroke-linecap:round; stroke-linejoin:round;">
</g>
<g style="fill:#008400; fill-opacity:1.0; 
stroke:#008400; stroke-width:100; stroke-opacity:1; 
stroke-linecap:round; stroke-linejoin:round;">
<circle cx="19000" cy="19000" r="200" /> 
</g>
<g style="fill:#008400; fill-opacity:1.0; 
stroke:#008400; stroke-width:0; stroke-opacity:1; 
stroke-linecap:round; stroke-linejoin:round;">
</g>
<g style="fill:#008400; fill-opacity:1.0; 
stroke:#008400; stroke-width:100; stroke-opacity:1; 
stroke-linecap:round; stroke-linejoin:round;">
<circle cx="29500" cy="17000" r="200" /> 
</g> 
</svg>
