<?xml version="1.0" encoding="UTF-8" standalone="no"?>
<svg
   xmlns:dc="http://purl.org/dc/elements/1.1/"
   xmlns:cc="http://creativecommons.org/ns#"
   xmlns:rdf="http://www.w3.org/1999/02/22-rdf-syntax-ns#"
   xmlns:svg="http://www.w3.org/2000/svg"
   xmlns="http://www.w3.org/2000/svg"
   xmlns:sodipodi="http://sodipodi.sourceforge.net/DTD/sodipodi-0.dtd"
   xmlns:inkscape="http://www.inkscape.org/namespaces/inkscape"
   width="30mm"
   height="128mm"
   viewBox="0 0 30 128"
   id="svg2"
   version="1.1"
   inkscape:version="1.0.1 (3bc2e813f5, 2020-09-07)"
   sodipodi:docname="panel-design.svg">
  <sodipodi:namedview
     id="base"
     pagecolor="#ffffff"
     bordercolor="#666666"
     borderopacity="1.0"
     inkscape:pageopacity="0.0"
     inkscape:pageshadow="2"
     inkscape:zoom="5.6"
     inkscape:cx="41.068953"
     inkscape:cy="164.95227"
     inkscape:document-units="mm"
     inkscape:current-layer="g8167"
     showgrid="false"
     inkscape:window-width="3840"
     inkscape:window-height="2080"
     inkscape:window-x="-11"
     inkscape:window-y="12"
     inkscape:window-maximized="1"
     inkscape:document-rotation="0"
     width="30mm" />
  <defs
     id="defs4" />
  <metadata
     id="metadata7">
    <rdf:RDF>
      <cc:Work
         rdf:about="">
        <dc:format>image/svg+xml</dc:format>
        <dc:type
           rdf:resource="http://purl.org/dc/dcmitype/StillImage" />
        <dc:title />
      </cc:Work>
    </rdf:RDF>
  </metadata>
  <g
     inkscape:label="[fixed] BG"
     inkscape:groupmode="layer"
     sodipodi:insensitive="true"
     id="g8151"
     style="display:inline">
    <rect
       x="0"
       y="0"
       width="100"
       height="100"
       style="fill:#ffffff;fill-opacity:1;stroke:none"
       id="rect8153" />
  </g>
  <g
     inkscape:label="B.Silk-disabled"
     inkscape:groupmode="layer"
     id="g8163"
     style="display:inline" />
  <g
     inkscape:label="B.Cu"
     inkscape:groupmode="layer"
     id="g8159"
     style="display:inline">
    <path
       id="rect451"
       style="fill:#2a2aff;stroke-width:1.35699"
       d="M 0.23828125,0.734375 V 483.69336 H 113.56836 V 0.734375 Z M 84.728516,131.6543 a 22.677165,18.897638 0 0 1 0.142578,0 22.677165,18.897638 0 0 1 22.677736,18.89648 A 22.677165,18.897638 0 0 1 84.871094,169.44922 22.677165,18.897638 0 0 1 62.195312,150.55078 22.677165,18.897638 0 0 1 84.728516,131.6543 Z M 85.125,173.57422 A 22.677165,18.897638 0 0 1 107.80078,192.47266 22.677165,18.897638 0 0 1 85.125,211.36914 22.677165,18.897638 0 0 1 62.447266,192.47266 22.677165,18.897638 0 0 1 85.125,173.57422 Z m -1.533203,43.18555 a 22.677165,18.897638 0 0 1 0.142578,0 22.677165,18.897638 0 0 1 22.677735,18.89648 22.677165,18.897638 0 0 1 -22.677735,18.89844 22.677165,18.897638 0 0 1 -22.675781,-18.89844 22.677165,18.897638 0 0 1 22.533203,-18.89648 z m 0.126953,43.81445 a 22.677165,18.897638 0 0 1 0.142578,0 22.677165,18.897638 0 0 1 22.677732,18.89844 22.677165,18.897638 0 0 1 -22.677732,18.89648 22.677165,18.897638 0 0 1 -22.677734,-18.89648 22.677165,18.897638 0 0 1 22.535156,-18.89844 z m 1.070312,42.85742 a 22.677165,18.897638 0 0 1 0.144532,0 22.677165,18.897638 0 0 1 22.675786,18.89648 22.677165,18.897638 0 0 1 -22.675786,18.89844 22.677165,18.897638 0 0 1 -22.677735,-18.89844 22.677165,18.897638 0 0 1 22.533203,-18.89648 z m 0.144532,43.57031 a 22.677165,18.897638 0 0 1 22.675786,18.89844 22.677165,18.897638 0 0 1 -22.675786,18.89844 22.677165,18.897638 0 0 1 -22.677735,-18.89844 22.677165,18.897638 0 0 1 22.677735,-18.89844 z m -0.859375,43.21485 a 22.677165,18.897638 0 0 1 0.144531,0 22.677165,18.897638 0 0 1 22.67773,18.89843 22.677165,18.897638 0 0 1 -22.67773,18.89649 22.677165,18.897638 0 0 1 -22.677734,-18.89649 22.677165,18.897638 0 0 1 22.533203,-18.89843 z"
       transform="scale(0.26458333)" />
  </g>
  <g
     inkscape:label="Drill"
     inkscape:groupmode="layer"
     id="g8157"
     style="display:inline" />
  <g
     inkscape:label="B.Mask"
     inkscape:groupmode="layer"
     id="g8161"
     style="display:inline;opacity:1">
    <rect
       style="fill:#00ffff;stroke-width:0.52377"
       id="rect1044"
       width="29.952013"
       height="11.325123"
       x="0.09644153"
       y="116.65232" />
    <rect
       style="fill:#00ffff;stroke-width:0.543"
       id="rect1046"
       width="29.952013"
       height="12.171964"
       x="0.063034534"
       y="0.19431272" />
    <ellipse
       style="display:inline;fill:#ff7f2a;stroke-width:0.301639"
       id="ellipse1154"
       cx="22.188316"
       cy="73.943596"
       rx="6"
       ry="5" />
    <ellipse
       style="display:inline;fill:#ff7f2a;stroke-width:0.301639"
       id="ellipse1156"
       cx="22.154907"
       cy="62.35078"
       rx="6"
       ry="5" />
    <ellipse
       style="display:inline;fill:#ff7f2a;stroke-width:0.301639"
       id="ellipse1158"
       cx="22.522406"
       cy="50.925007"
       rx="6"
       ry="5" />
    <ellipse
       style="display:inline;fill:#ff7f2a;stroke-width:0.301639"
       id="ellipse1160"
       cx="22.455589"
       cy="39.833321"
       rx="6"
       ry="5" />
    <ellipse
       style="display:inline;fill:#ff7f2a;stroke-width:0.301639"
       id="ellipse1189"
       cx="22.4718"
       cy="85.282883"
       rx="6"
       ry="5" />
    <ellipse
       style="display:inline;fill:#ff7f2a;stroke-width:0.301639"
       id="ellipse1191"
       cx="22.4718"
       cy="96.811157"
       rx="6"
       ry="5" />
    <ellipse
       style="display:inline;fill:#ff7f2a;stroke-width:0.301639"
       id="ellipse1193"
       cx="22.282812"
       cy="108.24493"
       rx="6"
       ry="5" />
  </g>
  <g
     inkscape:label="F.Silk"
     inkscape:groupmode="layer"
     id="g8169"
     style="display:inline;opacity:0.722628" />
  <g
     inkscape:label="F.Cu"
     inkscape:groupmode="layer"
     id="g8165"
     style="display:inline;opacity:1;mix-blend-mode:normal">
    <path
       id="rect66"
       style="fill:#ff7f2a;stroke-width:1.71109"
       d="M 0.23828125,-4.8222656 V 483.69336 H 113.56836 V -4.8222656 Z M 83.574219,140.94531 c 0.833335,0 1.588543,0.1072 2.265625,0.32422 0.677084,0.20833 1.254992,0.52083 1.732422,0.9375 0.486112,0.41667 0.858723,0.9375 1.11914,1.5625 0.269098,0.625 0.404297,1.34614 0.404297,2.16211 0,0.67708 -0.09114,1.31011 -0.273437,1.90039 -0.1823,0.5816 -0.447707,1.15147 -0.794922,1.70703 -0.347223,0.55556 -0.776909,1.11046 -1.289063,1.66602 -0.503471,0.55555 -1.081378,1.14149 -1.732422,1.75781 l -2.472656,2.35742 h 7.173828 V 158.25 H 78.158203 v -2.34375 l 4.023438,-4.02344 c 0.75521,-0.75521 1.357204,-1.40625 1.808593,-1.95312 0.46007,-0.54688 0.811631,-1.03364 1.054688,-1.45899 0.251742,-0.43403 0.417976,-0.83268 0.496094,-1.19726 0.07814,-0.36459 0.117187,-0.74219 0.117187,-1.13282 0,-0.32111 -0.05209,-0.62564 -0.15625,-0.9121 -0.104164,-0.29514 -0.257376,-0.54753 -0.457031,-0.75586 -0.19966,-0.21702 -0.450093,-0.38629 -0.753906,-0.50782 -0.303821,-0.13021 -0.652345,-0.19531 -1.042969,-0.19531 -0.668402,0 -1.28841,0.14822 -1.861328,0.44336 -0.572916,0.28646 -1.1148,0.67209 -1.626953,1.1582 l -1.679688,-2.16015 c 0.73785,-0.68577 1.56619,-1.23264 2.486328,-1.64063 0.928819,-0.41667 1.931423,-0.625 3.007813,-0.625 z m 0.304687,43.83008 h 4.375 v 10.75586 h 2.578125 v 2.79883 h -2.578125 v 3.46289 H 85.15625 v -3.46289 h -7.917969 v -2.7207 z m 1.316406,3.07227 -4.84375,7.68359 h 4.84375 z m -1.166015,39.84179 c 0.885417,0 1.674695,0.0942 2.369141,0.28516 0.694441,0.1823 1.275391,0.44771 1.74414,0.79492 0.47743,0.34722 0.838975,0.76389 1.082031,1.25 0.251742,0.47743 0.376953,1.0063 0.376953,1.58789 0,0.5382 -0.07313,1.02496 -0.220703,1.45899 -0.147578,0.43402 -0.347882,0.82964 -0.599609,1.18554 -0.251742,0.34723 -0.55122,0.66276 -0.898438,0.94922 -0.347218,0.27778 -0.716797,0.5382 -1.107421,0.78125 0.425348,0.23438 0.828993,0.4948 1.210937,0.78125 0.390624,0.27778 0.729165,0.6033 1.015625,0.97656 0.295138,0.36459 0.526475,0.78125 0.691406,1.25 0.173607,0.46007 0.259766,0.9859 0.259766,1.57618 0,0.77256 -0.156249,1.45464 -0.46875,2.04492 -0.312499,0.59028 -0.747177,1.08507 -1.302734,1.48437 -0.546875,0.39931 -1.19293,0.69879 -1.939453,0.89844 -0.737847,0.19966 -1.537108,0.29883 -2.396485,0.29883 -0.954862,0 -1.801215,-0.0992 -2.539062,-0.29883 -0.729167,-0.20833 -1.344183,-0.49978 -1.847657,-0.87305 -0.494793,-0.37326 -0.872395,-0.824 -1.132812,-1.35351 -0.251742,-0.52952 -0.378906,-1.12044 -0.378906,-1.77149 0,-0.58159 0.08311,-1.09744 0.248046,-1.54882 0.173607,-0.46007 0.40798,-0.87674 0.703126,-1.25 0.295134,-0.37327 0.633685,-0.70877 1.015624,-1.00391 0.390627,-0.29514 0.8023,-0.56858 1.236329,-0.82031 -0.390627,-0.22569 -0.758246,-0.47309 -1.105469,-0.74219 -0.338542,-0.2691 -0.638023,-0.57162 -0.898438,-0.91016 -0.260417,-0.33854 -0.468749,-0.71614 -0.625,-1.13281 -0.147578,-0.41667 -0.222656,-0.89041 -0.222656,-1.41992 0,-0.61632 0.117182,-1.19423 0.351563,-1.73242 0.243048,-0.54688 0.599602,-1.02366 1.068359,-1.43164 0.47743,-0.40799 1.071397,-0.72852 1.783203,-0.96289 0.720486,-0.23439 1.563801,-0.35157 2.527344,-0.35157 z m -0.07813,2.44727 c -0.815975,0 -1.445963,0.15126 -1.888672,0.45508 -0.442709,0.30382 -0.664063,0.75954 -0.664062,1.36718 -10e-7,0.32987 0.07313,0.62631 0.220703,0.88672 0.147578,0.26042 0.352871,0.50283 0.613281,0.72852 0.260417,0.21702 0.562933,0.42036 0.910156,0.61133 0.355903,0.19096 0.733508,0.38324 1.132813,0.57422 0.312501,-0.17361 0.603949,-0.3559 0.873047,-0.54688 0.277773,-0.19966 0.517144,-0.41797 0.716796,-0.65234 0.19966,-0.23438 0.358947,-0.48981 0.480469,-0.76758 0.121525,-0.27778 0.183594,-0.58529 0.183594,-0.92383 0,-0.56423 -0.221354,-0.99392 -0.664063,-1.28906 -0.442708,-0.29514 -1.080729,-0.44336 -1.914062,-0.44336 z m -0.339844,7.5 c -0.338542,0.1823 -0.659076,0.37761 -0.96289,0.58594 -0.295139,0.20832 -0.555559,0.43771 -0.78125,0.68945 -0.217021,0.25174 -0.391283,0.53017 -0.521485,0.83398 -0.130217,0.29514 -0.195312,0.62869 -0.195312,1.00196 0,0.65972 0.25738,1.16449 0.769531,1.51172 0.512154,0.34722 1.189234,0.51953 2.03125,0.51953 0.381944,0 0.741536,-0.0391 1.080078,-0.11719 0.338542,-0.0781 0.633031,-0.19837 0.884766,-0.36328 0.260417,-0.16494 0.46571,-0.37327 0.613281,-0.625 0.147578,-0.26042 0.220703,-0.56988 0.220703,-0.92578 0,-0.36459 -0.08311,-0.69011 -0.248047,-0.97657 -0.164938,-0.29514 -0.389331,-0.56358 -0.675781,-0.80664 -0.286461,-0.24305 -0.621962,-0.47243 -1.003906,-0.68945 -0.381944,-0.21702 -0.78559,-0.43035 -1.210938,-0.63867 z m -7.527344,33.4043 h 2.669922 v 14.29687 h 3.736328 v 2.82617 h -11.32812 v -2.82617 h 4.335938 v -10.9375 l -3.775391,2.08399 -1.041015,-2.5918 z m 18.060547,0.10351 h 1.939453 v 2.69531 h -2.265625 c -0.937499,0 -1.721788,0.0962 -2.355468,0.28711 -0.633681,0.19097 -1.151475,0.46441 -1.550782,0.82032 -0.399304,0.3559 -0.698782,0.79058 -0.898437,1.30273 -0.19966,0.51215 -0.329868,1.08811 -0.390625,1.73047 l -0.02539,0.3125 c 0.451389,-0.21702 0.964191,-0.39432 1.53711,-0.5332 0.581596,-0.13889 1.188582,-0.20899 1.822265,-0.20899 0.920139,0 1.72743,0.12219 2.421875,0.36524 0.694443,0.23438 1.27235,0.57791 1.732422,1.02929 0.46875,0.45139 0.815323,0.99827 1.041016,1.64063 0.234381,0.64236 0.351562,1.37153 0.351562,2.1875 0,0.85937 -0.156251,1.64062 -0.46875,2.34375 -0.312501,0.69444 -0.747179,1.2934 -1.302734,1.79687 -0.546875,0.4948 -1.200953,0.87544 -1.964844,1.14453 -0.76389,0.2691 -1.602213,0.4043 -2.513672,0.4043 -1.987847,0 -3.506292,-0.625 -4.55664,-1.875 -1.050349,-1.25 -1.576172,-3.1591 -1.576172,-5.72851 0,-0.93751 0.05706,-1.82791 0.169922,-2.66993 0.112856,-0.85069 0.298184,-1.63194 0.558593,-2.34375 0.269098,-0.72048 0.625651,-1.37152 1.06836,-1.95312 0.451389,-0.5816 1.011285,-1.07143 1.679687,-1.4707 0.668405,-0.40799 1.457683,-0.72052 2.369141,-0.9375 0.911458,-0.22569 1.971135,-0.33985 3.177733,-0.33985 z m -2.669922,9.05078 c -0.277777,0 -0.554253,0.026 -0.832031,0.0781 -0.269097,0.0434 -0.534505,0.10353 -0.794922,0.18164 -0.251741,0.0781 -0.494144,0.16429 -0.728515,0.25976 -0.225689,0.0955 -0.430985,0.19665 -0.613282,0.30078 0,0.87674 0.06207,1.61893 0.183594,2.22657 0.121525,0.59896 0.303816,1.08876 0.546875,1.4707 0.251742,0.38195 0.55925,0.66037 0.923828,0.83399 0.373264,0.1649 0.80295,0.24609 1.289063,0.24609 0.416665,0 0.79427,-0.0682 1.132812,-0.20703 0.338543,-0.13889 0.624999,-0.3342 0.859375,-0.58594 0.243049,-0.26042 0.430332,-0.56489 0.560547,-0.91211 0.130217,-0.3559 0.195313,-0.74653 0.195313,-1.17187 0,-0.39931 -0.05209,-0.76389 -0.15625,-1.09375 -0.104164,-0.33855 -0.270396,-0.625 -0.496094,-0.85938 -0.217021,-0.24305 -0.498488,-0.43033 -0.845703,-0.56055 -0.338543,-0.13888 -0.74718,-0.20703 -1.22461,-0.20703 z m -14.951171,33.83203 c 0.937499,0 1.757814,0.10115 2.460937,0.30078 0.711806,0.19966 1.305771,0.48612 1.783203,0.85938 0.48611,0.36458 0.850694,0.81033 1.09375,1.33984 0.243049,0.52952 0.365236,1.12045 0.365234,1.77149 0,1.03299 -0.239364,1.87131 -0.716796,2.51367 -0.46875,0.63368 -1.127822,1.11849 -1.978516,1.45703 0.546875,0.0868 1.041666,0.24001 1.484375,0.45703 0.442709,0.20833 0.820314,0.48177 1.132813,0.82032 0.321179,0.32984 0.563584,0.7105 0.728515,1.14453 0.173606,0.43402 0.261719,0.91579 0.261719,1.44531 0,0.84201 -0.156249,1.60221 -0.46875,2.2793 -0.312499,0.6684 -0.794269,1.24132 -1.445313,1.71875 -0.642361,0.46875 -1.454643,0.82834 -2.435547,1.08007 -0.980901,0.25175 -2.134764,0.37891 -3.46289,0.37891 -0.295138,0 -0.607638,-0.01 -0.9375,-0.0273 -0.321182,-0.009 -0.643665,-0.0246 -0.964844,-0.0508 -0.321182,-0.0174 -0.633681,-0.0434 -0.9375,-0.0781 -0.303821,-0.026 -0.577259,-0.062 -0.820312,-0.10547 v -2.75976 c 0.546875,0.10416 1.158855,0.19032 1.835937,0.25976 0.685765,0.0608 1.398872,0.0918 2.136719,0.0918 0.720486,0 1.340494,-0.0601 1.861328,-0.18164 0.520834,-0.12153 0.950522,-0.29579 1.289062,-0.52149 0.338543,-0.23438 0.585937,-0.52083 0.742188,-0.85937 0.164939,-0.33854 0.248047,-0.72114 0.248047,-1.14649 0,-0.37326 -0.08311,-0.7118 -0.248047,-1.01562 -0.164939,-0.30382 -0.417325,-0.55924 -0.755859,-0.76758 -0.338543,-0.21702 -0.771267,-0.3813 -1.300782,-0.49414 -0.520834,-0.12152 -1.142795,-0.18359 -1.863281,-0.18359 h -1.886719 v -2.42188 h 1.730469 c 0.677085,0 1.236979,-0.0651 1.679688,-0.19531 0.451389,-0.13889 0.807942,-0.32118 1.068359,-0.54688 0.269097,-0.22568 0.459419,-0.48916 0.572266,-0.79296 0.112856,-0.31251 0.169921,-0.63803 0.169921,-0.97657 0,-0.69444 -0.226345,-1.22027 -0.677734,-1.57617 -0.451389,-0.36459 -1.149521,-0.54687 -2.095703,-0.54687 -0.677082,0 -1.346135,0.0651 -2.005859,0.19531 -0.659722,0.13022 -1.339843,0.30448 -2.042969,0.52148 v -2.66992 c 0.390624,-0.13022 0.763238,-0.23937 1.119141,-0.32617 0.3559,-0.0868 0.712456,-0.15993 1.068359,-0.2207 0.355903,-0.0608 0.715495,-0.10484 1.080078,-0.13086 0.364586,-0.0261 0.742188,-0.0391 1.132813,-0.0391 z m 15.091796,0 c 0.833336,0 1.588543,0.10916 2.265625,0.32618 0.677085,0.20832 1.253039,0.52082 1.730469,0.9375 0.486113,0.41666 0.860677,0.9375 1.121094,1.5625 0.269097,0.625 0.402344,1.34615 0.402344,2.1621 0,0.67709 -0.09114,1.31012 -0.273438,1.9004 -0.182299,0.58159 -0.445754,1.14952 -0.792969,1.70507 -0.347222,0.55556 -0.776908,1.11242 -1.289062,1.66797 -0.503474,0.55556 -1.081381,1.1415 -1.732422,1.75782 l -2.474609,2.35546 h 7.175781 v 2.92969 H 86.197266 v -2.34375 l 4.023437,-4.02344 c 0.755208,-0.7552 1.359158,-1.40625 1.810547,-1.95312 0.460069,-0.54688 0.811631,-1.03168 1.054688,-1.45703 0.251739,-0.43403 0.41602,-0.83464 0.49414,-1.19922 0.07814,-0.36458 0.119141,-0.74219 0.119141,-1.13281 0,-0.32118 -0.05209,-0.6237 -0.15625,-0.91016 -0.104164,-0.29514 -0.257376,-0.54753 -0.457031,-0.75586 -0.19966,-0.21702 -0.450096,-0.38629 -0.753907,-0.50781 -0.303821,-0.13022 -0.652344,-0.19531 -1.042969,-0.19531 -0.668402,0 -1.288412,0.14822 -1.861328,0.44336 -0.572918,0.28643 -1.114802,0.67209 -1.626953,1.1582 l -1.68164,-2.16211 c 0.737847,-0.68576 1.56814,-1.23264 2.488281,-1.64063 0.928819,-0.41666 1.931423,-0.625 3.007812,-0.625 z M 80.15625,357.51758 h 1.939453 v 2.69531 h -2.265625 c -0.937502,0 -1.721788,0.0961 -2.355469,0.28711 -0.63368,0.19097 -1.151476,0.4644 -1.550781,0.82031 -0.399307,0.35591 -0.698785,0.78863 -0.898437,1.30078 -0.19966,0.51216 -0.329868,1.09006 -0.390625,1.73243 l -0.02539,0.3125 c 0.451389,-0.21702 0.964193,-0.39432 1.537109,-0.53321 0.581599,-0.13888 1.188585,-0.20898 1.822266,-0.20898 0.920139,0 1.72743,0.12218 2.421875,0.36523 0.694445,0.23438 1.272353,0.57596 1.732422,1.02735 0.468749,0.45139 0.815321,0.99826 1.041015,1.64062 0.234382,0.64236 0.351563,1.37153 0.351563,2.1875 0,0.85938 -0.156251,1.64063 -0.46875,2.34375 -0.312501,0.69445 -0.747179,1.2934 -1.302734,1.79688 -0.546875,0.49479 -1.200954,0.87738 -1.964844,1.14648 -0.763888,0.2691 -1.602214,0.4043 -2.513672,0.4043 -1.98785,0 -3.506292,-0.625 -4.556641,-1.875 -1.050345,-1.25 -1.576171,-3.16102 -1.576172,-5.73047 0,-0.9375 0.05707,-1.82595 0.169922,-2.66797 0.112857,-0.85069 0.298187,-1.63194 0.558594,-2.34375 0.269097,-0.72049 0.625651,-1.37153 1.06836,-1.95313 0.451387,-0.58158 1.011283,-1.07334 1.679687,-1.47265 0.668402,-0.40799 1.457682,-0.72049 2.369141,-0.9375 0.91146,-0.22569 1.971137,-0.33789 3.177733,-0.33789 z m 11.509766,0 h 4.375 v 10.75586 h 2.578125 v 2.79883 h -2.578125 v 3.46289 h -3.097657 v -3.46289 h -7.917968 v -2.72071 z m 1.316406,3.07226 -4.84375,7.6836 h 4.84375 z m -15.496094,5.97657 c -0.277778,0 -0.554253,0.026 -0.832031,0.0781 -0.269097,0.0434 -0.534505,0.10547 -0.794922,0.18359 -0.251742,0.0781 -0.494147,0.1643 -0.728516,0.25977 -0.225688,0.0955 -0.430982,0.19466 -0.613281,0.29883 0,0.87673 0.06207,1.61892 0.183594,2.22656 0.121524,0.59896 0.303816,1.09071 0.546875,1.47266 0.251742,0.38194 0.55925,0.65842 0.923828,0.83203 0.373266,0.16494 0.802952,0.24805 1.289063,0.24805 0.416666,0 0.79427,-0.0701 1.132812,-0.20899 0.33854,-0.13888 0.624999,-0.33419 0.859375,-0.58594 0.243049,-0.26041 0.430332,-0.56293 0.560547,-0.91015 0.130217,-0.35591 0.195312,-0.74653 0.195312,-1.17188 0,-0.3993 -0.05209,-0.76389 -0.15625,-1.09375 -0.104163,-0.33854 -0.270398,-0.625 -0.496093,-0.85937 -0.217021,-0.24305 -0.498487,-0.43033 -0.845703,-0.56055 -0.33854,-0.13888 -0.747177,-0.20898 -1.22461,-0.20898 z m 6.919922,33.91797 c 0.833335,0 1.588543,0.10922 2.265625,0.32617 0.677085,0.20837 1.254992,0.52087 1.732422,0.9375 0.486113,0.41665 0.858723,0.93749 1.119141,1.5625 0.269097,0.625 0.404296,1.34613 0.404296,2.16211 0,0.67706 -0.09114,1.3101 -0.273437,1.90039 -0.182299,0.58159 -0.447707,1.14951 -0.794922,1.70507 -0.347223,0.55557 -0.776909,1.11243 -1.289063,1.66797 -0.503473,0.55557 -1.079427,1.1415 -1.730468,1.75782 l -2.47461,2.35547 h 7.173828 v 2.92968 H 78.990234 v -2.34375 l 4.023438,-4.02343 c 0.755207,-0.75523 1.359158,-1.40626 1.810547,-1.95313 0.460072,-0.54687 0.811633,-1.03168 1.054687,-1.45703 0.251742,-0.43402 0.416021,-0.83462 0.494141,-1.19922 0.07814,-0.36457 0.117187,-0.74219 0.117187,-1.13281 0,-0.32119 -0.05209,-0.6237 -0.15625,-0.91016 -0.104163,-0.29513 -0.25542,-0.54753 -0.455078,-0.75586 -0.19966,-0.21694 -0.452048,-0.38621 -0.755859,-0.50781 -0.303821,-0.13027 -0.650391,-0.19531 -1.041016,-0.19531 -0.668404,0 -1.290365,0.14823 -1.863281,0.44336 -0.572918,0.28646 -1.114802,0.67208 -1.626953,1.1582 L 78.912109,402.75 c 0.737847,-0.68576 1.566187,-1.23264 2.486329,-1.64062 0.928818,-0.41669 1.931423,-0.62501 3.007812,-0.625 z m 14.974609,0 c 0.885421,0 1.674701,0.0961 2.369141,0.2871 0.69445,0.18218 1.27734,0.44759 1.74609,0.79493 0.47743,0.34721 0.83703,0.76387 1.08008,1.25 0.25174,0.47743 0.37695,1.00629 0.37695,1.58789 1e-5,0.53818 -0.0731,1.02494 -0.2207,1.45898 -0.14758,0.43402 -0.34788,0.82769 -0.59961,1.1836 -0.25174,0.34723 -0.55122,0.6647 -0.89843,0.95117 -0.34723,0.27777 -0.71485,0.5382 -1.10547,0.78125 0.42534,0.23433 0.82899,0.49473 1.21093,0.78125 0.39063,0.27777 0.72917,0.60329 1.01563,0.97656 0.29514,0.36457 0.52452,0.78124 0.68945,1.25 0.17361,0.46007 0.25977,0.98588 0.25977,1.57617 0,0.77256 -0.15625,1.45268 -0.46875,2.04297 -0.3125,0.59026 -0.74523,1.08506 -1.30078,1.48437 -0.54688,0.3993 -1.19488,0.69878 -1.94141,0.89844 -0.73785,0.19956 -1.53515,0.30078 -2.394531,0.30078 -0.95486,0 -1.801213,-0.10122 -2.539063,-0.30078 -0.729166,-0.20838 -1.346136,-0.49788 -1.849609,-0.87109 -0.494791,-0.37327 -0.872396,-0.82596 -1.132813,-1.35547 -0.251741,-0.52951 -0.376953,-1.11847 -0.376953,-1.76953 0,-0.58159 0.08115,-1.09941 0.246094,-1.55078 0.173606,-0.46007 0.407982,-0.87674 0.703125,-1.25 0.295138,-0.37327 0.633679,-0.70682 1.015625,-1.00196 0.390624,-0.29515 0.804253,-0.56857 1.238281,-0.82031 -0.390624,-0.22576 -0.760199,-0.47316 -1.107422,-0.74219 -0.338542,-0.26907 -0.63802,-0.57356 -0.898437,-0.91211 -0.260417,-0.33854 -0.468749,-0.71613 -0.625,-1.13281 -0.147578,-0.41665 -0.220703,-0.88845 -0.220703,-1.41797 0,-0.61631 0.117181,-1.19421 0.351562,-1.73242 0.243049,-0.54687 0.597649,-1.02365 1.066406,-1.43164 0.477433,-0.40799 1.073351,-0.73046 1.785157,-0.96484 0.720486,-0.23433 1.561848,-0.35156 2.52539,-0.35156 z m -29.830078,0.18359 h 2.667969 v 14.29687 h 3.738281 v 2.82422 H 64.628906 v -2.82422 h 4.335938 v -10.9375 l -3.777344,2.08204 -1.041016,-2.58985 z m 29.751953,2.26562 c -0.815972,0 -1.445963,0.15126 -1.888672,0.45508 -0.442708,0.30383 -0.664062,0.75954 -0.664062,1.36719 0,0.32985 0.07508,0.62436 0.222656,0.88476 0.147578,0.26044 0.350921,0.50479 0.611328,0.73047 0.260417,0.21695 0.564887,0.42029 0.91211,0.61133 0.355903,0.19099 0.733508,0.38133 1.132812,0.57227 0.312502,-0.17361 0.601994,-0.35591 0.871094,-0.54688 0.27778,-0.19956 0.51714,-0.41591 0.7168,-0.65039 0.19966,-0.23433 0.3609,-0.48976 0.48242,-0.76758 0.12152,-0.27777 0.18164,-0.58723 0.18164,-0.92578 0,-0.56423 -0.22135,-0.99393 -0.66406,-1.28906 -0.44271,-0.29516 -1.08073,-0.44141 -1.914066,-0.44141 z m -0.33789,7.5 c -0.338543,0.18243 -0.661023,0.37774 -0.964844,0.58594 -0.295138,0.20838 -0.555554,0.43776 -0.78125,0.68945 -0.21702,0.25172 -0.389332,0.53017 -0.519531,0.83399 -0.130218,0.29515 -0.195313,0.62869 -0.195313,1.00195 0,0.65971 0.255425,1.16253 0.767578,1.50977 0.512154,0.34721 1.189237,0.52148 2.03125,0.52148 0.381944,0 0.741536,-0.0391 1.080076,-0.11719 0.33854,-0.0781 0.63498,-0.20019 0.88672,-0.36523 0.26042,-0.16479 0.46376,-0.37313 0.61133,-0.625 0.14758,-0.26041 0.2207,-0.56792 0.2207,-0.92383 0,-0.3646 -0.0812,-0.69012 -0.24609,-0.97656 -0.16494,-0.29516 -0.39129,-0.56359 -0.67774,-0.80664 -0.28645,-0.24315 -0.62,-0.47449 -1.00195,-0.69141 -0.381945,-0.21694 -0.785591,-0.42831 -1.210936,-0.63672 z"
       transform="scale(0.26458333)" />
  </g>
  <g
     inkscape:label="F.Mask"
     inkscape:groupmode="layer"
     id="g8167"
     style="display:inline">
    <text
       xml:space="preserve"
       style="font-style:normal;font-variant:normal;font-weight:bold;font-stretch:normal;font-size:7.05556px;line-height:1.25;font-family:Consolas;-inkscape-font-specification:'Consolas, Bold';font-variant-ligatures:normal;font-variant-caps:normal;font-variant-numeric:normal;font-variant-east-asian:normal;display:inline;opacity:0.722628;mix-blend-mode:normal;fill:#000000;fill-opacity:1;stroke:none;stroke-width:0.137144"
       x="16.575899"
       y="110.5402"
       id="text489"><tspan
         sodipodi:role="line"
         id="tspan487"
         x="16.575899"
         y="110.5402"
         style="font-style:normal;font-variant:normal;font-weight:bold;font-stretch:normal;font-size:7.05556px;font-family:Consolas;-inkscape-font-specification:'Consolas, Bold';font-variant-ligatures:normal;font-variant-caps:normal;font-variant-numeric:normal;font-variant-east-asian:normal;stroke-width:0.137144">128</tspan></text>
    <text
       xml:space="preserve"
       style="font-style:normal;font-variant:normal;font-weight:bold;font-stretch:normal;font-size:7.05556px;line-height:1.25;font-family:Consolas;-inkscape-font-specification:'Consolas, Bold';font-variant-ligatures:normal;font-variant-caps:normal;font-variant-numeric:normal;font-variant-east-asian:normal;display:inline;opacity:0.722628;mix-blend-mode:normal;fill:#000000;fill-opacity:1;stroke:none;stroke-width:0.137145"
       x="18.483017"
       y="87.665138"
       id="text493"><tspan
         sodipodi:role="line"
         id="tspan491"
         x="18.483017"
         y="87.665138"
         style="font-style:normal;font-variant:normal;font-weight:bold;font-stretch:normal;font-size:7.05556px;font-family:Consolas;-inkscape-font-specification:'Consolas, Bold';font-variant-ligatures:normal;font-variant-caps:normal;font-variant-numeric:normal;font-variant-east-asian:normal;stroke-width:0.137145">32</tspan></text>
    <text
       xml:space="preserve"
       style="font-style:normal;font-variant:normal;font-weight:bold;font-stretch:normal;font-size:7.05556px;line-height:1.25;font-family:Consolas;-inkscape-font-specification:'Consolas, Bold';font-variant-ligatures:normal;font-variant-caps:normal;font-variant-numeric:normal;font-variant-east-asian:normal;display:inline;opacity:0.722628;mix-blend-mode:normal;fill:#000000;fill-opacity:1;stroke:none;stroke-width:0.137145"
       x="18.30489"
       y="76.243179"
       id="text497"><tspan
         sodipodi:role="line"
         id="tspan495"
         x="18.30489"
         y="76.243179"
         style="font-style:normal;font-variant:normal;font-weight:bold;font-stretch:normal;font-size:7.05556px;font-family:Consolas;-inkscape-font-specification:'Consolas, Bold';font-variant-ligatures:normal;font-variant-caps:normal;font-variant-numeric:normal;font-variant-east-asian:normal;stroke-width:0.137145">16</tspan></text>
    <text
       xml:space="preserve"
       style="font-style:normal;font-variant:normal;font-weight:bold;font-stretch:normal;font-size:7.05556px;line-height:1.25;font-family:Consolas;-inkscape-font-specification:'Consolas, Bold';font-variant-ligatures:normal;font-variant-caps:normal;font-variant-numeric:normal;font-variant-east-asian:normal;display:inline;opacity:0.722628;mix-blend-mode:normal;fill:#000000;fill-opacity:1;stroke:none;stroke-width:0.137145"
       x="20.272324"
       y="64.821213"
       id="text507"><tspan
         sodipodi:role="line"
         id="tspan505"
         x="20.272324"
         y="64.821213"
         style="font-style:normal;font-variant:normal;font-weight:bold;font-stretch:normal;font-size:7.05556px;font-family:Consolas;-inkscape-font-specification:'Consolas, Bold';font-variant-ligatures:normal;font-variant-caps:normal;font-variant-numeric:normal;font-variant-east-asian:normal;stroke-width:0.137145">8</tspan></text>
    <text
       xml:space="preserve"
       style="font-style:normal;font-variant:normal;font-weight:bold;font-stretch:normal;font-size:7.05556px;line-height:1.25;font-family:Consolas;-inkscape-font-specification:'Consolas, Bold';font-variant-ligatures:normal;font-variant-caps:normal;font-variant-numeric:normal;font-variant-east-asian:normal;display:inline;opacity:0.722628;mix-blend-mode:normal;fill:#000000;fill-opacity:1;stroke:none;stroke-width:0.137145"
       x="20.30179"
       y="53.391212"
       id="text511"><tspan
         sodipodi:role="line"
         id="tspan509"
         x="20.30179"
         y="53.391212"
         style="font-style:normal;font-variant:normal;font-weight:bold;font-stretch:normal;font-size:7.05556px;font-family:Consolas;-inkscape-font-specification:'Consolas, Bold';font-variant-ligatures:normal;font-variant-caps:normal;font-variant-numeric:normal;font-variant-east-asian:normal;stroke-width:0.137145">4</tspan></text>
    <text
       xml:space="preserve"
       style="font-style:normal;font-variant:normal;font-weight:bold;font-stretch:normal;font-size:7.05556px;line-height:1.25;font-family:Consolas;-inkscape-font-specification:'Consolas, Bold';font-variant-ligatures:normal;font-variant-caps:normal;font-variant-numeric:normal;font-variant-east-asian:normal;display:inline;opacity:0.722628;mix-blend-mode:normal;fill:#000000;fill-opacity:1;stroke:none;stroke-width:0.137145"
       x="20.234823"
       y="41.87014"
       id="text515"><tspan
         sodipodi:role="line"
         id="tspan513"
         x="20.234823"
         y="41.87014"
         style="font-style:normal;font-variant:normal;font-weight:bold;font-stretch:normal;font-size:7.05556px;font-family:Consolas;-inkscape-font-specification:'Consolas, Bold';font-variant-ligatures:normal;font-variant-caps:normal;font-variant-numeric:normal;font-variant-east-asian:normal;stroke-width:0.137145">2</tspan></text>
    <text
       xml:space="preserve"
       style="font-style:normal;font-variant:normal;font-weight:bold;font-stretch:normal;font-size:7.05556px;line-height:1.25;font-family:Consolas;-inkscape-font-specification:'Consolas, Bold';font-variant-ligatures:normal;font-variant-caps:normal;font-variant-numeric:normal;font-variant-east-asian:normal;display:inline;opacity:0.722628;mix-blend-mode:normal;fill:#000000;fill-opacity:1;stroke:none;stroke-width:0.137145"
       x="18.483017"
       y="99.09597"
       id="text611"><tspan
         sodipodi:role="line"
         id="tspan609"
         x="18.483017"
         y="99.09597"
         style="font-style:normal;font-variant:normal;font-weight:bold;font-stretch:normal;font-size:7.05556px;font-family:Consolas;-inkscape-font-specification:'Consolas, Bold';font-variant-ligatures:normal;font-variant-caps:normal;font-variant-numeric:normal;font-variant-east-asian:normal;stroke-width:0.137145">64</tspan></text>
    <text
       xml:space="preserve"
       style="font-style:normal;font-variant:normal;font-weight:bold;font-stretch:normal;font-size:4.78837px;line-height:1.25;font-family:Consolas;-inkscape-font-specification:'Consolas, Bold';font-variant-ligatures:normal;font-variant-caps:normal;font-variant-numeric:normal;font-variant-east-asian:normal;fill:#000000;fill-opacity:1;stroke:none;stroke-width:0.119709"
       x="0.5798772"
       y="17.648718"
       id="text795"><tspan
         sodipodi:role="line"
         id="tspan793"
         x="0.5798772"
         y="17.648718"
         style="font-style:normal;font-variant:normal;font-weight:bold;font-stretch:normal;font-size:4.78837px;font-family:Consolas;-inkscape-font-specification:'Consolas, Bold';font-variant-ligatures:normal;font-variant-caps:normal;font-variant-numeric:normal;font-variant-east-asian:normal;stroke-width:0.119709">clock reset</tspan></text>
    <text
       xml:space="preserve"
       style="font-style:normal;font-variant:normal;font-weight:bold;font-stretch:normal;font-size:5.75535px;line-height:1.25;font-family:Consolas;-inkscape-font-specification:'Consolas, Bold';font-variant-ligatures:normal;font-variant-caps:normal;font-variant-numeric:normal;font-variant-east-asian:normal;display:inline;opacity:0.561364;mix-blend-mode:normal;fill:#000000;fill-opacity:1;stroke:none;stroke-width:0.143884"
       x="12.016109"
       y="121.61805"
       id="text799"><tspan
         sodipodi:role="line"
         id="tspan797"
         x="12.016109"
         y="121.61805"
         style="font-style:normal;font-variant:normal;font-weight:bold;font-stretch:normal;font-size:5.75535px;font-family:Consolas;-inkscape-font-specification:'Consolas, Bold';font-variant-ligatures:normal;font-variant-caps:normal;font-variant-numeric:normal;font-variant-east-asian:normal;stroke-width:0.143884">2</tspan></text>
    <text
       xml:space="preserve"
       style="font-style:normal;font-variant:normal;font-weight:bold;font-stretch:normal;font-size:3.96362px;line-height:1.25;font-family:Consolas;-inkscape-font-specification:'Consolas, Bold';font-variant-ligatures:normal;font-variant-caps:normal;font-variant-numeric:normal;font-variant-east-asian:normal;display:inline;opacity:0.561364;mix-blend-mode:normal;fill:#000000;fill-opacity:1;stroke:none;stroke-width:0.0990907"
       x="14.957113"
       y="119.09047"
       id="text805"><tspan
         sodipodi:role="line"
         id="tspan803"
         x="14.957113"
         y="119.09047"
         style="font-style:normal;font-variant:normal;font-weight:bold;font-stretch:normal;font-size:3.96362px;font-family:Consolas;-inkscape-font-specification:'Consolas, Bold';font-variant-ligatures:normal;font-variant-caps:normal;font-variant-numeric:normal;font-variant-east-asian:normal;stroke-width:0.0990907">-7</tspan></text>
    <text
       xml:space="preserve"
       style="font-style:normal;font-variant:normal;font-weight:bold;font-stretch:normal;font-size:2.98385px;line-height:1.25;font-family:Consolas;-inkscape-font-specification:'Consolas, Bold';font-variant-ligatures:normal;font-variant-caps:normal;font-variant-numeric:normal;font-variant-east-asian:normal;display:inline;opacity:0.561364;mix-blend-mode:normal;fill:#000000;fill-opacity:1;stroke:none;stroke-width:0.0745965"
       x="4.7370844"
       y="8.3010931"
       id="text809"><tspan
         sodipodi:role="line"
         id="tspan807"
         x="4.7370844"
         y="8.3010931"
         style="font-style:normal;font-variant:normal;font-weight:bold;font-stretch:normal;font-size:2.98385px;font-family:Consolas;-inkscape-font-specification:'Consolas, Bold';font-variant-ligatures:normal;font-variant-caps:normal;font-variant-numeric:normal;font-variant-east-asian:normal;stroke-width:0.0745965">clockdivider</tspan></text>
    <rect
       style="display:inline;fill:#ffcc00;stroke-width:0.124234"
       id="rect1048"
       width="28.776978"
       height="0.66317028"
       x="0.59809381"
       y="45.044979" />
    <rect
       style="display:inline;fill:#ffcc00;stroke-width:0.124234"
       id="rect1051"
       width="28.776978"
       height="0.66317028"
       x="0.59809381"
       y="56.502384" />
    <rect
       style="display:inline;fill:#ffcc00;stroke-width:0.124234"
       id="rect1053"
       width="28.776978"
       height="0.66317028"
       x="0.59809381"
       y="67.841667" />
    <rect
       style="display:inline;fill:#ffcc00;stroke-width:0.124234"
       id="rect1055"
       width="28.776978"
       height="0.66317028"
       x="0.59809381"
       y="79.322693" />
    <rect
       style="display:inline;fill:#ffcc00;stroke-width:0.124234"
       id="rect1057"
       width="28.776978"
       height="0.66317028"
       x="0.59809381"
       y="90.732849" />
    <rect
       style="display:inline;fill:#ffcc00;stroke-width:0.124234"
       id="rect1059"
       width="28.776978"
       height="0.66317028"
       x="0.59809381"
       y="102.16662" />
  </g>
  <g
     inkscape:label="Edge.Cuts"
     inkscape:groupmode="layer"
     id="g8155"
     style="display:inline" />
</svg>
