%TF.GenerationSoftware,KiCad,Pcbnew,(5.1.9)-1*%
%TF.CreationDate,2021-08-11T15:41:34+02:00*%
%TF.ProjectId,clockdiv-panel,636c6f63-6b64-4697-962d-70616e656c2e,rev?*%
%TF.SameCoordinates,Original*%
%TF.FileFunction,Legend,Top*%
%TF.FilePolarity,Positive*%
%FSLAX46Y46*%
G04 Gerber Fmt 4.6, Leading zero omitted, Abs format (unit mm)*
G04 Created by KiCad (PCBNEW (5.1.9)-1) date 2021-08-11 15:41:34*
%MOMM*%
%LPD*%
G01*
G04 APERTURE LIST*
%ADD10C,0.150000*%
%ADD11C,0.300000*%
%ADD12C,0.010000*%
G04 APERTURE END LIST*
%LPC*%
D10*
X132334001Y-179324000D02*
G75*
G02*
X130410937Y-177906818I-813708J909183D01*
G01*
X131572001Y-178562000D02*
G75*
G03*
X131572001Y-178562000I-160644J0D01*
G01*
X132820210Y-178308000D02*
G75*
G03*
X132820210Y-178308000I-359210J0D01*
G01*
D11*
X133568261Y-178308000D02*
G75*
G03*
X133568261Y-178308000I-2000000J0D01*
G01*
D10*
X131909420Y-177546000D02*
G75*
G03*
X131909420Y-177546000I-359210J0D01*
G01*
D12*
%TO.C,Ref\u002A\u002A*%
G36*
X126477490Y-61583775D02*
G01*
X126551460Y-61626351D01*
X126608708Y-61699687D01*
X126618556Y-61720930D01*
X126637404Y-61814079D01*
X126619184Y-61899736D01*
X126569164Y-61970666D01*
X126492608Y-62019631D01*
X126394782Y-62039396D01*
X126386735Y-62039500D01*
X126319823Y-62035551D01*
X126274129Y-62017541D01*
X126229364Y-61976221D01*
X126216660Y-61961985D01*
X126174942Y-61909005D01*
X126157499Y-61864123D01*
X126157537Y-61806679D01*
X126159469Y-61788047D01*
X126187338Y-61695787D01*
X126241722Y-61627965D01*
X126313974Y-61585847D01*
X126395446Y-61570695D01*
X126477490Y-61583775D01*
G37*
X126477490Y-61583775D02*
X126551460Y-61626351D01*
X126608708Y-61699687D01*
X126618556Y-61720930D01*
X126637404Y-61814079D01*
X126619184Y-61899736D01*
X126569164Y-61970666D01*
X126492608Y-62019631D01*
X126394782Y-62039396D01*
X126386735Y-62039500D01*
X126319823Y-62035551D01*
X126274129Y-62017541D01*
X126229364Y-61976221D01*
X126216660Y-61961985D01*
X126174942Y-61909005D01*
X126157499Y-61864123D01*
X126157537Y-61806679D01*
X126159469Y-61788047D01*
X126187338Y-61695787D01*
X126241722Y-61627965D01*
X126313974Y-61585847D01*
X126395446Y-61570695D01*
X126477490Y-61583775D01*
G36*
X123195293Y-61582759D02*
G01*
X123269324Y-61624862D01*
X123326969Y-61697912D01*
X123337723Y-61720930D01*
X123356142Y-61813525D01*
X123337750Y-61899454D01*
X123288052Y-61970939D01*
X123212556Y-62020201D01*
X123116769Y-62039463D01*
X123112175Y-62039500D01*
X123046339Y-62034326D01*
X122996774Y-62012867D01*
X122943154Y-61966219D01*
X122941778Y-61964845D01*
X122897006Y-61916054D01*
X122877075Y-61875931D01*
X122874975Y-61825260D01*
X122878313Y-61790906D01*
X122906146Y-61697792D01*
X122960303Y-61629120D01*
X123032240Y-61586189D01*
X123113418Y-61570302D01*
X123195293Y-61582759D01*
G37*
X123195293Y-61582759D02*
X123269324Y-61624862D01*
X123326969Y-61697912D01*
X123337723Y-61720930D01*
X123356142Y-61813525D01*
X123337750Y-61899454D01*
X123288052Y-61970939D01*
X123212556Y-62020201D01*
X123116769Y-62039463D01*
X123112175Y-62039500D01*
X123046339Y-62034326D01*
X122996774Y-62012867D01*
X122943154Y-61966219D01*
X122941778Y-61964845D01*
X122897006Y-61916054D01*
X122877075Y-61875931D01*
X122874975Y-61825260D01*
X122878313Y-61790906D01*
X122906146Y-61697792D01*
X122960303Y-61629120D01*
X123032240Y-61586189D01*
X123113418Y-61570302D01*
X123195293Y-61582759D01*
G36*
X131636747Y-62184654D02*
G01*
X131757370Y-62227201D01*
X131762500Y-62230000D01*
X131852032Y-62302963D01*
X131922432Y-62408584D01*
X131970190Y-62540176D01*
X131990045Y-62663416D01*
X132001129Y-62801500D01*
X131619719Y-62801500D01*
X131609161Y-62691620D01*
X131595879Y-62613946D01*
X131569801Y-62561730D01*
X131541787Y-62532870D01*
X131494548Y-62499730D01*
X131455213Y-62484167D01*
X131452310Y-62484000D01*
X131382892Y-62501199D01*
X131303481Y-62547971D01*
X131224992Y-62617080D01*
X131188736Y-62658720D01*
X131106333Y-62762968D01*
X131106333Y-63711667D01*
X130725333Y-63711667D01*
X130725333Y-62208833D01*
X131064000Y-62208833D01*
X131064324Y-62267042D01*
X131071434Y-62332891D01*
X131092151Y-62358823D01*
X131126992Y-62345174D01*
X131150055Y-62323416D01*
X131249652Y-62245846D01*
X131371535Y-62195708D01*
X131504351Y-62174733D01*
X131636747Y-62184654D01*
G37*
X131636747Y-62184654D02*
X131757370Y-62227201D01*
X131762500Y-62230000D01*
X131852032Y-62302963D01*
X131922432Y-62408584D01*
X131970190Y-62540176D01*
X131990045Y-62663416D01*
X132001129Y-62801500D01*
X131619719Y-62801500D01*
X131609161Y-62691620D01*
X131595879Y-62613946D01*
X131569801Y-62561730D01*
X131541787Y-62532870D01*
X131494548Y-62499730D01*
X131455213Y-62484167D01*
X131452310Y-62484000D01*
X131382892Y-62501199D01*
X131303481Y-62547971D01*
X131224992Y-62617080D01*
X131188736Y-62658720D01*
X131106333Y-62762968D01*
X131106333Y-63711667D01*
X130725333Y-63711667D01*
X130725333Y-62208833D01*
X131064000Y-62208833D01*
X131064324Y-62267042D01*
X131071434Y-62332891D01*
X131092151Y-62358823D01*
X131126992Y-62345174D01*
X131150055Y-62323416D01*
X131249652Y-62245846D01*
X131371535Y-62195708D01*
X131504351Y-62174733D01*
X131636747Y-62184654D01*
G36*
X126597833Y-63415333D02*
G01*
X127044267Y-63415333D01*
X127038008Y-63558208D01*
X127031750Y-63701083D01*
X125751166Y-63712287D01*
X125751166Y-63415333D01*
X126216833Y-63415333D01*
X126216833Y-62505167D01*
X125814666Y-62505167D01*
X125814666Y-62208833D01*
X126597833Y-62208833D01*
X126597833Y-63415333D01*
G37*
X126597833Y-63415333D02*
X127044267Y-63415333D01*
X127038008Y-63558208D01*
X127031750Y-63701083D01*
X125751166Y-63712287D01*
X125751166Y-63415333D01*
X126216833Y-63415333D01*
X126216833Y-62505167D01*
X125814666Y-62505167D01*
X125814666Y-62208833D01*
X126597833Y-62208833D01*
X126597833Y-63415333D01*
G36*
X124239177Y-62209817D02*
G01*
X124302448Y-62213663D01*
X124339546Y-62221713D01*
X124358536Y-62235310D01*
X124364280Y-62245875D01*
X124381013Y-62289953D01*
X124408972Y-62365503D01*
X124445434Y-62465000D01*
X124487675Y-62580919D01*
X124532972Y-62705735D01*
X124578600Y-62831923D01*
X124621837Y-62951958D01*
X124659959Y-63058315D01*
X124690241Y-63143470D01*
X124709962Y-63199897D01*
X124714773Y-63214250D01*
X124733487Y-63260267D01*
X124747868Y-63273240D01*
X124751764Y-63267167D01*
X124767321Y-63220141D01*
X124793799Y-63144384D01*
X124828820Y-63046345D01*
X124870008Y-62932474D01*
X124914989Y-62809218D01*
X124961384Y-62683026D01*
X125006818Y-62560346D01*
X125048914Y-62447629D01*
X125085297Y-62351322D01*
X125113590Y-62277873D01*
X125131417Y-62233732D01*
X125136209Y-62223869D01*
X125162995Y-62217098D01*
X125221593Y-62213084D01*
X125301541Y-62212363D01*
X125342634Y-62213286D01*
X125533557Y-62219417D01*
X125242365Y-62960250D01*
X124951174Y-63701083D01*
X124740935Y-63707076D01*
X124530695Y-63713068D01*
X124300865Y-63135576D01*
X124238329Y-62978369D01*
X124177295Y-62824806D01*
X124120552Y-62681909D01*
X124070885Y-62556700D01*
X124031082Y-62456203D01*
X124003931Y-62387440D01*
X124002364Y-62383458D01*
X123933694Y-62208833D01*
X124141666Y-62208833D01*
X124239177Y-62209817D01*
G37*
X124239177Y-62209817D02*
X124302448Y-62213663D01*
X124339546Y-62221713D01*
X124358536Y-62235310D01*
X124364280Y-62245875D01*
X124381013Y-62289953D01*
X124408972Y-62365503D01*
X124445434Y-62465000D01*
X124487675Y-62580919D01*
X124532972Y-62705735D01*
X124578600Y-62831923D01*
X124621837Y-62951958D01*
X124659959Y-63058315D01*
X124690241Y-63143470D01*
X124709962Y-63199897D01*
X124714773Y-63214250D01*
X124733487Y-63260267D01*
X124747868Y-63273240D01*
X124751764Y-63267167D01*
X124767321Y-63220141D01*
X124793799Y-63144384D01*
X124828820Y-63046345D01*
X124870008Y-62932474D01*
X124914989Y-62809218D01*
X124961384Y-62683026D01*
X125006818Y-62560346D01*
X125048914Y-62447629D01*
X125085297Y-62351322D01*
X125113590Y-62277873D01*
X125131417Y-62233732D01*
X125136209Y-62223869D01*
X125162995Y-62217098D01*
X125221593Y-62213084D01*
X125301541Y-62212363D01*
X125342634Y-62213286D01*
X125533557Y-62219417D01*
X125242365Y-62960250D01*
X124951174Y-63701083D01*
X124740935Y-63707076D01*
X124530695Y-63713068D01*
X124300865Y-63135576D01*
X124238329Y-62978369D01*
X124177295Y-62824806D01*
X124120552Y-62681909D01*
X124070885Y-62556700D01*
X124031082Y-62456203D01*
X124003931Y-62387440D01*
X124002364Y-62383458D01*
X123933694Y-62208833D01*
X124141666Y-62208833D01*
X124239177Y-62209817D01*
G36*
X123317000Y-63415333D02*
G01*
X123763434Y-63415333D01*
X123750916Y-63701083D01*
X123110625Y-63706685D01*
X122470333Y-63712287D01*
X122470333Y-63415333D01*
X122936000Y-63415333D01*
X122936000Y-62505167D01*
X122533833Y-62505167D01*
X122533833Y-62208833D01*
X123317000Y-62208833D01*
X123317000Y-63415333D01*
G37*
X123317000Y-63415333D02*
X123763434Y-63415333D01*
X123750916Y-63701083D01*
X123110625Y-63706685D01*
X122470333Y-63712287D01*
X122470333Y-63415333D01*
X122936000Y-63415333D01*
X122936000Y-62505167D01*
X122533833Y-62505167D01*
X122533833Y-62208833D01*
X123317000Y-62208833D01*
X123317000Y-63415333D01*
G36*
X119581083Y-62804972D02*
G01*
X119824500Y-62507203D01*
X120067916Y-62209434D01*
X120295458Y-62209133D01*
X120387766Y-62210387D01*
X120461933Y-62214012D01*
X120509356Y-62219420D01*
X120522255Y-62224708D01*
X120508508Y-62244592D01*
X120470583Y-62290849D01*
X120412751Y-62358500D01*
X120339278Y-62442565D01*
X120254433Y-62538064D01*
X120236489Y-62558083D01*
X120150378Y-62655794D01*
X120075701Y-62743969D01*
X120016568Y-62817465D01*
X119977089Y-62871142D01*
X119961374Y-62899857D01*
X119961442Y-62902144D01*
X119977156Y-62925599D01*
X120015760Y-62976831D01*
X120073346Y-63050845D01*
X120146005Y-63142646D01*
X120229830Y-63247239D01*
X120278958Y-63308013D01*
X120366483Y-63416467D01*
X120444318Y-63513882D01*
X120508723Y-63595497D01*
X120555958Y-63656552D01*
X120582283Y-63692285D01*
X120586500Y-63699494D01*
X120566741Y-63704332D01*
X120513094Y-63708259D01*
X120433999Y-63710843D01*
X120348017Y-63711667D01*
X120109534Y-63711667D01*
X119845308Y-63352141D01*
X119581083Y-62992615D01*
X119575291Y-63352141D01*
X119569500Y-63711667D01*
X119389419Y-63711667D01*
X119288124Y-63708996D01*
X119225883Y-63700712D01*
X119199736Y-63686401D01*
X119199198Y-63685208D01*
X119197280Y-63659309D01*
X119195705Y-63595311D01*
X119194494Y-63497447D01*
X119193665Y-63369951D01*
X119193236Y-63217056D01*
X119193226Y-63042995D01*
X119193655Y-62852002D01*
X119194541Y-62648310D01*
X119194571Y-62642750D01*
X119200083Y-61626750D01*
X119569837Y-61614528D01*
X119581083Y-62804972D01*
G37*
X119581083Y-62804972D02*
X119824500Y-62507203D01*
X120067916Y-62209434D01*
X120295458Y-62209133D01*
X120387766Y-62210387D01*
X120461933Y-62214012D01*
X120509356Y-62219420D01*
X120522255Y-62224708D01*
X120508508Y-62244592D01*
X120470583Y-62290849D01*
X120412751Y-62358500D01*
X120339278Y-62442565D01*
X120254433Y-62538064D01*
X120236489Y-62558083D01*
X120150378Y-62655794D01*
X120075701Y-62743969D01*
X120016568Y-62817465D01*
X119977089Y-62871142D01*
X119961374Y-62899857D01*
X119961442Y-62902144D01*
X119977156Y-62925599D01*
X120015760Y-62976831D01*
X120073346Y-63050845D01*
X120146005Y-63142646D01*
X120229830Y-63247239D01*
X120278958Y-63308013D01*
X120366483Y-63416467D01*
X120444318Y-63513882D01*
X120508723Y-63595497D01*
X120555958Y-63656552D01*
X120582283Y-63692285D01*
X120586500Y-63699494D01*
X120566741Y-63704332D01*
X120513094Y-63708259D01*
X120433999Y-63710843D01*
X120348017Y-63711667D01*
X120109534Y-63711667D01*
X119845308Y-63352141D01*
X119581083Y-62992615D01*
X119575291Y-63352141D01*
X119569500Y-63711667D01*
X119389419Y-63711667D01*
X119288124Y-63708996D01*
X119225883Y-63700712D01*
X119199736Y-63686401D01*
X119199198Y-63685208D01*
X119197280Y-63659309D01*
X119195705Y-63595311D01*
X119194494Y-63497447D01*
X119193665Y-63369951D01*
X119193236Y-63217056D01*
X119193226Y-63042995D01*
X119193655Y-62852002D01*
X119194541Y-62648310D01*
X119194571Y-62642750D01*
X119200083Y-61626750D01*
X119569837Y-61614528D01*
X119581083Y-62804972D01*
G36*
X115125500Y-63415333D02*
G01*
X115548833Y-63415333D01*
X115548833Y-63711667D01*
X114278833Y-63711667D01*
X114278833Y-63415333D01*
X114744500Y-63415333D01*
X114744500Y-61912500D01*
X114319232Y-61912500D01*
X114331750Y-61626750D01*
X115125500Y-61615232D01*
X115125500Y-63415333D01*
G37*
X115125500Y-63415333D02*
X115548833Y-63415333D01*
X115548833Y-63711667D01*
X114278833Y-63711667D01*
X114278833Y-63415333D01*
X114744500Y-63415333D01*
X114744500Y-61912500D01*
X114319232Y-61912500D01*
X114331750Y-61626750D01*
X115125500Y-61615232D01*
X115125500Y-63415333D01*
G36*
X129788116Y-62180187D02*
G01*
X129915605Y-62204909D01*
X129964408Y-62223051D01*
X130100705Y-62305801D01*
X130207031Y-62417029D01*
X130281997Y-62553980D01*
X130324214Y-62713904D01*
X130332292Y-62894047D01*
X130328579Y-62944375D01*
X130317780Y-63055500D01*
X129833640Y-63055500D01*
X129671103Y-63055454D01*
X129546751Y-63056391D01*
X129456441Y-63059924D01*
X129396028Y-63067668D01*
X129361369Y-63081236D01*
X129348320Y-63102241D01*
X129352738Y-63132296D01*
X129370479Y-63173015D01*
X129397125Y-63225469D01*
X129444727Y-63302916D01*
X129502337Y-63360982D01*
X129574693Y-63400609D01*
X129666536Y-63422740D01*
X129782605Y-63428318D01*
X129927641Y-63418285D01*
X130106384Y-63393583D01*
X130180291Y-63381213D01*
X130259666Y-63367461D01*
X130259666Y-63664935D01*
X130074458Y-63698927D01*
X129937101Y-63718323D01*
X129793810Y-63728566D01*
X129656337Y-63729575D01*
X129536435Y-63721271D01*
X129445858Y-63703572D01*
X129444750Y-63703225D01*
X129293017Y-63637822D01*
X129172529Y-63546353D01*
X129081483Y-63426573D01*
X129018076Y-63276235D01*
X128985991Y-63132164D01*
X128973461Y-62940774D01*
X128994983Y-62759766D01*
X129002329Y-62736949D01*
X129370666Y-62736949D01*
X129372664Y-62754122D01*
X129383004Y-62766042D01*
X129408206Y-62773667D01*
X129454790Y-62777951D01*
X129529277Y-62779852D01*
X129638187Y-62780326D01*
X129666470Y-62780333D01*
X129962275Y-62780333D01*
X129949289Y-62711542D01*
X129911432Y-62600350D01*
X129847323Y-62521130D01*
X129759513Y-62475872D01*
X129650552Y-62466566D01*
X129637096Y-62467856D01*
X129542725Y-62496112D01*
X129461029Y-62552738D01*
X129401103Y-62628546D01*
X129372043Y-62714350D01*
X129370666Y-62736949D01*
X129002329Y-62736949D01*
X129048314Y-62594127D01*
X129131212Y-62448842D01*
X129241436Y-62328898D01*
X129376743Y-62239282D01*
X129390424Y-62232712D01*
X129509547Y-62194357D01*
X129647437Y-62176759D01*
X129788116Y-62180187D01*
G37*
X129788116Y-62180187D02*
X129915605Y-62204909D01*
X129964408Y-62223051D01*
X130100705Y-62305801D01*
X130207031Y-62417029D01*
X130281997Y-62553980D01*
X130324214Y-62713904D01*
X130332292Y-62894047D01*
X130328579Y-62944375D01*
X130317780Y-63055500D01*
X129833640Y-63055500D01*
X129671103Y-63055454D01*
X129546751Y-63056391D01*
X129456441Y-63059924D01*
X129396028Y-63067668D01*
X129361369Y-63081236D01*
X129348320Y-63102241D01*
X129352738Y-63132296D01*
X129370479Y-63173015D01*
X129397125Y-63225469D01*
X129444727Y-63302916D01*
X129502337Y-63360982D01*
X129574693Y-63400609D01*
X129666536Y-63422740D01*
X129782605Y-63428318D01*
X129927641Y-63418285D01*
X130106384Y-63393583D01*
X130180291Y-63381213D01*
X130259666Y-63367461D01*
X130259666Y-63664935D01*
X130074458Y-63698927D01*
X129937101Y-63718323D01*
X129793810Y-63728566D01*
X129656337Y-63729575D01*
X129536435Y-63721271D01*
X129445858Y-63703572D01*
X129444750Y-63703225D01*
X129293017Y-63637822D01*
X129172529Y-63546353D01*
X129081483Y-63426573D01*
X129018076Y-63276235D01*
X128985991Y-63132164D01*
X128973461Y-62940774D01*
X128994983Y-62759766D01*
X129002329Y-62736949D01*
X129370666Y-62736949D01*
X129372664Y-62754122D01*
X129383004Y-62766042D01*
X129408206Y-62773667D01*
X129454790Y-62777951D01*
X129529277Y-62779852D01*
X129638187Y-62780326D01*
X129666470Y-62780333D01*
X129962275Y-62780333D01*
X129949289Y-62711542D01*
X129911432Y-62600350D01*
X129847323Y-62521130D01*
X129759513Y-62475872D01*
X129650552Y-62466566D01*
X129637096Y-62467856D01*
X129542725Y-62496112D01*
X129461029Y-62552738D01*
X129401103Y-62628546D01*
X129372043Y-62714350D01*
X129370666Y-62736949D01*
X129002329Y-62736949D01*
X129048314Y-62594127D01*
X129131212Y-62448842D01*
X129241436Y-62328898D01*
X129376743Y-62239282D01*
X129390424Y-62232712D01*
X129509547Y-62194357D01*
X129647437Y-62176759D01*
X129788116Y-62180187D01*
G36*
X128640416Y-61626750D02*
G01*
X128640416Y-63701083D01*
X128476375Y-63707265D01*
X128312333Y-63713447D01*
X128312333Y-63520182D01*
X128205513Y-63604618D01*
X128070865Y-63687038D01*
X127928852Y-63728930D01*
X127783290Y-63729796D01*
X127637995Y-63689135D01*
X127620386Y-63681268D01*
X127510422Y-63612519D01*
X127425534Y-63518814D01*
X127364424Y-63397252D01*
X127325791Y-63244933D01*
X127308339Y-63058958D01*
X127307087Y-62987019D01*
X127694323Y-62987019D01*
X127700277Y-63119783D01*
X127717539Y-63219339D01*
X127748581Y-63293877D01*
X127795874Y-63351589D01*
X127807370Y-63361724D01*
X127886188Y-63406338D01*
X127968623Y-63409224D01*
X128049708Y-63375259D01*
X128100899Y-63335561D01*
X128160130Y-63277751D01*
X128192583Y-63240866D01*
X128270000Y-63146390D01*
X128270000Y-62828247D01*
X128270079Y-62700528D01*
X128267833Y-62609075D01*
X128259536Y-62547845D01*
X128241461Y-62510792D01*
X128209883Y-62491873D01*
X128161075Y-62485044D01*
X128091311Y-62484260D01*
X128057955Y-62484289D01*
X127937386Y-62501617D01*
X127840341Y-62553713D01*
X127767411Y-62639760D01*
X127719184Y-62758945D01*
X127696250Y-62910451D01*
X127694323Y-62987019D01*
X127307087Y-62987019D01*
X127306989Y-62981417D01*
X127307716Y-62870336D01*
X127311167Y-62790218D01*
X127319134Y-62729703D01*
X127333407Y-62677431D01*
X127355780Y-62622043D01*
X127367866Y-62595457D01*
X127447672Y-62463262D01*
X127552669Y-62350101D01*
X127673217Y-62265446D01*
X127730846Y-62238835D01*
X127801943Y-62217181D01*
X127885519Y-62204336D01*
X127993653Y-62198779D01*
X128053008Y-62198250D01*
X128269933Y-62198250D01*
X128269966Y-61906384D01*
X128270000Y-61614518D01*
X128640416Y-61626750D01*
G37*
X128640416Y-61626750D02*
X128640416Y-63701083D01*
X128476375Y-63707265D01*
X128312333Y-63713447D01*
X128312333Y-63520182D01*
X128205513Y-63604618D01*
X128070865Y-63687038D01*
X127928852Y-63728930D01*
X127783290Y-63729796D01*
X127637995Y-63689135D01*
X127620386Y-63681268D01*
X127510422Y-63612519D01*
X127425534Y-63518814D01*
X127364424Y-63397252D01*
X127325791Y-63244933D01*
X127308339Y-63058958D01*
X127307087Y-62987019D01*
X127694323Y-62987019D01*
X127700277Y-63119783D01*
X127717539Y-63219339D01*
X127748581Y-63293877D01*
X127795874Y-63351589D01*
X127807370Y-63361724D01*
X127886188Y-63406338D01*
X127968623Y-63409224D01*
X128049708Y-63375259D01*
X128100899Y-63335561D01*
X128160130Y-63277751D01*
X128192583Y-63240866D01*
X128270000Y-63146390D01*
X128270000Y-62828247D01*
X128270079Y-62700528D01*
X128267833Y-62609075D01*
X128259536Y-62547845D01*
X128241461Y-62510792D01*
X128209883Y-62491873D01*
X128161075Y-62485044D01*
X128091311Y-62484260D01*
X128057955Y-62484289D01*
X127937386Y-62501617D01*
X127840341Y-62553713D01*
X127767411Y-62639760D01*
X127719184Y-62758945D01*
X127696250Y-62910451D01*
X127694323Y-62987019D01*
X127307087Y-62987019D01*
X127306989Y-62981417D01*
X127307716Y-62870336D01*
X127311167Y-62790218D01*
X127319134Y-62729703D01*
X127333407Y-62677431D01*
X127355780Y-62622043D01*
X127367866Y-62595457D01*
X127447672Y-62463262D01*
X127552669Y-62350101D01*
X127673217Y-62265446D01*
X127730846Y-62238835D01*
X127801943Y-62217181D01*
X127885519Y-62204336D01*
X127993653Y-62198779D01*
X128053008Y-62198250D01*
X128269933Y-62198250D01*
X128269966Y-61906384D01*
X128270000Y-61614518D01*
X128640416Y-61626750D01*
G36*
X121893541Y-61620634D02*
G01*
X122078750Y-61626750D01*
X122078750Y-63701083D01*
X121750666Y-63713447D01*
X121750666Y-63520182D01*
X121643846Y-63604618D01*
X121509581Y-63687253D01*
X121369154Y-63729488D01*
X121226405Y-63730879D01*
X121085170Y-63690978D01*
X121049292Y-63673847D01*
X120935750Y-63591508D01*
X120846781Y-63476661D01*
X120783472Y-63332019D01*
X120746910Y-63160294D01*
X120738350Y-62967959D01*
X121136951Y-62967959D01*
X121141390Y-63104568D01*
X121155902Y-63207216D01*
X121182575Y-63283517D01*
X121223502Y-63341082D01*
X121244909Y-63361056D01*
X121323936Y-63406084D01*
X121406209Y-63409390D01*
X121488042Y-63375259D01*
X121539232Y-63335561D01*
X121598464Y-63277751D01*
X121630917Y-63240866D01*
X121708333Y-63146390D01*
X121708333Y-62828247D01*
X121708363Y-62700559D01*
X121706091Y-62609136D01*
X121697974Y-62547930D01*
X121680471Y-62510891D01*
X121650039Y-62491969D01*
X121603136Y-62485115D01*
X121536218Y-62484280D01*
X121506919Y-62484289D01*
X121389318Y-62498655D01*
X121296603Y-62545003D01*
X121222535Y-62627130D01*
X121195041Y-62674053D01*
X121165339Y-62736630D01*
X121147758Y-62794122D01*
X121139299Y-62861706D01*
X121136962Y-62954557D01*
X121136951Y-62967959D01*
X120738350Y-62967959D01*
X120738182Y-62964201D01*
X120740938Y-62904311D01*
X120767154Y-62720731D01*
X120821254Y-62565967D01*
X120905198Y-62435371D01*
X120965546Y-62371459D01*
X121057265Y-62296967D01*
X121152579Y-62245894D01*
X121261834Y-62214833D01*
X121395379Y-62200374D01*
X121491341Y-62198250D01*
X121708266Y-62198250D01*
X121708299Y-61906384D01*
X121708333Y-61614518D01*
X121893541Y-61620634D01*
G37*
X121893541Y-61620634D02*
X122078750Y-61626750D01*
X122078750Y-63701083D01*
X121750666Y-63713447D01*
X121750666Y-63520182D01*
X121643846Y-63604618D01*
X121509581Y-63687253D01*
X121369154Y-63729488D01*
X121226405Y-63730879D01*
X121085170Y-63690978D01*
X121049292Y-63673847D01*
X120935750Y-63591508D01*
X120846781Y-63476661D01*
X120783472Y-63332019D01*
X120746910Y-63160294D01*
X120738350Y-62967959D01*
X121136951Y-62967959D01*
X121141390Y-63104568D01*
X121155902Y-63207216D01*
X121182575Y-63283517D01*
X121223502Y-63341082D01*
X121244909Y-63361056D01*
X121323936Y-63406084D01*
X121406209Y-63409390D01*
X121488042Y-63375259D01*
X121539232Y-63335561D01*
X121598464Y-63277751D01*
X121630917Y-63240866D01*
X121708333Y-63146390D01*
X121708333Y-62828247D01*
X121708363Y-62700559D01*
X121706091Y-62609136D01*
X121697974Y-62547930D01*
X121680471Y-62510891D01*
X121650039Y-62491969D01*
X121603136Y-62485115D01*
X121536218Y-62484280D01*
X121506919Y-62484289D01*
X121389318Y-62498655D01*
X121296603Y-62545003D01*
X121222535Y-62627130D01*
X121195041Y-62674053D01*
X121165339Y-62736630D01*
X121147758Y-62794122D01*
X121139299Y-62861706D01*
X121136962Y-62954557D01*
X121136951Y-62967959D01*
X120738350Y-62967959D01*
X120738182Y-62964201D01*
X120740938Y-62904311D01*
X120767154Y-62720731D01*
X120821254Y-62565967D01*
X120905198Y-62435371D01*
X120965546Y-62371459D01*
X121057265Y-62296967D01*
X121152579Y-62245894D01*
X121261834Y-62214833D01*
X121395379Y-62200374D01*
X121491341Y-62198250D01*
X121708266Y-62198250D01*
X121708299Y-61906384D01*
X121708333Y-61614518D01*
X121893541Y-61620634D01*
G36*
X118564614Y-62198254D02*
G01*
X118624903Y-62208069D01*
X118745000Y-62233001D01*
X118745000Y-62413682D01*
X118744217Y-62500955D01*
X118740766Y-62553347D01*
X118732987Y-62578297D01*
X118719223Y-62583245D01*
X118707958Y-62579927D01*
X118549805Y-62531669D01*
X118399086Y-62511239D01*
X118263019Y-62518711D01*
X118148824Y-62554161D01*
X118114582Y-62573705D01*
X118038400Y-62638669D01*
X117987966Y-62719431D01*
X117960007Y-62823767D01*
X117951251Y-62959451D01*
X117951250Y-62961819D01*
X117952928Y-63052150D01*
X117960143Y-63114529D01*
X117976166Y-63163273D01*
X118004268Y-63212703D01*
X118010858Y-63222772D01*
X118093412Y-63310807D01*
X118201851Y-63367697D01*
X118332585Y-63392680D01*
X118482023Y-63384996D01*
X118621405Y-63352106D01*
X118690073Y-63330773D01*
X118740257Y-63315545D01*
X118760875Y-63309773D01*
X118763337Y-63329131D01*
X118765189Y-63380801D01*
X118766116Y-63454760D01*
X118766166Y-63478013D01*
X118766166Y-63646526D01*
X118655041Y-63680196D01*
X118561092Y-63700935D01*
X118444272Y-63715659D01*
X118319935Y-63723481D01*
X118203434Y-63723514D01*
X118110122Y-63714870D01*
X118097442Y-63712425D01*
X117926927Y-63658075D01*
X117787401Y-63574900D01*
X117678973Y-63463030D01*
X117601755Y-63322600D01*
X117555857Y-63153742D01*
X117543809Y-63045753D01*
X117548419Y-62846620D01*
X117587724Y-62669023D01*
X117660765Y-62514738D01*
X117766580Y-62385541D01*
X117904209Y-62283209D01*
X117975975Y-62246529D01*
X118062082Y-62219771D01*
X118176969Y-62200796D01*
X118307665Y-62190372D01*
X118441204Y-62189269D01*
X118564614Y-62198254D01*
G37*
X118564614Y-62198254D02*
X118624903Y-62208069D01*
X118745000Y-62233001D01*
X118745000Y-62413682D01*
X118744217Y-62500955D01*
X118740766Y-62553347D01*
X118732987Y-62578297D01*
X118719223Y-62583245D01*
X118707958Y-62579927D01*
X118549805Y-62531669D01*
X118399086Y-62511239D01*
X118263019Y-62518711D01*
X118148824Y-62554161D01*
X118114582Y-62573705D01*
X118038400Y-62638669D01*
X117987966Y-62719431D01*
X117960007Y-62823767D01*
X117951251Y-62959451D01*
X117951250Y-62961819D01*
X117952928Y-63052150D01*
X117960143Y-63114529D01*
X117976166Y-63163273D01*
X118004268Y-63212703D01*
X118010858Y-63222772D01*
X118093412Y-63310807D01*
X118201851Y-63367697D01*
X118332585Y-63392680D01*
X118482023Y-63384996D01*
X118621405Y-63352106D01*
X118690073Y-63330773D01*
X118740257Y-63315545D01*
X118760875Y-63309773D01*
X118763337Y-63329131D01*
X118765189Y-63380801D01*
X118766116Y-63454760D01*
X118766166Y-63478013D01*
X118766166Y-63646526D01*
X118655041Y-63680196D01*
X118561092Y-63700935D01*
X118444272Y-63715659D01*
X118319935Y-63723481D01*
X118203434Y-63723514D01*
X118110122Y-63714870D01*
X118097442Y-63712425D01*
X117926927Y-63658075D01*
X117787401Y-63574900D01*
X117678973Y-63463030D01*
X117601755Y-63322600D01*
X117555857Y-63153742D01*
X117543809Y-63045753D01*
X117548419Y-62846620D01*
X117587724Y-62669023D01*
X117660765Y-62514738D01*
X117766580Y-62385541D01*
X117904209Y-62283209D01*
X117975975Y-62246529D01*
X118062082Y-62219771D01*
X118176969Y-62200796D01*
X118307665Y-62190372D01*
X118441204Y-62189269D01*
X118564614Y-62198254D01*
G36*
X116773905Y-62204355D02*
G01*
X116924710Y-62263313D01*
X117045293Y-62344005D01*
X117122761Y-62434069D01*
X117184617Y-62555352D01*
X117228489Y-62698860D01*
X117252002Y-62855603D01*
X117252785Y-63016589D01*
X117243844Y-63096291D01*
X117198214Y-63278375D01*
X117122746Y-63432869D01*
X117018689Y-63557900D01*
X116887293Y-63651595D01*
X116866195Y-63662394D01*
X116796426Y-63692813D01*
X116729373Y-63711522D01*
X116649447Y-63721722D01*
X116555435Y-63726222D01*
X116398683Y-63723373D01*
X116275688Y-63704282D01*
X116252479Y-63697811D01*
X116131985Y-63641687D01*
X116019859Y-63554039D01*
X115928428Y-63445490D01*
X115896501Y-63391046D01*
X115840939Y-63242394D01*
X115813188Y-63078188D01*
X115812461Y-62960250D01*
X116205929Y-62960250D01*
X116218276Y-63116680D01*
X116255549Y-63239313D01*
X116318092Y-63328820D01*
X116406254Y-63385871D01*
X116430267Y-63394496D01*
X116516186Y-63406089D01*
X116611061Y-63395955D01*
X116693772Y-63367031D01*
X116713000Y-63355170D01*
X116773819Y-63296971D01*
X116815489Y-63219649D01*
X116840178Y-63116634D01*
X116850059Y-62981358D01*
X116850469Y-62939083D01*
X116845972Y-62807478D01*
X116830693Y-62709489D01*
X116801709Y-62637136D01*
X116756094Y-62582436D01*
X116706680Y-62546643D01*
X116613836Y-62510776D01*
X116511449Y-62504020D01*
X116414557Y-62525701D01*
X116351778Y-62562499D01*
X116279742Y-62641369D01*
X116233417Y-62738549D01*
X116210073Y-62861478D01*
X116205929Y-62960250D01*
X115812461Y-62960250D01*
X115812136Y-62907587D01*
X115836671Y-62739750D01*
X115885679Y-62583837D01*
X115958048Y-62449009D01*
X116020035Y-62374042D01*
X116143730Y-62278967D01*
X116289083Y-62214223D01*
X116447974Y-62180048D01*
X116612288Y-62176679D01*
X116773905Y-62204355D01*
G37*
X116773905Y-62204355D02*
X116924710Y-62263313D01*
X117045293Y-62344005D01*
X117122761Y-62434069D01*
X117184617Y-62555352D01*
X117228489Y-62698860D01*
X117252002Y-62855603D01*
X117252785Y-63016589D01*
X117243844Y-63096291D01*
X117198214Y-63278375D01*
X117122746Y-63432869D01*
X117018689Y-63557900D01*
X116887293Y-63651595D01*
X116866195Y-63662394D01*
X116796426Y-63692813D01*
X116729373Y-63711522D01*
X116649447Y-63721722D01*
X116555435Y-63726222D01*
X116398683Y-63723373D01*
X116275688Y-63704282D01*
X116252479Y-63697811D01*
X116131985Y-63641687D01*
X116019859Y-63554039D01*
X115928428Y-63445490D01*
X115896501Y-63391046D01*
X115840939Y-63242394D01*
X115813188Y-63078188D01*
X115812461Y-62960250D01*
X116205929Y-62960250D01*
X116218276Y-63116680D01*
X116255549Y-63239313D01*
X116318092Y-63328820D01*
X116406254Y-63385871D01*
X116430267Y-63394496D01*
X116516186Y-63406089D01*
X116611061Y-63395955D01*
X116693772Y-63367031D01*
X116713000Y-63355170D01*
X116773819Y-63296971D01*
X116815489Y-63219649D01*
X116840178Y-63116634D01*
X116850059Y-62981358D01*
X116850469Y-62939083D01*
X116845972Y-62807478D01*
X116830693Y-62709489D01*
X116801709Y-62637136D01*
X116756094Y-62582436D01*
X116706680Y-62546643D01*
X116613836Y-62510776D01*
X116511449Y-62504020D01*
X116414557Y-62525701D01*
X116351778Y-62562499D01*
X116279742Y-62641369D01*
X116233417Y-62738549D01*
X116210073Y-62861478D01*
X116205929Y-62960250D01*
X115812461Y-62960250D01*
X115812136Y-62907587D01*
X115836671Y-62739750D01*
X115885679Y-62583837D01*
X115958048Y-62449009D01*
X116020035Y-62374042D01*
X116143730Y-62278967D01*
X116289083Y-62214223D01*
X116447974Y-62180048D01*
X116612288Y-62176679D01*
X116773905Y-62204355D01*
G36*
X113605158Y-62194127D02*
G01*
X113712877Y-62207660D01*
X113727458Y-62210587D01*
X113834333Y-62233508D01*
X113834333Y-62414139D01*
X113833511Y-62501568D01*
X113829940Y-62554233D01*
X113821964Y-62579692D01*
X113807928Y-62585501D01*
X113797291Y-62583142D01*
X113643789Y-62539031D01*
X113520359Y-62513661D01*
X113419446Y-62506385D01*
X113333489Y-62516554D01*
X113268219Y-62537724D01*
X113175239Y-62588064D01*
X113109654Y-62654883D01*
X113073057Y-62716833D01*
X113030538Y-62839592D01*
X113019499Y-62966649D01*
X113037467Y-63090078D01*
X113081969Y-63201953D01*
X113150531Y-63294348D01*
X113240681Y-63359334D01*
X113278297Y-63374611D01*
X113354607Y-63387908D01*
X113456240Y-63389791D01*
X113568051Y-63381264D01*
X113674892Y-63363332D01*
X113744375Y-63343700D01*
X113834333Y-63311378D01*
X113834333Y-63477204D01*
X113833602Y-63560563D01*
X113829357Y-63611571D01*
X113818517Y-63640210D01*
X113798004Y-63656459D01*
X113776125Y-63665852D01*
X113640839Y-63703981D01*
X113483919Y-63724623D01*
X113322736Y-63726754D01*
X113174656Y-63709349D01*
X113146416Y-63703009D01*
X112980433Y-63643737D01*
X112845804Y-63556062D01*
X112742682Y-63440192D01*
X112671221Y-63296339D01*
X112631576Y-63124710D01*
X112622856Y-62990709D01*
X112638256Y-62794940D01*
X112687058Y-62622844D01*
X112768089Y-62476155D01*
X112880176Y-62356606D01*
X113022148Y-62265932D01*
X113144966Y-62218675D01*
X113234652Y-62201150D01*
X113351165Y-62191079D01*
X113479627Y-62188669D01*
X113605158Y-62194127D01*
G37*
X113605158Y-62194127D02*
X113712877Y-62207660D01*
X113727458Y-62210587D01*
X113834333Y-62233508D01*
X113834333Y-62414139D01*
X113833511Y-62501568D01*
X113829940Y-62554233D01*
X113821964Y-62579692D01*
X113807928Y-62585501D01*
X113797291Y-62583142D01*
X113643789Y-62539031D01*
X113520359Y-62513661D01*
X113419446Y-62506385D01*
X113333489Y-62516554D01*
X113268219Y-62537724D01*
X113175239Y-62588064D01*
X113109654Y-62654883D01*
X113073057Y-62716833D01*
X113030538Y-62839592D01*
X113019499Y-62966649D01*
X113037467Y-63090078D01*
X113081969Y-63201953D01*
X113150531Y-63294348D01*
X113240681Y-63359334D01*
X113278297Y-63374611D01*
X113354607Y-63387908D01*
X113456240Y-63389791D01*
X113568051Y-63381264D01*
X113674892Y-63363332D01*
X113744375Y-63343700D01*
X113834333Y-63311378D01*
X113834333Y-63477204D01*
X113833602Y-63560563D01*
X113829357Y-63611571D01*
X113818517Y-63640210D01*
X113798004Y-63656459D01*
X113776125Y-63665852D01*
X113640839Y-63703981D01*
X113483919Y-63724623D01*
X113322736Y-63726754D01*
X113174656Y-63709349D01*
X113146416Y-63703009D01*
X112980433Y-63643737D01*
X112845804Y-63556062D01*
X112742682Y-63440192D01*
X112671221Y-63296339D01*
X112631576Y-63124710D01*
X112622856Y-62990709D01*
X112638256Y-62794940D01*
X112687058Y-62622844D01*
X112768089Y-62476155D01*
X112880176Y-62356606D01*
X113022148Y-62265932D01*
X113144966Y-62218675D01*
X113234652Y-62201150D01*
X113351165Y-62191079D01*
X113479627Y-62188669D01*
X113605158Y-62194127D01*
G36*
X125862314Y-70623677D02*
G01*
X125942381Y-70627967D01*
X126001697Y-70636968D01*
X126051037Y-70652196D01*
X126091946Y-70670558D01*
X126218822Y-70750199D01*
X126320407Y-70853317D01*
X126398558Y-70983359D01*
X126455131Y-71143773D01*
X126491984Y-71338004D01*
X126502180Y-71432208D01*
X126517572Y-71606833D01*
X125925968Y-71606833D01*
X125911138Y-71474542D01*
X125883773Y-71327679D01*
X125838930Y-71219183D01*
X125776658Y-71149153D01*
X125742137Y-71129868D01*
X125679878Y-71108987D01*
X125625901Y-71098982D01*
X125620946Y-71098833D01*
X125540724Y-71116343D01*
X125446896Y-71165177D01*
X125346656Y-71239792D01*
X125247204Y-71334644D01*
X125155737Y-71444188D01*
X125135070Y-71473064D01*
X125073833Y-71561544D01*
X125073833Y-73046167D01*
X124481166Y-73046167D01*
X124481166Y-70654333D01*
X125004794Y-70654333D01*
X125017914Y-70733708D01*
X125027170Y-70812818D01*
X125031260Y-70893295D01*
X125031267Y-70894747D01*
X125031500Y-70976412D01*
X125128129Y-70868936D01*
X125246557Y-70763818D01*
X125365809Y-70692022D01*
X125429376Y-70661878D01*
X125481734Y-70642009D01*
X125534714Y-70630283D01*
X125600146Y-70624565D01*
X125689861Y-70622720D01*
X125750721Y-70622583D01*
X125862314Y-70623677D01*
G37*
X125862314Y-70623677D02*
X125942381Y-70627967D01*
X126001697Y-70636968D01*
X126051037Y-70652196D01*
X126091946Y-70670558D01*
X126218822Y-70750199D01*
X126320407Y-70853317D01*
X126398558Y-70983359D01*
X126455131Y-71143773D01*
X126491984Y-71338004D01*
X126502180Y-71432208D01*
X126517572Y-71606833D01*
X125925968Y-71606833D01*
X125911138Y-71474542D01*
X125883773Y-71327679D01*
X125838930Y-71219183D01*
X125776658Y-71149153D01*
X125742137Y-71129868D01*
X125679878Y-71108987D01*
X125625901Y-71098982D01*
X125620946Y-71098833D01*
X125540724Y-71116343D01*
X125446896Y-71165177D01*
X125346656Y-71239792D01*
X125247204Y-71334644D01*
X125155737Y-71444188D01*
X125135070Y-71473064D01*
X125073833Y-71561544D01*
X125073833Y-73046167D01*
X124481166Y-73046167D01*
X124481166Y-70654333D01*
X125004794Y-70654333D01*
X125017914Y-70733708D01*
X125027170Y-70812818D01*
X125031260Y-70893295D01*
X125031267Y-70894747D01*
X125031500Y-70976412D01*
X125128129Y-70868936D01*
X125246557Y-70763818D01*
X125365809Y-70692022D01*
X125429376Y-70661878D01*
X125481734Y-70642009D01*
X125534714Y-70630283D01*
X125600146Y-70624565D01*
X125689861Y-70622720D01*
X125750721Y-70622583D01*
X125862314Y-70623677D01*
G36*
X119739833Y-71630469D02*
G01*
X120143253Y-71142401D01*
X120546674Y-70654333D01*
X120905253Y-70654333D01*
X121023118Y-70655225D01*
X121124692Y-70657695D01*
X121203089Y-70661437D01*
X121251426Y-70666144D01*
X121263833Y-70670302D01*
X121250255Y-70689369D01*
X121211710Y-70736165D01*
X121151479Y-70806889D01*
X121072846Y-70897743D01*
X120979092Y-71004926D01*
X120873499Y-71124639D01*
X120794976Y-71213096D01*
X120667507Y-71356583D01*
X120565732Y-71472015D01*
X120487020Y-71562800D01*
X120428741Y-71632345D01*
X120388264Y-71684058D01*
X120362959Y-71721346D01*
X120350195Y-71747617D01*
X120347342Y-71766278D01*
X120351770Y-71780737D01*
X120353915Y-71784430D01*
X120373318Y-71810763D01*
X120416199Y-71865949D01*
X120479359Y-71945968D01*
X120559601Y-72046803D01*
X120653727Y-72164434D01*
X120758539Y-72294842D01*
X120865105Y-72426914D01*
X120975683Y-72563999D01*
X121077365Y-72690624D01*
X121167185Y-72803052D01*
X121242175Y-72897544D01*
X121299369Y-72970361D01*
X121335799Y-73017766D01*
X121348500Y-73036006D01*
X121328446Y-73039241D01*
X121272718Y-73041477D01*
X121187966Y-73042619D01*
X121080837Y-73042576D01*
X120964322Y-73041352D01*
X120580145Y-73035583D01*
X120165280Y-72473254D01*
X119750416Y-71910926D01*
X119744784Y-72478546D01*
X119739152Y-73046167D01*
X119147166Y-73046167D01*
X119147166Y-69723000D01*
X119739833Y-69723000D01*
X119739833Y-71630469D01*
G37*
X119739833Y-71630469D02*
X120143253Y-71142401D01*
X120546674Y-70654333D01*
X120905253Y-70654333D01*
X121023118Y-70655225D01*
X121124692Y-70657695D01*
X121203089Y-70661437D01*
X121251426Y-70666144D01*
X121263833Y-70670302D01*
X121250255Y-70689369D01*
X121211710Y-70736165D01*
X121151479Y-70806889D01*
X121072846Y-70897743D01*
X120979092Y-71004926D01*
X120873499Y-71124639D01*
X120794976Y-71213096D01*
X120667507Y-71356583D01*
X120565732Y-71472015D01*
X120487020Y-71562800D01*
X120428741Y-71632345D01*
X120388264Y-71684058D01*
X120362959Y-71721346D01*
X120350195Y-71747617D01*
X120347342Y-71766278D01*
X120351770Y-71780737D01*
X120353915Y-71784430D01*
X120373318Y-71810763D01*
X120416199Y-71865949D01*
X120479359Y-71945968D01*
X120559601Y-72046803D01*
X120653727Y-72164434D01*
X120758539Y-72294842D01*
X120865105Y-72426914D01*
X120975683Y-72563999D01*
X121077365Y-72690624D01*
X121167185Y-72803052D01*
X121242175Y-72897544D01*
X121299369Y-72970361D01*
X121335799Y-73017766D01*
X121348500Y-73036006D01*
X121328446Y-73039241D01*
X121272718Y-73041477D01*
X121187966Y-73042619D01*
X121080837Y-73042576D01*
X120964322Y-73041352D01*
X120580145Y-73035583D01*
X120165280Y-72473254D01*
X119750416Y-71910926D01*
X119744784Y-72478546D01*
X119739152Y-73046167D01*
X119147166Y-73046167D01*
X119147166Y-69723000D01*
X119739833Y-69723000D01*
X119739833Y-71630469D01*
G36*
X112585500Y-72580500D02*
G01*
X113284000Y-72580500D01*
X113284000Y-73046167D01*
X111230833Y-73046167D01*
X111230833Y-72580500D01*
X111992833Y-72580500D01*
X111992833Y-70188667D01*
X111315500Y-70188667D01*
X111315500Y-69723000D01*
X112585500Y-69723000D01*
X112585500Y-72580500D01*
G37*
X112585500Y-72580500D02*
X113284000Y-72580500D01*
X113284000Y-73046167D01*
X111230833Y-73046167D01*
X111230833Y-72580500D01*
X111992833Y-72580500D01*
X111992833Y-70188667D01*
X111315500Y-70188667D01*
X111315500Y-69723000D01*
X112585500Y-69723000D01*
X112585500Y-72580500D01*
G36*
X117975318Y-70630861D02*
G01*
X118082007Y-70643060D01*
X118184420Y-70656786D01*
X118268240Y-70670023D01*
X118305791Y-70677371D01*
X118406333Y-70700095D01*
X118406333Y-70986395D01*
X118405941Y-71101264D01*
X118404203Y-71179995D01*
X118400274Y-71228785D01*
X118393313Y-71253825D01*
X118382475Y-71261310D01*
X118369291Y-71258384D01*
X118145238Y-71183752D01*
X117941582Y-71140493D01*
X117760625Y-71128934D01*
X117604806Y-71149369D01*
X117445845Y-71208484D01*
X117317904Y-71296384D01*
X117221047Y-71412975D01*
X117155341Y-71558163D01*
X117120850Y-71731857D01*
X117115166Y-71850250D01*
X117130939Y-72040744D01*
X117178163Y-72203127D01*
X117256697Y-72337195D01*
X117366398Y-72442747D01*
X117507124Y-72519579D01*
X117605951Y-72551694D01*
X117683117Y-72568850D01*
X117751653Y-72575651D01*
X117828850Y-72572675D01*
X117919500Y-72562185D01*
X118066908Y-72536682D01*
X118216375Y-72500740D01*
X118349180Y-72459089D01*
X118390458Y-72443133D01*
X118405840Y-72439869D01*
X118416270Y-72449375D01*
X118422699Y-72478031D01*
X118426075Y-72532219D01*
X118427349Y-72618323D01*
X118427500Y-72692084D01*
X118427500Y-72956364D01*
X118369291Y-72979698D01*
X118238187Y-73020488D01*
X118077920Y-73052132D01*
X117900853Y-73073708D01*
X117719348Y-73084294D01*
X117545769Y-73082969D01*
X117392479Y-73068813D01*
X117329603Y-73057160D01*
X117119942Y-72989918D01*
X116936243Y-72889760D01*
X116780110Y-72758140D01*
X116653147Y-72596512D01*
X116556959Y-72406331D01*
X116530695Y-72332778D01*
X116510501Y-72242816D01*
X116495908Y-72123155D01*
X116487272Y-71986104D01*
X116484950Y-71843971D01*
X116489299Y-71709063D01*
X116500675Y-71593690D01*
X116508074Y-71551927D01*
X116573497Y-71336238D01*
X116671365Y-71146428D01*
X116799693Y-70983743D01*
X116956499Y-70849427D01*
X117139799Y-70744727D01*
X117347612Y-70670885D01*
X117577952Y-70629148D01*
X117828839Y-70620761D01*
X117975318Y-70630861D01*
G37*
X117975318Y-70630861D02*
X118082007Y-70643060D01*
X118184420Y-70656786D01*
X118268240Y-70670023D01*
X118305791Y-70677371D01*
X118406333Y-70700095D01*
X118406333Y-70986395D01*
X118405941Y-71101264D01*
X118404203Y-71179995D01*
X118400274Y-71228785D01*
X118393313Y-71253825D01*
X118382475Y-71261310D01*
X118369291Y-71258384D01*
X118145238Y-71183752D01*
X117941582Y-71140493D01*
X117760625Y-71128934D01*
X117604806Y-71149369D01*
X117445845Y-71208484D01*
X117317904Y-71296384D01*
X117221047Y-71412975D01*
X117155341Y-71558163D01*
X117120850Y-71731857D01*
X117115166Y-71850250D01*
X117130939Y-72040744D01*
X117178163Y-72203127D01*
X117256697Y-72337195D01*
X117366398Y-72442747D01*
X117507124Y-72519579D01*
X117605951Y-72551694D01*
X117683117Y-72568850D01*
X117751653Y-72575651D01*
X117828850Y-72572675D01*
X117919500Y-72562185D01*
X118066908Y-72536682D01*
X118216375Y-72500740D01*
X118349180Y-72459089D01*
X118390458Y-72443133D01*
X118405840Y-72439869D01*
X118416270Y-72449375D01*
X118422699Y-72478031D01*
X118426075Y-72532219D01*
X118427349Y-72618323D01*
X118427500Y-72692084D01*
X118427500Y-72956364D01*
X118369291Y-72979698D01*
X118238187Y-73020488D01*
X118077920Y-73052132D01*
X117900853Y-73073708D01*
X117719348Y-73084294D01*
X117545769Y-73082969D01*
X117392479Y-73068813D01*
X117329603Y-73057160D01*
X117119942Y-72989918D01*
X116936243Y-72889760D01*
X116780110Y-72758140D01*
X116653147Y-72596512D01*
X116556959Y-72406331D01*
X116530695Y-72332778D01*
X116510501Y-72242816D01*
X116495908Y-72123155D01*
X116487272Y-71986104D01*
X116484950Y-71843971D01*
X116489299Y-71709063D01*
X116500675Y-71593690D01*
X116508074Y-71551927D01*
X116573497Y-71336238D01*
X116671365Y-71146428D01*
X116799693Y-70983743D01*
X116956499Y-70849427D01*
X117139799Y-70744727D01*
X117347612Y-70670885D01*
X117577952Y-70629148D01*
X117828839Y-70620761D01*
X117975318Y-70630861D01*
G36*
X110225454Y-70643634D02*
G01*
X110400041Y-70675874D01*
X110511166Y-70700174D01*
X110511166Y-70984170D01*
X110509873Y-71088275D01*
X110506330Y-71175239D01*
X110501039Y-71237325D01*
X110494504Y-71266799D01*
X110492690Y-71268167D01*
X110463938Y-71260193D01*
X110411367Y-71239887D01*
X110377835Y-71225534D01*
X110313952Y-71203287D01*
X110223187Y-71179252D01*
X110120623Y-71157215D01*
X110069467Y-71148103D01*
X109969081Y-71132524D01*
X109896797Y-71124820D01*
X109839126Y-71124976D01*
X109782579Y-71132974D01*
X109718254Y-71147662D01*
X109557428Y-71204891D01*
X109428268Y-71289657D01*
X109330428Y-71402446D01*
X109263563Y-71543747D01*
X109227326Y-71714046D01*
X109220000Y-71850250D01*
X109235087Y-72041055D01*
X109280588Y-72202561D01*
X109356863Y-72335281D01*
X109464272Y-72439729D01*
X109603172Y-72516418D01*
X109710784Y-72551694D01*
X109787950Y-72568850D01*
X109856487Y-72575651D01*
X109933683Y-72572675D01*
X110024333Y-72562185D01*
X110171742Y-72536682D01*
X110321208Y-72500740D01*
X110454014Y-72459089D01*
X110495291Y-72443133D01*
X110510673Y-72439869D01*
X110521103Y-72449375D01*
X110527532Y-72478031D01*
X110530909Y-72532219D01*
X110532182Y-72618323D01*
X110532333Y-72692084D01*
X110532333Y-72956364D01*
X110474125Y-72979698D01*
X110343021Y-73020488D01*
X110182753Y-73052132D01*
X110005686Y-73073708D01*
X109824181Y-73084294D01*
X109650602Y-73082969D01*
X109497312Y-73068813D01*
X109434436Y-73057160D01*
X109226058Y-72990142D01*
X109042677Y-72890311D01*
X108886665Y-72759977D01*
X108760390Y-72601450D01*
X108666221Y-72417038D01*
X108617542Y-72260817D01*
X108598936Y-72145968D01*
X108588664Y-72004746D01*
X108586722Y-71852284D01*
X108593104Y-71703712D01*
X108607805Y-71574163D01*
X108617790Y-71523286D01*
X108687267Y-71312044D01*
X108788760Y-71126930D01*
X108920242Y-70968907D01*
X109079688Y-70838939D01*
X109265072Y-70737989D01*
X109474366Y-70667019D01*
X109705546Y-70626995D01*
X109956583Y-70618879D01*
X110225454Y-70643634D01*
G37*
X110225454Y-70643634D02*
X110400041Y-70675874D01*
X110511166Y-70700174D01*
X110511166Y-70984170D01*
X110509873Y-71088275D01*
X110506330Y-71175239D01*
X110501039Y-71237325D01*
X110494504Y-71266799D01*
X110492690Y-71268167D01*
X110463938Y-71260193D01*
X110411367Y-71239887D01*
X110377835Y-71225534D01*
X110313952Y-71203287D01*
X110223187Y-71179252D01*
X110120623Y-71157215D01*
X110069467Y-71148103D01*
X109969081Y-71132524D01*
X109896797Y-71124820D01*
X109839126Y-71124976D01*
X109782579Y-71132974D01*
X109718254Y-71147662D01*
X109557428Y-71204891D01*
X109428268Y-71289657D01*
X109330428Y-71402446D01*
X109263563Y-71543747D01*
X109227326Y-71714046D01*
X109220000Y-71850250D01*
X109235087Y-72041055D01*
X109280588Y-72202561D01*
X109356863Y-72335281D01*
X109464272Y-72439729D01*
X109603172Y-72516418D01*
X109710784Y-72551694D01*
X109787950Y-72568850D01*
X109856487Y-72575651D01*
X109933683Y-72572675D01*
X110024333Y-72562185D01*
X110171742Y-72536682D01*
X110321208Y-72500740D01*
X110454014Y-72459089D01*
X110495291Y-72443133D01*
X110510673Y-72439869D01*
X110521103Y-72449375D01*
X110527532Y-72478031D01*
X110530909Y-72532219D01*
X110532182Y-72618323D01*
X110532333Y-72692084D01*
X110532333Y-72956364D01*
X110474125Y-72979698D01*
X110343021Y-73020488D01*
X110182753Y-73052132D01*
X110005686Y-73073708D01*
X109824181Y-73084294D01*
X109650602Y-73082969D01*
X109497312Y-73068813D01*
X109434436Y-73057160D01*
X109226058Y-72990142D01*
X109042677Y-72890311D01*
X108886665Y-72759977D01*
X108760390Y-72601450D01*
X108666221Y-72417038D01*
X108617542Y-72260817D01*
X108598936Y-72145968D01*
X108588664Y-72004746D01*
X108586722Y-71852284D01*
X108593104Y-71703712D01*
X108607805Y-71574163D01*
X108617790Y-71523286D01*
X108687267Y-71312044D01*
X108788760Y-71126930D01*
X108920242Y-70968907D01*
X109079688Y-70838939D01*
X109265072Y-70737989D01*
X109474366Y-70667019D01*
X109705546Y-70626995D01*
X109956583Y-70618879D01*
X110225454Y-70643634D01*
G36*
X135958004Y-69902897D02*
G01*
X135965220Y-69931136D01*
X135970168Y-69986214D01*
X135973161Y-70072548D01*
X135974510Y-70194555D01*
X135974666Y-70271069D01*
X135974666Y-70654333D01*
X136884833Y-70654333D01*
X136884833Y-71120000D01*
X135974666Y-71120000D01*
X135974666Y-71750038D01*
X135974861Y-71932039D01*
X135975631Y-72076716D01*
X135977256Y-72189080D01*
X135980015Y-72274139D01*
X135984187Y-72336903D01*
X135990052Y-72382381D01*
X135997888Y-72415583D01*
X136007975Y-72441518D01*
X136013855Y-72453149D01*
X136060870Y-72525082D01*
X136116624Y-72573077D01*
X136190769Y-72601980D01*
X136292960Y-72616638D01*
X136345573Y-72619671D01*
X136505490Y-72616968D01*
X136664457Y-72598076D01*
X136690107Y-72593212D01*
X136769721Y-72577405D01*
X136832552Y-72565534D01*
X136867728Y-72559637D01*
X136871070Y-72559333D01*
X136876616Y-72579070D01*
X136881093Y-72632567D01*
X136883991Y-72711254D01*
X136884833Y-72790740D01*
X136884063Y-72893810D01*
X136880988Y-72962085D01*
X136874457Y-73003086D01*
X136863320Y-73024337D01*
X136847791Y-73032977D01*
X136741914Y-73056794D01*
X136608361Y-73076352D01*
X136460071Y-73090753D01*
X136309979Y-73099103D01*
X136171022Y-73100503D01*
X136056138Y-73094058D01*
X136025195Y-73089974D01*
X135877916Y-73059341D01*
X135760343Y-73016813D01*
X135660306Y-72956708D01*
X135569299Y-72877019D01*
X135521165Y-72827719D01*
X135481690Y-72782200D01*
X135449958Y-72735726D01*
X135425057Y-72683564D01*
X135406070Y-72620980D01*
X135392084Y-72543239D01*
X135382185Y-72445606D01*
X135375458Y-72323349D01*
X135370989Y-72171732D01*
X135367863Y-71986022D01*
X135365876Y-71823792D01*
X135357793Y-71120000D01*
X134725833Y-71120000D01*
X134725833Y-70654333D01*
X135360833Y-70654333D01*
X135360833Y-70049762D01*
X135641291Y-69978060D01*
X135746083Y-69951093D01*
X135837121Y-69927335D01*
X135906015Y-69909001D01*
X135944369Y-69898304D01*
X135948208Y-69897081D01*
X135958004Y-69902897D01*
G37*
X135958004Y-69902897D02*
X135965220Y-69931136D01*
X135970168Y-69986214D01*
X135973161Y-70072548D01*
X135974510Y-70194555D01*
X135974666Y-70271069D01*
X135974666Y-70654333D01*
X136884833Y-70654333D01*
X136884833Y-71120000D01*
X135974666Y-71120000D01*
X135974666Y-71750038D01*
X135974861Y-71932039D01*
X135975631Y-72076716D01*
X135977256Y-72189080D01*
X135980015Y-72274139D01*
X135984187Y-72336903D01*
X135990052Y-72382381D01*
X135997888Y-72415583D01*
X136007975Y-72441518D01*
X136013855Y-72453149D01*
X136060870Y-72525082D01*
X136116624Y-72573077D01*
X136190769Y-72601980D01*
X136292960Y-72616638D01*
X136345573Y-72619671D01*
X136505490Y-72616968D01*
X136664457Y-72598076D01*
X136690107Y-72593212D01*
X136769721Y-72577405D01*
X136832552Y-72565534D01*
X136867728Y-72559637D01*
X136871070Y-72559333D01*
X136876616Y-72579070D01*
X136881093Y-72632567D01*
X136883991Y-72711254D01*
X136884833Y-72790740D01*
X136884063Y-72893810D01*
X136880988Y-72962085D01*
X136874457Y-73003086D01*
X136863320Y-73024337D01*
X136847791Y-73032977D01*
X136741914Y-73056794D01*
X136608361Y-73076352D01*
X136460071Y-73090753D01*
X136309979Y-73099103D01*
X136171022Y-73100503D01*
X136056138Y-73094058D01*
X136025195Y-73089974D01*
X135877916Y-73059341D01*
X135760343Y-73016813D01*
X135660306Y-72956708D01*
X135569299Y-72877019D01*
X135521165Y-72827719D01*
X135481690Y-72782200D01*
X135449958Y-72735726D01*
X135425057Y-72683564D01*
X135406070Y-72620980D01*
X135392084Y-72543239D01*
X135382185Y-72445606D01*
X135375458Y-72323349D01*
X135370989Y-72171732D01*
X135367863Y-71986022D01*
X135365876Y-71823792D01*
X135357793Y-71120000D01*
X134725833Y-71120000D01*
X134725833Y-70654333D01*
X135360833Y-70654333D01*
X135360833Y-70049762D01*
X135641291Y-69978060D01*
X135746083Y-69951093D01*
X135837121Y-69927335D01*
X135906015Y-69909001D01*
X135944369Y-69898304D01*
X135948208Y-69897081D01*
X135958004Y-69902897D01*
G36*
X133557120Y-70629316D02*
G01*
X133754659Y-70681479D01*
X133929557Y-70768813D01*
X134049679Y-70860497D01*
X134160995Y-70978429D01*
X134245292Y-71110432D01*
X134305043Y-71262730D01*
X134342723Y-71441547D01*
X134360342Y-71641930D01*
X134363634Y-71747260D01*
X134364208Y-71841612D01*
X134362151Y-71914408D01*
X134357796Y-71954138D01*
X134344026Y-72009000D01*
X132794280Y-72009000D01*
X132804392Y-72114241D01*
X132838415Y-72258428D01*
X132908691Y-72384922D01*
X133011195Y-72489068D01*
X133141905Y-72566210D01*
X133218876Y-72593872D01*
X133313664Y-72611108D01*
X133438753Y-72618916D01*
X133583281Y-72617740D01*
X133736383Y-72608026D01*
X133887196Y-72590216D01*
X134024855Y-72564756D01*
X134044549Y-72560097D01*
X134125232Y-72540583D01*
X134188791Y-72525675D01*
X134225159Y-72517715D01*
X134229757Y-72517000D01*
X134235087Y-72536417D01*
X134238248Y-72587799D01*
X134239424Y-72660845D01*
X134238799Y-72745251D01*
X134236558Y-72830717D01*
X134232886Y-72906938D01*
X134227965Y-72963614D01*
X134221982Y-72990441D01*
X134221275Y-72991122D01*
X134194407Y-72999058D01*
X134134957Y-73012274D01*
X134052059Y-73028845D01*
X133966700Y-73044725D01*
X133816549Y-73067483D01*
X133654805Y-73084698D01*
X133492313Y-73095814D01*
X133339915Y-73100273D01*
X133208453Y-73097516D01*
X133117166Y-73088431D01*
X132940543Y-73046119D01*
X132772650Y-72980371D01*
X132623170Y-72896117D01*
X132501783Y-72798289D01*
X132461727Y-72754607D01*
X132371638Y-72623075D01*
X132294659Y-72468031D01*
X132239893Y-72308105D01*
X132235990Y-72292569D01*
X132215274Y-72171493D01*
X132203397Y-72025353D01*
X132200356Y-71868305D01*
X132206147Y-71714505D01*
X132219959Y-71585667D01*
X132796303Y-71585667D01*
X133284818Y-71585667D01*
X133443606Y-71585318D01*
X133564813Y-71584072D01*
X133653186Y-71581632D01*
X133713474Y-71577698D01*
X133750423Y-71571972D01*
X133768781Y-71564156D01*
X133773333Y-71554958D01*
X133761651Y-71463603D01*
X133731256Y-71359767D01*
X133689125Y-71264617D01*
X133664669Y-71225285D01*
X133578230Y-71139715D01*
X133470141Y-71083879D01*
X133349236Y-71058138D01*
X133224351Y-71062853D01*
X133104320Y-71098384D01*
X132997977Y-71165092D01*
X132964843Y-71196706D01*
X132908853Y-71273811D01*
X132857399Y-71374992D01*
X132819169Y-71482197D01*
X132810714Y-71516875D01*
X132796303Y-71585667D01*
X132219959Y-71585667D01*
X132220770Y-71578107D01*
X132236145Y-71501000D01*
X132309721Y-71284681D01*
X132411320Y-71093071D01*
X132538244Y-70929875D01*
X132687793Y-70798800D01*
X132795820Y-70732599D01*
X132931140Y-70672014D01*
X133066559Y-70634047D01*
X133216970Y-70615374D01*
X133336011Y-70612000D01*
X133557120Y-70629316D01*
G37*
X133557120Y-70629316D02*
X133754659Y-70681479D01*
X133929557Y-70768813D01*
X134049679Y-70860497D01*
X134160995Y-70978429D01*
X134245292Y-71110432D01*
X134305043Y-71262730D01*
X134342723Y-71441547D01*
X134360342Y-71641930D01*
X134363634Y-71747260D01*
X134364208Y-71841612D01*
X134362151Y-71914408D01*
X134357796Y-71954138D01*
X134344026Y-72009000D01*
X132794280Y-72009000D01*
X132804392Y-72114241D01*
X132838415Y-72258428D01*
X132908691Y-72384922D01*
X133011195Y-72489068D01*
X133141905Y-72566210D01*
X133218876Y-72593872D01*
X133313664Y-72611108D01*
X133438753Y-72618916D01*
X133583281Y-72617740D01*
X133736383Y-72608026D01*
X133887196Y-72590216D01*
X134024855Y-72564756D01*
X134044549Y-72560097D01*
X134125232Y-72540583D01*
X134188791Y-72525675D01*
X134225159Y-72517715D01*
X134229757Y-72517000D01*
X134235087Y-72536417D01*
X134238248Y-72587799D01*
X134239424Y-72660845D01*
X134238799Y-72745251D01*
X134236558Y-72830717D01*
X134232886Y-72906938D01*
X134227965Y-72963614D01*
X134221982Y-72990441D01*
X134221275Y-72991122D01*
X134194407Y-72999058D01*
X134134957Y-73012274D01*
X134052059Y-73028845D01*
X133966700Y-73044725D01*
X133816549Y-73067483D01*
X133654805Y-73084698D01*
X133492313Y-73095814D01*
X133339915Y-73100273D01*
X133208453Y-73097516D01*
X133117166Y-73088431D01*
X132940543Y-73046119D01*
X132772650Y-72980371D01*
X132623170Y-72896117D01*
X132501783Y-72798289D01*
X132461727Y-72754607D01*
X132371638Y-72623075D01*
X132294659Y-72468031D01*
X132239893Y-72308105D01*
X132235990Y-72292569D01*
X132215274Y-72171493D01*
X132203397Y-72025353D01*
X132200356Y-71868305D01*
X132206147Y-71714505D01*
X132219959Y-71585667D01*
X132796303Y-71585667D01*
X133284818Y-71585667D01*
X133443606Y-71585318D01*
X133564813Y-71584072D01*
X133653186Y-71581632D01*
X133713474Y-71577698D01*
X133750423Y-71571972D01*
X133768781Y-71564156D01*
X133773333Y-71554958D01*
X133761651Y-71463603D01*
X133731256Y-71359767D01*
X133689125Y-71264617D01*
X133664669Y-71225285D01*
X133578230Y-71139715D01*
X133470141Y-71083879D01*
X133349236Y-71058138D01*
X133224351Y-71062853D01*
X133104320Y-71098384D01*
X132997977Y-71165092D01*
X132964843Y-71196706D01*
X132908853Y-71273811D01*
X132857399Y-71374992D01*
X132819169Y-71482197D01*
X132810714Y-71516875D01*
X132796303Y-71585667D01*
X132219959Y-71585667D01*
X132220770Y-71578107D01*
X132236145Y-71501000D01*
X132309721Y-71284681D01*
X132411320Y-71093071D01*
X132538244Y-70929875D01*
X132687793Y-70798800D01*
X132795820Y-70732599D01*
X132931140Y-70672014D01*
X133066559Y-70634047D01*
X133216970Y-70615374D01*
X133336011Y-70612000D01*
X133557120Y-70629316D01*
G36*
X130914046Y-70619610D02*
G01*
X131059190Y-70626825D01*
X131190441Y-70637558D01*
X131296609Y-70651523D01*
X131312708Y-70654458D01*
X131445000Y-70680023D01*
X131445000Y-70921178D01*
X131444151Y-71016532D01*
X131441847Y-71094085D01*
X131438447Y-71145440D01*
X131434652Y-71162333D01*
X131410668Y-71157152D01*
X131356747Y-71143458D01*
X131283751Y-71124024D01*
X131270611Y-71120453D01*
X131176271Y-71098996D01*
X131060506Y-71078753D01*
X130944162Y-71063236D01*
X130911518Y-71059960D01*
X130726319Y-71051671D01*
X130575753Y-71063327D01*
X130460653Y-71094729D01*
X130381853Y-71145681D01*
X130348454Y-71193492D01*
X130325445Y-71269286D01*
X130336526Y-71333415D01*
X130367500Y-71382319D01*
X130405216Y-71421825D01*
X130456102Y-71457843D01*
X130526454Y-71493353D01*
X130622568Y-71531339D01*
X130750740Y-71574782D01*
X130820583Y-71596916D01*
X131015467Y-71661207D01*
X131173333Y-71721747D01*
X131298977Y-71781405D01*
X131397193Y-71843052D01*
X131472776Y-71909555D01*
X131530521Y-71983786D01*
X131562412Y-72040890D01*
X131603718Y-72164277D01*
X131621368Y-72306962D01*
X131615067Y-72452940D01*
X131584524Y-72586208D01*
X131572949Y-72615934D01*
X131494654Y-72746357D01*
X131381022Y-72861586D01*
X131237564Y-72957543D01*
X131069792Y-73030150D01*
X130977269Y-73056723D01*
X130870907Y-73075458D01*
X130734689Y-73089164D01*
X130580841Y-73097405D01*
X130421591Y-73099744D01*
X130269164Y-73095743D01*
X130147833Y-73086353D01*
X130042355Y-73073190D01*
X129933563Y-73057218D01*
X129842427Y-73041553D01*
X129830333Y-73039171D01*
X129698750Y-73012570D01*
X129692807Y-72741104D01*
X129690754Y-72629866D01*
X129690871Y-72554583D01*
X129693943Y-72508900D01*
X129700756Y-72486459D01*
X129712094Y-72480906D01*
X129724557Y-72484199D01*
X129903305Y-72544341D01*
X130090680Y-72591509D01*
X130277820Y-72624554D01*
X130455865Y-72642326D01*
X130615956Y-72643674D01*
X130749233Y-72627450D01*
X130776581Y-72620720D01*
X130864229Y-72581582D01*
X130932485Y-72522665D01*
X130972520Y-72453080D01*
X130979333Y-72411403D01*
X130975220Y-72357650D01*
X130959935Y-72311881D01*
X130929057Y-72271222D01*
X130878165Y-72232801D01*
X130802838Y-72193748D01*
X130698655Y-72151189D01*
X130561195Y-72102253D01*
X130442245Y-72062480D01*
X130262335Y-72000267D01*
X130118610Y-71943148D01*
X130005703Y-71888104D01*
X129918252Y-71832115D01*
X129850890Y-71772163D01*
X129798255Y-71705227D01*
X129792974Y-71697058D01*
X129728553Y-71573195D01*
X129696262Y-71448756D01*
X129692114Y-71307427D01*
X129693262Y-71289333D01*
X129724424Y-71128358D01*
X129792604Y-70986142D01*
X129896175Y-70864161D01*
X130033511Y-70763891D01*
X130202986Y-70686805D01*
X130402974Y-70634381D01*
X130418276Y-70631638D01*
X130507122Y-70621927D01*
X130626824Y-70616876D01*
X130766195Y-70616198D01*
X130914046Y-70619610D01*
G37*
X130914046Y-70619610D02*
X131059190Y-70626825D01*
X131190441Y-70637558D01*
X131296609Y-70651523D01*
X131312708Y-70654458D01*
X131445000Y-70680023D01*
X131445000Y-70921178D01*
X131444151Y-71016532D01*
X131441847Y-71094085D01*
X131438447Y-71145440D01*
X131434652Y-71162333D01*
X131410668Y-71157152D01*
X131356747Y-71143458D01*
X131283751Y-71124024D01*
X131270611Y-71120453D01*
X131176271Y-71098996D01*
X131060506Y-71078753D01*
X130944162Y-71063236D01*
X130911518Y-71059960D01*
X130726319Y-71051671D01*
X130575753Y-71063327D01*
X130460653Y-71094729D01*
X130381853Y-71145681D01*
X130348454Y-71193492D01*
X130325445Y-71269286D01*
X130336526Y-71333415D01*
X130367500Y-71382319D01*
X130405216Y-71421825D01*
X130456102Y-71457843D01*
X130526454Y-71493353D01*
X130622568Y-71531339D01*
X130750740Y-71574782D01*
X130820583Y-71596916D01*
X131015467Y-71661207D01*
X131173333Y-71721747D01*
X131298977Y-71781405D01*
X131397193Y-71843052D01*
X131472776Y-71909555D01*
X131530521Y-71983786D01*
X131562412Y-72040890D01*
X131603718Y-72164277D01*
X131621368Y-72306962D01*
X131615067Y-72452940D01*
X131584524Y-72586208D01*
X131572949Y-72615934D01*
X131494654Y-72746357D01*
X131381022Y-72861586D01*
X131237564Y-72957543D01*
X131069792Y-73030150D01*
X130977269Y-73056723D01*
X130870907Y-73075458D01*
X130734689Y-73089164D01*
X130580841Y-73097405D01*
X130421591Y-73099744D01*
X130269164Y-73095743D01*
X130147833Y-73086353D01*
X130042355Y-73073190D01*
X129933563Y-73057218D01*
X129842427Y-73041553D01*
X129830333Y-73039171D01*
X129698750Y-73012570D01*
X129692807Y-72741104D01*
X129690754Y-72629866D01*
X129690871Y-72554583D01*
X129693943Y-72508900D01*
X129700756Y-72486459D01*
X129712094Y-72480906D01*
X129724557Y-72484199D01*
X129903305Y-72544341D01*
X130090680Y-72591509D01*
X130277820Y-72624554D01*
X130455865Y-72642326D01*
X130615956Y-72643674D01*
X130749233Y-72627450D01*
X130776581Y-72620720D01*
X130864229Y-72581582D01*
X130932485Y-72522665D01*
X130972520Y-72453080D01*
X130979333Y-72411403D01*
X130975220Y-72357650D01*
X130959935Y-72311881D01*
X130929057Y-72271222D01*
X130878165Y-72232801D01*
X130802838Y-72193748D01*
X130698655Y-72151189D01*
X130561195Y-72102253D01*
X130442245Y-72062480D01*
X130262335Y-72000267D01*
X130118610Y-71943148D01*
X130005703Y-71888104D01*
X129918252Y-71832115D01*
X129850890Y-71772163D01*
X129798255Y-71705227D01*
X129792974Y-71697058D01*
X129728553Y-71573195D01*
X129696262Y-71448756D01*
X129692114Y-71307427D01*
X129693262Y-71289333D01*
X129724424Y-71128358D01*
X129792604Y-70986142D01*
X129896175Y-70864161D01*
X130033511Y-70763891D01*
X130202986Y-70686805D01*
X130402974Y-70634381D01*
X130418276Y-70631638D01*
X130507122Y-70621927D01*
X130626824Y-70616876D01*
X130766195Y-70616198D01*
X130914046Y-70619610D01*
G36*
X128285438Y-70627880D02*
G01*
X128476058Y-70674864D01*
X128642755Y-70754261D01*
X128788347Y-70867129D01*
X128812977Y-70891540D01*
X128915041Y-71011536D01*
X128991748Y-71138942D01*
X129045519Y-71281013D01*
X129078775Y-71445004D01*
X129093935Y-71638169D01*
X129095500Y-71738280D01*
X129095500Y-72009000D01*
X127523412Y-72009000D01*
X127536730Y-72106168D01*
X127577326Y-72261094D01*
X127652006Y-72394309D01*
X127757691Y-72501513D01*
X127867595Y-72568051D01*
X127945409Y-72591205D01*
X128055284Y-72606443D01*
X128187704Y-72613818D01*
X128333155Y-72613383D01*
X128482121Y-72605191D01*
X128625086Y-72589296D01*
X128752536Y-72565751D01*
X128763796Y-72563043D01*
X128847108Y-72542760D01*
X128913571Y-72527037D01*
X128953435Y-72518159D01*
X128960281Y-72517000D01*
X128963604Y-72536747D01*
X128965356Y-72590361D01*
X128965408Y-72669400D01*
X128963901Y-72755096D01*
X128957916Y-72993191D01*
X128788583Y-73029055D01*
X128667615Y-73051207D01*
X128526485Y-73071622D01*
X128378866Y-73088803D01*
X128238432Y-73101250D01*
X128118859Y-73107465D01*
X128070532Y-73107756D01*
X127993278Y-73102747D01*
X127896305Y-73091518D01*
X127805939Y-73077403D01*
X127598156Y-73020046D01*
X127414336Y-72928438D01*
X127256518Y-72804316D01*
X127126745Y-72649417D01*
X127027058Y-72465479D01*
X126998067Y-72390000D01*
X126966457Y-72264404D01*
X126946021Y-72110883D01*
X126937073Y-71942429D01*
X126939927Y-71772034D01*
X126954895Y-71612690D01*
X126969392Y-71536520D01*
X127550333Y-71536520D01*
X127550333Y-71585667D01*
X128508729Y-71585667D01*
X128496367Y-71481281D01*
X128461354Y-71337339D01*
X128395371Y-71220124D01*
X128301434Y-71132405D01*
X128182562Y-71076957D01*
X128041773Y-71056551D01*
X128033946Y-71056500D01*
X127899564Y-71076260D01*
X127777761Y-71132504D01*
X127678373Y-71220681D01*
X127677898Y-71221257D01*
X127625339Y-71301252D01*
X127582104Y-71396344D01*
X127555411Y-71488700D01*
X127550333Y-71536520D01*
X126969392Y-71536520D01*
X126976552Y-71498902D01*
X127045204Y-71284663D01*
X127136547Y-71102064D01*
X127253545Y-70945290D01*
X127265258Y-70932440D01*
X127414571Y-70800031D01*
X127585004Y-70703148D01*
X127777890Y-70641260D01*
X127994559Y-70613836D01*
X128068072Y-70612251D01*
X128285438Y-70627880D01*
G37*
X128285438Y-70627880D02*
X128476058Y-70674864D01*
X128642755Y-70754261D01*
X128788347Y-70867129D01*
X128812977Y-70891540D01*
X128915041Y-71011536D01*
X128991748Y-71138942D01*
X129045519Y-71281013D01*
X129078775Y-71445004D01*
X129093935Y-71638169D01*
X129095500Y-71738280D01*
X129095500Y-72009000D01*
X127523412Y-72009000D01*
X127536730Y-72106168D01*
X127577326Y-72261094D01*
X127652006Y-72394309D01*
X127757691Y-72501513D01*
X127867595Y-72568051D01*
X127945409Y-72591205D01*
X128055284Y-72606443D01*
X128187704Y-72613818D01*
X128333155Y-72613383D01*
X128482121Y-72605191D01*
X128625086Y-72589296D01*
X128752536Y-72565751D01*
X128763796Y-72563043D01*
X128847108Y-72542760D01*
X128913571Y-72527037D01*
X128953435Y-72518159D01*
X128960281Y-72517000D01*
X128963604Y-72536747D01*
X128965356Y-72590361D01*
X128965408Y-72669400D01*
X128963901Y-72755096D01*
X128957916Y-72993191D01*
X128788583Y-73029055D01*
X128667615Y-73051207D01*
X128526485Y-73071622D01*
X128378866Y-73088803D01*
X128238432Y-73101250D01*
X128118859Y-73107465D01*
X128070532Y-73107756D01*
X127993278Y-73102747D01*
X127896305Y-73091518D01*
X127805939Y-73077403D01*
X127598156Y-73020046D01*
X127414336Y-72928438D01*
X127256518Y-72804316D01*
X127126745Y-72649417D01*
X127027058Y-72465479D01*
X126998067Y-72390000D01*
X126966457Y-72264404D01*
X126946021Y-72110883D01*
X126937073Y-71942429D01*
X126939927Y-71772034D01*
X126954895Y-71612690D01*
X126969392Y-71536520D01*
X127550333Y-71536520D01*
X127550333Y-71585667D01*
X128508729Y-71585667D01*
X128496367Y-71481281D01*
X128461354Y-71337339D01*
X128395371Y-71220124D01*
X128301434Y-71132405D01*
X128182562Y-71076957D01*
X128041773Y-71056551D01*
X128033946Y-71056500D01*
X127899564Y-71076260D01*
X127777761Y-71132504D01*
X127678373Y-71220681D01*
X127677898Y-71221257D01*
X127625339Y-71301252D01*
X127582104Y-71396344D01*
X127555411Y-71488700D01*
X127550333Y-71536520D01*
X126969392Y-71536520D01*
X126976552Y-71498902D01*
X127045204Y-71284663D01*
X127136547Y-71102064D01*
X127253545Y-70945290D01*
X127265258Y-70932440D01*
X127414571Y-70800031D01*
X127585004Y-70703148D01*
X127777890Y-70641260D01*
X127994559Y-70613836D01*
X128068072Y-70612251D01*
X128285438Y-70627880D01*
G36*
X115077456Y-70621459D02*
G01*
X115196722Y-70638621D01*
X115221594Y-70644394D01*
X115421387Y-70715090D01*
X115592932Y-70817316D01*
X115736229Y-70951073D01*
X115851277Y-71116358D01*
X115938075Y-71313170D01*
X115974427Y-71437500D01*
X115990632Y-71535568D01*
X116000202Y-71662516D01*
X116003275Y-71805434D01*
X115999991Y-71951414D01*
X115990489Y-72087549D01*
X115974908Y-72200928D01*
X115965752Y-72241833D01*
X115888562Y-72460595D01*
X115782211Y-72648948D01*
X115647918Y-72805909D01*
X115486901Y-72930495D01*
X115300380Y-73021723D01*
X115089572Y-73078610D01*
X114903377Y-73098773D01*
X114801731Y-73100715D01*
X114701498Y-73098341D01*
X114620698Y-73092183D01*
X114604844Y-73089987D01*
X114391528Y-73038402D01*
X114207290Y-72956156D01*
X114051398Y-72842647D01*
X113923120Y-72697271D01*
X113821724Y-72519426D01*
X113777521Y-72408621D01*
X113745254Y-72284600D01*
X113722408Y-72132323D01*
X113709544Y-71964928D01*
X113707254Y-71797584D01*
X114324996Y-71797584D01*
X114327869Y-72001241D01*
X114352947Y-72171106D01*
X114401226Y-72310025D01*
X114473698Y-72420843D01*
X114571361Y-72506404D01*
X114573307Y-72507699D01*
X114675476Y-72555311D01*
X114795164Y-72580204D01*
X114919112Y-72582129D01*
X115034058Y-72560839D01*
X115124130Y-72517975D01*
X115226350Y-72424078D01*
X115306059Y-72301612D01*
X115339613Y-72226288D01*
X115360714Y-72166571D01*
X115374667Y-72107645D01*
X115382836Y-72038453D01*
X115386586Y-71947933D01*
X115387311Y-71839667D01*
X115378886Y-71651211D01*
X115352925Y-71497733D01*
X115307534Y-71374870D01*
X115240816Y-71278261D01*
X115150875Y-71203543D01*
X115097784Y-71173617D01*
X114958660Y-71125674D01*
X114820451Y-71117866D01*
X114688514Y-71148229D01*
X114568208Y-71214801D01*
X114464889Y-71315616D01*
X114391614Y-71432452D01*
X114365602Y-71490458D01*
X114347993Y-71545796D01*
X114336680Y-71610009D01*
X114329557Y-71694643D01*
X114324996Y-71797584D01*
X113707254Y-71797584D01*
X113707226Y-71795555D01*
X113716015Y-71637344D01*
X113736474Y-71503434D01*
X113738434Y-71494991D01*
X113809541Y-71278273D01*
X113912107Y-71088082D01*
X114044304Y-70926347D01*
X114204306Y-70794995D01*
X114390286Y-70695955D01*
X114544523Y-70644351D01*
X114654858Y-70624895D01*
X114790884Y-70614594D01*
X114936963Y-70613449D01*
X115077456Y-70621459D01*
G37*
X115077456Y-70621459D02*
X115196722Y-70638621D01*
X115221594Y-70644394D01*
X115421387Y-70715090D01*
X115592932Y-70817316D01*
X115736229Y-70951073D01*
X115851277Y-71116358D01*
X115938075Y-71313170D01*
X115974427Y-71437500D01*
X115990632Y-71535568D01*
X116000202Y-71662516D01*
X116003275Y-71805434D01*
X115999991Y-71951414D01*
X115990489Y-72087549D01*
X115974908Y-72200928D01*
X115965752Y-72241833D01*
X115888562Y-72460595D01*
X115782211Y-72648948D01*
X115647918Y-72805909D01*
X115486901Y-72930495D01*
X115300380Y-73021723D01*
X115089572Y-73078610D01*
X114903377Y-73098773D01*
X114801731Y-73100715D01*
X114701498Y-73098341D01*
X114620698Y-73092183D01*
X114604844Y-73089987D01*
X114391528Y-73038402D01*
X114207290Y-72956156D01*
X114051398Y-72842647D01*
X113923120Y-72697271D01*
X113821724Y-72519426D01*
X113777521Y-72408621D01*
X113745254Y-72284600D01*
X113722408Y-72132323D01*
X113709544Y-71964928D01*
X113707254Y-71797584D01*
X114324996Y-71797584D01*
X114327869Y-72001241D01*
X114352947Y-72171106D01*
X114401226Y-72310025D01*
X114473698Y-72420843D01*
X114571361Y-72506404D01*
X114573307Y-72507699D01*
X114675476Y-72555311D01*
X114795164Y-72580204D01*
X114919112Y-72582129D01*
X115034058Y-72560839D01*
X115124130Y-72517975D01*
X115226350Y-72424078D01*
X115306059Y-72301612D01*
X115339613Y-72226288D01*
X115360714Y-72166571D01*
X115374667Y-72107645D01*
X115382836Y-72038453D01*
X115386586Y-71947933D01*
X115387311Y-71839667D01*
X115378886Y-71651211D01*
X115352925Y-71497733D01*
X115307534Y-71374870D01*
X115240816Y-71278261D01*
X115150875Y-71203543D01*
X115097784Y-71173617D01*
X114958660Y-71125674D01*
X114820451Y-71117866D01*
X114688514Y-71148229D01*
X114568208Y-71214801D01*
X114464889Y-71315616D01*
X114391614Y-71432452D01*
X114365602Y-71490458D01*
X114347993Y-71545796D01*
X114336680Y-71610009D01*
X114329557Y-71694643D01*
X114324996Y-71797584D01*
X113707254Y-71797584D01*
X113707226Y-71795555D01*
X113716015Y-71637344D01*
X113736474Y-71503434D01*
X113738434Y-71494991D01*
X113809541Y-71278273D01*
X113912107Y-71088082D01*
X114044304Y-70926347D01*
X114204306Y-70794995D01*
X114390286Y-70695955D01*
X114544523Y-70644351D01*
X114654858Y-70624895D01*
X114790884Y-70614594D01*
X114936963Y-70613449D01*
X115077456Y-70621459D01*
G36*
X129962631Y-92678410D02*
G01*
X130228989Y-92716875D01*
X130467657Y-92785353D01*
X130677669Y-92883141D01*
X130858059Y-93009537D01*
X131007863Y-93163835D01*
X131126115Y-93345332D01*
X131211850Y-93553325D01*
X131225275Y-93599000D01*
X131248414Y-93720309D01*
X131261168Y-93869084D01*
X131263673Y-94031786D01*
X131256065Y-94194875D01*
X131238481Y-94344812D01*
X131216750Y-94448307D01*
X131158632Y-94617808D01*
X131074775Y-94800922D01*
X130972021Y-94984229D01*
X130857212Y-95154312D01*
X130855960Y-95155989D01*
X130781873Y-95248019D01*
X130679674Y-95364196D01*
X130553041Y-95500711D01*
X130405649Y-95653755D01*
X130241177Y-95819517D01*
X130063301Y-95994189D01*
X129875698Y-96173962D01*
X129848542Y-96199627D01*
X129553834Y-96477667D01*
X131445934Y-96477667D01*
X131434416Y-97271417D01*
X129908790Y-97276846D01*
X129658414Y-97277544D01*
X129420447Y-97277831D01*
X129198270Y-97277727D01*
X128995262Y-97277251D01*
X128814803Y-97276424D01*
X128660272Y-97275263D01*
X128535048Y-97273788D01*
X128442512Y-97272019D01*
X128386043Y-97269976D01*
X128368915Y-97268027D01*
X128363858Y-97242842D01*
X128359590Y-97183226D01*
X128356463Y-97097080D01*
X128354826Y-96992304D01*
X128354666Y-96946266D01*
X128354666Y-96638754D01*
X129091528Y-95896752D01*
X129317146Y-95668267D01*
X129513797Y-95465852D01*
X129683482Y-95286717D01*
X129828204Y-95128071D01*
X129949965Y-94987124D01*
X130050768Y-94861087D01*
X130132616Y-94747167D01*
X130197511Y-94642577D01*
X130247456Y-94544524D01*
X130284453Y-94450218D01*
X130310505Y-94356870D01*
X130327615Y-94261690D01*
X130337784Y-94161886D01*
X130337912Y-94160089D01*
X130335966Y-93977311D01*
X130301974Y-93821679D01*
X130235357Y-93692023D01*
X130135536Y-93587170D01*
X130018491Y-93513857D01*
X129953950Y-93483208D01*
X129902310Y-93463929D01*
X129850754Y-93453871D01*
X129786464Y-93450881D01*
X129696622Y-93452808D01*
X129662154Y-93454046D01*
X129558866Y-93459000D01*
X129482773Y-93467229D01*
X129418734Y-93482323D01*
X129351613Y-93507873D01*
X129266271Y-93547469D01*
X129264325Y-93548405D01*
X129161690Y-93602713D01*
X129052708Y-93668231D01*
X128958032Y-93732406D01*
X128942809Y-93743839D01*
X128877073Y-93793484D01*
X128824867Y-93831319D01*
X128794584Y-93851323D01*
X128790646Y-93853000D01*
X128774958Y-93837175D01*
X128737784Y-93793322D01*
X128683573Y-93726877D01*
X128616769Y-93643274D01*
X128558092Y-93568767D01*
X128335593Y-93284534D01*
X128415943Y-93211943D01*
X128539505Y-93113102D01*
X128689468Y-93013131D01*
X128853811Y-92918604D01*
X129020514Y-92836092D01*
X129177557Y-92772170D01*
X129275349Y-92741994D01*
X129454944Y-92705456D01*
X129647755Y-92682123D01*
X129835119Y-92673724D01*
X129962631Y-92678410D01*
G37*
X129962631Y-92678410D02*
X130228989Y-92716875D01*
X130467657Y-92785353D01*
X130677669Y-92883141D01*
X130858059Y-93009537D01*
X131007863Y-93163835D01*
X131126115Y-93345332D01*
X131211850Y-93553325D01*
X131225275Y-93599000D01*
X131248414Y-93720309D01*
X131261168Y-93869084D01*
X131263673Y-94031786D01*
X131256065Y-94194875D01*
X131238481Y-94344812D01*
X131216750Y-94448307D01*
X131158632Y-94617808D01*
X131074775Y-94800922D01*
X130972021Y-94984229D01*
X130857212Y-95154312D01*
X130855960Y-95155989D01*
X130781873Y-95248019D01*
X130679674Y-95364196D01*
X130553041Y-95500711D01*
X130405649Y-95653755D01*
X130241177Y-95819517D01*
X130063301Y-95994189D01*
X129875698Y-96173962D01*
X129848542Y-96199627D01*
X129553834Y-96477667D01*
X131445934Y-96477667D01*
X131434416Y-97271417D01*
X129908790Y-97276846D01*
X129658414Y-97277544D01*
X129420447Y-97277831D01*
X129198270Y-97277727D01*
X128995262Y-97277251D01*
X128814803Y-97276424D01*
X128660272Y-97275263D01*
X128535048Y-97273788D01*
X128442512Y-97272019D01*
X128386043Y-97269976D01*
X128368915Y-97268027D01*
X128363858Y-97242842D01*
X128359590Y-97183226D01*
X128356463Y-97097080D01*
X128354826Y-96992304D01*
X128354666Y-96946266D01*
X128354666Y-96638754D01*
X129091528Y-95896752D01*
X129317146Y-95668267D01*
X129513797Y-95465852D01*
X129683482Y-95286717D01*
X129828204Y-95128071D01*
X129949965Y-94987124D01*
X130050768Y-94861087D01*
X130132616Y-94747167D01*
X130197511Y-94642577D01*
X130247456Y-94544524D01*
X130284453Y-94450218D01*
X130310505Y-94356870D01*
X130327615Y-94261690D01*
X130337784Y-94161886D01*
X130337912Y-94160089D01*
X130335966Y-93977311D01*
X130301974Y-93821679D01*
X130235357Y-93692023D01*
X130135536Y-93587170D01*
X130018491Y-93513857D01*
X129953950Y-93483208D01*
X129902310Y-93463929D01*
X129850754Y-93453871D01*
X129786464Y-93450881D01*
X129696622Y-93452808D01*
X129662154Y-93454046D01*
X129558866Y-93459000D01*
X129482773Y-93467229D01*
X129418734Y-93482323D01*
X129351613Y-93507873D01*
X129266271Y-93547469D01*
X129264325Y-93548405D01*
X129161690Y-93602713D01*
X129052708Y-93668231D01*
X128958032Y-93732406D01*
X128942809Y-93743839D01*
X128877073Y-93793484D01*
X128824867Y-93831319D01*
X128794584Y-93851323D01*
X128790646Y-93853000D01*
X128774958Y-93837175D01*
X128737784Y-93793322D01*
X128683573Y-93726877D01*
X128616769Y-93643274D01*
X128558092Y-93568767D01*
X128335593Y-93284534D01*
X128415943Y-93211943D01*
X128539505Y-93113102D01*
X128689468Y-93013131D01*
X128853811Y-92918604D01*
X129020514Y-92836092D01*
X129177557Y-92772170D01*
X129275349Y-92741994D01*
X129454944Y-92705456D01*
X129647755Y-92682123D01*
X129835119Y-92673724D01*
X129962631Y-92678410D01*
G36*
X137075333Y-101113167D02*
G01*
X108288666Y-101113167D01*
X108288666Y-100435833D01*
X137075333Y-100435833D01*
X137075333Y-101113167D01*
G37*
X137075333Y-101113167D02*
X108288666Y-101113167D01*
X108288666Y-100435833D01*
X137075333Y-100435833D01*
X137075333Y-101113167D01*
G36*
X131042833Y-107124500D02*
G01*
X131741333Y-107124500D01*
X131741333Y-107865333D01*
X131042833Y-107865333D01*
X131042833Y-108796667D01*
X130217333Y-108796667D01*
X130217333Y-107865333D01*
X128121833Y-107865333D01*
X128121833Y-107133952D01*
X128143841Y-107098042D01*
X128982143Y-107098042D01*
X128985500Y-107105879D01*
X129008606Y-107112101D01*
X129055089Y-107116864D01*
X129128581Y-107120326D01*
X129232711Y-107122645D01*
X129371111Y-107123979D01*
X129547409Y-107124484D01*
X129591667Y-107124500D01*
X130217333Y-107124500D01*
X130217333Y-106135540D01*
X130217191Y-105903001D01*
X130216698Y-105709601D01*
X130215757Y-105552145D01*
X130214270Y-105427439D01*
X130212138Y-105332290D01*
X130209262Y-105263501D01*
X130205545Y-105217881D01*
X130200889Y-105192234D01*
X130195194Y-105183366D01*
X130188363Y-105188084D01*
X130188188Y-105188332D01*
X130173276Y-105211368D01*
X130138387Y-105266108D01*
X130086118Y-105348440D01*
X130019064Y-105454255D01*
X129939821Y-105579442D01*
X129850986Y-105719891D01*
X129755153Y-105871491D01*
X129654919Y-106030132D01*
X129552879Y-106191704D01*
X129451630Y-106352096D01*
X129353766Y-106507198D01*
X129261885Y-106652899D01*
X129178582Y-106785090D01*
X129106452Y-106899660D01*
X129048092Y-106992498D01*
X129006097Y-107059494D01*
X128983063Y-107096538D01*
X128982143Y-107098042D01*
X128143841Y-107098042D01*
X128997140Y-105705768D01*
X129872447Y-104277583D01*
X130457640Y-104271957D01*
X131042833Y-104266330D01*
X131042833Y-107124500D01*
G37*
X131042833Y-107124500D02*
X131741333Y-107124500D01*
X131741333Y-107865333D01*
X131042833Y-107865333D01*
X131042833Y-108796667D01*
X130217333Y-108796667D01*
X130217333Y-107865333D01*
X128121833Y-107865333D01*
X128121833Y-107133952D01*
X128143841Y-107098042D01*
X128982143Y-107098042D01*
X128985500Y-107105879D01*
X129008606Y-107112101D01*
X129055089Y-107116864D01*
X129128581Y-107120326D01*
X129232711Y-107122645D01*
X129371111Y-107123979D01*
X129547409Y-107124484D01*
X129591667Y-107124500D01*
X130217333Y-107124500D01*
X130217333Y-106135540D01*
X130217191Y-105903001D01*
X130216698Y-105709601D01*
X130215757Y-105552145D01*
X130214270Y-105427439D01*
X130212138Y-105332290D01*
X130209262Y-105263501D01*
X130205545Y-105217881D01*
X130200889Y-105192234D01*
X130195194Y-105183366D01*
X130188363Y-105188084D01*
X130188188Y-105188332D01*
X130173276Y-105211368D01*
X130138387Y-105266108D01*
X130086118Y-105348440D01*
X130019064Y-105454255D01*
X129939821Y-105579442D01*
X129850986Y-105719891D01*
X129755153Y-105871491D01*
X129654919Y-106030132D01*
X129552879Y-106191704D01*
X129451630Y-106352096D01*
X129353766Y-106507198D01*
X129261885Y-106652899D01*
X129178582Y-106785090D01*
X129106452Y-106899660D01*
X129048092Y-106992498D01*
X129006097Y-107059494D01*
X128983063Y-107096538D01*
X128982143Y-107098042D01*
X128143841Y-107098042D01*
X128997140Y-105705768D01*
X129872447Y-104277583D01*
X130457640Y-104271957D01*
X131042833Y-104266330D01*
X131042833Y-107124500D01*
G36*
X137075333Y-112564333D02*
G01*
X108288666Y-112564333D01*
X108288666Y-111887000D01*
X137075333Y-111887000D01*
X137075333Y-112564333D01*
G37*
X137075333Y-112564333D02*
X108288666Y-112564333D01*
X108288666Y-111887000D01*
X137075333Y-111887000D01*
X137075333Y-112564333D01*
G36*
X129939835Y-115636033D02*
G01*
X130103211Y-115641795D01*
X130260294Y-115652755D01*
X130399948Y-115668480D01*
X130511038Y-115688535D01*
X130530641Y-115693513D01*
X130762434Y-115773208D01*
X130959122Y-115876335D01*
X131121000Y-116003109D01*
X131248361Y-116153743D01*
X131312514Y-116264024D01*
X131346077Y-116333351D01*
X131368561Y-116387870D01*
X131382184Y-116439184D01*
X131389166Y-116498898D01*
X131391726Y-116578617D01*
X131392083Y-116680119D01*
X131391001Y-116795662D01*
X131386547Y-116881697D01*
X131376912Y-116951024D01*
X131360284Y-117016440D01*
X131334855Y-117090743D01*
X131333463Y-117094532D01*
X131240965Y-117285544D01*
X131108133Y-117466663D01*
X130936086Y-117636601D01*
X130727028Y-117793356D01*
X130705444Y-117809150D01*
X130698954Y-117823863D01*
X130712229Y-117843071D01*
X130749940Y-117872354D01*
X130816757Y-117917288D01*
X130847989Y-117937815D01*
X131045006Y-118082614D01*
X131202678Y-118234117D01*
X131323929Y-118396678D01*
X131411682Y-118574656D01*
X131468861Y-118772406D01*
X131488467Y-118892216D01*
X131496107Y-119118411D01*
X131462797Y-119339617D01*
X131389575Y-119550730D01*
X131331831Y-119662118D01*
X131235229Y-119791654D01*
X131103621Y-119915390D01*
X130944322Y-120028437D01*
X130764648Y-120125908D01*
X130571916Y-120202916D01*
X130481916Y-120229848D01*
X130365730Y-120252927D01*
X130218447Y-120270164D01*
X130050928Y-120281370D01*
X129874030Y-120286354D01*
X129698613Y-120284926D01*
X129535535Y-120276896D01*
X129395655Y-120262073D01*
X129328333Y-120250050D01*
X129093614Y-120185367D01*
X128892355Y-120100276D01*
X128719637Y-119992240D01*
X128571172Y-119859387D01*
X128469089Y-119735726D01*
X128397299Y-119607765D01*
X128345953Y-119457768D01*
X128343982Y-119450282D01*
X128322863Y-119328546D01*
X128313904Y-119184178D01*
X128317085Y-119035090D01*
X128318399Y-119023415D01*
X129182245Y-119023415D01*
X129182600Y-119155858D01*
X129208497Y-119273342D01*
X129220934Y-119302683D01*
X129290293Y-119406648D01*
X129389153Y-119489214D01*
X129521662Y-119553367D01*
X129607678Y-119581127D01*
X129712606Y-119599972D01*
X129841900Y-119607580D01*
X129980975Y-119604546D01*
X130115245Y-119591462D01*
X130230124Y-119568923D01*
X130276792Y-119553884D01*
X130418829Y-119483283D01*
X130522789Y-119395921D01*
X130590343Y-119289598D01*
X130623161Y-119162117D01*
X130627066Y-119093256D01*
X130614970Y-118970604D01*
X130576137Y-118856967D01*
X130507866Y-118749252D01*
X130407454Y-118644367D01*
X130272200Y-118539217D01*
X130099401Y-118430710D01*
X129999796Y-118375158D01*
X129814010Y-118274867D01*
X129694579Y-118345892D01*
X129578453Y-118425237D01*
X129463963Y-118521607D01*
X129361615Y-118624892D01*
X129281917Y-118724984D01*
X129254652Y-118769180D01*
X129206555Y-118889896D01*
X129182245Y-119023415D01*
X128318399Y-119023415D01*
X128332384Y-118899192D01*
X128344684Y-118841357D01*
X128417445Y-118644250D01*
X128529663Y-118455843D01*
X128678817Y-118279361D01*
X128862385Y-118118033D01*
X128969008Y-118042256D01*
X129135375Y-117932221D01*
X128993729Y-117837745D01*
X128799759Y-117687095D01*
X128643114Y-117519520D01*
X128524584Y-117336637D01*
X128444958Y-117140065D01*
X128405025Y-116931420D01*
X128405573Y-116712323D01*
X128406736Y-116702631D01*
X129243898Y-116702631D01*
X129249848Y-116826637D01*
X129282673Y-116948454D01*
X129298928Y-116984917D01*
X129348803Y-117067012D01*
X129415652Y-117142525D01*
X129505418Y-117216393D01*
X129624044Y-117293554D01*
X129765777Y-117372757D01*
X129991852Y-117492764D01*
X130109884Y-117418286D01*
X130189410Y-117362262D01*
X130276563Y-117292090D01*
X130339959Y-117234779D01*
X130448836Y-117108158D01*
X130523666Y-116976647D01*
X130564737Y-116844955D01*
X130572339Y-116717790D01*
X130546761Y-116599860D01*
X130488293Y-116495873D01*
X130397224Y-116410536D01*
X130285767Y-116352871D01*
X130145905Y-116315021D01*
X129988240Y-116296120D01*
X129825296Y-116295835D01*
X129669602Y-116313833D01*
X129533684Y-116349780D01*
X129477020Y-116374398D01*
X129385950Y-116436292D01*
X129310539Y-116515566D01*
X129266179Y-116592669D01*
X129243898Y-116702631D01*
X128406736Y-116702631D01*
X128413357Y-116647468D01*
X128463952Y-116438314D01*
X128550769Y-116249358D01*
X128671981Y-116082233D01*
X128825764Y-115938571D01*
X129010293Y-115820006D01*
X129223743Y-115728170D01*
X129464290Y-115664696D01*
X129523302Y-115654274D01*
X129638746Y-115641839D01*
X129781302Y-115635903D01*
X129939835Y-115636033D01*
G37*
X129939835Y-115636033D02*
X130103211Y-115641795D01*
X130260294Y-115652755D01*
X130399948Y-115668480D01*
X130511038Y-115688535D01*
X130530641Y-115693513D01*
X130762434Y-115773208D01*
X130959122Y-115876335D01*
X131121000Y-116003109D01*
X131248361Y-116153743D01*
X131312514Y-116264024D01*
X131346077Y-116333351D01*
X131368561Y-116387870D01*
X131382184Y-116439184D01*
X131389166Y-116498898D01*
X131391726Y-116578617D01*
X131392083Y-116680119D01*
X131391001Y-116795662D01*
X131386547Y-116881697D01*
X131376912Y-116951024D01*
X131360284Y-117016440D01*
X131334855Y-117090743D01*
X131333463Y-117094532D01*
X131240965Y-117285544D01*
X131108133Y-117466663D01*
X130936086Y-117636601D01*
X130727028Y-117793356D01*
X130705444Y-117809150D01*
X130698954Y-117823863D01*
X130712229Y-117843071D01*
X130749940Y-117872354D01*
X130816757Y-117917288D01*
X130847989Y-117937815D01*
X131045006Y-118082614D01*
X131202678Y-118234117D01*
X131323929Y-118396678D01*
X131411682Y-118574656D01*
X131468861Y-118772406D01*
X131488467Y-118892216D01*
X131496107Y-119118411D01*
X131462797Y-119339617D01*
X131389575Y-119550730D01*
X131331831Y-119662118D01*
X131235229Y-119791654D01*
X131103621Y-119915390D01*
X130944322Y-120028437D01*
X130764648Y-120125908D01*
X130571916Y-120202916D01*
X130481916Y-120229848D01*
X130365730Y-120252927D01*
X130218447Y-120270164D01*
X130050928Y-120281370D01*
X129874030Y-120286354D01*
X129698613Y-120284926D01*
X129535535Y-120276896D01*
X129395655Y-120262073D01*
X129328333Y-120250050D01*
X129093614Y-120185367D01*
X128892355Y-120100276D01*
X128719637Y-119992240D01*
X128571172Y-119859387D01*
X128469089Y-119735726D01*
X128397299Y-119607765D01*
X128345953Y-119457768D01*
X128343982Y-119450282D01*
X128322863Y-119328546D01*
X128313904Y-119184178D01*
X128317085Y-119035090D01*
X128318399Y-119023415D01*
X129182245Y-119023415D01*
X129182600Y-119155858D01*
X129208497Y-119273342D01*
X129220934Y-119302683D01*
X129290293Y-119406648D01*
X129389153Y-119489214D01*
X129521662Y-119553367D01*
X129607678Y-119581127D01*
X129712606Y-119599972D01*
X129841900Y-119607580D01*
X129980975Y-119604546D01*
X130115245Y-119591462D01*
X130230124Y-119568923D01*
X130276792Y-119553884D01*
X130418829Y-119483283D01*
X130522789Y-119395921D01*
X130590343Y-119289598D01*
X130623161Y-119162117D01*
X130627066Y-119093256D01*
X130614970Y-118970604D01*
X130576137Y-118856967D01*
X130507866Y-118749252D01*
X130407454Y-118644367D01*
X130272200Y-118539217D01*
X130099401Y-118430710D01*
X129999796Y-118375158D01*
X129814010Y-118274867D01*
X129694579Y-118345892D01*
X129578453Y-118425237D01*
X129463963Y-118521607D01*
X129361615Y-118624892D01*
X129281917Y-118724984D01*
X129254652Y-118769180D01*
X129206555Y-118889896D01*
X129182245Y-119023415D01*
X128318399Y-119023415D01*
X128332384Y-118899192D01*
X128344684Y-118841357D01*
X128417445Y-118644250D01*
X128529663Y-118455843D01*
X128678817Y-118279361D01*
X128862385Y-118118033D01*
X128969008Y-118042256D01*
X129135375Y-117932221D01*
X128993729Y-117837745D01*
X128799759Y-117687095D01*
X128643114Y-117519520D01*
X128524584Y-117336637D01*
X128444958Y-117140065D01*
X128405025Y-116931420D01*
X128405573Y-116712323D01*
X128406736Y-116702631D01*
X129243898Y-116702631D01*
X129249848Y-116826637D01*
X129282673Y-116948454D01*
X129298928Y-116984917D01*
X129348803Y-117067012D01*
X129415652Y-117142525D01*
X129505418Y-117216393D01*
X129624044Y-117293554D01*
X129765777Y-117372757D01*
X129991852Y-117492764D01*
X130109884Y-117418286D01*
X130189410Y-117362262D01*
X130276563Y-117292090D01*
X130339959Y-117234779D01*
X130448836Y-117108158D01*
X130523666Y-116976647D01*
X130564737Y-116844955D01*
X130572339Y-116717790D01*
X130546761Y-116599860D01*
X130488293Y-116495873D01*
X130397224Y-116410536D01*
X130285767Y-116352871D01*
X130145905Y-116315021D01*
X129988240Y-116296120D01*
X129825296Y-116295835D01*
X129669602Y-116313833D01*
X129533684Y-116349780D01*
X129477020Y-116374398D01*
X129385950Y-116436292D01*
X129310539Y-116515566D01*
X129266179Y-116592669D01*
X129243898Y-116702631D01*
X128406736Y-116702631D01*
X128413357Y-116647468D01*
X128463952Y-116438314D01*
X128550769Y-116249358D01*
X128671981Y-116082233D01*
X128825764Y-115938571D01*
X129010293Y-115820006D01*
X129223743Y-115728170D01*
X129464290Y-115664696D01*
X129523302Y-115654274D01*
X129638746Y-115641839D01*
X129781302Y-115635903D01*
X129939835Y-115636033D01*
G36*
X137075333Y-123909667D02*
G01*
X108288666Y-123909667D01*
X108288666Y-123232333D01*
X137075333Y-123232333D01*
X137075333Y-123909667D01*
G37*
X137075333Y-123909667D02*
X108288666Y-123909667D01*
X108288666Y-123232333D01*
X137075333Y-123232333D01*
X137075333Y-123909667D01*
G36*
X128545166Y-130873500D02*
G01*
X129518833Y-130873500D01*
X129518833Y-131635500D01*
X126513166Y-131635500D01*
X126513166Y-130873500D01*
X127656166Y-130873500D01*
X127656166Y-129443501D01*
X127655938Y-129201998D01*
X127655278Y-128973566D01*
X127654226Y-128761625D01*
X127652819Y-128569595D01*
X127651095Y-128400895D01*
X127649093Y-128258946D01*
X127646851Y-128147167D01*
X127644407Y-128068978D01*
X127641799Y-128027799D01*
X127640291Y-128022174D01*
X127618117Y-128034351D01*
X127563991Y-128064098D01*
X127483054Y-128108589D01*
X127380449Y-128164997D01*
X127261319Y-128230495D01*
X127151883Y-128290665D01*
X127018730Y-128362806D01*
X126899803Y-128425161D01*
X126799845Y-128475398D01*
X126723598Y-128511185D01*
X126675804Y-128530187D01*
X126661410Y-128531950D01*
X126644260Y-128502868D01*
X126617193Y-128444005D01*
X126583202Y-128363237D01*
X126545279Y-128268444D01*
X126506418Y-128167503D01*
X126469610Y-128068293D01*
X126437848Y-127978692D01*
X126414126Y-127906578D01*
X126401434Y-127859830D01*
X126400917Y-127846187D01*
X126422895Y-127833155D01*
X126478146Y-127802711D01*
X126562456Y-127757112D01*
X126671610Y-127698615D01*
X126801395Y-127629479D01*
X126947596Y-127551960D01*
X127106000Y-127468315D01*
X127126122Y-127457713D01*
X127834328Y-127084667D01*
X128545166Y-127084667D01*
X128545166Y-130873500D01*
G37*
X128545166Y-130873500D02*
X129518833Y-130873500D01*
X129518833Y-131635500D01*
X126513166Y-131635500D01*
X126513166Y-130873500D01*
X127656166Y-130873500D01*
X127656166Y-129443501D01*
X127655938Y-129201998D01*
X127655278Y-128973566D01*
X127654226Y-128761625D01*
X127652819Y-128569595D01*
X127651095Y-128400895D01*
X127649093Y-128258946D01*
X127646851Y-128147167D01*
X127644407Y-128068978D01*
X127641799Y-128027799D01*
X127640291Y-128022174D01*
X127618117Y-128034351D01*
X127563991Y-128064098D01*
X127483054Y-128108589D01*
X127380449Y-128164997D01*
X127261319Y-128230495D01*
X127151883Y-128290665D01*
X127018730Y-128362806D01*
X126899803Y-128425161D01*
X126799845Y-128475398D01*
X126723598Y-128511185D01*
X126675804Y-128530187D01*
X126661410Y-128531950D01*
X126644260Y-128502868D01*
X126617193Y-128444005D01*
X126583202Y-128363237D01*
X126545279Y-128268444D01*
X126506418Y-128167503D01*
X126469610Y-128068293D01*
X126437848Y-127978692D01*
X126414126Y-127906578D01*
X126401434Y-127859830D01*
X126400917Y-127846187D01*
X126422895Y-127833155D01*
X126478146Y-127802711D01*
X126562456Y-127757112D01*
X126671610Y-127698615D01*
X126801395Y-127629479D01*
X126947596Y-127551960D01*
X127106000Y-127468315D01*
X127126122Y-127457713D01*
X127834328Y-127084667D01*
X128545166Y-127084667D01*
X128545166Y-130873500D01*
G36*
X133117166Y-127846667D02*
G01*
X132791326Y-127846667D01*
X132516045Y-127851816D01*
X132277793Y-127867687D01*
X132072488Y-127894914D01*
X131896043Y-127934131D01*
X131744376Y-127985972D01*
X131668193Y-128021033D01*
X131555807Y-128095158D01*
X131445479Y-128197684D01*
X131349184Y-128315858D01*
X131280016Y-128434458D01*
X131250023Y-128509702D01*
X131220656Y-128599838D01*
X131193782Y-128696533D01*
X131171271Y-128791453D01*
X131154989Y-128876264D01*
X131146806Y-128942632D01*
X131148591Y-128982223D01*
X131155542Y-128989667D01*
X131177382Y-128983343D01*
X131229074Y-128966585D01*
X131300432Y-128942710D01*
X131318080Y-128936723D01*
X131514560Y-128878399D01*
X131702773Y-128842035D01*
X131898506Y-128825472D01*
X132117548Y-128826551D01*
X132122333Y-128826740D01*
X132394329Y-128852929D01*
X132636909Y-128908359D01*
X132849629Y-128992792D01*
X133032048Y-129105989D01*
X133183723Y-129247713D01*
X133304211Y-129417726D01*
X133336812Y-129479505D01*
X133401516Y-129627949D01*
X133446410Y-129772692D01*
X133475168Y-129928754D01*
X133491463Y-130111156D01*
X133491504Y-130111881D01*
X133491538Y-130337505D01*
X133463008Y-130542742D01*
X133403373Y-130740597D01*
X133340579Y-130884083D01*
X133215320Y-131094732D01*
X133059899Y-131275873D01*
X132874132Y-131427652D01*
X132657836Y-131550212D01*
X132410828Y-131643697D01*
X132355476Y-131659529D01*
X132237345Y-131683366D01*
X132090565Y-131700623D01*
X131928374Y-131710850D01*
X131764011Y-131713594D01*
X131610714Y-131708404D01*
X131481721Y-131694829D01*
X131455583Y-131690221D01*
X131240484Y-131635845D01*
X131054371Y-131560070D01*
X130887081Y-131457598D01*
X130728449Y-131323136D01*
X130703059Y-131298166D01*
X130569501Y-131145880D01*
X130458923Y-130977801D01*
X130370205Y-130790218D01*
X130302229Y-130579422D01*
X130253876Y-130341703D01*
X130224025Y-130073350D01*
X130211559Y-129770653D01*
X130211402Y-129738219D01*
X131121674Y-129738219D01*
X131134219Y-129993651D01*
X131157365Y-130241295D01*
X131201046Y-130452328D01*
X131265856Y-130627479D01*
X131352383Y-130767478D01*
X131461220Y-130873055D01*
X131592956Y-130944938D01*
X131748184Y-130983857D01*
X131927492Y-130990540D01*
X131941223Y-130989804D01*
X132064275Y-130973644D01*
X132176364Y-130936445D01*
X132220928Y-130915766D01*
X132356935Y-130826264D01*
X132465284Y-130707815D01*
X132543773Y-130565297D01*
X132590200Y-130403587D01*
X132602365Y-130227561D01*
X132589456Y-130099263D01*
X132543162Y-129928762D01*
X132467232Y-129787923D01*
X132362236Y-129677431D01*
X132228746Y-129597973D01*
X132148119Y-129569106D01*
X132001562Y-129543897D01*
X131830134Y-129543902D01*
X131642111Y-129567999D01*
X131445766Y-129615068D01*
X131249376Y-129683987D01*
X131225128Y-129694128D01*
X131121674Y-129738219D01*
X130211402Y-129738219D01*
X130211055Y-129667000D01*
X130218486Y-129353348D01*
X130239537Y-129074020D01*
X130275190Y-128822936D01*
X130326426Y-128594018D01*
X130394226Y-128381187D01*
X130435519Y-128276831D01*
X130560891Y-128030075D01*
X130716039Y-127813312D01*
X130901066Y-127626458D01*
X131116074Y-127469427D01*
X131361166Y-127342136D01*
X131636445Y-127244498D01*
X131710608Y-127224557D01*
X131857319Y-127190801D01*
X132001877Y-127165237D01*
X132153374Y-127146980D01*
X132320898Y-127135145D01*
X132513539Y-127128843D01*
X132709708Y-127127174D01*
X133117166Y-127127000D01*
X133117166Y-127846667D01*
G37*
X133117166Y-127846667D02*
X132791326Y-127846667D01*
X132516045Y-127851816D01*
X132277793Y-127867687D01*
X132072488Y-127894914D01*
X131896043Y-127934131D01*
X131744376Y-127985972D01*
X131668193Y-128021033D01*
X131555807Y-128095158D01*
X131445479Y-128197684D01*
X131349184Y-128315858D01*
X131280016Y-128434458D01*
X131250023Y-128509702D01*
X131220656Y-128599838D01*
X131193782Y-128696533D01*
X131171271Y-128791453D01*
X131154989Y-128876264D01*
X131146806Y-128942632D01*
X131148591Y-128982223D01*
X131155542Y-128989667D01*
X131177382Y-128983343D01*
X131229074Y-128966585D01*
X131300432Y-128942710D01*
X131318080Y-128936723D01*
X131514560Y-128878399D01*
X131702773Y-128842035D01*
X131898506Y-128825472D01*
X132117548Y-128826551D01*
X132122333Y-128826740D01*
X132394329Y-128852929D01*
X132636909Y-128908359D01*
X132849629Y-128992792D01*
X133032048Y-129105989D01*
X133183723Y-129247713D01*
X133304211Y-129417726D01*
X133336812Y-129479505D01*
X133401516Y-129627949D01*
X133446410Y-129772692D01*
X133475168Y-129928754D01*
X133491463Y-130111156D01*
X133491504Y-130111881D01*
X133491538Y-130337505D01*
X133463008Y-130542742D01*
X133403373Y-130740597D01*
X133340579Y-130884083D01*
X133215320Y-131094732D01*
X133059899Y-131275873D01*
X132874132Y-131427652D01*
X132657836Y-131550212D01*
X132410828Y-131643697D01*
X132355476Y-131659529D01*
X132237345Y-131683366D01*
X132090565Y-131700623D01*
X131928374Y-131710850D01*
X131764011Y-131713594D01*
X131610714Y-131708404D01*
X131481721Y-131694829D01*
X131455583Y-131690221D01*
X131240484Y-131635845D01*
X131054371Y-131560070D01*
X130887081Y-131457598D01*
X130728449Y-131323136D01*
X130703059Y-131298166D01*
X130569501Y-131145880D01*
X130458923Y-130977801D01*
X130370205Y-130790218D01*
X130302229Y-130579422D01*
X130253876Y-130341703D01*
X130224025Y-130073350D01*
X130211559Y-129770653D01*
X130211402Y-129738219D01*
X131121674Y-129738219D01*
X131134219Y-129993651D01*
X131157365Y-130241295D01*
X131201046Y-130452328D01*
X131265856Y-130627479D01*
X131352383Y-130767478D01*
X131461220Y-130873055D01*
X131592956Y-130944938D01*
X131748184Y-130983857D01*
X131927492Y-130990540D01*
X131941223Y-130989804D01*
X132064275Y-130973644D01*
X132176364Y-130936445D01*
X132220928Y-130915766D01*
X132356935Y-130826264D01*
X132465284Y-130707815D01*
X132543773Y-130565297D01*
X132590200Y-130403587D01*
X132602365Y-130227561D01*
X132589456Y-130099263D01*
X132543162Y-129928762D01*
X132467232Y-129787923D01*
X132362236Y-129677431D01*
X132228746Y-129597973D01*
X132148119Y-129569106D01*
X132001562Y-129543897D01*
X131830134Y-129543902D01*
X131642111Y-129567999D01*
X131445766Y-129615068D01*
X131249376Y-129683987D01*
X131225128Y-129694128D01*
X131121674Y-129738219D01*
X130211402Y-129738219D01*
X130211055Y-129667000D01*
X130218486Y-129353348D01*
X130239537Y-129074020D01*
X130275190Y-128822936D01*
X130326426Y-128594018D01*
X130394226Y-128381187D01*
X130435519Y-128276831D01*
X130560891Y-128030075D01*
X130716039Y-127813312D01*
X130901066Y-127626458D01*
X131116074Y-127469427D01*
X131361166Y-127342136D01*
X131636445Y-127244498D01*
X131710608Y-127224557D01*
X131857319Y-127190801D01*
X132001877Y-127165237D01*
X132153374Y-127146980D01*
X132320898Y-127135145D01*
X132513539Y-127128843D01*
X132709708Y-127127174D01*
X133117166Y-127127000D01*
X133117166Y-127846667D01*
G36*
X137075333Y-135382000D02*
G01*
X108288666Y-135382000D01*
X108288666Y-134704667D01*
X137075333Y-134704667D01*
X137075333Y-135382000D01*
G37*
X137075333Y-135382000D02*
X108288666Y-135382000D01*
X108288666Y-134704667D01*
X137075333Y-134704667D01*
X137075333Y-135382000D01*
G36*
X132178292Y-138486846D02*
G01*
X132323743Y-138501709D01*
X132429250Y-138522166D01*
X132661401Y-138602264D01*
X132864041Y-138711586D01*
X133036099Y-138849078D01*
X133176502Y-139013691D01*
X133284179Y-139204372D01*
X133358058Y-139420070D01*
X133362281Y-139437543D01*
X133378046Y-139520447D01*
X133386984Y-139611520D01*
X133389723Y-139721902D01*
X133386894Y-139862734D01*
X133386668Y-139869333D01*
X133381060Y-139996402D01*
X133373083Y-140093745D01*
X133360791Y-140173970D01*
X133342233Y-140249683D01*
X133315461Y-140333491D01*
X133314476Y-140336362D01*
X133266566Y-140463074D01*
X133210061Y-140586492D01*
X133142445Y-140709738D01*
X133061203Y-140835938D01*
X132963819Y-140968216D01*
X132847776Y-141109698D01*
X132710560Y-141263507D01*
X132549654Y-141432768D01*
X132362543Y-141620606D01*
X132146712Y-141830146D01*
X131997204Y-141972486D01*
X131692159Y-142261167D01*
X133561666Y-142261167D01*
X133561666Y-143065500D01*
X130492500Y-143065500D01*
X130492500Y-142422723D01*
X131228143Y-141680486D01*
X131443158Y-141462486D01*
X131629685Y-141270771D01*
X131789996Y-141102540D01*
X131926361Y-140954992D01*
X132041052Y-140825327D01*
X132136341Y-140710743D01*
X132214497Y-140608439D01*
X132277793Y-140515615D01*
X132328499Y-140429468D01*
X132368888Y-140347200D01*
X132401229Y-140266007D01*
X132419350Y-140211385D01*
X132441107Y-140113785D01*
X132454726Y-139996487D01*
X132459898Y-139872910D01*
X132456315Y-139756473D01*
X132443667Y-139660598D01*
X132432931Y-139622021D01*
X132361310Y-139485810D01*
X132258810Y-139376288D01*
X132129696Y-139296540D01*
X131978231Y-139249656D01*
X131905488Y-139240223D01*
X131718959Y-139243060D01*
X131534783Y-139282237D01*
X131349004Y-139359130D01*
X131157664Y-139475112D01*
X131091934Y-139522719D01*
X130918785Y-139652954D01*
X130878542Y-139607685D01*
X130851168Y-139574810D01*
X130803912Y-139515939D01*
X130742751Y-139438598D01*
X130673661Y-139350310D01*
X130652277Y-139322809D01*
X130466254Y-139083201D01*
X130527002Y-139019328D01*
X130623708Y-138933517D01*
X130751992Y-138843032D01*
X130902279Y-138753131D01*
X131064994Y-138669067D01*
X131230562Y-138596094D01*
X131389407Y-138539469D01*
X131415471Y-138531727D01*
X131532751Y-138507235D01*
X131679681Y-138490389D01*
X131844253Y-138481299D01*
X132014459Y-138480081D01*
X132178292Y-138486846D01*
G37*
X132178292Y-138486846D02*
X132323743Y-138501709D01*
X132429250Y-138522166D01*
X132661401Y-138602264D01*
X132864041Y-138711586D01*
X133036099Y-138849078D01*
X133176502Y-139013691D01*
X133284179Y-139204372D01*
X133358058Y-139420070D01*
X133362281Y-139437543D01*
X133378046Y-139520447D01*
X133386984Y-139611520D01*
X133389723Y-139721902D01*
X133386894Y-139862734D01*
X133386668Y-139869333D01*
X133381060Y-139996402D01*
X133373083Y-140093745D01*
X133360791Y-140173970D01*
X133342233Y-140249683D01*
X133315461Y-140333491D01*
X133314476Y-140336362D01*
X133266566Y-140463074D01*
X133210061Y-140586492D01*
X133142445Y-140709738D01*
X133061203Y-140835938D01*
X132963819Y-140968216D01*
X132847776Y-141109698D01*
X132710560Y-141263507D01*
X132549654Y-141432768D01*
X132362543Y-141620606D01*
X132146712Y-141830146D01*
X131997204Y-141972486D01*
X131692159Y-142261167D01*
X133561666Y-142261167D01*
X133561666Y-143065500D01*
X130492500Y-143065500D01*
X130492500Y-142422723D01*
X131228143Y-141680486D01*
X131443158Y-141462486D01*
X131629685Y-141270771D01*
X131789996Y-141102540D01*
X131926361Y-140954992D01*
X132041052Y-140825327D01*
X132136341Y-140710743D01*
X132214497Y-140608439D01*
X132277793Y-140515615D01*
X132328499Y-140429468D01*
X132368888Y-140347200D01*
X132401229Y-140266007D01*
X132419350Y-140211385D01*
X132441107Y-140113785D01*
X132454726Y-139996487D01*
X132459898Y-139872910D01*
X132456315Y-139756473D01*
X132443667Y-139660598D01*
X132432931Y-139622021D01*
X132361310Y-139485810D01*
X132258810Y-139376288D01*
X132129696Y-139296540D01*
X131978231Y-139249656D01*
X131905488Y-139240223D01*
X131718959Y-139243060D01*
X131534783Y-139282237D01*
X131349004Y-139359130D01*
X131157664Y-139475112D01*
X131091934Y-139522719D01*
X130918785Y-139652954D01*
X130878542Y-139607685D01*
X130851168Y-139574810D01*
X130803912Y-139515939D01*
X130742751Y-139438598D01*
X130673661Y-139350310D01*
X130652277Y-139322809D01*
X130466254Y-139083201D01*
X130527002Y-139019328D01*
X130623708Y-138933517D01*
X130751992Y-138843032D01*
X130902279Y-138753131D01*
X131064994Y-138669067D01*
X131230562Y-138596094D01*
X131389407Y-138539469D01*
X131415471Y-138531727D01*
X131532751Y-138507235D01*
X131679681Y-138490389D01*
X131844253Y-138481299D01*
X132014459Y-138480081D01*
X132178292Y-138486846D01*
G36*
X128053414Y-138483942D02*
G01*
X128173005Y-138485370D01*
X128266446Y-138488755D01*
X128341824Y-138494719D01*
X128407228Y-138503885D01*
X128470745Y-138516878D01*
X128534583Y-138532775D01*
X128770793Y-138611180D01*
X128972438Y-138713500D01*
X129139219Y-138839352D01*
X129270839Y-138988353D01*
X129366998Y-139160121D01*
X129427397Y-139354270D01*
X129451740Y-139570419D01*
X129449159Y-139706680D01*
X129418456Y-139925944D01*
X129354956Y-140118890D01*
X129257606Y-140287209D01*
X129125355Y-140432590D01*
X128957150Y-140556722D01*
X128898643Y-140590550D01*
X128839416Y-140626866D01*
X128815221Y-140651302D01*
X128820854Y-140660274D01*
X128857507Y-140671906D01*
X128918904Y-140691182D01*
X128968500Y-140706676D01*
X129168608Y-140788609D01*
X129338897Y-140899931D01*
X129478397Y-141039725D01*
X129586142Y-141207076D01*
X129644210Y-141346183D01*
X129670387Y-141458742D01*
X129685099Y-141598068D01*
X129688120Y-141750113D01*
X129679219Y-141900831D01*
X129658169Y-142036172D01*
X129655624Y-142047317D01*
X129585361Y-142256541D01*
X129478506Y-142445433D01*
X129335985Y-142613268D01*
X129158724Y-142759323D01*
X128947651Y-142882872D01*
X128703690Y-142983192D01*
X128427770Y-143059558D01*
X128337691Y-143077916D01*
X128248037Y-143090246D01*
X128124592Y-143100807D01*
X127975867Y-143109410D01*
X127810375Y-143115863D01*
X127636628Y-143119977D01*
X127463138Y-143121560D01*
X127298416Y-143120424D01*
X127150977Y-143116378D01*
X127029330Y-143109231D01*
X127010583Y-143107578D01*
X126912282Y-143097768D01*
X126818530Y-143087458D01*
X126745656Y-143078471D01*
X126730125Y-143076279D01*
X126640166Y-143062906D01*
X126640166Y-142693786D01*
X126640449Y-142560449D01*
X126641700Y-142463648D01*
X126644527Y-142397585D01*
X126649536Y-142356465D01*
X126657332Y-142334490D01*
X126668523Y-142325865D01*
X126678771Y-142324667D01*
X126715078Y-142327839D01*
X126782435Y-142336402D01*
X126870113Y-142348921D01*
X126938063Y-142359307D01*
X127050836Y-142373081D01*
X127189137Y-142383851D01*
X127344448Y-142391544D01*
X127508252Y-142396086D01*
X127672031Y-142397405D01*
X127827269Y-142395428D01*
X127965447Y-142390083D01*
X128078049Y-142381295D01*
X128153549Y-142369699D01*
X128339265Y-142315099D01*
X128488663Y-142243611D01*
X128605146Y-142152984D01*
X128692121Y-142040965D01*
X128715353Y-141998058D01*
X128767426Y-141852525D01*
X128784383Y-141705176D01*
X128767283Y-141563421D01*
X128717180Y-141434671D01*
X128635132Y-141326337D01*
X128617223Y-141309727D01*
X128527078Y-141240475D01*
X128427102Y-141184678D01*
X128311824Y-141140968D01*
X128175772Y-141107980D01*
X128013473Y-141084347D01*
X127819455Y-141068702D01*
X127619125Y-141060485D01*
X127190500Y-141048605D01*
X127190500Y-140398500D01*
X127502708Y-140398340D01*
X127627304Y-140396721D01*
X127749746Y-140392397D01*
X127857629Y-140385984D01*
X127938548Y-140378094D01*
X127952500Y-140376062D01*
X128132935Y-140330542D01*
X128287620Y-140257252D01*
X128412931Y-140158456D01*
X128505243Y-140036418D01*
X128509828Y-140028083D01*
X128533411Y-139975464D01*
X128547470Y-139916905D01*
X128554141Y-139839560D01*
X128555598Y-139752917D01*
X128554272Y-139656970D01*
X128548296Y-139589815D01*
X128534947Y-139537954D01*
X128511499Y-139487890D01*
X128496979Y-139462437D01*
X128412314Y-139359771D01*
X128294008Y-139281389D01*
X128143288Y-139227577D01*
X127961383Y-139198619D01*
X127749524Y-139194799D01*
X127508939Y-139216401D01*
X127461811Y-139223141D01*
X127365099Y-139239700D01*
X127250417Y-139262368D01*
X127128568Y-139288679D01*
X127010350Y-139316164D01*
X126906564Y-139342358D01*
X126828011Y-139364792D01*
X126800673Y-139374171D01*
X126788207Y-139375545D01*
X126779338Y-139364928D01*
X126773620Y-139336809D01*
X126770603Y-139285675D01*
X126769841Y-139206014D01*
X126770884Y-139092314D01*
X126771947Y-139020684D01*
X126777750Y-138653948D01*
X126903990Y-138615534D01*
X127060096Y-138570749D01*
X127201801Y-138537006D01*
X127339815Y-138512889D01*
X127484849Y-138496981D01*
X127647613Y-138487865D01*
X127838818Y-138484124D01*
X127899583Y-138483846D01*
X128053414Y-138483942D01*
G37*
X128053414Y-138483942D02*
X128173005Y-138485370D01*
X128266446Y-138488755D01*
X128341824Y-138494719D01*
X128407228Y-138503885D01*
X128470745Y-138516878D01*
X128534583Y-138532775D01*
X128770793Y-138611180D01*
X128972438Y-138713500D01*
X129139219Y-138839352D01*
X129270839Y-138988353D01*
X129366998Y-139160121D01*
X129427397Y-139354270D01*
X129451740Y-139570419D01*
X129449159Y-139706680D01*
X129418456Y-139925944D01*
X129354956Y-140118890D01*
X129257606Y-140287209D01*
X129125355Y-140432590D01*
X128957150Y-140556722D01*
X128898643Y-140590550D01*
X128839416Y-140626866D01*
X128815221Y-140651302D01*
X128820854Y-140660274D01*
X128857507Y-140671906D01*
X128918904Y-140691182D01*
X128968500Y-140706676D01*
X129168608Y-140788609D01*
X129338897Y-140899931D01*
X129478397Y-141039725D01*
X129586142Y-141207076D01*
X129644210Y-141346183D01*
X129670387Y-141458742D01*
X129685099Y-141598068D01*
X129688120Y-141750113D01*
X129679219Y-141900831D01*
X129658169Y-142036172D01*
X129655624Y-142047317D01*
X129585361Y-142256541D01*
X129478506Y-142445433D01*
X129335985Y-142613268D01*
X129158724Y-142759323D01*
X128947651Y-142882872D01*
X128703690Y-142983192D01*
X128427770Y-143059558D01*
X128337691Y-143077916D01*
X128248037Y-143090246D01*
X128124592Y-143100807D01*
X127975867Y-143109410D01*
X127810375Y-143115863D01*
X127636628Y-143119977D01*
X127463138Y-143121560D01*
X127298416Y-143120424D01*
X127150977Y-143116378D01*
X127029330Y-143109231D01*
X127010583Y-143107578D01*
X126912282Y-143097768D01*
X126818530Y-143087458D01*
X126745656Y-143078471D01*
X126730125Y-143076279D01*
X126640166Y-143062906D01*
X126640166Y-142693786D01*
X126640449Y-142560449D01*
X126641700Y-142463648D01*
X126644527Y-142397585D01*
X126649536Y-142356465D01*
X126657332Y-142334490D01*
X126668523Y-142325865D01*
X126678771Y-142324667D01*
X126715078Y-142327839D01*
X126782435Y-142336402D01*
X126870113Y-142348921D01*
X126938063Y-142359307D01*
X127050836Y-142373081D01*
X127189137Y-142383851D01*
X127344448Y-142391544D01*
X127508252Y-142396086D01*
X127672031Y-142397405D01*
X127827269Y-142395428D01*
X127965447Y-142390083D01*
X128078049Y-142381295D01*
X128153549Y-142369699D01*
X128339265Y-142315099D01*
X128488663Y-142243611D01*
X128605146Y-142152984D01*
X128692121Y-142040965D01*
X128715353Y-141998058D01*
X128767426Y-141852525D01*
X128784383Y-141705176D01*
X128767283Y-141563421D01*
X128717180Y-141434671D01*
X128635132Y-141326337D01*
X128617223Y-141309727D01*
X128527078Y-141240475D01*
X128427102Y-141184678D01*
X128311824Y-141140968D01*
X128175772Y-141107980D01*
X128013473Y-141084347D01*
X127819455Y-141068702D01*
X127619125Y-141060485D01*
X127190500Y-141048605D01*
X127190500Y-140398500D01*
X127502708Y-140398340D01*
X127627304Y-140396721D01*
X127749746Y-140392397D01*
X127857629Y-140385984D01*
X127938548Y-140378094D01*
X127952500Y-140376062D01*
X128132935Y-140330542D01*
X128287620Y-140257252D01*
X128412931Y-140158456D01*
X128505243Y-140036418D01*
X128509828Y-140028083D01*
X128533411Y-139975464D01*
X128547470Y-139916905D01*
X128554141Y-139839560D01*
X128555598Y-139752917D01*
X128554272Y-139656970D01*
X128548296Y-139589815D01*
X128534947Y-139537954D01*
X128511499Y-139487890D01*
X128496979Y-139462437D01*
X128412314Y-139359771D01*
X128294008Y-139281389D01*
X128143288Y-139227577D01*
X127961383Y-139198619D01*
X127749524Y-139194799D01*
X127508939Y-139216401D01*
X127461811Y-139223141D01*
X127365099Y-139239700D01*
X127250417Y-139262368D01*
X127128568Y-139288679D01*
X127010350Y-139316164D01*
X126906564Y-139342358D01*
X126828011Y-139364792D01*
X126800673Y-139374171D01*
X126788207Y-139375545D01*
X126779338Y-139364928D01*
X126773620Y-139336809D01*
X126770603Y-139285675D01*
X126769841Y-139206014D01*
X126770884Y-139092314D01*
X126771947Y-139020684D01*
X126777750Y-138653948D01*
X126903990Y-138615534D01*
X127060096Y-138570749D01*
X127201801Y-138537006D01*
X127339815Y-138512889D01*
X127484849Y-138496981D01*
X127647613Y-138487865D01*
X127838818Y-138484124D01*
X127899583Y-138483846D01*
X128053414Y-138483942D01*
G36*
X137075333Y-146790833D02*
G01*
X108288666Y-146790833D01*
X108288666Y-146113500D01*
X137075333Y-146113500D01*
X137075333Y-146790833D01*
G37*
X137075333Y-146790833D02*
X108288666Y-146790833D01*
X108288666Y-146113500D01*
X137075333Y-146113500D01*
X137075333Y-146790833D01*
G36*
X133117166Y-152823333D02*
G01*
X133794500Y-152823333D01*
X133794500Y-153585333D01*
X133117166Y-153585333D01*
X133117166Y-154495500D01*
X132270500Y-154495500D01*
X132270500Y-153585333D01*
X130175000Y-153585333D01*
X130175000Y-152847121D01*
X130197272Y-152810785D01*
X131042833Y-152810785D01*
X131063130Y-152813954D01*
X131120542Y-152816829D01*
X131209853Y-152819305D01*
X131325844Y-152821278D01*
X131463299Y-152822642D01*
X131616999Y-152823293D01*
X131667250Y-152823333D01*
X132291666Y-152823333D01*
X132291666Y-151823790D01*
X132291520Y-151589591D01*
X132291019Y-151394569D01*
X132290068Y-151235568D01*
X132288573Y-151109431D01*
X132286438Y-151013004D01*
X132283568Y-150943130D01*
X132279869Y-150896652D01*
X132275246Y-150870416D01*
X132269604Y-150861266D01*
X132262880Y-150865998D01*
X132239643Y-150901265D01*
X132197822Y-150966369D01*
X132139925Y-151057317D01*
X132068457Y-151170112D01*
X131985925Y-151300760D01*
X131894835Y-151445265D01*
X131797694Y-151599632D01*
X131697008Y-151759866D01*
X131595284Y-151921970D01*
X131495027Y-152081951D01*
X131398745Y-152235812D01*
X131308945Y-152379559D01*
X131228131Y-152509196D01*
X131158811Y-152620728D01*
X131103491Y-152710159D01*
X131064678Y-152773494D01*
X131044877Y-152806739D01*
X131042833Y-152810785D01*
X130197272Y-152810785D01*
X131058044Y-151406477D01*
X131941089Y-149965833D01*
X133117166Y-149965833D01*
X133117166Y-152823333D01*
G37*
X133117166Y-152823333D02*
X133794500Y-152823333D01*
X133794500Y-153585333D01*
X133117166Y-153585333D01*
X133117166Y-154495500D01*
X132270500Y-154495500D01*
X132270500Y-153585333D01*
X130175000Y-153585333D01*
X130175000Y-152847121D01*
X130197272Y-152810785D01*
X131042833Y-152810785D01*
X131063130Y-152813954D01*
X131120542Y-152816829D01*
X131209853Y-152819305D01*
X131325844Y-152821278D01*
X131463299Y-152822642D01*
X131616999Y-152823293D01*
X131667250Y-152823333D01*
X132291666Y-152823333D01*
X132291666Y-151823790D01*
X132291520Y-151589591D01*
X132291019Y-151394569D01*
X132290068Y-151235568D01*
X132288573Y-151109431D01*
X132286438Y-151013004D01*
X132283568Y-150943130D01*
X132279869Y-150896652D01*
X132275246Y-150870416D01*
X132269604Y-150861266D01*
X132262880Y-150865998D01*
X132239643Y-150901265D01*
X132197822Y-150966369D01*
X132139925Y-151057317D01*
X132068457Y-151170112D01*
X131985925Y-151300760D01*
X131894835Y-151445265D01*
X131797694Y-151599632D01*
X131697008Y-151759866D01*
X131595284Y-151921970D01*
X131495027Y-152081951D01*
X131398745Y-152235812D01*
X131308945Y-152379559D01*
X131228131Y-152509196D01*
X131158811Y-152620728D01*
X131103491Y-152710159D01*
X131064678Y-152773494D01*
X131044877Y-152806739D01*
X131042833Y-152810785D01*
X130197272Y-152810785D01*
X131058044Y-151406477D01*
X131941089Y-149965833D01*
X133117166Y-149965833D01*
X133117166Y-152823333D01*
G36*
X129413000Y-150706667D02*
G01*
X129026153Y-150706667D01*
X128808604Y-150708985D01*
X128626447Y-150716437D01*
X128472967Y-150729767D01*
X128341450Y-150749721D01*
X128225183Y-150777044D01*
X128136838Y-150805354D01*
X127960948Y-150881185D01*
X127819321Y-150972424D01*
X127704905Y-151085243D01*
X127610649Y-151225817D01*
X127573503Y-151298567D01*
X127548429Y-151362021D01*
X127522147Y-151445615D01*
X127496796Y-151539885D01*
X127474518Y-151635367D01*
X127457456Y-151722597D01*
X127447749Y-151792112D01*
X127447540Y-151834447D01*
X127450614Y-151841670D01*
X127475802Y-151842057D01*
X127503530Y-151830892D01*
X127541858Y-151815235D01*
X127609131Y-151792214D01*
X127693505Y-151765793D01*
X127732884Y-151754144D01*
X127972544Y-151700165D01*
X128216811Y-151674230D01*
X128459570Y-151675379D01*
X128694701Y-151702651D01*
X128916089Y-151755088D01*
X129117616Y-151831730D01*
X129293164Y-151931616D01*
X129397866Y-152015364D01*
X129536636Y-152167633D01*
X129643563Y-152338770D01*
X129720183Y-152532547D01*
X129768034Y-152752734D01*
X129787572Y-152971500D01*
X129788950Y-153166455D01*
X129774366Y-153333981D01*
X129741492Y-153486725D01*
X129688005Y-153637335D01*
X129649402Y-153722917D01*
X129525574Y-153933690D01*
X129370256Y-154116874D01*
X129185157Y-154271140D01*
X128971986Y-154395163D01*
X128732456Y-154487616D01*
X128626863Y-154516127D01*
X128473379Y-154543982D01*
X128296262Y-154562068D01*
X128113098Y-154569483D01*
X127941473Y-154565320D01*
X127846666Y-154556277D01*
X127594034Y-154504080D01*
X127366960Y-154418325D01*
X127165790Y-154299464D01*
X126990872Y-154147945D01*
X126842553Y-153964222D01*
X126721181Y-153748743D01*
X126627102Y-153501959D01*
X126560663Y-153224321D01*
X126522213Y-152916280D01*
X126516807Y-152830552D01*
X126512081Y-152598340D01*
X127423333Y-152598340D01*
X127423333Y-152741055D01*
X127430659Y-152904419D01*
X127450923Y-153074814D01*
X127481554Y-153234684D01*
X127511363Y-153341917D01*
X127582676Y-153509838D01*
X127673889Y-153641884D01*
X127787345Y-153740699D01*
X127925039Y-153808804D01*
X128002093Y-153826030D01*
X128104959Y-153835556D01*
X128217780Y-153837139D01*
X128324695Y-153830540D01*
X128407583Y-153816140D01*
X128551645Y-153756143D01*
X128675022Y-153662693D01*
X128774611Y-153540847D01*
X128847309Y-153395661D01*
X128890012Y-153232190D01*
X128899619Y-153055493D01*
X128897228Y-153018204D01*
X128864954Y-152840737D01*
X128801336Y-152691060D01*
X128707888Y-152570271D01*
X128586124Y-152479470D01*
X128437560Y-152419755D01*
X128263710Y-152392224D01*
X128066087Y-152397976D01*
X128045542Y-152400367D01*
X127868168Y-152433493D01*
X127683124Y-152487217D01*
X127514282Y-152554518D01*
X127502708Y-152560028D01*
X127423333Y-152598340D01*
X126512081Y-152598340D01*
X126508530Y-152423889D01*
X126526996Y-152049854D01*
X126572335Y-151708154D01*
X126644678Y-151398495D01*
X126744153Y-151120585D01*
X126870891Y-150874130D01*
X127025021Y-150658837D01*
X127206672Y-150474412D01*
X127415976Y-150320563D01*
X127653061Y-150196996D01*
X127688512Y-150182082D01*
X127845300Y-150123241D01*
X128002768Y-150075956D01*
X128168325Y-150038988D01*
X128349385Y-150011096D01*
X128553357Y-149991040D01*
X128787654Y-149977578D01*
X128942041Y-149972256D01*
X129413000Y-149959165D01*
X129413000Y-150706667D01*
G37*
X129413000Y-150706667D02*
X129026153Y-150706667D01*
X128808604Y-150708985D01*
X128626447Y-150716437D01*
X128472967Y-150729767D01*
X128341450Y-150749721D01*
X128225183Y-150777044D01*
X128136838Y-150805354D01*
X127960948Y-150881185D01*
X127819321Y-150972424D01*
X127704905Y-151085243D01*
X127610649Y-151225817D01*
X127573503Y-151298567D01*
X127548429Y-151362021D01*
X127522147Y-151445615D01*
X127496796Y-151539885D01*
X127474518Y-151635367D01*
X127457456Y-151722597D01*
X127447749Y-151792112D01*
X127447540Y-151834447D01*
X127450614Y-151841670D01*
X127475802Y-151842057D01*
X127503530Y-151830892D01*
X127541858Y-151815235D01*
X127609131Y-151792214D01*
X127693505Y-151765793D01*
X127732884Y-151754144D01*
X127972544Y-151700165D01*
X128216811Y-151674230D01*
X128459570Y-151675379D01*
X128694701Y-151702651D01*
X128916089Y-151755088D01*
X129117616Y-151831730D01*
X129293164Y-151931616D01*
X129397866Y-152015364D01*
X129536636Y-152167633D01*
X129643563Y-152338770D01*
X129720183Y-152532547D01*
X129768034Y-152752734D01*
X129787572Y-152971500D01*
X129788950Y-153166455D01*
X129774366Y-153333981D01*
X129741492Y-153486725D01*
X129688005Y-153637335D01*
X129649402Y-153722917D01*
X129525574Y-153933690D01*
X129370256Y-154116874D01*
X129185157Y-154271140D01*
X128971986Y-154395163D01*
X128732456Y-154487616D01*
X128626863Y-154516127D01*
X128473379Y-154543982D01*
X128296262Y-154562068D01*
X128113098Y-154569483D01*
X127941473Y-154565320D01*
X127846666Y-154556277D01*
X127594034Y-154504080D01*
X127366960Y-154418325D01*
X127165790Y-154299464D01*
X126990872Y-154147945D01*
X126842553Y-153964222D01*
X126721181Y-153748743D01*
X126627102Y-153501959D01*
X126560663Y-153224321D01*
X126522213Y-152916280D01*
X126516807Y-152830552D01*
X126512081Y-152598340D01*
X127423333Y-152598340D01*
X127423333Y-152741055D01*
X127430659Y-152904419D01*
X127450923Y-153074814D01*
X127481554Y-153234684D01*
X127511363Y-153341917D01*
X127582676Y-153509838D01*
X127673889Y-153641884D01*
X127787345Y-153740699D01*
X127925039Y-153808804D01*
X128002093Y-153826030D01*
X128104959Y-153835556D01*
X128217780Y-153837139D01*
X128324695Y-153830540D01*
X128407583Y-153816140D01*
X128551645Y-153756143D01*
X128675022Y-153662693D01*
X128774611Y-153540847D01*
X128847309Y-153395661D01*
X128890012Y-153232190D01*
X128899619Y-153055493D01*
X128897228Y-153018204D01*
X128864954Y-152840737D01*
X128801336Y-152691060D01*
X128707888Y-152570271D01*
X128586124Y-152479470D01*
X128437560Y-152419755D01*
X128263710Y-152392224D01*
X128066087Y-152397976D01*
X128045542Y-152400367D01*
X127868168Y-152433493D01*
X127683124Y-152487217D01*
X127514282Y-152554518D01*
X127502708Y-152560028D01*
X127423333Y-152598340D01*
X126512081Y-152598340D01*
X126508530Y-152423889D01*
X126526996Y-152049854D01*
X126572335Y-151708154D01*
X126644678Y-151398495D01*
X126744153Y-151120585D01*
X126870891Y-150874130D01*
X127025021Y-150658837D01*
X127206672Y-150474412D01*
X127415976Y-150320563D01*
X127653061Y-150196996D01*
X127688512Y-150182082D01*
X127845300Y-150123241D01*
X128002768Y-150075956D01*
X128168325Y-150038988D01*
X128349385Y-150011096D01*
X128553357Y-149991040D01*
X128787654Y-149977578D01*
X128942041Y-149972256D01*
X129413000Y-149959165D01*
X129413000Y-150706667D01*
G36*
X137075333Y-158220833D02*
G01*
X108288666Y-158220833D01*
X108288666Y-157543500D01*
X137075333Y-157543500D01*
X137075333Y-158220833D01*
G37*
X137075333Y-158220833D02*
X108288666Y-158220833D01*
X108288666Y-157543500D01*
X137075333Y-157543500D01*
X137075333Y-158220833D01*
G36*
X130299124Y-161356583D02*
G01*
X130530330Y-161399715D01*
X130745408Y-161470716D01*
X130939106Y-161569201D01*
X131106176Y-161694787D01*
X131135080Y-161722278D01*
X131271179Y-161882932D01*
X131373306Y-162063094D01*
X131442480Y-162265505D01*
X131479720Y-162492907D01*
X131487333Y-162670332D01*
X131476156Y-162893840D01*
X131440588Y-163100048D01*
X131377571Y-163298572D01*
X131284051Y-163499030D01*
X131156970Y-163711039D01*
X131156229Y-163712169D01*
X131115796Y-163771622D01*
X131071996Y-163830868D01*
X131021390Y-163893666D01*
X130960538Y-163963773D01*
X130885997Y-164044948D01*
X130794328Y-164140948D01*
X130682090Y-164255532D01*
X130545843Y-164392456D01*
X130403980Y-164533792D01*
X129791536Y-165142333D01*
X131656666Y-165142333D01*
X131656666Y-165946667D01*
X128587500Y-165946667D01*
X128587500Y-165306436D01*
X129270125Y-164614695D01*
X129487371Y-164393475D01*
X129676240Y-164198563D01*
X129839066Y-164027136D01*
X129978188Y-163876372D01*
X130095943Y-163743448D01*
X130194667Y-163625540D01*
X130276697Y-163519826D01*
X130344371Y-163423481D01*
X130400026Y-163333684D01*
X130445998Y-163247611D01*
X130484624Y-163162439D01*
X130496444Y-163133324D01*
X130518361Y-163069681D01*
X130532519Y-163004006D01*
X130540501Y-162924334D01*
X130543891Y-162818701D01*
X130544293Y-162771667D01*
X130544149Y-162664867D01*
X130541278Y-162589361D01*
X130533767Y-162534116D01*
X130519705Y-162488101D01*
X130497179Y-162440283D01*
X130481916Y-162411833D01*
X130396708Y-162297179D01*
X130282217Y-162204280D01*
X130149365Y-162141630D01*
X130125413Y-162134510D01*
X130033717Y-162120699D01*
X129917284Y-162118781D01*
X129791651Y-162127613D01*
X129672359Y-162146056D01*
X129574947Y-162172967D01*
X129568739Y-162175382D01*
X129399670Y-162257282D01*
X129229208Y-162365757D01*
X129124858Y-162446429D01*
X129016632Y-162537152D01*
X128974966Y-162490367D01*
X128915926Y-162421044D01*
X128849690Y-162338394D01*
X128781119Y-162249107D01*
X128715078Y-162159870D01*
X128656429Y-162077371D01*
X128610036Y-162008301D01*
X128580761Y-161959346D01*
X128573157Y-161937747D01*
X128597976Y-161907201D01*
X128651547Y-161860400D01*
X128726263Y-161802774D01*
X128814521Y-161739752D01*
X128908712Y-161676764D01*
X129001233Y-161619240D01*
X129084478Y-161572611D01*
X129084916Y-161572384D01*
X129318015Y-161470416D01*
X129561235Y-161398236D01*
X129809326Y-161355460D01*
X130057040Y-161341703D01*
X130299124Y-161356583D01*
G37*
X130299124Y-161356583D02*
X130530330Y-161399715D01*
X130745408Y-161470716D01*
X130939106Y-161569201D01*
X131106176Y-161694787D01*
X131135080Y-161722278D01*
X131271179Y-161882932D01*
X131373306Y-162063094D01*
X131442480Y-162265505D01*
X131479720Y-162492907D01*
X131487333Y-162670332D01*
X131476156Y-162893840D01*
X131440588Y-163100048D01*
X131377571Y-163298572D01*
X131284051Y-163499030D01*
X131156970Y-163711039D01*
X131156229Y-163712169D01*
X131115796Y-163771622D01*
X131071996Y-163830868D01*
X131021390Y-163893666D01*
X130960538Y-163963773D01*
X130885997Y-164044948D01*
X130794328Y-164140948D01*
X130682090Y-164255532D01*
X130545843Y-164392456D01*
X130403980Y-164533792D01*
X129791536Y-165142333D01*
X131656666Y-165142333D01*
X131656666Y-165946667D01*
X128587500Y-165946667D01*
X128587500Y-165306436D01*
X129270125Y-164614695D01*
X129487371Y-164393475D01*
X129676240Y-164198563D01*
X129839066Y-164027136D01*
X129978188Y-163876372D01*
X130095943Y-163743448D01*
X130194667Y-163625540D01*
X130276697Y-163519826D01*
X130344371Y-163423481D01*
X130400026Y-163333684D01*
X130445998Y-163247611D01*
X130484624Y-163162439D01*
X130496444Y-163133324D01*
X130518361Y-163069681D01*
X130532519Y-163004006D01*
X130540501Y-162924334D01*
X130543891Y-162818701D01*
X130544293Y-162771667D01*
X130544149Y-162664867D01*
X130541278Y-162589361D01*
X130533767Y-162534116D01*
X130519705Y-162488101D01*
X130497179Y-162440283D01*
X130481916Y-162411833D01*
X130396708Y-162297179D01*
X130282217Y-162204280D01*
X130149365Y-162141630D01*
X130125413Y-162134510D01*
X130033717Y-162120699D01*
X129917284Y-162118781D01*
X129791651Y-162127613D01*
X129672359Y-162146056D01*
X129574947Y-162172967D01*
X129568739Y-162175382D01*
X129399670Y-162257282D01*
X129229208Y-162365757D01*
X129124858Y-162446429D01*
X129016632Y-162537152D01*
X128974966Y-162490367D01*
X128915926Y-162421044D01*
X128849690Y-162338394D01*
X128781119Y-162249107D01*
X128715078Y-162159870D01*
X128656429Y-162077371D01*
X128610036Y-162008301D01*
X128580761Y-161959346D01*
X128573157Y-161937747D01*
X128597976Y-161907201D01*
X128651547Y-161860400D01*
X128726263Y-161802774D01*
X128814521Y-161739752D01*
X128908712Y-161676764D01*
X129001233Y-161619240D01*
X129084478Y-161572611D01*
X129084916Y-161572384D01*
X129318015Y-161470416D01*
X129561235Y-161398236D01*
X129809326Y-161355460D01*
X130057040Y-161341703D01*
X130299124Y-161356583D01*
G36*
X126809500Y-165163500D02*
G01*
X127804333Y-165163500D01*
X127804333Y-165946667D01*
X124777500Y-165946667D01*
X124777500Y-165163500D01*
X125920500Y-165163500D01*
X125920500Y-163743069D01*
X125920393Y-163458581D01*
X125920034Y-163213668D01*
X125919365Y-163005574D01*
X125918330Y-162831539D01*
X125916871Y-162688808D01*
X125914930Y-162574621D01*
X125912451Y-162486222D01*
X125909375Y-162420853D01*
X125905646Y-162375757D01*
X125901207Y-162348176D01*
X125895999Y-162335352D01*
X125891201Y-162333880D01*
X125865196Y-162346873D01*
X125807556Y-162377467D01*
X125723671Y-162422740D01*
X125618931Y-162479771D01*
X125498730Y-162545641D01*
X125400078Y-162599966D01*
X125273466Y-162669576D01*
X125159796Y-162731580D01*
X125064086Y-162783279D01*
X124991351Y-162821980D01*
X124946607Y-162844986D01*
X124934338Y-162850280D01*
X124923525Y-162827789D01*
X124900816Y-162774320D01*
X124869242Y-162697510D01*
X124831838Y-162604994D01*
X124791636Y-162504406D01*
X124751670Y-162403382D01*
X124714972Y-162309558D01*
X124684575Y-162230568D01*
X124663514Y-162174047D01*
X124654820Y-162147632D01*
X124654819Y-162146645D01*
X124674299Y-162135719D01*
X124727078Y-162107228D01*
X124809023Y-162063375D01*
X124915999Y-162006364D01*
X125043870Y-161938396D01*
X125188502Y-161861677D01*
X125345761Y-161778407D01*
X125365057Y-161768200D01*
X126069031Y-161395833D01*
X126809500Y-161395833D01*
X126809500Y-165163500D01*
G37*
X126809500Y-165163500D02*
X127804333Y-165163500D01*
X127804333Y-165946667D01*
X124777500Y-165946667D01*
X124777500Y-165163500D01*
X125920500Y-165163500D01*
X125920500Y-163743069D01*
X125920393Y-163458581D01*
X125920034Y-163213668D01*
X125919365Y-163005574D01*
X125918330Y-162831539D01*
X125916871Y-162688808D01*
X125914930Y-162574621D01*
X125912451Y-162486222D01*
X125909375Y-162420853D01*
X125905646Y-162375757D01*
X125901207Y-162348176D01*
X125895999Y-162335352D01*
X125891201Y-162333880D01*
X125865196Y-162346873D01*
X125807556Y-162377467D01*
X125723671Y-162422740D01*
X125618931Y-162479771D01*
X125498730Y-162545641D01*
X125400078Y-162599966D01*
X125273466Y-162669576D01*
X125159796Y-162731580D01*
X125064086Y-162783279D01*
X124991351Y-162821980D01*
X124946607Y-162844986D01*
X124934338Y-162850280D01*
X124923525Y-162827789D01*
X124900816Y-162774320D01*
X124869242Y-162697510D01*
X124831838Y-162604994D01*
X124791636Y-162504406D01*
X124751670Y-162403382D01*
X124714972Y-162309558D01*
X124684575Y-162230568D01*
X124663514Y-162174047D01*
X124654820Y-162147632D01*
X124654819Y-162146645D01*
X124674299Y-162135719D01*
X124727078Y-162107228D01*
X124809023Y-162063375D01*
X124915999Y-162006364D01*
X125043870Y-161938396D01*
X125188502Y-161861677D01*
X125345761Y-161778407D01*
X125365057Y-161768200D01*
X126069031Y-161395833D01*
X126809500Y-161395833D01*
X126809500Y-165163500D01*
G36*
X134223233Y-161354217D02*
G01*
X134496187Y-161391330D01*
X134736683Y-161454830D01*
X134944500Y-161544596D01*
X135119414Y-161660507D01*
X135261203Y-161802443D01*
X135369646Y-161970283D01*
X135374280Y-161979537D01*
X135413043Y-162062928D01*
X135437350Y-162132682D01*
X135451407Y-162205858D01*
X135459421Y-162299511D01*
X135461160Y-162331848D01*
X135454317Y-162561896D01*
X135409498Y-162774463D01*
X135326162Y-162970643D01*
X135203770Y-163151527D01*
X135041780Y-163318210D01*
X134927781Y-163410062D01*
X134847340Y-163470995D01*
X134797575Y-163512760D01*
X134774138Y-163539976D01*
X134772685Y-163557260D01*
X134781570Y-163565417D01*
X134891346Y-163637296D01*
X135005951Y-163721193D01*
X135115285Y-163808963D01*
X135209247Y-163892461D01*
X135277735Y-163963541D01*
X135282647Y-163969470D01*
X135387922Y-164120977D01*
X135472630Y-164287073D01*
X135528215Y-164450958D01*
X135528539Y-164452297D01*
X135546575Y-164567548D01*
X135553700Y-164706695D01*
X135550351Y-164853983D01*
X135536962Y-164993661D01*
X135513970Y-165109975D01*
X135509971Y-165123621D01*
X135429706Y-165313064D01*
X135312729Y-165485325D01*
X135162066Y-165637813D01*
X134980743Y-165767938D01*
X134771788Y-165873110D01*
X134545916Y-165948741D01*
X134439399Y-165969435D01*
X134301381Y-165985650D01*
X134142487Y-165997103D01*
X133973342Y-166003515D01*
X133804570Y-166004603D01*
X133646796Y-166000086D01*
X133510643Y-165989684D01*
X133431163Y-165978241D01*
X133189814Y-165916707D01*
X132975205Y-165829067D01*
X132789570Y-165717104D01*
X132635145Y-165582603D01*
X132514165Y-165427348D01*
X132428864Y-165253122D01*
X132399041Y-165154348D01*
X132383023Y-165052772D01*
X132375616Y-164926910D01*
X132376563Y-164792012D01*
X132377090Y-164784503D01*
X133244166Y-164784503D01*
X133249454Y-164898655D01*
X133268309Y-164984765D01*
X133305221Y-165056140D01*
X133356589Y-165117730D01*
X133473457Y-165210868D01*
X133622419Y-165280902D01*
X133699250Y-165304325D01*
X133796651Y-165319754D01*
X133919775Y-165325110D01*
X134053387Y-165321022D01*
X134182254Y-165308123D01*
X134291140Y-165287044D01*
X134319437Y-165278619D01*
X134415331Y-165234109D01*
X134509836Y-165169239D01*
X134590873Y-165094012D01*
X134646362Y-165018428D01*
X134654647Y-165001081D01*
X134670644Y-164941108D01*
X134681121Y-164860238D01*
X134683500Y-164803643D01*
X134669001Y-164675967D01*
X134623107Y-164558952D01*
X134542219Y-164445624D01*
X134451856Y-164354700D01*
X134382748Y-164299155D01*
X134289260Y-164233375D01*
X134182883Y-164164521D01*
X134075109Y-164099752D01*
X133977427Y-164046227D01*
X133901331Y-164011107D01*
X133898936Y-164010201D01*
X133864980Y-164015664D01*
X133806732Y-164042701D01*
X133732526Y-164085909D01*
X133650695Y-164139884D01*
X133569572Y-164199224D01*
X133497491Y-164258526D01*
X133457677Y-164296295D01*
X133401025Y-164364786D01*
X133343253Y-164450444D01*
X133308443Y-164512466D01*
X133269635Y-164600201D01*
X133250134Y-164677937D01*
X133244232Y-164769829D01*
X133244166Y-164784503D01*
X132377090Y-164784503D01*
X132385607Y-164663331D01*
X132402490Y-164556117D01*
X132409604Y-164528500D01*
X132488180Y-164334196D01*
X132605930Y-164147878D01*
X132759921Y-163973192D01*
X132947217Y-163813787D01*
X133033413Y-163753390D01*
X133193077Y-163647728D01*
X133036599Y-163543072D01*
X132846829Y-163394368D01*
X132693839Y-163227350D01*
X132578536Y-163043602D01*
X132501830Y-162844709D01*
X132464627Y-162632253D01*
X132461000Y-162538833D01*
X132466411Y-162473275D01*
X133307666Y-162473275D01*
X133324453Y-162609458D01*
X133376506Y-162731980D01*
X133466365Y-162845366D01*
X133564041Y-162930155D01*
X133627792Y-162974617D01*
X133708784Y-163025233D01*
X133797804Y-163076947D01*
X133885641Y-163124706D01*
X133963082Y-163163456D01*
X134020913Y-163188141D01*
X134045653Y-163194382D01*
X134075825Y-163183542D01*
X134130410Y-163154192D01*
X134199083Y-163112020D01*
X134219679Y-163098522D01*
X134363535Y-162986740D01*
X134477407Y-162865137D01*
X134560772Y-162737874D01*
X134613108Y-162609110D01*
X134633894Y-162483003D01*
X134622607Y-162363713D01*
X134578724Y-162255400D01*
X134501724Y-162162222D01*
X134391085Y-162088339D01*
X134348848Y-162069592D01*
X134289715Y-162048498D01*
X134230987Y-162034513D01*
X134161666Y-162026263D01*
X134070753Y-162022372D01*
X133963833Y-162021462D01*
X133847431Y-162022348D01*
X133763004Y-162026039D01*
X133700220Y-162033878D01*
X133648746Y-162047205D01*
X133598248Y-162067361D01*
X133593416Y-162069548D01*
X133466717Y-162142542D01*
X133378467Y-162230071D01*
X133326278Y-162335507D01*
X133307764Y-162462222D01*
X133307666Y-162473275D01*
X132466411Y-162473275D01*
X132479098Y-162319571D01*
X132534036Y-162120396D01*
X132626782Y-161938917D01*
X132758303Y-161772745D01*
X132779912Y-161750520D01*
X132936892Y-161619726D01*
X133123313Y-161510203D01*
X133329354Y-161427378D01*
X133402916Y-161406059D01*
X133545795Y-161377559D01*
X133716761Y-161357635D01*
X133902276Y-161347143D01*
X134088804Y-161346939D01*
X134223233Y-161354217D01*
G37*
X134223233Y-161354217D02*
X134496187Y-161391330D01*
X134736683Y-161454830D01*
X134944500Y-161544596D01*
X135119414Y-161660507D01*
X135261203Y-161802443D01*
X135369646Y-161970283D01*
X135374280Y-161979537D01*
X135413043Y-162062928D01*
X135437350Y-162132682D01*
X135451407Y-162205858D01*
X135459421Y-162299511D01*
X135461160Y-162331848D01*
X135454317Y-162561896D01*
X135409498Y-162774463D01*
X135326162Y-162970643D01*
X135203770Y-163151527D01*
X135041780Y-163318210D01*
X134927781Y-163410062D01*
X134847340Y-163470995D01*
X134797575Y-163512760D01*
X134774138Y-163539976D01*
X134772685Y-163557260D01*
X134781570Y-163565417D01*
X134891346Y-163637296D01*
X135005951Y-163721193D01*
X135115285Y-163808963D01*
X135209247Y-163892461D01*
X135277735Y-163963541D01*
X135282647Y-163969470D01*
X135387922Y-164120977D01*
X135472630Y-164287073D01*
X135528215Y-164450958D01*
X135528539Y-164452297D01*
X135546575Y-164567548D01*
X135553700Y-164706695D01*
X135550351Y-164853983D01*
X135536962Y-164993661D01*
X135513970Y-165109975D01*
X135509971Y-165123621D01*
X135429706Y-165313064D01*
X135312729Y-165485325D01*
X135162066Y-165637813D01*
X134980743Y-165767938D01*
X134771788Y-165873110D01*
X134545916Y-165948741D01*
X134439399Y-165969435D01*
X134301381Y-165985650D01*
X134142487Y-165997103D01*
X133973342Y-166003515D01*
X133804570Y-166004603D01*
X133646796Y-166000086D01*
X133510643Y-165989684D01*
X133431163Y-165978241D01*
X133189814Y-165916707D01*
X132975205Y-165829067D01*
X132789570Y-165717104D01*
X132635145Y-165582603D01*
X132514165Y-165427348D01*
X132428864Y-165253122D01*
X132399041Y-165154348D01*
X132383023Y-165052772D01*
X132375616Y-164926910D01*
X132376563Y-164792012D01*
X132377090Y-164784503D01*
X133244166Y-164784503D01*
X133249454Y-164898655D01*
X133268309Y-164984765D01*
X133305221Y-165056140D01*
X133356589Y-165117730D01*
X133473457Y-165210868D01*
X133622419Y-165280902D01*
X133699250Y-165304325D01*
X133796651Y-165319754D01*
X133919775Y-165325110D01*
X134053387Y-165321022D01*
X134182254Y-165308123D01*
X134291140Y-165287044D01*
X134319437Y-165278619D01*
X134415331Y-165234109D01*
X134509836Y-165169239D01*
X134590873Y-165094012D01*
X134646362Y-165018428D01*
X134654647Y-165001081D01*
X134670644Y-164941108D01*
X134681121Y-164860238D01*
X134683500Y-164803643D01*
X134669001Y-164675967D01*
X134623107Y-164558952D01*
X134542219Y-164445624D01*
X134451856Y-164354700D01*
X134382748Y-164299155D01*
X134289260Y-164233375D01*
X134182883Y-164164521D01*
X134075109Y-164099752D01*
X133977427Y-164046227D01*
X133901331Y-164011107D01*
X133898936Y-164010201D01*
X133864980Y-164015664D01*
X133806732Y-164042701D01*
X133732526Y-164085909D01*
X133650695Y-164139884D01*
X133569572Y-164199224D01*
X133497491Y-164258526D01*
X133457677Y-164296295D01*
X133401025Y-164364786D01*
X133343253Y-164450444D01*
X133308443Y-164512466D01*
X133269635Y-164600201D01*
X133250134Y-164677937D01*
X133244232Y-164769829D01*
X133244166Y-164784503D01*
X132377090Y-164784503D01*
X132385607Y-164663331D01*
X132402490Y-164556117D01*
X132409604Y-164528500D01*
X132488180Y-164334196D01*
X132605930Y-164147878D01*
X132759921Y-163973192D01*
X132947217Y-163813787D01*
X133033413Y-163753390D01*
X133193077Y-163647728D01*
X133036599Y-163543072D01*
X132846829Y-163394368D01*
X132693839Y-163227350D01*
X132578536Y-163043602D01*
X132501830Y-162844709D01*
X132464627Y-162632253D01*
X132461000Y-162538833D01*
X132466411Y-162473275D01*
X133307666Y-162473275D01*
X133324453Y-162609458D01*
X133376506Y-162731980D01*
X133466365Y-162845366D01*
X133564041Y-162930155D01*
X133627792Y-162974617D01*
X133708784Y-163025233D01*
X133797804Y-163076947D01*
X133885641Y-163124706D01*
X133963082Y-163163456D01*
X134020913Y-163188141D01*
X134045653Y-163194382D01*
X134075825Y-163183542D01*
X134130410Y-163154192D01*
X134199083Y-163112020D01*
X134219679Y-163098522D01*
X134363535Y-162986740D01*
X134477407Y-162865137D01*
X134560772Y-162737874D01*
X134613108Y-162609110D01*
X134633894Y-162483003D01*
X134622607Y-162363713D01*
X134578724Y-162255400D01*
X134501724Y-162162222D01*
X134391085Y-162088339D01*
X134348848Y-162069592D01*
X134289715Y-162048498D01*
X134230987Y-162034513D01*
X134161666Y-162026263D01*
X134070753Y-162022372D01*
X133963833Y-162021462D01*
X133847431Y-162022348D01*
X133763004Y-162026039D01*
X133700220Y-162033878D01*
X133648746Y-162047205D01*
X133598248Y-162067361D01*
X133593416Y-162069548D01*
X133466717Y-162142542D01*
X133378467Y-162230071D01*
X133326278Y-162335507D01*
X133307764Y-162462222D01*
X133307666Y-162473275D01*
X132466411Y-162473275D01*
X132479098Y-162319571D01*
X132534036Y-162120396D01*
X132626782Y-161938917D01*
X132758303Y-161772745D01*
X132779912Y-161750520D01*
X132936892Y-161619726D01*
X133123313Y-161510203D01*
X133329354Y-161427378D01*
X133402916Y-161406059D01*
X133545795Y-161377559D01*
X133716761Y-161357635D01*
X133902276Y-161347143D01*
X134088804Y-161346939D01*
X134223233Y-161354217D01*
G36*
X124354166Y-173651333D02*
G01*
X123126500Y-173651333D01*
X123126500Y-173206833D01*
X124354166Y-173206833D01*
X124354166Y-173651333D01*
G37*
X124354166Y-173651333D02*
X123126500Y-173651333D01*
X123126500Y-173206833D01*
X124354166Y-173206833D01*
X124354166Y-173651333D01*
G36*
X126809500Y-172353277D02*
G01*
X126296208Y-173425175D01*
X125782916Y-174497074D01*
X125502458Y-174497537D01*
X125399045Y-174497238D01*
X125312824Y-174496094D01*
X125251580Y-174494275D01*
X125223098Y-174491954D01*
X125222000Y-174491369D01*
X125230987Y-174471639D01*
X125256820Y-174417356D01*
X125297804Y-174332027D01*
X125352245Y-174219156D01*
X125418449Y-174082249D01*
X125494722Y-173924812D01*
X125579369Y-173750349D01*
X125670697Y-173562367D01*
X125719416Y-173462181D01*
X125813515Y-173268594D01*
X125901798Y-173086693D01*
X125982570Y-172919989D01*
X126054138Y-172771992D01*
X126114805Y-172646215D01*
X126162877Y-172546168D01*
X126196659Y-172475362D01*
X126214457Y-172437309D01*
X126216833Y-172431645D01*
X126196559Y-172429579D01*
X126139307Y-172427712D01*
X126050433Y-172426116D01*
X125935292Y-172424862D01*
X125799239Y-172424024D01*
X125647629Y-172423673D01*
X125624166Y-172423667D01*
X125031500Y-172423667D01*
X125031500Y-171936833D01*
X126809500Y-171936833D01*
X126809500Y-172353277D01*
G37*
X126809500Y-172353277D02*
X126296208Y-173425175D01*
X125782916Y-174497074D01*
X125502458Y-174497537D01*
X125399045Y-174497238D01*
X125312824Y-174496094D01*
X125251580Y-174494275D01*
X125223098Y-174491954D01*
X125222000Y-174491369D01*
X125230987Y-174471639D01*
X125256820Y-174417356D01*
X125297804Y-174332027D01*
X125352245Y-174219156D01*
X125418449Y-174082249D01*
X125494722Y-173924812D01*
X125579369Y-173750349D01*
X125670697Y-173562367D01*
X125719416Y-173462181D01*
X125813515Y-173268594D01*
X125901798Y-173086693D01*
X125982570Y-172919989D01*
X126054138Y-172771992D01*
X126114805Y-172646215D01*
X126162877Y-172546168D01*
X126196659Y-172475362D01*
X126214457Y-172437309D01*
X126216833Y-172431645D01*
X126196559Y-172429579D01*
X126139307Y-172427712D01*
X126050433Y-172426116D01*
X125935292Y-172424862D01*
X125799239Y-172424024D01*
X125647629Y-172423673D01*
X125624166Y-172423667D01*
X125031500Y-172423667D01*
X125031500Y-171936833D01*
X126809500Y-171936833D01*
X126809500Y-172353277D01*
G36*
X121496128Y-173285558D02*
G01*
X121720720Y-173331107D01*
X121916142Y-173406791D01*
X122082097Y-173512420D01*
X122218285Y-173647807D01*
X122324408Y-173812762D01*
X122398261Y-174000583D01*
X122421597Y-174116440D01*
X122433764Y-174258089D01*
X122434764Y-174410489D01*
X122424601Y-174558599D01*
X122403276Y-174687379D01*
X122398121Y-174707834D01*
X122362003Y-174824228D01*
X122316015Y-174937793D01*
X122257602Y-175051826D01*
X122184209Y-175169621D01*
X122093279Y-175294475D01*
X121982257Y-175429683D01*
X121848588Y-175578541D01*
X121689716Y-175744346D01*
X121503084Y-175930392D01*
X121291780Y-176134587D01*
X121055143Y-176360667D01*
X122576166Y-176360667D01*
X122576166Y-177016833D01*
X120057333Y-177016833D01*
X120057333Y-176502083D01*
X120655675Y-175896916D01*
X120858333Y-175690327D01*
X121032048Y-175509275D01*
X121179102Y-175350712D01*
X121301777Y-175211587D01*
X121402353Y-175088852D01*
X121483112Y-174979459D01*
X121546336Y-174880357D01*
X121594305Y-174788497D01*
X121629302Y-174700832D01*
X121653608Y-174614310D01*
X121666587Y-174545816D01*
X121676303Y-174378588D01*
X121651047Y-174231516D01*
X121591411Y-174106759D01*
X121525014Y-174029628D01*
X121409596Y-173950443D01*
X121275610Y-173906158D01*
X121127633Y-173896229D01*
X120970246Y-173920112D01*
X120808027Y-173977263D01*
X120645554Y-174067137D01*
X120536736Y-174147096D01*
X120473359Y-174197568D01*
X120433858Y-174224026D01*
X120409866Y-174229888D01*
X120393016Y-174218570D01*
X120385562Y-174208824D01*
X120361948Y-174177374D01*
X120318342Y-174120884D01*
X120261057Y-174047482D01*
X120199196Y-173968833D01*
X120128943Y-173879678D01*
X120084339Y-173815990D01*
X120066298Y-173768883D01*
X120075729Y-173729472D01*
X120113546Y-173688870D01*
X120180659Y-173638192D01*
X120237250Y-173597908D01*
X120453261Y-173461542D01*
X120668569Y-173363787D01*
X120891562Y-173301911D01*
X121130631Y-173273179D01*
X121242666Y-173270333D01*
X121496128Y-173285558D01*
G37*
X121496128Y-173285558D02*
X121720720Y-173331107D01*
X121916142Y-173406791D01*
X122082097Y-173512420D01*
X122218285Y-173647807D01*
X122324408Y-173812762D01*
X122398261Y-174000583D01*
X122421597Y-174116440D01*
X122433764Y-174258089D01*
X122434764Y-174410489D01*
X122424601Y-174558599D01*
X122403276Y-174687379D01*
X122398121Y-174707834D01*
X122362003Y-174824228D01*
X122316015Y-174937793D01*
X122257602Y-175051826D01*
X122184209Y-175169621D01*
X122093279Y-175294475D01*
X121982257Y-175429683D01*
X121848588Y-175578541D01*
X121689716Y-175744346D01*
X121503084Y-175930392D01*
X121291780Y-176134587D01*
X121055143Y-176360667D01*
X122576166Y-176360667D01*
X122576166Y-177016833D01*
X120057333Y-177016833D01*
X120057333Y-176502083D01*
X120655675Y-175896916D01*
X120858333Y-175690327D01*
X121032048Y-175509275D01*
X121179102Y-175350712D01*
X121301777Y-175211587D01*
X121402353Y-175088852D01*
X121483112Y-174979459D01*
X121546336Y-174880357D01*
X121594305Y-174788497D01*
X121629302Y-174700832D01*
X121653608Y-174614310D01*
X121666587Y-174545816D01*
X121676303Y-174378588D01*
X121651047Y-174231516D01*
X121591411Y-174106759D01*
X121525014Y-174029628D01*
X121409596Y-173950443D01*
X121275610Y-173906158D01*
X121127633Y-173896229D01*
X120970246Y-173920112D01*
X120808027Y-173977263D01*
X120645554Y-174067137D01*
X120536736Y-174147096D01*
X120473359Y-174197568D01*
X120433858Y-174224026D01*
X120409866Y-174229888D01*
X120393016Y-174218570D01*
X120385562Y-174208824D01*
X120361948Y-174177374D01*
X120318342Y-174120884D01*
X120261057Y-174047482D01*
X120199196Y-173968833D01*
X120128943Y-173879678D01*
X120084339Y-173815990D01*
X120066298Y-173768883D01*
X120075729Y-173729472D01*
X120113546Y-173688870D01*
X120180659Y-173638192D01*
X120237250Y-173597908D01*
X120453261Y-173461542D01*
X120668569Y-173363787D01*
X120891562Y-173301911D01*
X121130631Y-173273179D01*
X121242666Y-173270333D01*
X121496128Y-173285558D01*
%TD*%
M02*
