%TF.GenerationSoftware,KiCad,Pcbnew,(5.1.9)-1*%
%TF.CreationDate,2021-08-11T15:41:34+02:00*%
%TF.ProjectId,clockdiv-panel,636c6f63-6b64-4697-962d-70616e656c2e,rev?*%
%TF.SameCoordinates,Original*%
%TF.FileFunction,Copper,L1,Top*%
%TF.FilePolarity,Positive*%
%FSLAX46Y46*%
G04 Gerber Fmt 4.6, Leading zero omitted, Abs format (unit mm)*
G04 Created by KiCad (PCBNEW (5.1.9)-1) date 2021-08-11 15:41:34*
%MOMM*%
%LPD*%
G01*
G04 APERTURE LIST*
%TA.AperFunction,EtchedComponent*%
%ADD10C,0.010000*%
%TD*%
G04 APERTURE END LIST*
D10*
%TO.C,Ref\u002A\u002A*%
G36*
X130223402Y-105120008D02*
G01*
X130227464Y-105176081D01*
X130230955Y-105270239D01*
X130233835Y-105400357D01*
X130236062Y-105564312D01*
X130237594Y-105759981D01*
X130238390Y-105985241D01*
X130238500Y-106114850D01*
X130238500Y-107145667D01*
X129592916Y-107145667D01*
X129432472Y-107145118D01*
X129286566Y-107143565D01*
X129160330Y-107141146D01*
X129058894Y-107138000D01*
X128987390Y-107134265D01*
X128950949Y-107130079D01*
X128947333Y-107128235D01*
X128958257Y-107107911D01*
X128989383Y-107055771D01*
X129038238Y-106975749D01*
X129102352Y-106871781D01*
X129179253Y-106747799D01*
X129266470Y-106607738D01*
X129361531Y-106455533D01*
X129461965Y-106295117D01*
X129565301Y-106130425D01*
X129669067Y-105965392D01*
X129770792Y-105803950D01*
X129868004Y-105650035D01*
X129958233Y-105507581D01*
X130039006Y-105380522D01*
X130107852Y-105272792D01*
X130162301Y-105188325D01*
X130199880Y-105131056D01*
X130218118Y-105104920D01*
X130218811Y-105104141D01*
X130223402Y-105120008D01*
G37*
X130223402Y-105120008D02*
X130227464Y-105176081D01*
X130230955Y-105270239D01*
X130233835Y-105400357D01*
X130236062Y-105564312D01*
X130237594Y-105759981D01*
X130238390Y-105985241D01*
X130238500Y-106114850D01*
X130238500Y-107145667D01*
X129592916Y-107145667D01*
X129432472Y-107145118D01*
X129286566Y-107143565D01*
X129160330Y-107141146D01*
X129058894Y-107138000D01*
X128987390Y-107134265D01*
X128950949Y-107130079D01*
X128947333Y-107128235D01*
X128958257Y-107107911D01*
X128989383Y-107055771D01*
X129038238Y-106975749D01*
X129102352Y-106871781D01*
X129179253Y-106747799D01*
X129266470Y-106607738D01*
X129361531Y-106455533D01*
X129461965Y-106295117D01*
X129565301Y-106130425D01*
X129669067Y-105965392D01*
X129770792Y-105803950D01*
X129868004Y-105650035D01*
X129958233Y-105507581D01*
X130039006Y-105380522D01*
X130107852Y-105272792D01*
X130162301Y-105188325D01*
X130199880Y-105131056D01*
X130218118Y-105104920D01*
X130218811Y-105104141D01*
X130223402Y-105120008D01*
G36*
X130123202Y-116289233D02*
G01*
X130273264Y-116326897D01*
X130380501Y-116374725D01*
X130480359Y-116445647D01*
X130544871Y-116528106D01*
X130578895Y-116630789D01*
X130587475Y-116744750D01*
X130567133Y-116909709D01*
X130506569Y-117063176D01*
X130405525Y-117205560D01*
X130263744Y-117337273D01*
X130177821Y-117399041D01*
X130106812Y-117445206D01*
X130046939Y-117482244D01*
X130008789Y-117503659D01*
X130003794Y-117505844D01*
X129973026Y-117501149D01*
X129915459Y-117479414D01*
X129841020Y-117444657D01*
X129800076Y-117423383D01*
X129613346Y-117314983D01*
X129466317Y-117211350D01*
X129356882Y-117110596D01*
X129282935Y-117010838D01*
X129247392Y-116928755D01*
X129223769Y-116793756D01*
X129231701Y-116662569D01*
X129269012Y-116544122D01*
X129333524Y-116447340D01*
X129373654Y-116411094D01*
X129489265Y-116346599D01*
X129632285Y-116301795D01*
X129792453Y-116277052D01*
X129959512Y-116272742D01*
X130123202Y-116289233D01*
G37*
X130123202Y-116289233D02*
X130273264Y-116326897D01*
X130380501Y-116374725D01*
X130480359Y-116445647D01*
X130544871Y-116528106D01*
X130578895Y-116630789D01*
X130587475Y-116744750D01*
X130567133Y-116909709D01*
X130506569Y-117063176D01*
X130405525Y-117205560D01*
X130263744Y-117337273D01*
X130177821Y-117399041D01*
X130106812Y-117445206D01*
X130046939Y-117482244D01*
X130008789Y-117503659D01*
X130003794Y-117505844D01*
X129973026Y-117501149D01*
X129915459Y-117479414D01*
X129841020Y-117444657D01*
X129800076Y-117423383D01*
X129613346Y-117314983D01*
X129466317Y-117211350D01*
X129356882Y-117110596D01*
X129282935Y-117010838D01*
X129247392Y-116928755D01*
X129223769Y-116793756D01*
X129231701Y-116662569D01*
X129269012Y-116544122D01*
X129333524Y-116447340D01*
X129373654Y-116411094D01*
X129489265Y-116346599D01*
X129632285Y-116301795D01*
X129792453Y-116277052D01*
X129959512Y-116272742D01*
X130123202Y-116289233D01*
G36*
X129848466Y-118278407D02*
G01*
X129902182Y-118301627D01*
X129968353Y-118334295D01*
X130175706Y-118447632D01*
X130342674Y-118560668D01*
X130471135Y-118675508D01*
X130562970Y-118794258D01*
X130620057Y-118919022D01*
X130644276Y-119051907D01*
X130645418Y-119092700D01*
X130637114Y-119211272D01*
X130610000Y-119303791D01*
X130559058Y-119384228D01*
X130528243Y-119418932D01*
X130421513Y-119503075D01*
X130284954Y-119568190D01*
X130127382Y-119612529D01*
X129957613Y-119634342D01*
X129784465Y-119631880D01*
X129616754Y-119603396D01*
X129608805Y-119601294D01*
X129446583Y-119542165D01*
X129319213Y-119461913D01*
X129227812Y-119361421D01*
X129179809Y-119262502D01*
X129157329Y-119132987D01*
X129166631Y-118989412D01*
X129205026Y-118842294D01*
X129269828Y-118702147D01*
X129352817Y-118585705D01*
X129414200Y-118525993D01*
X129499568Y-118455903D01*
X129595720Y-118385291D01*
X129689455Y-118324009D01*
X129746103Y-118292172D01*
X129781591Y-118275795D01*
X129811991Y-118270502D01*
X129848466Y-118278407D01*
G37*
X129848466Y-118278407D02*
X129902182Y-118301627D01*
X129968353Y-118334295D01*
X130175706Y-118447632D01*
X130342674Y-118560668D01*
X130471135Y-118675508D01*
X130562970Y-118794258D01*
X130620057Y-118919022D01*
X130644276Y-119051907D01*
X130645418Y-119092700D01*
X130637114Y-119211272D01*
X130610000Y-119303791D01*
X130559058Y-119384228D01*
X130528243Y-119418932D01*
X130421513Y-119503075D01*
X130284954Y-119568190D01*
X130127382Y-119612529D01*
X129957613Y-119634342D01*
X129784465Y-119631880D01*
X129616754Y-119603396D01*
X129608805Y-119601294D01*
X129446583Y-119542165D01*
X129319213Y-119461913D01*
X129227812Y-119361421D01*
X129179809Y-119262502D01*
X129157329Y-119132987D01*
X129166631Y-118989412D01*
X129205026Y-118842294D01*
X129269828Y-118702147D01*
X129352817Y-118585705D01*
X129414200Y-118525993D01*
X129499568Y-118455903D01*
X129595720Y-118385291D01*
X129689455Y-118324009D01*
X129746103Y-118292172D01*
X129781591Y-118275795D01*
X129811991Y-118270502D01*
X129848466Y-118278407D01*
G36*
X132001043Y-129531084D02*
G01*
X132081688Y-129535082D01*
X132142832Y-129544069D01*
X132195871Y-129559628D01*
X132244664Y-129579916D01*
X132359693Y-129651393D01*
X132463582Y-129751826D01*
X132544713Y-129868463D01*
X132580136Y-129948088D01*
X132608208Y-130074494D01*
X132617937Y-130221883D01*
X132609706Y-130373270D01*
X132583899Y-130511672D01*
X132566182Y-130566427D01*
X132505891Y-130681988D01*
X132419998Y-130791549D01*
X132318819Y-130884563D01*
X132212676Y-130950482D01*
X132175953Y-130965305D01*
X132089260Y-130987411D01*
X131983750Y-131003834D01*
X131876025Y-131012931D01*
X131782688Y-131013060D01*
X131741333Y-131008310D01*
X131574039Y-130957536D01*
X131432216Y-130875104D01*
X131318751Y-130763069D01*
X131254848Y-130662516D01*
X131197956Y-130520421D01*
X131153785Y-130345066D01*
X131123943Y-130144037D01*
X131112333Y-129989859D01*
X131100180Y-129730635D01*
X131236772Y-129668701D01*
X131395177Y-129604308D01*
X131543186Y-129562173D01*
X131697427Y-129538773D01*
X131874528Y-129530587D01*
X131889500Y-129530487D01*
X132001043Y-129531084D01*
G37*
X132001043Y-129531084D02*
X132081688Y-129535082D01*
X132142832Y-129544069D01*
X132195871Y-129559628D01*
X132244664Y-129579916D01*
X132359693Y-129651393D01*
X132463582Y-129751826D01*
X132544713Y-129868463D01*
X132580136Y-129948088D01*
X132608208Y-130074494D01*
X132617937Y-130221883D01*
X132609706Y-130373270D01*
X132583899Y-130511672D01*
X132566182Y-130566427D01*
X132505891Y-130681988D01*
X132419998Y-130791549D01*
X132318819Y-130884563D01*
X132212676Y-130950482D01*
X132175953Y-130965305D01*
X132089260Y-130987411D01*
X131983750Y-131003834D01*
X131876025Y-131012931D01*
X131782688Y-131013060D01*
X131741333Y-131008310D01*
X131574039Y-130957536D01*
X131432216Y-130875104D01*
X131318751Y-130763069D01*
X131254848Y-130662516D01*
X131197956Y-130520421D01*
X131153785Y-130345066D01*
X131123943Y-130144037D01*
X131112333Y-129989859D01*
X131100180Y-129730635D01*
X131236772Y-129668701D01*
X131395177Y-129604308D01*
X131543186Y-129562173D01*
X131697427Y-129538773D01*
X131874528Y-129530587D01*
X131889500Y-129530487D01*
X132001043Y-129531084D01*
G36*
X132275221Y-150828822D02*
G01*
X132279782Y-150855650D01*
X132283448Y-150902777D01*
X132286308Y-150973303D01*
X132288453Y-151070327D01*
X132289971Y-151196950D01*
X132290953Y-151356270D01*
X132291487Y-151551389D01*
X132291665Y-151785404D01*
X132291666Y-151813207D01*
X132291666Y-152844500D01*
X131646083Y-152844500D01*
X131485638Y-152844170D01*
X131339731Y-152843236D01*
X131213495Y-152841781D01*
X131112059Y-152839888D01*
X131040555Y-152837642D01*
X131004115Y-152835124D01*
X131000500Y-152834015D01*
X131011386Y-152815191D01*
X131042402Y-152764492D01*
X131091083Y-152685843D01*
X131154965Y-152583168D01*
X131231581Y-152460392D01*
X131318469Y-152321440D01*
X131413162Y-152170236D01*
X131513196Y-152010705D01*
X131616107Y-151846771D01*
X131719430Y-151682359D01*
X131820699Y-151521394D01*
X131917450Y-151367801D01*
X132007219Y-151225503D01*
X132087540Y-151098425D01*
X132155949Y-150990493D01*
X132209981Y-150905630D01*
X132247172Y-150847761D01*
X132263056Y-150823665D01*
X132269676Y-150819194D01*
X132275221Y-150828822D01*
G37*
X132275221Y-150828822D02*
X132279782Y-150855650D01*
X132283448Y-150902777D01*
X132286308Y-150973303D01*
X132288453Y-151070327D01*
X132289971Y-151196950D01*
X132290953Y-151356270D01*
X132291487Y-151551389D01*
X132291665Y-151785404D01*
X132291666Y-151813207D01*
X132291666Y-152844500D01*
X131646083Y-152844500D01*
X131485638Y-152844170D01*
X131339731Y-152843236D01*
X131213495Y-152841781D01*
X131112059Y-152839888D01*
X131040555Y-152837642D01*
X131004115Y-152835124D01*
X131000500Y-152834015D01*
X131011386Y-152815191D01*
X131042402Y-152764492D01*
X131091083Y-152685843D01*
X131154965Y-152583168D01*
X131231581Y-152460392D01*
X131318469Y-152321440D01*
X131413162Y-152170236D01*
X131513196Y-152010705D01*
X131616107Y-151846771D01*
X131719430Y-151682359D01*
X131820699Y-151521394D01*
X131917450Y-151367801D01*
X132007219Y-151225503D01*
X132087540Y-151098425D01*
X132155949Y-150990493D01*
X132209981Y-150905630D01*
X132247172Y-150847761D01*
X132263056Y-150823665D01*
X132269676Y-150819194D01*
X132275221Y-150828822D01*
G36*
X128355226Y-152384913D02*
G01*
X128495476Y-152415370D01*
X128614455Y-152470296D01*
X128720532Y-152552611D01*
X128736658Y-152568309D01*
X128814357Y-152660490D01*
X128867528Y-152761174D01*
X128899219Y-152879510D01*
X128912478Y-153024647D01*
X128913264Y-153098500D01*
X128895580Y-153294089D01*
X128845680Y-153462232D01*
X128763538Y-153602977D01*
X128649124Y-153716377D01*
X128529244Y-153789956D01*
X128462362Y-153819487D01*
X128399150Y-153838028D01*
X128325021Y-153848495D01*
X128225388Y-153853803D01*
X128207205Y-153854338D01*
X128054450Y-153852346D01*
X127939048Y-153837102D01*
X127908243Y-153828786D01*
X127775656Y-153764524D01*
X127662440Y-153663389D01*
X127569112Y-153526413D01*
X127496189Y-153354625D01*
X127444185Y-153149056D01*
X127413619Y-152910736D01*
X127408669Y-152832232D01*
X127396073Y-152576548D01*
X127563161Y-152509901D01*
X127727516Y-152449332D01*
X127870661Y-152408936D01*
X128006778Y-152385661D01*
X128150050Y-152376454D01*
X128185333Y-152376007D01*
X128355226Y-152384913D01*
G37*
X128355226Y-152384913D02*
X128495476Y-152415370D01*
X128614455Y-152470296D01*
X128720532Y-152552611D01*
X128736658Y-152568309D01*
X128814357Y-152660490D01*
X128867528Y-152761174D01*
X128899219Y-152879510D01*
X128912478Y-153024647D01*
X128913264Y-153098500D01*
X128895580Y-153294089D01*
X128845680Y-153462232D01*
X128763538Y-153602977D01*
X128649124Y-153716377D01*
X128529244Y-153789956D01*
X128462362Y-153819487D01*
X128399150Y-153838028D01*
X128325021Y-153848495D01*
X128225388Y-153853803D01*
X128207205Y-153854338D01*
X128054450Y-153852346D01*
X127939048Y-153837102D01*
X127908243Y-153828786D01*
X127775656Y-153764524D01*
X127662440Y-153663389D01*
X127569112Y-153526413D01*
X127496189Y-153354625D01*
X127444185Y-153149056D01*
X127413619Y-152910736D01*
X127408669Y-152832232D01*
X127396073Y-152576548D01*
X127563161Y-152509901D01*
X127727516Y-152449332D01*
X127870661Y-152408936D01*
X128006778Y-152385661D01*
X128150050Y-152376454D01*
X128185333Y-152376007D01*
X128355226Y-152384913D01*
G36*
X134055180Y-161994555D02*
G01*
X134219409Y-162012468D01*
X134351198Y-162044977D01*
X134458641Y-162094462D01*
X134507443Y-162127593D01*
X134579746Y-162197016D01*
X134624449Y-162278568D01*
X134645857Y-162382481D01*
X134649321Y-162464750D01*
X134633098Y-162619650D01*
X134582929Y-162760780D01*
X134496572Y-162891773D01*
X134371784Y-163016261D01*
X134253270Y-163106407D01*
X134179749Y-163156243D01*
X134117367Y-163196721D01*
X134075712Y-163221697D01*
X134066333Y-163226223D01*
X134037114Y-163220965D01*
X133979591Y-163198888D01*
X133902503Y-163163666D01*
X133827420Y-163125769D01*
X133670382Y-163033333D01*
X133533919Y-162933352D01*
X133424202Y-162831102D01*
X133347397Y-162731858D01*
X133330255Y-162700520D01*
X133301383Y-162610179D01*
X133287247Y-162500142D01*
X133288827Y-162389351D01*
X133307109Y-162296743D01*
X133309013Y-162291503D01*
X133369859Y-162188901D01*
X133465553Y-162106380D01*
X133593045Y-162045154D01*
X133749287Y-162006434D01*
X133931230Y-161991436D01*
X134055180Y-161994555D01*
G37*
X134055180Y-161994555D02*
X134219409Y-162012468D01*
X134351198Y-162044977D01*
X134458641Y-162094462D01*
X134507443Y-162127593D01*
X134579746Y-162197016D01*
X134624449Y-162278568D01*
X134645857Y-162382481D01*
X134649321Y-162464750D01*
X134633098Y-162619650D01*
X134582929Y-162760780D01*
X134496572Y-162891773D01*
X134371784Y-163016261D01*
X134253270Y-163106407D01*
X134179749Y-163156243D01*
X134117367Y-163196721D01*
X134075712Y-163221697D01*
X134066333Y-163226223D01*
X134037114Y-163220965D01*
X133979591Y-163198888D01*
X133902503Y-163163666D01*
X133827420Y-163125769D01*
X133670382Y-163033333D01*
X133533919Y-162933352D01*
X133424202Y-162831102D01*
X133347397Y-162731858D01*
X133330255Y-162700520D01*
X133301383Y-162610179D01*
X133287247Y-162500142D01*
X133288827Y-162389351D01*
X133307109Y-162296743D01*
X133309013Y-162291503D01*
X133369859Y-162188901D01*
X133465553Y-162106380D01*
X133593045Y-162045154D01*
X133749287Y-162006434D01*
X133931230Y-161991436D01*
X134055180Y-161994555D01*
G36*
X133909617Y-163987822D02*
G01*
X133966492Y-164013566D01*
X134039357Y-164050559D01*
X134067860Y-164065897D01*
X134257677Y-164176220D01*
X134409407Y-164280215D01*
X134526122Y-164381471D01*
X134610893Y-164483575D01*
X134666788Y-164590114D01*
X134696879Y-164704678D01*
X134704459Y-164809801D01*
X134688311Y-164955228D01*
X134638460Y-165076721D01*
X134553481Y-165176225D01*
X134431945Y-165255685D01*
X134351859Y-165290474D01*
X134256213Y-165316437D01*
X134133595Y-165335323D01*
X133998925Y-165346134D01*
X133867127Y-165347871D01*
X133753123Y-165339533D01*
X133715541Y-165333089D01*
X133548271Y-165280949D01*
X133411450Y-165202941D01*
X133307265Y-165100538D01*
X133260990Y-165027339D01*
X133239330Y-164977443D01*
X133227671Y-164924808D01*
X133224329Y-164856163D01*
X133227387Y-164762756D01*
X133240901Y-164631243D01*
X133270421Y-164523173D01*
X133321890Y-164425130D01*
X133401248Y-164323698D01*
X133441019Y-164280346D01*
X133500989Y-164223773D01*
X133577026Y-164161715D01*
X133660281Y-164100276D01*
X133741905Y-164045559D01*
X133813051Y-164003667D01*
X133864870Y-163980702D01*
X133879137Y-163978167D01*
X133909617Y-163987822D01*
G37*
X133909617Y-163987822D02*
X133966492Y-164013566D01*
X134039357Y-164050559D01*
X134067860Y-164065897D01*
X134257677Y-164176220D01*
X134409407Y-164280215D01*
X134526122Y-164381471D01*
X134610893Y-164483575D01*
X134666788Y-164590114D01*
X134696879Y-164704678D01*
X134704459Y-164809801D01*
X134688311Y-164955228D01*
X134638460Y-165076721D01*
X134553481Y-165176225D01*
X134431945Y-165255685D01*
X134351859Y-165290474D01*
X134256213Y-165316437D01*
X134133595Y-165335323D01*
X133998925Y-165346134D01*
X133867127Y-165347871D01*
X133753123Y-165339533D01*
X133715541Y-165333089D01*
X133548271Y-165280949D01*
X133411450Y-165202941D01*
X133307265Y-165100538D01*
X133260990Y-165027339D01*
X133239330Y-164977443D01*
X133227671Y-164924808D01*
X133224329Y-164856163D01*
X133227387Y-164762756D01*
X133240901Y-164631243D01*
X133270421Y-164523173D01*
X133321890Y-164425130D01*
X133401248Y-164323698D01*
X133441019Y-164280346D01*
X133500989Y-164223773D01*
X133577026Y-164161715D01*
X133660281Y-164100276D01*
X133741905Y-164045559D01*
X133813051Y-164003667D01*
X133864870Y-163980702D01*
X133879137Y-163978167D01*
X133909617Y-163987822D01*
G36*
X137689166Y-183366833D02*
G01*
X107731284Y-183366833D01*
X107745392Y-162376558D01*
X107745511Y-162192166D01*
X124707129Y-162192166D01*
X124717808Y-162237061D01*
X124740906Y-162305380D01*
X124778073Y-162403061D01*
X124808097Y-162478949D01*
X124850809Y-162584712D01*
X124888839Y-162676432D01*
X124919134Y-162746932D01*
X124938641Y-162789033D01*
X124943579Y-162797397D01*
X124965298Y-162791764D01*
X125018767Y-162767961D01*
X125098838Y-162728575D01*
X125200367Y-162676193D01*
X125318206Y-162613403D01*
X125419702Y-162558001D01*
X125548109Y-162487393D01*
X125665215Y-162423373D01*
X125765613Y-162368867D01*
X125843896Y-162326799D01*
X125894658Y-162300096D01*
X125911497Y-162291881D01*
X125917457Y-162294185D01*
X125922597Y-162307846D01*
X125926975Y-162335638D01*
X125930649Y-162380331D01*
X125933678Y-162444696D01*
X125936118Y-162531506D01*
X125938028Y-162643531D01*
X125939467Y-162783543D01*
X125940492Y-162954314D01*
X125941161Y-163158614D01*
X125941532Y-163399216D01*
X125941663Y-163678890D01*
X125941666Y-163732485D01*
X125941666Y-165184667D01*
X124798666Y-165184667D01*
X124798666Y-165925500D01*
X127783166Y-165925500D01*
X127783166Y-165184667D01*
X126788333Y-165184667D01*
X126788333Y-161956750D01*
X128588514Y-161956750D01*
X128799907Y-162225600D01*
X129011299Y-162494450D01*
X129150806Y-162388857D01*
X129335512Y-162263338D01*
X129511880Y-162174497D01*
X129687064Y-162119620D01*
X129868221Y-162095989D01*
X129926064Y-162094584D01*
X130103993Y-162109864D01*
X130254075Y-162156642D01*
X130377320Y-162235441D01*
X130474736Y-162346783D01*
X130502848Y-162393413D01*
X130533568Y-162455018D01*
X130553216Y-162512761D01*
X130564897Y-162580541D01*
X130571715Y-162672260D01*
X130573391Y-162709281D01*
X130571627Y-162874960D01*
X130549912Y-163027474D01*
X130505305Y-163174598D01*
X130434868Y-163324107D01*
X130335662Y-163483776D01*
X130221737Y-163639500D01*
X130178575Y-163691035D01*
X130109019Y-163768585D01*
X130016705Y-163868323D01*
X129905267Y-163986426D01*
X129778342Y-164119068D01*
X129639565Y-164262423D01*
X129492570Y-164412668D01*
X129345769Y-164561172D01*
X128608666Y-165302928D01*
X128608666Y-165925500D01*
X131635500Y-165925500D01*
X131635500Y-165163931D01*
X129728848Y-165152917D01*
X129990076Y-164904870D01*
X132399801Y-164904870D01*
X132400632Y-164932248D01*
X132405796Y-165037482D01*
X132414225Y-165114969D01*
X132429158Y-165179298D01*
X132453837Y-165245054D01*
X132485480Y-165314191D01*
X132588300Y-165485033D01*
X132723195Y-165631380D01*
X132891139Y-165753884D01*
X133093107Y-165853195D01*
X133330072Y-165929965D01*
X133448061Y-165957264D01*
X133555977Y-165972423D01*
X133694398Y-165981336D01*
X133852387Y-165984296D01*
X134019008Y-165981593D01*
X134183324Y-165973520D01*
X134334398Y-165960367D01*
X134461293Y-165942426D01*
X134524750Y-165928570D01*
X134763125Y-165847398D01*
X134973998Y-165739257D01*
X135155125Y-165606107D01*
X135304262Y-165449906D01*
X135419165Y-165272613D01*
X135496397Y-165080283D01*
X135514407Y-164989045D01*
X135525491Y-164870824D01*
X135529382Y-164740443D01*
X135525816Y-164612725D01*
X135514526Y-164502493D01*
X135507422Y-164465000D01*
X135468649Y-164345854D01*
X135406646Y-164213185D01*
X135329469Y-164081992D01*
X135245173Y-163967273D01*
X135231746Y-163951657D01*
X135165061Y-163885432D01*
X135074436Y-163808258D01*
X134972493Y-163730520D01*
X134911153Y-163687931D01*
X134697904Y-163545966D01*
X134757330Y-163502774D01*
X134930279Y-163370943D01*
X135069374Y-163250042D01*
X135179659Y-163134294D01*
X135266177Y-163017917D01*
X135333970Y-162895133D01*
X135376296Y-162793365D01*
X135403569Y-162713540D01*
X135420917Y-162643552D01*
X135430478Y-162569066D01*
X135434390Y-162475744D01*
X135434916Y-162400152D01*
X135434282Y-162296071D01*
X135430666Y-162221564D01*
X135421502Y-162163876D01*
X135404223Y-162110249D01*
X135376260Y-162047929D01*
X135355487Y-162005507D01*
X135252114Y-161838076D01*
X135119999Y-161697833D01*
X134956892Y-161583044D01*
X134760545Y-161491975D01*
X134635591Y-161450795D01*
X134390242Y-161395656D01*
X134135395Y-161367744D01*
X133878705Y-161366365D01*
X133627829Y-161390824D01*
X133390423Y-161440428D01*
X133174143Y-161514483D01*
X133009156Y-161598239D01*
X132841572Y-161723607D01*
X132704167Y-161874894D01*
X132598474Y-162046853D01*
X132526024Y-162234236D01*
X132488351Y-162431795D01*
X132486985Y-162634283D01*
X132523459Y-162836450D01*
X132593649Y-163021574D01*
X132669475Y-163146630D01*
X132774427Y-163276307D01*
X132898267Y-163399653D01*
X133030753Y-163505717D01*
X133072435Y-163533667D01*
X133140752Y-163579630D01*
X133192454Y-163619031D01*
X133219164Y-163645307D01*
X133221064Y-163650083D01*
X133203975Y-163669746D01*
X133158539Y-163705887D01*
X133092406Y-163752706D01*
X133039544Y-163787667D01*
X132856473Y-163924040D01*
X132698248Y-164079364D01*
X132569255Y-164247946D01*
X132473882Y-164424095D01*
X132418345Y-164593582D01*
X132406677Y-164675824D01*
X132400227Y-164784733D01*
X132399801Y-164904870D01*
X129990076Y-164904870D01*
X130137132Y-164765235D01*
X130374112Y-164537366D01*
X130580207Y-164332526D01*
X130757797Y-164147555D01*
X130909257Y-163979293D01*
X131036966Y-163824580D01*
X131143301Y-163680258D01*
X131230639Y-163543166D01*
X131301357Y-163410145D01*
X131357833Y-163278036D01*
X131402445Y-163143678D01*
X131426777Y-163051263D01*
X131454055Y-162890402D01*
X131465193Y-162713638D01*
X131460645Y-162534236D01*
X131440864Y-162365460D01*
X131406306Y-162220573D01*
X131397448Y-162195054D01*
X131301938Y-161986302D01*
X131181624Y-161810613D01*
X131034275Y-161665234D01*
X130884404Y-161562453D01*
X130743919Y-161496398D01*
X130574068Y-161440649D01*
X130387081Y-161397641D01*
X130195187Y-161369806D01*
X130010614Y-161359576D01*
X129889250Y-161364467D01*
X129626010Y-161406482D01*
X129363870Y-161482794D01*
X129111970Y-161589502D01*
X128879454Y-161722708D01*
X128675462Y-161878510D01*
X128667382Y-161885736D01*
X128588514Y-161956750D01*
X126788333Y-161956750D01*
X126788333Y-161417000D01*
X126088549Y-161417000D01*
X125417149Y-161769573D01*
X125261081Y-161851838D01*
X125116230Y-161928781D01*
X124987046Y-161997994D01*
X124877979Y-162057067D01*
X124793479Y-162103593D01*
X124737994Y-162135162D01*
X124716432Y-162148897D01*
X124707220Y-162164757D01*
X124707129Y-162192166D01*
X107745511Y-162192166D01*
X107745861Y-161655121D01*
X107746326Y-160892463D01*
X107746788Y-160089694D01*
X107747245Y-159247927D01*
X107747697Y-158368273D01*
X107748145Y-157451844D01*
X107748589Y-156499750D01*
X107749026Y-155513105D01*
X107749459Y-154493019D01*
X107749886Y-153440604D01*
X107750201Y-152629001D01*
X126527520Y-152629001D01*
X126541849Y-152907217D01*
X126572136Y-153169402D01*
X126618526Y-153406685D01*
X126653830Y-153532417D01*
X126745831Y-153756293D01*
X126869906Y-153959644D01*
X127022056Y-154138434D01*
X127198284Y-154288626D01*
X127394589Y-154406184D01*
X127596748Y-154484168D01*
X127792600Y-154526057D01*
X128010894Y-154547747D01*
X128236700Y-154548917D01*
X128455084Y-154529247D01*
X128584891Y-154505384D01*
X128834248Y-154429236D01*
X129060340Y-154320982D01*
X129260396Y-154182700D01*
X129431645Y-154016470D01*
X129571319Y-153824369D01*
X129626138Y-153723979D01*
X129692174Y-153572276D01*
X129736529Y-153424034D01*
X129761479Y-153267087D01*
X129769298Y-153089267D01*
X129766870Y-152971500D01*
X129756408Y-152855036D01*
X130196166Y-152855036D01*
X130196166Y-153564167D01*
X132291666Y-153564167D01*
X132291666Y-154474333D01*
X133096000Y-154474333D01*
X133096000Y-153564167D01*
X133773333Y-153564167D01*
X133773333Y-152844500D01*
X133096000Y-152844500D01*
X133096000Y-149986319D01*
X131947680Y-149997583D01*
X131071923Y-151426310D01*
X130196166Y-152855036D01*
X129756408Y-152855036D01*
X129745763Y-152736537D01*
X129700413Y-152532064D01*
X129628610Y-152352423D01*
X129528145Y-152191957D01*
X129409961Y-152057839D01*
X129250501Y-151927464D01*
X129065254Y-151826663D01*
X128852582Y-151754883D01*
X128610851Y-151711566D01*
X128344083Y-151696197D01*
X128130799Y-151701566D01*
X127942383Y-151722889D01*
X127763531Y-151762755D01*
X127578942Y-151823754D01*
X127569599Y-151827287D01*
X127504952Y-151850889D01*
X127456763Y-151866700D01*
X127439208Y-151870822D01*
X127426906Y-151857219D01*
X127425235Y-151814123D01*
X127434484Y-151738139D01*
X127454939Y-151625873D01*
X127463504Y-151583639D01*
X127508686Y-151406692D01*
X127566891Y-151260776D01*
X127643462Y-151135287D01*
X127743743Y-151019626D01*
X127751819Y-151011594D01*
X127857090Y-150921095D01*
X127974710Y-150847245D01*
X128109242Y-150788860D01*
X128265244Y-150744754D01*
X128447278Y-150713740D01*
X128659903Y-150694633D01*
X128907681Y-150686247D01*
X129005541Y-150685625D01*
X129391833Y-150685500D01*
X129391833Y-149980833D01*
X128931458Y-149993220D01*
X128692759Y-150002234D01*
X128488976Y-150015958D01*
X128312864Y-150035287D01*
X128157177Y-150061118D01*
X128014669Y-150094345D01*
X127940697Y-150115662D01*
X127665720Y-150216830D01*
X127424966Y-150341784D01*
X127216401Y-150492468D01*
X127037986Y-150670824D01*
X126887684Y-150878794D01*
X126763457Y-151118320D01*
X126690174Y-151308003D01*
X126626887Y-151533283D01*
X126578833Y-151786896D01*
X126546157Y-152059968D01*
X126529005Y-152343627D01*
X126527520Y-152629001D01*
X107750201Y-152629001D01*
X107750307Y-152356971D01*
X107750721Y-151243233D01*
X107751130Y-150100500D01*
X107751531Y-148929885D01*
X107751926Y-147732499D01*
X107752314Y-146509453D01*
X107752694Y-145261859D01*
X107753067Y-143990829D01*
X107753432Y-142697475D01*
X107753432Y-142694124D01*
X126661333Y-142694124D01*
X126661333Y-143042415D01*
X126730125Y-143054640D01*
X126859535Y-143072353D01*
X127021441Y-143086325D01*
X127206158Y-143096409D01*
X127404003Y-143102458D01*
X127605291Y-143104328D01*
X127800337Y-143101872D01*
X127979457Y-143094943D01*
X128132967Y-143083397D01*
X128191004Y-143076669D01*
X128420987Y-143038530D01*
X128624078Y-142987438D01*
X128814795Y-142919249D01*
X128942929Y-142861908D01*
X129149980Y-142741162D01*
X129324525Y-142594070D01*
X129465611Y-142421761D01*
X129572287Y-142225367D01*
X129635564Y-142038917D01*
X129653400Y-141940508D01*
X129664472Y-141818968D01*
X129668551Y-141688509D01*
X129665410Y-141563342D01*
X129654819Y-141457678D01*
X129645634Y-141412643D01*
X129576396Y-141232569D01*
X129471171Y-141071198D01*
X129333327Y-140931640D01*
X129166233Y-140817004D01*
X128973257Y-140730400D01*
X128873556Y-140699996D01*
X128804491Y-140680350D01*
X128755401Y-140663459D01*
X128736800Y-140652944D01*
X128736805Y-140652873D01*
X128754901Y-140638750D01*
X128801185Y-140612368D01*
X128864025Y-140580245D01*
X129039073Y-140472311D01*
X129184072Y-140335695D01*
X129297480Y-140173012D01*
X129377753Y-139986879D01*
X129423347Y-139779911D01*
X129433853Y-139614489D01*
X129417782Y-139402747D01*
X129367810Y-139214655D01*
X129297217Y-139075583D01*
X130489537Y-139075583D01*
X130922699Y-139632329D01*
X131045937Y-139529769D01*
X131158988Y-139447571D01*
X131291981Y-139369501D01*
X131431315Y-139302311D01*
X131563386Y-139252754D01*
X131646083Y-139231830D01*
X131824305Y-139215643D01*
X131991676Y-139232329D01*
X132142153Y-139280248D01*
X132269691Y-139357758D01*
X132333207Y-139418374D01*
X132407033Y-139520869D01*
X132454139Y-139634531D01*
X132477799Y-139769488D01*
X132482166Y-139879240D01*
X132478768Y-139987604D01*
X132467321Y-140090887D01*
X132445942Y-140191843D01*
X132412750Y-140293225D01*
X132365864Y-140397783D01*
X132303401Y-140508272D01*
X132223481Y-140627443D01*
X132124223Y-140758049D01*
X132003743Y-140902843D01*
X131860162Y-141064576D01*
X131691597Y-141246003D01*
X131496167Y-141449874D01*
X131271990Y-141678943D01*
X131206875Y-141744877D01*
X130513666Y-142445711D01*
X130513666Y-143044333D01*
X133540500Y-143044333D01*
X133540500Y-142282333D01*
X132593291Y-142281851D01*
X131646083Y-142281369D01*
X132166387Y-141775360D01*
X132373107Y-141572628D01*
X132550853Y-141394064D01*
X132702485Y-141235937D01*
X132830870Y-141094516D01*
X132938869Y-140966071D01*
X133029347Y-140846869D01*
X133105167Y-140733181D01*
X133169193Y-140621274D01*
X133224289Y-140507419D01*
X133273318Y-140387885D01*
X133310350Y-140284924D01*
X133336550Y-140179243D01*
X133355374Y-140044500D01*
X133366358Y-139893395D01*
X133369041Y-139738632D01*
X133362960Y-139592911D01*
X133347654Y-139468935D01*
X133341178Y-139437814D01*
X133295658Y-139294386D01*
X133228092Y-139144597D01*
X133147252Y-139006006D01*
X133081484Y-138917976D01*
X132941692Y-138786117D01*
X132769226Y-138676860D01*
X132568101Y-138591683D01*
X132342329Y-138532064D01*
X132095925Y-138499481D01*
X131929078Y-138493500D01*
X131668569Y-138508024D01*
X131425823Y-138553253D01*
X131208759Y-138623179D01*
X131095782Y-138673780D01*
X130964046Y-138743882D01*
X130826950Y-138825455D01*
X130697893Y-138910469D01*
X130590274Y-138990894D01*
X130577479Y-139001500D01*
X130489537Y-139075583D01*
X129297217Y-139075583D01*
X129282626Y-139046840D01*
X129160916Y-138895929D01*
X129149685Y-138884608D01*
X129024181Y-138775836D01*
X128884215Y-138687541D01*
X128719728Y-138614135D01*
X128576347Y-138566128D01*
X128500851Y-138544806D01*
X128431406Y-138529056D01*
X128358570Y-138517768D01*
X128272896Y-138509832D01*
X128164940Y-138504138D01*
X128025258Y-138499576D01*
X128005416Y-138499038D01*
X127747533Y-138498526D01*
X127514567Y-138512884D01*
X127291173Y-138543911D01*
X127062005Y-138593402D01*
X126952375Y-138622323D01*
X126788333Y-138667691D01*
X126788333Y-139352385D01*
X127058847Y-139284523D01*
X127332057Y-139225039D01*
X127583894Y-139188551D01*
X127811831Y-139174986D01*
X128013338Y-139184270D01*
X128185888Y-139216330D01*
X128326952Y-139271091D01*
X128406681Y-139323773D01*
X128487134Y-139404502D01*
X128539641Y-139495347D01*
X128568164Y-139606062D01*
X128576662Y-139742333D01*
X128563384Y-139910287D01*
X128521332Y-140049781D01*
X128447962Y-140164211D01*
X128340726Y-140256972D01*
X128197078Y-140331457D01*
X128111250Y-140362762D01*
X128052336Y-140379098D01*
X127984200Y-140391525D01*
X127899137Y-140400818D01*
X127789439Y-140407755D01*
X127647402Y-140413114D01*
X127597958Y-140414513D01*
X127211666Y-140424838D01*
X127211666Y-141033500D01*
X127492125Y-141033674D01*
X127780410Y-141041501D01*
X128030272Y-141064987D01*
X128242843Y-141104711D01*
X128419257Y-141161254D01*
X128560646Y-141235193D01*
X128668144Y-141327109D01*
X128742884Y-141437581D01*
X128785998Y-141567188D01*
X128798701Y-141701771D01*
X128782820Y-141871142D01*
X128733434Y-142016904D01*
X128649619Y-142140093D01*
X128530452Y-142241742D01*
X128375008Y-142322885D01*
X128190625Y-142382494D01*
X128104197Y-142397338D01*
X127984069Y-142408187D01*
X127838683Y-142415059D01*
X127676480Y-142417968D01*
X127505903Y-142416931D01*
X127335395Y-142411964D01*
X127173398Y-142403083D01*
X127028354Y-142390304D01*
X126948690Y-142380141D01*
X126852361Y-142366209D01*
X126770214Y-142354998D01*
X126712097Y-142347811D01*
X126689398Y-142345833D01*
X126678607Y-142354333D01*
X126670820Y-142383194D01*
X126665629Y-142437462D01*
X126662629Y-142522180D01*
X126661412Y-142642393D01*
X126661333Y-142694124D01*
X107753432Y-142694124D01*
X107753788Y-141382907D01*
X107754137Y-140048238D01*
X107754476Y-138694578D01*
X107754807Y-137323041D01*
X107755129Y-135934736D01*
X107755441Y-134530777D01*
X107755744Y-133112274D01*
X107756037Y-131680339D01*
X107756320Y-130236084D01*
X107756592Y-128780619D01*
X107756756Y-127858363D01*
X126411701Y-127858363D01*
X126417307Y-127877917D01*
X126435693Y-127928838D01*
X126463767Y-128003247D01*
X126498437Y-128093266D01*
X126536608Y-128191016D01*
X126575188Y-128288620D01*
X126611083Y-128378200D01*
X126641200Y-128451877D01*
X126662447Y-128501774D01*
X126671403Y-128519812D01*
X126690816Y-128511738D01*
X126742279Y-128485699D01*
X126820853Y-128444322D01*
X126921599Y-128390235D01*
X127039579Y-128326065D01*
X127158845Y-128260521D01*
X127289110Y-128188977D01*
X127407424Y-128124725D01*
X127508679Y-128070480D01*
X127587768Y-128028957D01*
X127639584Y-128002870D01*
X127658685Y-127994833D01*
X127661956Y-128015483D01*
X127665019Y-128075364D01*
X127667833Y-128171375D01*
X127670360Y-128300415D01*
X127672560Y-128459381D01*
X127674391Y-128645173D01*
X127675815Y-128854690D01*
X127676792Y-129084828D01*
X127677282Y-129332488D01*
X127677333Y-129444750D01*
X127677333Y-130894667D01*
X126534333Y-130894667D01*
X126534333Y-131614333D01*
X129497666Y-131614333D01*
X129497666Y-130894667D01*
X128524000Y-130894667D01*
X128524000Y-129693137D01*
X130223069Y-129693137D01*
X130234343Y-130009350D01*
X130268569Y-130303885D01*
X130325174Y-130571518D01*
X130390552Y-130774203D01*
X130499135Y-131003299D01*
X130636103Y-131201034D01*
X130800893Y-131366934D01*
X130992938Y-131500524D01*
X131211675Y-131601330D01*
X131455583Y-131668689D01*
X131562626Y-131682697D01*
X131698269Y-131689964D01*
X131849910Y-131690819D01*
X132004947Y-131685592D01*
X132150776Y-131674611D01*
X132274794Y-131658206D01*
X132334000Y-131645766D01*
X132457110Y-131606280D01*
X132593423Y-131549801D01*
X132729749Y-131482867D01*
X132852899Y-131412014D01*
X132949684Y-131343779D01*
X132958963Y-131336024D01*
X133137900Y-131157193D01*
X133278981Y-130959516D01*
X133381965Y-130743574D01*
X133446608Y-130509947D01*
X133472668Y-130259214D01*
X133470337Y-130111881D01*
X133446069Y-129880065D01*
X133399677Y-129679707D01*
X133328802Y-129504825D01*
X133231079Y-129349440D01*
X133118844Y-129221935D01*
X132971008Y-129094536D01*
X132810979Y-128996004D01*
X132632749Y-128924058D01*
X132430313Y-128876417D01*
X132197664Y-128850800D01*
X132132916Y-128847523D01*
X131861916Y-128849438D01*
X131613098Y-128879477D01*
X131375341Y-128939632D01*
X131161153Y-129021371D01*
X131139499Y-129028095D01*
X131128954Y-129018331D01*
X131127607Y-128983864D01*
X131133548Y-128916480D01*
X131134543Y-128906915D01*
X131174871Y-128669149D01*
X131243004Y-128463082D01*
X131339236Y-128288235D01*
X131463864Y-128144131D01*
X131617182Y-128030290D01*
X131704285Y-127984757D01*
X131807438Y-127941411D01*
X131912654Y-127907034D01*
X132026986Y-127880477D01*
X132157482Y-127860592D01*
X132311192Y-127846230D01*
X132495167Y-127836241D01*
X132646208Y-127831222D01*
X133096000Y-127819054D01*
X133096000Y-127143026D01*
X132572125Y-127154281D01*
X132373124Y-127159595D01*
X132211517Y-127166336D01*
X132082376Y-127174844D01*
X131980775Y-127185456D01*
X131901788Y-127198509D01*
X131889904Y-127201074D01*
X131597051Y-127279500D01*
X131340366Y-127376130D01*
X131116889Y-127493005D01*
X130923660Y-127632168D01*
X130757720Y-127795660D01*
X130616110Y-127985523D01*
X130526487Y-128141775D01*
X130444350Y-128317939D01*
X130377797Y-128499225D01*
X130324990Y-128693325D01*
X130284091Y-128907932D01*
X130253263Y-129150737D01*
X130235322Y-129360472D01*
X130223069Y-129693137D01*
X128524000Y-129693137D01*
X128524000Y-127105833D01*
X127840217Y-127105833D01*
X127129067Y-127479967D01*
X126969684Y-127563843D01*
X126822436Y-127641382D01*
X126691439Y-127710412D01*
X126580813Y-127768760D01*
X126494676Y-127814254D01*
X126437148Y-127844721D01*
X126412347Y-127857989D01*
X126411701Y-127858363D01*
X107756756Y-127858363D01*
X107756854Y-127315058D01*
X107757106Y-125840511D01*
X107757346Y-124358090D01*
X107757574Y-122868906D01*
X107757792Y-121374072D01*
X107757997Y-119874698D01*
X107758092Y-119133521D01*
X128334017Y-119133521D01*
X128344989Y-119329753D01*
X128378888Y-119496877D01*
X128438903Y-119643236D01*
X128528221Y-119777172D01*
X128617659Y-119875786D01*
X128771518Y-120000623D01*
X128957240Y-120103701D01*
X129169793Y-120184015D01*
X129404143Y-120240559D01*
X129655258Y-120272330D01*
X129918104Y-120278322D01*
X130187649Y-120257531D01*
X130376083Y-120226810D01*
X130553938Y-120185068D01*
X130704681Y-120134205D01*
X130843415Y-120068287D01*
X130962553Y-119996398D01*
X131139144Y-119859286D01*
X131278054Y-119703092D01*
X131379727Y-119526993D01*
X131444602Y-119330165D01*
X131473122Y-119111785D01*
X131474654Y-119041333D01*
X131455724Y-118816344D01*
X131399208Y-118608110D01*
X131304456Y-118415547D01*
X131170820Y-118237573D01*
X130997650Y-118073103D01*
X130814862Y-117940503D01*
X130742628Y-117891489D01*
X130688329Y-117850231D01*
X130658769Y-117822171D01*
X130656112Y-117813529D01*
X130680209Y-117795568D01*
X130729419Y-117760277D01*
X130794128Y-117714538D01*
X130810000Y-117703398D01*
X130976330Y-117569810D01*
X131118121Y-117421382D01*
X131228170Y-117266120D01*
X131264302Y-117198492D01*
X131327453Y-117046150D01*
X131364627Y-116900275D01*
X131379082Y-116744170D01*
X131377386Y-116618967D01*
X131370220Y-116514463D01*
X131357294Y-116434820D01*
X131334555Y-116362599D01*
X131299319Y-116283211D01*
X131197541Y-116119574D01*
X131061708Y-115979110D01*
X130893654Y-115862543D01*
X130695217Y-115770597D01*
X130468232Y-115703997D01*
X130214535Y-115663466D01*
X129935962Y-115649729D01*
X129713055Y-115657363D01*
X129455425Y-115690907D01*
X129221620Y-115754210D01*
X129013628Y-115845467D01*
X128833435Y-115962877D01*
X128683028Y-116104636D01*
X128564395Y-116268941D01*
X128479521Y-116453990D01*
X128430395Y-116657980D01*
X128418166Y-116832262D01*
X128438674Y-117039590D01*
X128499949Y-117236305D01*
X128601621Y-117421780D01*
X128743318Y-117595386D01*
X128924667Y-117756494D01*
X128994901Y-117808037D01*
X129065643Y-117859095D01*
X129120763Y-117901715D01*
X129152693Y-117929894D01*
X129157625Y-117937137D01*
X129140355Y-117953795D01*
X129094865Y-117987488D01*
X129028792Y-118032745D01*
X128975482Y-118067667D01*
X128770498Y-118219957D01*
X128604566Y-118387496D01*
X128477917Y-118569898D01*
X128390787Y-118766774D01*
X128343407Y-118977736D01*
X128334017Y-119133521D01*
X107758092Y-119133521D01*
X107758191Y-118371897D01*
X107758372Y-116866780D01*
X107758540Y-115360458D01*
X107758696Y-113854043D01*
X107758839Y-112348647D01*
X107758969Y-110845382D01*
X107759085Y-109345358D01*
X107759187Y-107849687D01*
X107759228Y-107140851D01*
X128143000Y-107140851D01*
X128143000Y-107865333D01*
X130238500Y-107865333D01*
X130238500Y-108775500D01*
X131021666Y-108775500D01*
X131021666Y-107865333D01*
X131720166Y-107865333D01*
X131720166Y-107146715D01*
X131032250Y-107135083D01*
X131021368Y-104288167D01*
X129889250Y-104288783D01*
X128143000Y-107140851D01*
X107759228Y-107140851D01*
X107759275Y-106359482D01*
X107759349Y-104875853D01*
X107759409Y-103399913D01*
X107759454Y-101932772D01*
X107759483Y-100475543D01*
X107759498Y-99029337D01*
X107759500Y-98389724D01*
X107759500Y-93280516D01*
X128375833Y-93280516D01*
X128387907Y-93300188D01*
X128420614Y-93346347D01*
X128468681Y-93411997D01*
X128526835Y-93490143D01*
X128589802Y-93573791D01*
X128652311Y-93655944D01*
X128709087Y-93729608D01*
X128754859Y-93787789D01*
X128784352Y-93823491D01*
X128788733Y-93828259D01*
X128807125Y-93819428D01*
X128849219Y-93789618D01*
X128906285Y-93745054D01*
X128912343Y-93740137D01*
X129047989Y-93641494D01*
X129194742Y-93554946D01*
X129337917Y-93488639D01*
X129411550Y-93463240D01*
X129519818Y-93441669D01*
X129647281Y-93431498D01*
X129778049Y-93432734D01*
X129896236Y-93445382D01*
X129968971Y-93463006D01*
X130101023Y-93529121D01*
X130208210Y-93626745D01*
X130288689Y-93751863D01*
X130340620Y-93900460D01*
X130362160Y-94068519D01*
X130351468Y-94252025D01*
X130346153Y-94285382D01*
X130327020Y-94377461D01*
X130301074Y-94466973D01*
X130266252Y-94556621D01*
X130220492Y-94649107D01*
X130161730Y-94747135D01*
X130087901Y-94853407D01*
X129996944Y-94970627D01*
X129886795Y-95101497D01*
X129755389Y-95248721D01*
X129600665Y-95415001D01*
X129420558Y-95603041D01*
X129213005Y-95815542D01*
X129059106Y-95971393D01*
X128375833Y-96661036D01*
X128375833Y-97260833D01*
X131423833Y-97260833D01*
X131423833Y-96498833D01*
X129510485Y-96498833D01*
X130116251Y-95900875D01*
X130300259Y-95718136D01*
X130456358Y-95560301D01*
X130587738Y-95423551D01*
X130697590Y-95304069D01*
X130789103Y-95198037D01*
X130865470Y-95101638D01*
X130929880Y-95011054D01*
X130985525Y-94922468D01*
X131035594Y-94832062D01*
X131074488Y-94754396D01*
X131146163Y-94592704D01*
X131195437Y-94446126D01*
X131226902Y-94297166D01*
X131245150Y-94128327D01*
X131247290Y-94096032D01*
X131244633Y-93854066D01*
X131207179Y-93627793D01*
X131136569Y-93420398D01*
X131034444Y-93235071D01*
X130902442Y-93075000D01*
X130742204Y-92943372D01*
X130617269Y-92871403D01*
X130460355Y-92802372D01*
X130307906Y-92753680D01*
X130147588Y-92722706D01*
X129967069Y-92706834D01*
X129825750Y-92703325D01*
X129613838Y-92708920D01*
X129428384Y-92730420D01*
X129255506Y-92770890D01*
X129081320Y-92833396D01*
X128933743Y-92900334D01*
X128848569Y-92945151D01*
X128754028Y-93000327D01*
X128657049Y-93061139D01*
X128564562Y-93122866D01*
X128483495Y-93180787D01*
X128420775Y-93230180D01*
X128383333Y-93266324D01*
X128375833Y-93280516D01*
X107759500Y-93280516D01*
X107759500Y-55393167D01*
X137689166Y-55393167D01*
X137689166Y-183366833D01*
G37*
X137689166Y-183366833D02*
X107731284Y-183366833D01*
X107745392Y-162376558D01*
X107745511Y-162192166D01*
X124707129Y-162192166D01*
X124717808Y-162237061D01*
X124740906Y-162305380D01*
X124778073Y-162403061D01*
X124808097Y-162478949D01*
X124850809Y-162584712D01*
X124888839Y-162676432D01*
X124919134Y-162746932D01*
X124938641Y-162789033D01*
X124943579Y-162797397D01*
X124965298Y-162791764D01*
X125018767Y-162767961D01*
X125098838Y-162728575D01*
X125200367Y-162676193D01*
X125318206Y-162613403D01*
X125419702Y-162558001D01*
X125548109Y-162487393D01*
X125665215Y-162423373D01*
X125765613Y-162368867D01*
X125843896Y-162326799D01*
X125894658Y-162300096D01*
X125911497Y-162291881D01*
X125917457Y-162294185D01*
X125922597Y-162307846D01*
X125926975Y-162335638D01*
X125930649Y-162380331D01*
X125933678Y-162444696D01*
X125936118Y-162531506D01*
X125938028Y-162643531D01*
X125939467Y-162783543D01*
X125940492Y-162954314D01*
X125941161Y-163158614D01*
X125941532Y-163399216D01*
X125941663Y-163678890D01*
X125941666Y-163732485D01*
X125941666Y-165184667D01*
X124798666Y-165184667D01*
X124798666Y-165925500D01*
X127783166Y-165925500D01*
X127783166Y-165184667D01*
X126788333Y-165184667D01*
X126788333Y-161956750D01*
X128588514Y-161956750D01*
X128799907Y-162225600D01*
X129011299Y-162494450D01*
X129150806Y-162388857D01*
X129335512Y-162263338D01*
X129511880Y-162174497D01*
X129687064Y-162119620D01*
X129868221Y-162095989D01*
X129926064Y-162094584D01*
X130103993Y-162109864D01*
X130254075Y-162156642D01*
X130377320Y-162235441D01*
X130474736Y-162346783D01*
X130502848Y-162393413D01*
X130533568Y-162455018D01*
X130553216Y-162512761D01*
X130564897Y-162580541D01*
X130571715Y-162672260D01*
X130573391Y-162709281D01*
X130571627Y-162874960D01*
X130549912Y-163027474D01*
X130505305Y-163174598D01*
X130434868Y-163324107D01*
X130335662Y-163483776D01*
X130221737Y-163639500D01*
X130178575Y-163691035D01*
X130109019Y-163768585D01*
X130016705Y-163868323D01*
X129905267Y-163986426D01*
X129778342Y-164119068D01*
X129639565Y-164262423D01*
X129492570Y-164412668D01*
X129345769Y-164561172D01*
X128608666Y-165302928D01*
X128608666Y-165925500D01*
X131635500Y-165925500D01*
X131635500Y-165163931D01*
X129728848Y-165152917D01*
X129990076Y-164904870D01*
X132399801Y-164904870D01*
X132400632Y-164932248D01*
X132405796Y-165037482D01*
X132414225Y-165114969D01*
X132429158Y-165179298D01*
X132453837Y-165245054D01*
X132485480Y-165314191D01*
X132588300Y-165485033D01*
X132723195Y-165631380D01*
X132891139Y-165753884D01*
X133093107Y-165853195D01*
X133330072Y-165929965D01*
X133448061Y-165957264D01*
X133555977Y-165972423D01*
X133694398Y-165981336D01*
X133852387Y-165984296D01*
X134019008Y-165981593D01*
X134183324Y-165973520D01*
X134334398Y-165960367D01*
X134461293Y-165942426D01*
X134524750Y-165928570D01*
X134763125Y-165847398D01*
X134973998Y-165739257D01*
X135155125Y-165606107D01*
X135304262Y-165449906D01*
X135419165Y-165272613D01*
X135496397Y-165080283D01*
X135514407Y-164989045D01*
X135525491Y-164870824D01*
X135529382Y-164740443D01*
X135525816Y-164612725D01*
X135514526Y-164502493D01*
X135507422Y-164465000D01*
X135468649Y-164345854D01*
X135406646Y-164213185D01*
X135329469Y-164081992D01*
X135245173Y-163967273D01*
X135231746Y-163951657D01*
X135165061Y-163885432D01*
X135074436Y-163808258D01*
X134972493Y-163730520D01*
X134911153Y-163687931D01*
X134697904Y-163545966D01*
X134757330Y-163502774D01*
X134930279Y-163370943D01*
X135069374Y-163250042D01*
X135179659Y-163134294D01*
X135266177Y-163017917D01*
X135333970Y-162895133D01*
X135376296Y-162793365D01*
X135403569Y-162713540D01*
X135420917Y-162643552D01*
X135430478Y-162569066D01*
X135434390Y-162475744D01*
X135434916Y-162400152D01*
X135434282Y-162296071D01*
X135430666Y-162221564D01*
X135421502Y-162163876D01*
X135404223Y-162110249D01*
X135376260Y-162047929D01*
X135355487Y-162005507D01*
X135252114Y-161838076D01*
X135119999Y-161697833D01*
X134956892Y-161583044D01*
X134760545Y-161491975D01*
X134635591Y-161450795D01*
X134390242Y-161395656D01*
X134135395Y-161367744D01*
X133878705Y-161366365D01*
X133627829Y-161390824D01*
X133390423Y-161440428D01*
X133174143Y-161514483D01*
X133009156Y-161598239D01*
X132841572Y-161723607D01*
X132704167Y-161874894D01*
X132598474Y-162046853D01*
X132526024Y-162234236D01*
X132488351Y-162431795D01*
X132486985Y-162634283D01*
X132523459Y-162836450D01*
X132593649Y-163021574D01*
X132669475Y-163146630D01*
X132774427Y-163276307D01*
X132898267Y-163399653D01*
X133030753Y-163505717D01*
X133072435Y-163533667D01*
X133140752Y-163579630D01*
X133192454Y-163619031D01*
X133219164Y-163645307D01*
X133221064Y-163650083D01*
X133203975Y-163669746D01*
X133158539Y-163705887D01*
X133092406Y-163752706D01*
X133039544Y-163787667D01*
X132856473Y-163924040D01*
X132698248Y-164079364D01*
X132569255Y-164247946D01*
X132473882Y-164424095D01*
X132418345Y-164593582D01*
X132406677Y-164675824D01*
X132400227Y-164784733D01*
X132399801Y-164904870D01*
X129990076Y-164904870D01*
X130137132Y-164765235D01*
X130374112Y-164537366D01*
X130580207Y-164332526D01*
X130757797Y-164147555D01*
X130909257Y-163979293D01*
X131036966Y-163824580D01*
X131143301Y-163680258D01*
X131230639Y-163543166D01*
X131301357Y-163410145D01*
X131357833Y-163278036D01*
X131402445Y-163143678D01*
X131426777Y-163051263D01*
X131454055Y-162890402D01*
X131465193Y-162713638D01*
X131460645Y-162534236D01*
X131440864Y-162365460D01*
X131406306Y-162220573D01*
X131397448Y-162195054D01*
X131301938Y-161986302D01*
X131181624Y-161810613D01*
X131034275Y-161665234D01*
X130884404Y-161562453D01*
X130743919Y-161496398D01*
X130574068Y-161440649D01*
X130387081Y-161397641D01*
X130195187Y-161369806D01*
X130010614Y-161359576D01*
X129889250Y-161364467D01*
X129626010Y-161406482D01*
X129363870Y-161482794D01*
X129111970Y-161589502D01*
X128879454Y-161722708D01*
X128675462Y-161878510D01*
X128667382Y-161885736D01*
X128588514Y-161956750D01*
X126788333Y-161956750D01*
X126788333Y-161417000D01*
X126088549Y-161417000D01*
X125417149Y-161769573D01*
X125261081Y-161851838D01*
X125116230Y-161928781D01*
X124987046Y-161997994D01*
X124877979Y-162057067D01*
X124793479Y-162103593D01*
X124737994Y-162135162D01*
X124716432Y-162148897D01*
X124707220Y-162164757D01*
X124707129Y-162192166D01*
X107745511Y-162192166D01*
X107745861Y-161655121D01*
X107746326Y-160892463D01*
X107746788Y-160089694D01*
X107747245Y-159247927D01*
X107747697Y-158368273D01*
X107748145Y-157451844D01*
X107748589Y-156499750D01*
X107749026Y-155513105D01*
X107749459Y-154493019D01*
X107749886Y-153440604D01*
X107750201Y-152629001D01*
X126527520Y-152629001D01*
X126541849Y-152907217D01*
X126572136Y-153169402D01*
X126618526Y-153406685D01*
X126653830Y-153532417D01*
X126745831Y-153756293D01*
X126869906Y-153959644D01*
X127022056Y-154138434D01*
X127198284Y-154288626D01*
X127394589Y-154406184D01*
X127596748Y-154484168D01*
X127792600Y-154526057D01*
X128010894Y-154547747D01*
X128236700Y-154548917D01*
X128455084Y-154529247D01*
X128584891Y-154505384D01*
X128834248Y-154429236D01*
X129060340Y-154320982D01*
X129260396Y-154182700D01*
X129431645Y-154016470D01*
X129571319Y-153824369D01*
X129626138Y-153723979D01*
X129692174Y-153572276D01*
X129736529Y-153424034D01*
X129761479Y-153267087D01*
X129769298Y-153089267D01*
X129766870Y-152971500D01*
X129756408Y-152855036D01*
X130196166Y-152855036D01*
X130196166Y-153564167D01*
X132291666Y-153564167D01*
X132291666Y-154474333D01*
X133096000Y-154474333D01*
X133096000Y-153564167D01*
X133773333Y-153564167D01*
X133773333Y-152844500D01*
X133096000Y-152844500D01*
X133096000Y-149986319D01*
X131947680Y-149997583D01*
X131071923Y-151426310D01*
X130196166Y-152855036D01*
X129756408Y-152855036D01*
X129745763Y-152736537D01*
X129700413Y-152532064D01*
X129628610Y-152352423D01*
X129528145Y-152191957D01*
X129409961Y-152057839D01*
X129250501Y-151927464D01*
X129065254Y-151826663D01*
X128852582Y-151754883D01*
X128610851Y-151711566D01*
X128344083Y-151696197D01*
X128130799Y-151701566D01*
X127942383Y-151722889D01*
X127763531Y-151762755D01*
X127578942Y-151823754D01*
X127569599Y-151827287D01*
X127504952Y-151850889D01*
X127456763Y-151866700D01*
X127439208Y-151870822D01*
X127426906Y-151857219D01*
X127425235Y-151814123D01*
X127434484Y-151738139D01*
X127454939Y-151625873D01*
X127463504Y-151583639D01*
X127508686Y-151406692D01*
X127566891Y-151260776D01*
X127643462Y-151135287D01*
X127743743Y-151019626D01*
X127751819Y-151011594D01*
X127857090Y-150921095D01*
X127974710Y-150847245D01*
X128109242Y-150788860D01*
X128265244Y-150744754D01*
X128447278Y-150713740D01*
X128659903Y-150694633D01*
X128907681Y-150686247D01*
X129005541Y-150685625D01*
X129391833Y-150685500D01*
X129391833Y-149980833D01*
X128931458Y-149993220D01*
X128692759Y-150002234D01*
X128488976Y-150015958D01*
X128312864Y-150035287D01*
X128157177Y-150061118D01*
X128014669Y-150094345D01*
X127940697Y-150115662D01*
X127665720Y-150216830D01*
X127424966Y-150341784D01*
X127216401Y-150492468D01*
X127037986Y-150670824D01*
X126887684Y-150878794D01*
X126763457Y-151118320D01*
X126690174Y-151308003D01*
X126626887Y-151533283D01*
X126578833Y-151786896D01*
X126546157Y-152059968D01*
X126529005Y-152343627D01*
X126527520Y-152629001D01*
X107750201Y-152629001D01*
X107750307Y-152356971D01*
X107750721Y-151243233D01*
X107751130Y-150100500D01*
X107751531Y-148929885D01*
X107751926Y-147732499D01*
X107752314Y-146509453D01*
X107752694Y-145261859D01*
X107753067Y-143990829D01*
X107753432Y-142697475D01*
X107753432Y-142694124D01*
X126661333Y-142694124D01*
X126661333Y-143042415D01*
X126730125Y-143054640D01*
X126859535Y-143072353D01*
X127021441Y-143086325D01*
X127206158Y-143096409D01*
X127404003Y-143102458D01*
X127605291Y-143104328D01*
X127800337Y-143101872D01*
X127979457Y-143094943D01*
X128132967Y-143083397D01*
X128191004Y-143076669D01*
X128420987Y-143038530D01*
X128624078Y-142987438D01*
X128814795Y-142919249D01*
X128942929Y-142861908D01*
X129149980Y-142741162D01*
X129324525Y-142594070D01*
X129465611Y-142421761D01*
X129572287Y-142225367D01*
X129635564Y-142038917D01*
X129653400Y-141940508D01*
X129664472Y-141818968D01*
X129668551Y-141688509D01*
X129665410Y-141563342D01*
X129654819Y-141457678D01*
X129645634Y-141412643D01*
X129576396Y-141232569D01*
X129471171Y-141071198D01*
X129333327Y-140931640D01*
X129166233Y-140817004D01*
X128973257Y-140730400D01*
X128873556Y-140699996D01*
X128804491Y-140680350D01*
X128755401Y-140663459D01*
X128736800Y-140652944D01*
X128736805Y-140652873D01*
X128754901Y-140638750D01*
X128801185Y-140612368D01*
X128864025Y-140580245D01*
X129039073Y-140472311D01*
X129184072Y-140335695D01*
X129297480Y-140173012D01*
X129377753Y-139986879D01*
X129423347Y-139779911D01*
X129433853Y-139614489D01*
X129417782Y-139402747D01*
X129367810Y-139214655D01*
X129297217Y-139075583D01*
X130489537Y-139075583D01*
X130922699Y-139632329D01*
X131045937Y-139529769D01*
X131158988Y-139447571D01*
X131291981Y-139369501D01*
X131431315Y-139302311D01*
X131563386Y-139252754D01*
X131646083Y-139231830D01*
X131824305Y-139215643D01*
X131991676Y-139232329D01*
X132142153Y-139280248D01*
X132269691Y-139357758D01*
X132333207Y-139418374D01*
X132407033Y-139520869D01*
X132454139Y-139634531D01*
X132477799Y-139769488D01*
X132482166Y-139879240D01*
X132478768Y-139987604D01*
X132467321Y-140090887D01*
X132445942Y-140191843D01*
X132412750Y-140293225D01*
X132365864Y-140397783D01*
X132303401Y-140508272D01*
X132223481Y-140627443D01*
X132124223Y-140758049D01*
X132003743Y-140902843D01*
X131860162Y-141064576D01*
X131691597Y-141246003D01*
X131496167Y-141449874D01*
X131271990Y-141678943D01*
X131206875Y-141744877D01*
X130513666Y-142445711D01*
X130513666Y-143044333D01*
X133540500Y-143044333D01*
X133540500Y-142282333D01*
X132593291Y-142281851D01*
X131646083Y-142281369D01*
X132166387Y-141775360D01*
X132373107Y-141572628D01*
X132550853Y-141394064D01*
X132702485Y-141235937D01*
X132830870Y-141094516D01*
X132938869Y-140966071D01*
X133029347Y-140846869D01*
X133105167Y-140733181D01*
X133169193Y-140621274D01*
X133224289Y-140507419D01*
X133273318Y-140387885D01*
X133310350Y-140284924D01*
X133336550Y-140179243D01*
X133355374Y-140044500D01*
X133366358Y-139893395D01*
X133369041Y-139738632D01*
X133362960Y-139592911D01*
X133347654Y-139468935D01*
X133341178Y-139437814D01*
X133295658Y-139294386D01*
X133228092Y-139144597D01*
X133147252Y-139006006D01*
X133081484Y-138917976D01*
X132941692Y-138786117D01*
X132769226Y-138676860D01*
X132568101Y-138591683D01*
X132342329Y-138532064D01*
X132095925Y-138499481D01*
X131929078Y-138493500D01*
X131668569Y-138508024D01*
X131425823Y-138553253D01*
X131208759Y-138623179D01*
X131095782Y-138673780D01*
X130964046Y-138743882D01*
X130826950Y-138825455D01*
X130697893Y-138910469D01*
X130590274Y-138990894D01*
X130577479Y-139001500D01*
X130489537Y-139075583D01*
X129297217Y-139075583D01*
X129282626Y-139046840D01*
X129160916Y-138895929D01*
X129149685Y-138884608D01*
X129024181Y-138775836D01*
X128884215Y-138687541D01*
X128719728Y-138614135D01*
X128576347Y-138566128D01*
X128500851Y-138544806D01*
X128431406Y-138529056D01*
X128358570Y-138517768D01*
X128272896Y-138509832D01*
X128164940Y-138504138D01*
X128025258Y-138499576D01*
X128005416Y-138499038D01*
X127747533Y-138498526D01*
X127514567Y-138512884D01*
X127291173Y-138543911D01*
X127062005Y-138593402D01*
X126952375Y-138622323D01*
X126788333Y-138667691D01*
X126788333Y-139352385D01*
X127058847Y-139284523D01*
X127332057Y-139225039D01*
X127583894Y-139188551D01*
X127811831Y-139174986D01*
X128013338Y-139184270D01*
X128185888Y-139216330D01*
X128326952Y-139271091D01*
X128406681Y-139323773D01*
X128487134Y-139404502D01*
X128539641Y-139495347D01*
X128568164Y-139606062D01*
X128576662Y-139742333D01*
X128563384Y-139910287D01*
X128521332Y-140049781D01*
X128447962Y-140164211D01*
X128340726Y-140256972D01*
X128197078Y-140331457D01*
X128111250Y-140362762D01*
X128052336Y-140379098D01*
X127984200Y-140391525D01*
X127899137Y-140400818D01*
X127789439Y-140407755D01*
X127647402Y-140413114D01*
X127597958Y-140414513D01*
X127211666Y-140424838D01*
X127211666Y-141033500D01*
X127492125Y-141033674D01*
X127780410Y-141041501D01*
X128030272Y-141064987D01*
X128242843Y-141104711D01*
X128419257Y-141161254D01*
X128560646Y-141235193D01*
X128668144Y-141327109D01*
X128742884Y-141437581D01*
X128785998Y-141567188D01*
X128798701Y-141701771D01*
X128782820Y-141871142D01*
X128733434Y-142016904D01*
X128649619Y-142140093D01*
X128530452Y-142241742D01*
X128375008Y-142322885D01*
X128190625Y-142382494D01*
X128104197Y-142397338D01*
X127984069Y-142408187D01*
X127838683Y-142415059D01*
X127676480Y-142417968D01*
X127505903Y-142416931D01*
X127335395Y-142411964D01*
X127173398Y-142403083D01*
X127028354Y-142390304D01*
X126948690Y-142380141D01*
X126852361Y-142366209D01*
X126770214Y-142354998D01*
X126712097Y-142347811D01*
X126689398Y-142345833D01*
X126678607Y-142354333D01*
X126670820Y-142383194D01*
X126665629Y-142437462D01*
X126662629Y-142522180D01*
X126661412Y-142642393D01*
X126661333Y-142694124D01*
X107753432Y-142694124D01*
X107753788Y-141382907D01*
X107754137Y-140048238D01*
X107754476Y-138694578D01*
X107754807Y-137323041D01*
X107755129Y-135934736D01*
X107755441Y-134530777D01*
X107755744Y-133112274D01*
X107756037Y-131680339D01*
X107756320Y-130236084D01*
X107756592Y-128780619D01*
X107756756Y-127858363D01*
X126411701Y-127858363D01*
X126417307Y-127877917D01*
X126435693Y-127928838D01*
X126463767Y-128003247D01*
X126498437Y-128093266D01*
X126536608Y-128191016D01*
X126575188Y-128288620D01*
X126611083Y-128378200D01*
X126641200Y-128451877D01*
X126662447Y-128501774D01*
X126671403Y-128519812D01*
X126690816Y-128511738D01*
X126742279Y-128485699D01*
X126820853Y-128444322D01*
X126921599Y-128390235D01*
X127039579Y-128326065D01*
X127158845Y-128260521D01*
X127289110Y-128188977D01*
X127407424Y-128124725D01*
X127508679Y-128070480D01*
X127587768Y-128028957D01*
X127639584Y-128002870D01*
X127658685Y-127994833D01*
X127661956Y-128015483D01*
X127665019Y-128075364D01*
X127667833Y-128171375D01*
X127670360Y-128300415D01*
X127672560Y-128459381D01*
X127674391Y-128645173D01*
X127675815Y-128854690D01*
X127676792Y-129084828D01*
X127677282Y-129332488D01*
X127677333Y-129444750D01*
X127677333Y-130894667D01*
X126534333Y-130894667D01*
X126534333Y-131614333D01*
X129497666Y-131614333D01*
X129497666Y-130894667D01*
X128524000Y-130894667D01*
X128524000Y-129693137D01*
X130223069Y-129693137D01*
X130234343Y-130009350D01*
X130268569Y-130303885D01*
X130325174Y-130571518D01*
X130390552Y-130774203D01*
X130499135Y-131003299D01*
X130636103Y-131201034D01*
X130800893Y-131366934D01*
X130992938Y-131500524D01*
X131211675Y-131601330D01*
X131455583Y-131668689D01*
X131562626Y-131682697D01*
X131698269Y-131689964D01*
X131849910Y-131690819D01*
X132004947Y-131685592D01*
X132150776Y-131674611D01*
X132274794Y-131658206D01*
X132334000Y-131645766D01*
X132457110Y-131606280D01*
X132593423Y-131549801D01*
X132729749Y-131482867D01*
X132852899Y-131412014D01*
X132949684Y-131343779D01*
X132958963Y-131336024D01*
X133137900Y-131157193D01*
X133278981Y-130959516D01*
X133381965Y-130743574D01*
X133446608Y-130509947D01*
X133472668Y-130259214D01*
X133470337Y-130111881D01*
X133446069Y-129880065D01*
X133399677Y-129679707D01*
X133328802Y-129504825D01*
X133231079Y-129349440D01*
X133118844Y-129221935D01*
X132971008Y-129094536D01*
X132810979Y-128996004D01*
X132632749Y-128924058D01*
X132430313Y-128876417D01*
X132197664Y-128850800D01*
X132132916Y-128847523D01*
X131861916Y-128849438D01*
X131613098Y-128879477D01*
X131375341Y-128939632D01*
X131161153Y-129021371D01*
X131139499Y-129028095D01*
X131128954Y-129018331D01*
X131127607Y-128983864D01*
X131133548Y-128916480D01*
X131134543Y-128906915D01*
X131174871Y-128669149D01*
X131243004Y-128463082D01*
X131339236Y-128288235D01*
X131463864Y-128144131D01*
X131617182Y-128030290D01*
X131704285Y-127984757D01*
X131807438Y-127941411D01*
X131912654Y-127907034D01*
X132026986Y-127880477D01*
X132157482Y-127860592D01*
X132311192Y-127846230D01*
X132495167Y-127836241D01*
X132646208Y-127831222D01*
X133096000Y-127819054D01*
X133096000Y-127143026D01*
X132572125Y-127154281D01*
X132373124Y-127159595D01*
X132211517Y-127166336D01*
X132082376Y-127174844D01*
X131980775Y-127185456D01*
X131901788Y-127198509D01*
X131889904Y-127201074D01*
X131597051Y-127279500D01*
X131340366Y-127376130D01*
X131116889Y-127493005D01*
X130923660Y-127632168D01*
X130757720Y-127795660D01*
X130616110Y-127985523D01*
X130526487Y-128141775D01*
X130444350Y-128317939D01*
X130377797Y-128499225D01*
X130324990Y-128693325D01*
X130284091Y-128907932D01*
X130253263Y-129150737D01*
X130235322Y-129360472D01*
X130223069Y-129693137D01*
X128524000Y-129693137D01*
X128524000Y-127105833D01*
X127840217Y-127105833D01*
X127129067Y-127479967D01*
X126969684Y-127563843D01*
X126822436Y-127641382D01*
X126691439Y-127710412D01*
X126580813Y-127768760D01*
X126494676Y-127814254D01*
X126437148Y-127844721D01*
X126412347Y-127857989D01*
X126411701Y-127858363D01*
X107756756Y-127858363D01*
X107756854Y-127315058D01*
X107757106Y-125840511D01*
X107757346Y-124358090D01*
X107757574Y-122868906D01*
X107757792Y-121374072D01*
X107757997Y-119874698D01*
X107758092Y-119133521D01*
X128334017Y-119133521D01*
X128344989Y-119329753D01*
X128378888Y-119496877D01*
X128438903Y-119643236D01*
X128528221Y-119777172D01*
X128617659Y-119875786D01*
X128771518Y-120000623D01*
X128957240Y-120103701D01*
X129169793Y-120184015D01*
X129404143Y-120240559D01*
X129655258Y-120272330D01*
X129918104Y-120278322D01*
X130187649Y-120257531D01*
X130376083Y-120226810D01*
X130553938Y-120185068D01*
X130704681Y-120134205D01*
X130843415Y-120068287D01*
X130962553Y-119996398D01*
X131139144Y-119859286D01*
X131278054Y-119703092D01*
X131379727Y-119526993D01*
X131444602Y-119330165D01*
X131473122Y-119111785D01*
X131474654Y-119041333D01*
X131455724Y-118816344D01*
X131399208Y-118608110D01*
X131304456Y-118415547D01*
X131170820Y-118237573D01*
X130997650Y-118073103D01*
X130814862Y-117940503D01*
X130742628Y-117891489D01*
X130688329Y-117850231D01*
X130658769Y-117822171D01*
X130656112Y-117813529D01*
X130680209Y-117795568D01*
X130729419Y-117760277D01*
X130794128Y-117714538D01*
X130810000Y-117703398D01*
X130976330Y-117569810D01*
X131118121Y-117421382D01*
X131228170Y-117266120D01*
X131264302Y-117198492D01*
X131327453Y-117046150D01*
X131364627Y-116900275D01*
X131379082Y-116744170D01*
X131377386Y-116618967D01*
X131370220Y-116514463D01*
X131357294Y-116434820D01*
X131334555Y-116362599D01*
X131299319Y-116283211D01*
X131197541Y-116119574D01*
X131061708Y-115979110D01*
X130893654Y-115862543D01*
X130695217Y-115770597D01*
X130468232Y-115703997D01*
X130214535Y-115663466D01*
X129935962Y-115649729D01*
X129713055Y-115657363D01*
X129455425Y-115690907D01*
X129221620Y-115754210D01*
X129013628Y-115845467D01*
X128833435Y-115962877D01*
X128683028Y-116104636D01*
X128564395Y-116268941D01*
X128479521Y-116453990D01*
X128430395Y-116657980D01*
X128418166Y-116832262D01*
X128438674Y-117039590D01*
X128499949Y-117236305D01*
X128601621Y-117421780D01*
X128743318Y-117595386D01*
X128924667Y-117756494D01*
X128994901Y-117808037D01*
X129065643Y-117859095D01*
X129120763Y-117901715D01*
X129152693Y-117929894D01*
X129157625Y-117937137D01*
X129140355Y-117953795D01*
X129094865Y-117987488D01*
X129028792Y-118032745D01*
X128975482Y-118067667D01*
X128770498Y-118219957D01*
X128604566Y-118387496D01*
X128477917Y-118569898D01*
X128390787Y-118766774D01*
X128343407Y-118977736D01*
X128334017Y-119133521D01*
X107758092Y-119133521D01*
X107758191Y-118371897D01*
X107758372Y-116866780D01*
X107758540Y-115360458D01*
X107758696Y-113854043D01*
X107758839Y-112348647D01*
X107758969Y-110845382D01*
X107759085Y-109345358D01*
X107759187Y-107849687D01*
X107759228Y-107140851D01*
X128143000Y-107140851D01*
X128143000Y-107865333D01*
X130238500Y-107865333D01*
X130238500Y-108775500D01*
X131021666Y-108775500D01*
X131021666Y-107865333D01*
X131720166Y-107865333D01*
X131720166Y-107146715D01*
X131032250Y-107135083D01*
X131021368Y-104288167D01*
X129889250Y-104288783D01*
X128143000Y-107140851D01*
X107759228Y-107140851D01*
X107759275Y-106359482D01*
X107759349Y-104875853D01*
X107759409Y-103399913D01*
X107759454Y-101932772D01*
X107759483Y-100475543D01*
X107759498Y-99029337D01*
X107759500Y-98389724D01*
X107759500Y-93280516D01*
X128375833Y-93280516D01*
X128387907Y-93300188D01*
X128420614Y-93346347D01*
X128468681Y-93411997D01*
X128526835Y-93490143D01*
X128589802Y-93573791D01*
X128652311Y-93655944D01*
X128709087Y-93729608D01*
X128754859Y-93787789D01*
X128784352Y-93823491D01*
X128788733Y-93828259D01*
X128807125Y-93819428D01*
X128849219Y-93789618D01*
X128906285Y-93745054D01*
X128912343Y-93740137D01*
X129047989Y-93641494D01*
X129194742Y-93554946D01*
X129337917Y-93488639D01*
X129411550Y-93463240D01*
X129519818Y-93441669D01*
X129647281Y-93431498D01*
X129778049Y-93432734D01*
X129896236Y-93445382D01*
X129968971Y-93463006D01*
X130101023Y-93529121D01*
X130208210Y-93626745D01*
X130288689Y-93751863D01*
X130340620Y-93900460D01*
X130362160Y-94068519D01*
X130351468Y-94252025D01*
X130346153Y-94285382D01*
X130327020Y-94377461D01*
X130301074Y-94466973D01*
X130266252Y-94556621D01*
X130220492Y-94649107D01*
X130161730Y-94747135D01*
X130087901Y-94853407D01*
X129996944Y-94970627D01*
X129886795Y-95101497D01*
X129755389Y-95248721D01*
X129600665Y-95415001D01*
X129420558Y-95603041D01*
X129213005Y-95815542D01*
X129059106Y-95971393D01*
X128375833Y-96661036D01*
X128375833Y-97260833D01*
X131423833Y-97260833D01*
X131423833Y-96498833D01*
X129510485Y-96498833D01*
X130116251Y-95900875D01*
X130300259Y-95718136D01*
X130456358Y-95560301D01*
X130587738Y-95423551D01*
X130697590Y-95304069D01*
X130789103Y-95198037D01*
X130865470Y-95101638D01*
X130929880Y-95011054D01*
X130985525Y-94922468D01*
X131035594Y-94832062D01*
X131074488Y-94754396D01*
X131146163Y-94592704D01*
X131195437Y-94446126D01*
X131226902Y-94297166D01*
X131245150Y-94128327D01*
X131247290Y-94096032D01*
X131244633Y-93854066D01*
X131207179Y-93627793D01*
X131136569Y-93420398D01*
X131034444Y-93235071D01*
X130902442Y-93075000D01*
X130742204Y-92943372D01*
X130617269Y-92871403D01*
X130460355Y-92802372D01*
X130307906Y-92753680D01*
X130147588Y-92722706D01*
X129967069Y-92706834D01*
X129825750Y-92703325D01*
X129613838Y-92708920D01*
X129428384Y-92730420D01*
X129255506Y-92770890D01*
X129081320Y-92833396D01*
X128933743Y-92900334D01*
X128848569Y-92945151D01*
X128754028Y-93000327D01*
X128657049Y-93061139D01*
X128564562Y-93122866D01*
X128483495Y-93180787D01*
X128420775Y-93230180D01*
X128383333Y-93266324D01*
X128375833Y-93280516D01*
X107759500Y-93280516D01*
X107759500Y-55393167D01*
X137689166Y-55393167D01*
X137689166Y-183366833D01*
%TD*%
M02*
