%TF.GenerationSoftware,KiCad,Pcbnew,(5.1.9)-1*%
%TF.CreationDate,2021-08-11T15:41:34+02:00*%
%TF.ProjectId,clockdiv-panel,636c6f63-6b64-4697-962d-70616e656c2e,rev?*%
%TF.SameCoordinates,Original*%
%TF.FileFunction,Copper,L2,Bot*%
%TF.FilePolarity,Positive*%
%FSLAX46Y46*%
G04 Gerber Fmt 4.6, Leading zero omitted, Abs format (unit mm)*
G04 Created by KiCad (PCBNEW (5.1.9)-1) date 2021-08-11 15:41:34*
%MOMM*%
%LPD*%
G01*
G04 APERTURE LIST*
%TA.AperFunction,EtchedComponent*%
%ADD10C,0.010000*%
%TD*%
G04 APERTURE END LIST*
D10*
%TO.C,Ref\u002A\u002A*%
G36*
X137689166Y-183366833D02*
G01*
X107738326Y-183366833D01*
X107739965Y-163584412D01*
X123995712Y-163584412D01*
X123996107Y-163775624D01*
X124002177Y-163953832D01*
X124014055Y-164105668D01*
X124016537Y-164126888D01*
X124088966Y-164542781D01*
X124200917Y-164947014D01*
X124350828Y-165338122D01*
X124537132Y-165714641D01*
X124758266Y-166075107D01*
X125012665Y-166418055D01*
X125298764Y-166742020D01*
X125615000Y-167045538D01*
X125959808Y-167327145D01*
X126331623Y-167585375D01*
X126728882Y-167818766D01*
X127150019Y-168025851D01*
X127593470Y-168205167D01*
X128057670Y-168355249D01*
X128541057Y-168474633D01*
X128693333Y-168504949D01*
X128815112Y-168526245D01*
X128949702Y-168547280D01*
X129074497Y-168564595D01*
X129116666Y-168569712D01*
X129214030Y-168580832D01*
X129303929Y-168591086D01*
X129372201Y-168598859D01*
X129391833Y-168601088D01*
X129431776Y-168603034D01*
X129507907Y-168604373D01*
X129614083Y-168605086D01*
X129744163Y-168605157D01*
X129892004Y-168604569D01*
X130051465Y-168603304D01*
X130079750Y-168603016D01*
X130280629Y-168600302D01*
X130446427Y-168596542D01*
X130584390Y-168591329D01*
X130701766Y-168584257D01*
X130805802Y-168574916D01*
X130903744Y-168562901D01*
X130970977Y-168552931D01*
X131408593Y-168473656D01*
X131815723Y-168377254D01*
X132201772Y-168260757D01*
X132576149Y-168121197D01*
X132948262Y-167955606D01*
X133096938Y-167882248D01*
X133511831Y-167651195D01*
X133900576Y-167392315D01*
X134261384Y-167107604D01*
X134592467Y-166799063D01*
X134892037Y-166468690D01*
X135158306Y-166118484D01*
X135389487Y-165750443D01*
X135583792Y-165366565D01*
X135739432Y-164968851D01*
X135760372Y-164904866D01*
X135826305Y-164681110D01*
X135875624Y-164471456D01*
X135910517Y-164262422D01*
X135933172Y-164040526D01*
X135945777Y-163792286D01*
X135946830Y-163755917D01*
X135950344Y-163579744D01*
X135950170Y-163435279D01*
X135945937Y-163312027D01*
X135937274Y-163199493D01*
X135923809Y-163087180D01*
X135922926Y-163080829D01*
X135842837Y-162659992D01*
X135722230Y-162250379D01*
X135561699Y-161853119D01*
X135361837Y-161469338D01*
X135123236Y-161100163D01*
X134846492Y-160746722D01*
X134532196Y-160410142D01*
X134500911Y-160379574D01*
X134144693Y-160063317D01*
X133761017Y-159777248D01*
X133352694Y-159521960D01*
X132922536Y-159298046D01*
X132473357Y-159106101D01*
X132007968Y-158946717D01*
X131529180Y-158820490D01*
X131039808Y-158728012D01*
X130542662Y-158669877D01*
X130040555Y-158646678D01*
X129536299Y-158659011D01*
X129032707Y-158707468D01*
X128532590Y-158792642D01*
X128038761Y-158915129D01*
X127844736Y-158974344D01*
X127371086Y-159146113D01*
X126920836Y-159348301D01*
X126495699Y-159579526D01*
X126097391Y-159838407D01*
X125727624Y-160123564D01*
X125388114Y-160433614D01*
X125080573Y-160767177D01*
X124806717Y-161122871D01*
X124568259Y-161499315D01*
X124458849Y-161702750D01*
X124291649Y-162069794D01*
X124162963Y-162436795D01*
X124069947Y-162812740D01*
X124027225Y-163066465D01*
X124011406Y-163216463D01*
X124000857Y-163393568D01*
X123995712Y-163584412D01*
X107739965Y-163584412D01*
X107740915Y-152120160D01*
X124187096Y-152120160D01*
X124187530Y-152311008D01*
X124192978Y-152494631D01*
X124203441Y-152658713D01*
X124215816Y-152770417D01*
X124296606Y-153188478D01*
X124417361Y-153595227D01*
X124576834Y-153989042D01*
X124773782Y-154368302D01*
X125006959Y-154731385D01*
X125275120Y-155076669D01*
X125577020Y-155402534D01*
X125911414Y-155707357D01*
X126277057Y-155989516D01*
X126672704Y-156247391D01*
X127042333Y-156451736D01*
X127451777Y-156643733D01*
X127869851Y-156805407D01*
X128302215Y-156938331D01*
X128754530Y-157044080D01*
X129232457Y-157124228D01*
X129624666Y-157169792D01*
X129703721Y-157174669D01*
X129816102Y-157177958D01*
X129952834Y-157179723D01*
X130104942Y-157180031D01*
X130263452Y-157178945D01*
X130419388Y-157176532D01*
X130563775Y-157172855D01*
X130687639Y-157167979D01*
X130782005Y-157161971D01*
X130788833Y-157161368D01*
X131316943Y-157093866D01*
X131830429Y-156989271D01*
X132327391Y-156848440D01*
X132805930Y-156672228D01*
X133264145Y-156461491D01*
X133700138Y-156217085D01*
X134112008Y-155939864D01*
X134497856Y-155630685D01*
X134786644Y-155360783D01*
X135085593Y-155034039D01*
X135348354Y-154689578D01*
X135574525Y-154329668D01*
X135763704Y-153956577D01*
X135915487Y-153572572D01*
X136029472Y-153179920D01*
X136105257Y-152780890D01*
X136142438Y-152377749D01*
X136140613Y-151972764D01*
X136099381Y-151568203D01*
X136018337Y-151166334D01*
X135897079Y-150769423D01*
X135735206Y-150379739D01*
X135688153Y-150283333D01*
X135501642Y-149945856D01*
X135291615Y-149630613D01*
X135052142Y-149329586D01*
X134777297Y-149034760D01*
X134731014Y-148988970D01*
X134562792Y-148827967D01*
X134409629Y-148690517D01*
X134259952Y-148567265D01*
X134102189Y-148448856D01*
X133924767Y-148325935D01*
X133846196Y-148273733D01*
X133417842Y-148017055D01*
X132964385Y-147794169D01*
X132486578Y-147605346D01*
X131985173Y-147450860D01*
X131460924Y-147330983D01*
X131053416Y-147263981D01*
X130908696Y-147248550D01*
X130730836Y-147236850D01*
X130528865Y-147228876D01*
X130311812Y-147224628D01*
X130088705Y-147224103D01*
X129868575Y-147227300D01*
X129660448Y-147234216D01*
X129473355Y-147244850D01*
X129316324Y-147259199D01*
X129275416Y-147264367D01*
X128739024Y-147356748D01*
X128223610Y-147483649D01*
X127730313Y-147644531D01*
X127260271Y-147838857D01*
X126814621Y-148066088D01*
X126394503Y-148325686D01*
X126001055Y-148617113D01*
X125635414Y-148939831D01*
X125546023Y-149027809D01*
X125246974Y-149356657D01*
X124981585Y-149706501D01*
X124751289Y-150074544D01*
X124557515Y-150457988D01*
X124401697Y-150854036D01*
X124285263Y-151259893D01*
X124215875Y-151627417D01*
X124201270Y-151766049D01*
X124191676Y-151934402D01*
X124187096Y-152120160D01*
X107740915Y-152120160D01*
X107741860Y-140720018D01*
X124186008Y-140720018D01*
X124194100Y-140949086D01*
X124210472Y-141169549D01*
X124234756Y-141369307D01*
X124257460Y-141496003D01*
X124367684Y-141914313D01*
X124516715Y-142318437D01*
X124702971Y-142706882D01*
X124924874Y-143078158D01*
X125180843Y-143430770D01*
X125469299Y-143763227D01*
X125788663Y-144074036D01*
X126137353Y-144361706D01*
X126513791Y-144624743D01*
X126916396Y-144861655D01*
X127343590Y-145070950D01*
X127793792Y-145251135D01*
X128265423Y-145400719D01*
X128439333Y-145446585D01*
X128747093Y-145515332D01*
X129074642Y-145573794D01*
X129404805Y-145619377D01*
X129720407Y-145649488D01*
X129825750Y-145655968D01*
X129952027Y-145659473D01*
X130108945Y-145659238D01*
X130285013Y-145655675D01*
X130468741Y-145649195D01*
X130648641Y-145640207D01*
X130813221Y-145629123D01*
X130950993Y-145616352D01*
X130958579Y-145615493D01*
X131483329Y-145535951D01*
X131992837Y-145419996D01*
X132484883Y-145268517D01*
X132957250Y-145082403D01*
X133407719Y-144862543D01*
X133834070Y-144609826D01*
X134234085Y-144325142D01*
X134291916Y-144279548D01*
X134648017Y-143970841D01*
X134968180Y-143642891D01*
X135251726Y-143296856D01*
X135497977Y-142933890D01*
X135706255Y-142555152D01*
X135875880Y-142161796D01*
X136006174Y-141754979D01*
X136096460Y-141335858D01*
X136121714Y-141161055D01*
X136133104Y-141033428D01*
X136140241Y-140876933D01*
X136143126Y-140704826D01*
X136141758Y-140530357D01*
X136136136Y-140366781D01*
X136126261Y-140227349D01*
X136121746Y-140186278D01*
X136047916Y-139760331D01*
X135933925Y-139347295D01*
X135780181Y-138947983D01*
X135587090Y-138563206D01*
X135355059Y-138193777D01*
X135084496Y-137840507D01*
X134779560Y-137507965D01*
X134616328Y-137347931D01*
X134468620Y-137211730D01*
X134325363Y-137090262D01*
X134175486Y-136974423D01*
X134007916Y-136855113D01*
X133880208Y-136768686D01*
X133455423Y-136510739D01*
X133005193Y-136285803D01*
X132531390Y-136094547D01*
X132035887Y-135937642D01*
X131520556Y-135815757D01*
X130987267Y-135729562D01*
X130970706Y-135727497D01*
X130828900Y-135713944D01*
X130655002Y-135703594D01*
X130458964Y-135696509D01*
X130250737Y-135692750D01*
X130040272Y-135692378D01*
X129837520Y-135695453D01*
X129652433Y-135702035D01*
X129494961Y-135712187D01*
X129434166Y-135718113D01*
X128894245Y-135797595D01*
X128375997Y-135912912D01*
X127877884Y-136064500D01*
X127398368Y-136252792D01*
X127179916Y-136353639D01*
X126746434Y-136583713D01*
X126342576Y-136839095D01*
X125969450Y-137118385D01*
X125628162Y-137420182D01*
X125319822Y-137743086D01*
X125045535Y-138085696D01*
X124806411Y-138446613D01*
X124603556Y-138824435D01*
X124438078Y-139217762D01*
X124311084Y-139625194D01*
X124223683Y-140045331D01*
X124215090Y-140102167D01*
X124196135Y-140284460D01*
X124186564Y-140494443D01*
X124186008Y-140720018D01*
X107741860Y-140720018D01*
X107742795Y-129440033D01*
X123893322Y-129440033D01*
X123925975Y-129856237D01*
X124000677Y-130274278D01*
X124038253Y-130426350D01*
X124165834Y-130825569D01*
X124332118Y-131211257D01*
X124535200Y-131581850D01*
X124773175Y-131935787D01*
X125044140Y-132271504D01*
X125346191Y-132587439D01*
X125677423Y-132882030D01*
X126035932Y-133153714D01*
X126419814Y-133400929D01*
X126827165Y-133622112D01*
X127256082Y-133815700D01*
X127704659Y-133980132D01*
X128170993Y-134113844D01*
X128653179Y-134215273D01*
X128656068Y-134215773D01*
X129131957Y-134281526D01*
X129613218Y-134316283D01*
X130087951Y-134319465D01*
X130420634Y-134301751D01*
X130956749Y-134239123D01*
X131478175Y-134138866D01*
X131983153Y-134001648D01*
X132469925Y-133828142D01*
X132936730Y-133619016D01*
X133381811Y-133374943D01*
X133803408Y-133096591D01*
X134027333Y-132926990D01*
X134369730Y-132630763D01*
X134678811Y-132313834D01*
X134953845Y-131978343D01*
X135194099Y-131626433D01*
X135398843Y-131260243D01*
X135567344Y-130881915D01*
X135698871Y-130493589D01*
X135792692Y-130097407D01*
X135848074Y-129695509D01*
X135864288Y-129290037D01*
X135840600Y-128883131D01*
X135776279Y-128476933D01*
X135678005Y-128097309D01*
X135534123Y-127698120D01*
X135354540Y-127317238D01*
X135138027Y-126952709D01*
X134883358Y-126602582D01*
X134589306Y-126264904D01*
X134416166Y-126089435D01*
X134053350Y-125765879D01*
X133662570Y-125473169D01*
X133245716Y-125212132D01*
X132804676Y-124983600D01*
X132341340Y-124788400D01*
X131857597Y-124627364D01*
X131355337Y-124501320D01*
X130836448Y-124411097D01*
X130508276Y-124373610D01*
X130378265Y-124365005D01*
X130217937Y-124359671D01*
X130035910Y-124357434D01*
X129840804Y-124358121D01*
X129641236Y-124361559D01*
X129445826Y-124367576D01*
X129263193Y-124375998D01*
X129101954Y-124386653D01*
X128970729Y-124399368D01*
X128926166Y-124405351D01*
X128418139Y-124498849D01*
X127925853Y-124623496D01*
X127453313Y-124777876D01*
X127004523Y-124960575D01*
X126583488Y-125170176D01*
X126312083Y-125329225D01*
X126063581Y-125495736D01*
X125812358Y-125684507D01*
X125565865Y-125888866D01*
X125331551Y-126102141D01*
X125116867Y-126317660D01*
X124929262Y-126528751D01*
X124824692Y-126661333D01*
X124568810Y-127036912D01*
X124353525Y-127421270D01*
X124179046Y-127813415D01*
X124045579Y-128212356D01*
X123953331Y-128617101D01*
X123902509Y-129026657D01*
X123893322Y-129440033D01*
X107742795Y-129440033D01*
X107743621Y-119480542D01*
X107743767Y-117714882D01*
X123868135Y-117714882D01*
X123870814Y-117922294D01*
X123880168Y-118119155D01*
X123896195Y-118292375D01*
X123900448Y-118324802D01*
X123979014Y-118735527D01*
X124098707Y-119138575D01*
X124258701Y-119531950D01*
X124458172Y-119913655D01*
X124696295Y-120281695D01*
X124725292Y-120321917D01*
X125013495Y-120681848D01*
X125334524Y-121016741D01*
X125686256Y-121325445D01*
X126066567Y-121606812D01*
X126473335Y-121859691D01*
X126904438Y-122082935D01*
X127357751Y-122275394D01*
X127831153Y-122435918D01*
X128322521Y-122563359D01*
X128829732Y-122656567D01*
X129102539Y-122691508D01*
X129246929Y-122703648D01*
X129422580Y-122712696D01*
X129618528Y-122718569D01*
X129823806Y-122721179D01*
X130027449Y-122720441D01*
X130218494Y-122716271D01*
X130385973Y-122708582D01*
X130471333Y-122702177D01*
X130969871Y-122639654D01*
X131453787Y-122544395D01*
X131921398Y-122417792D01*
X132371021Y-122261237D01*
X132800975Y-122076119D01*
X133209577Y-121863829D01*
X133595144Y-121625760D01*
X133955993Y-121363301D01*
X134290443Y-121077843D01*
X134596812Y-120770779D01*
X134873415Y-120443497D01*
X135118571Y-120097391D01*
X135330598Y-119733850D01*
X135507813Y-119354265D01*
X135648534Y-118960028D01*
X135751077Y-118552529D01*
X135793608Y-118302035D01*
X135812123Y-118122192D01*
X135822611Y-117915594D01*
X135825071Y-117697053D01*
X135819504Y-117481377D01*
X135805909Y-117283378D01*
X135793608Y-117177132D01*
X135714095Y-116758986D01*
X135594076Y-116351727D01*
X135434261Y-115956576D01*
X135235358Y-115574752D01*
X134998077Y-115207475D01*
X134723126Y-114855967D01*
X134411216Y-114521446D01*
X134069666Y-114210684D01*
X133794536Y-113996681D01*
X133487749Y-113788830D01*
X133159978Y-113593453D01*
X132821901Y-113416871D01*
X132484191Y-113265407D01*
X132450416Y-113251711D01*
X131980287Y-113081602D01*
X131508272Y-112948793D01*
X131027782Y-112851933D01*
X130532227Y-112789673D01*
X130058583Y-112761828D01*
X129512047Y-112765543D01*
X128976111Y-112808714D01*
X128452362Y-112890925D01*
X127942391Y-113011763D01*
X127447785Y-113170814D01*
X126970135Y-113367664D01*
X126511028Y-113601899D01*
X126257320Y-113752560D01*
X125865237Y-114019990D01*
X125504426Y-114311224D01*
X125176041Y-114624591D01*
X124881239Y-114958420D01*
X124621175Y-115311042D01*
X124397005Y-115680784D01*
X124209883Y-116065978D01*
X124060965Y-116464953D01*
X123951407Y-116876037D01*
X123900187Y-117160216D01*
X123882819Y-117320754D01*
X123872136Y-117510006D01*
X123868135Y-117714882D01*
X107743767Y-117714882D01*
X107744699Y-106462114D01*
X124231956Y-106462114D01*
X124267533Y-106881186D01*
X124345096Y-107300297D01*
X124365221Y-107382228D01*
X124485855Y-107770264D01*
X124646522Y-108150571D01*
X124845213Y-108520388D01*
X125079923Y-108876955D01*
X125348642Y-109217510D01*
X125649363Y-109539293D01*
X125980078Y-109839543D01*
X126338780Y-110115498D01*
X126367736Y-110135823D01*
X126797858Y-110410065D01*
X127249291Y-110648494D01*
X127720009Y-110850618D01*
X128207982Y-111015941D01*
X128711181Y-111143969D01*
X129227578Y-111234207D01*
X129755144Y-111286162D01*
X130291850Y-111299338D01*
X130835668Y-111273242D01*
X130979333Y-111259823D01*
X131478100Y-111189807D01*
X131965407Y-111084290D01*
X132438766Y-110944681D01*
X132895686Y-110772385D01*
X133333681Y-110568810D01*
X133750260Y-110335362D01*
X134142937Y-110073447D01*
X134509223Y-109784472D01*
X134846628Y-109469844D01*
X135152664Y-109130970D01*
X135424844Y-108769255D01*
X135449244Y-108733167D01*
X135545751Y-108578459D01*
X135647160Y-108397416D01*
X135747524Y-108202104D01*
X135840896Y-108004587D01*
X135921332Y-107816931D01*
X135982884Y-107651203D01*
X135983780Y-107648501D01*
X136096701Y-107241279D01*
X136168072Y-106829676D01*
X136198148Y-106415991D01*
X136187181Y-106002525D01*
X136135425Y-105591577D01*
X136043133Y-105185447D01*
X135910559Y-104786435D01*
X135737956Y-104396840D01*
X135596764Y-104136608D01*
X135354393Y-103763764D01*
X135076520Y-103411486D01*
X134765456Y-103081307D01*
X134423511Y-102774759D01*
X134052996Y-102493376D01*
X133656222Y-102238690D01*
X133235499Y-102012233D01*
X132793140Y-101815539D01*
X132331453Y-101650140D01*
X131852752Y-101517569D01*
X131550833Y-101452992D01*
X131036039Y-101374866D01*
X130518599Y-101335093D01*
X130001505Y-101332975D01*
X129487751Y-101367810D01*
X128980328Y-101438900D01*
X128482231Y-101545545D01*
X127996452Y-101687045D01*
X127525983Y-101862701D01*
X127073818Y-102071814D01*
X126642949Y-102313682D01*
X126236369Y-102587607D01*
X126035874Y-102742215D01*
X125836281Y-102915080D01*
X125631266Y-103114030D01*
X125428835Y-103330031D01*
X125236993Y-103554050D01*
X125063745Y-103777054D01*
X124917097Y-103990006D01*
X124885951Y-104039923D01*
X124674955Y-104424477D01*
X124504418Y-104818866D01*
X124374595Y-105221457D01*
X124285741Y-105630617D01*
X124238110Y-106044714D01*
X124231956Y-106462114D01*
X107744699Y-106462114D01*
X107745619Y-95362604D01*
X124162349Y-95362604D01*
X124195427Y-95765284D01*
X124270251Y-96176357D01*
X124384350Y-96575606D01*
X124535973Y-96961631D01*
X124723364Y-97333031D01*
X124944771Y-97688407D01*
X125198440Y-98026357D01*
X125482617Y-98345482D01*
X125795549Y-98644381D01*
X126135481Y-98921654D01*
X126500660Y-99175901D01*
X126889334Y-99405721D01*
X127299747Y-99609715D01*
X127730146Y-99786481D01*
X128178778Y-99934619D01*
X128643889Y-100052730D01*
X129123726Y-100139413D01*
X129616534Y-100193267D01*
X129751666Y-100202002D01*
X130097563Y-100211246D01*
X130465326Y-100202859D01*
X130810000Y-100179765D01*
X131315600Y-100115686D01*
X131812224Y-100014596D01*
X132296739Y-99877865D01*
X132766014Y-99706863D01*
X133216916Y-99502960D01*
X133646314Y-99267526D01*
X134051077Y-99001933D01*
X134428073Y-98707550D01*
X134666063Y-98492496D01*
X134976346Y-98168236D01*
X135251081Y-97825946D01*
X135489682Y-97467772D01*
X135691560Y-97095863D01*
X135856128Y-96712364D01*
X135982798Y-96319424D01*
X136070983Y-95919187D01*
X136120094Y-95513803D01*
X136129545Y-95105417D01*
X136098748Y-94696177D01*
X136027115Y-94288230D01*
X135921387Y-93905917D01*
X135864119Y-93748733D01*
X135789284Y-93569737D01*
X135702837Y-93381385D01*
X135610731Y-93196134D01*
X135518921Y-93026439D01*
X135433362Y-92884758D01*
X135432985Y-92884179D01*
X135173877Y-92523110D01*
X134879493Y-92178894D01*
X134555382Y-91857183D01*
X134207095Y-91563635D01*
X133960825Y-91384052D01*
X133529975Y-91114171D01*
X133078995Y-90880044D01*
X132610701Y-90681849D01*
X132127909Y-90519764D01*
X131633434Y-90393967D01*
X131130094Y-90304637D01*
X130620703Y-90251952D01*
X130108077Y-90236091D01*
X129595033Y-90257231D01*
X129084387Y-90315551D01*
X128578954Y-90411229D01*
X128081550Y-90544445D01*
X127594992Y-90715375D01*
X127122095Y-90924198D01*
X127074083Y-90947962D01*
X126656529Y-91176833D01*
X126267283Y-91430775D01*
X125907422Y-91707984D01*
X125578026Y-92006655D01*
X125280173Y-92324982D01*
X125014941Y-92661160D01*
X124783411Y-93013384D01*
X124586659Y-93379849D01*
X124425766Y-93758750D01*
X124301810Y-94148281D01*
X124215869Y-94546637D01*
X124169022Y-94952013D01*
X124162349Y-95362604D01*
X107745619Y-95362604D01*
X107748916Y-55594250D01*
X122719041Y-55588943D01*
X137689166Y-55583637D01*
X137689166Y-183366833D01*
G37*
X137689166Y-183366833D02*
X107738326Y-183366833D01*
X107739965Y-163584412D01*
X123995712Y-163584412D01*
X123996107Y-163775624D01*
X124002177Y-163953832D01*
X124014055Y-164105668D01*
X124016537Y-164126888D01*
X124088966Y-164542781D01*
X124200917Y-164947014D01*
X124350828Y-165338122D01*
X124537132Y-165714641D01*
X124758266Y-166075107D01*
X125012665Y-166418055D01*
X125298764Y-166742020D01*
X125615000Y-167045538D01*
X125959808Y-167327145D01*
X126331623Y-167585375D01*
X126728882Y-167818766D01*
X127150019Y-168025851D01*
X127593470Y-168205167D01*
X128057670Y-168355249D01*
X128541057Y-168474633D01*
X128693333Y-168504949D01*
X128815112Y-168526245D01*
X128949702Y-168547280D01*
X129074497Y-168564595D01*
X129116666Y-168569712D01*
X129214030Y-168580832D01*
X129303929Y-168591086D01*
X129372201Y-168598859D01*
X129391833Y-168601088D01*
X129431776Y-168603034D01*
X129507907Y-168604373D01*
X129614083Y-168605086D01*
X129744163Y-168605157D01*
X129892004Y-168604569D01*
X130051465Y-168603304D01*
X130079750Y-168603016D01*
X130280629Y-168600302D01*
X130446427Y-168596542D01*
X130584390Y-168591329D01*
X130701766Y-168584257D01*
X130805802Y-168574916D01*
X130903744Y-168562901D01*
X130970977Y-168552931D01*
X131408593Y-168473656D01*
X131815723Y-168377254D01*
X132201772Y-168260757D01*
X132576149Y-168121197D01*
X132948262Y-167955606D01*
X133096938Y-167882248D01*
X133511831Y-167651195D01*
X133900576Y-167392315D01*
X134261384Y-167107604D01*
X134592467Y-166799063D01*
X134892037Y-166468690D01*
X135158306Y-166118484D01*
X135389487Y-165750443D01*
X135583792Y-165366565D01*
X135739432Y-164968851D01*
X135760372Y-164904866D01*
X135826305Y-164681110D01*
X135875624Y-164471456D01*
X135910517Y-164262422D01*
X135933172Y-164040526D01*
X135945777Y-163792286D01*
X135946830Y-163755917D01*
X135950344Y-163579744D01*
X135950170Y-163435279D01*
X135945937Y-163312027D01*
X135937274Y-163199493D01*
X135923809Y-163087180D01*
X135922926Y-163080829D01*
X135842837Y-162659992D01*
X135722230Y-162250379D01*
X135561699Y-161853119D01*
X135361837Y-161469338D01*
X135123236Y-161100163D01*
X134846492Y-160746722D01*
X134532196Y-160410142D01*
X134500911Y-160379574D01*
X134144693Y-160063317D01*
X133761017Y-159777248D01*
X133352694Y-159521960D01*
X132922536Y-159298046D01*
X132473357Y-159106101D01*
X132007968Y-158946717D01*
X131529180Y-158820490D01*
X131039808Y-158728012D01*
X130542662Y-158669877D01*
X130040555Y-158646678D01*
X129536299Y-158659011D01*
X129032707Y-158707468D01*
X128532590Y-158792642D01*
X128038761Y-158915129D01*
X127844736Y-158974344D01*
X127371086Y-159146113D01*
X126920836Y-159348301D01*
X126495699Y-159579526D01*
X126097391Y-159838407D01*
X125727624Y-160123564D01*
X125388114Y-160433614D01*
X125080573Y-160767177D01*
X124806717Y-161122871D01*
X124568259Y-161499315D01*
X124458849Y-161702750D01*
X124291649Y-162069794D01*
X124162963Y-162436795D01*
X124069947Y-162812740D01*
X124027225Y-163066465D01*
X124011406Y-163216463D01*
X124000857Y-163393568D01*
X123995712Y-163584412D01*
X107739965Y-163584412D01*
X107740915Y-152120160D01*
X124187096Y-152120160D01*
X124187530Y-152311008D01*
X124192978Y-152494631D01*
X124203441Y-152658713D01*
X124215816Y-152770417D01*
X124296606Y-153188478D01*
X124417361Y-153595227D01*
X124576834Y-153989042D01*
X124773782Y-154368302D01*
X125006959Y-154731385D01*
X125275120Y-155076669D01*
X125577020Y-155402534D01*
X125911414Y-155707357D01*
X126277057Y-155989516D01*
X126672704Y-156247391D01*
X127042333Y-156451736D01*
X127451777Y-156643733D01*
X127869851Y-156805407D01*
X128302215Y-156938331D01*
X128754530Y-157044080D01*
X129232457Y-157124228D01*
X129624666Y-157169792D01*
X129703721Y-157174669D01*
X129816102Y-157177958D01*
X129952834Y-157179723D01*
X130104942Y-157180031D01*
X130263452Y-157178945D01*
X130419388Y-157176532D01*
X130563775Y-157172855D01*
X130687639Y-157167979D01*
X130782005Y-157161971D01*
X130788833Y-157161368D01*
X131316943Y-157093866D01*
X131830429Y-156989271D01*
X132327391Y-156848440D01*
X132805930Y-156672228D01*
X133264145Y-156461491D01*
X133700138Y-156217085D01*
X134112008Y-155939864D01*
X134497856Y-155630685D01*
X134786644Y-155360783D01*
X135085593Y-155034039D01*
X135348354Y-154689578D01*
X135574525Y-154329668D01*
X135763704Y-153956577D01*
X135915487Y-153572572D01*
X136029472Y-153179920D01*
X136105257Y-152780890D01*
X136142438Y-152377749D01*
X136140613Y-151972764D01*
X136099381Y-151568203D01*
X136018337Y-151166334D01*
X135897079Y-150769423D01*
X135735206Y-150379739D01*
X135688153Y-150283333D01*
X135501642Y-149945856D01*
X135291615Y-149630613D01*
X135052142Y-149329586D01*
X134777297Y-149034760D01*
X134731014Y-148988970D01*
X134562792Y-148827967D01*
X134409629Y-148690517D01*
X134259952Y-148567265D01*
X134102189Y-148448856D01*
X133924767Y-148325935D01*
X133846196Y-148273733D01*
X133417842Y-148017055D01*
X132964385Y-147794169D01*
X132486578Y-147605346D01*
X131985173Y-147450860D01*
X131460924Y-147330983D01*
X131053416Y-147263981D01*
X130908696Y-147248550D01*
X130730836Y-147236850D01*
X130528865Y-147228876D01*
X130311812Y-147224628D01*
X130088705Y-147224103D01*
X129868575Y-147227300D01*
X129660448Y-147234216D01*
X129473355Y-147244850D01*
X129316324Y-147259199D01*
X129275416Y-147264367D01*
X128739024Y-147356748D01*
X128223610Y-147483649D01*
X127730313Y-147644531D01*
X127260271Y-147838857D01*
X126814621Y-148066088D01*
X126394503Y-148325686D01*
X126001055Y-148617113D01*
X125635414Y-148939831D01*
X125546023Y-149027809D01*
X125246974Y-149356657D01*
X124981585Y-149706501D01*
X124751289Y-150074544D01*
X124557515Y-150457988D01*
X124401697Y-150854036D01*
X124285263Y-151259893D01*
X124215875Y-151627417D01*
X124201270Y-151766049D01*
X124191676Y-151934402D01*
X124187096Y-152120160D01*
X107740915Y-152120160D01*
X107741860Y-140720018D01*
X124186008Y-140720018D01*
X124194100Y-140949086D01*
X124210472Y-141169549D01*
X124234756Y-141369307D01*
X124257460Y-141496003D01*
X124367684Y-141914313D01*
X124516715Y-142318437D01*
X124702971Y-142706882D01*
X124924874Y-143078158D01*
X125180843Y-143430770D01*
X125469299Y-143763227D01*
X125788663Y-144074036D01*
X126137353Y-144361706D01*
X126513791Y-144624743D01*
X126916396Y-144861655D01*
X127343590Y-145070950D01*
X127793792Y-145251135D01*
X128265423Y-145400719D01*
X128439333Y-145446585D01*
X128747093Y-145515332D01*
X129074642Y-145573794D01*
X129404805Y-145619377D01*
X129720407Y-145649488D01*
X129825750Y-145655968D01*
X129952027Y-145659473D01*
X130108945Y-145659238D01*
X130285013Y-145655675D01*
X130468741Y-145649195D01*
X130648641Y-145640207D01*
X130813221Y-145629123D01*
X130950993Y-145616352D01*
X130958579Y-145615493D01*
X131483329Y-145535951D01*
X131992837Y-145419996D01*
X132484883Y-145268517D01*
X132957250Y-145082403D01*
X133407719Y-144862543D01*
X133834070Y-144609826D01*
X134234085Y-144325142D01*
X134291916Y-144279548D01*
X134648017Y-143970841D01*
X134968180Y-143642891D01*
X135251726Y-143296856D01*
X135497977Y-142933890D01*
X135706255Y-142555152D01*
X135875880Y-142161796D01*
X136006174Y-141754979D01*
X136096460Y-141335858D01*
X136121714Y-141161055D01*
X136133104Y-141033428D01*
X136140241Y-140876933D01*
X136143126Y-140704826D01*
X136141758Y-140530357D01*
X136136136Y-140366781D01*
X136126261Y-140227349D01*
X136121746Y-140186278D01*
X136047916Y-139760331D01*
X135933925Y-139347295D01*
X135780181Y-138947983D01*
X135587090Y-138563206D01*
X135355059Y-138193777D01*
X135084496Y-137840507D01*
X134779560Y-137507965D01*
X134616328Y-137347931D01*
X134468620Y-137211730D01*
X134325363Y-137090262D01*
X134175486Y-136974423D01*
X134007916Y-136855113D01*
X133880208Y-136768686D01*
X133455423Y-136510739D01*
X133005193Y-136285803D01*
X132531390Y-136094547D01*
X132035887Y-135937642D01*
X131520556Y-135815757D01*
X130987267Y-135729562D01*
X130970706Y-135727497D01*
X130828900Y-135713944D01*
X130655002Y-135703594D01*
X130458964Y-135696509D01*
X130250737Y-135692750D01*
X130040272Y-135692378D01*
X129837520Y-135695453D01*
X129652433Y-135702035D01*
X129494961Y-135712187D01*
X129434166Y-135718113D01*
X128894245Y-135797595D01*
X128375997Y-135912912D01*
X127877884Y-136064500D01*
X127398368Y-136252792D01*
X127179916Y-136353639D01*
X126746434Y-136583713D01*
X126342576Y-136839095D01*
X125969450Y-137118385D01*
X125628162Y-137420182D01*
X125319822Y-137743086D01*
X125045535Y-138085696D01*
X124806411Y-138446613D01*
X124603556Y-138824435D01*
X124438078Y-139217762D01*
X124311084Y-139625194D01*
X124223683Y-140045331D01*
X124215090Y-140102167D01*
X124196135Y-140284460D01*
X124186564Y-140494443D01*
X124186008Y-140720018D01*
X107741860Y-140720018D01*
X107742795Y-129440033D01*
X123893322Y-129440033D01*
X123925975Y-129856237D01*
X124000677Y-130274278D01*
X124038253Y-130426350D01*
X124165834Y-130825569D01*
X124332118Y-131211257D01*
X124535200Y-131581850D01*
X124773175Y-131935787D01*
X125044140Y-132271504D01*
X125346191Y-132587439D01*
X125677423Y-132882030D01*
X126035932Y-133153714D01*
X126419814Y-133400929D01*
X126827165Y-133622112D01*
X127256082Y-133815700D01*
X127704659Y-133980132D01*
X128170993Y-134113844D01*
X128653179Y-134215273D01*
X128656068Y-134215773D01*
X129131957Y-134281526D01*
X129613218Y-134316283D01*
X130087951Y-134319465D01*
X130420634Y-134301751D01*
X130956749Y-134239123D01*
X131478175Y-134138866D01*
X131983153Y-134001648D01*
X132469925Y-133828142D01*
X132936730Y-133619016D01*
X133381811Y-133374943D01*
X133803408Y-133096591D01*
X134027333Y-132926990D01*
X134369730Y-132630763D01*
X134678811Y-132313834D01*
X134953845Y-131978343D01*
X135194099Y-131626433D01*
X135398843Y-131260243D01*
X135567344Y-130881915D01*
X135698871Y-130493589D01*
X135792692Y-130097407D01*
X135848074Y-129695509D01*
X135864288Y-129290037D01*
X135840600Y-128883131D01*
X135776279Y-128476933D01*
X135678005Y-128097309D01*
X135534123Y-127698120D01*
X135354540Y-127317238D01*
X135138027Y-126952709D01*
X134883358Y-126602582D01*
X134589306Y-126264904D01*
X134416166Y-126089435D01*
X134053350Y-125765879D01*
X133662570Y-125473169D01*
X133245716Y-125212132D01*
X132804676Y-124983600D01*
X132341340Y-124788400D01*
X131857597Y-124627364D01*
X131355337Y-124501320D01*
X130836448Y-124411097D01*
X130508276Y-124373610D01*
X130378265Y-124365005D01*
X130217937Y-124359671D01*
X130035910Y-124357434D01*
X129840804Y-124358121D01*
X129641236Y-124361559D01*
X129445826Y-124367576D01*
X129263193Y-124375998D01*
X129101954Y-124386653D01*
X128970729Y-124399368D01*
X128926166Y-124405351D01*
X128418139Y-124498849D01*
X127925853Y-124623496D01*
X127453313Y-124777876D01*
X127004523Y-124960575D01*
X126583488Y-125170176D01*
X126312083Y-125329225D01*
X126063581Y-125495736D01*
X125812358Y-125684507D01*
X125565865Y-125888866D01*
X125331551Y-126102141D01*
X125116867Y-126317660D01*
X124929262Y-126528751D01*
X124824692Y-126661333D01*
X124568810Y-127036912D01*
X124353525Y-127421270D01*
X124179046Y-127813415D01*
X124045579Y-128212356D01*
X123953331Y-128617101D01*
X123902509Y-129026657D01*
X123893322Y-129440033D01*
X107742795Y-129440033D01*
X107743621Y-119480542D01*
X107743767Y-117714882D01*
X123868135Y-117714882D01*
X123870814Y-117922294D01*
X123880168Y-118119155D01*
X123896195Y-118292375D01*
X123900448Y-118324802D01*
X123979014Y-118735527D01*
X124098707Y-119138575D01*
X124258701Y-119531950D01*
X124458172Y-119913655D01*
X124696295Y-120281695D01*
X124725292Y-120321917D01*
X125013495Y-120681848D01*
X125334524Y-121016741D01*
X125686256Y-121325445D01*
X126066567Y-121606812D01*
X126473335Y-121859691D01*
X126904438Y-122082935D01*
X127357751Y-122275394D01*
X127831153Y-122435918D01*
X128322521Y-122563359D01*
X128829732Y-122656567D01*
X129102539Y-122691508D01*
X129246929Y-122703648D01*
X129422580Y-122712696D01*
X129618528Y-122718569D01*
X129823806Y-122721179D01*
X130027449Y-122720441D01*
X130218494Y-122716271D01*
X130385973Y-122708582D01*
X130471333Y-122702177D01*
X130969871Y-122639654D01*
X131453787Y-122544395D01*
X131921398Y-122417792D01*
X132371021Y-122261237D01*
X132800975Y-122076119D01*
X133209577Y-121863829D01*
X133595144Y-121625760D01*
X133955993Y-121363301D01*
X134290443Y-121077843D01*
X134596812Y-120770779D01*
X134873415Y-120443497D01*
X135118571Y-120097391D01*
X135330598Y-119733850D01*
X135507813Y-119354265D01*
X135648534Y-118960028D01*
X135751077Y-118552529D01*
X135793608Y-118302035D01*
X135812123Y-118122192D01*
X135822611Y-117915594D01*
X135825071Y-117697053D01*
X135819504Y-117481377D01*
X135805909Y-117283378D01*
X135793608Y-117177132D01*
X135714095Y-116758986D01*
X135594076Y-116351727D01*
X135434261Y-115956576D01*
X135235358Y-115574752D01*
X134998077Y-115207475D01*
X134723126Y-114855967D01*
X134411216Y-114521446D01*
X134069666Y-114210684D01*
X133794536Y-113996681D01*
X133487749Y-113788830D01*
X133159978Y-113593453D01*
X132821901Y-113416871D01*
X132484191Y-113265407D01*
X132450416Y-113251711D01*
X131980287Y-113081602D01*
X131508272Y-112948793D01*
X131027782Y-112851933D01*
X130532227Y-112789673D01*
X130058583Y-112761828D01*
X129512047Y-112765543D01*
X128976111Y-112808714D01*
X128452362Y-112890925D01*
X127942391Y-113011763D01*
X127447785Y-113170814D01*
X126970135Y-113367664D01*
X126511028Y-113601899D01*
X126257320Y-113752560D01*
X125865237Y-114019990D01*
X125504426Y-114311224D01*
X125176041Y-114624591D01*
X124881239Y-114958420D01*
X124621175Y-115311042D01*
X124397005Y-115680784D01*
X124209883Y-116065978D01*
X124060965Y-116464953D01*
X123951407Y-116876037D01*
X123900187Y-117160216D01*
X123882819Y-117320754D01*
X123872136Y-117510006D01*
X123868135Y-117714882D01*
X107743767Y-117714882D01*
X107744699Y-106462114D01*
X124231956Y-106462114D01*
X124267533Y-106881186D01*
X124345096Y-107300297D01*
X124365221Y-107382228D01*
X124485855Y-107770264D01*
X124646522Y-108150571D01*
X124845213Y-108520388D01*
X125079923Y-108876955D01*
X125348642Y-109217510D01*
X125649363Y-109539293D01*
X125980078Y-109839543D01*
X126338780Y-110115498D01*
X126367736Y-110135823D01*
X126797858Y-110410065D01*
X127249291Y-110648494D01*
X127720009Y-110850618D01*
X128207982Y-111015941D01*
X128711181Y-111143969D01*
X129227578Y-111234207D01*
X129755144Y-111286162D01*
X130291850Y-111299338D01*
X130835668Y-111273242D01*
X130979333Y-111259823D01*
X131478100Y-111189807D01*
X131965407Y-111084290D01*
X132438766Y-110944681D01*
X132895686Y-110772385D01*
X133333681Y-110568810D01*
X133750260Y-110335362D01*
X134142937Y-110073447D01*
X134509223Y-109784472D01*
X134846628Y-109469844D01*
X135152664Y-109130970D01*
X135424844Y-108769255D01*
X135449244Y-108733167D01*
X135545751Y-108578459D01*
X135647160Y-108397416D01*
X135747524Y-108202104D01*
X135840896Y-108004587D01*
X135921332Y-107816931D01*
X135982884Y-107651203D01*
X135983780Y-107648501D01*
X136096701Y-107241279D01*
X136168072Y-106829676D01*
X136198148Y-106415991D01*
X136187181Y-106002525D01*
X136135425Y-105591577D01*
X136043133Y-105185447D01*
X135910559Y-104786435D01*
X135737956Y-104396840D01*
X135596764Y-104136608D01*
X135354393Y-103763764D01*
X135076520Y-103411486D01*
X134765456Y-103081307D01*
X134423511Y-102774759D01*
X134052996Y-102493376D01*
X133656222Y-102238690D01*
X133235499Y-102012233D01*
X132793140Y-101815539D01*
X132331453Y-101650140D01*
X131852752Y-101517569D01*
X131550833Y-101452992D01*
X131036039Y-101374866D01*
X130518599Y-101335093D01*
X130001505Y-101332975D01*
X129487751Y-101367810D01*
X128980328Y-101438900D01*
X128482231Y-101545545D01*
X127996452Y-101687045D01*
X127525983Y-101862701D01*
X127073818Y-102071814D01*
X126642949Y-102313682D01*
X126236369Y-102587607D01*
X126035874Y-102742215D01*
X125836281Y-102915080D01*
X125631266Y-103114030D01*
X125428835Y-103330031D01*
X125236993Y-103554050D01*
X125063745Y-103777054D01*
X124917097Y-103990006D01*
X124885951Y-104039923D01*
X124674955Y-104424477D01*
X124504418Y-104818866D01*
X124374595Y-105221457D01*
X124285741Y-105630617D01*
X124238110Y-106044714D01*
X124231956Y-106462114D01*
X107744699Y-106462114D01*
X107745619Y-95362604D01*
X124162349Y-95362604D01*
X124195427Y-95765284D01*
X124270251Y-96176357D01*
X124384350Y-96575606D01*
X124535973Y-96961631D01*
X124723364Y-97333031D01*
X124944771Y-97688407D01*
X125198440Y-98026357D01*
X125482617Y-98345482D01*
X125795549Y-98644381D01*
X126135481Y-98921654D01*
X126500660Y-99175901D01*
X126889334Y-99405721D01*
X127299747Y-99609715D01*
X127730146Y-99786481D01*
X128178778Y-99934619D01*
X128643889Y-100052730D01*
X129123726Y-100139413D01*
X129616534Y-100193267D01*
X129751666Y-100202002D01*
X130097563Y-100211246D01*
X130465326Y-100202859D01*
X130810000Y-100179765D01*
X131315600Y-100115686D01*
X131812224Y-100014596D01*
X132296739Y-99877865D01*
X132766014Y-99706863D01*
X133216916Y-99502960D01*
X133646314Y-99267526D01*
X134051077Y-99001933D01*
X134428073Y-98707550D01*
X134666063Y-98492496D01*
X134976346Y-98168236D01*
X135251081Y-97825946D01*
X135489682Y-97467772D01*
X135691560Y-97095863D01*
X135856128Y-96712364D01*
X135982798Y-96319424D01*
X136070983Y-95919187D01*
X136120094Y-95513803D01*
X136129545Y-95105417D01*
X136098748Y-94696177D01*
X136027115Y-94288230D01*
X135921387Y-93905917D01*
X135864119Y-93748733D01*
X135789284Y-93569737D01*
X135702837Y-93381385D01*
X135610731Y-93196134D01*
X135518921Y-93026439D01*
X135433362Y-92884758D01*
X135432985Y-92884179D01*
X135173877Y-92523110D01*
X134879493Y-92178894D01*
X134555382Y-91857183D01*
X134207095Y-91563635D01*
X133960825Y-91384052D01*
X133529975Y-91114171D01*
X133078995Y-90880044D01*
X132610701Y-90681849D01*
X132127909Y-90519764D01*
X131633434Y-90393967D01*
X131130094Y-90304637D01*
X130620703Y-90251952D01*
X130108077Y-90236091D01*
X129595033Y-90257231D01*
X129084387Y-90315551D01*
X128578954Y-90411229D01*
X128081550Y-90544445D01*
X127594992Y-90715375D01*
X127122095Y-90924198D01*
X127074083Y-90947962D01*
X126656529Y-91176833D01*
X126267283Y-91430775D01*
X125907422Y-91707984D01*
X125578026Y-92006655D01*
X125280173Y-92324982D01*
X125014941Y-92661160D01*
X124783411Y-93013384D01*
X124586659Y-93379849D01*
X124425766Y-93758750D01*
X124301810Y-94148281D01*
X124215869Y-94546637D01*
X124169022Y-94952013D01*
X124162349Y-95362604D01*
X107745619Y-95362604D01*
X107748916Y-55594250D01*
X122719041Y-55588943D01*
X137689166Y-55583637D01*
X137689166Y-183366833D01*
%TD*%
M02*
