%FSLAX45Y45*%
G04 Gerber Fmt 4.5, Leading zero omitted, Abs format (unit mm)*
G04 Created by KiCad (PCBNEW (5.1.9)-1) date 2021-08-11 15:42:23*
%MOMM*%
%LPD*%
G01*
G04 APERTURE LIST*
%TA.AperFunction,Profile*%
%ADD10C,0.050000*%
%TD*%
%ADD11C,0.200000*%
%ADD12C,0.300000*%
G04 APERTURE END LIST*
D10*
X11582400Y-17879060D02*
G75*
G02*
X11582400Y-18199100I0J-160020D01*
G01*
X11150600Y-18199100D02*
G75*
G02*
X11150600Y-17879060I0J160020D01*
G01*
X11582400Y-18199100D02*
X11150600Y-18199100D01*
X11150600Y-17879060D02*
X11582400Y-17879060D01*
X12700000Y-5674360D02*
X13131800Y-5674360D01*
X13131800Y-5994400D02*
X12700000Y-5994400D01*
X13131800Y-5674360D02*
G75*
G02*
X13131800Y-5994400I0J-160020D01*
G01*
X12700000Y-5994400D02*
G75*
G02*
X12700000Y-5674360I0J160020D01*
G01*
X11936000Y-8205460D02*
G75*
G03*
X11936000Y-8205460I-320000J0D01*
G01*
X13402000Y-8205460D02*
G75*
G03*
X13402000Y-8205460I-320000J0D01*
G01*
X11936000Y-14073200D02*
G75*
G03*
X11936000Y-14073200I-320000J0D01*
G01*
X11936000Y-16359200D02*
G75*
G03*
X11936000Y-16359200I-320000J0D01*
G01*
X11936000Y-15216540D02*
G75*
G03*
X11936000Y-15216540I-320000J0D01*
G01*
X11936000Y-12930540D02*
G75*
G03*
X11936000Y-12930540I-320000J0D01*
G01*
X11936000Y-11787540D02*
G75*
G03*
X11936000Y-11787540I-320000J0D01*
G01*
X11936000Y-10644540D02*
G75*
G03*
X11936000Y-10644540I-320000J0D01*
G01*
X11936000Y-9501200D02*
G75*
G03*
X11936000Y-9501200I-320000J0D01*
G01*
X13766800Y-18338800D02*
X13766800Y-5537200D01*
X10769600Y-5537200D02*
X10769600Y-18338800D01*
X10769600Y-18338800D02*
X13766800Y-18338800D01*
X13766800Y-5537200D02*
X10769600Y-5537200D01*
D11*
D12*
X11053528Y-18807014D02*
X11053528Y-18507014D01*
X11124957Y-18507014D01*
X11167814Y-18521300D01*
X11196386Y-18549872D01*
X11210671Y-18578443D01*
X11224957Y-18635586D01*
X11224957Y-18678443D01*
X11210671Y-18735586D01*
X11196386Y-18764157D01*
X11167814Y-18792729D01*
X11124957Y-18807014D01*
X11053528Y-18807014D01*
X11353528Y-18807014D02*
X11353528Y-18607014D01*
X11353528Y-18664157D02*
X11367814Y-18635586D01*
X11382100Y-18621300D01*
X11410671Y-18607014D01*
X11439243Y-18607014D01*
X11539243Y-18807014D02*
X11539243Y-18607014D01*
X11539243Y-18507014D02*
X11524957Y-18521300D01*
X11539243Y-18535586D01*
X11553528Y-18521300D01*
X11539243Y-18507014D01*
X11539243Y-18535586D01*
X11724957Y-18807014D02*
X11696386Y-18792729D01*
X11682100Y-18764157D01*
X11682100Y-18507014D01*
X11882100Y-18807014D02*
X11853528Y-18792729D01*
X11839243Y-18764157D01*
X11839243Y-18507014D01*
X12224957Y-18807014D02*
X12224957Y-18507014D01*
X12324957Y-18721300D01*
X12424957Y-18507014D01*
X12424957Y-18807014D01*
X12696386Y-18807014D02*
X12696386Y-18649872D01*
X12682100Y-18621300D01*
X12653528Y-18607014D01*
X12596386Y-18607014D01*
X12567814Y-18621300D01*
X12696386Y-18792729D02*
X12667814Y-18807014D01*
X12596386Y-18807014D01*
X12567814Y-18792729D01*
X12553528Y-18764157D01*
X12553528Y-18735586D01*
X12567814Y-18707014D01*
X12596386Y-18692729D01*
X12667814Y-18692729D01*
X12696386Y-18678443D01*
X12839243Y-18607014D02*
X12839243Y-18907014D01*
X12839243Y-18621300D02*
X12867814Y-18607014D01*
X12924957Y-18607014D01*
X12953528Y-18621300D01*
X12967814Y-18635586D01*
X12982100Y-18664157D01*
X12982100Y-18749872D01*
X12967814Y-18778443D01*
X12953528Y-18792729D01*
X12924957Y-18807014D01*
X12867814Y-18807014D01*
X12839243Y-18792729D01*
X13110671Y-18778443D02*
X13124957Y-18792729D01*
X13110671Y-18807014D01*
X13096386Y-18792729D01*
X13110671Y-18778443D01*
X13110671Y-18807014D01*
X13110671Y-18621300D02*
X13124957Y-18635586D01*
X13110671Y-18649872D01*
X13096386Y-18635586D01*
X13110671Y-18621300D01*
X13110671Y-18649872D01*
M02*
